<svg xmlns="http://www.w3.org/2000/svg" viewBox="0 0 49.5 172.294907" width="49.5" height="172.294907" fill="currentColor" stroke="none">
<g transform="translate(24.75 86.147453)"><g><g><path d="M -7.25 -34.324999999999996 l -10 10 l 0 40 l 9.55 -9.55 l 20.65 29.4 l 7.5 -7.5 l -21.6 -30.85 l -6.1 6.1 l 0 -37.6 z"></path><g><path d="M -17.25 -13.125000000000004 q 5 -12.14 10 -11.2 l 0 -10 l -17.5 17.5 l 1.2 1.2 l 6.3 -6.3 l 0 8.8 z"></path></g><g><path d="M 24.75 47.324999999999996 l -11.8 -11.8 l 5 -5 q -7.681 -1.687 -7.1 0.5 l 0.95 3.35 l -7.05 7.05 l 13 12.9 z"></path></g><path d="M 10 -44.325 l 10 -10 l -30 0 l -10 10 l 30 0 z"></path></g></g></g>
</svg>
