<svg xmlns="http://www.w3.org/2000/svg" viewBox="0 0 162.55 100" width="162.55" height="100" fill="currentColor" stroke="none">
<g transform="translate(81.275 50)"><g><g><path d="M -58.87500000000001 -30 l -10 10 l 0 60 l 10 -10 l 0 -60 z"></path><g><path d="M -81.275 50 l 22.4 0 l 10 -10.1 l -19.9 0 l -0.1 0.1 l 0 -0.1 l 0.05 0 l 9.95 -9.9 l 0 -5 q -5 5.774 -10 5 l 0 7.55 l -12.4 12.4 z"></path></g></g><g><path d="M -6.325000000000017 -30 l -7.5 7.5 l 31.25 31.25 l -31.25 31.25 l 40 0 l 10 -10 l -37.6 0 l 27.5 -27.6 l -32.4 -32.4 z"></path><g><path d="M -13.825000000000017 -22.5 l -15.05 0 l -10 10 l 17.45 0 l 8.75 -8.8 q 6.9 0.2 3.8 -6.15 l -4.95 4.95 z"></path></g><g><path d="M 28.525000000000006 30 q 0.465 4.718 -7.9 10 l 5.55 0 l 17.6 -17.6 l 0 -15 l -10 10 l 0 12.6 l -5.25 0 z"></path></g><path d="M 12.449999999999989 -40 l 10 -10 l -30 0 l -10 10 l 30 0 z"></path></g><g><path d="M 73.775 -6.15 l -10 10 l 0 -33.85 l -10 10 l 0 36.2 l 10 -9.95 l 0 33.75 l 10 -10 l 0 -36.15 z"></path><g><path d="M 73.775 18.8 q -5 12.14 -10 11.2 l 0 10 l 17.5 -17.5 l -1.2 -1.2 l -6.3 6.3 l 0 -8.8 z"></path></g></g></g></g>
</svg>
