<svg xmlns="http://www.w3.org/2000/svg" viewBox="0 0 156.3 97.5" width="156.3" height="97.5" fill="currentColor" stroke="none">
<g transform="translate(78.15 48.75)"><g><g><path d="M -41.35000000000001 14.35 l 7.45 -7.5 27.05 34.4 7.5 -7.5 -27.8 -36 -7.75 7.8 -26.95 -34.3 -7.5 7.5 28 35.6 z"></path><path d="M -68.15 -20.05 q 6.486 1.216 4.75 -5 q -2.924 3.894 -5.95 3.8 l -8.8 8.8 l 0 15 l 10 -10 l 0 -12.6 z"></path><path d="M -2.4000000000000057 34.85 q -1.825 3.28 -4.45 6.4 l -7.5 7.5 l -1.2 -1.2 l 7.5 -7.5 q -1.688 -4.106 -0.35 -4.55 q 1.45 -0.6 6 -0.65 z"></path><path d="M -24.35000000000001 -38.75 l 10 -10 l -30 0 l -10 10 l 30 0 z"></path></g><g><path d="M 28.14999999999999 -28.75 l -10 10 l 0 35 l 26.3 0 l 8.7 -8.75 l 0 33.75 l 10 -10 l 0 -36.15 l -11.15 11.15 l -23.85 0 l 0 -35 z"></path><g><path d="M 18.14999999999999 -7.550000000000001 q 5 -12.14 10 -11.2 l 0 -10 l -17.5 17.5 l 1.2 1.2 l 6.3 -6.3 l 0 8.8 z"></path></g><g><path d="M 53.150000000000006 26.25 l 0 15 l 15 0 l 10 -10 l -15 0 l 0 -10 q -3.874 7.753 -10 5 z"></path></g></g></g></g>
</svg>
