<svg xmlns="http://www.w3.org/2000/svg" viewBox="0 0 51.8 172.294907" width="51.8" height="172.294907" fill="currentColor" stroke="none">
<g transform="translate(25.9 86.147453)"><g><g><path d="M -15.900000000000002 -60 l -10 10 l 0 60 l 10 -10 l 0 -50 l 30 0 l 10 -10 l -40 0 z"></path><g><path d="M 25.899999999999995 -38.2 l -11.8 -11.8 l 10 -10 l -11.15 0 q 3.75 5.2 -5.8 10 l 4.65 0 l -5.9 5.9 l 13 12.9 l 7 -7 z"></path></g><g><path d="M -15.900000000000002 17.6 l 0 -17.6 q -7.3 -5 -10 10 l 0 20 l 17.5 -17.5 l -1.2 -1.2 l -6.3 6.3 z"></path></g><path d="M -7.600000000000005 50 l 8.8 -8.8 l -1.2 -1.2 l -20 20 l 30 0 l 10 -10 l -27.6 0 z"></path></g></g></g>
</svg>
