<svg xmlns="http://www.w3.org/2000/svg" viewBox="0 0 430.5 140.225" width="430.5" height="140.225" fill="currentColor" stroke="none">
<g transform="translate(215.25 70.1125)"><g><g><path d="M -207.75 -45.1125 l -7.5 7.5 57.5 62.5 7.5 -7.5 -57.5 -62.5 z"></path><path d="M -180.25 44.8875 l 10 -10 l -30 0 l -10 10 l 30 0 z"></path></g><g><path d="M -100.25 -45.1125 l -10 10 l 0 20 l -20 0 l -10 10 l 0 30 l 30 0 l 10 -10 l -30 0 l 0 -20 l 20 0 l 10 -10 l 0 -30 z"></path><g><path d="M -109.9 -33.012499999999996 q 0.375 -0.363 1.15 -1.15 q 6.261 -1.099 8.5 3.8 l 0 -14.75 l -10 10 l -10 -10 l -7.15 7.15 l 11.3 11.2 l 5.85 -5.9 q 0.04 -0.029 0.35 -0.35 z"></path></g><g><path d="M -122.65 34.8875 l 22.4 0 l 9.9 -10 l -19.9 0 l 10 -10 l -12.65 0 q 5.504 3.447 -5.3 10 l 5.5 0 l -9.95 10 z"></path></g></g><g><path d="M -60.349999999999994 -21.262499999999996 l -10 10 l 0 -33.85 l -10 10 l 0 36.2 l 10 -9.95 l 0 33.75 l 10 -10 l 0 -36.15 z"></path><g><path d="M -70.35 44.8875 l 10 -10 l 0 -20 q -7.3 -5 -10 10 l 0 20 z"></path></g></g><g><path d="M -42.849999999999994 -45.1125 l -7.5 7.5 l 31.25 31.25 l -31.25 31.25 l 40 0 l 10 -10 l -37.6 0 l 27.5 -27.6 l -32.4 -32.4 z"></path><path d="M -32.849999999999994 -62.6125 l 7.5 7.5 l 7.5 -7.5 l -7.5 -7.5 l -7.5 7.5 z"></path><path d="M -39.099999999999994 42.3875 l 20 20 l 7.5 -7.5 l -20 -20 l -7.5 7.5 z"></path></g><g><path d="M 37.650000000000006 -2.0124999999999975 l 7.45 -7.5 27.05 34.4 7.5 -7.5 -27.8 -36 -7.75 7.8 -26.95 -34.3 -7.5 7.5 28 35.6 z"></path></g><g><path d="M 129.64999999999998 -5.487499999999997 l 10 -10 l -29.85 -29.85 l -7.5 7.5 l 22.35 22.35 l -20 0 l -15 15 l 25.6 25.6 l 7.5 -7.5 l -23.1 -23.1 l 30 0 z"></path><g><path d="M 122.75 17.612500000000004 q -6.8 0.5 -7.5 7.5 l 15 15 l 15 -15 l -1.2 -1.2 l -7.5 7.5 l -13.8 -13.8 z"></path></g><path d="M 109.84999999999997 60.1125 l 8.8 -8.8 l -1.2 -1.2 l -20 20 l 30 0 l 10 -10 l -27.6 0 z"></path></g><g><path d="M 183.2 -60.1125 l -7.5 7.5 l 21.65 27.5 l 7.45 -7.5 l -21.6 -27.5 z"></path><path d="M 165.25 -15.112499999999997 l -10 10 l 50 0 l 10 -10 l -50 0 z"></path></g></g></g>
</svg>
