<svg xmlns="http://www.w3.org/2000/svg" viewBox="0 0 81.3 172.294907" width="81.3" height="172.294907" fill="currentColor" stroke="none">
<g transform="translate(40.65 86.147453)"><g><g><path d="M -24.349999999999994 -31.25 l -7.5 7.5 57.5 62.5 7.5 -7.5 -57.5 -62.5 z"></path><path d="M -30.649999999999995 -22.55 q 4.2 0.65 6.3 -2.7 q 0.8 -1 0 -6 l -6.3 6.3 l 0 -19.95 l -10 10.1 l 0 22.35 l 10 -10.1 z"></path><path d="M -21.849999999999994 21.25 l -10 10 l 0 25 l 10 -10 l 0 -25 z"></path><path d="M 30.650000000000006 -21.25 l 10 -10 l -30 0 l -10 10 l 30 0 z"></path><path d="M -6.849999999999994 -48.75 l 7.5 7.5 l 7.5 -7.5 l -7.5 -7.5 l -7.5 7.5 z"></path></g></g></g>
</svg>
