<svg xmlns="http://www.w3.org/2000/svg" viewBox="0 0 192.5 90" width="192.5" height="90" fill="currentColor" stroke="none">
<g transform="translate(96.25 45)"><g><g><path d="M -48.75 25 l 7.5 -7.5 -26.9 -26.9 7.45 -7.55 -28.05 -28.05 -7.5 7.5 26.9 26.9 -7.5 7.5 28.1 28.1 z"></path><path d="M -66.25 45 l 10 -10 l -30 0 l -10 10 l 30 0 z"></path></g><g><path d="M -21.25 -45 l -10 10 l 0 36.3 l 10 -10.05 l 0 33.75 l 10 -10 l 0 -36.15 l -10 10 l 0 -23.85 l 30 0 l 10 -10 l -40 0 z"></path><g><path d="M -3.6500000000000057 -25 l 22.4 0 l 17.5 -17.5 l -1.2 -1.2 l -8.7 8.7 l -17.6 0 l 10 -10 l -12.65 0 q 5.5 3.45 -5.3 10 l 5.5 0 l -9.95 10 z"></path></g><g><path d="M -17.549999999999997 41.4 l 16.3 -16.3 l 0 -22.45 l -10 10 l 0 -5.15 q -5 6.1 -10 2.5 l 0 15 l 10 -10 l 0 17.7 l -7.5 7.5 l 1.2 1.2 z"></path></g></g><g><path d="M 53.75 -45 l -7.5 7.5 l 31.25 31.25 l -31.25 31.25 l 40 0 l 10 -10 l -37.6 0 l 27.5 -27.6 l -32.4 -32.4 z"></path><path d="M 81.25 45 l 10 -10 l -30 0 l -10 10 l 30 0 z"></path></g></g></g>
</svg>
