<svg xmlns="http://www.w3.org/2000/svg" viewBox="0 0 75.05 172.294907" width="75.05" height="172.294907" fill="currentColor" stroke="none">
<g transform="translate(37.525 86.147453)"><g><g><path d="M -20.575 -50.025000000000006 l -7.5 7.5 l 22.55 22.55 l -14.4 0 l -17.6 17.65 l 0 22.35 l 40 0 l 10 -10 l -40 0 l 0 -20 l 30 0 l 8.5 -8.5 l -31.55 -31.55 z"></path><g><path d="M 12.475000000000001 10.025000000000006 l 15.05 0 l 10 -10 l -17.45 0 l -9.95 10 l -7.6 0 q 4.95 4.2 -6.25 10 l 6.25 0 l 9.95 -10 z"></path></g><path d="M -7.600000000000001 40.025000000000006 l 8.8 -8.8 l -1.2 -1.2 l -20 20 l 30 0 l 10 -10 l -27.6 0 z"></path></g></g></g>
</svg>
