<svg xmlns="http://www.w3.org/2000/svg" viewBox="0 0 76.45 172.294907" width="76.45" height="172.294907" fill="currentColor" stroke="none">
<g transform="translate(38.225 86.147453)"><g><g><path d="M 13.574999999999996 43.15 l 7.5 -7.5 -26.9 -26.9 7.45 -7.55 -28.05 -28.05 -7.5 7.5 26.9 26.9 -7.5 7.5 28.1 28.1 z"></path><path d="M -38.225 -38.65 l 11.8 11.8 l -5 5 q 7.681 1.687 7.1 -0.5 l -0.95 -3.35 l 7.05 -7.05 l -13 -12.9 z"></path><path d="M 16.074999999999996 40.65 l 5 -5 l 10 10 l 7.15 -7.15 l -11.3 -11.2 l -7 7.1 l -1 1 q -3.183 -1.742 -3.85 0 q -0.916 1.293 0 6.25 z"></path></g></g></g>
</svg>
