<svg xmlns="http://www.w3.org/2000/svg" viewBox="0 0 66.3 172.294907" width="66.3" height="172.294907" fill="currentColor" stroke="none">
<g transform="translate(33.15 86.147453)"><g><g><path d="M -8.149999999999999 -27.5 l -10 10 l 0 30 l 17.7 0 l -6.35 6.4 l 23.65 23.6 l 7.45 -7.5 l -22.5 -22.5 l 10.05 -10 l -20 0 l 0 -30 z"></path><g><path d="M -8.149999999999999 -27.5 l -15 0 l 0 -15 l -10 10 l 0 15 l 15 0 l 0 10 q 3.85 -7.75 10 -5 l 0 -15 z"></path></g><g><path d="M 23.15 33.8 q -6.486 -1.216 -4.75 5 q 2.924 -3.894 5.95 -3.8 l 8.8 -8.8 l 0 -15 l -10 10 l 0 12.6 z"></path></g></g></g></g>
</svg>
