<svg xmlns="http://www.w3.org/2000/svg" viewBox="0 0 52.35 172.294907" width="52.35" height="172.294907" fill="currentColor" stroke="none">
<g transform="translate(26.175 86.147453)"><g><g><path d="M 16.175 22.125 l 10 -10 l -29.85 -29.85 l -7.5 7.5 l 22.35 22.35 l -20 0 l -15 15 l 25.6 25.6 l 7.5 -7.5 l -23.1 -23.1 l 30 0 z"></path><g><path d="M -18.675 -32.725 l -7.5 7.5 l 15 15 q 6.8 -0.5 7.5 -7.5 l -15 -15 z"></path></g><g><path d="M 2.875 49.675000000000004 q 3.28 -1.825 6.4 -4.45 l 7.5 -7.5 l -1.2 -1.2 l -7.5 7.5 q -4.106 -1.688 -4.55 -0.35 q -0.6 1.45 -0.65 6 z"></path></g><path d="M 9.999999999999996 -42.725 l 10 -10 l -30 0 l -10 10 l 30 0 z"></path></g></g></g>
</svg>
