<svg xmlns="http://www.w3.org/2000/svg" viewBox="0 0 54.85 172.294907" width="54.85" height="172.294907" fill="currentColor" stroke="none">
<g transform="translate(27.425 86.147453)"><g><g><path d="M 17.425 4.625 l 10 -10 l -29.85 -29.85 l -7.5 7.5 l 22.35 22.35 l -20 0 l -15 15 l 25.6 25.6 l 7.5 -7.5 l -23.1 -23.1 l 30 0 z"></path><g><path d="M 0.1750000000000007 -25.225 q 1.655 -2.716 -2.6 -10 l -15 0 l -10 10 l 20 0 q 7.015 2.931 7.6 0 z"></path></g><g><path d="M 4.125 32.175000000000004 q 3.28 -1.825 6.4 -4.45 l 7.5 -7.5 l -1.2 -1.2 l -7.5 7.5 q -4.106 -1.688 -4.55 -0.35 q -0.6 1.45 -0.65 6 z"></path></g></g></g></g>
</svg>
