<svg xmlns="http://www.w3.org/2000/svg" viewBox="0 0 239.9 115" width="239.9" height="115" fill="currentColor" stroke="none">
<g transform="translate(119.95 57.5)"><g><g><path d="M -87.4 -57.5 l -7.5 7.5 57.5 62.5 7.5 -7.5 -57.5 -62.5 z"></path><path d="M -94.9 -50 l -15.05 0 l -10 10 l 17.45 0 l 8.75 -8.8 q 6.9 0.2 3.8 -6.15 l -4.95 4.95 z"></path><path d="M -34.900000000000006 10 l 5 -5 l 10 10 l 7.15 -7.15 l -11.3 -11.2 l -7 7.1 l -1 1 q -3.183 -1.742 -3.85 0 q -0.916 1.293 0 6.25 z"></path><path d="M -64.9 22.5 l -10 10 l 0 25 l 10 -10 l 0 -25 z"></path></g><g><path d="M 52.249999999999986 -57.475 l -10 10 l 0 20 l -35 0 l -10 10 l 29.95 29.95 l 7.5 -7.5 l -22.45 -22.45 l 30 0 l 10 -10 l 0 -30 z"></path><g><path d="M 24.59999999999998 2.47499999999998 q -1.65 2.7 2.6 10 l 12.6 0 l -7.5 7.5 l 1.2 1.2 l 18.7 -18.7 l -20 0 q -7 -2.95 -7.6 0 z"></path></g></g><g><path d="M 89.94999999999997 12.424999999999997 l 10 -10 l 0 -40 l -9.55 9.55 l -20.65 -29.4 l -7.5 7.5 l 21.6 30.85 l 6.1 -6.1 l 0 37.6 z"></path><g><path d="M 119.94999999999997 12.424999999999997 l -15 0 l 10 -10 l -15 0 l 0 -10 q -3.85 7.75 -10 5 l 0 15 l 12.55 0 l -9.95 10 l 17.4 0 l 10 -10 z"></path></g><path d="M 101.10000000000001 42.425 l 10 -10 l -30 0 l -10 10 l 30 0 z"></path></g></g></g>
</svg>
