<svg xmlns="http://www.w3.org/2000/svg" viewBox="0 0 543.7 130.025" width="543.7" height="130.025" fill="currentColor" stroke="none">
<g transform="translate(271.85 65.0125)"><g><g><path d="M -260.05 -45.0125 l -10 10 l 0 60 l 10 -10 l 0 -60 z"></path><g><path d="M -271.85 -56.8125 l 11.8 11.8 l -10 10 l 0 5 q 5.188 -7.964 10 -5 l 0 -7.7 l 8.2 -8.2 l -13 -12.9 l -7 7 z"></path></g><g><path d="M -270.05 9.987499999999997 l 0 15 l 15 0 l 10 -10 l -15 0 l 0 -10 q -3.874 7.753 -10 5 z"></path></g></g><g><path d="M -220.00000000000003 -35.0125 l 34.95 0 l 10 -10 l -50 0 l -10 10 l 25 25 l 0 35 l 10 -10 l 0 -30.05 l -19.95 -19.95 z"></path><g><path d="M -210.05 44.9875 l 10 -10 l 0 -20 q -7.3 -5 -10 10 l 0 20 z"></path></g><path d="M -195.05 -55.0125 l 10 -10 l -30 0 l -10 10 l 30 0 z"></path></g><g><path d="M -117.55000000000001 24.987499999999997 l 7.5 -7.5 -26.9 -26.9 7.45 -7.55 -28.05 -28.05 -7.5 7.5 26.9 26.9 -7.5 7.5 28.1 28.1 z"></path></g><g><path d="M -82.55000000000001 -45.0125 l -10 10 l 0 60 l 10 -10 l 0 -50 l 30 0 l 10 -10 l -40 0 z"></path><g><path d="M -42.55000000000001 -25.012500000000003 l 0.1 0 l 9.9 -10 l -19.9 0 l 10 -10 l -12.65 0 q 5.5 3.45 -5.3 10 l 5.5 0 l -9.95 10 l 19.9 0 l -7.5 7.5 l 1.2 1.2 l 8.7 -8.7 z"></path></g><g><path d="M -92.55000000000001 22.5875 l -7.5 7.55 q 16.8 -0.55 27.5 12.45 q -4.6 -18.35 -18.85 -18.8 l 8.85 -8.8 l 0 -5 q -4.75 4.55 -10 1.5 l 0 11.1 z"></path></g><path d="M -56.30000000000001 62.58749999999999 l 10 -10 l -30 0 l -10 10 l 30 0 z"></path></g><g><path d="M -12.650000000000034 -45.0375 l -9.9 9.95 l 47.35 58.35 l 0.05 0 l 1.4 1.75 l 7.5 -7.5 l -42.7 -52.55 l 52.05 0 l 10 -10 l -65.75 0 z"></path><g><path d="M 41.25 40.01250000000001 l 7.5 -7.5 l -15 -15 q -6.8 0.5 -7.5 7.5 l 15 15 z"></path></g><path d="M 7.774999999999977 57.5125 l 7.5 7.5 l 7.5 -7.5 l -7.5 -7.5 l -7.5 7.5 z"></path></g><g><path d="M 69.34999999999997 -35.0125 q 24.3 9.1 15 21.3 l 1.25 1.15 q 15.85 -14.1 3.75 -22.45 l 20 0 l 17.5 -17.5 l -1.2 -1.2 l -8.7 8.7 l -37.6 0 l -10 10 z"></path><path d="M 73.09999999999997 -15.012500000000003 l -10 10 l 50 0 l 10 -10 l -50 0 z"></path></g><g><path d="M 164.84999999999997 -1.9125000000000032 l 7.45 -7.5 27.05 34.4 7.5 -7.5 -27.8 -36 -7.75 7.8 -26.95 -34.3 -7.5 7.5 28 35.6 z"></path><path d="M 149.34999999999997 7.487499999999997 l -10 10 l 0 25 l 10 -10 l 0 -25 z"></path><path d="M 156.84999999999997 42.4875 l 7.5 7.5 l 7.5 -7.5 l -7.5 -7.5 l -7.5 7.5 z"></path></g><g><path d="M 271.8499999999999 -44.987500000000004 l -10 10 l 0 20 l -35 0 l -10 10 l 29.95 29.95 l 7.5 -7.5 l -22.45 -22.45 l 30 0 l 10 -10 l 0 -30 z"></path><g><path d="M 244.19999999999993 14.962499999999977 q -1.65 2.7 2.6 10 l 12.6 0 l -7.5 7.5 l 1.2 1.2 l 18.7 -18.7 l -20 0 q -7 -2.95 -7.6 0 z"></path></g></g></g></g>
</svg>
