<svg xmlns="http://www.w3.org/2000/svg" viewBox="0 0 75.05 172.294907" width="75.05" height="172.294907" fill="currentColor" stroke="none">
<g transform="translate(37.525 86.147453)"><g><g><path d="M -27.525 -30 l -10 10 l 0 60 l 10 -10 l 0 -50 l 30 0 l 10 -10 l -40 0 z"></path><g><path d="M 12.475000000000001 -30 l 12.65 0 l -7.5 7.5 l 1.2 1.2 l 18.7 -18.7 l -17.45 0 l -9.95 10 l -7.6 0 q 4.95 4.2 -6.25 10 l 6.25 0 l 9.95 -10 z"></path></g><g><path d="M -27.525 47.6 l 0 -17.6 q -7.3 -5 -10 10 l 0 20 l 17.5 -17.5 l -1.2 -1.2 l -6.3 6.3 z"></path></g><path d="M 10 -50 l 10 -10 l -30 0 l -10 10 l 30 0 z"></path></g></g></g>
</svg>
