<svg xmlns="http://www.w3.org/2000/svg" viewBox="0 0 103.85 172.294907" width="103.85" height="172.294907" fill="currentColor" stroke="none">
<g transform="translate(51.925 86.147453)"><g><g><path d="M -15.125 18.1 l 7.45 -7.5 27.05 34.4 7.5 -7.5 -27.8 -36 -7.75 7.8 -26.95 -34.3 -7.5 7.5 28 35.6 z"></path><path d="M -41.925 -16.3 q 6.486 1.216 4.75 -5 q -2.924 3.894 -5.95 3.8 l -8.8 8.8 l 0 15 l 10 -10 l 0 -12.6 z"></path><path d="M 26.875 37.5 l 15.05 0 l 10 -10 l -17.45 0 l -8.75 8.8 q -6.9 -0.2 -3.8 6.15 l 4.95 -4.95 z"></path><path d="M 1.875 -35 l 10 -10 l -30 0 l -10 10 l 30 0 z"></path></g></g></g>
</svg>
