<svg xmlns="http://www.w3.org/2000/svg" viewBox="0 0 231.35 131.4" width="231.35" height="131.4" fill="currentColor" stroke="none">
<g transform="translate(115.675 65.7)"><g><g><path d="M -78.87500000000001 2.399999999999997 l 7.45 -7.5 27.05 34.4 7.5 -7.5 -27.8 -36 -7.75 7.8 -26.95 -34.3 -7.5 7.5 28 35.6 z"></path><path d="M -105.67500000000001 -32 q 6.486 1.216 4.75 -5 q -2.924 3.894 -5.95 3.8 l -8.8 8.8 l 0 15 l 10 -10 l 0 -12.6 z"></path><path d="M -79.37500000000001 -58.2 l 7.5 7.5 l 7.5 -7.5 l -7.5 -7.5 l -7.5 7.5 z"></path><path d="M -86.87500000000001 46.8 l 7.5 7.5 l 7.5 -7.5 l -7.5 -7.5 l -7.5 7.5 z"></path></g><g><path d="M -19.375000000000014 -40.7 l -7.5 7.5 l 31.25 31.25 l -31.25 31.25 l 40 0 l 10 -10 l -37.6 0 l 27.5 -27.6 l -32.4 -32.4 z"></path></g><g fill="currentColor"><path d="M 75.67500000000001 -40.7 l -10 10 l 0 60 l 10 -10 l 0 -50 l 30 0 l 10 -10 l -40 0 z"></path><g><path d="M 75.67500000000001 19.299999999999997 l 0 -7.3 q -4.546 5.888 -10 3.05 l 0 11.95 l -15.05 0 l -17.5 17.5 l 1.2 1.2 l 8.7 -8.7 l 15 0 l 17.65 -17.7 z"></path></g><path d="M 84.39999999999998 65.7 l 10 -10 l -30 0 l -10 10 l 30 0 z"></path></g></g></g>
</svg>
