<svg xmlns="http://www.w3.org/2000/svg" viewBox="0 0 431.3 121.4" width="431.3" height="121.4" fill="currentColor" stroke="none">
<g transform="translate(215.65 60.7)"><g><g><path d="M -178.85000000000002 2.399999999999997 l 7.45 -7.5 27.05 34.4 7.5 -7.5 -27.8 -36 -7.75 7.8 -26.95 -34.3 -7.5 7.5 28 35.6 z"></path><path d="M -205.65 -32 q 4.2 0.65 6.3 -2.7 q 0.8 -1 0 -6 l -6.3 6.3 l 0 -19.95 l -10 10.1 l 0 22.35 l 10 -10.1 z"></path><path d="M -204.35000000000002 9.299999999999997 l 20 20 l 7.5 -7.5 l -20 -20 l -7.5 7.5 z"></path><path d="M -144.25 -30.700000000000003 l -8.8 8.8 l 1.2 1.2 l 20 -20 l -30 0 l -10 10 l 27.6 0 z"></path></g><g><path d="M -111.85000000000001 -40.7 l -10 10 l 0 60 l 40 0 l 10 -10 l -40 0 l 0 -60 z"></path><g><path d="M -99.35000000000001 59.5 l 1.2 1.2 l 16.3 -16.3 l 0 -15.1 l 10 -10 l -18.3 0 q 4.75 2.3 -1.7 10 l 7.6 0 l 0.25 -0.2 l -7.85 7.85 l 0 15.05 l -7.5 7.5 z"></path></g></g><g><path d="M -51.849999999999994 -40.7 l -10 10 l 0 60 l 10 -10 l 0 -60 z"></path><g><path d="M -61.849999999999994 14.299999999999997 l 0 15 l 15 0 l 10 -10 l -15 0 l 0 -10 q -3.874 7.753 -10 5 z"></path></g></g><g><path d="M -11.849999999999994 -40.7 l -10 10 l 0 35 l 19.95 0 l -24.95 25 l 40 0 l 10 -10 l -37.6 0 l 24.85 -25 l -22.25 0 l 0 -35 z"></path><path d="M 8.150000000000006 -50.7 l 10 -10 l -30 0 l -10 10 l 30 0 z"></path></g><g><path d="M 40.650000000000006 -40.7 l -7.5 7.5 57.5 62.5 7.5 -7.5 -57.5 -62.5 z"></path><path d="M 33.150000000000006 9.299999999999997 l 20 20 l 7.5 -7.5 l -20 -20 l -7.5 7.5 z"></path><path d="M 50.650000000000006 46.8 l 7.5 7.5 l 7.5 -7.5 l -7.5 -7.5 l -7.5 7.5 z"></path></g><g><path d="M 118.15 -40.7 l -10 10 l 0 35 l 26.3 0 l 8.7 -8.75 l 0 33.75 l 10 -10 l 0 -36.15 l -11.15 11.15 l -23.85 0 l 0 -35 z"></path><g><path d="M 108.15 -30.700000000000003 l 0 5 q 6.25 -9 10 -5 l 0 -7.6 l 11.8 11.7 l 7 -7 l -12.95 -12.95 l -15.85 15.85 z"></path></g><g><path d="M 143.15 29.299999999999997 l 15 0 l 0 15 l 10 -10 l 0 -15 l -15 0 l 0 -10 q -3.85 7.75 -10 5 l 0 15 z"></path></g></g><g><path d="M 205.65 -16.85 l -10 10 l 0 -33.85 l -10 10 l 0 36.2 l 10 -9.95 l 0 33.75 l 10 -10 l 0 -36.15 z"></path><g><path d="M 185.65 -19.500000000000004 q 5 -12.14 10 -11.2 l 0 -10 l -17.5 17.5 l 1.2 1.2 l 6.3 -6.3 l 0 8.8 z"></path></g><g><path d="M 183.25000000000003 39.3 l 22.4 0 l 10 -10.1 l -19.9 0 l -0.1 0.1 l 0 -0.1 l 0.05 0 l 9.95 -9.9 l 0 -5 q -5 5.774 -10 5 l 0 7.55 l -12.4 12.4 z"></path></g></g></g></g>
</svg>
