<svg xmlns="http://www.w3.org/2000/svg" viewBox="0 0 396.7 123.7" width="396.7" height="123.7" fill="currentColor" stroke="none">
<g transform="translate(198.35 61.85)"><g><g><path d="M -175.95 -33.14999999999999 l -10 10 l 0 60 l 10 -10 l 0 -60 z"></path><g><path d="M -198.35 46.85000000000001 l 22.4 0 l 10 -10.1 l -19.9 0 l -0.1 0.1 l 0 -0.1 l 0.05 0 l 9.95 -9.9 l 0 -5 q -5 5.774 -10 5 l 0 7.55 l -12.4 12.4 z"></path></g></g><g><path d="M -115.94999999999999 6.4750000000000085 l 10 -10 l -29.85 -29.85 l -7.5 7.5 l 22.35 22.35 l -20 0 l -15 15 l 25.6 25.6 l 7.5 -7.5 l -23.1 -23.1 l 30 0 z"></path><path d="M -120.94999999999999 -43.37499999999999 l 10 -10 l -30 0 l -10 10 l 30 0 z"></path></g><g><path d="M -88.44999999999999 -33.14999999999999 l -7.5 7.5 57.5 62.5 7.5 -7.5 -57.5 -62.5 z"></path><path d="M -87.29999999999998 -31.999999999999993 l 15.05 0 l 10 -10 l -17.45 0 l -8.75 8.85 q -1.75 3.2 -4.85 7.2 q 5.7 0.35 6 -6.05 z"></path><path d="M -41.04999999999998 26.85000000000001 q -1.655 2.716 2.6 10 l 15 0 l 10 -10 l -20 0 q -7.015 -2.931 -7.6 0 z"></path><path d="M -85.94999999999999 19.35000000000001 l -10 10 l 0 25 l 10 -10 l 0 -25 z"></path><path d="M -35.849999999999994 -23.14999999999999 l -8.8 8.8 l 1.2 1.2 l 20 -20 l -30 0 l -10 10 l 27.6 0 z"></path><path d="M -78.44999999999999 54.35000000000001 l 7.5 7.5 l 7.5 -7.5 l -7.5 -7.5 l -7.5 7.5 z"></path></g><g><path d="M 8.350000000000023 -33.14999999999999 l -7.5 7.5 l 31.25 31.25 l -31.25 31.25 l 40 0 l 10 -10 l -37.6 0 l 27.5 -27.6 l -32.4 -32.4 z"></path><g><path d="M -3.4499999999999886 -44.94999999999999 l 11.8 11.8 l -5 5 q 7.681 1.687 7.1 -0.5 l -0.95 -3.35 l 7.05 -7.05 l -13 -12.9 z"></path></g><g><path d="M 43.20000000000002 26.85000000000001 q 0.465 4.718 -7.9 10 l 5.55 0 l 17.6 -17.6 l 0 -15 l -10 10 l 0 12.6 l -5.25 0 z"></path></g></g><g><path d="M 86.65 -33.14999999999999 l -10 10 l 0 60 l 10 -10 l 0 -60 z"></path><g><path d="M 88.45000000000002 48.650000000000006 l -11.8 -11.8 l 10 -10 l 0 -5 q -5.188 7.964 -10 5 l 0 7.7 l -8.2 8.2 l 13 12.9 l 7 -7 z"></path></g></g><g><path d="M 108.45000000000002 -33.14999999999999 l -10 10 l 0 60 l 10 -10 l 0 -50 l 30 0 l 10 -10 l -40 0 z"></path><g><path d="M 128.45000000000002 -23.14999999999999 l 10 0 l 17.5 -17.5 l -1.2 -1.2 l -8.7 8.7 l -7.6 0 q 0.83 5.4 -10 10 z"></path></g><g><path d="M 98.45000000000002 21.85000000000001 l 0 15 l 15 0 l 10 -10 l -15 0 l 0 -10 q -3.874 7.753 -10 5 z"></path></g><path d="M 137.20000000000002 -51.849999999999994 l 10 -10 l -30 0 l -10 10 l 30 0 z"></path></g><g><path d="M 188.35 -9.299999999999992 l -10 10 l 0 -33.85 l -10 10 l 0 36.2 l 10 -9.95 l 0 33.75 l 10 -10 l 0 -36.15 z"></path><g><path d="M 165.95000000000002 46.85000000000001 l 22.4 0 l 10 -10.1 l -19.9 0 l -0.1 0.1 l 0 -0.1 l 0.05 0 l 9.95 -9.9 l 0 -5 q -5 5.774 -10 5 l 0 7.55 l -12.4 12.4 z"></path></g></g></g></g>
</svg>
