<svg xmlns="http://www.w3.org/2000/svg" viewBox="0 0 206.3 135" width="206.3" height="135" fill="currentColor" stroke="none">
<g transform="translate(103.15 67.5)"><g><g><path d="M -58.85000000000001 -4.4 l 7.45 -7.5 27.05 34.4 7.5 -7.5 -27.8 -36 -7.75 7.8 -26.95 -34.3 -7.5 7.5 28 35.6 z"></path><path d="M -79.35000000000001 -41.5 q 0.8 -1 0 -6 l -6.3 6.3 l 0 -19.95 l -17.5 17.5 l 1.2 1.2 l 6.3 -6.3 l 0 20.05 l 10 -10.1 q 4.2 0.65 6.3 -2.7 z"></path><path d="M -41.85000000000001 -57.5 l 10 -10 l -30 0 l -10 10 l 30 0 z"></path></g><g><path d="M 0.6499999999999915 -47.5 l -7.5 7.5 l 31.25 31.25 l -31.25 31.25 l 40 0 l 10 -10 l -37.6 0 l 27.5 -27.6 l -32.4 -32.4 z"></path></g><g><path d="M 93.15 22.5 l 10 -10 l 0 -60 l -10 10 l 0 50 l -30 0 l -10 10 l 40 0 z"></path><path d="M 88.15 57.5 l 0 -25 l -20 20 l 1.2 1.2 l 8.8 -8.8 l 0 22.6 l 10 -10 z"></path></g></g></g>
</svg>
