<svg xmlns="http://www.w3.org/2000/svg" viewBox="0 0 77.5 172.294907" width="77.5" height="172.294907" fill="currentColor" stroke="none">
<g transform="translate(38.75 86.147453)"><g><g><path d="M -23.700000000000003 -30 l 34.95 0 l 10 -10 l -50 0 l -10 10 l 25 25 l 0 35 l 10 -10 l 0 -30.05 l -19.95 -19.95 z"></path><g><path d="M -1.1500000000000057 -20 l 22.4 0 l 17.5 -17.5 l -1.2 -1.2 l -8.7 8.7 l -17.6 0 l 10 -10 l -12.65 0 q 5.5 3.45 -5.3 10 l 5.5 0 l -9.95 10 z"></path></g><g><path d="M 16.25 30 l -15 0 l 10 -10 l -15 0 l 0 -10 q -3.85 7.75 -10 5 l 0 15 l 12.55 0 l -9.95 10 l 17.4 0 l 10 -10 z"></path></g></g></g></g>
</svg>
