<svg xmlns="http://www.w3.org/2000/svg" viewBox="0 0 134.45 97.5" width="134.45" height="97.5" fill="currentColor" stroke="none">
<g transform="translate(67.225 48.75)"><g><g><path d="M -59.724999999999994 -28.75 l -7.5 7.5 57.5 62.5 7.5 -7.5 -57.5 -62.5 z"></path><path d="M -5.2749999999999915 34.85 q -1.825 3.28 -4.45 6.4 l -7.5 7.5 l -1.2 -1.2 l 7.5 -7.5 q -1.688 -4.106 -0.35 -4.55 q 1.45 -0.6 6 -0.65 z"></path><path d="M -24.724999999999994 -38.75 l 10 -10 l -30 0 l -10 10 l 30 0 z"></path></g><g><path d="M 67.17499999999998 -28.75 l -50 0 l -9.4 9.4 l 23.2 33.05 l 6.2 -6.25 l 0 33.8 l 10 -10 l 0 -36.15 l -1.1 1.1 q -2.967 2.977 -5.95 5.95 l -1.95 2 l -0.65 0.65 l -16.5 -23.5 l 36.2 0 l 10 -10 z"></path></g></g></g>
</svg>
