<svg xmlns="http://www.w3.org/2000/svg" viewBox="0 0 62.4 172.294907" width="62.4" height="172.294907" fill="currentColor" stroke="none">
<g transform="translate(31.2 86.147453)"><g><g><path d="M 21.2 -10.225000000000001 l 10 -10 l -29.85 -29.85 l -7.5 7.5 l 22.35 22.35 l -20 0 l -15 15 l 25.6 25.6 l 7.5 -7.5 l -23.1 -23.1 l 30 0 z"></path><g><path d="M -6.150000000000002 -42.575 l -15.05 0 l -10 10 l 17.45 0 l 8.75 -8.8 q 6.9 0.2 3.8 -6.15 l -4.95 4.95 z"></path></g><g><path d="M 5.900000000000002 18.775 l -11.2 11.3 l 22.4 0 l 10 -10.1 l -19.9 0 l 7.1 -7.1 q -10.446 -1.157 -8.4 5.9 z"></path></g><path d="M 10.000000000000004 50.07500000000001 l 10 -10 l -30 0 l -10 10 l 30 0 z"></path></g></g></g>
</svg>
