<svg xmlns="http://www.w3.org/2000/svg" viewBox="0 0 55 172.294907" width="55" height="172.294907" fill="currentColor" stroke="none">
<g transform="translate(27.5 86.147453)"><g><g><path d="M 27.5 -33.22754656483249 l -10 10 l 0 20 l -35 0 l -10 10 l 29.95 29.95 l 7.5 -7.5 l -22.45 -22.45 l 30 0 l 10 -10 l 0 -30 z"></path><g><path d="M 27.5 -17.577546564832495 l 0 -15.65 l -10 10 q -9.4 -17.75 -21.2 -6.85 q 12.25 -2.15 14.85 15.5 l 6.35 -6.3 l 0 8.1 q 4.8 -9.5 10 -4.8 z"></path></g><g><path d="M 4.950000000000003 34.222453435167495 l 5 -5 l 10 10 l 7.15 -7.15 l -11.3 -11.2 l -7 7.1 l -1 1 q -3.183 -1.742 -3.85 0 q -0.916 1.293 0 6.25 z"></path></g><path d="M -7.5 -51.722453435167495 l 7.5 7.5 l 7.5 -7.5 l -7.5 -7.5 l -7.5 7.5 z"></path><path d="M 10 59.222453435167495 l 10 -10 l -30 0 l -10 10 l 30 0 z"></path></g></g></g>
</svg>
