<svg xmlns="http://www.w3.org/2000/svg" viewBox="0 0 65 172.294907" width="65" height="172.294907" fill="currentColor" stroke="none">
<g transform="translate(32.5 86.147453)"><g><g><path d="M -25 -33.75 l -7.5 7.5 57.5 62.5 7.5 -7.5 -57.5 -62.5 z"></path><path d="M -23.85 -32.6 l 15.05 0 l 10 -10 l -17.45 0 l -8.75 8.85 q -1.75 3.2 -4.85 7.2 q 5.7 0.35 6 -6.05 z"></path><path d="M 29.450000000000003 29.85 q -1.825 3.28 -4.45 6.4 l -7.5 7.5 l -1.2 -1.2 l 7.5 -7.5 q -1.688 -4.106 -0.35 -4.55 q 1.45 -0.6 6 -0.65 z"></path><path d="M -22.5 18.75 l -10 10 l 0 25 l 10 -10 l 0 -25 z"></path><path d="M 10 -43.75 l 10 -10 l -30 0 l -10 10 l 30 0 z"></path></g></g></g>
</svg>
