<svg xmlns="http://www.w3.org/2000/svg" viewBox="0 0 204.65 70" width="204.65" height="70" fill="currentColor" stroke="none">
<g transform="translate(102.325 35)"><g><g><path d="M -87.325 -35 l -7.5 7.5 57.5 62.5 7.5 -7.5 -57.5 -62.5 z"></path><path d="M -72.325 35 l 10 -10 l -30 0 l -10 10 l 30 0 z"></path></g><g><path d="M -2.325000000000003 -35 l -10 10 l 0 35 l 26.3 0 l 8.7 -8.75 l 0 33.75 l 10 -10 l 0 -36.15 l -11.15 11.15 l -23.85 0 l 0 -35 z"></path><g><path d="M -12.325000000000003 -13.8 q 5 -12.14 10 -11.2 l 0 -10 l -17.5 17.5 l 1.2 1.2 l 6.3 -6.3 l 0 8.8 z"></path></g><g><path d="M 32.325 22.9 q -0.375 0.363 -1.15 1.15 q -6.261 1.099 -8.5 -3.8 l 0 14.75 l 10 -10 l 10 10 l 7.15 -7.15 l -11.3 -11.2 l -5.85 5.9 q -0.04 0.029 -0.35 0.35 z"></path></g></g><g><path d="M 87.325 -11.15 l -10 10 l 0 -33.85 l -10 10 l 0 36.2 l 10 -9.95 l 0 33.75 l 10 -10 l 0 -36.15 z"></path><g><path d="M 67.325 -13.8 q 5 -12.14 10 -11.2 l 0 -10 l -17.5 17.5 l 1.2 1.2 l 6.3 -6.3 l 0 8.8 z"></path></g><g><path d="M 77.325 20 l 0 15 l 15 0 l 10 -10 l -15 0 l 0 -10 q -3.874 7.753 -10 5 z"></path></g></g></g></g>
</svg>
