<svg xmlns="http://www.w3.org/2000/svg" viewBox="0 0 241.3 105" width="241.3" height="105" fill="currentColor" stroke="none">
<g transform="translate(120.65 52.5)"><g><g><path d="M -64.35000000000001 42.5 l 7.5 -7.5 -26.9 -26.9 7.45 -7.55 -28.05 -28.05 -7.5 7.5 26.9 26.9 -7.5 7.5 28.1 28.1 z"></path><path d="M -110.65 -18.8 q 6.486 1.216 4.75 -5 q -2.924 3.894 -5.95 3.8 l -8.8 8.8 l 0 15 l 10 -10 l 0 -12.6 z"></path><path d="M -66.95000000000002 32.5 q -1.65 2.7 2.6 10 l 12.6 0 l -7.5 7.5 l 1.2 1.2 l 18.7 -18.7 l -20 0 q -7 -2.95 -7.6 0 z"></path><path d="M -91.85000000000001 -45 l 7.5 7.5 l 7.5 -7.5 l -7.5 -7.5 l -7.5 7.5 z"></path></g><g><path d="M -19.35000000000001 -27.5 l -10 10 l 0 60 l 40 0 l 10 -10 l -40 0 l 0 -60 z"></path></g><g><path d="M 40.650000000000006 -27.5 l -10 10 l 0 60 l 10 -10 l 0 -60 z"></path><g><path d="M 30.650000000000006 27.5 l 0 15 l 10 -10 l 0 20 l 10 -9.9 l 0 -22.4 l -10 9.95 l 0 -5.15 q -5 6.1 -10 2.5 z"></path></g></g><g><path d="M 75.70000000000002 -17.5 l 34.95 0 l 10 -10 l -50 0 l -10 10 l 25 25 l 0 35 l 10 -10 l 0 -30.05 l -19.95 -19.95 z"></path><path d="M 100.65 -37.5 l 10 -10 l -30 0 l -10 10 l 30 0 z"></path></g></g></g>
</svg>
