<svg xmlns="http://www.w3.org/2000/svg" viewBox="0 0 91.6 172.294907" width="91.6" height="172.294907" fill="currentColor" stroke="none">
<g transform="translate(45.8 86.147453)"><g><g><path d="M -35.900000000000006 -28.95000000000001 l -9.9 9.95 l 47.35 58.35 l 0.05 0 l 1.4 1.75 l 7.5 -7.5 l -42.7 -52.55 l 52.05 0 l 10 -10 l -65.75 0 z"></path><g><path d="M 15.300000000000004 -18.95000000000001 l 4.55 0 l 8.8 -8.8 l 10 10 l 7.15 -7.15 l -11.3 -11.2 l -7.05 7.15 l -6.3 0 q 3.7 5 -5.85 10 z"></path></g><g><path d="M 10.5 33.6 q -6.8 0.5 -7.5 7.5 l 15 15 l 15 -15 l -1.2 -1.2 l -7.5 7.5 l -13.8 -13.8 z"></path></g><path d="M 9.999999999999993 -46.10000000000001 l 10 -10 l -30 0 l -10 10 l 30 0 z"></path></g></g></g>
</svg>
