<svg xmlns="http://www.w3.org/2000/svg" viewBox="0 0 63.9 172.294907" width="63.9" height="172.294907" fill="currentColor" stroke="none">
<g transform="translate(31.95 86.147453)"><g><g><path d="M -6.949999999999999 -35.025000000000006 l -7.5 7.5 l 22.55 22.55 l -14.4 0 l -17.6 17.65 l 0 22.35 l 40 0 l 10 -10 l -40 0 l 0 -20 l 30 0 l 8.5 -8.5 l -31.55 -31.55 z"></path><g><path d="M -4.350000000000001 -25.025000000000006 q 1.655 -2.716 -2.6 -10 l -15 0 l -10 10 l 20 0 q 7.015 2.931 7.6 0 z"></path></g><g><path d="M 16.1 25.025000000000006 q 2.55 4.45 -5 10 l 5 0 l 15.85 -15.9 l -13 -12.9 l -7 7 l 11.8 11.8 l -7.65 0 z"></path></g></g></g></g>
</svg>
