<svg xmlns="http://www.w3.org/2000/svg" viewBox="0 0 452.005292 118.85" width="452.005292" height="118.85" fill="currentColor" stroke="none">
<g transform="translate(226.002646 59.425)"><g><g><path d="M -216.0026461595275 -30.574999999999996 l -10 10 l 0 60 l 10 -10 l 0 -60 z"></path></g><g><path d="M -188.5026461595275 -30.574999999999996 l -10 10 l 0 30 l 30 30 l 7.5 -7.5 l -27.5 -27.5 l 0 -35 z"></path><g><path d="M -198.5026461595275 -9.374999999999996 q 5 -12.14 10 -11.2 l 0 -10 l -17.5 17.5 l 1.2 1.2 l 6.3 -6.3 l 0 8.8 z"></path></g><g><path d="M -144.8026461595275 50.775000000000006 q 0.35 -21.9 -9.85 -27.5 l -6.3 6.35 l -2 2 q -8.054 -2.82 -4.35 6.65 l 6.3 -6.35 q 10.8 2.6 16.2 18.85 z"></path></g><path d="M -165.4026461595275 -40.574999999999996 l 10 -10 l -30 0 l -10 10 l 30 0 z"></path></g><g><path d="M -98.54179606242249 9.425000000000004 l 7.5 -7.5 -32.5 -32.5 -7.5 7.5 32.5 32.5 m -17.5 -10 l -7.5 7.5 32.5 32.5 7.5 -7.5 -32.5 -32.5 z"></path><path d="M -104.79179606242249 59.425000000000004 l 10 -10 l -30 0 l -10 10 l 30 0 z"></path></g><g><path d="M -48.54179606242252 -30.599999999999994 l -7.5 7.5 l 22.55 22.55 l -14.4 0 l -17.6 17.65 l 0 22.35 l 40 0 l 10 -10 l -40 0 l 0 -20 l 30 0 l 8.5 -8.5 l -31.55 -31.55 z"></path><g><path d="M -45.9417960624225 -20.599999999999994 q 1.655 -2.716 -2.6 -10 l -15 0 l -10 10 l 20 0 q 7.015 2.931 7.6 0 z"></path></g><g><path d="M -25.49179606242251 29.450000000000017 q 2.55 4.45 -5 10 l 5 0 l 15.85 -15.9 l -13 -12.9 l -7 7 l 11.8 11.8 l -7.65 0 z"></path></g></g><g><path d="M 20.358203937577485 -6.724999999999996 l -10 10 l 0 -33.85 l -10 10 l 0 36.2 l 10 -9.95 l 0 33.75 l 10 -10 l 0 -36.15 z"></path><g><path d="M 20.358203937577485 47.025000000000006 l 0 -17.6 q -7.3 -5 -10 10 l 0 20 l 17.5 -17.5 l -1.2 -1.2 l -6.3 6.3 z"></path></g></g><g><path d="M 57.85820393757746 -30.574999999999996 l -10 10 l 0 60 l 10 -10 l 0 -60 z"></path><g><path d="M 57.85820393757746 -15.574999999999996 l 0 -15 l -10 10 l 0 -20 l -10 9.9 l 0 22.4 l 10 -9.95 l 0 5.15 q 5 -6.1 10 -2.5 z"></path></g></g><g><path d="M 75.35820393757746 -30.574999999999996 l -7.5 7.5 l 31.25 31.25 l -31.25 31.25 l 40 0 l 10 -10 l -37.6 0 l 27.5 -27.6 l -32.4 -32.4 z"></path><g><path d="M 76.50820393757743 -29.424999999999997 l 15.05 0 l 10 -10 l -17.45 0 l -8.75 8.85 q -1.75 3.2 -4.85 7.2 q 5.7 0.35 6 -6.05 z"></path></g><g><path d="M 115.55820393757745 49.425000000000004 q 16 -9.8 7.5 -27.5 l -7.55 7.5 l -11.1 0 q 3.05 5.25 -1.5 10 l 5 0 l 8.8 -8.85 q 6.15 7.15 -1.15 18.85 z"></path></g><path d="M 106.93042504855248 -49.425 l 10 -10 l -30 0 l -10 10 l 30 0 z"></path></g><g><path d="M 154.2026461595275 -30.574999999999996 l -10 10 l 0 60 l 10 -10 l 0 -60 z"></path><g><path d="M 156.0026461595275 51.225 l -11.8 -11.8 l 10 -10 l 0 -5 q -5.188 7.964 -10 5 l 0 7.7 l -8.2 8.2 l 13 12.9 l 7 -7 z"></path></g></g><g><path d="M 181.0526461595275 -20.574999999999996 l 34.95 0 l 10 -10 l -50 0 l -10 10 l 25 25 l 0 35 l 10 -10 l 0 -30.05 l -19.95 -19.95 z"></path><path d="M 206.0026461595275 -40.574999999999996 l 10 -10 l -30 0 l -10 10 l 30 0 z"></path></g></g></g>
</svg>
