<svg xmlns="http://www.w3.org/2000/svg" viewBox="0 0 65.7 172.294907" width="65.7" height="172.294907" fill="currentColor" stroke="none">
<g transform="translate(32.85 86.147453)"><g><g><path d="M -17.800000000000004 -36.85000000000001 l 34.95 0 l 10 -10 l -50 0 l -10 10 l 25 25 l 0 35 l 10 -10 l 0 -30.05 l -19.95 -19.95 z"></path><g><path d="M 24.65 -46.85000000000001 l -7.65 0 q 2.55 4.45 -5 10 l 5 0 l 15.85 -15.9 l -11.8 -11.7 l 7.5 -7.5 l -1.2 -1.2 l -14.5 14.5 l 11.8 11.8 z"></path></g><g><path d="M -7.850000000000005 43.14999999999999 l 10 -10 l 0 -20 q -7.3 -5 -10 10 l 0 20 z"></path></g><path d="M -7.600000000000001 63.14999999999999 l 8.8 -8.8 l -1.2 -1.2 l -20 20 l 30 0 l 10 -10 l -27.6 0 z"></path></g></g></g>
</svg>
