<svg xmlns="http://www.w3.org/2000/svg" viewBox="0 0 122.55 106.4" width="122.55" height="106.4" fill="currentColor" stroke="none">
<g transform="translate(61.275 53.2)"><g><g><path d="M -41.275 -33.2 l -10 10 l 0 60 l 10 -10 l 0 -60 z"></path><g><path d="M -41.275 -18.200000000000003 l 0 -15 l -10 10 l 0 -20 l -10 9.9 l 0 22.4 l 10 -9.95 l 0 5.15 q 5 -6.1 10 -2.5 z"></path></g><g><path d="M -41.275 26.799999999999997 l 15 0 l 10 -10 l -17.45 0 l -7.6 7.6 l 0.05 -5.05 q -4.6 6.3 -10 4 l 0 13.45 l 9.95 -10 z"></path></g></g><g><path d="M 16.324999999999996 -23.200000000000003 l 34.95 0 l 10 -10 l -50 0 l -10 10 l 25 25 l 0 35 l 10 -10 l 0 -30.05 l -19.95 -19.95 z"></path><g><path d="M 36.275 26.799999999999997 l 0 -7.3 q -4.546 5.888 -10 3.05 l 0 11.95 l -15.05 0 l -17.5 17.5 l 1.2 1.2 l 8.7 -8.7 l 15 0 l 17.65 -17.7 z"></path></g><path d="M 37.50000000000001 -43.2 l 10 -10 l -30 0 l -10 10 l 30 0 z"></path></g></g></g>
</svg>
