<?xml version="1.0" encoding="utf-8"?>
<svg id="Layer_2" data-name="Layer 2" xmlns="http://www.w3.org/2000/svg" viewBox="-120 -120 1373.5 702.143">
  <defs>
    <style>
      .cls-1 {
        fill: #ffe600;
      }

      .cls-2 {
        fill: #00f7ff;
      }

      .cls-3 {
        fill: #cafeff;
      }

      .cls-4 {
        fill: #fffaca;
      }
    </style>
    <filter id="yellow-soft-glow" x="-220%" y="-220%" width="540%" height="540%" filterUnits="objectBoundingBox" color-interpolation-filters="sRGB">
      <feGaussianBlur in="SourceGraphic" stdDeviation="36.5" />
    </filter>
    <filter id="yellow-medium-glow" x="-220%" y="-220%" width="540%" height="540%" filterUnits="objectBoundingBox" color-interpolation-filters="sRGB">
      <feGaussianBlur in="SourceGraphic" stdDeviation="10.5" />
    </filter>
    <filter id="blue-soft-glow" x="-220%" y="-220%" width="540%" height="540%" filterUnits="objectBoundingBox" color-interpolation-filters="sRGB">
      <feGaussianBlur in="SourceGraphic" stdDeviation="36.5" />
    </filter>
    <filter id="blue-medium-glow" x="-220%" y="-220%" width="540%" height="540%" filterUnits="objectBoundingBox" color-interpolation-filters="sRGB">
      <feGaussianBlur in="SourceGraphic" stdDeviation="10.5" />
    </filter>
  </defs>
  <g id="sign-artwork" transform="translate(0 0)">
  <g id="yellow-solid1" class="layer-yellow-solid1">
    <g>
      <path class="cls-1" d="m125.482,115.232l-14.482,14.482,111.028,120.682,14.482-14.482-111.028-120.682Z" />
      <path class="cls-1" d="m226.855,245.569l9.655-9.655,19.309,19.309,13.806-13.806-21.819-21.626-13.516,13.71-1.931,1.931c-4.097-2.242-6.575-2.242-7.434,0-1.179,1.664-1.179,5.687,0,12.068l1.931-1.931Z" />
    </g>
    <g>
      <path class="cls-1" d="m317.898,115.232l-19.309,19.309v67.582h38.522l-48.176,48.273h77.237l19.309-19.309h-72.602l47.983-48.273h-42.963s0-67.582,0-67.582Z" />
      <path class="cls-1" d="m385.48,231.087h24.426l-14.482,14.482,2.317,2.317,36.108-36.108h-33.694l-19.213,19.309h-14.675c6.372,5.407,2.349,11.843-12.068,19.309h12.068l19.213-19.309h0Z" />
      <path class="cls-1" d="m380.701,289.015l19.309-19.309h-57.927l-19.309,19.309h57.927Z" />
    </g>
    <g>
      <path class="cls-1" d="m475.605,117.549l14.192-14.192,39.777,50.493h19.309l19.309-19.309h-28.095l-37.846-48.273-28.964,28.964,2.317,2.317Z" />
      <path class="cls-1" d="m472.467,173.16l-19.309,19.309h96.546l19.309-19.309h-96.546Z" />
    </g>
    <g>
      <path class="cls-1" d="m697.033,250.396l14.482-14.482-51.942-51.942,14.385-14.578-54.162-54.162-14.482,14.482,51.942,51.942-14.482,14.482,54.259,54.259h0Z" />
      <path class="cls-1" d="m607.631,132.031c5.407.837,9.461-.901,12.165-5.213,1.03-1.287,1.03-5.149,0-11.585l-12.165,12.165v-38.522l-19.309,19.502v43.156s19.309-19.502,19.309-19.502Z" />
    </g>
    <path class="cls-1" d="m857.588,134.686l19.309-19.309h-126.958l-19.116,19.213,58.796,72.506,13.999-14.096,46.632,57.252,14.385-14.289-48.659-59.955-14.482,14.385-44.604-55.707h100.697Z" />
    <g>
      <path class="cls-1" d="m949.693,250.252l19.309-19.309v-77.237l-18.44,18.44-39.873-56.769-14.482,14.482,41.708,59.569,11.779-11.779v72.602h0Z" />
      <path class="cls-1" d="m913.295,288.87v48.273l38.618-38.618-2.317-2.317-16.992,16.992v-43.639s-19.309,19.309-19.309,19.309Z" />
    </g>
  </g>
  <g id="yellow-solid2" class="layer-yellow-solid2">
    <g>
      <path class="cls-1" d="m125.638,115.186l-14.482,14.482,111.028,120.682,14.482-14.482-111.028-120.682Z" />
      <path class="cls-1" d="m227.011,245.523l9.655-9.655,19.309,19.309,13.806-13.806-21.819-21.626-13.516,13.71-1.931,1.931c-4.097-2.242-6.575-2.242-7.434,0-1.179,1.664-1.179,5.687,0,12.068l1.931-1.931Z" />
    </g>
    <g>
      <path class="cls-1" d="m318.054,115.186l-19.309,19.309v67.582h38.522l-48.176,48.273h77.237l19.309-19.309h-72.602l47.983-48.273h-42.963s0-67.582,0-67.582Z" />
      <path class="cls-1" d="m385.636,231.041h24.426l-14.482,14.482,2.317,2.317,36.108-36.108h-33.694l-19.213,19.309h-14.675c6.372,5.407,2.349,11.843-12.068,19.309h12.068l19.213-19.309h0Z" />
      <path class="cls-1" d="m380.857,288.969l19.309-19.309h-57.927l-19.309,19.309h57.927Z" />
    </g>
    <g>
      <path class="cls-1" d="m475.761,117.503l14.192-14.192,39.777,50.493h19.309l19.309-19.309h-28.095l-37.846-48.273-28.964,28.964,2.317,2.317Z" />
      <path class="cls-1" d="m472.623,173.114l-19.309,19.309h96.546l19.309-19.309h-96.546Z" />
    </g>
    <g>
      <path class="cls-1" d="m697.189,250.35l14.482-14.482-51.942-51.942,14.385-14.578-54.162-54.162-14.482,14.482,51.942,51.942-14.482,14.482,54.259,54.259h0Z" />
      <path class="cls-1" d="m607.787,131.985c5.407.837,9.461-.901,12.165-5.213,1.03-1.287,1.03-5.149,0-11.585l-12.165,12.165v-38.522l-19.309,19.502v43.156s19.309-19.502,19.309-19.502Z" />
    </g>
    <path class="cls-1" d="m857.744,134.64l19.309-19.309h-126.958l-19.116,19.213,58.796,72.506,13.999-14.096,46.632,57.252,14.385-14.289-48.659-59.955-14.482,14.385-44.604-55.707h100.697Z" />
    <g>
      <path class="cls-1" d="m949.849,250.206l19.309-19.309v-77.237l-18.44,18.44-39.873-56.769-14.482,14.482,41.708,59.569,11.779-11.779v72.602h0Z" />
      <path class="cls-1" d="m913.451,288.824v48.273l38.618-38.618-2.317-2.317-16.992,16.992v-43.639s-19.309,19.309-19.309,19.309Z" />
    </g>
  </g>
  <g id="yellow-tube" class="layer-yellow-tube">
    <g>
      <polygon class="cls-4" points="118.271 129.865 125.324 122.813 229.238 235.763 222.185 242.816 118.271 129.865" />
      <polygon class="cls-4" points="241.59 233.572 247.848 227.224 262.185 241.434 255.818 247.801 241.59 233.572" />
    </g>
    <g>
      <path class="cls-4" d="m301.587,245.148l8.794-8.812h62.427l-8.812,8.812h-62.409Zm2.25-48.273v-60.16l8.812-8.812v60.159h35.594l-8.76,8.812h-35.646Z" />
      <polygon class="cls-4" points="393.569 225.839 402.336 217.027 421.178 217.027 412.366 225.839 393.569 225.839" />
      <polygon class="cls-4" points="335.444 283.766 344.256 274.954 387.338 274.954 378.527 283.766 335.444 283.766" />
    </g>
    <g>
      <polygon class="cls-4" points="532.121 148.602 494.763 101.18 501.775 94.168 537.543 139.79 555.521 139.79 546.709 148.602 532.121 148.602" />
      <polygon class="cls-4" points="465.83 187.22 474.641 178.409 556.342 178.409 547.53 187.22 465.83 187.22" />
    </g>
    <g>
      <path class="cls-4" d="m650.197,196.138l7.059-7.059,46.836,46.836-7.059,7.059-46.836-46.836Zm-37.46-66.423l7.059-7.059,46.764,46.765-7.011,7.105-46.811-46.811Z" />
      <polygon class="cls-4" points="593.571 110.536 602.383 101.637 602.383 129.873 593.571 138.772 593.571 110.536" />
    </g>
    <path class="cls-4" d="m808.568,190.765l6.991-6.944,42.01,51.763-6.907,6.861-42.094-51.68Zm-70.696-55.817l14.251-14.322h112.103l-8.812,8.812h-109.449l50.611,63.207-6.56,6.605-52.143-64.301Z" />
    <g>
      <path class="cls-4" d="m954.942,175.189l8.811-8.811v62.391l-8.811,8.811v-62.391Zm-51.91-44.733l6.952-6.951,35.66,50.771-7.017,7.017-35.595-50.837Z" />
      <polygon class="cls-4" points="918.544 291.044 927.356 282.232 927.356 315.659 918.544 324.471 918.544 291.044" />
    </g>
  </g>
  <g id="blue-solid1" class="layer-blue-solid1">
    <path class="cls-2" d="m536.5,462c-9.374,0-17-7.626-17-17s7.626-17,17-17h414c9.374,0,17,7.626,17,17s-7.626,17-17,17h-414Z" />
  </g>
  <g id="blue-solid2" class="layer-blue-solid2">
    <path class="cls-2" d="m536,462.143c-9.374,0-17-7.626-17-17s7.626-17,17-17h414c9.374,0,17,7.626,17,17s-7.626,17-17,17h-414Z" />
  </g>
  <g id="blue-tube" class="layer-blue-tube">
    <path class="cls-3" d="m950,438.143h-414c-3.866,0-7,3.134-7,7s3.134,7,7,7h414c3.866,0,7-3.134,7-7s-3.134-7-7-7Z" />
  </g>
  </g>
</svg>
