<svg xmlns="http://www.w3.org/2000/svg" viewBox="0 0 140 125" width="140" height="125" fill="currentColor" stroke="none">
<g transform="translate(70 62.5)"><g><g><path d="M -62.5 -37.5 l -7.5 7.5 57.5 62.5 7.5 -7.5 -57.5 -62.5 z"></path><path d="M -37.4 52.5 l -8.8 8.8 l 1.2 1.2 l 20 -20 l -30 0 l -10 10 l 27.6 0 z"></path></g><g><path d="M 32.5 32.5 l 10 -10 l 0 -30 l -30 -30 l -7.5 7.5 l 27.5 27.5 l 0 35 z"></path><g><path d="M 42.5 11.3 q -5 12.14 -10 11.2 l 0 10 l 17.5 -17.5 l -1.2 -1.2 l -6.3 6.3 l 0 -8.8 z"></path></g><path d="M 20 -55 l 7.5 7.5 l 7.5 -7.5 l -7.5 -7.5 l -7.5 7.5 z"></path></g><g><path d="M 70 -37.5 l -10 10 l 0 60 l 10 -10 l 0 -60 z"></path></g></g></g>
</svg>
