<svg xmlns="http://www.w3.org/2000/svg" viewBox="0 0 81.35 172.294907" width="81.35" height="172.294907" fill="currentColor" stroke="none">
<g transform="translate(40.675 86.147453)"><g><g><path d="M -30.774999999999995 -45.65000000000001 l -9.9 9.95 l 47.35 58.35 l 0.05 0 l 1.4 1.75 l 7.5 -7.5 l -42.7 -52.55 l 52.05 0 l 10 -10 l -65.75 0 z"></path><g><path d="M 32.47500000000001 -45.65000000000001 l -7.65 0 q 2.55 4.45 -5 10 l 5 0 l 15.85 -15.9 l -11.8 -11.7 l 7.5 -7.5 l -1.2 -1.2 l -14.5 14.5 l 11.8 11.8 z"></path></g><g><path d="M -25.574999999999996 40.75 l 1.2 1.2 l 8.7 -8.7 l 15.05 0 l 8.75 -8.85 q 1.75 -3.2 4.85 -7.2 q -5.7 -0.35 -6 6.05 l -15.05 0 l -17.5 17.5 z"></path></g><path d="M -7.599999999999994 61.95 l 8.8 -8.8 l -1.2 -1.2 l -20 20 l 30 0 l 10 -10 l -27.6 0 z"></path></g></g></g>
</svg>
