<svg xmlns="http://www.w3.org/2000/svg" viewBox="0 0 218.24898 117.5" width="218.24898" height="117.5" fill="currentColor" stroke="none">
<g transform="translate(109.12449 58.75)"><g><g><path d="M -99.12448979591836 -31.25 l -10 10 l 0 60 l 10 -10 l 0 -60 z"></path><g><path d="M -99.07448979591837 -28.950000000000003 l 15 0 l 10 -10 l -17.4 0 l -17.65 17.7 l 0 7.3 q 5.4 -4.35 10 -2.75 l 0 -12.25 z"></path></g><g><path d="M -109.12448979591836 23.75 l 0 15 l 10 -10 l 0 20 l 10 -9.9 l 0 -22.4 l -10 9.95 l 0 -5.15 q -5 6.1 -10 2.5 z"></path></g></g><g><path d="M -49.02448979591837 -21.25 l 34.95 0 l 10 -10 l -50 0 l -10 10 l 25 25 l 0 35 l 10 -10 l 0 -30.05 l -19.95 -19.95 z"></path><g><path d="M -6.374489795918365 -11.25 q 16 -9.8 7.5 -27.5 l -7.55 7.5 l -11.1 0 q 3.05 5.25 -1.5 10 l 5 0 l 8.8 -8.85 q 6.15 7.15 -1.15 18.85 z"></path></g><g><path d="M -39.07448979591837 58.75 l 10 -10 l 0 -20 q -7.3 -5 -10 10 l 0 20 z"></path></g><path d="M -20 -48.75 l 10 -10 l -30 0 l -10 10 l 30 0 z"></path></g><g><path d="M 24.07448979591838 -31.25 l -10 10 l 0 60 l 10 -10 l 0 -60 z"></path><g><path d="M 24.124489795918365 -28.950000000000003 l 15 0 l 10 -10 l -17.4 0 l -17.65 17.7 l 0 7.3 q 5.4 -4.35 10 -2.75 l 0 -12.25 z"></path></g></g><g><path d="M 66.62448979591836 -31.25 l -7.5 7.5 l 31.25 31.25 l -31.25 31.25 l 40 0 l 10 -10 l -37.6 0 l 27.5 -27.6 l -32.4 -32.4 z"></path><g><path d="M 94.12448979591836 28.75 l 15 0 l 0 15 l -10 10 l 0 -15 l -10 0 q 7.753 -3.874 5 -10 z"></path></g><path d="M 94.12448979591836 -41.25 l 10 -10 l -30 0 l -10 10 l 30 0 z"></path></g></g></g>
</svg>
