<svg xmlns="http://www.w3.org/2000/svg" viewBox="0 0 184.35 125" width="184.35" height="125" fill="currentColor" stroke="none">
<g transform="translate(92.175 62.5)"><g><g><path d="M -84.675 -25 l -7.5 7.5 57.5 62.5 7.5 -7.5 -57.5 -62.5 z"></path><path d="M -37.275 35 q -1.655 2.716 2.6 10 l 15 0 l 10 -10 l -20 0 q -7.015 -2.931 -7.6 0 z"></path><path d="M -82.175 27.5 l -10 10 l 0 25 l 10 -10 l 0 -25 z"></path><path d="M -73.425 -55 l 20 20 l 7.5 -7.5 l -20 -20 l -7.5 7.5 z"></path></g><g><path d="M 65.97499999999998 -14.925 l 10 -10 l -65.75 0 l -9.9 9.95 l 30.45 37.55 l 7.25 -7.3 l 24.15 29.65 l 7.45 -7.4 l -25.2 -31.05 l -7.5 7.45 l -23.1 -28.85 l 52.15 0 z"></path><g><path d="M 64.77499999999999 54.925 l 17.4 0 l 10 -10 l -15 0 l 10 -10 l -20 0 q -7 -2.95 -7.6 0 q -1.65 2.7 2.6 10 l 12.55 0 l -9.95 10 z"></path></g></g></g></g>
</svg>
