<svg xmlns="http://www.w3.org/2000/svg" viewBox="0 0 98.15 172.294907" width="98.15" height="172.294907" fill="currentColor" stroke="none">
<g transform="translate(49.075 86.147453)"><g><g><path d="M -16.575000000000003 12.425 l -10 10 l 65.75 0 l 9.9 -9.95 l -30.45 -37.55 l -7.25 7.3 l -24.15 -29.65 l -7.45 7.4 l 25.2 31.05 l 7.5 -7.45 l 23.1 28.85 l -52.15 0 z"></path><g><path d="M -49.075 14.924999999999997 l 1.2 1.2 l 7.5 -7.5 l 13.8 13.8 q 8.65 -2.75 10 -10 l -5 0 l -12.5 -12.5 l -15 15 z"></path></g><path d="M 10 -57.425 l 10 -10 l -30 0 l -10 10 l 30 0 z"></path><path d="M -10 42.425 l 0 25 l 20 -20 l -1.2 -1.2 l -8.8 8.8 l 0 -22.6 l -10 10 z"></path></g></g></g>
</svg>
