<svg xmlns="http://www.w3.org/2000/svg" viewBox="0 0 139.2 98.8" width="139.2" height="98.8" fill="currentColor" stroke="none">
<g transform="translate(69.6 49.4)"><g><g><path d="M -62.10000000000001 -30.6 l -7.5 7.5 57.5 62.5 7.5 -7.5 -57.5 -62.5 z"></path><path d="M -69.60000000000001 19.4 l 20 20 l 7.5 -7.5 l -20 -20 l -7.5 7.5 z"></path></g><g><path d="M 17.19999999999999 -30.6 l -7.5 7.5 l 31.25 31.25 l -31.25 31.25 l 40 0 l 10 -10 l -37.6 0 l 27.5 -27.6 l -32.4 -32.4 z"></path><g><path d="M 5.3999999999999915 -42.4 l 11.8 11.8 l -5 5 q 7.681 1.687 7.1 -0.5 l -0.95 -3.35 l 7.05 -7.05 l -13 -12.9 z"></path></g><g><path d="M 37.3 49.4 l 22.4 0 l 9.9 -10 l -19.9 0 l 10 -10 l -12.65 0 q 5.504 3.447 -5.3 10 l 5.5 0 l -9.95 10 z"></path></g></g></g></g>
</svg>
