<svg xmlns="http://www.w3.org/2000/svg" viewBox="0 0 58.35 172.294907" width="58.35" height="172.294907" fill="currentColor" stroke="none">
<g transform="translate(29.175 86.147453)"><g><g><path d="M 7.975000000000001 -11.616662166507504 l -10 10 l 0 -33.85 l -10 10 l 0 36.2 l 10 -9.95 l 0 33.75 l 10 -10 l 0 -36.15 z"></path><g><path d="M -11.674999999999997 -23.366662166507503 q 0.375 -0.363 1.15 -1.15 q 6.261 -1.099 8.5 3.8 l 0 -14.75 l -10 10 l -10 -10 l -7.15 7.15 l 11.3 11.2 l 5.85 -5.9 q 0.04 -0.029 0.35 -0.35 z"></path></g><g><path d="M -2.0249999999999986 18.883337833492497 l 0 15.65 l 10 -10 q 9.4 17.75 21.2 6.85 q -12.25 2.15 -14.85 -15.5 l -6.35 6.3 l 0 -8.1 q -4.8 9.5 -10 4.8 z"></path></g></g></g></g>
</svg>
