<svg xmlns="http://www.w3.org/2000/svg" viewBox="0 0 552.35 127.5" width="552.35" height="127.5" fill="currentColor" stroke="none">
<g transform="translate(276.175 63.75)"><g><g><path d="M -266.17500000000007 -26.25 l -10 10 l 0 60 l 10 -10 l 0 -60 z"></path><g><path d="M -276.17500000000007 28.75 l 0 15 l 10 -10 l 0 20 l 10 -9.9 l 0 -22.4 l -10 9.95 l 0 -5.15 q -5 6.1 -10 2.5 z"></path></g></g><g><path d="M -236.27500000000006 -26.275 l -9.9 9.95 l 47.35 58.35 l 0.05 0 l 1.4 1.75 l 7.5 -7.5 l -42.7 -52.55 l 52.05 0 l 10 -10 l -65.75 0 z"></path><path d="M -198.35000000000008 -36.275 l 10 -10 l -30 0 l -10 10 l 30 0 z"></path></g><g><path d="M -138.12500000000006 -26.25 l -10 10 l 0 60 l 10 -10 l 0 -60 z"></path><g><path d="M -160.52500000000006 53.75 l 22.4 0 l 10 -10.1 l -19.9 0 l -0.1 0.1 l 0 -0.1 l 0.05 0 l 9.95 -9.9 l 0 -5 q -5 5.774 -10 5 l 0 7.55 l -12.4 12.4 z"></path></g></g><g><path d="M -108.12500000000006 -26.25 l -10 10 l 0 60 l 10 -10 l 0 -50 l 30 0 l 10 -10 l -40 0 z"></path><g><path d="M -108.12500000000006 22.55 q -5 12.14 -10 11.2 l 0 10 l 17.5 -17.5 l -1.2 -1.2 l -6.3 6.3 l 0 -8.8 z"></path></g><path d="M -83.12500000000006 -36.25 l 10 -10 l -30 0 l -10 10 l 30 0 z"></path></g><g><path d="M -48.12500000000006 -26.25 l -10 10 l 0 60 l 10 -10 l 0 -60 z"></path><g><path d="M -58.12500000000006 28.75 l 0 15 l 15 0 l 10 -10 l -15 0 l 0 -10 q -3.874 7.753 -10 5 z"></path></g></g><g><path d="M -11.875000000000057 -26.25 l -10 10 l 0 30 l 30 30 l 7.5 -7.5 l -27.5 -27.5 l 0 -35 z"></path><path d="M 6.874999999999943 -36.25 l 10 -10 l -30 0 l -10 10 l 30 0 z"></path></g><g><path d="M 41.87499999999994 -26.25 l -7.5 7.5 57.5 62.5 7.5 -7.5 -57.5 -62.5 z"></path><path d="M 89.27499999999992 33.75 q -1.655 2.716 2.6 10 l 15 0 l 10 -10 l -20 0 q -7.015 -2.931 -7.6 0 z"></path><path d="M 56.87499999999994 43.75 l 10 -10 l -30 0 l -10 10 l 30 0 z"></path><path d="M 53.12499999999994 -56.25 l 20 20 l 7.5 -7.5 l -20 -20 l -7.5 7.5 z"></path></g><g><path d="M 144.37499999999994 -26.25 l -10 10 l 0 30 l 30 30 l 7.5 -7.5 l -27.5 -27.5 l 0 -35 z"></path><g><path d="M 134.37499999999994 -5.050000000000001 q 5 -12.14 10 -11.2 l 0 -10 l -17.5 17.5 l 1.2 1.2 l 6.3 -6.3 l 0 8.8 z"></path></g><g><path d="M 184.37499999999994 33.75 l -15 0 q -7 -2.95 -7.6 0 q -1.65 2.7 2.6 10 l 10 0 l 0 15 l 10 -10 l 0 -15 z"></path></g></g><g><path d="M 216.17499999999995 -2.4000000000000004 l -10 10 l 0 -33.85 l -10 10 l 0 36.2 l 10 -9.95 l 0 33.75 l 10 -10 l 0 -36.15 z"></path><g><path d="M 194.37499999999994 -38.05 l 11.8 11.8 l -10 10 l 0 5 q 5.188 -7.964 10 -5 l 0 -7.7 l 8.2 -8.2 l -13 -12.9 l -7 7 z"></path></g><g><path d="M 216.17499999999995 51.35 l 0 -17.6 q -7.3 -5 -10 10 l 0 20 l 17.5 -17.5 l -1.2 -1.2 l -6.3 6.3 z"></path></g></g><g><path d="M 261.17499999999995 -2.4000000000000004 l -10 10 l 0 -33.85 l -10 10 l 0 36.2 l 10 -9.95 l 0 33.75 l 10 -10 l 0 -36.15 z"></path><g><path d="M 241.17499999999995 -5.050000000000001 q 5 -12.14 10 -11.2 l 0 -10 l -17.5 17.5 l 1.2 1.2 l 6.3 -6.3 l 0 8.8 z"></path></g><g><path d="M 251.17499999999995 28.75 l 0 15 l 12.6 0 l -7.5 7.5 l 1.2 1.2 l 18.7 -18.7 l -15 0 l 0 -10 q -3.85 7.75 -10 5 z"></path></g></g></g></g>
</svg>
