<svg xmlns="http://www.w3.org/2000/svg" viewBox="0 0 90.65 172.294907" width="90.65" height="172.294907" fill="currentColor" stroke="none">
<g transform="translate(45.325 86.147453)"><g><g><path d="M 30.324999999999996 -35.025 l -65.75 0 l -9.9 9.95 l 25.7 25.7 l -7.5 7.5 l 26.9 26.9 l 7.5 -7.5 l -25.7 -25.7 l 7.45 -7.55 l -19.3 -19.3 l 50.6 0 l 10 -10 z"></path><g><path d="M 25.324999999999996 -25.025000000000006 l 12.5 12.5 l 7.5 -7.5 l -15 -15 q -8.65 2.75 -10 10 l 5 0 z"></path></g><g><path d="M 6.0749999999999815 26.325000000000006 q -6.486 -1.216 -4.75 5 q 2.924 -3.894 5.95 -3.8 l 8.8 -8.8 l 0 -15 l -10 10 l 0 12.6 z"></path></g></g></g></g>
</svg>
