<svg xmlns="http://www.w3.org/2000/svg" viewBox="0 0 427.45 115" width="427.45" height="115" fill="currentColor" stroke="none">
<g transform="translate(213.725 57.5)"><g><g><path d="M -206.225 -32.5 l -7.5 7.5 57.5 62.5 7.5 -7.5 -57.5 -62.5 z"></path><path d="M -178.725 57.5 l 10 -10 l -30 0 l -10 10 l 30 0 z"></path></g><g><path d="M -63.07500000000002 -32.525 l -65.75 0 l -9.9 9.95 l 25.7 25.7 l -7.5 7.5 l 26.9 26.9 l 7.5 -7.5 l -25.7 -25.7 l 7.45 -7.55 l -19.3 -19.3 l 50.6 0 l 10 -10 z"></path><g><path d="M -68.07500000000002 -22.525000000000006 l 12.5 12.5 l 7.5 -7.5 l -15 -15 q -8.65 2.75 -10 10 l 5 0 z"></path></g><g><path d="M -87.325 28.825000000000006 q -6.486 -1.216 -4.75 5 q 2.924 -3.894 5.95 -3.8 l 8.8 -8.8 l 0 -15 l -10 10 l 0 12.6 z"></path></g></g><g><path d="M -30.575000000000017 -32.5 l -7.5 7.5 l 31.25 31.25 l -31.25 31.25 l 40 0 l 10 -10 l -37.6 0 l 27.5 -27.6 l -32.4 -32.4 z"></path><path d="M -20.575000000000017 -50 l 7.5 7.5 l 7.5 -7.5 l -7.5 -7.5 l -7.5 7.5 z"></path><path d="M -3.075000000000017 57.5 l 10 -10 l -30 0 l -10 10 l 30 0 z"></path></g><g><path d="M 60.974999999999994 -15.05 l -1.25 -1.15 q -5.45 4.65 -10.85 3.05 q -5.65 -1.7 -5.7 -9.35 l 25 0 l 17.5 -17.5 l -1.2 -1.2 l -8.7 8.7 l -37.6 0 l -10 10 q 14.9 23.2 32.8 7.45 z"></path><path d="M 31.924999999999983 -2.5 l -10 10 l 50 0 l 10 -10 l -50 0 z"></path></g><g><path d="M 118.07499999999996 -32.5 l -10 10 l 0 60 l 10 -10 l 0 -60 z"></path><g><path d="M 95.67499999999998 47.5 l 22.4 0 l 10 -10.1 l -19.9 0 l -0.1 0.1 l 0 -0.1 l 0.05 0 l 9.95 -9.9 l 0 -5 q -5 5.774 -10 5 l 0 7.55 l -12.4 12.4 z"></path></g></g><g><path d="M 147.97499999999994 -32.525 l -9.9 9.95 l 47.35 58.35 l 0.05 0 l 1.4 1.75 l 7.5 -7.5 l -42.7 -52.55 l 52.05 0 l 10 -10 l -65.75 0 z"></path><path d="M 185.89999999999995 -42.525 l 10 -10 l -30 0 l -10 10 l 30 0 z"></path></g></g></g>
</svg>
