<svg xmlns="http://www.w3.org/2000/svg" viewBox="0 0 637.4 123.725" width="637.4" height="123.725" fill="currentColor" stroke="none">
<g transform="translate(318.7 61.8625)"><g><g><path d="M -311.20000000000005 -33.137499999999996 l -7.5 7.5 57.5 62.5 7.5 -7.5 -57.5 -62.5 z"></path><path d="M -263.80000000000007 26.862500000000004 q -1.655 2.716 2.6 10 l 15 0 l 10 -10 l -20 0 q -7.015 -2.931 -7.6 0 z"></path><path d="M -301.20000000000005 54.362500000000004 l 7.5 7.5 l 7.5 -7.5 l -7.5 -7.5 l -7.5 7.5 z"></path></g><g><path d="M -166.80000000000007 -33.137499999999996 l -50 0 l -9.4 9.4 l 23.2 33.05 l 6.2 -6.25 l 0 33.8 l 10 -10 l 0 -36.15 l -1.1 1.1 q -2.967 2.977 -5.95 5.95 l -1.95 2 l -0.65 0.65 l -16.5 -23.5 l 36.2 0 l 10 -10 z"></path></g><g><path d="M -146.75000000000006 -33.137499999999996 l -10 10 l 0 60 l 10 -10 l 0 -60 z"></path><g><path d="M -146.70000000000005 -30.8375 l 15 0 l 10 -10 l -17.4 0 l -17.65 17.7 l 0 7.3 q 5.4 -4.35 10 -2.75 l 0 -12.25 z"></path></g></g><g><path d="M -101.80000000000007 -33.162499999999994 l -9.9 9.95 l 47.35 58.35 l 0.05 0 l 1.4 1.75 l 7.5 -7.5 l -42.7 -52.55 l 52.05 0 l 10 -10 l -65.75 0 z"></path><g><path d="M -56.05000000000007 -23.162499999999994 l 10 0 l 17.5 -17.5 l -1.2 -1.2 l -8.7 8.7 l -7.6 0 q 0.83 5.4 -10 10 z"></path></g><g><path d="M -60.40000000000009 34.38750000000002 l 5 -5 l 10 10 l 7.15 -7.15 l -11.3 -11.2 l -7 7.1 l -1 1 q -3.183 -1.742 -3.85 0 q -0.916 1.293 0 6.25 z"></path></g><path d="M -60.12500000000006 -51.8625 l 10 -10 l -30 0 l -10 10 l 30 0 z"></path></g><g><path d="M 1.4499999999999318 -9.287499999999996 l -10 10 l 0 -33.85 l -10 10 l 0 36.2 l 10 -9.95 l 0 33.75 l 10 -10 l 0 -36.15 z"></path><g><path d="M -8.550000000000068 56.862500000000004 l 10 -10 l 0 -20 q -7.3 -5 -10 10 l 0 20 z"></path></g></g><g><path d="M 26.449999999999932 -33.137499999999996 l -7.5 7.5 57.5 62.5 7.5 -7.5 -57.5 -62.5 z"></path><path d="M 41.44999999999993 36.862500000000004 l 10 -10 l -30 0 l -10 10 l 30 0 z"></path><path d="M 61.44999999999993 -43.137499999999996 l 10 -10 l -30 0 l -10 10 l 30 0 z"></path></g><g><path d="M 108.99999999999994 -23.137499999999996 l 34.95 0 l 10 -10 l -50 0 l -10 10 l 25 25 l 0 35 l 10 -10 l 0 -30.05 l -19.95 -19.95 z"></path><g><path d="M 153.94999999999993 -33.137499999999996 l 15.05 0 l 10 -10 l -17.45 0 l -9.95 10 l -7.6 0 q 4.95 4.2 -6.25 10 l 6.25 0 l 9.95 -10 z"></path></g><g><path d="M 118.94999999999993 56.862500000000004 l 10 -10 l 0 -20 q -7.3 -5 -10 10 l 0 20 z"></path></g></g><g><path d="M 209 -9.287499999999996 l -10 10 l 0 -33.85 l -10 10 l 0 36.2 l 10 -9.95 l 0 33.75 l 10 -10 l 0 -36.15 z"></path><g><path d="M 199.04999999999995 -30.8375 l 15 0 l 10 -10 l -17.4 0 l -17.65 17.7 l 0 7.3 q 5.4 -4.35 10 -2.75 l 0 -12.25 z"></path></g><g><path d="M 209 44.462500000000006 l 0 -17.6 q -7.3 -5 -10 10 l 0 20 l 17.5 -17.5 l -1.2 -1.2 l -6.3 6.3 z"></path></g></g><g><path d="M 264.04999999999995 -9.287499999999996 l -10 10 l 0 -33.85 l -10 10 l 0 36.2 l 10 -9.95 l 0 33.75 l 10 -10 l 0 -36.15 z"></path><g><path d="M 250.3499999999999 -49.537499999999994 l -16.3 16.3 l 0 22.45 l 10 -10 l 0 5.15 q 5 -6.1 10 -2.5 l 0 -15 l -10 10 l 0 -17.7 l 7.5 -7.5 l -1.2 -1.2 z"></path></g><g><path d="M 264.04999999999995 26.862500000000004 l 0 -5 q -6.25 9 -10 5 l 0 7.6 l -11.8 -11.7 l -7 7 l 12.95 12.95 l 15.85 -15.85 z"></path></g></g><g><path d="M 301.55000000000007 -9.287499999999996 l -10 10 l 0 -33.85 l -10 10 l 0 36.2 l 10 -9.95 l 0 33.75 l 10 -10 l 0 -36.15 z"></path><g><path d="M 281.55000000000007 -11.937499999999996 q 5 -12.14 10 -11.2 l 0 -10 l -17.5 17.5 l 1.2 1.2 l 6.3 -6.3 l 0 8.8 z"></path></g><g><path d="M 301.20000000000005 24.762500000000003 q -0.375 0.363 -1.15 1.15 q -6.261 1.099 -8.5 -3.8 l 0 14.75 l 10 -10 l 10 10 l 7.15 -7.15 l -11.3 -11.2 l -5.85 5.9 q -0.04 0.029 -0.35 0.35 z"></path></g></g></g></g>
</svg>
