<svg xmlns="http://www.w3.org/2000/svg" viewBox="0 0 75 98.775" width="75" height="98.775" fill="currentColor" stroke="none">
<g transform="translate(37.5 49.3875)"><g><g><path d="M -27.5 -20.612499999999997 l -10 10 l 0 60 l 10 -10 l 0 -60 z"></path></g><g><path d="M 37.5 -20.5875 l -10 10 l 0 20 l -35 0 l -10 10 l 29.95 29.95 l 7.5 -7.5 l -22.45 -22.45 l 30 0 l 10 -10 l 0 -30 z"></path><g><path d="M 37.5 -4.937500000000007 l 0 -15.65 l -10 10.05 q -10.8 -2.6 -16.2 -18.85 q -0.35 21.9 9.85 27.5 l 6.35 -6.35 l 0 8.1 q 4.8 -9.5 10 -4.8 z"></path></g><g><path d="M 9.850000000000001 39.36249999999998 q -1.655 2.716 2.6 10 l 15 0 l 10 -10 l -20 0 q -7.015 -2.931 -7.6 0 z"></path></g><path d="M 20 -39.3875 l 10 -10 l -30 0 l -10 10 l 30 0 z"></path></g></g></g>
</svg>
