<svg xmlns="http://www.w3.org/2000/svg" viewBox="0 0 62.5 172.294907" width="62.5" height="172.294907" fill="currentColor" stroke="none">
<g transform="translate(31.25 86.149722)"><g><g><path d="M 23.75 -30.927778889024992 l -10 10 l 0 20 l -35 0 l -10 10 l 29.95 29.95 l 7.5 -7.5 l -22.45 -22.45 l 30 0 l 10 -10 l 0 -30 z"></path><g><path d="M 3.75 -28.577778889024998 q 9.8 -16 27.5 -7.5 l -7.5 7.55 l 0 11.1 q -5.25 -3.05 -10 1.5 l 0 -5 l 8.85 -8.8 q -7.15 -6.15 -18.85 1.15 z"></path></g><g><path d="M 5 30.32222111097499 q -6.486 -1.216 -4.75 5 q 2.924 -3.894 5.95 -3.8 l 8.8 -8.8 l 0 -15 l -10 10 l 0 12.6 z"></path></g></g></g></g>
</svg>
