<svg xmlns="http://www.w3.org/2000/svg" viewBox="0 0 454.35 127.525" width="454.35" height="127.525" fill="currentColor" stroke="none">
<g transform="translate(227.175 63.7625)"><g><g><path d="M -219.675 -43.737500000000004 l -7.5 7.5 57.5 62.5 7.5 -7.5 -57.5 -62.5 z"></path></g><g><path d="M -127.17500000000001 -43.737500000000004 l -10 10 l 0 30 l 30 30 l 7.5 -7.5 l -27.5 -27.5 l 0 -35 z"></path><g><path d="M -127.17500000000001 -43.737500000000004 l -15 0 l 0 -15 l -10 10 l 0 15 l 15 0 l 0 10 q 3.85 -7.75 10 -5 l 0 -15 z"></path></g><g><path d="M -102.72500000000001 19.862499999999997 q -1.825 3.28 -4.45 6.4 l -7.5 7.5 l -1.2 -1.2 l 7.5 -7.5 q -1.688 -4.106 -0.35 -4.55 q 1.45 -0.6 6 -0.65 z"></path></g><path d="M -133.525 53.762499999999996 l 8.8 -8.8 l -1.2 -1.2 l -20 20 l 30 0 l 10 -10 l -27.6 0 z"></path></g><g><path d="M -69.67500000000001 -19.887500000000003 l -10 10 l 0 -33.85 l -10 10 l 0 36.2 l 10 -9.95 l 0 33.75 l 10 -10 l 0 -36.15 z"></path><g><path d="M -89.67500000000001 -33.737500000000004 l 0 5 q 6.25 -9 10 -5 l 0 -7.6 l 11.8 11.7 l 7 -7 l -12.95 -12.95 l -15.85 15.85 z"></path></g><g><path d="M -79.67500000000001 46.262499999999996 l 10 -10 l 0 -20 q -7.3 -5 -10 10 l 0 20 z"></path></g></g><g><path d="M -18.375 -46.237500000000004 l 12.5 12.5 l -25 0 l -10 10 l 40 0 l 10 -10 l -20 -20 l -7.5 7.5 z"></path><path d="M -40.875 -13.737500000000004 l -10 10 l 50 0 l 10 -10 l -50 0 z"></path></g><g><path d="M 29.125 -43.737500000000004 l -10 10 l 0 60 l 10 -10 l 0 -60 z"></path><g><path d="M 19.125 11.262499999999996 l 0 15 l 10 -10 l 0 20 l 10 -9.9 l 0 -22.4 l -10 9.95 l 0 -5.15 q -5 6.1 -10 2.5 z"></path></g></g><g><path d="M 56.625 -43.737500000000004 l -7.5 7.5 l 31.25 31.25 l -31.25 31.25 l 40 0 l 10 -10 l -37.6 0 l 27.5 -27.6 l -32.4 -32.4 z"></path><path d="M 84.125 -53.737500000000004 l 10 -10 l -30 0 l -10 10 l 30 0 z"></path></g><g><path d="M 131.52499999999998 -43.737500000000004 l -10 10 l 0 60 l 10 -10 l 0 -60 z"></path><g><path d="M 109.125 36.262499999999996 l 22.4 0 l 10 -10.1 l -19.9 0 l -0.1 0.1 l 0 -0.1 l 0.05 0 l 9.95 -9.9 l 0 -5 q -5 5.774 -10 5 l 0 7.55 l -12.4 12.4 z"></path></g></g><g><path d="M 161.42499999999995 -43.7625 l -9.9 9.95 l 47.35 58.35 l 0.05 0 l 1.4 1.75 l 7.5 -7.5 l -42.7 -52.55 l 52.05 0 l 10 -10 l -65.75 0 z"></path><g><path d="M 215.325 41.28750000000001 l 7.5 -7.5 l -15 -15 q -6.8 0.5 -7.5 7.5 l 15 15 z"></path></g><path d="M 199.34999999999997 -53.7625 l 10 -10 l -30 0 l -10 10 l 30 0 z"></path></g></g></g>
</svg>
