<svg xmlns="http://www.w3.org/2000/svg" viewBox="0 0 305.65 110" width="305.65" height="110" fill="currentColor" stroke="none">
<g transform="translate(152.825 55)"><g><g><path d="M -134.625 -35.025000000000006 l -10 10 l 0 60 l 10 -10 l 0 -60 z"></path><g><path d="M -132.825 46.77499999999999 l -11.8 -11.8 l 10 -10 l 0 -5 q -5.188 7.964 -10 5 l 0 7.7 l -8.2 8.2 l 13 12.9 l 7 -7 z"></path></g></g><g><path d="M -67.82499999999999 -35.00000000000001 l -10 10 l 0 20 l -35 0 l -10 10 l 29.95 29.95 l 7.5 -7.5 l -22.45 -22.45 l 30 0 l 10 -10 l 0 -30 z"></path><path d="M -85.32499999999999 -45.000000000000014 l 10 -10 l -30 0 l -10 10 l 30 0 z"></path></g><g><path d="M -50.32499999999999 -35.025000000000006 l -7.5 7.5 57.5 62.5 7.5 -7.5 -57.5 -62.5 z"></path></g><g><path d="M 27.07499999999999 -35.050000000000004 l -9.9 9.95 l 47.35 58.35 l 0.05 0 l 1.4 1.75 l 7.5 -7.5 l -42.7 -52.55 l 52.05 0 l 10 -10 l -65.75 0 z"></path><g><path d="M 87.82499999999999 -25.050000000000004 l 12.5 12.5 l 7.5 -7.5 l -15 -15 q -8.65 2.75 -10 10 l 5 0 z"></path></g><g><path d="M 67.07499999999999 31.950000000000006 q 3.28 -1.825 6.4 -4.45 l 7.5 -7.5 l -1.2 -1.2 l -7.5 7.5 q -4.106 -1.688 -4.55 -0.35 q -0.6 1.45 -0.65 6 z"></path></g><path d="M 72.5 55.00000000000001 l 10 -10 l -30 0 l -10 10 l 30 0 z"></path></g><g><path d="M 137.825 -11.175000000000006 l -10 10 l 0 -33.85 l -10 10 l 0 36.2 l 10 -9.95 l 0 33.75 l 10 -10 l 0 -36.15 z"></path><g><path d="M 127.82499999999999 19.974999999999994 l 0 15 l 15 0 l 10 -10 l -15 0 l 0 -10 q -3.874 7.753 -10 5 z"></path></g></g></g></g>
</svg>
