<svg xmlns="http://www.w3.org/2000/svg" viewBox="0 0 535.45 122.15" width="535.45" height="122.15" fill="currentColor" stroke="none">
<g transform="translate(267.725 61.075)"><g><g><path d="M -230.925 9.174999999999995 l 7.45 -7.5 27.05 34.4 7.5 -7.5 -27.8 -36 -7.75 7.8 -26.95 -34.3 -7.5 7.5 28 35.6 z"></path><path d="M -257.725 -25.225000000000005 q 6.486 1.216 4.75 -5 q -2.924 3.894 -5.95 3.8 l -8.8 8.8 l 0 15 l 10 -10 l 0 -12.6 z"></path><path d="M -193.925 -23.925000000000004 l 10 -10 l -30 0 l -10 10 l 30 0 z"></path><path d="M -213.925 -43.925000000000004 l 10 -10 l -30 0 l -10 10 l 30 0 z"></path></g><g><path d="M -123.92500000000001 -23.925000000000004 l 10 -10 l -50 0 l -10 10 l 0 30 l 30 0 l 0 30 l 10 -10 l 0 -30 l -30 0 l 0 -20 l 40 0 z"></path><path d="M -133.925 56.074999999999996 l 10 -10 l -30 0 l -10 10 l 30 0 z"></path></g><g><path d="M -93.92500000000001 -33.925000000000004 l -10 10 l 0 60 l 10 -10 l 0 -60 z"></path><g><path d="M -93.875 -31.625000000000007 l 15 0 l 10 -10 l -17.4 0 l -17.65 17.7 l 0 7.3 q 5.4 -4.35 10 -2.75 l 0 -12.25 z"></path></g><g><path d="M -103.92500000000001 21.074999999999996 l 0 15 l 10 -10 l 0 20 l 10 -9.9 l 0 -22.4 l -10 9.95 l 0 -5.15 q -5 6.1 -10 2.5 z"></path></g></g><g><path d="M -38.875 -33.925000000000004 l -10 10 l 0 50 l -10 10 l 45 0 l 10 -10 l -42.6 0 l 7.6 -7.6 l 0 -42.4 l 30 0 l 10 -10 l -40 0 z"></path><g><path d="M -13.425000000000011 -23.925000000000004 l 4.55 0 l 8.8 -8.8 l 10 10 l 7.15 -7.15 l -11.3 -11.2 l -7.05 7.15 l -6.3 0 q 3.7 5 -5.85 10 z"></path></g><g><path d="M -3.875 26.074999999999996 l -15 0 q 2.75 6.15 -5 10 l 10 0 l 0 12.6 l -7.5 7.5 l 1.2 1.2 l 16.3 -16.3 l 0 -15 z"></path></g><path d="M -10.900000000000034 -51.074999999999996 l 10 -10 l -30 0 l -10 10 l 30 0 z"></path></g><g><path d="M 37.07499999999999 -33.925000000000004 l -10 10 l 0 60 l 10 -10 l 0 -60 z"></path><g><path d="M 27.07499999999999 21.074999999999996 l 0 15 l 10 -10 l 0 20 l 10 -9.9 l 0 -22.4 l -10 9.95 l 0 -5.15 q -5 6.1 -10 2.5 z"></path></g></g><g><path d="M 66.97499999999997 -33.95 l -9.9 9.95 l 47.35 58.35 l 0.05 0 l 1.4 1.75 l 7.5 -7.5 l -42.7 -52.55 l 52.05 0 l 10 -10 l -65.75 0 z"></path><g><path d="M 120.875 51.10000000000001 l 7.5 -7.5 l -15 -15 q -6.8 0.5 -7.5 7.5 l 15 15 z"></path></g><path d="M 104.89999999999998 -43.95 l 10 -10 l -30 0 l -10 10 l 30 0 z"></path></g><g><path d="M 150.22500000000002 -33.925000000000004 l -7.5 7.5 57.5 62.5 7.5 -7.5 -57.5 -62.5 z"></path><path d="M 142.72500000000002 16.074999999999996 l 20 20 l 7.5 -7.5 l -20 -20 l -7.5 7.5 z"></path><path d="M 160.22500000000002 53.574999999999996 l 7.5 7.5 l 7.5 -7.5 l -7.5 -7.5 l -7.5 7.5 z"></path></g><g><path d="M 232.72500000000002 -33.925000000000004 l -10 10 l 0 35 l 19.95 0 l -24.95 25 l 40 0 l 10 -10 l -37.6 0 l 24.85 -25 l -22.25 0 l 0 -35 z"></path></g></g></g>
</svg>
