<svg xmlns="http://www.w3.org/2000/svg" viewBox="0 0 73.8 172.294907" width="73.8" height="172.294907" fill="currentColor" stroke="none">
<g transform="translate(36.9 86.147453)"><g><g><path d="M 18.1 -41.44999999999999 l -10 10 l 0 20 l -35 0 l -10 10 l 29.95 29.95 l 7.5 -7.5 l -22.45 -22.45 l 30 0 l 10 -10 l 0 -30 z"></path><g><path d="M 8.100000000000001 -31.449999999999996 l 0 5 q 6.25 -9 10 -5 l 0 -7.6 l 11.8 11.7 l 7 -7 l -12.95 -12.95 l -15.85 15.85 z"></path></g><g><path d="M 4.850000000000001 40.29999999999999 l -11.8 -11.8 l 5 -5 q -7.681 -1.687 -7.1 0.5 l 0.95 3.35 l -7.05 7.05 l 13 12.9 z"></path></g></g></g></g>
</svg>
