<svg xmlns="http://www.w3.org/2000/svg" viewBox="0 0 69.85 172.294907" width="69.85" height="172.294907" fill="currentColor" stroke="none">
<g transform="translate(34.925 86.147453)"><g><g><path d="M 7.774999999999999 32.425 l 10 -10 l 0 -40 l -9.55 9.55 l -20.65 -29.4 l -7.5 7.5 l 21.6 30.85 l 6.1 -6.1 l 0 37.6 z"></path><g><path d="M -27.425000000000004 -52.425 l -7.5 7.5 l 15 15 q 6.8 -0.5 7.5 -7.5 l -15 -15 z"></path></g><g><path d="M 17.424999999999997 20.324999999999996 q -0.375 0.363 -1.15 1.15 q -6.261 1.099 -8.5 -3.8 l 0 14.75 l 10 -10 l 10 10 l 7.15 -7.15 l -11.3 -11.2 l -5.85 5.9 q -0.04 0.029 -0.35 0.35 z"></path></g><path d="M 9.999999999999993 52.425 l 10 -10 l -30 0 l -10 10 l 30 0 z"></path></g></g></g>
</svg>
