<svg xmlns="http://www.w3.org/2000/svg" viewBox="0 0 73.75 172.294907" width="73.75" height="172.294907" fill="currentColor" stroke="none">
<g transform="translate(36.875 86.147453)"><g><g><path d="M -10.674999999999997 -47.94847294938918 l -10 10 l 0 30 l 30 30 l 7.5 -7.5 l -27.5 -27.5 l 0 -35 z"></path><g><path d="M -10.674999999999997 -32.29847294938918 l 0 -15.65 l -10 10.05 q -10.8 -2.6 -16.2 -18.85 q -0.35 21.9 9.85 27.5 l 6.35 -6.35 l 0 8.1 q 4.8 -9.5 10 -4.8 z"></path></g><g><path d="M 15.675000000000004 13.401527050610824 l 0 -0.05 q -8.1 -2.8 -6.35 8.7 l 6.35 -6.3 q 9.4 17.75 21.2 6.85 q -12.25 2.15 -14.85 -15.5 l -6.35 6.3 z"></path></g><path d="M -7.600000000000001 46.748472949389175 l 8.8 -8.8 l -1.2 -1.2 l -20 20 l 30 0 l 10 -10 l -27.6 0 z"></path></g></g></g>
</svg>
