<svg xmlns="http://www.w3.org/2000/svg" viewBox="0 0 542.5 124.921946" width="542.5" height="124.921946" fill="currentColor" stroke="none">
<g transform="translate(271.25 62.460973)"><g><g><path d="M -254.95 -42.23597294938917 l -7.5 7.5 57.5 62.5 7.5 -7.5 -57.5 -62.5 z"></path><path d="M -261.25 -33.535972949389176 q 4.2 0.65 6.3 -2.7 q 0.8 -1 0 -6 l -6.3 6.3 l 0 -19.95 l -10 10.1 l 0 22.35 l 10 -10.1 z"></path><path d="M -204.95 27.764027050610828 l 7.5 -7.5 q -11.45 -4.9 -8.7 6.3 l -8.8 8.9 l 0 17.35 l 10 -10 l 0 -15.05 z"></path><path d="M -229.85 47.76402705061083 l -8.8 8.8 l 1.2 1.2 l 20 -20 l -30 0 l -10 10 l 27.6 0 z"></path></g><g><path d="M -161.25 -42.23597294938917 l -10 10 l 0 30 l 30 30 l 7.5 -7.5 l -27.5 -27.5 l 0 -35 z"></path><g><path d="M -161.25 -26.585972949389173 l 0 -15.65 l -10 10.05 q -10.8 -2.6 -16.2 -18.85 q -0.35 21.9 9.85 27.5 l 6.35 -6.35 l 0 8.1 q 4.8 -9.5 10 -4.8 z"></path></g><g><path d="M -134.89999999999998 19.11402705061083 l 0 -0.05 q -8.1 -2.8 -6.35 8.7 l 6.35 -6.3 q 9.4 17.75 21.2 6.85 q -12.25 2.15 -14.85 -15.5 l -6.35 6.3 z"></path></g><path d="M -158.175 52.46097294938918 l 8.8 -8.8 l -1.2 -1.2 l -20 20 l 30 0 l 10 -10 l -27.6 0 z"></path></g><g><path d="M -83.69999999999999 -18.38597294938917 l -10 10 l 0 -33.85 l -10 10 l 0 36.2 l 10 -9.95 l 0 33.75 l 10 -10 l 0 -36.15 z"></path><g><path d="M -101.19999999999999 32.86402705061083 l 1.2 1.2 l 16.3 -16.3 l 0 -7.75 q -5 9.444 -10 6.55 l 0 8.8 l -7.5 7.5 z"></path></g></g><g><path d="M -63.69999999999999 -42.23597294938917 l -10 10 l 0 60 l 10 -10 l 0 -60 z"></path><g><path d="M -73.69999999999999 12.764027050610828 l 0 15 l 10 -10 l 0 20 l 10 -9.9 l 0 -22.4 l -10 9.95 l 0 -5.15 q -5 6.1 -10 2.5 z"></path></g></g><g><path d="M 11.300000000000011 -42.21097294938917 l -10 10 l 0 20 l -35 0 l -10 10 l 29.95 29.95 l 7.5 -7.5 l -22.45 -22.45 l 30 0 l 10 -10 l 0 -30 z"></path><path d="M -6.199999999999989 -52.21097294938918 l 10 -10 l -30 0 l -10 10 l 30 0 z"></path></g><g><path d="M 31.30000000000001 -42.23597294938917 l -10 10 l 0 60 l 10 -10 l 0 -60 z"></path><g><path d="M 21.30000000000001 12.764027050610828 l 0 15 l 15 0 l 10 -10 l -15 0 l 0 -10 q -3.874 7.753 -10 5 z"></path></g></g><g><path d="M 96.30000000000001 -2.610972949389172 l 10 -10 l -29.85 -29.85 l -7.5 7.5 l 22.35 22.35 l -20 0 l -15 15 l 25.6 25.6 l 7.5 -7.5 l -23.1 -23.1 l 30 0 z"></path><path d="M 91.30000000000001 -52.46097294938917 l 10 -10 l -30 0 l -10 10 l 30 0 z"></path></g><g><path d="M 153.10000000000002 -2.235972949389172 l 7.5 -7.5 -32.5 -32.5 -7.5 7.5 32.5 32.5 m -17.5 -10 l -7.5 7.5 32.5 32.5 7.5 -7.5 -32.5 -32.5 z"></path><path d="M 116.30000000000001 -54.03597294938917 l 11.8 11.8 l -5 5 q 7.681 1.687 7.1 -0.5 l -0.95 -3.35 l 7.05 -7.05 l -13 -12.9 z"></path><path d="M 158 17.764027050610828 q -1.655 2.716 2.6 10 l 15 0 l 10 -10 l -20 0 q -7.015 -2.931 -7.6 0 z"></path><path d="M 154.35000000000002 -52.23597294938917 l 10 -10 l -30 0 l -10 10 l 30 0 z"></path></g><g><path d="M 271.25 -42.26097294938917 l -65.75 0 l -9.9 9.95 l 25.7 25.7 l -7.5 7.5 l 26.9 26.9 l 7.5 -7.5 l -25.7 -25.7 l 7.45 -7.55 l -19.3 -19.3 l 50.6 0 l 10 -10 z"></path></g></g></g>
</svg>
