<svg xmlns="http://www.w3.org/2000/svg" viewBox="0 0 42.55 172.294907" width="42.55" height="172.294907" fill="currentColor" stroke="none">
<g transform="translate(21.275 86.147453)"><g><g><path d="M -1.274999999999995 -12.350000000000003 l -10 10 l 0 -33.85 l -10 10 l 0 36.2 l 10 -9.95 l 0 33.75 l 10 -10 l 0 -36.15 z"></path><g><path d="M -21.274999999999995 -26.200000000000003 l 0 7.3 q 4.546 -5.888 10 -3.05 l 0 -11.95 l 15.05 0 l 17.5 -17.5 l -1.2 -1.2 l -8.7 8.7 l -15 0 l -17.65 17.7 z"></path></g><g><path d="M 0.5250000000000057 45.599999999999994 l -11.8 -11.8 l 10 -10 l 0 -5 q -5.188 7.964 -10 5 l 0 7.7 l -8.2 8.2 l 13 12.9 l 7 -7 z"></path></g></g></g></g>
</svg>
