<svg xmlns="http://www.w3.org/2000/svg" viewBox="0 0 553.8 140.025" width="553.8" height="140.025" fill="currentColor" stroke="none">
<g transform="translate(276.9 70.0125)"><g><g><path d="M -266.9 -44.987500000000004 l -10 10 l 0 60 l 10 -10 l 0 -60 z"></path></g><g><path d="M -245.74999999999997 -44.9125 l -10 10 l 0 40 l 9.55 -9.55 l 20.65 29.4 l 7.5 -7.5 l -21.6 -30.85 l -6.1 6.1 l 0 -37.6 z"></path><path d="M -226.89999999999998 -54.91250000000001 l 10 -10 l -30 0 l -10 10 l 30 0 z"></path></g><g><path d="M -196.89999999999998 -44.987500000000004 l -10 10 l 0 60 l 10 -10 l 0 -60 z"></path></g><g><path d="M -146.89999999999998 -5.362500000000004 l 10 -10 l -29.85 -29.85 l -7.5 7.5 l 22.35 22.35 l -20 0 l -15 15 l 25.6 25.6 l 7.5 -7.5 l -23.1 -23.1 l 30 0 z"></path><path d="M -151.89999999999998 -55.212500000000006 l 10 -10 l -30 0 l -10 10 l 30 0 z"></path></g><g><path d="M -119.39999999999998 -44.987500000000004 l -7.5 7.5 57.5 62.5 7.5 -7.5 -57.5 -62.5 z"></path></g><g><path d="M 23.75 -45.0125 l -65.75 0 l -9.9 9.95 l 25.7 25.7 l -7.5 7.5 l 26.9 26.9 l 7.5 -7.5 l -25.7 -25.7 l 7.45 -7.55 l -19.3 -19.3 l 50.6 0 l 10 -10 z"></path><g><path d="M 23.75 -45.01250000000001 l -15 0 q 2.75 6.15 -5 10 l 10 0 l 0 12.6 l -7.5 7.5 l 1.2 1.2 l 16.3 -16.3 l 0 -15 z"></path></g><g><path d="M 16.900000000000034 36.3875 q 0.35 -21.9 -9.85 -27.5 l -6.3 6.35 l -2 2 q -8.054 -2.82 -4.35 6.65 l 6.3 -6.35 q 10.8 2.6 16.2 18.85 z"></path></g><path d="M -21.674999999999983 56.387499999999996 l 8.8 -8.8 l -1.2 -1.2 l -20 20 l 30 0 l 10 -10 l -27.6 0 z"></path></g><g><path d="M 53.75 -21.137500000000003 l -10 10 l 0 -33.85 l -10 10 l 0 36.2 l 10 -9.95 l 0 33.75 l 10 -10 l 0 -36.15 z"></path><g><path d="M 53.75 32.6125 l 0 -17.6 q -7.3 -5 -10 10 l 0 20 l 17.5 -17.5 l -1.2 -1.2 l -6.3 6.3 z"></path></g></g><g><path d="M 81.14999999999998 -45.0125 l -9.9 9.95 l 47.35 58.35 l 0.05 0 l 1.4 1.75 l 7.5 -7.5 l -42.7 -52.55 l 52.05 0 l 10 -10 l -65.75 0 z"></path><path d="M 101.57499999999999 -62.5125 l 7.5 7.5 l 7.5 -7.5 l -7.5 -7.5 l -7.5 7.5 z"></path><path d="M 116.67500000000001 45.03750000000001 l -8.8 8.8 l 1.2 1.2 l 20 -20 l -30 0 l -10 10 l 27.6 0 z"></path></g><g><path d="M 171.90000000000003 -44.987500000000004 l -10 10 l 0 35 l 19.95 0 l -24.95 25 l 40 0 l 10 -10 l -37.6 0 l 24.85 -25 l -22.25 0 l 0 -35 z"></path><g><path d="M 186.90000000000003 15.012499999999996 q 6.368 3.408 0 10 l 10 0 l 10 -10 l 0 -15 l -10 10 l 0 5 l -10 0 z"></path></g><path d="M 171.90000000000003 45.012499999999996 l 0 25 l 20 -20 l -1.2 -1.2 l -8.8 8.8 l 0 -22.6 l -10 10 z"></path></g><g><path d="M 236.89999999999998 -34.987500000000004 q -0.1 -10.25 13.15 -13.1 l -1.2 -1.1 q -22.3 -0.55 -21.95 24.2 l 37.6 0 l -7.5 7.5 l 1.2 1.2 l 18.7 -18.7 l -40 0 z"></path><path d="M 226.89999999999998 -14.987500000000004 l -10 10 l 50 0 l 10 -10 l -50 0 z"></path></g></g></g>
</svg>
