<svg xmlns="http://www.w3.org/2000/svg" viewBox="0 0 80.2 172.294907" width="80.2" height="172.294907" fill="currentColor" stroke="none">
<g transform="translate(40.1 86.147453)"><g><g><path d="M -12.300000000000004 -25.15 l -7.5 7.5 l 31.25 31.25 l -31.25 31.25 l 40 0 l 10 -10 l -37.6 0 l 27.5 -27.6 l -32.4 -32.4 z"></path><g><path d="M -30.300000000000004 -24.75 l 17.6 0 l -7.1 7.1 q 10.45 1.15 8.4 -5.9 l 11.2 -11.3 l -22.4 0 l -17.5 17.5 l 1.2 1.2 l 8.6 -8.6 z"></path></g><g><path d="M 7.799999999999997 54.85 l 22.4 0 l 9.9 -10 l -19.9 0 l 10 -10 l -12.65 0 q 5.504 3.447 -5.3 10 l 5.5 0 l -9.95 10 z"></path></g><path d="M 9.999999999999993 -44.85 l 10 -10 l -30 0 l -10 10 l 30 0 z"></path></g></g></g>
</svg>
