<svg xmlns="http://www.w3.org/2000/svg" viewBox="0 0 410.35 149.7" width="410.35" height="149.7" fill="currentColor" stroke="none">
<g transform="translate(205.175 74.85)"><g><g><path d="M -188.875 -45.14999999999999 l -7.5 7.5 57.5 62.5 7.5 -7.5 -57.5 -62.5 z"></path><path d="M -195.175 -36.44999999999999 q 6.486 1.216 4.75 -5 q -2.924 3.894 -5.95 3.8 l -8.8 8.8 l 0 15 l 10 -10 l 0 -12.6 z"></path><path d="M -133.875 -35.14999999999999 l 10 -10 l -30 0 l -10 10 l 30 0 z"></path><path d="M -171.375 -62.64999999999999 l 7.5 7.5 l 7.5 -7.5 l -7.5 -7.5 l -7.5 7.5 z"></path></g><g><path d="M -103.87500000000001 -45.14999999999999 l -10 10 l 0 36.3 l 10 -10.05 l 0 33.75 l 10 -10 l 0 -36.15 l -10 10 l 0 -23.85 l 30 0 l 10 -10 l -40 0 z"></path><g><path d="M -93.87500000000001 32.45000000000001 l 0 -17.6 q -7.3 -5 -10 10 l 0 20 l 17.5 -17.5 l -1.2 -1.2 l -6.3 6.3 z"></path></g><path d="M -96.37500000000001 -62.64999999999999 l 7.5 7.5 l 7.5 -7.5 l -7.5 -7.5 l -7.5 7.5 z"></path><path d="M -81.27500000000002 64.85000000000001 l -8.8 8.8 l 1.2 1.2 l 20 -20 l -30 0 l -10 10 l 27.6 0 z"></path></g><g><path d="M -43.875 -45.14999999999999 l -10 10 l 0 60 l 10 -10 l 0 -60 z"></path><g><path d="M -43.82499999999999 -42.849999999999994 l 15 0 l 10 -10 l -17.4 0 l -17.65 17.7 l 0 7.3 q 5.4 -4.35 10 -2.75 l 0 -12.25 z"></path></g><g><path d="M -53.875 9.850000000000009 l 0 15 l 10 -10 l 0 20 l 10 -9.9 l 0 -22.4 l -10 9.95 l 0 -5.15 q -5 6.1 -10 2.5 z"></path></g></g><g><path d="M 1.1750000000000114 -45.14999999999999 l -10 10 l 0 36.3 l 10 -10.05 l 0 33.75 l 10 -10 l 0 -36.15 l -10 10 l 0 -23.85 l 30 0 l 10 -10 l -40 0 z"></path><g><path d="M 11.175000000000011 32.45000000000001 l 0 -17.6 q -7.3 -5 -10 10 l 0 20 l 17.5 -17.5 l -1.2 -1.2 l -6.3 6.3 z"></path></g><path d="M 26.17500000000001 -55.14999999999999 l 10 -10 l -30 0 l -10 10 l 30 0 z"></path></g><g><path d="M 61.17500000000001 -45.14999999999999 l -10 10 l 0 60 l 10 -10 l 0 -60 z"></path><g><path d="M 51.17500000000001 9.850000000000009 l 0 15 l 15 0 l 10 -10 l -15 0 l 0 -10 q -3.874 7.753 -10 5 z"></path></g></g><g><path d="M 113.97500000000002 -45.14999999999999 l -7.5 7.5 l 31.25 31.25 l -31.25 31.25 l 40 0 l 10 -10 l -37.6 0 l 27.5 -27.6 l -32.4 -32.4 z"></path><g><path d="M 95.97500000000002 -44.74999999999999 l 17.6 0 l -7.1 7.1 q 10.45 1.15 8.4 -5.9 l 11.2 -11.3 l -22.4 0 l -17.5 17.5 l 1.2 1.2 l 8.6 -8.6 z"></path></g><g><path d="M 134.07500000000005 34.85000000000001 l 22.4 0 l 9.9 -10 l -19.9 0 l 10 -10 l -12.65 0 q 5.504 3.447 -5.3 10 l 5.5 0 l -9.95 10 z"></path></g><path d="M 136.27500000000003 -64.85 l 10 -10 l -30 0 l -10 10 l 30 0 z"></path></g><g><path d="M 205.175 -21.29999999999999 l -10 10 l 0 -33.85 l -10 10 l 0 36.2 l 10 -9.95 l 0 33.75 l 10 -10 l 0 -36.15 z"></path><g><path d="M 185.175 -23.949999999999992 q 5 -12.14 10 -11.2 l 0 -10 l -17.5 17.5 l 1.2 1.2 l 6.3 -6.3 l 0 8.8 z"></path></g><g><path d="M 205.175 14.850000000000009 l 0 -5 q -6.25 9 -10 5 l 0 7.6 l -11.8 -11.7 l -7 7 l 12.95 12.95 l 15.85 -15.85 z"></path></g></g></g></g>
</svg>
