<svg xmlns="http://www.w3.org/2000/svg"
 viewBox="0 0 1193 52" width="1193" height="52"
 fill="#fff" color="#fff" stroke="none">
<g><svg x="0" y="0" width="17" height="52" viewBox="0 0 55 172.294907" preserveAspectRatio="xMidYMid meet" color="#fff" fill="#fff" stroke="none"><g transform="translate(27.5 86.147453)"><g><g><path d="M 27.5 -24.974999999999987 l -10 10 l 0 20 l -35 0 l -10 10 l 29.95 29.95 l 7.5 -7.5 l -22.45 -22.45 l 30 0 l 10 -10 l 0 -30 z"></path><path d="M 10 -34.974999999999994 l 10 -10 l -30 0 l -10 10 l 30 0 z"></path></g></g></g></svg><svg x="20" y="0" width="17" height="52" viewBox="0 0 55 172.294907" preserveAspectRatio="xMidYMid meet" color="#fff" fill="#fff" stroke="none"><g transform="translate(27.5 86.147453)"><g><g><path d="M 19.999999999999996 35 l 7.5 -7.5 -26.9 -26.9 7.45 -7.55 -28.05 -28.05 -7.5 7.5 26.9 26.9 -7.5 7.5 28.1 28.1 z"></path></g></g></g></svg><svg x="40" y="0" width="6" height="52" viewBox="0 0 20 172.294907" preserveAspectRatio="xMidYMid meet" color="#fff" fill="#fff" stroke="none"><g transform="translate(10 86.147453)"><g><g><path d="M 8.2 -44.400000000000006 l -10 10 l 0 60 l 10 -10 l 0 -60 z"></path><g><path d="M 10 37.39999999999999 l -11.8 -11.8 l 10 -10 l 0 -5 q -5.188 7.964 -10 5 l 0 7.7 l -8.2 8.2 l 13 12.9 l 7 -7 z"></path></g></g></g></g></svg><svg x="49" y="0" width="15" height="52" viewBox="0 0 50 172.294907" preserveAspectRatio="xMidYMid meet" color="#fff" fill="#fff" stroke="none"><g transform="translate(25 86.147453)"><g><g><path d="M -17.5 -35 l -7.5 7.5 l 31.25 31.25 l -31.25 31.25 l 40 0 l 10 -10 l -37.6 0 l 27.5 -27.6 l -32.4 -32.4 z"></path></g></g></g></svg><svg x="67" y="0" width="25" height="52" viewBox="0 0 81.3 172.294907" preserveAspectRatio="xMidYMid meet" color="#fff" fill="#fff" stroke="none"><g transform="translate(40.65 86.147453)"><g><g><path d="M -24.35000000000001 -22.5 l -7.5 7.5 57.5 62.5 7.5 -7.5 -57.5 -62.5 z"></path><path d="M -30.65000000000001 -13.8 q 4.2 0.65 6.3 -2.7 q 0.8 -1 0 -6 l -6.3 6.3 l 0 -19.95 l -10 10.1 l 0 22.35 l 10 -10.1 z"></path><path d="M 28.25 -12.5 l -8.8 8.8 l 1.2 1.2 l 20 -20 l -30 0 l -10 10 l 27.6 0 z"></path><path d="M -6.8500000000000085 -40 l 7.5 7.5 l 7.5 -7.5 l -7.5 -7.5 l -7.5 7.5 z"></path></g></g></g></svg><svg x="95" y="0" width="16" height="52" viewBox="0 0 53.361611 172.294907" preserveAspectRatio="xMidYMid meet" color="#fff" fill="#fff" stroke="none"><g transform="translate(26.686611 86.147453)"><g><g><path d="M 9.525000000000002 -6.750000000000002 l -10 10 l 0 -33.85 l -10 10 l 0 36.2 l 10 -9.95 l 0 33.75 l 10 -10 l 0 -36.15 z"></path><g><path d="M -0.4750000000000014 -14.950000000000003 l 0 -15.65 l -10 10.05 q -10.8 -2.6 -16.2 -18.85 q -0.35 21.9 9.85 27.5 l 6.35 -6.35 l 0 8.1 q 4.8 -9.5 10 -4.8 z"></path></g><g><path d="M 9.175 27.299999999999997 q -0.375 0.363 -1.15 1.15 q -6.261 1.099 -8.5 -3.8 l 0 14.75 l 10 -10 l 10 10 l 7.15 -7.15 l -11.3 -11.2 l -5.85 5.9 q -0.04 0.029 -0.35 0.35 z"></path></g></g></g></g></svg><svg x="114" y="0" width="15" height="52" viewBox="0 0 50 172.294907" preserveAspectRatio="xMidYMid meet" color="#fff" fill="#fff" stroke="none"><g transform="translate(25 86.147453)"><g><g><path d="M -15 -35 l -10 10 l 0 60 l 10 -10 l 0 -50 l 30 0 l 10 -10 l -40 0 z"></path><g><path d="M -15 42.6 l 0 -17.6 q -7.3 -5 -10 10 l 0 20 l 17.5 -17.5 l -1.2 -1.2 l -6.3 6.3 z"></path></g><path d="M 10 -45 l 10 -10 l -30 0 l -10 10 l 30 0 z"></path></g></g></g></svg><svg x="132" y="0" width="13" height="52" viewBox="0 0 42.5 172.294907" preserveAspectRatio="xMidYMid meet" color="#fff" fill="#fff" stroke="none"><g transform="translate(21.25 86.147453)"><g><g><path d="M 6.25 -1.1500000000000004 l -10 10 l 0 -33.85 l -10 10 l 0 36.2 l 10 -9.95 l 0 33.75 l 10 -10 l 0 -36.15 z"></path><g><path d="M -13.75 -32.6 l 0 17.6 q 7.3 5 10 -10 l 0 -20 l -17.5 17.5 l 1.2 1.2 l 6.3 -6.3 z"></path></g><g><path d="M -3.75 30 l 0 15 l 15 0 l 10 -10 l -15 0 l 0 -10 q -3.874 7.753 -10 5 z"></path></g></g></g></g></svg><svg x="148" y="0" width="22" height="52" viewBox="0 0 72.5 172.294907" preserveAspectRatio="xMidYMid meet" color="#fff" fill="#fff" stroke="none"><g transform="translate(36.25 86.147453)"><g><g><path d="M 11.25 47.5 l 7.5 -7.5 -26.9 -26.9 7.45 -7.55 -28.05 -28.05 -7.5 7.5 26.9 26.9 -7.5 7.5 28.1 28.1 z"></path><path d="M -27.599999999999998 -15 q 1.328 -4.078 -0.8 -6.7 l 0.8 0.35 q 19.05 9.15 23.7 -6.2 q -7.65 9.4 -17.35 -2.45 l -15 15 q 4.648 1.323 8.65 0 z"></path><path d="M 8.650000000000006 37.5 q -1.655 2.716 2.6 10 l 15 0 l 10 -10 l -20 0 q -7.015 -2.931 -7.6 0 z"></path><path d="M -16.249999999999996 -40 l 7.5 7.5 l 7.5 -7.5 l -7.5 -7.5 l -7.5 7.5 z"></path></g></g></g></svg><svg x="173" y="0" width="15" height="52" viewBox="0 0 50 172.294907" preserveAspectRatio="xMidYMid meet" color="#fff" fill="#fff" stroke="none"><g transform="translate(25 86.147453)"><g><g><path d="M -15 -35 l -10 10 l 0 60 l 10 -10 l 0 -50 l 30 0 l 10 -10 l -40 0 z"></path><g><path d="M -15 42.6 l 0 -17.6 q -7.3 -5 -10 10 l 0 20 l 17.5 -17.5 l -1.2 -1.2 l -6.3 6.3 z"></path></g><path d="M 10 -45 l 10 -10 l -30 0 l -10 10 l 30 0 z"></path></g></g></g></svg><svg x="191" y="0" width="11" height="52" viewBox="0 0 35.05 172.294907" preserveAspectRatio="xMidYMid meet" color="#fff" fill="#fff" stroke="none"><g transform="translate(17.525 86.147453)"><g><g><path d="M -7.524999999999999 -31.15 l -10 10 l 0 60 l 10 -10 l 0 -60 z"></path><g><path d="M -7.474999999999998 -28.85 l 15 0 l 10 -10 l -17.4 0 l -17.65 17.7 l 0 7.3 q 5.4 -4.35 10 -2.75 l 0 -12.25 z"></path></g></g></g></g></svg><svg x="205" y="0" width="17" height="52" viewBox="0 0 55 172.294907" preserveAspectRatio="xMidYMid meet" color="#fff" fill="#fff" stroke="none"><g transform="translate(27.5 86.147453)"><g><g><path d="M 20 25 l 7.5 -7.5 -26.9 -26.9 7.45 -7.55 -28.05 -28.05 -7.5 7.5 26.9 26.9 -7.5 7.5 28.1 28.1 z"></path><path d="M 2.5 45 l 10 -10 l -30 0 l -10 10 l 30 0 z"></path></g></g></g></svg><svg x="225" y="0" width="30" height="52" viewBox="0 0 99.65 172.294907" preserveAspectRatio="xMidYMid meet" color="#fff" fill="#fff" stroke="none"><g transform="translate(49.825 86.147453)"><g><g><path d="M -25.174999999999997 -46.25 l -7.5 7.5 57.5 62.5 7.5 -7.5 -57.5 -62.5 z"></path><path d="M -27.674999999999997 -43.75 l -5 5 l -10 -10 l -7.15 7.15 l 11.3 11.2 l 7 -7.1 l 1 -1 q 3.183 1.742 3.85 0 q 0.916 -1.293 0 -6.25 z"></path><path d="M 22.225 13.75 q -1.655 2.716 2.6 10 l 15 0 l 10 -10 l -20 0 q -7.015 -2.931 -7.6 0 z"></path><path d="M -15.174999999999997 41.25 l 7.5 7.5 l 7.5 -7.5 l -7.5 -7.5 l -7.5 7.5 z"></path></g></g></g></svg><svg x="258" y="0" width="17" height="52" viewBox="0 0 55 172.294907" preserveAspectRatio="xMidYMid meet" color="#fff" fill="#fff" stroke="none"><g transform="translate(27.5 86.147453)"><g><g><path d="M 19.999999999999996 22.5 l 7.5 -7.5 -26.9 -26.9 7.45 -7.55 -28.05 -28.05 -7.5 7.5 26.9 26.9 -7.5 7.5 28.1 28.1 z"></path><path d="M -15.000000000000004 40 l 7.5 7.5 l 7.5 -7.5 l -7.5 -7.5 l -7.5 7.5 z"></path></g></g></g></svg><svg x="278" y="0" width="6" height="52" viewBox="0 0 20 172.294907" preserveAspectRatio="xMidYMid meet" color="#fff" fill="#fff" stroke="none"><g transform="translate(10 86.147453)"><g><g><path d="M 0 -40 l -10 10 l 0 60 l 10 -10 l 0 -60 z"></path><g><path d="M -10 15 l 0 15 l 10 -10 l 0 20 l 10 -9.9 l 0 -22.4 l -10 9.95 l 0 -5.15 q -5 6.1 -10 2.5 z"></path></g></g></g></g></svg><svg x="287" y="0" width="17" height="52" viewBox="0 0 55 172.294907" preserveAspectRatio="xMidYMid meet" color="#fff" fill="#fff" stroke="none"><g transform="translate(27.5 86.147453)"><g><g><path d="M 27.5 -44.374999999999986 l -10 10 l 0 20 l -35 0 l -10 10 l 29.95 29.95 l 7.5 -7.5 l -22.45 -22.45 l 30 0 l 10 -10 l 0 -30 z"></path><g><path d="M 17.85 -32.27499999999999 q 0.375 -0.363 1.15 -1.15 q 6.261 -1.099 8.5 3.8 l 0 -14.75 l -10 10 l -10 -10 l -7.15 7.15 l 11.3 11.2 l 5.85 -5.9 q 0.04 -0.029 0.35 -0.35 z"></path></g><g><path d="M 14.25 37.37499999999999 l -11.8 -11.8 l 5 -5 q -7.681 -1.687 -7.1 0.5 l 0.95 3.35 l -7.05 7.05 l 13 12.9 z"></path></g></g></g></g></svg><svg x="307" y="0" width="6" height="52" viewBox="0 0 20 172.294907" preserveAspectRatio="xMidYMid meet" color="#fff" fill="#fff" stroke="none"><g transform="translate(10 86.147453)"><g><g><path d="M 10 -21.15 l -10 10 l 0 -33.85 l -10 10 l 0 36.2 l 10 -9.95 l 0 33.75 l 10 -10 l 0 -36.15 z"></path><g><path d="M 0 45 l 10 -10 l 0 -20 q -7.3 -5 -10 10 l 0 20 z"></path></g></g></g></g></svg><svg x="316" y="0" width="17" height="52" viewBox="0 0 55 172.294907" preserveAspectRatio="xMidYMid meet" color="#fff" fill="#fff" stroke="none"><g transform="translate(27.5 86.147453)"><g><g><path d="M -27.5 18.124999999999993 l 10 -10 l 0 -20 l 35 0 l 10 -10 l -29.95 -29.95 l -7.5 7.5 l 22.45 22.45 l -30 0 l -10 10 l 0 30 z"></path><g><path d="M -27.5 3.125 l 0 15 l 12.6 0 l -7.5 7.5 l 1.2 1.2 l 18.7 -18.7 l -15 0 l 0 -10 q -3.85 7.75 -10 5 z"></path></g><path d="M -7.5 44.325 l 7.5 7.5 l 7.5 -7.5 l -7.5 -7.5 l -7.5 7.5 z"></path></g></g></g></svg><svg x="336" y="0" width="17" height="52" viewBox="0 0 55 172.294907" preserveAspectRatio="xMidYMid meet" color="#fff" fill="#fff" stroke="none"><g transform="translate(27.5 86.147453)"><g><g><path d="M 19.999999999999996 35 l 7.5 -7.5 -26.9 -26.9 7.45 -7.55 -28.05 -28.05 -7.5 7.5 26.9 26.9 -7.5 7.5 28.1 28.1 z"></path></g></g></g></svg><svg x="356" y="0" width="17" height="52" viewBox="0 0 55 172.294907" preserveAspectRatio="xMidYMid meet" color="#fff" fill="#fff" stroke="none"><g transform="translate(27.5 86.147453)"><g><g><path d="M 27.5 -24.974999999999987 l -10 10 l 0 20 l -35 0 l -10 10 l 29.95 29.95 l 7.5 -7.5 l -22.45 -22.45 l 30 0 l 10 -10 l 0 -30 z"></path><path d="M 10 -34.974999999999994 l 10 -10 l -30 0 l -10 10 l 30 0 z"></path></g></g></g></svg><svg x="376" y="0" width="17" height="52" viewBox="0 0 55 172.294907" preserveAspectRatio="xMidYMid meet" color="#fff" fill="#fff" stroke="none"><g transform="translate(27.5 86.147453)"><g><g><path d="M -27.5 18.124999999999993 l 10 -10 l 0 -20 l 35 0 l 10 -10 l -29.95 -29.95 l -7.5 7.5 l 22.45 22.45 l -30 0 l -10 10 l 0 30 z"></path><g><path d="M -27.5 3.125 l 0 15 l 12.6 0 l -7.5 7.5 l 1.2 1.2 l 18.7 -18.7 l -15 0 l 0 -10 q -3.85 7.75 -10 5 z"></path></g><path d="M -7.5 44.325 l 7.5 7.5 l 7.5 -7.5 l -7.5 -7.5 l -7.5 7.5 z"></path></g></g></g></svg><svg x="396" y="0" width="6" height="52" viewBox="0 0 20 172.294907" preserveAspectRatio="xMidYMid meet" color="#fff" fill="#fff" stroke="none"><g transform="translate(10 86.147453)"><g><g><path d="M 10 -21.15 l -10 10 l 0 -33.85 l -10 10 l 0 36.2 l 10 -9.95 l 0 33.75 l 10 -10 l 0 -36.15 z"></path><g><path d="M 0 45 l 10 -10 l 0 -20 q -7.3 -5 -10 10 l 0 20 z"></path></g></g></g></g></svg><svg x="405" y="0" width="17" height="52" viewBox="0 0 55 172.294907" preserveAspectRatio="xMidYMid meet" color="#fff" fill="#fff" stroke="none"><g transform="translate(27.5 86.147453)"><g><g><path d="M 27.5 -44.374999999999986 l -10 10 l 0 20 l -35 0 l -10 10 l 29.95 29.95 l 7.5 -7.5 l -22.45 -22.45 l 30 0 l 10 -10 l 0 -30 z"></path><g><path d="M 17.85 -32.27499999999999 q 0.375 -0.363 1.15 -1.15 q 6.261 -1.099 8.5 3.8 l 0 -14.75 l -10 10 l -10 -10 l -7.15 7.15 l 11.3 11.2 l 5.85 -5.9 q 0.04 -0.029 0.35 -0.35 z"></path></g><g><path d="M 14.25 37.37499999999999 l -11.8 -11.8 l 5 -5 q -7.681 -1.687 -7.1 0.5 l 0.95 3.35 l -7.05 7.05 l 13 12.9 z"></path></g></g></g></g></svg><svg x="425" y="0" width="6" height="52" viewBox="0 0 20 172.294907" preserveAspectRatio="xMidYMid meet" color="#fff" fill="#fff" stroke="none"><g transform="translate(10 86.147453)"><g><g><path d="M 0 -40 l -10 10 l 0 60 l 10 -10 l 0 -60 z"></path><g><path d="M -10 15 l 0 15 l 10 -10 l 0 20 l 10 -9.9 l 0 -22.4 l -10 9.95 l 0 -5.15 q -5 6.1 -10 2.5 z"></path></g></g></g></g></svg><svg x="434" y="0" width="17" height="52" viewBox="0 0 55 172.294907" preserveAspectRatio="xMidYMid meet" color="#fff" fill="#fff" stroke="none"><g transform="translate(27.5 86.147453)"><g><g><path d="M 19.999999999999996 22.5 l 7.5 -7.5 -26.9 -26.9 7.45 -7.55 -28.05 -28.05 -7.5 7.5 26.9 26.9 -7.5 7.5 28.1 28.1 z"></path><path d="M -15.000000000000004 40 l 7.5 7.5 l 7.5 -7.5 l -7.5 -7.5 l -7.5 7.5 z"></path></g></g></g></svg><svg x="454" y="0" width="30" height="52" viewBox="0 0 99.65 172.294907" preserveAspectRatio="xMidYMid meet" color="#fff" fill="#fff" stroke="none"><g transform="translate(49.825 86.147453)"><g><g><path d="M -25.174999999999997 -46.25 l -7.5 7.5 57.5 62.5 7.5 -7.5 -57.5 -62.5 z"></path><path d="M -27.674999999999997 -43.75 l -5 5 l -10 -10 l -7.15 7.15 l 11.3 11.2 l 7 -7.1 l 1 -1 q 3.183 1.742 3.85 0 q 0.916 -1.293 0 -6.25 z"></path><path d="M 22.225 13.75 q -1.655 2.716 2.6 10 l 15 0 l 10 -10 l -20 0 q -7.015 -2.931 -7.6 0 z"></path><path d="M -15.174999999999997 41.25 l 7.5 7.5 l 7.5 -7.5 l -7.5 -7.5 l -7.5 7.5 z"></path></g></g></g></svg><svg x="487" y="0" width="17" height="52" viewBox="0 0 55 172.294907" preserveAspectRatio="xMidYMid meet" color="#fff" fill="#fff" stroke="none"><g transform="translate(27.5 86.147453)"><g><g><path d="M 20 25 l 7.5 -7.5 -26.9 -26.9 7.45 -7.55 -28.05 -28.05 -7.5 7.5 26.9 26.9 -7.5 7.5 28.1 28.1 z"></path><path d="M 2.5 45 l 10 -10 l -30 0 l -10 10 l 30 0 z"></path></g></g></g></svg><svg x="507" y="0" width="11" height="52" viewBox="0 0 35.05 172.294907" preserveAspectRatio="xMidYMid meet" color="#fff" fill="#fff" stroke="none"><g transform="translate(17.525 86.147453)"><g><g><path d="M -7.524999999999999 -31.15 l -10 10 l 0 60 l 10 -10 l 0 -60 z"></path><g><path d="M -7.474999999999998 -28.85 l 15 0 l 10 -10 l -17.4 0 l -17.65 17.7 l 0 7.3 q 5.4 -4.35 10 -2.75 l 0 -12.25 z"></path></g></g></g></g></svg><svg x="521" y="0" width="15" height="52" viewBox="0 0 50 172.294907" preserveAspectRatio="xMidYMid meet" color="#fff" fill="#fff" stroke="none"><g transform="translate(25 86.147453)"><g><g><path d="M -15 -35 l -10 10 l 0 60 l 10 -10 l 0 -50 l 30 0 l 10 -10 l -40 0 z"></path><g><path d="M -15 42.6 l 0 -17.6 q -7.3 -5 -10 10 l 0 20 l 17.5 -17.5 l -1.2 -1.2 l -6.3 6.3 z"></path></g><path d="M 10 -45 l 10 -10 l -30 0 l -10 10 l 30 0 z"></path></g></g></g></svg><svg x="539" y="0" width="22" height="52" viewBox="0 0 72.5 172.294907" preserveAspectRatio="xMidYMid meet" color="#fff" fill="#fff" stroke="none"><g transform="translate(36.25 86.147453)"><g><g><path d="M 11.25 47.5 l 7.5 -7.5 -26.9 -26.9 7.45 -7.55 -28.05 -28.05 -7.5 7.5 26.9 26.9 -7.5 7.5 28.1 28.1 z"></path><path d="M -27.599999999999998 -15 q 1.328 -4.078 -0.8 -6.7 l 0.8 0.35 q 19.05 9.15 23.7 -6.2 q -7.65 9.4 -17.35 -2.45 l -15 15 q 4.648 1.323 8.65 0 z"></path><path d="M 8.650000000000006 37.5 q -1.655 2.716 2.6 10 l 15 0 l 10 -10 l -20 0 q -7.015 -2.931 -7.6 0 z"></path><path d="M -16.249999999999996 -40 l 7.5 7.5 l 7.5 -7.5 l -7.5 -7.5 l -7.5 7.5 z"></path></g></g></g></svg><svg x="564" y="0" width="13" height="52" viewBox="0 0 42.5 172.294907" preserveAspectRatio="xMidYMid meet" color="#fff" fill="#fff" stroke="none"><g transform="translate(21.25 86.147453)"><g><g><path d="M 6.25 -1.1500000000000004 l -10 10 l 0 -33.85 l -10 10 l 0 36.2 l 10 -9.95 l 0 33.75 l 10 -10 l 0 -36.15 z"></path><g><path d="M -13.75 -32.6 l 0 17.6 q 7.3 5 10 -10 l 0 -20 l -17.5 17.5 l 1.2 1.2 l 6.3 -6.3 z"></path></g><g><path d="M -3.75 30 l 0 15 l 15 0 l 10 -10 l -15 0 l 0 -10 q -3.874 7.753 -10 5 z"></path></g></g></g></g></svg><svg x="580" y="0" width="15" height="52" viewBox="0 0 50 172.294907" preserveAspectRatio="xMidYMid meet" color="#fff" fill="#fff" stroke="none"><g transform="translate(25 86.147453)"><g><g><path d="M -15 -35 l -10 10 l 0 60 l 10 -10 l 0 -50 l 30 0 l 10 -10 l -40 0 z"></path><g><path d="M -15 42.6 l 0 -17.6 q -7.3 -5 -10 10 l 0 20 l 17.5 -17.5 l -1.2 -1.2 l -6.3 6.3 z"></path></g><path d="M 10 -45 l 10 -10 l -30 0 l -10 10 l 30 0 z"></path></g></g></g></svg><svg x="598" y="0" width="16" height="52" viewBox="0 0 53.361611 172.294907" preserveAspectRatio="xMidYMid meet" color="#fff" fill="#fff" stroke="none"><g transform="translate(26.686611 86.147453)"><g><g><path d="M 9.525000000000002 -6.750000000000002 l -10 10 l 0 -33.85 l -10 10 l 0 36.2 l 10 -9.95 l 0 33.75 l 10 -10 l 0 -36.15 z"></path><g><path d="M -0.4750000000000014 -14.950000000000003 l 0 -15.65 l -10 10.05 q -10.8 -2.6 -16.2 -18.85 q -0.35 21.9 9.85 27.5 l 6.35 -6.35 l 0 8.1 q 4.8 -9.5 10 -4.8 z"></path></g><g><path d="M 9.175 27.299999999999997 q -0.375 0.363 -1.15 1.15 q -6.261 1.099 -8.5 -3.8 l 0 14.75 l 10 -10 l 10 10 l 7.15 -7.15 l -11.3 -11.2 l -5.85 5.9 q -0.04 0.029 -0.35 0.35 z"></path></g></g></g></g></svg><svg x="617" y="0" width="25" height="52" viewBox="0 0 81.3 172.294907" preserveAspectRatio="xMidYMid meet" color="#fff" fill="#fff" stroke="none"><g transform="translate(40.65 86.147453)"><g><g><path d="M -24.35000000000001 -22.5 l -7.5 7.5 57.5 62.5 7.5 -7.5 -57.5 -62.5 z"></path><path d="M -30.65000000000001 -13.8 q 4.2 0.65 6.3 -2.7 q 0.8 -1 0 -6 l -6.3 6.3 l 0 -19.95 l -10 10.1 l 0 22.35 l 10 -10.1 z"></path><path d="M 28.25 -12.5 l -8.8 8.8 l 1.2 1.2 l 20 -20 l -30 0 l -10 10 l 27.6 0 z"></path><path d="M -6.8500000000000085 -40 l 7.5 7.5 l 7.5 -7.5 l -7.5 -7.5 l -7.5 7.5 z"></path></g></g></g></svg><svg x="645" y="0" width="15" height="52" viewBox="0 0 50 172.294907" preserveAspectRatio="xMidYMid meet" color="#fff" fill="#fff" stroke="none"><g transform="translate(25 86.147453)"><g><g><path d="M -17.5 -35 l -7.5 7.5 l 31.25 31.25 l -31.25 31.25 l 40 0 l 10 -10 l -37.6 0 l 27.5 -27.6 l -32.4 -32.4 z"></path></g></g></g></svg><svg x="663" y="0" width="6" height="52" viewBox="0 0 20 172.294907" preserveAspectRatio="xMidYMid meet" color="#fff" fill="#fff" stroke="none"><g transform="translate(10 86.147453)"><g><g><path d="M 8.2 -44.400000000000006 l -10 10 l 0 60 l 10 -10 l 0 -60 z"></path><g><path d="M 10 37.39999999999999 l -11.8 -11.8 l 10 -10 l 0 -5 q -5.188 7.964 -10 5 l 0 7.7 l -8.2 8.2 l 13 12.9 l 7 -7 z"></path></g></g></g></g></svg><svg x="672" y="0" width="6" height="52" viewBox="0 0 20 172.294907" preserveAspectRatio="xMidYMid meet" color="#fff" fill="#fff" stroke="none"><g transform="translate(10 86.147453)"><g><g><path d="M 8.2 -44.400000000000006 l -10 10 l 0 60 l 10 -10 l 0 -60 z"></path><g><path d="M 10 37.39999999999999 l -11.8 -11.8 l 10 -10 l 0 -5 q -5.188 7.964 -10 5 l 0 7.7 l -8.2 8.2 l 13 12.9 l 7 -7 z"></path></g></g></g></g></svg><svg x="681" y="0" width="15" height="52" viewBox="0 0 50 172.294907" preserveAspectRatio="xMidYMid meet" color="#fff" fill="#fff" stroke="none"><g transform="translate(25 86.147453)"><g><g><path d="M -17.5 -35 l -7.5 7.5 l 31.25 31.25 l -31.25 31.25 l 40 0 l 10 -10 l -37.6 0 l 27.5 -27.6 l -32.4 -32.4 z"></path></g></g></g></svg><svg x="699" y="0" width="25" height="52" viewBox="0 0 81.3 172.294907" preserveAspectRatio="xMidYMid meet" color="#fff" fill="#fff" stroke="none"><g transform="translate(40.65 86.147453)"><g><g><path d="M -24.35000000000001 -22.5 l -7.5 7.5 57.5 62.5 7.5 -7.5 -57.5 -62.5 z"></path><path d="M -30.65000000000001 -13.8 q 4.2 0.65 6.3 -2.7 q 0.8 -1 0 -6 l -6.3 6.3 l 0 -19.95 l -10 10.1 l 0 22.35 l 10 -10.1 z"></path><path d="M 28.25 -12.5 l -8.8 8.8 l 1.2 1.2 l 20 -20 l -30 0 l -10 10 l 27.6 0 z"></path><path d="M -6.8500000000000085 -40 l 7.5 7.5 l 7.5 -7.5 l -7.5 -7.5 l -7.5 7.5 z"></path></g></g></g></svg><svg x="727" y="0" width="16" height="52" viewBox="0 0 53.361611 172.294907" preserveAspectRatio="xMidYMid meet" color="#fff" fill="#fff" stroke="none"><g transform="translate(26.686611 86.147453)"><g><g><path d="M 9.525000000000002 -6.750000000000002 l -10 10 l 0 -33.85 l -10 10 l 0 36.2 l 10 -9.95 l 0 33.75 l 10 -10 l 0 -36.15 z"></path><g><path d="M -0.4750000000000014 -14.950000000000003 l 0 -15.65 l -10 10.05 q -10.8 -2.6 -16.2 -18.85 q -0.35 21.9 9.85 27.5 l 6.35 -6.35 l 0 8.1 q 4.8 -9.5 10 -4.8 z"></path></g><g><path d="M 9.175 27.299999999999997 q -0.375 0.363 -1.15 1.15 q -6.261 1.099 -8.5 -3.8 l 0 14.75 l 10 -10 l 10 10 l 7.15 -7.15 l -11.3 -11.2 l -5.85 5.9 q -0.04 0.029 -0.35 0.35 z"></path></g></g></g></g></svg><svg x="746" y="0" width="15" height="52" viewBox="0 0 50 172.294907" preserveAspectRatio="xMidYMid meet" color="#fff" fill="#fff" stroke="none"><g transform="translate(25 86.147453)"><g><g><path d="M -15 -35 l -10 10 l 0 60 l 10 -10 l 0 -50 l 30 0 l 10 -10 l -40 0 z"></path><g><path d="M -15 42.6 l 0 -17.6 q -7.3 -5 -10 10 l 0 20 l 17.5 -17.5 l -1.2 -1.2 l -6.3 6.3 z"></path></g><path d="M 10 -45 l 10 -10 l -30 0 l -10 10 l 30 0 z"></path></g></g></g></svg><svg x="764" y="0" width="13" height="52" viewBox="0 0 42.5 172.294907" preserveAspectRatio="xMidYMid meet" color="#fff" fill="#fff" stroke="none"><g transform="translate(21.25 86.147453)"><g><g><path d="M 6.25 -1.1500000000000004 l -10 10 l 0 -33.85 l -10 10 l 0 36.2 l 10 -9.95 l 0 33.75 l 10 -10 l 0 -36.15 z"></path><g><path d="M -13.75 -32.6 l 0 17.6 q 7.3 5 10 -10 l 0 -20 l -17.5 17.5 l 1.2 1.2 l 6.3 -6.3 z"></path></g><g><path d="M -3.75 30 l 0 15 l 15 0 l 10 -10 l -15 0 l 0 -10 q -3.874 7.753 -10 5 z"></path></g></g></g></g></svg><svg x="780" y="0" width="22" height="52" viewBox="0 0 72.5 172.294907" preserveAspectRatio="xMidYMid meet" color="#fff" fill="#fff" stroke="none"><g transform="translate(36.25 86.147453)"><g><g><path d="M 11.25 47.5 l 7.5 -7.5 -26.9 -26.9 7.45 -7.55 -28.05 -28.05 -7.5 7.5 26.9 26.9 -7.5 7.5 28.1 28.1 z"></path><path d="M -27.599999999999998 -15 q 1.328 -4.078 -0.8 -6.7 l 0.8 0.35 q 19.05 9.15 23.7 -6.2 q -7.65 9.4 -17.35 -2.45 l -15 15 q 4.648 1.323 8.65 0 z"></path><path d="M 8.650000000000006 37.5 q -1.655 2.716 2.6 10 l 15 0 l 10 -10 l -20 0 q -7.015 -2.931 -7.6 0 z"></path><path d="M -16.249999999999996 -40 l 7.5 7.5 l 7.5 -7.5 l -7.5 -7.5 l -7.5 7.5 z"></path></g></g></g></svg><svg x="805" y="0" width="15" height="52" viewBox="0 0 50 172.294907" preserveAspectRatio="xMidYMid meet" color="#fff" fill="#fff" stroke="none"><g transform="translate(25 86.147453)"><g><g><path d="M -15 -35 l -10 10 l 0 60 l 10 -10 l 0 -50 l 30 0 l 10 -10 l -40 0 z"></path><g><path d="M -15 42.6 l 0 -17.6 q -7.3 -5 -10 10 l 0 20 l 17.5 -17.5 l -1.2 -1.2 l -6.3 6.3 z"></path></g><path d="M 10 -45 l 10 -10 l -30 0 l -10 10 l 30 0 z"></path></g></g></g></svg><svg x="823" y="0" width="11" height="52" viewBox="0 0 35.05 172.294907" preserveAspectRatio="xMidYMid meet" color="#fff" fill="#fff" stroke="none"><g transform="translate(17.525 86.147453)"><g><g><path d="M -7.524999999999999 -31.15 l -10 10 l 0 60 l 10 -10 l 0 -60 z"></path><g><path d="M -7.474999999999998 -28.85 l 15 0 l 10 -10 l -17.4 0 l -17.65 17.7 l 0 7.3 q 5.4 -4.35 10 -2.75 l 0 -12.25 z"></path></g></g></g></g></svg><svg x="837" y="0" width="17" height="52" viewBox="0 0 55 172.294907" preserveAspectRatio="xMidYMid meet" color="#fff" fill="#fff" stroke="none"><g transform="translate(27.5 86.147453)"><g><g><path d="M 20 25 l 7.5 -7.5 -26.9 -26.9 7.45 -7.55 -28.05 -28.05 -7.5 7.5 26.9 26.9 -7.5 7.5 28.1 28.1 z"></path><path d="M 2.5 45 l 10 -10 l -30 0 l -10 10 l 30 0 z"></path></g></g></g></svg><svg x="857" y="0" width="30" height="52" viewBox="0 0 99.65 172.294907" preserveAspectRatio="xMidYMid meet" color="#fff" fill="#fff" stroke="none"><g transform="translate(49.825 86.147453)"><g><g><path d="M -25.174999999999997 -46.25 l -7.5 7.5 57.5 62.5 7.5 -7.5 -57.5 -62.5 z"></path><path d="M -27.674999999999997 -43.75 l -5 5 l -10 -10 l -7.15 7.15 l 11.3 11.2 l 7 -7.1 l 1 -1 q 3.183 1.742 3.85 0 q 0.916 -1.293 0 -6.25 z"></path><path d="M 22.225 13.75 q -1.655 2.716 2.6 10 l 15 0 l 10 -10 l -20 0 q -7.015 -2.931 -7.6 0 z"></path><path d="M -15.174999999999997 41.25 l 7.5 7.5 l 7.5 -7.5 l -7.5 -7.5 l -7.5 7.5 z"></path></g></g></g></svg><svg x="890" y="0" width="17" height="52" viewBox="0 0 55 172.294907" preserveAspectRatio="xMidYMid meet" color="#fff" fill="#fff" stroke="none"><g transform="translate(27.5 86.147453)"><g><g><path d="M 19.999999999999996 22.5 l 7.5 -7.5 -26.9 -26.9 7.45 -7.55 -28.05 -28.05 -7.5 7.5 26.9 26.9 -7.5 7.5 28.1 28.1 z"></path><path d="M -15.000000000000004 40 l 7.5 7.5 l 7.5 -7.5 l -7.5 -7.5 l -7.5 7.5 z"></path></g></g></g></svg><svg x="910" y="0" width="6" height="52" viewBox="0 0 20 172.294907" preserveAspectRatio="xMidYMid meet" color="#fff" fill="#fff" stroke="none"><g transform="translate(10 86.147453)"><g><g><path d="M 0 -40 l -10 10 l 0 60 l 10 -10 l 0 -60 z"></path><g><path d="M -10 15 l 0 15 l 10 -10 l 0 20 l 10 -9.9 l 0 -22.4 l -10 9.95 l 0 -5.15 q -5 6.1 -10 2.5 z"></path></g></g></g></g></svg><svg x="919" y="0" width="17" height="52" viewBox="0 0 55 172.294907" preserveAspectRatio="xMidYMid meet" color="#fff" fill="#fff" stroke="none"><g transform="translate(27.5 86.147453)"><g><g><path d="M 27.5 -44.374999999999986 l -10 10 l 0 20 l -35 0 l -10 10 l 29.95 29.95 l 7.5 -7.5 l -22.45 -22.45 l 30 0 l 10 -10 l 0 -30 z"></path><g><path d="M 17.85 -32.27499999999999 q 0.375 -0.363 1.15 -1.15 q 6.261 -1.099 8.5 3.8 l 0 -14.75 l -10 10 l -10 -10 l -7.15 7.15 l 11.3 11.2 l 5.85 -5.9 q 0.04 -0.029 0.35 -0.35 z"></path></g><g><path d="M 14.25 37.37499999999999 l -11.8 -11.8 l 5 -5 q -7.681 -1.687 -7.1 0.5 l 0.95 3.35 l -7.05 7.05 l 13 12.9 z"></path></g></g></g></g></svg><svg x="939" y="0" width="6" height="52" viewBox="0 0 20 172.294907" preserveAspectRatio="xMidYMid meet" color="#fff" fill="#fff" stroke="none"><g transform="translate(10 86.147453)"><g><g><path d="M 10 -21.15 l -10 10 l 0 -33.85 l -10 10 l 0 36.2 l 10 -9.95 l 0 33.75 l 10 -10 l 0 -36.15 z"></path><g><path d="M 0 45 l 10 -10 l 0 -20 q -7.3 -5 -10 10 l 0 20 z"></path></g></g></g></g></svg><svg x="948" y="0" width="17" height="52" viewBox="0 0 55 172.294907" preserveAspectRatio="xMidYMid meet" color="#fff" fill="#fff" stroke="none"><g transform="translate(27.5 86.147453)"><g><g><path d="M -27.5 18.124999999999993 l 10 -10 l 0 -20 l 35 0 l 10 -10 l -29.95 -29.95 l -7.5 7.5 l 22.45 22.45 l -30 0 l -10 10 l 0 30 z"></path><g><path d="M -27.5 3.125 l 0 15 l 12.6 0 l -7.5 7.5 l 1.2 1.2 l 18.7 -18.7 l -15 0 l 0 -10 q -3.85 7.75 -10 5 z"></path></g><path d="M -7.5 44.325 l 7.5 7.5 l 7.5 -7.5 l -7.5 -7.5 l -7.5 7.5 z"></path></g></g></g></svg><svg x="968" y="0" width="17" height="52" viewBox="0 0 55 172.294907" preserveAspectRatio="xMidYMid meet" color="#fff" fill="#fff" stroke="none"><g transform="translate(27.5 86.147453)"><g><g><path d="M 27.5 -24.974999999999987 l -10 10 l 0 20 l -35 0 l -10 10 l 29.95 29.95 l 7.5 -7.5 l -22.45 -22.45 l 30 0 l 10 -10 l 0 -30 z"></path><path d="M 10 -34.974999999999994 l 10 -10 l -30 0 l -10 10 l 30 0 z"></path></g></g></g></svg><svg x="988" y="0" width="17" height="52" viewBox="0 0 55 172.294907" preserveAspectRatio="xMidYMid meet" color="#fff" fill="#fff" stroke="none"><g transform="translate(27.5 86.147453)"><g><g><path d="M 19.999999999999996 35 l 7.5 -7.5 -26.9 -26.9 7.45 -7.55 -28.05 -28.05 -7.5 7.5 26.9 26.9 -7.5 7.5 28.1 28.1 z"></path></g></g></g></svg><svg x="1008" y="0" width="15" height="52" viewBox="0 0 50 172.294907" preserveAspectRatio="xMidYMid meet" color="#fff" fill="#fff" stroke="none"><g transform="translate(25 86.147453)"><g><g><path d="M -17.5 -35 l -7.5 7.5 l 31.25 31.25 l -31.25 31.25 l 40 0 l 10 -10 l -37.6 0 l 27.5 -27.6 l -32.4 -32.4 z"></path></g></g></g></svg><svg x="1026" y="0" width="6" height="52" viewBox="0 0 20 172.294907" preserveAspectRatio="xMidYMid meet" color="#fff" fill="#fff" stroke="none"><g transform="translate(10 86.147453)"><g><g><path d="M 8.2 -44.400000000000006 l -10 10 l 0 60 l 10 -10 l 0 -60 z"></path><g><path d="M 10 37.39999999999999 l -11.8 -11.8 l 10 -10 l 0 -5 q -5.188 7.964 -10 5 l 0 7.7 l -8.2 8.2 l 13 12.9 l 7 -7 z"></path></g></g></g></g></svg><svg x="1035" y="0" width="17" height="52" viewBox="0 0 55 172.294907" preserveAspectRatio="xMidYMid meet" color="#fff" fill="#fff" stroke="none"><g transform="translate(27.5 86.147453)"><g><g><path d="M 19.999999999999996 35 l 7.5 -7.5 -26.9 -26.9 7.45 -7.55 -28.05 -28.05 -7.5 7.5 26.9 26.9 -7.5 7.5 28.1 28.1 z"></path></g></g></g></svg><svg x="1055" y="0" width="17" height="52" viewBox="0 0 55 172.294907" preserveAspectRatio="xMidYMid meet" color="#fff" fill="#fff" stroke="none"><g transform="translate(27.5 86.147453)"><g><g><path d="M 27.5 -24.974999999999987 l -10 10 l 0 20 l -35 0 l -10 10 l 29.95 29.95 l 7.5 -7.5 l -22.45 -22.45 l 30 0 l 10 -10 l 0 -30 z"></path><path d="M 10 -34.974999999999994 l 10 -10 l -30 0 l -10 10 l 30 0 z"></path></g></g></g></svg><svg x="1075" y="0" width="17" height="52" viewBox="0 0 55 172.294907" preserveAspectRatio="xMidYMid meet" color="#fff" fill="#fff" stroke="none"><g transform="translate(27.5 86.147453)"><g><g><path d="M -27.5 18.124999999999993 l 10 -10 l 0 -20 l 35 0 l 10 -10 l -29.95 -29.95 l -7.5 7.5 l 22.45 22.45 l -30 0 l -10 10 l 0 30 z"></path><g><path d="M -27.5 3.125 l 0 15 l 12.6 0 l -7.5 7.5 l 1.2 1.2 l 18.7 -18.7 l -15 0 l 0 -10 q -3.85 7.75 -10 5 z"></path></g><path d="M -7.5 44.325 l 7.5 7.5 l 7.5 -7.5 l -7.5 -7.5 l -7.5 7.5 z"></path></g></g></g></svg><svg x="1095" y="0" width="6" height="52" viewBox="0 0 20 172.294907" preserveAspectRatio="xMidYMid meet" color="#fff" fill="#fff" stroke="none"><g transform="translate(10 86.147453)"><g><g><path d="M 10 -21.15 l -10 10 l 0 -33.85 l -10 10 l 0 36.2 l 10 -9.95 l 0 33.75 l 10 -10 l 0 -36.15 z"></path><g><path d="M 0 45 l 10 -10 l 0 -20 q -7.3 -5 -10 10 l 0 20 z"></path></g></g></g></g></svg><svg x="1104" y="0" width="17" height="52" viewBox="0 0 55 172.294907" preserveAspectRatio="xMidYMid meet" color="#fff" fill="#fff" stroke="none"><g transform="translate(27.5 86.147453)"><g><g><path d="M 27.5 -44.374999999999986 l -10 10 l 0 20 l -35 0 l -10 10 l 29.95 29.95 l 7.5 -7.5 l -22.45 -22.45 l 30 0 l 10 -10 l 0 -30 z"></path><g><path d="M 17.85 -32.27499999999999 q 0.375 -0.363 1.15 -1.15 q 6.261 -1.099 8.5 3.8 l 0 -14.75 l -10 10 l -10 -10 l -7.15 7.15 l 11.3 11.2 l 5.85 -5.9 q 0.04 -0.029 0.35 -0.35 z"></path></g><g><path d="M 14.25 37.37499999999999 l -11.8 -11.8 l 5 -5 q -7.681 -1.687 -7.1 0.5 l 0.95 3.35 l -7.05 7.05 l 13 12.9 z"></path></g></g></g></g></svg><svg x="1124" y="0" width="6" height="52" viewBox="0 0 20 172.294907" preserveAspectRatio="xMidYMid meet" color="#fff" fill="#fff" stroke="none"><g transform="translate(10 86.147453)"><g><g><path d="M 0 -40 l -10 10 l 0 60 l 10 -10 l 0 -60 z"></path><g><path d="M -10 15 l 0 15 l 10 -10 l 0 20 l 10 -9.9 l 0 -22.4 l -10 9.95 l 0 -5.15 q -5 6.1 -10 2.5 z"></path></g></g></g></g></svg><svg x="1133" y="0" width="17" height="52" viewBox="0 0 55 172.294907" preserveAspectRatio="xMidYMid meet" color="#fff" fill="#fff" stroke="none"><g transform="translate(27.5 86.147453)"><g><g><path d="M 19.999999999999996 22.5 l 7.5 -7.5 -26.9 -26.9 7.45 -7.55 -28.05 -28.05 -7.5 7.5 26.9 26.9 -7.5 7.5 28.1 28.1 z"></path><path d="M -15.000000000000004 40 l 7.5 7.5 l 7.5 -7.5 l -7.5 -7.5 l -7.5 7.5 z"></path></g></g></g></svg><svg x="1153" y="0" width="30" height="52" viewBox="0 0 99.65 172.294907" preserveAspectRatio="xMidYMid meet" color="#fff" fill="#fff" stroke="none"><g transform="translate(49.825 86.147453)"><g><g><path d="M -25.174999999999997 -46.25 l -7.5 7.5 57.5 62.5 7.5 -7.5 -57.5 -62.5 z"></path><path d="M -27.674999999999997 -43.75 l -5 5 l -10 -10 l -7.15 7.15 l 11.3 11.2 l 7 -7.1 l 1 -1 q 3.183 1.742 3.85 0 q 0.916 -1.293 0 -6.25 z"></path><path d="M 22.225 13.75 q -1.655 2.716 2.6 10 l 15 0 l 10 -10 l -20 0 q -7.015 -2.931 -7.6 0 z"></path><path d="M -15.174999999999997 41.25 l 7.5 7.5 l 7.5 -7.5 l -7.5 -7.5 l -7.5 7.5 z"></path></g></g></g></svg></g>
</svg>
