<svg xmlns="http://www.w3.org/2000/svg" viewBox="0 0 55 117.45" width="55" height="117.45" fill="currentColor" stroke="none">
<g transform="translate(27.5 58.725)"><g><g fill="currentColor"><path d="M 27.5 -58.72499999999999 l -10 10 l 0 20 l -35 0 l -10 10 l 29.95 29.95 l 7.5 -7.5 l -22.45 -22.45 l 30 0 l 10 -10 l 0 -30 z"></path><g><path d="M 4.950000000000003 8.724999999999994 l 5 -5 l 10 10 l 7.15 -7.15 l -11.3 -11.2 l -7 7.1 l -1 1 q -3.183 -1.742 -3.85 0 q -0.916 1.293 0 6.25 z"></path></g><path d="M -10 33.724999999999994 l 0 25 l 20 -20 l -1.2 -1.2 l -8.8 8.8 l 0 -22.6 l -10 10 z"></path></g></g></g>
</svg>
