<svg xmlns="http://www.w3.org/2000/svg" viewBox="0 0 67.65 172.294907" width="67.65" height="172.294907" fill="currentColor" stroke="none">
<g transform="translate(33.825 86.147453)"><g><g><path d="M -23.824999999999996 -31.716662166507504 l -10 10 l 0 36.3 l 10 -10.05 l 0 33.75 l 10 -10 l 0 -36.15 l -10 10 l 0 -23.85 l 30 0 l 10 -10 l -40 0 z"></path><g><path d="M 21.325000000000003 -39.216662166507504 l -7.5 7.5 l -11.1 0 q 3.05 5.25 -1.5 10 l 5 0 l 8.8 -8.85 q 0.445 14.232 18.8 18.85 q -12.993 -10.704 -12.45 -27.5 z"></path></g><g><path d="M -23.824999999999996 22.633337833492497 l 0 15.65 l 10 -10 q 9.4 17.75 21.2 6.85 q -12.25 2.15 -14.85 -15.5 l -6.35 6.3 l 0 -8.1 q -4.8 9.5 -10 4.8 z"></path></g></g></g></g>
</svg>
