<svg xmlns="http://www.w3.org/2000/svg" viewBox="0 0 396.7 141.225" width="396.7" height="141.225" fill="currentColor" stroke="none">
<g transform="translate(198.35 70.6125)"><g><g><path d="M -169.55 -44.3875 l -10 10 l 0 60 l 10 -10 l 0 -60 z"></path><g><path d="M -169.50000000000003 -42.087500000000006 l 15 0 l 10 -10 l -17.4 0 l -17.65 17.7 l 0 7.3 q 5.4 -4.35 10 -2.75 l 0 -12.25 z"></path></g><g><path d="M -169.55 15.612499999999997 l 0 -5 q -6.25 9 -10 5 l 0 7.6 l -11.8 -11.7 l -7 7 l 12.95 12.95 l 15.85 -15.85 z"></path></g></g><g><path d="M -124.50000000000003 -44.3125 l -10 10 l 0 40 l 9.55 -9.55 l 20.65 29.4 l 7.5 -7.5 l -21.6 -30.85 l -6.1 6.1 l 0 -37.6 z"></path><g><path d="M -117.00000000000003 -49.41250000000001 l -1.2 -1.2 l -16.3 16.3 l 0 7.75 q 5 -9.444 10 -6.55 l 0 -8.8 l 7.5 -7.5 z"></path></g><g><path d="M -84.30000000000003 15.537499999999987 l -15 0 q -7 -2.95 -7.6 0 q -1.65 2.7 2.6 10 l 10 0 l 0 15 l 10 -10 l 0 -15 z"></path></g><path d="M -99.40000000000002 -60.61250000000001 l 10 -10 l -30 0 l -10 10 l 30 0 z"></path></g><g><path d="M -66.80000000000001 -44.3875 l -7.5 7.5 57.5 62.5 7.5 -7.5 -57.5 -62.5 z"></path></g><g><path d="M 10.699999999999989 -44.3875 l -10 10 l 0 36.3 l 10 -10.05 l 0 33.75 l 10 -10 l 0 -36.15 l -10 10 l 0 -23.85 l 30 0 l 10 -10 l -40 0 z"></path><g><path d="M 55.849999999999994 -51.8875 l -7.5 7.5 l -11.1 0 q 3.05 5.25 -1.5 10 l 5 0 l 8.8 -8.85 q 0.445 14.232 18.8 18.85 q -12.993 -10.704 -12.45 -27.5 z"></path></g><g><path d="M 10.699999999999989 9.962499999999999 l 0 15.65 l 10 -10 q 9.4 17.75 21.2 6.85 q -12.25 2.15 -14.85 -15.5 l -6.35 6.3 l 0 -8.1 q -4.8 9.5 -10 4.8 z"></path></g></g><g><path d="M 88.35000000000002 -44.3875 l -10 10 l 0 60 l 40 0 l 10 -10 l -40 0 l 0 -60 z"></path><path d="M 93.35000000000002 45.6125 l 0 25 l 20 -20 l -1.2 -1.2 l -8.8 8.8 l 0 -22.6 l -10 10 z"></path></g><g><path d="M 182.10000000000002 -41.8875 l -1.2 -1.2 l -6.3 6.3 l 0 -27.6 l -10 10 l 0 30 l 17.5 -17.5 z"></path><path d="M 148.35000000000002 -14.387500000000003 l -10 10 l 50 0 l 10 -10 l -50 0 z"></path></g></g></g>
</svg>
