<svg xmlns="http://www.w3.org/2000/svg" viewBox="0 0 81.35 172.294907" width="81.35" height="172.294907" fill="currentColor" stroke="none">
<g transform="translate(40.675 86.145185)"><g><g><path d="M -1.3250000000000028 8.999489795918363 l 7.45 -7.5 27.05 34.4 7.5 -7.5 -27.8 -36 -7.75 7.8 -26.95 -34.3 -7.5 7.5 28 35.6 z"></path><path d="M -20.675000000000004 -32.900510204081634 l 7.5 -7.55 q -17.7 -8.5 -27.5 7.5 q 11.7 -7.3 18.85 -1.15 l -3.7 3.65 q 1.81 1.308 4.55 2.1 q 1.8 0.5 0.3 -4.55 z"></path><path d="M 37.62499999999999 29.499489795918365 q -1.825 3.28 -4.45 6.4 l -7.5 7.5 l -1.2 -1.2 l 7.5 -7.5 q -1.688 -4.106 -0.35 -4.55 q 1.45 -0.6 6 -0.65 z"></path></g></g></g>
</svg>
