<svg xmlns="http://www.w3.org/2000/svg" viewBox="0 0 82.65 172.294907" width="82.65" height="172.294907" fill="currentColor" stroke="none">
<g transform="translate(41.325 86.147453)"><g><g><path d="M -8.774999999999991 -54.375 l -7.5 7.5 l 31.25 31.25 l -31.25 31.25 l 40 0 l 10 -10 l -37.6 0 l 27.5 -27.6 l -32.4 -32.4 z"></path><g><path d="M -16.27499999999999 -46.875 l -15.05 0 l -10 10 l 17.45 0 l 8.75 -8.8 q 6.9 0.2 3.8 -6.15 l -4.95 4.95 z"></path></g><g><path d="M 25.025000000000006 34.375 l 16.3 -16.3 l 0 -22.45 l -10 10 l -12.6 0 q 3.5 4 0 10 l 5 0 l 7.6 -7.65 l 0 17.7 l -7.5 7.5 l 1.2 1.2 z"></path></g><path d="M 10.000000000000014 54.375 l 10 -10 l -30 0 l -10 10 l 30 0 z"></path></g></g></g>
</svg>
