<svg xmlns="http://www.w3.org/2000/svg" viewBox="0 0 80.05 172.294907" width="80.05" height="172.294907" fill="currentColor" stroke="none">
<g transform="translate(40.025 86.147453)"><g><g><path d="M 14.975000000000001 -35.97499999999999 l -10 10 l 0 20 l -35 0 l -10 10 l 29.95 29.95 l 7.5 -7.5 l -22.45 -22.45 l 30 0 l 10 -10 l 0 -30 z"></path><g><path d="M 15.024999999999999 -33.675 l 15 0 l 10 -10 l -17.4 0 l -17.65 17.7 l 0 7.3 q 5.4 -4.35 10 -2.75 l 0 -12.25 z"></path></g><g><path d="M -10.974999999999998 32.37499999999999 l -11.2 11.3 l 22.4 0 l 10 -10.1 l -19.9 0 l 7.1 -7.1 q -10.446 -1.157 -8.4 5.9 z"></path></g></g></g></g>
</svg>
