<svg xmlns="http://www.w3.org/2000/svg" viewBox="0 0 575.95 135" width="575.95" height="135" fill="currentColor" stroke="none">
<g transform="translate(287.975 67.5)"><g><g><path d="M -263.32500000000005 -42.5 l -7.5 7.5 57.5 62.5 7.5 -7.5 -57.5 -62.5 z"></path><path d="M -265.82500000000005 -40 l -5 5 l -10 -10 l -7.15 7.15 l 11.3 11.2 l 7 -7.1 l 1 -1 q 3.183 1.742 3.85 0 q 0.916 -1.293 0 -6.25 z"></path><path d="M -248.32500000000002 27.5 l 10 -10 l -30 0 l -10 10 l 30 0 z"></path><path d="M -245.82500000000002 -60 l 7.5 7.5 l 7.5 -7.5 l -7.5 -7.5 l -7.5 7.5 z"></path></g><g><path d="M -180.77500000000003 -32.5 l 34.95 0 l 10 -10 l -50 0 l -10 10 l 25 25 l 0 35 l 10 -10 l 0 -30.05 l -19.95 -19.95 z"></path><g><path d="M -170.82500000000002 47.5 l 10 -10 l 0 -20 q -7.3 -5 -10 10 l 0 20 z"></path></g><path d="M -155.82500000000002 67.5 l 10 -10 l -30 0 l -10 10 l 30 0 z"></path></g><g><path d="M -104.15 -57.5 l -7.5 7.5 l 21.65 27.5 l 10 0 l 10 -10 l -14.55 0 l -19.6 -25 z"></path><path d="M -115.82500000000002 -12.5 l -10 10 l 50 0 l 10 -10 l -50 0 z"></path></g><g><path d="M -45.82500000000002 -42.5 l -10 10 l 0 60 l 10 -10 l 0 -60 z"></path><g><path d="M -55.82500000000002 12.5 l 0 15 l 15 0 l 10 -10 l -15 0 l 0 -10 q -3.874 7.753 -10 5 z"></path></g></g><g><path d="M 19.174999999999955 -2.875 l 10 -10 l -29.85 -29.85 l -7.5 7.5 l 22.35 22.35 l -20 0 l -15 15 l 25.6 25.6 l 7.5 -7.5 l -23.1 -23.1 l 30 0 z"></path><path d="M 14.174999999999955 -52.725 l 10 -10 l -30 0 l -10 10 l 30 0 z"></path></g><g><path d="M 71.47499999999997 0.5999999999999996 l 7.45 -7.5 27.05 34.4 7.5 -7.5 -27.8 -36 -7.75 7.8 -26.95 -34.3 -7.5 7.5 28 35.6 z"></path><path d="M 39.174999999999955 -54.3 l 11.8 11.8 l -5 5 q 7.681 1.687 7.1 -0.5 l -0.95 -3.35 l 7.05 -7.05 l -13 -12.9 z"></path></g><g><path d="M 182.875 -42.5 l -50 0 l -9.4 9.4 l 23.2 33.05 l 6.2 -6.25 l 0 33.8 l 10 -10 l 0 -36.15 l -1.1 1.1 q -2.967 2.977 -5.95 5.95 l -1.95 2 l -0.65 0.65 l -16.5 -23.5 l 36.2 0 l 10 -10 z"></path><g><path d="M 162.875 35.1 l 0 -17.6 q -7.3 -5 -10 10 l 0 20 l 17.5 -17.5 l -1.2 -1.2 l -6.3 6.3 z"></path></g></g><g><path d="M 202.925 -42.5 l -10 10 l 0 60 l 10 -10 l 0 -60 z"></path><g><path d="M 202.97500000000002 -40.2 l 15 0 l 10 -10 l -17.4 0 l -17.65 17.7 l 0 7.3 q 5.4 -4.35 10 -2.75 l 0 -12.25 z"></path></g><g><path d="M 192.925 12.5 l 0 15 l 10 -10 l 0 20 l 10 -9.9 l 0 -22.4 l -10 9.95 l 0 -5.15 q -5 6.1 -10 2.5 z"></path></g></g><g><path d="M 247.97500000000002 -42.5 l -10 10 l 0 36.3 l 10 -10.05 l 0 33.75 l 10 -10 l 0 -36.15 l -10 10 l 0 -23.85 l 30 0 l 10 -10 l -40 0 z"></path><path d="M 272.975 -52.5 l 10 -10 l -30 0 l -10 10 l 30 0 z"></path></g></g></g>
</svg>
