<svg xmlns="http://www.w3.org/2000/svg" viewBox="0 0 98.15 172.294907" width="98.15" height="172.294907" fill="currentColor" stroke="none">
<g transform="translate(49.075 86.147453)"><g><g fill="currentColor"><path d="M -39.175 -60.7 l -9.9 9.95 l 47.35 58.35 l 0.05 0 l 1.4 1.75 l 7.5 -7.5 l -42.7 -52.55 l 52.05 0 l 10 -10 l -65.75 0 z"></path><g><path d="M 49.075 -53.2 l -1.2 -1.2 l -7.5 7.5 l -13.8 -13.8 q -8.65 2.75 -10 10 l 5 0 l 12.5 12.5 l 15 -15 z"></path></g><g><path d="M -17.775 39.50000000000001 l 1.2 1.2 l 16.3 -16.3 l 0 -15.05 l 7.5 -7.5 q -11.45 -4.9 -8.7 6.3 l -8.8 8.9 l 0 14.95 l -7.5 7.5 z"></path></g><path d="M 10 60.699999999999996 l 10 -10 l -30 0 l -10 10 l 30 0 z"></path></g></g></g>
</svg>
