<svg xmlns="http://www.w3.org/2000/svg" viewBox="0 0 610.35 142.425" width="610.35" height="142.425" fill="currentColor" stroke="none">
<g transform="translate(305.175 71.2125)"><g><g><path d="M -277.175 9.387499999999994 l 7.45 -7.5 27.05 34.4 7.5 -7.5 -27.8 -36 -7.75 7.8 -26.95 -34.3 -7.5 7.5 28 35.6 z"></path><path d="M -296.52500000000003 -32.56250000000001 l 15.05 0 l 10 -10 l -17.45 0 l -8.75 8.85 q -1.75 3.2 -4.85 7.2 q 5.7 0.35 6 -6.05 z"></path><path d="M -245.275 26.287499999999994 q -1.655 2.716 2.6 10 l 15 0 l 10 -10 l -20 0 q -7.015 -2.931 -7.6 0 z"></path><path d="M -302.675 16.287499999999994 l 20 20 l 7.5 -7.5 l -20 -20 l -7.5 7.5 z"></path></g><g><path d="M -200.175 -33.712500000000006 l -7.5 7.5 l 31.25 31.25 l -31.25 31.25 l 40 0 l 10 -10 l -37.6 0 l 27.5 -27.6 l -32.4 -32.4 z"></path></g><g><path d="M -87.72500000000002 26.287499999999994 l -34.95 0 l -10 10 l 50 0 l 10 -10 l -25 -25 l 0 -35 l -10 10 l 0 30.05 l 19.95 19.95 z"></path><g><path d="M -127.67500000000001 26.287499999999994 l -12.5 -12.5 l -7.5 7.5 l 15 15 q 8.65 -2.75 10 -10 l -5 0 z"></path></g><path d="M -100.17500000000001 -43.712500000000006 l 10 -10 l -30 0 l -10 10 l 30 0 z"></path><path d="M -117.67500000000001 53.787499999999994 l 7.5 7.5 l 7.5 -7.5 l -7.5 -7.5 l -7.5 7.5 z"></path></g><g><path d="M -34.97500000000002 36.21249999999999 l 10 -10 l 0 -40 l -9.55 9.55 l -20.65 -29.4 l -7.5 7.5 l 21.6 30.85 l 6.1 -6.1 l 0 37.6 z"></path><g><path d="M -34.97500000000002 36.21249999999999 l 0 -0.1 l 0.05 0 l 9.95 -9.9 l 0 -5 q -5 5.75 -10 5 l 0 7.55 l -12.4 12.45 l 22.4 0 l 17.5 -17.5 l -1.2 -1.2 l -8.6 8.6 l -17.6 0 l -0.1 0.1 z"></path></g><path d="M -25.07499999999999 -43.6375 l 10 -10 l -30 0 l -10 10 l 30 0 z"></path><path d="M -42.57499999999999 63.71249999999999 l 7.5 7.5 l 7.5 -7.5 l -7.5 -7.5 l -7.5 7.5 z"></path></g><g><path d="M 26.32499999999999 -33.712500000000006 l -7.5 7.5 57.5 62.5 7.5 -7.5 -57.5 -62.5 z"></path><path d="M 26.32499999999999 -27.712500000000006 q 0.8 -1 0 -6 l -6.3 6.3 l 0 -19.95 l -17.5 17.5 l 1.2 1.2 l 6.3 -6.3 l 0 20.05 l 10 -10.1 q 4.2 0.65 6.3 -2.7 z"></path><path d="M 73.72499999999997 26.287499999999994 q -1.655 2.716 2.6 10 l 15 0 l 10 -10 l -20 0 q -7.015 -2.931 -7.6 0 z"></path><path d="M 37.57499999999999 -63.712500000000006 l 20 20 l 7.5 -7.5 l -20 -20 l -7.5 7.5 z"></path></g><g><path d="M 126.375 -23.712500000000006 l 34.95 0 l 10 -10 l -50 0 l -10 10 l 25 25 l 0 35 l 10 -10 l 0 -30.05 l -19.95 -19.95 z"></path><g><path d="M 146.325 43.887499999999996 l 0 -17.6 q -7.3 -5 -10 10 l 0 20 l 17.5 -17.5 l -1.2 -1.2 l -6.3 6.3 z"></path></g></g><g><path d="M 191.325 -33.712500000000006 l -10 10 l 0 60 l 10 -10 l 0 -60 z"></path><g><path d="M 191.375 -31.41250000000001 l 15 0 l 10 -10 l -17.4 0 l -17.65 17.7 l 0 7.3 q 5.4 -4.35 10 -2.75 l 0 -12.25 z"></path></g></g><g><path d="M 236.27500000000003 -33.737500000000004 l -9.9 9.95 l 47.35 58.35 l 0.05 0 l 1.4 1.75 l 7.5 -7.5 l -42.7 -52.55 l 52.05 0 l 10 -10 l -65.75 0 z"></path><g><path d="M 282.675 28.812500000000007 q -6.8 0.5 -7.5 7.5 l 15 15 l 15 -15 l -1.2 -1.2 l -7.5 7.5 l -13.8 -13.8 z"></path></g><path d="M 275.77500000000003 -43.737500000000004 l 10 -10 l -30 0 l -10 10 l 30 0 z"></path></g></g></g>
</svg>
