<svg xmlns="http://www.w3.org/2000/svg" viewBox="0 0 178.85 115.025" width="178.85" height="115.025" fill="currentColor" stroke="none">
<g transform="translate(89.425 57.5125)"><g><g><path d="M -56.875000000000014 -57.487500000000004 l -7.5 7.5 57.5 62.5 7.5 -7.5 -57.5 -62.5 z"></path><path d="M -64.37500000000001 -49.987500000000004 l -15.05 0 l -10 10 l 17.45 0 l 8.75 -8.8 q 6.9 0.2 3.8 -6.15 l -4.95 4.95 z"></path><path d="M -6.875000000000014 12.512499999999996 l 7.5 -7.5 q -11.45 -4.9 -8.7 6.3 l -8.8 8.9 l 0 17.35 l 10 -10 l 0 -15.05 z"></path><path d="M -34.375000000000014 22.512499999999996 l -10 10 l 0 25 l 10 -10 l 0 -25 z"></path></g><g><path d="M 20.52499999999999 -57.5125 l -9.9 9.95 l 47.35 58.35 l 0.05 0 l 1.4 1.75 l 7.5 -7.5 l -42.7 -52.55 l 52.05 0 l 10 -10 l -65.75 0 z"></path><g><path d="M 66.92500000000001 5.0375000000000085 q -6.8 0.5 -7.5 7.5 l 15 15 l 15 -15 l -1.2 -1.2 l -7.5 7.5 l -13.8 -13.8 z"></path></g></g></g></g>
</svg>
