<svg xmlns="http://www.w3.org/2000/svg" viewBox="0 0 55.7 172.294907" width="55.7" height="172.294907" fill="currentColor" stroke="none">
<g transform="translate(27.85 86.147453)"><g><g><path d="M -17.85 -26.85 l -10 10 l 0 60 l 10 -10 l 0 -50 l 30 0 l 10 -10 l -40 0 z"></path><g><path d="M 19.65 -26.85 l -7.65 0 q 2.55 4.45 -5 10 l 5 0 l 15.85 -15.9 l -11.8 -11.7 l 7.5 -7.5 l -1.2 -1.2 l -14.5 14.5 l 11.8 11.8 z"></path></g><g><path d="M 2.1499999999999986 43.15 l -15 0 l 10 -10 l -15 0 l 0 -10 q -3.85 7.75 -10 5 l 0 15 l 12.55 0 l -9.95 10 l 17.4 0 l 10 -10 z"></path></g></g></g></g>
</svg>
