<svg xmlns="http://www.w3.org/2000/svg" viewBox="0 0 252.5 140" width="252.5" height="140" fill="currentColor" stroke="none">
<g transform="translate(126.25 70)"><g><g><path d="M -111.25 -45 l -7.5 7.5 57.5 62.5 7.5 -7.5 -57.5 -62.5 z"></path><path d="M -96.25 25 l 10 -10 l -30 0 l -10 10 l 30 0 z"></path><path d="M -76.25 -55 l 10 -10 l -30 0 l -10 10 l 30 0 z"></path></g><g><path d="M -33.75 -45 l -10 10 l 0 60 l 10 -10 l 0 -50 l 30 0 l 10 -10 l -40 0 z"></path></g><g><path d="M 58.75 25 l 7.5 -7.5 l -31.25 -31.25 l 31.25 -31.25 l -40 0 l -10 10 l 37.6 0 l -27.5 27.6 l 32.4 32.4 z"></path><path d="M 33.75 -62.5 l 7.5 7.5 l 7.5 -7.5 l -7.5 -7.5 l -7.5 7.5 z"></path><path d="M 33.75 42.5 l 7.5 7.5 l 7.5 -7.5 l -7.5 -7.5 l -7.5 7.5 z"></path></g><g><path d="M 116.25 25 l 10 -10 l 0 -60 l -10 10 l 0 50 l -30 0 l -10 10 l 40 0 z"></path><path d="M 91.25 45 l 0 25 l 20 -20 l -1.2 -1.2 l -8.8 8.8 l 0 -22.6 l -10 10 z"></path></g></g></g>
</svg>
