<svg xmlns="http://www.w3.org/2000/svg" viewBox="0 0 536.95 115.025" width="536.95" height="115.025" fill="currentColor" stroke="none">
<g transform="translate(268.475 57.5125)"><g><g><path d="M -232.22500000000008 2.5124999999999957 l 7.5 -7.5 -32.5 -32.5 -7.5 7.5 32.5 32.5 m -17.5 -10 l -7.5 7.5 32.5 32.5 7.5 -7.5 -32.5 -32.5 z"></path><path d="M -238.47500000000008 52.512499999999996 l 10 -10 l -30 0 l -10 10 l 30 0 z"></path></g><g><path d="M -141.5750000000001 -27.412500000000005 l 10 -10 l -65.75 0 l -9.9 9.95 l 30.45 37.55 l 7.25 -7.3 l 24.15 29.65 l 7.45 -7.4 l -25.2 -31.05 l -7.5 7.45 l -23.1 -28.85 l 52.15 0 z"></path><g><path d="M -151.47500000000008 -19.9125 l 1.2 1.2 l 18.7 -18.7 l -10 0 q 0.85 5.4 -10 10 l 7.6 0 l -7.5 7.5 z"></path></g><g><path d="M -142.7750000000001 42.43749999999999 l 17.4 0 l 10 -10 l -15 0 l 10 -10 l -20 0 q -7 -2.95 -7.6 0 q -1.65 2.7 2.6 10 l 12.55 0 l -9.95 10 z"></path></g></g><g><path d="M -95.37500000000009 -37.487500000000004 l -10 10 l 0 60 l 40 0 l 10 -10 l -40 0 l 0 -60 z"></path><path d="M -70.37500000000009 52.512499999999996 l 10 -10 l -30 0 l -10 10 l 30 0 z"></path></g><g><path d="M -1.6250000000000568 -47.487500000000004 l -7.5 7.5 l 12.5 12.5 l -25 0 l -17.5 17.5 l 1.2 1.2 l 8.7 -8.7 l 37.6 0 l 10 -10 l -20 -20 z"></path><path d="M -35.375000000000085 -7.487500000000004 l -10 10 l 50 0 l 10 -10 l -50 0 z"></path></g><g><path d="M 46.574999999999875 -37.487500000000004 l -10 10 l 0 60 l 10 -10 l 0 -60 z"></path><g><path d="M 48.374999999999886 44.31249999999999 l -11.8 -11.8 l 10 -10 l 0 -5 q -5.188 7.964 -10 5 l 0 7.7 l -8.2 8.2 l 13 12.9 l 7 -7 z"></path></g></g><g><path d="M 68.27499999999986 -37.5125 l -9.9 9.95 l 47.35 58.35 l 0.05 0 l 1.4 1.75 l 7.5 -7.5 l -42.7 -52.55 l 52.05 0 l 10 -10 l -65.75 0 z"></path><path d="M 106.19999999999987 -47.5125 l 10 -10 l -30 0 l -10 10 l 30 0 z"></path></g><g><path d="M 191.52499999999992 32.512499999999996 l 7.5 -7.5 -26.9 -26.9 7.45 -7.55 -28.05 -28.05 -7.5 7.5 26.9 26.9 -7.5 7.5 28.1 28.1 z"></path><path d="M 156.52499999999992 50.012499999999996 l 7.5 7.5 l 7.5 -7.5 l -7.5 -7.5 l -7.5 7.5 z"></path></g><g><path d="M 268.425 -37.487500000000004 l -50 0 l -9.4 9.4 l 23.2 33.05 l 6.2 -6.25 l 0 33.8 l 10 -10 l 0 -36.15 l -1.1 1.1 q -2.967 2.977 -5.95 5.95 l -1.95 2 l -0.65 0.65 l -16.5 -23.5 l 36.2 0 l 10 -10 z"></path><g><path d="M 248.425 40.1125 l 0 -17.6 q -7.3 -5 -10 10 l 0 20 l 17.5 -17.5 l -1.2 -1.2 l -6.3 6.3 z"></path></g></g></g></g>
</svg>
