<svg xmlns="http://www.w3.org/2000/svg" viewBox="0 0 67.5 172.294907" width="67.5" height="172.294907" fill="currentColor" stroke="none">
<g transform="translate(33.75 86.147453)"><g><g><path d="M -18.700000000000003 -13.575000000000003 l 34.95 0 l 10 -10 l -50 0 l -10 10 l 25 25 l 0 35 l 10 -10 l 0 -30.05 l -19.95 -19.95 z"></path><g><path d="M 6.25 -13.575000000000003 l 10 0 l 17.5 -17.5 l -1.2 -1.2 l -8.7 8.7 l -7.6 0 q 0.83 5.4 -10 10 z"></path></g><g><path d="M 1.25 36.425 l 0 -5 q -6.25 9 -10 5 l 0 7.6 l -11.8 -11.7 l -7 7 l 12.95 12.95 l 15.85 -15.85 z"></path></g><path d="M 10 -42.275000000000006 l 10 -10 l -30 0 l -10 10 l 30 0 z"></path></g></g></g>
</svg>
