<svg xmlns="http://www.w3.org/2000/svg" viewBox="0 0 40 172.294907" width="40" height="172.294907" fill="currentColor" stroke="none">
<g transform="translate(20 86.147453)"><g><g><path d="M -8.75 -38.75 l -10 10 l 0 30 l 30 30 l 7.5 -7.5 l -27.5 -27.5 l 0 -35 z"></path><g><path d="M -8.75 -58.75 l -10 10 l 0 20 q 7.3 5 10 -10 l 0 -20 z"></path></g><g><path d="M 15.700000000000003 24.85 q -1.825 3.28 -4.45 6.4 l -7.5 7.5 l -1.2 -1.2 l 7.5 -7.5 q -1.688 -4.106 -0.35 -4.55 q 1.45 -0.6 6 -0.65 z"></path></g><path d="M 10 58.75 l 10 -10 l -30 0 l -10 10 l 30 0 z"></path></g></g></g>
</svg>
