<svg xmlns="http://www.w3.org/2000/svg" viewBox="0 0 92.55 172.294907" width="92.55" height="172.294907" fill="currentColor" stroke="none">
<g transform="translate(46.275 86.147453)"><g><g><path d="M 26.27499999999999 26.25 l 7.5 -7.5 -26.9 -26.9 7.45 -7.55 -28.05 -28.05 -7.5 7.5 26.9 26.9 -7.5 7.5 28.1 28.1 z"></path><path d="M -21.22500000000001 -36.25 l -15.05 0 l -10 10 l 17.45 0 l 8.75 -8.8 q 6.9 0.2 3.8 -6.15 l -4.95 4.95 z"></path><path d="M 30.724999999999994 19.85 q -1.825 3.28 -4.45 6.4 l -7.5 7.5 l -1.2 -1.2 l 7.5 -7.5 q -1.688 -4.106 -0.35 -4.55 q 1.45 -0.6 6 -0.65 z"></path><path d="M -16.22500000000001 8.75 l -10 10 l 0 25 l 10 -10 l 0 -25 z"></path><path d="M 33.875 -33.75 l -8.8 8.8 l 1.2 1.2 l 20 -20 l -30 0 l -10 10 l 27.6 0 z"></path></g></g></g>
</svg>
