<svg xmlns="http://www.w3.org/2000/svg" viewBox="0 0 82.15 172.294907" width="82.15" height="172.294907" fill="currentColor" stroke="none">
<g transform="translate(41.075 86.160475)"><g><g><path d="M -9.875 -35.1333378334925 l -10 10 l 0 35 l 19.95 0 l -24.95 25 l 40 0 l 10 -10 l -37.6 0 l 24.85 -25 l -22.25 0 l 0 -35 z"></path><g><path d="M -9.875 -19.4833378334925 l 0 -15.65 l -10 10 q -9.4 -17.75 -21.2 -6.85 q 12.25 -2.15 14.85 15.5 l 6.35 -6.3 l 0 8.1 q 4.8 -9.5 10 -4.8 z"></path></g><g><path d="M 10.575000000000003 34.8666621665075 l 4.55 0 l 8.8 -8.8 l 10 10 l 7.15 -7.15 l -11.3 -11.2 l -7.05 7.15 l -6.3 0 q 3.7 5 -5.85 10 z"></path></g></g></g></g>
</svg>
