<svg xmlns="http://www.w3.org/2000/svg" viewBox="0 0 270.05 113.8" width="270.05" height="113.8" fill="currentColor" stroke="none">
<g transform="translate(135.025 56.9)"><g><g><path d="M -125.025 -31.900000000000006 l -10 10 l 0 60 l 10 -10 l 0 -60 z"></path></g><g><path d="M -65.025 -21.900000000000006 l 10 -10 l -50 0 l -10 10 l 0 30 l 30 0 l 0 30 l 10 -10 l 0 -30 l -30 0 l 0 -20 l 40 0 z"></path><path d="M -75.025 -41.900000000000006 l 10 -10 l -30 0 l -10 10 l 30 0 z"></path></g><g><path d="M -12.474999999999994 -31.900000000000006 l -7.5 7.5 57.5 62.5 7.5 -7.5 -57.5 -62.5 z"></path><path d="M -19.974999999999994 -24.400000000000006 l -15.05 0 l -10 10 l 17.45 0 l 8.75 -8.8 q 6.9 0.2 3.8 -6.15 l -4.95 4.95 z"></path></g><g><path d="M 95.025 38.099999999999994 l 10 -10 l 0 -36.3 l -10 10.05 l 0 -33.75 l -10 10 l 0 36.15 l 10 -10 l 0 23.85 l -30 0 l -10 10 l 40 0 z"></path><path d="M 72.525 -49.400000000000006 l 7.5 7.5 l 7.5 -7.5 l -7.5 -7.5 l -7.5 7.5 z"></path></g><g><path d="M 133.225 -31.900000000000006 l -10 10 l 0 60 l 10 -10 l 0 -60 z"></path><g><path d="M 135.025 49.89999999999999 l -11.8 -11.8 l 10 -10 l 0 -5 q -5.188 7.964 -10 5 l 0 7.7 l -8.2 8.2 l 13 12.9 l 7 -7 z"></path></g></g></g></g>
</svg>
