<svg xmlns="http://www.w3.org/2000/svg" viewBox="0 0 118.05 99.925" width="118.05" height="99.925" fill="currentColor" stroke="none">
<g transform="translate(59.025 49.9625)"><g><g><path d="M -36.62499999999999 -30.0375 l -10 10 l 0 60 l 10 -10 l 0 -60 z"></path><g><path d="M -59.02499999999999 49.9625 l 22.4 0 l 10 -10.1 l -19.9 0 l -0.1 0.1 l 0 -0.1 l 0.05 0 l 9.95 -9.9 l 0 -5 q -5 5.774 -10 5 l 0 7.55 l -12.4 12.4 z"></path></g></g><g><path d="M 49.02499999999999 -19.962500000000002 l 10 -10 l -65.75 0 l -9.9 9.95 l 30.45 37.55 l 7.25 -7.3 l 24.15 29.65 l 7.45 -7.4 l -25.2 -31.05 l -7.5 7.45 l -23.1 -28.85 l 52.15 0 z"></path><path d="M 31.200000000000003 -39.9625 l 10 -10 l -30 0 l -10 10 l 30 0 z"></path></g></g></g>
</svg>
