<svg xmlns="http://www.w3.org/2000/svg" viewBox="0 0 202.4 129.7" width="202.4" height="129.7" fill="currentColor" stroke="none">
<g transform="translate(101.2 64.85)"><g><g><path d="M -73.2 -6.749999999999995 l 7.45 -7.5 27.05 34.4 7.5 -7.5 -27.8 -36 -7.75 7.8 -26.95 -34.3 -7.5 7.5 28 35.6 z"></path></g><g><path d="M 18.799999999999997 -49.849999999999994 l -10 10 l 0 20 l -20 0 l -10 10 l 0 30 l 30 0 l 10 -10 l -30 0 l 0 -20 l 20 0 l 10 -10 l 0 -30 z"></path><g><path d="M 31.200000000000003 -59.849999999999994 l -22.4 0 l -10 10.1 l 19.9 0 l 0.1 -0.1 l 0 0.1 l -0.05 0 l -9.95 9.9 l 0 5 q 5 -5.774 10 -5 l 0 -7.55 l 12.4 -12.4 z"></path></g><g><path d="M 8.799999999999997 20.150000000000006 l 0 14.9 l 10 -10.1 l 0 14.9 l 9.9 -9.9 l 0 -17.4 l -9.9 9.9 l 0 -12.3 l -15 0 q 2.75 6.15 -5 10 l 10 0 z"></path></g><path d="M -2.5 57.349999999999994 l 7.5 7.5 l 7.5 -7.5 l -7.5 -7.5 l -7.5 7.5 z"></path></g><g><path d="M 52.825 -48.64999999999999 l 7.35 -7.35 l 20.6 26.15 l 10 0 l 10 -10 l -14.55 0 l -19.6 -25 l -15 15 l 1.2 1.2 z"></path><path d="M 51.2 -19.849999999999994 l -10 10 l 50 0 l 10 -10 l -50 0 z"></path></g></g></g>
</svg>
