<svg xmlns="http://www.w3.org/2000/svg" viewBox="0 0 105.05 172.294907" width="105.05" height="172.294907" fill="currentColor" stroke="none">
<g transform="translate(52.525 86.147453)"><g><g><path d="M -9.974999999999994 -43.2 l -10 10 l 0 60 l 10 -10 l 0 -50 l 30 0 l 10 -10 l -40 0 z"></path><g><path d="M 52.525000000000006 -35.7 l -1.2 -1.2 l -7.5 7.5 l -13.8 -13.8 q -8.65 2.75 -10 10 l 5 0 l 12.5 12.5 l 15 -15 z"></path></g><g><path d="M -9.974999999999994 16.799999999999997 l 0 -7.3 q -4.546 5.888 -10 3.05 l 0 11.95 l -15.05 0 l -17.5 17.5 l 1.2 1.2 l 8.7 -8.7 l 15 0 l 17.65 -17.7 z"></path></g></g></g></g>
</svg>
