<svg xmlns="http://www.w3.org/2000/svg" viewBox="0 0 95.3 172.294907" width="95.3" height="172.294907" fill="currentColor" stroke="none">
<g transform="translate(47.65 86.147453)"><g><g><path d="M -27.349999999999987 -20.6 l -7.5 7.5 57.5 62.5 7.5 -7.5 -57.5 -62.5 z"></path><path d="M -26.44999999999999 -19 l 11.2 -11.3 l -22.4 0 l -10 10.1 l 19.9 0 l -7.1 7.1 q 10.446 1.157 8.4 -5.9 z"></path><path d="M 20.050000000000004 39.4 q -1.65 2.7 2.6 10 l 12.6 0 l -7.5 7.5 l 1.2 1.2 l 18.7 -18.7 l -20 0 q -7 -2.95 -7.6 0 z"></path><path d="M -16.099999999999987 -50.6 l 20 20 l 7.5 -7.5 l -20 -20 l -7.5 7.5 z"></path></g></g></g>
</svg>
