<svg xmlns="http://www.w3.org/2000/svg" viewBox="0 0 58.14898 108.85" width="58.14898" height="108.85" fill="currentColor" stroke="none">
<g transform="translate(29.07449 54.425)"><g><g fill="currentColor"><path d="M -21.574489795918367 -45.574999999999996 l -7.5 7.5 l 31.25 31.25 l -31.25 31.25 l 40 0 l 10 -10 l -37.6 0 l 27.5 -27.6 l -32.4 -32.4 z"></path><g><path d="M -20.42448979591837 -44.425 l 15.05 0 l 10 -10 l -17.45 0 l -8.75 8.85 q -1.75 3.2 -4.85 7.2 q 5.7 0.35 6 -6.05 z"></path></g><g><path d="M 18.625510204081635 34.425000000000004 q 16 -9.8 7.5 -27.5 l -7.55 7.5 l -11.1 0 q 3.05 5.25 -1.5 10 l 5 0 l 8.8 -8.85 q 6.15 7.15 -1.15 18.85 z"></path></g><path d="M 9.997731315056633 54.425000000000004 l 10 -10 l -30 0 l -10 10 l 30 0 z"></path></g></g></g>
</svg>
