<svg xmlns="http://www.w3.org/2000/svg" viewBox="0 0 490.7 139.95" width="490.7" height="139.95" fill="currentColor" stroke="none">
<g transform="translate(245.35 69.975)"><g><g><path d="M -237.85000000000002 -45 l -7.5 7.5 57.5 62.5 7.5 -7.5 -57.5 -62.5 z"></path></g><g><path d="M -110.35000000000002 -45.05 l -50 0 l -10 10 l 0 27 l 33.1 33.1 l 7.5 -7.5 l -30.6 -30.6 l 0 -22 l 40 0 l 10 -10 z"></path><g><path d="M -110.35000000000002 -45.05 l -15 0 q 2.75 6.15 -5 10 l 10 0 l 0 12.6 l -7.5 7.5 l 1.2 1.2 l 16.3 -16.3 l 0 -15 z"></path></g><g><path d="M -138.40000000000003 23.849999999999994 l -7.5 7.55 q 17.7 8.5 27.5 -7.5 q -11.7 7.3 -18.85 1.15 l 3.7 -3.65 q -1.81 -1.308 -4.55 -2.1 q -1.8 -0.5 -0.3 4.55 z"></path></g><path d="M -130.35000000000002 54.348979591836724 l 10 -10 l -30 0 l -10 10 l 30 0 z"></path></g><g><path d="M -90.35000000000002 -45 l -10 10 l 0 60 l 10 -10 l 0 -50 l 30 0 l 10 -10 l -40 0 z"></path><path d="M -82.85000000000002 42.5 l 7.5 7.5 l 7.5 -7.5 l -7.5 -7.5 l -7.5 7.5 z"></path></g><g><path d="M -34.10000000000002 -35 q 24.3 9.1 15 21.3 l 1.25 1.15 q 15.85 -14.1 3.75 -22.45 l 20 0 l 17.5 -17.5 l -1.2 -1.2 l -8.7 8.7 l -37.6 0 l -10 10 z"></path><path d="M -30.350000000000023 -15 l -10 10 l 50 0 l 10 -10 l -50 0 z"></path></g><g><path d="M 68.89999999999998 -1.9000000000000004 l 7.45 -7.5 27.05 34.4 7.5 -7.5 -27.8 -36 -7.75 7.8 -26.95 -34.3 -7.5 7.5 28 35.6 z"></path><path d="M 47.299999999999955 -41.95 q -3.28 1.825 -6.4 4.45 l -7.5 7.5 l 1.2 1.2 l 7.5 -7.5 q 4.106 1.688 4.55 0.35 q 0.6 -1.45 0.65 -6 z"></path><path d="M 107.84999999999997 18.6 q -1.825 3.28 -4.45 6.4 l -7.5 7.5 l -1.2 -1.2 l 7.5 -7.5 q -1.688 -4.106 -0.35 -4.55 q 1.45 -0.6 6 -0.65 z"></path><path d="M 85.89999999999998 -55 l 10 -10 l -30 0 l -10 10 l 30 0 z"></path></g><g><path d="M 180.3 -45 l -50 0 l -9.4 9.4 l 23.2 33.05 l 6.2 -6.25 l 0 33.8 l 10 -10 l 0 -36.15 l -1.1 1.1 q -2.967 2.977 -5.95 5.95 l -1.95 2 l -0.65 0.65 l -16.5 -23.5 l 36.2 0 l 10 -10 z"></path><path d="M 143.02499999999998 45 l 8.8 -8.8 l -1.2 -1.2 l -20 20 l 30 0 l 10 -10 l -27.6 0 z"></path></g><g><path d="M 190.35000000000002 24.975 l 10 -10 l 0 -20 l 35 0 l 10 -10 l -29.95 -29.95 l -7.5 7.5 l 22.45 22.45 l -30 0 l -10 10 l 0 30 z"></path><g><path d="M 190.35000000000002 9.975000000000009 l 0 15 l 15 0 l 10 -10 l -15 0 l 0 -10 q -3.874 7.753 -10 5 z"></path></g><path d="M 210.35000000000002 -62.474999999999994 l 7.5 7.5 l 7.5 -7.5 l -7.5 -7.5 l -7.5 7.5 z"></path><path d="M 207.85000000000002 44.97500000000001 l 0 25 l 20 -20 l -1.2 -1.2 l -8.8 8.8 l 0 -22.6 l -10 10 z"></path></g></g></g>
</svg>
