<svg xmlns="http://www.w3.org/2000/svg" viewBox="0 0 476.1 163.425" width="476.1" height="163.425" fill="currentColor" stroke="none">
<g transform="translate(238.05 81.7125)"><g><g><path d="M -228.05000000000004 -42.91249999999998 l -10 10 l 0 60 l 10 -10 l 0 -60 z"></path></g><g><path d="M -158.65000000000003 -42.91249999999998 l -50 0 l -9.4 9.4 l 23.2 33.05 l 6.2 -6.25 l 0 33.8 l 10 -10 l 0 -36.15 l -1.1 1.1 q -2.967 2.977 -5.95 5.95 l -1.95 2 l -0.65 0.65 l -16.5 -23.5 l 36.2 0 l 10 -10 z"></path><g><path d="M -188.65000000000003 47.08750000000002 l 10 -10 l 0 -20 q -7.3 -5 -10 10 l 0 20 z"></path></g><path d="M -178.32500000000005 -52.91249999999998 l 10 -10 l -30 0 l -10 10 l 30 0 z"></path></g><g><path d="M -132.30000000000004 -42.91249999999998 l -7.5 7.5 57.5 62.5 7.5 -7.5 -57.5 -62.5 z"></path><path d="M -138.60000000000002 -34.21249999999998 q 6.486 1.216 4.75 -5 q -2.924 3.894 -5.95 3.8 l -8.8 8.8 l 0 15 l 10 -10 l 0 -12.6 z"></path><path d="M -77.85000000000005 20.68750000000002 q -1.825 3.28 -4.45 6.4 l -7.5 7.5 l -1.2 -1.2 l 7.5 -7.5 q -1.688 -4.106 -0.35 -4.55 q 1.45 -0.6 6 -0.65 z"></path><path d="M -97.30000000000004 -52.91249999999998 l 10 -10 l -30 0 l -10 10 l 30 0 z"></path></g><g><path d="M 0.8499999999999375 -32.83749999999998 l 10 -10 l -65.75 0 l -9.9 9.95 l 30.45 37.55 l 7.25 -7.3 l 24.15 29.65 l 7.45 -7.4 l -25.2 -31.05 l -7.5 7.45 l -23.1 -28.85 l 52.15 0 z"></path><g><path d="M 4.5499999999999545 19.512500000000017 q -6.8 0.5 -7.5 7.5 l 15 15 l 15 -15 l -1.2 -1.2 l -7.5 7.5 l -13.8 -13.8 z"></path></g><path d="M -26.375000000000057 -60.33749999999998 l 7.5 7.5 l 7.5 -7.5 l -7.5 -7.5 l -7.5 7.5 z"></path><path d="M -11.275000000000063 62.01250000000002 l -8.8 8.8 l 1.2 1.2 l 20 -20 l -30 0 l -10 10 l 27.6 0 z"></path></g><g><path d="M 47.04999999999998 -42.83749999999998 l -10 10 l 0 40 l 9.55 -9.55 l 20.65 29.4 l 7.5 -7.5 l -21.6 -30.85 l -6.1 6.1 l 0 -37.6 z"></path><g><path d="M 85.25000000000003 26.61250000000001 l -17.6 0 l 7.1 -7.1 q -10.45 -1.15 -8.4 5.9 l -11.2 11.3 l 22.4 0 l 17.5 -17.5 l -1.2 -1.2 l -8.6 8.6 z"></path></g><path d="M 76.04999999999998 71.71249999999999 l 0 -25 l -20 20 l 1.2 1.2 l 8.8 -8.8 l 0 22.6 l 10 -10 z"></path></g><g><path d="M 125.05000000000004 -42.91249999999998 l -10 10 l 0 60 l 10 -10 l 0 -60 z"></path><g><path d="M 125.05000000000004 -27.91249999999998 l 0 -15 l -10 10 l 0 -20 l -10 9.9 l 0 22.4 l 10 -9.95 l 0 5.15 q 5 -6.1 10 -2.5 z"></path></g></g><g><path d="M 146.85000000000005 -42.91249999999998 l -7.5 7.5 l 31.25 31.25 l -31.25 31.25 l 40 0 l 10 -10 l -37.6 0 l 27.5 -27.6 l -32.4 -32.4 z"></path><g><path d="M 135.05000000000004 -54.71249999999998 l 11.8 11.8 l -5 5 q 7.681 1.687 7.1 -0.5 l -0.95 -3.35 l 7.05 -7.05 l -13 -12.9 z"></path></g><g><path d="M 166.95000000000007 37.08750000000002 l 22.4 0 l 9.9 -10 l -19.9 0 l 10 -10 l -12.65 0 q 5.504 3.447 -5.3 10 l 5.5 0 l -9.95 10 z"></path></g><path d="M 177.15000000000006 -71.71249999999998 l 10 -10 l -30 0 l -10 10 l 30 0 z"></path></g><g><path d="M 229.25000000000003 -19.06249999999998 l -10 10 l 0 -33.85 l -10 10 l 0 36.2 l 10 -9.95 l 0 33.75 l 10 -10 l 0 -36.15 z"></path><g><path d="M 209.25000000000003 -32.91249999999998 l 0 5 q 6.25 -9 10 -5 l 0 -7.6 l 11.8 11.7 l 7 -7 l -12.95 -12.95 l -15.85 15.85 z"></path></g><g><path d="M 229.25000000000003 5.887500000000021 q -5 12.14 -10 11.2 l 0 10 l 17.5 -17.5 l -1.2 -1.2 l -6.3 6.3 l 0 -8.8 z"></path></g></g></g></g>
</svg>
