<svg xmlns="http://www.w3.org/2000/svg" viewBox="0 0 80 172.294907" width="80" height="172.294907" fill="currentColor" stroke="none">
<g transform="translate(40 86.147453)"><g><g><path d="M -7 3.6750000000000025 l 7.45 -7.5 27.05 34.4 7.5 -7.5 -27.8 -36 -7.75 7.8 -26.95 -34.3 -7.5 7.5 28 35.6 z"></path><path d="M 26.349999999999994 29.425000000000004 l -15.05 0 l -10 10 l 17.45 0 l 8.75 -8.85 q 1.75 -3.2 4.85 -7.2 q -5.7 -0.35 -6 6.05 z"></path><path d="M -10 30.575000000000003 l 10 -10 l -30 0 l -10 10 l 30 0 z"></path><path d="M 27.599999999999994 -29.424999999999997 l -8.8 8.8 l 1.2 1.2 l 20 -20 l -30 0 l -10 10 l 27.6 0 z"></path></g></g></g>
</svg>
