<svg xmlns="http://www.w3.org/2000/svg" viewBox="0 0 566.955408 136.35" width="566.955408" height="136.35" fill="currentColor" stroke="none">
<g transform="translate(283.477663 68.175)"><g><g><path d="M -275.97766298928013 -34.325 l -7.5 7.5 57.5 62.5 7.5 -7.5 -57.5 -62.5 z"></path></g><g><path d="M -127.72766298928013 35.699999999999996 l 9.9 -9.95 l -47.35 -58.35 l -0.05 0 l -1.4 -1.75 l -7.5 7.5 l 42.7 52.55 l -52.05 0 l -10 10 l 65.75 0 z"></path><g><path d="M -188.47766298928013 25.700000000000003 l -12.5 -12.5 l -7.5 7.5 l 15 15 q 8.65 -2.75 10 -10 l -5 0 z"></path></g><path d="M -170.65266298928015 -51.85000000000001 l 7.5 7.5 l 7.5 -7.5 l -7.5 -7.5 l -7.5 7.5 z"></path></g><g><path d="M -100.32766298928013 -34.325 l -7.5 7.5 l 31.25 31.25 l -31.25 31.25 l 40 0 l 10 -10 l -37.6 0 l 27.5 -27.6 l -32.4 -32.4 z"></path><g><path d="M -99.17766298928012 -33.175000000000004 l 15.05 0 l 10 -10 l -17.45 0 l -8.75 8.85 q -1.75 3.2 -4.85 7.2 q 5.7 0.35 6 -6.05 z"></path></g><g><path d="M -62.82766298928013 35.675 l 12.5 12.5 l 7.5 -7.5 l -15 -15 q -8.65 2.75 -10 10 l 5 0 z"></path></g><path d="M -82.82766298928013 -60.675000000000004 l 7.5 7.5 l 7.5 -7.5 l -7.5 -7.5 l -7.5 7.5 z"></path><path d="M -65.32766298928013 68.175 l 10 -10 l -30 0 l -10 10 l 30 0 z"></path></g><g><path d="M -12.827662989280157 -10.475000000000003 l -10 10 l 0 -33.85 l -10 10 l 0 36.2 l 10 -9.95 l 0 33.75 l 10 -10 l 0 -36.15 z"></path><g><path d="M -32.82766298928013 -24.325000000000003 l 0 5 q 6.25 -9 10 -5 l 0 -7.6 l 11.8 11.7 l 7 -7 l -12.95 -12.95 l -15.85 15.85 z"></path></g><g><path d="M -12.827662989280157 14.474999999999998 q -5 12.14 -10 11.2 l 0 10 l 17.5 -17.5 l -1.2 -1.2 l -6.3 6.3 l 0 -8.8 z"></path></g></g><g><path d="M 25.97233701071991 -10.475000000000003 l -10 10 l 0 -33.85 l -10 10 l 0 36.2 l 10 -9.95 l 0 33.75 l 10 -10 l 0 -36.15 z"></path><g><path d="M 25.97233701071991 14.474999999999998 q -5 12.14 -10 11.2 l 0 10 l 17.5 -17.5 l -1.2 -1.2 l -6.3 6.3 l 0 -8.8 z"></path></g></g><g><path d="M 61.6723370107199 -34.325 l -10 10 l 0 60 l 10 -10 l 0 -60 z"></path><g><path d="M 63.47233701071991 47.474999999999994 l -11.8 -11.8 l 10 -10 l 0 -5 q -5.188 7.964 -10 5 l 0 7.7 l -8.2 8.2 l 13 12.9 l 7 -7 z"></path></g></g><g><path d="M 106.47233701071991 8.774999999999997 l 7.45 -7.5 27.05 34.4 7.5 -7.5 -27.8 -36 -7.75 7.8 -26.95 -34.3 -7.5 7.5 28 35.6 z"></path><path d="M 139.82233701071993 34.525 l -15.05 0 l -10 10 l 17.45 0 l 8.75 -8.85 q 1.75 -3.2 4.85 -7.2 q -5.7 -0.35 -6 6.05 z"></path><path d="M 103.47233701071991 35.675 l 10 -10 l -30 0 l -10 10 l 30 0 z"></path><path d="M 141.07233701071993 -24.325000000000003 l -8.8 8.8 l 1.2 1.2 l 20 -20 l -30 0 l -10 10 l 27.6 0 z"></path></g><g><path d="M 173.4723370107199 -34.325 l -10 10 l 0 60 l 10 -10 l 0 -50 l 30 0 l 10 -10 l -40 0 z"></path><g><path d="M 193.4723370107199 -34.325 q 6.368 3.408 0 10 l 10 0 l 10 -10 l 0 -15 l -10 10 l 0 5 l -10 0 z"></path></g><g><path d="M 173.4723370107199 43.275 l 0 -17.6 q -7.3 -5 -10 10 l 0 20 l 17.5 -17.5 l -1.2 -1.2 l -6.3 6.3 z"></path></g></g><g><path d="M 273.4723370107199 -24.325000000000003 q 0.1 10.25 -13.15 13.1 l 1.2 1.1 q 22.3 0.55 21.95 -24.2 l -37.6 0 l 7.5 -7.5 l -1.2 -1.2 l -18.7 18.7 l 40 0 z"></path><path d="M 233.4723370107199 -4.325000000000003 l -10 10 l 50 0 l 10 -10 l -50 0 z"></path></g></g></g>
</svg>
