<svg xmlns="http://www.w3.org/2000/svg" viewBox="0 0 85 172.294907" width="85" height="172.294907" fill="currentColor" stroke="none">
<g transform="translate(42.5 86.147453)"><g><g><path d="M 2.5 6.25 l 7.5 -7.5 -32.5 -32.5 -7.5 7.5 32.5 32.5 m -17.5 -10 l -7.5 7.5 32.5 32.5 7.5 -7.5 -32.5 -32.5 z"></path><path d="M 7.399999999999999 26.25 q -1.65 2.7 2.6 10 l 15 0 l 17.5 -17.5 l -1.2 -1.2 l -8.7 8.7 l -17.6 0 q -7 -2.95 -7.6 0 z"></path><path d="M -32.5 18.75 l -10 10 l 0 25 l 10 -10 l 0 -25 z"></path><path d="M 3.75 -43.75 l 10 -10 l -30 0 l -10 10 l 30 0 z"></path></g></g></g>
</svg>
