<svg xmlns="http://www.w3.org/2000/svg" viewBox="0 0 160.95 107.5" width="160.95" height="107.5" fill="currentColor" stroke="none">
<g transform="translate(80.475 53.75)"><g><g><path d="M -35.47500000000001 6.25 l 7.5 -7.5 -32.5 -32.5 -7.5 7.5 32.5 32.5 m -17.5 -10 l -7.5 7.5 32.5 32.5 7.5 -7.5 -32.5 -32.5 z"></path><path d="M -30.57500000000001 26.25 q -1.65 2.7 2.6 10 l 15 0 l 17.5 -17.5 l -1.2 -1.2 l -8.7 8.7 l -17.6 0 q -7 -2.95 -7.6 0 z"></path><path d="M -70.47500000000001 18.75 l -10 10 l 0 25 l 10 -10 l 0 -25 z"></path><path d="M -34.22500000000001 -43.75 l 10 -10 l -30 0 l -10 10 l 30 0 z"></path></g><g><path d="M 22.02499999999999 -33.75 l -7.5 7.5 l 31.25 31.25 l -31.25 31.25 l 40 0 l 10 -10 l -37.6 0 l 27.5 -27.6 l -32.4 -32.4 z"></path><g><path d="M 23.174999999999997 -32.6 l 15.05 0 l 10 -10 l -17.45 0 l -8.75 8.85 q -1.75 3.2 -4.85 7.2 q 5.7 0.35 6 -6.05 z"></path></g><g><path d="M 49.97499999999998 36.25 l 4.55 0 l 8.8 -8.8 l 10 10 l 7.15 -7.15 l -11.3 -11.2 l -7.05 7.15 l -6.3 0 q 3.7 5 -5.85 10 z"></path></g></g></g></g>
</svg>
