<svg xmlns="http://www.w3.org/2000/svg" viewBox="0 0 510.35 109.925" width="510.35" height="109.925" fill="currentColor" stroke="none">
<g transform="translate(255.175 54.9625)"><g><g><path d="M -238.875 -35.0375 l -7.5 7.5 57.5 62.5 7.5 -7.5 -57.5 -62.5 z"></path><path d="M -245.175 -26.337500000000002 q 6.486 1.216 4.75 -5 q -2.924 3.894 -5.95 3.8 l -8.8 8.8 l 0 15 l 10 -10 l 0 -12.6 z"></path><path d="M -184.425 28.5625 q -1.825 3.28 -4.45 6.4 l -7.5 7.5 l -1.2 -1.2 l 7.5 -7.5 q -1.688 -4.106 -0.35 -4.55 q 1.45 -0.6 6 -0.65 z"></path><path d="M -183.875 -25.0375 l 10 -10 l -30 0 l -10 10 l 30 0 z"></path></g><g><path d="M -98.22500000000002 -24.962500000000002 l 10 -10 l -65.75 0 l -9.9 9.95 l 30.45 37.55 l 7.25 -7.3 l 24.15 29.65 l 7.45 -7.4 l -25.2 -31.05 l -7.5 7.45 l -23.1 -28.85 l 52.15 0 z"></path><g><path d="M -94.52500000000003 27.387499999999996 q -6.8 0.5 -7.5 7.5 l 15 15 l 15 -15 l -1.2 -1.2 l -7.5 7.5 l -13.8 -13.8 z"></path></g></g><g><path d="M -52.025000000000034 -35.0375 l -10 10 l 0 60 l 10 -10 l 0 -60 z"></path><g><path d="M -51.97500000000002 -32.737500000000004 l 15 0 l 10 -10 l -17.4 0 l -17.65 17.7 l 0 7.3 q 5.4 -4.35 10 -2.75 l 0 -12.25 z"></path></g></g><g><path d="M -5.8250000000000455 -34.9625 l -10 10 l 0 40 l 9.55 -9.55 l 20.65 29.4 l 7.5 -7.5 l -21.6 -30.85 l -6.1 6.1 l 0 -37.6 z"></path><path d="M 13.024999999999977 -44.962500000000006 l 10 -10 l -30 0 l -10 10 l 30 0 z"></path></g><g><path d="M 40.52499999999998 -35.0375 l -7.5 7.5 57.5 62.5 7.5 -7.5 -57.5 -62.5 z"></path></g><g><path d="M 135.17499999999995 -35.0375 l -10 10 l 0 30 l 17.7 0 l -6.35 6.4 l 23.65 23.6 l 7.45 -7.5 l -22.5 -22.5 l 10.05 -10 l -20 0 l 0 -30 z"></path><g><path d="M 125.52499999999998 -22.9375 q 0.375 -0.363 1.15 -1.15 q 6.261 -1.099 8.5 3.8 l 0 -14.75 l -10 10 l -10 -10 l -7.15 7.15 l 11.3 11.2 l 5.85 -5.9 q 0.04 -0.029 0.35 -0.35 z"></path></g><g><path d="M 157.575 24.9625 q -1.655 2.716 2.6 10 l 15 0 l 10 -10 l -20 0 q -7.015 -2.931 -7.6 0 z"></path></g><path d="M 156.59999999999997 54.9625 l 10 -10 l -30 0 l -10 10 l 30 0 z"></path></g><g><path d="M 227.675 -37.5375 l 12.5 12.5 l -25 0 l -10 10 l 40 0 l 10 -10 l -20 -20 l -7.5 7.5 z"></path><path d="M 205.175 -5.037500000000001 l -10 10 l 50 0 l 10 -10 l -50 0 z"></path></g></g></g>
</svg>
