<svg xmlns="http://www.w3.org/2000/svg" viewBox="0 0 45 172.294907" width="45" height="172.294907" fill="currentColor" stroke="none">
<g transform="translate(22.5 86.147453)"><g><g fill="currentColor"><path d="M -5 -61.925 l -10 10 l 0 30 l 30 30 l 7.5 -7.5 l -27.5 -27.5 l 0 -35 z"></path><g><path d="M -15 -40.724999999999994 q 5 -12.14 10 -11.2 l 0 -10 l -17.5 17.5 l 1.2 1.2 l 6.3 -6.3 l 0 8.8 z"></path></g><g><path d="M 13.850000000000001 6.925000000000004 l -15.05 0 l -10 10 l 17.45 0 l 8.75 -8.85 q 1.75 -3.2 4.85 -7.2 q -5.7 -0.35 -6 6.05 z"></path></g><path d="M -10 36.925 l 0 25 l 20 -20 l -1.2 -1.2 l -8.8 8.8 l 0 -22.6 l -10 10 z"></path></g></g></g>
</svg>
