<svg xmlns="http://www.w3.org/2000/svg" viewBox="0 0 57.7 172.294907" width="57.7" height="172.294907" fill="currentColor" stroke="none">
<g transform="translate(28.85 86.147453)"><g><g fill="currentColor"><path d="M -11.350000000000001 -64.92499999999998 l -10 10 l 0 40 l 9.55 -9.55 l 20.65 29.4 l 7.5 -7.5 l -21.6 -30.85 l -6.1 6.1 l 0 -37.6 z"></path><g><path d="M -21.35 -43.724999999999994 q 5 -12.14 10 -11.2 l 0 -10 l -17.5 17.5 l 1.2 1.2 l 6.3 -6.3 l 0 8.8 z"></path></g><g><path d="M 28.85 -5.075000000000003 l -15 0 q -7 -2.95 -7.6 0 q -1.65 2.7 2.6 10 l 10 0 l 0 15 l 10 -10 l 0 -15 z"></path></g><path d="M -10 39.92499999999999 l 0 25 l 20 -20 l -1.2 -1.2 l -8.8 8.8 l 0 -22.6 l -10 10 z"></path></g></g></g>
</svg>
