<svg xmlns="http://www.w3.org/2000/svg" viewBox="0 0 75 172.294907" width="75" height="172.294907" fill="currentColor" stroke="none">
<g transform="translate(37.5 86.147453)"><g><g><path d="M 17.5 33.15 l 10 -10 l 0 -50 l 10 -10 l -45 0 l -10 10 l 42.6 0 l -7.6 7.6 l 0 42.4 l -30 0 l -10 10 l 40 0 z"></path><g><path d="M -17.5 -26.85 l 15 0 q -2.75 -6.15 5 -10 l -10 0 l 0 -12.6 l 7.5 -7.5 l -1.2 -1.2 l -16.3 16.3 l 0 15 z"></path></g><g><path d="M -17.5 23.15 l -12.5 -12.5 l -7.5 7.5 l 15 15 q 8.65 -2.75 10 -10 l -5 0 z"></path></g><path d="M -7.5 50.650000000000006 l 7.5 7.5 l 7.5 -7.5 l -7.5 -7.5 l -7.5 7.5 z"></path></g></g></g>
</svg>
