<svg xmlns="http://www.w3.org/2000/svg" viewBox="0 0 55 172.294907" width="55" height="172.294907" fill="currentColor" stroke="none">
<g transform="translate(27.5 86.147453)"><g><g><path d="M 27.5 -65.64999999999998 l -10 10 l 0 20 l -35 0 l -10 10 l 29.95 29.95 l 7.5 -7.5 l -22.45 -22.45 l 30 0 l 10 -10 l 0 -30 z"></path><g><path d="M 27.5 -65.64999999999999 l -15 0 l 0 -15 l -10 10 l 0 15 l 15 0 l 0 10 q 3.85 -7.75 10 -5 l 0 -15 z"></path></g><g><path d="M -15.05 34.44999999999999 l 1.2 1.2 l 16.3 -16.3 l 0 -15.05 l 7.5 -7.5 q -11.45 -4.9 -8.7 6.3 l -8.8 8.9 l 0 14.95 l -7.5 7.5 z"></path></g><path d="M -10 55.64999999999999 l 0 25 l 20 -20 l -1.2 -1.2 l -8.8 8.8 l 0 -22.6 l -10 10 z"></path></g></g></g>
</svg>
