<svg xmlns="http://www.w3.org/2000/svg" viewBox="0 0 52.5 172.294907" width="52.5" height="172.294907" fill="currentColor" stroke="none">
<g transform="translate(26.25 86.147453)"><g><g><path d="M -1.25 -46.25 l -10 10 l 0 30 l 30 30 l 7.5 -7.5 l -27.5 -27.5 l 0 -35 z"></path><g><path d="M -1.25 -46.25 l -15 0 l 0 -15 l -10 10 l 0 15 l 15 0 l 0 10 q 3.85 -7.75 10 -5 l 0 -15 z"></path></g><g><path d="M 23.200000000000003 17.35 q -1.825 3.28 -4.45 6.4 l -7.5 7.5 l -1.2 -1.2 l 7.5 -7.5 q -1.688 -4.106 -0.35 -4.55 q 1.45 -0.6 6 -0.65 z"></path></g><path d="M -7.600000000000001 51.25 l 8.8 -8.8 l -1.2 -1.2 l -20 20 l 30 0 l 10 -10 l -27.6 0 z"></path></g></g></g>
</svg>
