<svg xmlns="http://www.w3.org/2000/svg" viewBox="0 0 152.3 106.4" width="152.3" height="106.4" fill="currentColor" stroke="none">
<g transform="translate(76.15 53.2)"><g><g><path d="M -56.15000000000002 -33.2 l -10 10 l 0 60 l 10 -10 l 0 -60 z"></path><g><path d="M -56.15000000000002 -18.200000000000003 l 0 -15 l -10 10 l 0 -20 l -10 9.9 l 0 22.4 l 10 -9.95 l 0 5.15 q 5 -6.1 10 -2.5 z"></path></g></g><g><path d="M -19.00000000000002 -33.2 l -10 10 l 0 35 l 19.95 0 l -24.95 25 l 40 0 l 10 -10 l -37.6 0 l 24.85 -25 l -22.25 0 l 0 -35 z"></path><g><path d="M -28.65000000000002 -21.1 q 0.375 -0.363 1.15 -1.15 q 6.261 -1.099 8.5 3.8 l 0 -14.75 l -10 10 l -10 -10 l -7.15 7.15 l 11.3 11.2 l 5.85 -5.9 q 0.04 -0.029 0.35 -0.35 z"></path></g><g><path d="M 8.34999999999998 26.799999999999997 q 0.465 4.718 -7.9 10 l 5.55 0 l 17.6 -17.6 l 0 -15 l -10 10 l 0 12.6 l -5.25 0 z"></path></g><path d="M -1.27500000000002 -43.2 l 10 -10 l -30 0 l -10 10 l 30 0 z"></path></g><g><path d="M 76.14999999999999 -9.350000000000003 l -10 10 l 0 -33.85 l -10 10 l 0 36.2 l 10 -9.95 l 0 33.75 l 10 -10 l 0 -36.15 z"></path><g><path d="M 76.14999999999999 26.799999999999997 l 0 -7.3 q -4.546 5.888 -10 3.05 l 0 11.95 l -15.05 0 l -17.5 17.5 l 1.2 1.2 l 8.7 -8.7 l 15 0 l 17.65 -17.7 z"></path></g></g></g></g>
</svg>
