<svg xmlns="http://www.w3.org/2000/svg" viewBox="0 0 32.4 172.294907" width="32.4" height="172.294907" fill="currentColor" stroke="none">
<g transform="translate(16.2 86.147453)"><g><g><path d="M 6.200000000000003 -30.6 l -10 10 l 0 60 l 10 -10 l 0 -60 z"></path><g><path d="M -5.599999999999998 -42.4 l 11.8 11.8 l -10 10 l 0 5 q 5.188 -7.964 10 -5 l 0 -7.7 l 8.2 -8.2 l -13 -12.9 l -7 7 z"></path></g><g><path d="M -16.199999999999996 49.4 l 22.4 0 l 10 -10.1 l -19.9 0 l -0.1 0.1 l 0 -0.1 l 0.05 0 l 9.95 -9.9 l 0 -5 q -5 5.774 -10 5 l 0 7.55 l -12.4 12.4 z"></path></g></g></g></g>
</svg>
