<svg xmlns="http://www.w3.org/2000/svg" viewBox="0 0 550.8 135" width="550.8" height="135" fill="currentColor" stroke="none">
<g transform="translate(275.4 67.5)"><g><g><path d="M -242.84999999999997 -47.5 l -7.5 7.5 57.5 62.5 7.5 -7.5 -57.5 -62.5 z"></path><path d="M -250.34999999999997 -40 l -15.05 0 l -10 10 l 17.45 0 l 8.75 -8.8 q 6.9 0.2 3.8 -6.15 l -4.95 4.95 z"></path><path d="M -192.84999999999997 22.5 l 7.5 -7.5 q -11.45 -4.9 -8.7 6.3 l -8.8 8.9 l 0 17.35 l 10 -10 l 0 -15.05 z"></path><path d="M -220.34999999999997 32.5 l -10 10 l 0 25 l 10 -10 l 0 -25 z"></path></g><g><path d="M -165.45 -47.525 l -9.9 9.95 l 47.35 58.35 l 0.05 0 l 1.4 1.75 l 7.5 -7.5 l -42.7 -52.55 l 52.05 0 l 10 -10 l -65.75 0 z"></path></g><g><path d="M -79.69999999999999 -47.5 l -10 10 l 0 60 l 10 -10 l 0 -60 z"></path></g><g><path d="M -58.55000000000001 -47.425 l -10 10 l 0 40 l 9.55 -9.55 l 20.65 29.4 l 7.5 -7.5 l -21.6 -30.85 l -6.1 6.1 l 0 -37.6 z"></path><path d="M -39.69999999999999 -57.425000000000004 l 10 -10 l -30 0 l -10 10 l 30 0 z"></path></g><g><path d="M 8.300000000000011 -4.4 l 7.45 -7.5 27.05 34.4 7.5 -7.5 -27.8 -36 -7.75 7.8 -26.95 -34.3 -7.5 7.5 28 35.6 z"></path><path d="M 40.19999999999999 12.5 q -1.655 2.716 2.6 10 l 15 0 l 10 -10 l -20 0 q -7.015 -2.931 -7.6 0 z"></path><path d="M -7.199999999999989 5 l -10 10 l 0 25 l 10 -10 l 0 -25 z"></path><path d="M 42.900000000000034 -37.5 l -8.8 8.8 l 1.2 1.2 l 20 -20 l -30 0 l -10 10 l 27.6 0 z"></path></g><g><path d="M 120.35000000000002 -47.5 l -10 10 l 0 60 l 10 -10 l 0 -50 l 30 0 l 10 -10 l -40 0 z"></path><g><path d="M 120.35000000000002 12.5 l 0 -7.3 q -4.546 5.888 -10 3.05 l 0 11.95 l -15.05 0 l -17.5 17.5 l 1.2 1.2 l 8.7 -8.7 l 15 0 l 17.65 -17.7 z"></path></g></g><g><path d="M 180.35000000000002 -47.5 l -10 10 l 0 60 l 10 -10 l 0 -60 z"></path><g><path d="M 180.40000000000003 -45.2 l 15 0 l 10 -10 l -17.4 0 l -17.65 17.7 l 0 7.3 q 5.4 -4.35 10 -2.75 l 0 -12.25 z"></path></g><g><path d="M 170.35000000000002 7.5 l 0 15 l 10 -10 l 0 20 l 10 -9.9 l 0 -22.4 l -10 9.95 l 0 -5.15 q -5 6.1 -10 2.5 z"></path></g></g><g><path d="M 235.40000000000003 -47.5 l -10 10 l 0 50 l -10 10 l 45 0 l 10 -10 l -42.6 0 l 7.6 -7.6 l 0 -42.4 l 30 0 l 10 -10 l -40 0 z"></path><g><path d="M 270.4 12.5 l -15 0 q 2.75 6.15 -5 10 l 10 0 l 0 12.6 l -7.5 7.5 l 1.2 1.2 l 16.3 -16.3 l 0 -15 z"></path></g><path d="M 255.39999999999998 -57.5 l 10 -10 l -30 0 l -10 10 l 30 0 z"></path></g></g></g>
</svg>
