<svg xmlns="http://www.w3.org/2000/svg" viewBox="0 0 122.246094 90" width="122.246094" height="90" fill="currentColor" stroke="none">
<g transform="translate(61.123047 45)"><g><g><path d="M -24.873046875 -5 l 7.5 -7.5 -32.5 -32.5 -7.5 7.5 32.5 32.5 m -17.5 -10 l -7.5 7.5 32.5 32.5 7.5 -7.5 -32.5 -32.5 z"></path><path d="M -31.123046875 45 l 10 -10 l -30 0 l -10 10 l 30 0 z"></path></g><g><path d="M 15.176953124999997 -35 l 34.95 0 l 10 -10 l -50 0 l -10 10 l 25 25 l 0 35 l 10 -10 l 0 -30.05 l -19.95 -19.95 z"></path><g><path d="M 44.476953124999994 -45 l 15.65 0 l -10 10 q 17.75 9.4 6.85 21.2 q 2.15 -12.25 -15.5 -14.85 l 6.3 -6.35 l -8.1 0 q 9.5 -4.8 4.8 -10 z"></path></g><g><path d="M 35.126953125 3.8000000000000007 q -5 12.14 -10 11.2 l 0 10 l 17.5 -17.5 l -1.2 -1.2 l -6.3 6.3 l 0 -8.8 z"></path></g></g></g></g>
</svg>
