<svg xmlns="http://www.w3.org/2000/svg" viewBox="0 0 446.65 161.3" width="446.65" height="161.3" fill="currentColor" stroke="none">
<g transform="translate(223.325 80.65)"><g><g><path d="M -198.67499999999995 -65.67499999999998 l -7.5 7.5 57.5 62.5 7.5 -7.5 -57.5 -62.5 z"></path><path d="M -201.17499999999995 -63.17499999999998 l -5 5 l -10 -10 l -7.15 7.15 l 11.3 11.2 l 7 -7.1 l 1 -1 q 3.183 1.742 3.85 0 q 0.916 -1.293 0 -6.25 z"></path><path d="M -151.27499999999998 -5.674999999999983 q -1.655 2.716 2.6 10 l 15 0 l 10 -10 l -20 0 q -7.015 -2.931 -7.6 0 z"></path><path d="M -206.17499999999995 -15.674999999999983 l 20 20 l 7.5 -7.5 l -20 -20 l -7.5 7.5 z"></path></g><g><path d="M -103.67499999999995 -65.67499999999998 l -10 10 l 0 60 l 10 -10 l 0 -50 l 30 0 l 10 -10 l -40 0 z"></path><g><path d="M -83.67499999999995 -55.67499999999998 l 10 0 l 17.5 -17.5 l -1.2 -1.2 l -8.7 8.7 l -7.6 0 q 0.83 5.4 -10 10 z"></path></g><g><path d="M -113.67499999999995 4.325000000000017 l 15 0 l 0 15 l 10 -10 l 0 -15 l -15 0 l 0 -10 q -3.85 7.75 -10 5 l 0 15 z"></path></g></g><g><path d="M -3.624999999999943 -41.82499999999998 l -10 10 l 0 -33.85 l -10 10 l 0 36.2 l 10 -9.95 l 0 33.75 l 10 -10 l 0 -36.15 z"></path><g><path d="M -3.624999999999943 -5.674999999999983 l 0 -7.3 q -4.546 5.888 -10 3.05 l 0 11.95 l -15.05 0 l -17.5 17.5 l 1.2 1.2 l 8.7 -8.7 l 15 0 l 17.65 -17.7 z"></path></g></g><g><path d="M 61.37500000000003 -65.64999999999998 l -10 10 l 0 20 l -35 0 l -10 10 l 29.95 29.95 l 7.5 -7.5 l -22.45 -22.45 l 30 0 l 10 -10 l 0 -30 z"></path><g><path d="M 61.37500000000003 -65.64999999999999 l -15 0 l 0 -15 l -10 10 l 0 15 l 15 0 l 0 10 q 3.85 -7.75 10 -5 l 0 -15 z"></path></g><g><path d="M 18.825000000000045 34.44999999999999 l 1.2 1.2 l 16.3 -16.3 l 0 -15.05 l 7.5 -7.5 q -11.45 -4.9 -8.7 6.3 l -8.8 8.9 l 0 14.95 l -7.5 7.5 z"></path></g><path d="M 23.875000000000057 55.64999999999999 l 0 25 l 20 -20 l -1.2 -1.2 l -8.8 8.8 l 0 -22.6 l -10 10 z"></path></g><g><path d="M 100.17499999999998 -41.82499999999998 l -10 10 l 0 -33.85 l -10 10 l 0 36.2 l 10 -9.95 l 0 33.75 l 10 -10 l 0 -36.15 z"></path><g><path d="M 80.17499999999998 -44.47499999999998 q 5 -12.14 10 -11.2 l 0 -10 l -17.5 17.5 l 1.2 1.2 l 6.3 -6.3 l 0 8.8 z"></path></g><g><path d="M 100.17499999999998 -5.674999999999983 l 0 -5 q -6.25 9 -10 5 l 0 7.6 l -11.8 -11.7 l -7 7 l 12.95 12.95 l 15.85 -15.85 z"></path></g></g><g><path d="M 130.17499999999998 -41.82499999999998 l -10 10 l 0 -33.85 l -10 10 l 0 36.2 l 10 -9.95 l 0 33.75 l 10 -10 l 0 -36.15 z"></path><g><path d="M 130.17499999999998 -16.874999999999982 q -5 12.14 -10 11.2 l 0 10 l 17.5 -17.5 l -1.2 -1.2 l -6.3 6.3 l 0 -8.8 z"></path></g></g><g><path d="M 213.42499999999998 4.350000000000016 l 9.9 -9.95 l -47.35 -58.35 l -0.05 0 l -1.4 -1.75 l -7.5 7.5 l 42.7 52.55 l -52.05 0 l -10 10 l 65.75 0 z"></path><g><path d="M 175.17499999999998 -35.84999999999998 l -1.2 -1.2 l -16.3 16.3 l 0 15.1 l -10 10 l 18.3 0 q -4.75 -2.3 1.7 -10 l -7.6 0 l -0.25 0.2 l 7.85 -7.85 l 0 -15.05 l 7.5 -7.5 z"></path></g><path d="M 175.49999999999997 24.350000000000023 l 0 25 l 20 -20 l -1.2 -1.2 l -8.8 8.8 l 0 -22.6 l -10 10 z"></path></g></g></g>
</svg>
