<svg xmlns="http://www.w3.org/2000/svg" viewBox="0 0 215 114.975" width="215" height="114.975" fill="currentColor" stroke="none">
<g transform="translate(107.5 57.4875)"><g><g><path d="M -97.5 -37.512499999999996 l -10 10 l 0 60 l 10 -10 l 0 -60 z"></path><g><path d="M -107.5 17.487500000000004 l 0 15 l 15 0 l 10 -10 l -15 0 l 0 -10 q -3.874 7.753 -10 5 z"></path></g></g><g><path d="M -17.5 -37.4875 l -10 10 l 0 20 l -35 0 l -10 10 l 29.95 29.95 l 7.5 -7.5 l -22.45 -22.45 l 30 0 l 10 -10 l 0 -30 z"></path><path d="M -35 -47.487500000000004 l 10 -10 l -30 0 l -10 10 l 30 0 z"></path></g><g><path d="M 40 32.487500000000004 l 7.5 -7.5 -26.9 -26.9 7.45 -7.55 -28.05 -28.05 -7.5 7.5 26.9 26.9 -7.5 7.5 28.1 28.1 z"></path><path d="M 5 49.987500000000004 l 7.5 7.5 l 7.5 -7.5 l -7.5 -7.5 l -7.5 7.5 z"></path></g><g><path d="M 72.5 -37.512499999999996 l -10 10 l 0 35 l 19.95 0 l -24.95 25 l 40 0 l 10 -10 l -37.6 0 l 24.85 -25 l -22.25 0 l 0 -35 z"></path></g></g></g>
</svg>
