<svg xmlns="http://www.w3.org/2000/svg" viewBox="0 0 547.4 140.05" width="547.4" height="140.05" fill="currentColor" stroke="none">
<g transform="translate(273.7 70.025)"><g><g><path d="M -266.2 -44.97500000000001 l -7.5 7.5 57.5 62.5 7.5 -7.5 -57.5 -62.5 z"></path><path d="M -266.2 -44.97500000000001 l -7.5 7.5 q 11.45 4.9 8.7 -6.3 l 8.8 -8.9 l 0 -17.35 l -10 10 l 0 15.05 z"></path><path d="M -218.79999999999998 15.024999999999991 q -1.655 2.716 2.6 10 l 15 0 l 10 -10 l -20 0 q -7.015 -2.931 -7.6 0 z"></path><path d="M -273.7 5.0249999999999915 l 20 20 l 7.5 -7.5 l -20 -20 l -7.5 7.5 z"></path><path d="M -213.6 -34.97500000000001 l -8.8 8.8 l 1.2 1.2 l 20 -20 l -30 0 l -10 10 l 27.6 0 z"></path></g><g><path d="M -121.80000000000001 -44.97500000000001 l -50 0 l -9.4 9.4 l 23.2 33.05 l 6.2 -6.25 l 0 33.8 l 10 -10 l 0 -36.15 l -1.1 1.1 q -2.967 2.977 -5.95 5.95 l -1.95 2 l -0.65 0.65 l -16.5 -23.5 l 36.2 0 l 10 -10 z"></path></g><g><path d="M -104.25 -44.97500000000001 l -7.5 7.5 57.5 62.5 7.5 -7.5 -57.5 -62.5 z"></path></g><g><path d="M 28.899999999999977 -34.900000000000006 l 10 -10 l -65.75 0 l -9.9 9.95 l 30.45 37.55 l 7.25 -7.3 l 24.15 29.65 l 7.45 -7.4 l -25.2 -31.05 l -7.5 7.45 l -23.1 -28.85 l 52.15 0 z"></path><g><path d="M 61.39999999999998 -37.400000000000006 l -1.2 -1.2 l -7.5 7.5 l -13.8 -13.8 q -8.65 2.75 -10 10 l 5 0 l 12.5 12.5 l 15 -15 z"></path></g><g><path d="M 31.44999999999999 16.29999999999999 l 0 -0.05 q -8.1 -2.8 -6.35 8.7 l 6.35 -6.3 q 9.4 17.75 21.2 6.85 q -12.25 2.15 -14.85 -15.5 l -6.35 6.3 z"></path></g></g><g><path d="M 81.39999999999998 -44.97500000000001 l -10 10 l 0 60 l 40 0 l 10 -10 l -40 0 l 0 -60 z"></path><path d="M 88.89999999999998 -62.47500000000001 l 7.5 7.5 l 7.5 -7.5 l -7.5 -7.5 l -7.5 7.5 z"></path><path d="M 104 45.02499999999999 l -8.8 8.8 l 1.2 1.2 l 20 -20 l -30 0 l -10 10 l 27.6 0 z"></path></g><g><path d="M 151.39999999999998 -34.97500000000001 q -0.1 -10.25 13.15 -13.1 l -1.2 -1.1 q -22.3 -0.55 -21.95 24.2 l 37.6 0 l -7.5 7.5 l 1.2 1.2 l 18.7 -18.7 l -40 0 z"></path><path d="M 141.39999999999998 -14.975000000000009 l -10 10 l 50 0 l 10 -10 l -50 0 z"></path></g><g><path d="M 273.7 -44.97500000000001 l -52.3 0 l -10 10 l 50 0 l -60 60 l 52.4 0 l 9.9 -10 l -49.8 0 l 59.8 -60 z"></path><g><path d="M 213.69999999999993 -54.97500000000001 q -16 9.8 -7.5 27.5 l 7.55 -7.5 l 11.1 0 q -3.05 -5.25 1.5 -10 l -5 0 l -8.8 8.85 q -6.15 -7.15 1.15 -18.85 z"></path></g><path d="M 217.54999999999995 45.02499999999999 l 0 25 l 20 -20 l -1.2 -1.2 l -8.8 8.8 l 0 -22.6 l -10 10 z"></path></g></g></g>
</svg>
