<svg xmlns="http://www.w3.org/2000/svg" viewBox="0 0 135 130" width="135" height="130" fill="currentColor" stroke="none">
<g transform="translate(67.5 65)"><g><g><path d="M -60 -45 l -7.5 7.5 57.5 62.5 7.5 -7.5 -57.5 -62.5 z"></path><path d="M -25 -55 l 10 -10 l -30 0 l -10 10 l 30 0 z"></path></g><g><path d="M 22.549999999999997 -35 l 34.95 0 l 10 -10 l -50 0 l -10 10 l 25 25 l 0 35 l 10 -10 l 0 -30.05 l -19.95 -19.95 z"></path><g><path d="M 32.5 45 l 10 -10 l 0 -20 q -7.3 -5 -10 10 l 0 20 z"></path></g><path d="M 47.5 65 l 10 -10 l -30 0 l -10 10 l 30 0 z"></path></g></g></g>
</svg>
