<svg xmlns="http://www.w3.org/2000/svg" viewBox="0 0 99.9 118.7" width="99.9" height="118.7" fill="currentColor" stroke="none">
<g transform="translate(49.95 59.35)"><g><g><path d="M -27.550000000000004 -30.65 l -10 10 l 0 60 l 10 -10 l 0 -60 z"></path><g><path d="M -49.95 49.35 l 22.4 0 l 10 -10.1 l -19.9 0 l -0.1 0.1 l 0 -0.1 l 0.05 0 l 9.95 -9.9 l 0 -5 q -5 5.774 -10 5 l 0 7.55 l -12.4 12.4 z"></path></g></g><g><path d="M 2.4499999999999957 -30.65 l -10 10 l 0 60 l 10 -10 l 0 -50 l 30 0 l 10 -10 l -40 0 z"></path><g><path d="M 22.450000000000003 -20.65 l 10 0 l 17.5 -17.5 l -1.2 -1.2 l -8.7 8.7 l -7.6 0 q 0.83 5.4 -10 10 z"></path></g><g><path d="M 2.4499999999999957 46.95 l 0 -17.6 q -7.3 -5 -10 10 l 0 20 l 17.5 -17.5 l -1.2 -1.2 l -6.3 6.3 z"></path></g><path d="M 31.200000000000003 -49.35 l 10 -10 l -30 0 l -10 10 l 30 0 z"></path></g></g></g>
</svg>
