<svg xmlns="http://www.w3.org/2000/svg" viewBox="0 0 73.7 172.294907" width="73.7" height="172.294907" fill="currentColor" stroke="none">
<g transform="translate(36.85 86.147453)"><g><g><path d="M -13.149999999999999 -49.85 l -10 10 l 17.5 17.5 l -15 0 l -16.2 16.15 l 26.35 26.35 l 7.5 -7.5 l -25 -25 l 32.35 0 l 7.5 -7.5 l -20 -20 l 35 0 l 10 -10 l -50 0 z"></path><g><path d="M 21.85 -49.85 l 15 0 l 0 15 l -10 10 l 0 -15 l -10 0 q 7.753 -3.874 5 -10 z"></path></g><g><path d="M -11.399999999999999 18.549999999999997 l -11.2 11.3 l 22.4 0 l 10 -10.1 l -19.9 0 l 7.1 -7.1 q -10.446 -1.157 -8.4 5.9 z"></path></g><path d="M 10.000000000000007 49.85 l 10 -10 l -30 0 l -10 10 l 30 0 z"></path></g></g></g>
</svg>
