<svg xmlns="http://www.w3.org/2000/svg" viewBox="0 0 473.4 140" width="473.4" height="140" fill="currentColor" stroke="none">
<g transform="translate(236.7 70)"><g><g><path d="M -204.2 -5 l 7.5 -7.5 -32.5 -32.5 -7.5 7.5 32.5 32.5 m -17.5 -10 l -7.5 7.5 32.5 32.5 7.5 -7.5 -32.5 -32.5 z"></path></g><g><path d="M -169.2 -45 l -10 10 l 0 60 l 40 0 l 10 -10 l -40 0 l 0 -50 l 30 0 l 10 -10 l -40 0 z"></path><g><path d="M -143.75 25 l 4.55 0 l 8.8 -8.8 l 10 10 l 7.15 -7.15 l -11.3 -11.2 l -7.05 7.15 l -6.3 0 q 3.7 5 -5.85 10 z"></path></g></g><g><path d="M -95.75 -45 l -7.5 7.5 l 31.25 31.25 l -31.25 31.25 l 40 0 l 10 -10 l -37.6 0 l 27.5 -27.6 l -32.4 -32.4 z"></path><path d="M -85.75 -62.5 l 7.5 7.5 l 7.5 -7.5 l -7.5 -7.5 l -7.5 7.5 z"></path><path d="M -68.25 60 l 0 -25 l -20 20 l 1.2 1.2 l 8.8 -8.8 l 0 22.6 l 10 -10 z"></path></g><g><path d="M -10.75 -47.5 l 12.5 12.5 l -25 0 l -10 10 l 40 0 l 10 -10 l -20 -20 l -7.5 7.5 z"></path><path d="M -33.25 -15 l -10 10 l 50 0 l 10 -10 l -50 0 z"></path></g><g><path d="M 54.75 -1.9000000000000004 l 7.45 -7.5 27.05 34.4 7.5 -7.5 -27.8 -36 -7.75 7.8 -26.95 -34.3 -7.5 7.5 28 35.6 z"></path><path d="M 64.25 45 l 10 -10 l -30 0 l -10 10 l 30 0 z"></path></g><g><path d="M 161.75 -44.975 l -10 10 l 0 20 l -35 0 l -10 10 l 29.95 29.95 l 7.5 -7.5 l -22.45 -22.45 l 30 0 l 10 -10 l 0 -30 z"></path><g><path d="M 161.75 -29.97500000000001 l 0 -15 l -15 0 l -17.5 17.5 l 1.2 1.2 l 8.7 -8.7 l 12.6 0 l 0 10 q 3.85 -7.75 10 -5 z"></path></g><g><path d="M 139.3 34.97499999999998 l 17.4 0 l 10 -10 l -15 0 l 10 -10 l -20 0 q -7 -2.95 -7.6 0 q -1.65 2.7 2.6 10 l 12.55 0 l -9.95 10 z"></path></g></g><g><path d="M 190.84999999999997 -43.8 l 7.35 -7.35 l 20.6 26.15 l 14.95 -15 l -1.2 -1.2 l -7.35 7.35 l -20.55 -26.15 l -15 15 l 1.2 1.2 z"></path><path d="M 186.7 -15 l -10 10 l 50 0 l 10 -10 l -50 0 z"></path></g></g></g>
</svg>
