<svg xmlns="http://www.w3.org/2000/svg" viewBox="0 0 115 126.35" width="115" height="126.35" fill="currentColor" stroke="none">
<g transform="translate(57.5 63.175)"><g><g><path d="M -10 38.175000000000004 l 7.5 -7.5 -26.9 -26.9 7.45 -7.55 -28.05 -28.05 -7.5 7.5 26.9 26.9 -7.5 7.5 28.1 28.1 z"></path><path d="M -32.5 -61.975 l -1.2 -1.2 l -16.3 16.3 l 0 15.05 l -7.5 7.5 q 11.45 4.9 8.7 -6.3 l 8.8 -8.9 l 0 -14.95 l 7.5 -7.5 z"></path><path d="M -5.549999999999997 31.775000000000006 q -1.825 3.28 -4.45 6.4 l -7.5 7.5 l -1.2 -1.2 l 7.5 -7.5 q -1.688 -4.106 -0.35 -4.55 q 1.45 -0.6 6 -0.65 z"></path><path d="M -45 55.675000000000004 l 7.5 7.5 l 7.5 -7.5 l -7.5 -7.5 l -7.5 7.5 z"></path></g><g><path d="M 17.5 -31.824999999999996 l -10 10 l 0 60 l 10 -10 l 0 -50 l 30 0 l 10 -10 l -40 0 z"></path></g></g></g>
</svg>
