<svg xmlns="http://www.w3.org/2000/svg" viewBox="0 0 57.5 143.7" width="57.5" height="143.7" fill="currentColor" stroke="none">
<g transform="translate(28.75 71.85)"><g><g fill="currentColor"><path d="M 18.75 18.14999999999999 l 10 -10 l 0 -60 l -10 10 l 0 50 l -30 0 l -10 10 l 40 0 z"></path><g><path d="M 28.75 -71.85000000000001 l -10 10 l 0 20 q 7.3 5 10 -10 l 0 -20 z"></path></g><g><path d="M -1.25 8.149999999999991 l -10 0 l -17.5 17.5 l 1.2 1.2 l 8.7 -8.7 l 7.6 0 q -0.83 -5.4 10 -10 z"></path></g><path d="M 10 61.849999999999994 l 0 -25 l -20 20 l 1.2 1.2 l 8.8 -8.8 l 0 22.6 l 10 -10 z"></path></g></g></g>
</svg>
