<svg xmlns="http://www.w3.org/2000/svg" viewBox="0 0 449.9 114.975" width="449.9" height="114.975" fill="currentColor" stroke="none">
<g transform="translate(224.95 57.4875)"><g><g><path d="M -206.75000000000003 -32.512499999999996 l -10 10 l 0 60 l 10 -10 l 0 -60 z"></path><g><path d="M -204.95000000000002 49.2875 l -11.8 -11.8 l 10 -10 l 0 -5 q -5.188 7.964 -10 5 l 0 7.7 l -8.2 8.2 l 13 12.9 l 7 -7 z"></path></g></g><g><path d="M -184.95000000000002 -32.512499999999996 l -10 10 l 0 36.3 l 10 -10.05 l 0 33.75 l 10 -10 l 0 -36.15 l -10 10 l 0 -23.85 l 30 0 l 10 -10 l -40 0 z"></path><g><path d="M -174.95000000000002 45.087500000000006 l 0 -17.6 q -7.3 -5 -10 10 l 0 20 l 17.5 -17.5 l -1.2 -1.2 l -6.3 6.3 z"></path></g><path d="M -159.95000000000002 -42.512499999999996 l 10 -10 l -30 0 l -10 10 l 30 0 z"></path></g><g><path d="M -127.45000000000002 -32.512499999999996 l -7.5 7.5 57.5 62.5 7.5 -7.5 -57.5 -62.5 z"></path><path d="M -99.95000000000002 57.487500000000004 l 10 -10 l -30 0 l -10 10 l 30 0 z"></path></g><g><path d="M -52.45000000000002 -32.512499999999996 l -7.5 7.5 l 31.25 31.25 l -31.25 31.25 l 40 0 l 10 -10 l -37.6 0 l 27.5 -27.6 l -32.4 -32.4 z"></path><g><path d="M -32.35000000000002 47.487500000000004 l 22.4 0 l 9.9 -10 l -19.9 0 l 10 -10 l -12.65 0 q 5.504 3.447 -5.3 10 l 5.5 0 l -9.95 10 z"></path></g></g><g><path d="M 64.95000000000002 -32.4875 l -10 10 l 0 20 l -35 0 l -10 10 l 29.95 29.95 l 7.5 -7.5 l -22.45 -22.45 l 30 0 l 10 -10 l 0 -30 z"></path><path d="M 29.94999999999999 -49.987500000000004 l 7.5 7.5 l 7.5 -7.5 l -7.5 -7.5 l -7.5 7.5 z"></path><path d="M 47.45000000000002 57.462499999999984 l 10 -10 l -30 0 l -10 10 l 30 0 z"></path></g><g><path d="M 94.95000000000002 -22.512499999999996 q -0.1 -10.25 13.15 -13.1 l -1.2 -1.1 q -22.3 -0.55 -21.95 24.2 l 37.6 0 l -7.5 7.5 l 1.2 1.2 l 18.7 -18.7 l -40 0 z"></path><path d="M 84.95000000000002 -2.5124999999999957 l -10 10 l 50 0 l 10 -10 l -50 0 z"></path></g><g><path d="M 154.95000000000002 -32.512499999999996 l -10 10 l 0 60 l 10 -10 l 0 -60 z"></path><g><path d="M 144.95000000000002 22.487500000000004 l 0 15 l 10 -10 l 0 20 l 10 -9.9 l 0 -22.4 l -10 9.95 l 0 -5.15 q -5 6.1 -10 2.5 z"></path></g></g><g><path d="M 182.45000000000002 -32.512499999999996 l -7.5 7.5 l 31.25 31.25 l -31.25 31.25 l 40 0 l 10 -10 l -37.6 0 l 27.5 -27.6 l -32.4 -32.4 z"></path><path d="M 209.95000000000002 -42.512499999999996 l 10 -10 l -30 0 l -10 10 l 30 0 z"></path></g></g></g>
</svg>
