<svg xmlns="http://www.w3.org/2000/svg" viewBox="0 0 86.211304 172.294907" width="86.211304" height="172.294907" fill="currentColor" stroke="none">
<g transform="translate(43.105425 86.147453)"><g><g><path d="M -8.105425048552505 -39.4 l -10 10 l 0 35 l 26.3 0 l 8.7 -8.75 l 0 33.75 l 10 -10 l 0 -36.15 l -11.15 11.15 l -23.85 0 l 0 -35 z"></path><g><path d="M -18.055425048552504 -27 l -0.05 5.05 q 4.6 -6.3 10 -4 l 0 -13.45 l -9.95 10 l -12.65 0 l 7.5 -7.5 l -1.2 -1.2 l -18.7 18.7 l 17.45 0 l 7.6 -7.6 z"></path></g><g><path d="M 16.894574951447495 14.950000000000003 l 0 15.65 l 10 -10.05 q 10.8 2.6 16.2 18.85 q 0.35 -21.9 -9.85 -27.5 l -6.35 6.35 l 0 -8.1 q -4.8 9.5 -10 4.8 z"></path></g></g></g></g>
</svg>
