<svg xmlns="http://www.w3.org/2000/svg" viewBox="0 0 70 172.294907" width="70" height="172.294907" fill="currentColor" stroke="none">
<g transform="translate(35 86.147453)"><g><g><path d="M -6.999999999999993 20.6 l 7.45 -7.5 27.05 34.4 7.5 -7.5 -27.8 -36 -7.75 7.8 -26.95 -34.3 -7.5 7.5 28 35.6 z"></path><path d="M -26.349999999999994 -15 q 1.328 -4.078 -0.8 -6.7 l 0.8 0.35 q 19.05 9.15 23.7 -6.2 q -7.65 9.4 -17.35 -2.45 l -15 15 q 4.648 1.323 8.65 0 z"></path><path d="M -32.49999999999999 27.5 l 20 20 l 7.5 -7.5 l -20 -20 l -7.5 7.5 z"></path><path d="M -7.499999999999993 -40 l 7.5 7.5 l 7.5 -7.5 l -7.5 -7.5 l -7.5 7.5 z"></path></g></g></g>
</svg>
