<svg xmlns="http://www.w3.org/2000/svg" viewBox="0 0 121.2 105.05" width="121.2" height="105.05" fill="currentColor" stroke="none">
<g transform="translate(60.6 52.525)"><g><g><path d="M -38.20000000000001 -32.50000000000001 l -10 10 l 0 60 l 10 -10 l 0 -60 z"></path><g><path d="M -60.60000000000001 47.49999999999999 l 22.4 0 l 10 -10.1 l -19.9 0 l -0.1 0.1 l 0 -0.1 l 0.05 0 l 9.95 -9.9 l 0 -5 q -5 5.774 -10 5 l 0 7.55 l -12.4 12.4 z"></path></g></g><g><path d="M -8.300000000000004 -32.525000000000006 l -9.9 9.95 l 47.35 58.35 l 0.05 0 l 1.4 1.75 l 7.5 -7.5 l -42.7 -52.55 l 52.05 0 l 10 -10 l -65.75 0 z"></path><g><path d="M 38.10000000000001 30.025000000000006 q -6.8 0.5 -7.5 7.5 l 15 15 l 15 -15 l -1.2 -1.2 l -7.5 7.5 l -13.8 -13.8 z"></path></g><path d="M 31.200000000000003 -42.525000000000006 l 10 -10 l -30 0 l -10 10 l 30 0 z"></path></g></g></g>
</svg>
