<svg xmlns="http://www.w3.org/2000/svg" viewBox="0 0 164 117.175" width="164" height="117.175" fill="currentColor" stroke="none">
<g transform="translate(82 58.5875)"><g><g><path d="M -59.6 -31.4125 l -10 10 l 0 60 l 10 -10 l 0 -60 z"></path><g><path d="M -82 48.5875 l 22.4 0 l 10 -10.1 l -19.9 0 l -0.1 0.1 l 0 -0.1 l 0.05 0 l 9.95 -9.9 l 0 -5 q -5 5.774 -10 5 l 0 7.55 l -12.4 12.4 z"></path></g></g><g><path d="M -29.699999999999996 -31.4375 l -9.9 9.95 l 47.35 58.35 l 0.05 0 l 1.4 1.75 l 7.5 -7.5 l -42.7 -52.55 l 52.05 0 l 10 -10 l -65.75 0 z"></path><g><path d="M 21.5 -21.4375 l 4.55 0 l 8.8 -8.8 l 10 10 l 7.15 -7.15 l -11.3 -11.2 l -7.05 7.15 l -6.3 0 q 3.7 5 -5.85 10 z"></path></g><g><path d="M 16.700000000000017 31.11250000000001 q -6.8 0.5 -7.5 7.5 l 15 15 l 15 -15 l -1.2 -1.2 l -7.5 7.5 l -13.8 -13.8 z"></path></g><path d="M 16.19999999999999 -48.5875 l 10 -10 l -30 0 l -10 10 l 30 0 z"></path></g><g><path d="M 82 -7.562500000000002 l -10 10 l 0 -33.85 l -10 10 l 0 36.2 l 10 -9.95 l 0 33.75 l 10 -10 l 0 -36.15 z"></path><g><path d="M 72 58.5875 l 10 -10 l 0 -20 q -7.3 -5 -10 10 l 0 20 z"></path></g></g></g></g>
</svg>
