<svg xmlns="http://www.w3.org/2000/svg" viewBox="0 0 83.79898 172.294907" width="83.79898" height="172.294907" fill="currentColor" stroke="none">
<g transform="translate(41.89949 86.147453)"><g><g><path d="M 31.999489795918365 46.123472949389175 l 9.9 -9.95 l -47.35 -58.35 l -0.05 0 l -1.4 -1.75 l -7.5 7.5 l 42.7 52.55 l -52.05 0 l -10 10 l 65.75 0 z"></path><g><path d="M -13.250510204081632 -15.27652705061083 l 0 0.05 q 8.1 2.8 6.35 -8.7 l -6.35 6.3 q -9.4 -17.75 -21.2 -6.85 q 12.25 -2.15 14.85 15.5 l 6.35 -6.3 z"></path></g><g><path d="M -31.450510204081638 26.123472949389182 q -16 9.8 -7.5 27.5 l 7.55 -7.5 l 11.1 0 q -3.05 -5.25 1.5 -10 l -5 0 l -8.8 8.85 q -6.15 -7.15 1.15 -18.85 z"></path></g><path d="M -7.5 -46.12347294938918 l 7.5 7.5 l 7.5 -7.5 l -7.5 -7.5 l -7.5 7.5 z"></path></g></g></g>
</svg>
