<svg xmlns="http://www.w3.org/2000/svg" viewBox="0 0 100.05 172.294907" width="100.05" height="172.294907" fill="currentColor" stroke="none">
<g transform="translate(50.025 86.147453)"><g><g><path d="M -17.025 20.6 l 7.45 -7.5 27.05 34.4 7.5 -7.5 -27.8 -36 -7.75 7.8 -26.95 -34.3 -7.5 7.5 28 35.6 z"></path><path d="M 24.975 40 l 15.05 0 l 10 -10 l -17.45 0 l -8.75 8.8 q -6.9 -0.2 -3.8 6.15 l 4.95 -4.95 z"></path><path d="M -20.025 47.5 l 10 -10 l -30 0 l -10 10 l 30 0 z"></path><path d="M 17.574999999999996 -12.5 l -8.8 8.8 l 1.2 1.2 l 20 -20 l -30 0 l -10 10 l 27.6 0 z"></path><path d="M -17.525 -40 l 7.5 7.5 l 7.5 -7.5 l -7.5 -7.5 l -7.5 7.5 z"></path></g></g></g>
</svg>
