<svg xmlns="http://www.w3.org/2000/svg" viewBox="0 0 377.55 115" width="377.55" height="115" fill="currentColor" stroke="none">
<g transform="translate(188.775 57.5)"><g><g><path d="M -166.375 -32.5 l -10 10 l 0 60 l 10 -10 l 0 -60 z"></path><g><path d="M -188.775 47.5 l 22.4 0 l 10 -10.1 l -19.9 0 l -0.1 0.1 l 0 -0.1 l 0.05 0 l 9.95 -9.9 l 0 -5 q -5 5.774 -10 5 l 0 7.55 l -12.4 12.4 z"></path></g></g><g><path d="M -86.975 -32.5 l -50 0 l -9.4 9.4 l 23.2 33.05 l 6.2 -6.25 l 0 33.8 l 10 -10 l 0 -36.15 l -1.1 1.1 q -2.967 2.977 -5.95 5.95 l -1.95 2 l -0.65 0.65 l -16.5 -23.5 l 36.2 0 l 10 -10 z"></path><g><path d="M -116.97500000000001 57.5 l 10 -10 l 0 -20 q -7.3 -5 -10 10 l 0 20 z"></path></g><path d="M -106.65 -42.5 l 10 -10 l -30 0 l -10 10 l 30 0 z"></path></g><g><path d="M -43.92500000000001 10.6 l 7.45 -7.5 27.05 34.4 7.5 -7.5 -27.8 -36 -7.75 7.8 -26.95 -34.3 -7.5 7.5 28 35.6 z"></path><path d="M -1.9250000000000114 30 l 15.05 0 l 10 -10 l -17.45 0 l -8.75 8.8 q -6.9 -0.2 -3.8 6.15 l 4.95 -4.95 z"></path><path d="M -46.92500000000001 37.5 l 10 -10 l -30 0 l -10 10 l 30 0 z"></path><path d="M -9.325000000000017 -22.5 l -8.8 8.8 l 1.2 1.2 l 20 -20 l -30 0 l -10 10 l 27.6 0 z"></path><path d="M -44.42500000000001 -50 l 7.5 7.5 l 7.5 -7.5 l -7.5 -7.5 l -7.5 7.5 z"></path></g><g><path d="M 43.125 -32.5 l -10 10 l 0 60 l 10 -10 l 0 -50 l 30 0 l 10 -10 l -40 0 z"></path><g><path d="M 43.125 16.3 q -5 12.14 -10 11.2 l 0 10 l 17.5 -17.5 l -1.2 -1.2 l -6.3 6.3 l 0 -8.8 z"></path></g></g><g><path d="M 103.12499999999997 -32.5 l -10 10 l 0 60 l 10 -10 l 0 -60 z"></path><g><path d="M 103.17499999999998 -30.200000000000003 l 15 0 l 10 -10 l -17.4 0 l -17.65 17.7 l 0 7.3 q 5.4 -4.35 10 -2.75 l 0 -12.25 z"></path></g></g><g><path d="M 178.17499999999998 7.125 l 10 -10 l -29.85 -29.85 l -7.5 7.5 l 22.35 22.35 l -20 0 l -15 15 l 25.6 25.6 l 7.5 -7.5 l -23.1 -23.1 l 30 0 z"></path><g><path d="M 161.17499999999998 27.725 q -1.655 2.716 2.6 10 l 15 0 l 10 -10 l -20 0 q -7.015 -2.931 -7.6 0 z"></path></g><path d="M 173.475 -42.725 l 10 -10 l -30 0 l -10 10 l 30 0 z"></path></g></g></g>
</svg>
