<svg xmlns="http://www.w3.org/2000/svg" viewBox="0 0 119.85 97.5" width="119.85" height="97.5" fill="currentColor" stroke="none">
<g transform="translate(59.925 48.75)"><g><g><path d="M 4.7250000000000085 23.75 l 7.5 -7.5 -26.9 -26.9 7.45 -7.55 -28.05 -28.05 -7.5 7.5 26.9 26.9 -7.5 7.5 28.1 28.1 z"></path><path d="M -37.775 -43.75 l -5 5 l -10 -10 l -7.15 7.15 l 11.3 11.2 l 7 -7.1 l 1 -1 q 3.183 1.742 3.85 0 q 0.916 -1.293 0 -6.25 z"></path><path d="M -30.275 41.25 l 7.5 7.5 l 7.5 -7.5 l -7.5 -7.5 l -7.5 7.5 z"></path></g><g><path d="M 32.22500000000001 -46.175 l -10 10 l 0 40 l 9.55 -9.55 l 20.65 29.4 l 7.5 -7.5 l -21.6 -30.85 l -6.1 6.1 l 0 -37.6 z"></path></g></g></g>
</svg>
