<svg xmlns="http://www.w3.org/2000/svg" viewBox="0 0 429 109.625" width="429" height="109.625" fill="currentColor" stroke="none">
<g transform="translate(214.5 54.8125)"><g><g><path d="M -186.5 8.212499999999997 l 7.45 -7.5 27.05 34.4 7.5 -7.5 -27.8 -36 -7.75 7.8 -26.95 -34.3 -7.5 7.5 28 35.6 z"></path></g><g><path d="M -107.35 -34.8875 l -10 10 l 0 35 l 19.95 0 l -24.95 25 l 40 0 l 10 -10 l -37.6 0 l 24.85 -25 l -22.25 0 l 0 -35 z"></path><g><path d="M -117 -22.7875 q 0.375 -0.363 1.15 -1.15 q 6.261 -1.099 8.5 3.8 l 0 -14.75 l -10 10 l -10 -10 l -7.15 7.15 l 11.3 11.2 l 5.85 -5.9 q 0.04 -0.029 0.35 -0.35 z"></path></g><g><path d="M -82.35 35.1125 l 0 14.9 l 10 -10.1 l 0 14.9 l 9.9 -9.9 l 0 -17.4 l -9.9 9.9 l 0 -12.3 l -15 0 q 2.75 6.15 -5 10 l 10 0 z"></path></g></g><g><path d="M 3.8500000000000227 35.1125 l 7.5 -7.5 -26.9 -26.9 7.45 -7.55 -28.05 -28.05 -7.5 7.5 26.9 26.9 -7.5 7.5 28.1 28.1 z"></path><path d="M -42.44999999999999 -26.187500000000004 q 4.2 0.65 6.3 -2.7 q 0.8 -1 0 -6 l -6.3 6.3 l 0 -19.95 l -10 10.1 l 0 22.35 l 10 -10.1 z"></path><path d="M -38.64999999999998 17.612499999999997 l -10 10 l 0 25 l 10 -10 l 0 -25 z"></path><path d="M 13.850000000000023 -24.887500000000003 l 10 -10 l -30 0 l -10 10 l 30 0 z"></path></g><g><path d="M 83.85000000000002 -24.887500000000003 l 10 -10 l -50 0 l -10 10 l 0 30 l 30 0 l 0 30 l 10 -10 l 0 -30 l -30 0 l 0 -20 l 40 0 z"></path></g><g><path d="M 113.85000000000002 -34.8875 l -10 10 l 0 60 l 10 -10 l 0 -60 z"></path><g><path d="M 103.85000000000002 20.112499999999997 l 0 15 l 15 0 l 10 -10 l -15 0 l 0 -10 q -3.874 7.753 -10 5 z"></path></g></g><g><path d="M 204.5 -24.812500000000004 l 10 -10 l -65.75 0 l -9.9 9.95 l 30.45 37.55 l 7.25 -7.3 l 24.15 29.65 l 7.45 -7.4 l -25.2 -31.05 l -7.5 7.45 l -23.1 -28.85 l 52.15 0 z"></path><path d="M 186.675 -44.8125 l 10 -10 l -30 0 l -10 10 l 30 0 z"></path></g></g></g>
</svg>
