<svg xmlns="http://www.w3.org/2000/svg" viewBox="0 0 413.35 110.225" width="413.35" height="110.225" fill="currentColor" stroke="none">
<g transform="translate(206.675 55.1125)"><g><g><path d="M -150.37500000000006 34.8875 l 7.5 -7.5 -26.9 -26.9 7.45 -7.55 -28.05 -28.05 -7.5 7.5 26.9 26.9 -7.5 7.5 28.1 28.1 z"></path><path d="M -196.67500000000004 -26.412499999999998 q 4.2 0.65 6.3 -2.7 q 0.8 -1 0 -6 l -6.3 6.3 l 0 -19.95 l -10 10.1 l 0 22.35 l 10 -10.1 z"></path><path d="M -202.87500000000006 14.887500000000003 l 20 20 l 7.5 -7.5 l -20 -20 l -7.5 7.5 z"></path><path d="M -142.77500000000003 -25.112499999999997 l -8.8 8.8 l 1.2 1.2 l 20 -20 l -30 0 l -10 10 l 27.6 0 z"></path></g><g><path d="M -77.82500000000005 -35.1125 l -10 10 l 0 60 l 10 -10 l 0 -50 l 30 0 l 10 -10 l -40 0 z"></path><g><path d="M -77.82500000000005 24.887500000000003 l 0 -7.3 q -4.546 5.888 -10 3.05 l 0 11.95 l -15.05 0 l -17.5 17.5 l 1.2 1.2 l 8.7 -8.7 l 15 0 l 17.65 -17.7 z"></path></g></g><g><path d="M -17.825000000000017 -4.737499999999997 l -10 10 l 29.85 29.85 l 7.5 -7.5 l -22.35 -22.35 l 20 0 l 15 -15 l -25.6 -25.6 l -7.5 7.5 l 23.1 23.1 l -30 0 z"></path><path d="M 7.174999999999983 55.112500000000004 l 10 -10 l -30 0 l -10 10 l 30 0 z"></path></g><g><path d="M 76.92499999999998 -23.9625 l -20.55 -26.15 l -7.5 7.5 l 21.65 27.5 l 14.95 -15 l -1.2 -1.2 l -7.35 7.35 z"></path><path d="M 42.17499999999998 -5.112499999999997 l -10 10 l 50 0 l 10 -10 l -50 0 z"></path></g><g><path d="M 112.17499999999998 -35.1125 l -10 10 l 0 60 l 10 -10 l 0 -60 z"></path><g><path d="M 112.225 -32.8125 l 15 0 l 10 -10 l -17.4 0 l -17.65 17.7 l 0 7.3 q 5.4 -4.35 10 -2.75 l 0 -12.25 z"></path></g><g><path d="M 102.17499999999998 19.887500000000003 l 0 15 l 15 0 l 10 -10 l -15 0 l 0 -10 q -3.874 7.753 -10 5 z"></path></g></g><g><path d="M 206.62500000000003 -35.1125 l -50 0 l -9.4 9.4 l 23.2 33.05 l 6.2 -6.25 l 0 33.8 l 10 -10 l 0 -36.15 l -1.1 1.1 q -2.967 2.977 -5.95 5.95 l -1.95 2 l -0.65 0.65 l -16.5 -23.5 l 36.2 0 l 10 -10 z"></path><path d="M 186.95000000000002 -45.1125 l 10 -10 l -30 0 l -10 10 l 30 0 z"></path></g></g></g>
</svg>
