<svg xmlns="http://www.w3.org/2000/svg" viewBox="0 0 580.55 138.825" width="580.55" height="138.825" fill="currentColor" stroke="none">
<g transform="translate(290.275 69.4125)"><g><g><path d="M -265.625 -31.912499999999994 l -7.5 7.5 57.5 62.5 7.5 -7.5 -57.5 -62.5 z"></path><path d="M -268.125 -29.412499999999994 l -5 5 l -10 -10 l -7.15 7.15 l 11.3 11.2 l 7 -7.1 l 1 -1 q 3.183 1.742 3.85 0 q 0.916 -1.293 0 -6.25 z"></path><path d="M -218.22499999999997 28.087500000000006 q -1.655 2.716 2.6 10 l 15 0 l 10 -10 l -20 0 q -7.015 -2.931 -7.6 0 z"></path><path d="M -254.37499999999997 -61.912499999999994 l 20 20 l 7.5 -7.5 l -20 -20 l -7.5 7.5 z"></path></g><g><path d="M -125.62499999999997 -31.887499999999996 l -10 10 l 0 20 l -35 0 l -10 10 l 29.95 29.95 l 7.5 -7.5 l -22.45 -22.45 l 30 0 l 10 -10 l 0 -30 z"></path><g><path d="M -135.27499999999998 -19.7875 q 0.375 -0.363 1.15 -1.15 q 6.261 -1.099 8.5 3.8 l 0 -14.75 l -10 10 l -10 -10 l -7.15 7.15 l 11.3 11.2 l 5.85 -5.9 q 0.04 -0.029 0.35 -0.35 z"></path></g><g><path d="M -153.27499999999998 28.062499999999986 q -1.655 2.716 2.6 10 l 15 0 l 10 -10 l -20 0 q -7.015 -2.931 -7.6 0 z"></path></g></g><g><path d="M -90.97499999999997 -31.912499999999994 l -7.5 7.5 57.5 62.5 7.5 -7.5 -57.5 -62.5 z"></path><path d="M -93.47499999999997 -29.412499999999994 l -5 5 l -10 -10 l -7.15 7.15 l 11.3 11.2 l 7 -7.1 l 1 -1 q 3.183 1.742 3.85 0 q 0.916 -1.293 0 -6.25 z"></path><path d="M -80.97499999999997 55.587500000000006 l 7.5 7.5 l 7.5 -7.5 l -7.5 -7.5 l -7.5 7.5 z"></path></g><g><path d="M 31.524999999999977 -31.887499999999996 l -10 10 l 0 20 l -35 0 l -10 10 l 29.95 29.95 l 7.5 -7.5 l -22.45 -22.45 l 30 0 l 10 -10 l 0 -30 z"></path><g><path d="M -11.024999999999977 68.21249999999998 l 1.2 1.2 l 16.3 -16.3 l 0 -15.05 l 7.5 -7.5 q -11.45 -4.9 -8.7 6.3 l -8.8 8.9 l 0 14.95 l -7.5 7.5 z"></path></g></g><g><path d="M 89.02499999999998 38.087500000000006 l 7.5 -7.5 -26.9 -26.9 7.45 -7.55 -28.05 -28.05 -7.5 7.5 26.9 26.9 -7.5 7.5 28.1 28.1 z"></path><path d="M 71.52499999999998 58.087500000000006 l 10 -10 l -30 0 l -10 10 l 30 0 z"></path></g><g><path d="M 116.52499999999998 -31.912499999999994 l -10 10 l 0 36.3 l 10 -10.05 l 0 33.75 l 10 -10 l 0 -36.15 l -10 10 l 0 -23.85 l 30 0 l 10 -10 l -40 0 z"></path><g><path d="M 136.625 -14.412499999999994 l 1.2 1.2 l 18.7 -18.7 l -10 0 q 0.85 5.4 -10 10 l 7.6 0 l -7.5 7.5 z"></path></g><g><path d="M 126.52499999999998 45.68750000000001 l 0 -17.6 q -7.3 -5 -10 10 l 0 20 l 17.5 -17.5 l -1.2 -1.2 l -6.3 6.3 z"></path></g></g><g><path d="M 176.52499999999998 -31.912499999999994 l -10 10 l 0 60 l 40 0 l 10 -10 l -40 0 l 0 -60 z"></path><path d="M 184.02499999999998 -49.412499999999994 l 7.5 7.5 l 7.5 -7.5 l -7.5 -7.5 l -7.5 7.5 z"></path><path d="M 199.125 58.087500000000006 l -8.8 8.8 l 1.2 1.2 l 20 -20 l -30 0 l -10 10 l 27.6 0 z"></path></g><g><path d="M 232.77499999999998 -21.912499999999994 q 24.3 9.1 15 21.3 l 1.25 1.15 q 15.85 -14.1 3.75 -22.45 l 20 0 l 17.5 -17.5 l -1.2 -1.2 l -8.7 8.7 l -37.6 0 l -10 10 z"></path><path d="M 236.52499999999998 -1.9124999999999943 l -10 10 l 50 0 l 10 -10 l -50 0 z"></path></g></g></g>
</svg>
