<svg xmlns="http://www.w3.org/2000/svg" viewBox="0 0 574.7 152.725" width="574.7" height="152.725" fill="currentColor" stroke="none">
<g transform="translate(287.35 76.3625)"><g><g><path d="M -214.79999999999995 31.137500000000003 l 7.5 -7.5 -26.9 -26.9 7.45 -7.55 -28.05 -28.05 -7.5 7.5 26.9 26.9 -7.5 7.5 28.1 28.1 z"></path><path d="M -262.29999999999995 -31.362499999999997 l -15.05 0 l -10 10 l 17.45 0 l 8.75 -8.8 q 6.9 0.2 3.8 -6.15 l -4.95 4.95 z"></path><path d="M -207.19999999999996 -28.862499999999997 l -8.8 8.8 l 1.2 1.2 l 20 -20 l -30 0 l -10 10 l 27.6 0 z"></path><path d="M -249.79999999999995 48.6375 l 7.5 7.5 l 7.5 -7.5 l -7.5 -7.5 l -7.5 7.5 z"></path></g><g><path d="M -134.79999999999995 -28.862499999999997 l 10 -10 l -50 0 l -10 10 l 0 35 l 10 -10 l 15 0 l 0 35 l 10 -10 l 0 -35 l -17.35 0 l -7.65 7.6 l 0 -22.6 l 40 0 z"></path></g><g><path d="M -107.29999999999995 -38.8625 l -7.5 7.5 57.5 62.5 7.5 -7.5 -57.5 -62.5 z"></path></g><g><path d="M 27.650000000000034 21.137500000000003 l -34.95 0 l -10 10 l 50 0 l 10 -10 l -25 -25 l 0 -35 l -10 10 l 0 30.05 l 19.95 19.95 z"></path><g><path d="M -39.799999999999955 23.637500000000003 l 1.2 1.2 l 7.5 -7.5 l 13.8 13.8 q 8.65 -2.75 10 -10 l -5 0 l -12.5 -12.5 l -15 15 z"></path></g><path d="M -6.0499999999999545 -56.3625 l 7.5 7.5 l 7.5 -7.5 l -7.5 -7.5 l -7.5 7.5 z"></path></g><g><path d="M 92.70000000000005 0.7625000000000028 l 10 -10 l -29.85 -29.85 l -7.5 7.5 l 22.35 22.35 l -20 0 l -15 15 l 25.6 25.6 l 7.5 -7.5 l -23.1 -23.1 l 30 0 z"></path><g><path d="M 85.80000000000007 23.862500000000004 l 15.05 0 l 10 -10 l -17.45 0 l -8.75 8.8 q -6.9 -0.2 -3.8 6.15 l 4.95 -4.95 z"></path></g><path d="M 71.77500000000003 51.362500000000004 l 0 25 l 20 -20 l -1.2 -1.2 l -8.8 8.8 l 0 -22.6 l -10 10 z"></path></g><g><path d="M 130.85000000000008 -38.8625 l -10 10 l 0 60 l 10 -10 l 0 -60 z"></path><g><path d="M 120.85000000000008 16.137500000000003 l 0 15 l 15 0 l 10 -10 l -15 0 l 0 -10 q -3.874 7.753 -10 5 z"></path></g></g><g><path d="M 192.6500000000001 4.2375000000000025 l 7.45 -7.5 27.05 34.4 7.5 -7.5 -27.8 -36 -7.75 7.8 -26.95 -34.3 -7.5 7.5 28 35.6 z"></path><path d="M 165.85000000000008 -30.162499999999998 q 4.2 0.65 6.3 -2.7 q 0.8 -1 0 -6 l -6.3 6.3 l 0 -19.95 l -10 10.1 l 0 22.35 l 10 -10.1 z"></path><path d="M 177.1500000000001 13.637500000000003 l -10 10 l 0 25 l 10 -10 l 0 -25 z"></path><path d="M 227.25000000000006 -28.862499999999997 l -8.8 8.8 l 1.2 1.2 l 20 -20 l -30 0 l -10 10 l 27.6 0 z"></path><path d="M 185.9000000000001 -68.8625 l 20 20 l 7.5 -7.5 l -20 -20 l -7.5 7.5 z"></path></g><g><path d="M 259.65000000000003 -38.787499999999994 l -10 10 l 0 40 l 9.55 -9.55 l 20.65 29.4 l 7.5 -7.5 l -21.6 -30.85 l -6.1 6.1 l 0 -37.6 z"></path></g></g></g>
</svg>
