<svg xmlns="http://www.w3.org/2000/svg"
 viewBox="0 0 1452 52" width="1452" height="52"
 fill="#fff" color="#fff" stroke="none">
<g><svg x="0" y="0" width="21" height="52" viewBox="0 0 70 172.294907" preserveAspectRatio="xMidYMid meet" color="#fff" fill="#fff" stroke="none"><g transform="translate(35 86.147453)"><g><g><path d="M -7 -4.4 l 7.45 -7.5 27.05 34.4 7.5 -7.5 -27.8 -36 -7.75 7.8 -26.95 -34.3 -7.5 7.5 28 35.6 z"></path><path d="M 31.950000000000003 16.1 q -1.825 3.28 -4.45 6.4 l -7.5 7.5 l -1.2 -1.2 l 7.5 -7.5 q -1.688 -4.106 -0.35 -4.55 q 1.45 -0.6 6 -0.65 z"></path><path d="M -15 40 l 7.5 7.5 l 7.5 -7.5 l -7.5 -7.5 l -7.5 7.5 z"></path></g></g></g></svg><svg x="24" y="0" width="18" height="52" viewBox="0 0 60 172.294907" preserveAspectRatio="xMidYMid meet" color="#fff" fill="#fff" stroke="none"><g transform="translate(30 86.147453)"><g><g><path d="M -20 -52.074999999999996 l -10 10 l 0 30 l 30 30 l 7.5 -7.5 l -27.5 -27.5 l 0 -35 z"></path><g><path d="M -30 -42.074999999999996 l 0 5 q 6.25 -9 10 -5 l 0 -7.6 l 11.8 11.7 l 7 -7 l -12.95 -12.95 l -15.85 15.85 z"></path></g><g><path d="M 2.6000000000000014 27.925000000000004 l 17.4 0 l 10 -10 l -15 0 l 10 -10 l -20 0 q -7 -2.95 -7.6 0 q -1.65 2.7 2.6 10 l 12.55 0 l -9.95 10 z"></path></g><path d="M -7.600000000000001 47.925000000000004 l 8.8 -8.8 l -1.2 -1.2 l -20 20 l 30 0 l 10 -10 l -27.6 0 z"></path></g></g></g></svg><svg x="45" y="0" width="23" height="52" viewBox="0 0 75.65 172.294907" preserveAspectRatio="xMidYMid meet" color="#fff" fill="#fff" stroke="none"><g transform="translate(37.825 86.147453)"><g><g><path d="M 27.824999999999996 -24.925 l 10 -10 l -65.75 0 l -9.9 9.95 l 30.45 37.55 l 7.25 -7.3 l 24.15 29.65 l 7.45 -7.4 l -25.2 -31.05 l -7.5 7.45 l -23.1 -28.85 l 52.15 0 z"></path></g></g></g></svg><svg x="71" y="0" width="16" height="52" viewBox="0 0 53.15 172.294907" preserveAspectRatio="xMidYMid meet" color="#fff" fill="#fff" stroke="none"><g transform="translate(26.575 86.146434)"><g><g><path d="M 13.424999999999997 2.277546564832498 l 10 -10 l -29.85 -29.85 l -7.5 7.5 l 22.35 22.35 l -20 0 l -15 15 l 25.6 25.6 l 7.5 -7.5 l -23.1 -23.1 l 30 0 z"></path><g><path d="M 5.3749999999999964 24.2275465648325 l 0 -0.05 q -8.1 -2.8 -6.35 8.7 l 6.35 -6.3 q 9.4 17.75 21.2 6.85 q -12.25 2.15 -14.85 -15.5 l -6.35 6.3 z"></path></g></g></g></g></svg><svg x="90" y="0" width="13" height="52" viewBox="0 0 42.55 172.294907" preserveAspectRatio="xMidYMid meet" color="#fff" fill="#fff" stroke="none"><g transform="translate(21.275 86.147453)"><g><g><path d="M 21.275000000000002 -19.35 l -10 10 l 0 -33.85 l -10 10 l 0 36.2 l 10 -9.95 l 0 33.75 l 10 -10 l 0 -36.15 z"></path><g><path d="M 21.275000000000002 16.799999999999997 l 0 -7.3 q -4.546 5.888 -10 3.05 l 0 11.95 l -15.05 0 l -17.5 17.5 l 1.2 1.2 l 8.7 -8.7 l 15 0 l 17.65 -17.7 z"></path></g></g></g></g></svg><svg x="106" y="0" width="18" height="52" viewBox="0 0 60 172.294907" preserveAspectRatio="xMidYMid meet" color="#fff" fill="#fff" stroke="none"><g transform="translate(30 86.147453)"><g><g><path d="M 20 -25 l 10 -10 l -50 0 l -10 10 l 0 35 l 10 -10 l 15 0 l 0 35 l 10 -10 l 0 -35 l -17.35 0 l -7.65 7.6 l 0 -22.6 l 40 0 z"></path></g></g></g></svg><svg x="127" y="0" width="20" height="52" viewBox="0 0 65 172.294907" preserveAspectRatio="xMidYMid meet" color="#fff" fill="#fff" stroke="none"><g transform="translate(32.5 86.147453)"><g><g><path d="M -25 -45 l -7.5 7.5 57.5 62.5 7.5 -7.5 -57.5 -62.5 z"></path><path d="M 2.5 45 l 10 -10 l -30 0 l -10 10 l 30 0 z"></path></g></g></g></svg><svg x="150" y="0" width="28" height="52" viewBox="0 0 93.15 172.294907" preserveAspectRatio="xMidYMid meet" color="#fff" fill="#fff" stroke="none"><g transform="translate(46.575 86.147453)"><g><g><path d="M -36.675 -32.525 l -9.9 9.95 l 47.35 58.35 l 0.05 0 l 1.4 1.75 l 7.5 -7.5 l -42.7 -52.55 l 52.05 0 l 10 -10 l -65.75 0 z"></path><g><path d="M 6.675000000000004 -12.524999999999999 l 22.4 0 l 17.5 -17.5 l -1.2 -1.2 l -8.7 8.7 l -17.6 0 l 10 -10 l -12.65 0 q 5.5 3.45 -5.3 10 l 5.5 0 l -9.95 10 z"></path></g><g><path d="M 9.725000000000001 30.025000000000013 q -6.8 0.5 -7.5 7.5 l 15 15 l 15 -15 l -1.2 -1.2 l -7.5 7.5 l -13.8 -13.8 z"></path></g><path d="M 10 -42.525000000000006 l 10 -10 l -30 0 l -10 10 l 30 0 z"></path></g></g></g></svg><svg x="181" y="0" width="15" height="52" viewBox="0 0 50 172.294907" preserveAspectRatio="xMidYMid meet" color="#fff" fill="#fff" stroke="none"><g transform="translate(25 86.147453)"><g><g><path d="M -10 -25 l -10 10 l 0 35 l 19.95 0 l -24.95 25 l 40 0 l 10 -10 l -37.6 0 l 24.85 -25 l -22.25 0 l 0 -35 z"></path><path d="M 10 -35 l 10 -10 l -30 0 l -10 10 l 30 0 z"></path></g></g></g></svg><svg x="199" y="0" width="17" height="52" viewBox="0 0 54.85 172.294907" preserveAspectRatio="xMidYMid meet" color="#fff" fill="#fff" stroke="none"><g transform="translate(27.425 86.147453)"><g><g><path d="M -17.425000000000004 -26.17499999999999 l -10 10 l 0 40 l 9.55 -9.55 l 20.65 29.4 l 7.5 -7.5 l -21.6 -30.85 l -6.1 6.1 l 0 -37.6 z"></path><g><path d="M -17.425000000000004 -46.175 l -10 10 l 0 20 q 7.3 5 10 -10 l 0 -20 z"></path></g><g><path d="M 5.274999999999999 41.175 l 5 -5 l 10 10 l 7.15 -7.15 l -11.3 -11.2 l -7 7.1 l -1 1 q -3.183 -1.742 -3.85 0 q -0.916 1.293 0 6.25 z"></path></g></g></g></g></svg><svg x="219" y="0" width="18" height="52" viewBox="0 0 59.45 172.294907" preserveAspectRatio="xMidYMid meet" color="#fff" fill="#fff" stroke="none"><g transform="translate(29.725 86.147453)"><g><g><path d="M 29.675000000000004 -45 l -50 0 l -9.4 9.4 l 23.2 33.05 l 6.2 -6.25 l 0 33.8 l 10 -10 l 0 -36.15 l -1.1 1.1 q -2.967 2.977 -5.95 5.95 l -1.95 2 l -0.65 0.65 l -16.5 -23.5 l 36.2 0 l 10 -10 z"></path><g><path d="M 9.675000000000004 32.6 l 0 -17.6 q -7.3 -5 -10 10 l 0 20 l 17.5 -17.5 l -1.2 -1.2 l -6.3 6.3 z"></path></g></g></g></g></svg><svg x="240" y="0" width="25" height="52" viewBox="0 0 82.5 172.294907" preserveAspectRatio="xMidYMid meet" color="#fff" fill="#fff" stroke="none"><g transform="translate(41.25 86.147453)"><g><g><path d="M -33.75 -47.5 l -7.5 7.5 57.5 62.5 7.5 -7.5 -57.5 -62.5 z"></path><path d="M 13.649999999999999 12.5 q -1.65 2.7 2.6 10 l 12.6 0 l -7.5 7.5 l 1.2 1.2 l 18.7 -18.7 l -20 0 q -7 -2.95 -7.6 0 z"></path><path d="M -23.75 40 l 7.5 7.5 l 7.5 -7.5 l -7.5 -7.5 l -7.5 7.5 z"></path></g></g></g></svg><svg x="268" y="0" width="19" height="52" viewBox="0 0 61.9 172.294907" preserveAspectRatio="xMidYMid meet" color="#fff" fill="#fff" stroke="none"><g transform="translate(30.95 86.147453)"><g><g><path d="M -19.150000000000002 -25.6 l -7.5 7.5 l 31.25 31.25 l -31.25 31.25 l 40 0 l 10 -10 l -37.6 0 l 27.5 -27.6 l -32.4 -32.4 z"></path><g><path d="M -30.950000000000003 -37.4 l 11.8 11.8 l -5 5 q 7.681 1.687 7.1 -0.5 l -0.95 -3.35 l 7.05 -7.05 l -13 -12.9 z"></path></g><g><path d="M 15.700000000000003 34.4 q 0.465 4.718 -7.9 10 l 5.55 0 l 17.6 -17.6 l 0 -15 l -10 10 l 0 12.6 l -5.25 0 z"></path></g></g></g></g></svg><svg x="290" y="0" width="14" height="52" viewBox="0 0 45 172.294907" preserveAspectRatio="xMidYMid meet" color="#fff" fill="#fff" stroke="none"><g transform="translate(22.5 86.147453)"><g><g><path d="M 12.5 -11.799999999999999 l -10 10 l 0 -33.85 l -10 10 l 0 36.2 l 10 -9.95 l 0 33.75 l 10 -10 l 0 -36.15 z"></path><g><path d="M 2.5 -20.65 l 0 -15 l -12.6 0 l 7.5 -7.5 l -1.2 -1.2 l -18.7 18.7 l 15 0 l 0 10 q 3.85 -7.75 10 -5 z"></path></g><g><path d="M -9.9 44.35 l 22.4 0 l 10 -10.1 l -19.9 0 l -0.1 0.1 l 0 -0.1 l 0.05 0 l 9.95 -9.9 l 0 -5 q -5 5.774 -10 5 l 0 7.55 l -12.4 12.4 z"></path></g></g></g></g></svg><svg x="307" y="0" width="20" height="52" viewBox="0 0 65 172.294907" preserveAspectRatio="xMidYMid meet" color="#fff" fill="#fff" stroke="none"><g transform="translate(32.5 86.147453)"><g><g><path d="M -25 -35 l -7.5 7.5 57.5 62.5 7.5 -7.5 -57.5 -62.5 z"></path></g></g></g></svg><svg x="330" y="0" width="22" height="52" viewBox="0 0 74.3 172.294907" preserveAspectRatio="xMidYMid meet" color="#fff" fill="#fff" stroke="none"><g transform="translate(37.15 86.147453)"><g><g><path d="M -4.850000000000001 17.5 l 7.45 -7.5 27.05 34.4 7.5 -7.5 -27.8 -36 -7.75 7.8 -26.95 -34.3 -7.5 7.5 28 35.6 z"></path><path d="M -37.15 -37.4 l 11.8 11.8 l -5 5 q 7.681 1.687 7.1 -0.5 l -0.95 -3.35 l 7.05 -7.05 l -13 -12.9 z"></path></g></g></g></svg><svg x="355" y="0" width="32" height="52" viewBox="0 0 105 172.294907" preserveAspectRatio="xMidYMid meet" color="#fff" fill="#fff" stroke="none"><g transform="translate(52.5 86.147453)"><g><g><path d="M -7 3.700000000000001 l 7.45 -7.5 27.05 34.4 7.5 -7.5 -27.8 -36 -7.75 7.8 -26.95 -34.3 -7.5 7.5 28 35.6 z"></path><path d="M -24.9 -29.4 q 1.65 -2.7 -2.6 -10 l -12.6 0 l 7.5 -7.5 l -1.2 -1.2 l -18.7 18.7 l 20 0 q 7 2.95 7.6 0 z"></path><path d="M 24.900000000000006 20.6 q -1.655 2.716 2.6 10 l 15 0 l 10 -10 l -20 0 q -7.015 -2.931 -7.6 0 z"></path><path d="M -22.5 13.100000000000001 l -10 10 l 0 25 l 10 -10 l 0 -25 z"></path><path d="M 27.599999999999994 -29.4 l -8.8 8.8 l 1.2 1.2 l 20 -20 l -30 0 l -10 10 l 27.6 0 z"></path></g></g></g></svg><svg x="390" y="0" width="11" height="52" viewBox="0 0 37.15 172.294907" preserveAspectRatio="xMidYMid meet" color="#fff" fill="#fff" stroke="none"><g transform="translate(18.575 86.147453)"><g><g><path d="M 1.4250000000000007 -11.15 l -10 10 l 0 -33.85 l -10 10 l 0 36.2 l 10 -9.95 l 0 33.75 l 10 -10 l 0 -36.15 z"></path><g><path d="M 1.0749999999999993 22.9 q -0.375 0.363 -1.15 1.15 q -6.261 1.099 -8.5 -3.8 l 0 14.75 l 10 -10 l 10 10 l 7.15 -7.15 l -11.3 -11.2 l -5.85 5.9 q -0.04 0.029 -0.35 0.35 z"></path></g></g></g></g></svg><svg x="404" y="0" width="22" height="52" viewBox="0 0 72.5 172.294907" preserveAspectRatio="xMidYMid meet" color="#fff" fill="#fff" stroke="none"><g transform="translate(36.25 86.147453)"><g><g><path d="M -26.25 -35 l -10 10 l 0 60 l 10 -10 l 0 -50 l 30 0 l 10 -10 l -40 0 z"></path><g><path d="M 36.25 -27.5 l -1.2 -1.2 l -7.5 7.5 l -13.8 -13.8 q -8.65 2.75 -10 10 l 5 0 l 12.5 12.5 l 15 -15 z"></path></g><g><path d="M -36.25 20 l 0 15 l 15 0 l 17.5 -17.5 l -1.2 -1.2 l -8.7 8.7 l -12.6 0 l 0 -10 q -3.85 7.75 -10 5 z"></path></g></g></g></g></svg><svg x="429" y="0" width="23" height="52" viewBox="0 0 75.65 172.294907" preserveAspectRatio="xMidYMid meet" color="#fff" fill="#fff" stroke="none"><g transform="translate(37.825 86.147453)"><g><g><path d="M -27.924999999999994 -42.525000000000006 l -9.9 9.95 l 47.35 58.35 l 0.05 0 l 1.4 1.75 l 7.5 -7.5 l -42.7 -52.55 l 52.05 0 l 10 -10 l -65.75 0 z"></path><g><path d="M 25.97500000000001 42.525000000000006 l 7.5 -7.5 l -15 -15 q -6.8 0.5 -7.5 7.5 l 15 15 z"></path></g></g></g></g></svg><svg x="455" y="0" width="18" height="52" viewBox="0 0 60 172.294907" preserveAspectRatio="xMidYMid meet" color="#fff" fill="#fff" stroke="none"><g transform="translate(30 86.147453)"><g><g><path d="M -20 -52.074999999999996 l -10 10 l 0 30 l 30 30 l 7.5 -7.5 l -27.5 -27.5 l 0 -35 z"></path><g><path d="M -30 -42.074999999999996 l 0 5 q 6.25 -9 10 -5 l 0 -7.6 l 11.8 11.7 l 7 -7 l -12.95 -12.95 l -15.85 15.85 z"></path></g><g><path d="M 2.6000000000000014 27.925000000000004 l 17.4 0 l 10 -10 l -15 0 l 10 -10 l -20 0 q -7 -2.95 -7.6 0 q -1.65 2.7 2.6 10 l 12.55 0 l -9.95 10 z"></path></g><path d="M -7.600000000000001 47.925000000000004 l 8.8 -8.8 l -1.2 -1.2 l -20 20 l 30 0 l 10 -10 l -27.6 0 z"></path></g></g></g></svg><svg x="476" y="0" width="21" height="52" viewBox="0 0 70 172.294907" preserveAspectRatio="xMidYMid meet" color="#fff" fill="#fff" stroke="none"><g transform="translate(35 86.147453)"><g><g><path d="M -7 -4.4 l 7.45 -7.5 27.05 34.4 7.5 -7.5 -27.8 -36 -7.75 7.8 -26.95 -34.3 -7.5 7.5 28 35.6 z"></path><path d="M 31.950000000000003 16.1 q -1.825 3.28 -4.45 6.4 l -7.5 7.5 l -1.2 -1.2 l 7.5 -7.5 q -1.688 -4.106 -0.35 -4.55 q 1.45 -0.6 6 -0.65 z"></path><path d="M -15 40 l 7.5 7.5 l 7.5 -7.5 l -7.5 -7.5 l -7.5 7.5 z"></path></g></g></g></svg><svg x="500" y="0" width="23" height="52" viewBox="0 0 75.65 172.294907" preserveAspectRatio="xMidYMid meet" color="#fff" fill="#fff" stroke="none"><g transform="translate(37.825 86.147453)"><g><g><path d="M -27.924999999999994 -42.525000000000006 l -9.9 9.95 l 47.35 58.35 l 0.05 0 l 1.4 1.75 l 7.5 -7.5 l -42.7 -52.55 l 52.05 0 l 10 -10 l -65.75 0 z"></path><g><path d="M 25.97500000000001 42.525000000000006 l 7.5 -7.5 l -15 -15 q -6.8 0.5 -7.5 7.5 l 15 15 z"></path></g></g></g></g></svg><svg x="526" y="0" width="22" height="52" viewBox="0 0 72.5 172.294907" preserveAspectRatio="xMidYMid meet" color="#fff" fill="#fff" stroke="none"><g transform="translate(36.25 86.147453)"><g><g><path d="M -26.25 -35 l -10 10 l 0 60 l 10 -10 l 0 -50 l 30 0 l 10 -10 l -40 0 z"></path><g><path d="M 36.25 -27.5 l -1.2 -1.2 l -7.5 7.5 l -13.8 -13.8 q -8.65 2.75 -10 10 l 5 0 l 12.5 12.5 l 15 -15 z"></path></g><g><path d="M -36.25 20 l 0 15 l 15 0 l 17.5 -17.5 l -1.2 -1.2 l -8.7 8.7 l -12.6 0 l 0 -10 q -3.85 7.75 -10 5 z"></path></g></g></g></g></svg><svg x="551" y="0" width="11" height="52" viewBox="0 0 37.15 172.294907" preserveAspectRatio="xMidYMid meet" color="#fff" fill="#fff" stroke="none"><g transform="translate(18.575 86.147453)"><g><g><path d="M 1.4250000000000007 -11.15 l -10 10 l 0 -33.85 l -10 10 l 0 36.2 l 10 -9.95 l 0 33.75 l 10 -10 l 0 -36.15 z"></path><g><path d="M 1.0749999999999993 22.9 q -0.375 0.363 -1.15 1.15 q -6.261 1.099 -8.5 -3.8 l 0 14.75 l 10 -10 l 10 10 l 7.15 -7.15 l -11.3 -11.2 l -5.85 5.9 q -0.04 0.029 -0.35 0.35 z"></path></g></g></g></g></svg><svg x="565" y="0" width="32" height="52" viewBox="0 0 105 172.294907" preserveAspectRatio="xMidYMid meet" color="#fff" fill="#fff" stroke="none"><g transform="translate(52.5 86.147453)"><g><g><path d="M -7 3.700000000000001 l 7.45 -7.5 27.05 34.4 7.5 -7.5 -27.8 -36 -7.75 7.8 -26.95 -34.3 -7.5 7.5 28 35.6 z"></path><path d="M -24.9 -29.4 q 1.65 -2.7 -2.6 -10 l -12.6 0 l 7.5 -7.5 l -1.2 -1.2 l -18.7 18.7 l 20 0 q 7 2.95 7.6 0 z"></path><path d="M 24.900000000000006 20.6 q -1.655 2.716 2.6 10 l 15 0 l 10 -10 l -20 0 q -7.015 -2.931 -7.6 0 z"></path><path d="M -22.5 13.100000000000001 l -10 10 l 0 25 l 10 -10 l 0 -25 z"></path><path d="M 27.599999999999994 -29.4 l -8.8 8.8 l 1.2 1.2 l 20 -20 l -30 0 l -10 10 l 27.6 0 z"></path></g></g></g></svg><svg x="600" y="0" width="22" height="52" viewBox="0 0 74.3 172.294907" preserveAspectRatio="xMidYMid meet" color="#fff" fill="#fff" stroke="none"><g transform="translate(37.15 86.147453)"><g><g><path d="M -4.850000000000001 17.5 l 7.45 -7.5 27.05 34.4 7.5 -7.5 -27.8 -36 -7.75 7.8 -26.95 -34.3 -7.5 7.5 28 35.6 z"></path><path d="M -37.15 -37.4 l 11.8 11.8 l -5 5 q 7.681 1.687 7.1 -0.5 l -0.95 -3.35 l 7.05 -7.05 l -13 -12.9 z"></path></g></g></g></svg><svg x="625" y="0" width="20" height="52" viewBox="0 0 65 172.294907" preserveAspectRatio="xMidYMid meet" color="#fff" fill="#fff" stroke="none"><g transform="translate(32.5 86.147453)"><g><g><path d="M -25 -35 l -7.5 7.5 57.5 62.5 7.5 -7.5 -57.5 -62.5 z"></path></g></g></g></svg><svg x="648" y="0" width="14" height="52" viewBox="0 0 45 172.294907" preserveAspectRatio="xMidYMid meet" color="#fff" fill="#fff" stroke="none"><g transform="translate(22.5 86.147453)"><g><g><path d="M 12.5 -11.799999999999999 l -10 10 l 0 -33.85 l -10 10 l 0 36.2 l 10 -9.95 l 0 33.75 l 10 -10 l 0 -36.15 z"></path><g><path d="M 2.5 -20.65 l 0 -15 l -12.6 0 l 7.5 -7.5 l -1.2 -1.2 l -18.7 18.7 l 15 0 l 0 10 q 3.85 -7.75 10 -5 z"></path></g><g><path d="M -9.9 44.35 l 22.4 0 l 10 -10.1 l -19.9 0 l -0.1 0.1 l 0 -0.1 l 0.05 0 l 9.95 -9.9 l 0 -5 q -5 5.774 -10 5 l 0 7.55 l -12.4 12.4 z"></path></g></g></g></g></svg><svg x="665" y="0" width="19" height="52" viewBox="0 0 61.9 172.294907" preserveAspectRatio="xMidYMid meet" color="#fff" fill="#fff" stroke="none"><g transform="translate(30.95 86.147453)"><g><g><path d="M -19.150000000000002 -25.6 l -7.5 7.5 l 31.25 31.25 l -31.25 31.25 l 40 0 l 10 -10 l -37.6 0 l 27.5 -27.6 l -32.4 -32.4 z"></path><g><path d="M -30.950000000000003 -37.4 l 11.8 11.8 l -5 5 q 7.681 1.687 7.1 -0.5 l -0.95 -3.35 l 7.05 -7.05 l -13 -12.9 z"></path></g><g><path d="M 15.700000000000003 34.4 q 0.465 4.718 -7.9 10 l 5.55 0 l 17.6 -17.6 l 0 -15 l -10 10 l 0 12.6 l -5.25 0 z"></path></g></g></g></g></svg><svg x="687" y="0" width="25" height="52" viewBox="0 0 82.5 172.294907" preserveAspectRatio="xMidYMid meet" color="#fff" fill="#fff" stroke="none"><g transform="translate(41.25 86.147453)"><g><g><path d="M -33.75 -47.5 l -7.5 7.5 57.5 62.5 7.5 -7.5 -57.5 -62.5 z"></path><path d="M 13.649999999999999 12.5 q -1.65 2.7 2.6 10 l 12.6 0 l -7.5 7.5 l 1.2 1.2 l 18.7 -18.7 l -20 0 q -7 -2.95 -7.6 0 z"></path><path d="M -23.75 40 l 7.5 7.5 l 7.5 -7.5 l -7.5 -7.5 l -7.5 7.5 z"></path></g></g></g></svg><svg x="715" y="0" width="18" height="52" viewBox="0 0 59.45 172.294907" preserveAspectRatio="xMidYMid meet" color="#fff" fill="#fff" stroke="none"><g transform="translate(29.725 86.147453)"><g><g><path d="M 29.675000000000004 -45 l -50 0 l -9.4 9.4 l 23.2 33.05 l 6.2 -6.25 l 0 33.8 l 10 -10 l 0 -36.15 l -1.1 1.1 q -2.967 2.977 -5.95 5.95 l -1.95 2 l -0.65 0.65 l -16.5 -23.5 l 36.2 0 l 10 -10 z"></path><g><path d="M 9.675000000000004 32.6 l 0 -17.6 q -7.3 -5 -10 10 l 0 20 l 17.5 -17.5 l -1.2 -1.2 l -6.3 6.3 z"></path></g></g></g></g></svg><svg x="736" y="0" width="17" height="52" viewBox="0 0 54.85 172.294907" preserveAspectRatio="xMidYMid meet" color="#fff" fill="#fff" stroke="none"><g transform="translate(27.425 86.147453)"><g><g><path d="M -17.425000000000004 -26.17499999999999 l -10 10 l 0 40 l 9.55 -9.55 l 20.65 29.4 l 7.5 -7.5 l -21.6 -30.85 l -6.1 6.1 l 0 -37.6 z"></path><g><path d="M -17.425000000000004 -46.175 l -10 10 l 0 20 q 7.3 5 10 -10 l 0 -20 z"></path></g><g><path d="M 5.274999999999999 41.175 l 5 -5 l 10 10 l 7.15 -7.15 l -11.3 -11.2 l -7 7.1 l -1 1 q -3.183 -1.742 -3.85 0 q -0.916 1.293 0 6.25 z"></path></g></g></g></g></svg><svg x="756" y="0" width="15" height="52" viewBox="0 0 50 172.294907" preserveAspectRatio="xMidYMid meet" color="#fff" fill="#fff" stroke="none"><g transform="translate(25 86.147453)"><g><g><path d="M -10 -25 l -10 10 l 0 35 l 19.95 0 l -24.95 25 l 40 0 l 10 -10 l -37.6 0 l 24.85 -25 l -22.25 0 l 0 -35 z"></path><path d="M 10 -35 l 10 -10 l -30 0 l -10 10 l 30 0 z"></path></g></g></g></svg><svg x="774" y="0" width="28" height="52" viewBox="0 0 93.15 172.294907" preserveAspectRatio="xMidYMid meet" color="#fff" fill="#fff" stroke="none"><g transform="translate(46.575 86.147453)"><g><g><path d="M -36.675 -32.525 l -9.9 9.95 l 47.35 58.35 l 0.05 0 l 1.4 1.75 l 7.5 -7.5 l -42.7 -52.55 l 52.05 0 l 10 -10 l -65.75 0 z"></path><g><path d="M 6.675000000000004 -12.524999999999999 l 22.4 0 l 17.5 -17.5 l -1.2 -1.2 l -8.7 8.7 l -17.6 0 l 10 -10 l -12.65 0 q 5.5 3.45 -5.3 10 l 5.5 0 l -9.95 10 z"></path></g><g><path d="M 9.725000000000001 30.025000000000013 q -6.8 0.5 -7.5 7.5 l 15 15 l 15 -15 l -1.2 -1.2 l -7.5 7.5 l -13.8 -13.8 z"></path></g><path d="M 10 -42.525000000000006 l 10 -10 l -30 0 l -10 10 l 30 0 z"></path></g></g></g></svg><svg x="805" y="0" width="20" height="52" viewBox="0 0 65 172.294907" preserveAspectRatio="xMidYMid meet" color="#fff" fill="#fff" stroke="none"><g transform="translate(32.5 86.147453)"><g><g><path d="M -25 -45 l -7.5 7.5 57.5 62.5 7.5 -7.5 -57.5 -62.5 z"></path><path d="M 2.5 45 l 10 -10 l -30 0 l -10 10 l 30 0 z"></path></g></g></g></svg><svg x="828" y="0" width="18" height="52" viewBox="0 0 60 172.294907" preserveAspectRatio="xMidYMid meet" color="#fff" fill="#fff" stroke="none"><g transform="translate(30 86.147453)"><g><g><path d="M 20 -25 l 10 -10 l -50 0 l -10 10 l 0 35 l 10 -10 l 15 0 l 0 35 l 10 -10 l 0 -35 l -17.35 0 l -7.65 7.6 l 0 -22.6 l 40 0 z"></path></g></g></g></svg><svg x="849" y="0" width="13" height="52" viewBox="0 0 42.55 172.294907" preserveAspectRatio="xMidYMid meet" color="#fff" fill="#fff" stroke="none"><g transform="translate(21.275 86.147453)"><g><g><path d="M 21.275000000000002 -19.35 l -10 10 l 0 -33.85 l -10 10 l 0 36.2 l 10 -9.95 l 0 33.75 l 10 -10 l 0 -36.15 z"></path><g><path d="M 21.275000000000002 16.799999999999997 l 0 -7.3 q -4.546 5.888 -10 3.05 l 0 11.95 l -15.05 0 l -17.5 17.5 l 1.2 1.2 l 8.7 -8.7 l 15 0 l 17.65 -17.7 z"></path></g></g></g></g></svg><svg x="865" y="0" width="16" height="52" viewBox="0 0 53.15 172.294907" preserveAspectRatio="xMidYMid meet" color="#fff" fill="#fff" stroke="none"><g transform="translate(26.575 86.146434)"><g><g><path d="M 13.424999999999997 2.277546564832498 l 10 -10 l -29.85 -29.85 l -7.5 7.5 l 22.35 22.35 l -20 0 l -15 15 l 25.6 25.6 l 7.5 -7.5 l -23.1 -23.1 l 30 0 z"></path><g><path d="M 5.3749999999999964 24.2275465648325 l 0 -0.05 q -8.1 -2.8 -6.35 8.7 l 6.35 -6.3 q 9.4 17.75 21.2 6.85 q -12.25 2.15 -14.85 -15.5 l -6.35 6.3 z"></path></g></g></g></g></svg><svg x="884" y="0" width="23" height="52" viewBox="0 0 75.65 172.294907" preserveAspectRatio="xMidYMid meet" color="#fff" fill="#fff" stroke="none"><g transform="translate(37.825 86.147453)"><g><g><path d="M 27.824999999999996 -24.925 l 10 -10 l -65.75 0 l -9.9 9.95 l 30.45 37.55 l 7.25 -7.3 l 24.15 29.65 l 7.45 -7.4 l -25.2 -31.05 l -7.5 7.45 l -23.1 -28.85 l 52.15 0 z"></path></g></g></g></svg><svg x="910" y="0" width="23" height="52" viewBox="0 0 75.65 172.294907" preserveAspectRatio="xMidYMid meet" color="#fff" fill="#fff" stroke="none"><g transform="translate(37.825 86.147453)"><g><g><path d="M 27.824999999999996 -24.925 l 10 -10 l -65.75 0 l -9.9 9.95 l 30.45 37.55 l 7.25 -7.3 l 24.15 29.65 l 7.45 -7.4 l -25.2 -31.05 l -7.5 7.45 l -23.1 -28.85 l 52.15 0 z"></path></g></g></g></svg><svg x="936" y="0" width="16" height="52" viewBox="0 0 53.15 172.294907" preserveAspectRatio="xMidYMid meet" color="#fff" fill="#fff" stroke="none"><g transform="translate(26.575 86.146434)"><g><g><path d="M 13.424999999999997 2.277546564832498 l 10 -10 l -29.85 -29.85 l -7.5 7.5 l 22.35 22.35 l -20 0 l -15 15 l 25.6 25.6 l 7.5 -7.5 l -23.1 -23.1 l 30 0 z"></path><g><path d="M 5.3749999999999964 24.2275465648325 l 0 -0.05 q -8.1 -2.8 -6.35 8.7 l 6.35 -6.3 q 9.4 17.75 21.2 6.85 q -12.25 2.15 -14.85 -15.5 l -6.35 6.3 z"></path></g></g></g></g></svg><svg x="955" y="0" width="13" height="52" viewBox="0 0 42.55 172.294907" preserveAspectRatio="xMidYMid meet" color="#fff" fill="#fff" stroke="none"><g transform="translate(21.275 86.147453)"><g><g><path d="M 21.275000000000002 -19.35 l -10 10 l 0 -33.85 l -10 10 l 0 36.2 l 10 -9.95 l 0 33.75 l 10 -10 l 0 -36.15 z"></path><g><path d="M 21.275000000000002 16.799999999999997 l 0 -7.3 q -4.546 5.888 -10 3.05 l 0 11.95 l -15.05 0 l -17.5 17.5 l 1.2 1.2 l 8.7 -8.7 l 15 0 l 17.65 -17.7 z"></path></g></g></g></g></svg><svg x="971" y="0" width="18" height="52" viewBox="0 0 60 172.294907" preserveAspectRatio="xMidYMid meet" color="#fff" fill="#fff" stroke="none"><g transform="translate(30 86.147453)"><g><g><path d="M 20 -25 l 10 -10 l -50 0 l -10 10 l 0 35 l 10 -10 l 15 0 l 0 35 l 10 -10 l 0 -35 l -17.35 0 l -7.65 7.6 l 0 -22.6 l 40 0 z"></path></g></g></g></svg><svg x="992" y="0" width="20" height="52" viewBox="0 0 65 172.294907" preserveAspectRatio="xMidYMid meet" color="#fff" fill="#fff" stroke="none"><g transform="translate(32.5 86.147453)"><g><g><path d="M -25 -45 l -7.5 7.5 57.5 62.5 7.5 -7.5 -57.5 -62.5 z"></path><path d="M 2.5 45 l 10 -10 l -30 0 l -10 10 l 30 0 z"></path></g></g></g></svg><svg x="1015" y="0" width="28" height="52" viewBox="0 0 93.15 172.294907" preserveAspectRatio="xMidYMid meet" color="#fff" fill="#fff" stroke="none"><g transform="translate(46.575 86.147453)"><g><g><path d="M -36.675 -32.525 l -9.9 9.95 l 47.35 58.35 l 0.05 0 l 1.4 1.75 l 7.5 -7.5 l -42.7 -52.55 l 52.05 0 l 10 -10 l -65.75 0 z"></path><g><path d="M 6.675000000000004 -12.524999999999999 l 22.4 0 l 17.5 -17.5 l -1.2 -1.2 l -8.7 8.7 l -17.6 0 l 10 -10 l -12.65 0 q 5.5 3.45 -5.3 10 l 5.5 0 l -9.95 10 z"></path></g><g><path d="M 9.725000000000001 30.025000000000013 q -6.8 0.5 -7.5 7.5 l 15 15 l 15 -15 l -1.2 -1.2 l -7.5 7.5 l -13.8 -13.8 z"></path></g><path d="M 10 -42.525000000000006 l 10 -10 l -30 0 l -10 10 l 30 0 z"></path></g></g></g></svg><svg x="1046" y="0" width="15" height="52" viewBox="0 0 50 172.294907" preserveAspectRatio="xMidYMid meet" color="#fff" fill="#fff" stroke="none"><g transform="translate(25 86.147453)"><g><g><path d="M -10 -25 l -10 10 l 0 35 l 19.95 0 l -24.95 25 l 40 0 l 10 -10 l -37.6 0 l 24.85 -25 l -22.25 0 l 0 -35 z"></path><path d="M 10 -35 l 10 -10 l -30 0 l -10 10 l 30 0 z"></path></g></g></g></svg><svg x="1064" y="0" width="17" height="52" viewBox="0 0 54.85 172.294907" preserveAspectRatio="xMidYMid meet" color="#fff" fill="#fff" stroke="none"><g transform="translate(27.425 86.147453)"><g><g><path d="M -17.425000000000004 -26.17499999999999 l -10 10 l 0 40 l 9.55 -9.55 l 20.65 29.4 l 7.5 -7.5 l -21.6 -30.85 l -6.1 6.1 l 0 -37.6 z"></path><g><path d="M -17.425000000000004 -46.175 l -10 10 l 0 20 q 7.3 5 10 -10 l 0 -20 z"></path></g><g><path d="M 5.274999999999999 41.175 l 5 -5 l 10 10 l 7.15 -7.15 l -11.3 -11.2 l -7 7.1 l -1 1 q -3.183 -1.742 -3.85 0 q -0.916 1.293 0 6.25 z"></path></g></g></g></g></svg><svg x="1084" y="0" width="18" height="52" viewBox="0 0 59.45 172.294907" preserveAspectRatio="xMidYMid meet" color="#fff" fill="#fff" stroke="none"><g transform="translate(29.725 86.147453)"><g><g><path d="M 29.675000000000004 -45 l -50 0 l -9.4 9.4 l 23.2 33.05 l 6.2 -6.25 l 0 33.8 l 10 -10 l 0 -36.15 l -1.1 1.1 q -2.967 2.977 -5.95 5.95 l -1.95 2 l -0.65 0.65 l -16.5 -23.5 l 36.2 0 l 10 -10 z"></path><g><path d="M 9.675000000000004 32.6 l 0 -17.6 q -7.3 -5 -10 10 l 0 20 l 17.5 -17.5 l -1.2 -1.2 l -6.3 6.3 z"></path></g></g></g></g></svg><svg x="1105" y="0" width="25" height="52" viewBox="0 0 82.5 172.294907" preserveAspectRatio="xMidYMid meet" color="#fff" fill="#fff" stroke="none"><g transform="translate(41.25 86.147453)"><g><g><path d="M -33.75 -47.5 l -7.5 7.5 57.5 62.5 7.5 -7.5 -57.5 -62.5 z"></path><path d="M 13.649999999999999 12.5 q -1.65 2.7 2.6 10 l 12.6 0 l -7.5 7.5 l 1.2 1.2 l 18.7 -18.7 l -20 0 q -7 -2.95 -7.6 0 z"></path><path d="M -23.75 40 l 7.5 7.5 l 7.5 -7.5 l -7.5 -7.5 l -7.5 7.5 z"></path></g></g></g></svg><svg x="1133" y="0" width="19" height="52" viewBox="0 0 61.9 172.294907" preserveAspectRatio="xMidYMid meet" color="#fff" fill="#fff" stroke="none"><g transform="translate(30.95 86.147453)"><g><g><path d="M -19.150000000000002 -25.6 l -7.5 7.5 l 31.25 31.25 l -31.25 31.25 l 40 0 l 10 -10 l -37.6 0 l 27.5 -27.6 l -32.4 -32.4 z"></path><g><path d="M -30.950000000000003 -37.4 l 11.8 11.8 l -5 5 q 7.681 1.687 7.1 -0.5 l -0.95 -3.35 l 7.05 -7.05 l -13 -12.9 z"></path></g><g><path d="M 15.700000000000003 34.4 q 0.465 4.718 -7.9 10 l 5.55 0 l 17.6 -17.6 l 0 -15 l -10 10 l 0 12.6 l -5.25 0 z"></path></g></g></g></g></svg><svg x="1155" y="0" width="14" height="52" viewBox="0 0 45 172.294907" preserveAspectRatio="xMidYMid meet" color="#fff" fill="#fff" stroke="none"><g transform="translate(22.5 86.147453)"><g><g><path d="M 12.5 -11.799999999999999 l -10 10 l 0 -33.85 l -10 10 l 0 36.2 l 10 -9.95 l 0 33.75 l 10 -10 l 0 -36.15 z"></path><g><path d="M 2.5 -20.65 l 0 -15 l -12.6 0 l 7.5 -7.5 l -1.2 -1.2 l -18.7 18.7 l 15 0 l 0 10 q 3.85 -7.75 10 -5 z"></path></g><g><path d="M -9.9 44.35 l 22.4 0 l 10 -10.1 l -19.9 0 l -0.1 0.1 l 0 -0.1 l 0.05 0 l 9.95 -9.9 l 0 -5 q -5 5.774 -10 5 l 0 7.55 l -12.4 12.4 z"></path></g></g></g></g></svg><svg x="1172" y="0" width="20" height="52" viewBox="0 0 65 172.294907" preserveAspectRatio="xMidYMid meet" color="#fff" fill="#fff" stroke="none"><g transform="translate(32.5 86.147453)"><g><g><path d="M -25 -35 l -7.5 7.5 57.5 62.5 7.5 -7.5 -57.5 -62.5 z"></path></g></g></g></svg><svg x="1195" y="0" width="22" height="52" viewBox="0 0 74.3 172.294907" preserveAspectRatio="xMidYMid meet" color="#fff" fill="#fff" stroke="none"><g transform="translate(37.15 86.147453)"><g><g><path d="M -4.850000000000001 17.5 l 7.45 -7.5 27.05 34.4 7.5 -7.5 -27.8 -36 -7.75 7.8 -26.95 -34.3 -7.5 7.5 28 35.6 z"></path><path d="M -37.15 -37.4 l 11.8 11.8 l -5 5 q 7.681 1.687 7.1 -0.5 l -0.95 -3.35 l 7.05 -7.05 l -13 -12.9 z"></path></g></g></g></svg><svg x="1220" y="0" width="32" height="52" viewBox="0 0 105 172.294907" preserveAspectRatio="xMidYMid meet" color="#fff" fill="#fff" stroke="none"><g transform="translate(52.5 86.147453)"><g><g><path d="M -7 3.700000000000001 l 7.45 -7.5 27.05 34.4 7.5 -7.5 -27.8 -36 -7.75 7.8 -26.95 -34.3 -7.5 7.5 28 35.6 z"></path><path d="M -24.9 -29.4 q 1.65 -2.7 -2.6 -10 l -12.6 0 l 7.5 -7.5 l -1.2 -1.2 l -18.7 18.7 l 20 0 q 7 2.95 7.6 0 z"></path><path d="M 24.900000000000006 20.6 q -1.655 2.716 2.6 10 l 15 0 l 10 -10 l -20 0 q -7.015 -2.931 -7.6 0 z"></path><path d="M -22.5 13.100000000000001 l -10 10 l 0 25 l 10 -10 l 0 -25 z"></path><path d="M 27.599999999999994 -29.4 l -8.8 8.8 l 1.2 1.2 l 20 -20 l -30 0 l -10 10 l 27.6 0 z"></path></g></g></g></svg><svg x="1255" y="0" width="11" height="52" viewBox="0 0 37.15 172.294907" preserveAspectRatio="xMidYMid meet" color="#fff" fill="#fff" stroke="none"><g transform="translate(18.575 86.147453)"><g><g><path d="M 1.4250000000000007 -11.15 l -10 10 l 0 -33.85 l -10 10 l 0 36.2 l 10 -9.95 l 0 33.75 l 10 -10 l 0 -36.15 z"></path><g><path d="M 1.0749999999999993 22.9 q -0.375 0.363 -1.15 1.15 q -6.261 1.099 -8.5 -3.8 l 0 14.75 l 10 -10 l 10 10 l 7.15 -7.15 l -11.3 -11.2 l -5.85 5.9 q -0.04 0.029 -0.35 0.35 z"></path></g></g></g></g></svg><svg x="1269" y="0" width="22" height="52" viewBox="0 0 72.5 172.294907" preserveAspectRatio="xMidYMid meet" color="#fff" fill="#fff" stroke="none"><g transform="translate(36.25 86.147453)"><g><g><path d="M -26.25 -35 l -10 10 l 0 60 l 10 -10 l 0 -50 l 30 0 l 10 -10 l -40 0 z"></path><g><path d="M 36.25 -27.5 l -1.2 -1.2 l -7.5 7.5 l -13.8 -13.8 q -8.65 2.75 -10 10 l 5 0 l 12.5 12.5 l 15 -15 z"></path></g><g><path d="M -36.25 20 l 0 15 l 15 0 l 17.5 -17.5 l -1.2 -1.2 l -8.7 8.7 l -12.6 0 l 0 -10 q -3.85 7.75 -10 5 z"></path></g></g></g></g></svg><svg x="1294" y="0" width="23" height="52" viewBox="0 0 75.65 172.294907" preserveAspectRatio="xMidYMid meet" color="#fff" fill="#fff" stroke="none"><g transform="translate(37.825 86.147453)"><g><g><path d="M -27.924999999999994 -42.525000000000006 l -9.9 9.95 l 47.35 58.35 l 0.05 0 l 1.4 1.75 l 7.5 -7.5 l -42.7 -52.55 l 52.05 0 l 10 -10 l -65.75 0 z"></path><g><path d="M 25.97500000000001 42.525000000000006 l 7.5 -7.5 l -15 -15 q -6.8 0.5 -7.5 7.5 l 15 15 z"></path></g></g></g></g></svg><svg x="1320" y="0" width="21" height="52" viewBox="0 0 70 172.294907" preserveAspectRatio="xMidYMid meet" color="#fff" fill="#fff" stroke="none"><g transform="translate(35 86.147453)"><g><g><path d="M -7 -4.4 l 7.45 -7.5 27.05 34.4 7.5 -7.5 -27.8 -36 -7.75 7.8 -26.95 -34.3 -7.5 7.5 28 35.6 z"></path><path d="M 31.950000000000003 16.1 q -1.825 3.28 -4.45 6.4 l -7.5 7.5 l -1.2 -1.2 l 7.5 -7.5 q -1.688 -4.106 -0.35 -4.55 q 1.45 -0.6 6 -0.65 z"></path><path d="M -15 40 l 7.5 7.5 l 7.5 -7.5 l -7.5 -7.5 l -7.5 7.5 z"></path></g></g></g></svg><svg x="1344" y="0" width="18" height="52" viewBox="0 0 60 172.294907" preserveAspectRatio="xMidYMid meet" color="#fff" fill="#fff" stroke="none"><g transform="translate(30 86.147453)"><g><g><path d="M -20 -52.074999999999996 l -10 10 l 0 30 l 30 30 l 7.5 -7.5 l -27.5 -27.5 l 0 -35 z"></path><g><path d="M -30 -42.074999999999996 l 0 5 q 6.25 -9 10 -5 l 0 -7.6 l 11.8 11.7 l 7 -7 l -12.95 -12.95 l -15.85 15.85 z"></path></g><g><path d="M 2.6000000000000014 27.925000000000004 l 17.4 0 l 10 -10 l -15 0 l 10 -10 l -20 0 q -7 -2.95 -7.6 0 q -1.65 2.7 2.6 10 l 12.55 0 l -9.95 10 z"></path></g><path d="M -7.600000000000001 47.925000000000004 l 8.8 -8.8 l -1.2 -1.2 l -20 20 l 30 0 l 10 -10 l -27.6 0 z"></path></g></g></g></svg><svg x="1365" y="0" width="16" height="52" viewBox="0 0 53.15 172.294907" preserveAspectRatio="xMidYMid meet" color="#fff" fill="#fff" stroke="none"><g transform="translate(26.575 86.146434)"><g><g><path d="M 13.424999999999997 2.277546564832498 l 10 -10 l -29.85 -29.85 l -7.5 7.5 l 22.35 22.35 l -20 0 l -15 15 l 25.6 25.6 l 7.5 -7.5 l -23.1 -23.1 l 30 0 z"></path><g><path d="M 5.3749999999999964 24.2275465648325 l 0 -0.05 q -8.1 -2.8 -6.35 8.7 l 6.35 -6.3 q 9.4 17.75 21.2 6.85 q -12.25 2.15 -14.85 -15.5 l -6.35 6.3 z"></path></g></g></g></g></svg><svg x="1384" y="0" width="23" height="52" viewBox="0 0 75.65 172.294907" preserveAspectRatio="xMidYMid meet" color="#fff" fill="#fff" stroke="none"><g transform="translate(37.825 86.147453)"><g><g><path d="M 27.824999999999996 -24.925 l 10 -10 l -65.75 0 l -9.9 9.95 l 30.45 37.55 l 7.25 -7.3 l 24.15 29.65 l 7.45 -7.4 l -25.2 -31.05 l -7.5 7.45 l -23.1 -28.85 l 52.15 0 z"></path></g></g></g></svg><svg x="1410" y="0" width="18" height="52" viewBox="0 0 60 172.294907" preserveAspectRatio="xMidYMid meet" color="#fff" fill="#fff" stroke="none"><g transform="translate(30 86.147453)"><g><g><path d="M -20 -52.074999999999996 l -10 10 l 0 30 l 30 30 l 7.5 -7.5 l -27.5 -27.5 l 0 -35 z"></path><g><path d="M -30 -42.074999999999996 l 0 5 q 6.25 -9 10 -5 l 0 -7.6 l 11.8 11.7 l 7 -7 l -12.95 -12.95 l -15.85 15.85 z"></path></g><g><path d="M 2.6000000000000014 27.925000000000004 l 17.4 0 l 10 -10 l -15 0 l 10 -10 l -20 0 q -7 -2.95 -7.6 0 q -1.65 2.7 2.6 10 l 12.55 0 l -9.95 10 z"></path></g><path d="M -7.600000000000001 47.925000000000004 l 8.8 -8.8 l -1.2 -1.2 l -20 20 l 30 0 l 10 -10 l -27.6 0 z"></path></g></g></g></svg><svg x="1431" y="0" width="21" height="52" viewBox="0 0 70 172.294907" preserveAspectRatio="xMidYMid meet" color="#fff" fill="#fff" stroke="none"><g transform="translate(35 86.147453)"><g><g><path d="M -7 -4.4 l 7.45 -7.5 27.05 34.4 7.5 -7.5 -27.8 -36 -7.75 7.8 -26.95 -34.3 -7.5 7.5 28 35.6 z"></path><path d="M 31.950000000000003 16.1 q -1.825 3.28 -4.45 6.4 l -7.5 7.5 l -1.2 -1.2 l 7.5 -7.5 q -1.688 -4.106 -0.35 -4.55 q 1.45 -0.6 6 -0.65 z"></path><path d="M -15 40 l 7.5 7.5 l 7.5 -7.5 l -7.5 -7.5 l -7.5 7.5 z"></path></g></g></g></svg></g>
</svg>
