<svg xmlns="http://www.w3.org/2000/svg" viewBox="0 0 332.5 118.8" width="332.5" height="118.8" fill="currentColor" stroke="none">
<g transform="translate(166.25 59.4)"><g><g><path d="M -156.25 -29.39999999999999 l -10 10 l 0 60 l 10 -10 l 0 -60 z"></path></g><g><path d="M -80.60000000000001 -19.324999999999992 l 10 -10 l -65.75 0 l -9.9 9.95 l 30.45 37.55 l 7.25 -7.3 l 24.15 29.65 l 7.45 -7.4 l -25.2 -31.05 l -7.5 7.45 l -23.1 -28.85 l 52.15 0 z"></path><g><path d="M -76.9 33.025000000000006 q -6.8 0.5 -7.5 7.5 l 15 15 l 15 -15 l -1.2 -1.2 l -7.5 7.5 l -13.8 -13.8 z"></path></g><path d="M -90.325 -39.32499999999999 l 10 -10 l -30 0 l -10 10 l 30 0 z"></path></g><g><path d="M -26.200000000000017 -29.39999999999999 l -10 10 l 0 60 l 10 -10 l 0 -60 z"></path><g><path d="M -24.400000000000006 52.400000000000006 l -11.8 -11.8 l 10 -10 l 0 -5 q -5.188 7.964 -10 5 l 0 7.7 l -8.2 8.2 l 13 12.9 l 7 -7 z"></path></g></g><g><path d="M -4.5 -29.42499999999999 l -9.9 9.95 l 47.35 58.35 l 0.05 0 l 1.4 1.75 l 7.5 -7.5 l -42.7 -52.55 l 52.05 0 l 10 -10 l -65.75 0 z"></path><path d="M 33.42500000000001 -39.42499999999999 l 10 -10 l -30 0 l -10 10 l 30 0 z"></path></g><g><path d="M 81.25 -29.39999999999999 l -10 10 l 0 60 l 10 -10 l 0 -60 z"></path><g><path d="M 71.25 25.60000000000001 l 0 15 l 10 -10 l 0 20 l 10 -9.9 l 0 -22.4 l -10 9.95 l 0 -5.15 q -5 6.1 -10 2.5 z"></path></g></g><g><path d="M 121.25 -29.39999999999999 l -10 10 l 0 35 l 26.3 0 l 8.7 -8.75 l 0 33.75 l 10 -10 l 0 -36.15 l -11.15 11.15 l -23.85 0 l 0 -35 z"></path><g><path d="M 133.64999999999998 -39.39999999999999 l -22.4 0 l -10 10.1 l 19.9 0 l 0.1 -0.1 l 0 0.1 l -0.05 0 l -9.95 9.9 l 0 5 q 5 -5.774 10 -5 l 0 -7.55 l 12.4 -12.4 z"></path></g><g><path d="M 133.85000000000002 50.60000000000001 l 22.4 0 l 10 -10.1 l -19.9 0 l -0.1 0.1 l 0 -0.1 l 0.05 0 l 9.95 -9.9 l 0 -5 q -5 5.774 -10 5 l 0 7.55 l -12.4 12.4 z"></path></g><path d="M 143.75 -49.39999999999999 l 10 -10 l -30 0 l -10 10 l 30 0 z"></path></g></g></g>
</svg>
