<svg xmlns="http://www.w3.org/2000/svg" viewBox="0 0 72.7 172.294907" width="72.7" height="172.294907" fill="currentColor" stroke="none">
<g transform="translate(36.35 86.147453)"><g><g><path d="M -16.050000000000004 -40 l -7.5 7.5 l 31.25 31.25 l -31.25 31.25 l 40 0 l 10 -10 l -37.6 0 l 27.5 -27.6 l -32.4 -32.4 z"></path><g><path d="M -15.150000000000006 -38.4 l 11.2 -11.3 l -22.4 0 l -10 10.1 l 19.9 0 l -7.1 7.1 q 10.446 1.157 8.4 -5.9 z"></path></g><g><path d="M 16.449999999999996 30 l 0 14.9 l 10 -10.1 l 0 14.9 l 9.9 -9.9 l 0 -17.4 l -9.9 9.9 l 0 -12.3 l -15 0 q 2.75 6.15 -5 10 l 10 0 z"></path></g></g></g></g>
</svg>
