<svg xmlns="http://www.w3.org/2000/svg" viewBox="0 0 61.8 172.294907" width="61.8" height="172.294907" fill="currentColor" stroke="none">
<g transform="translate(30.9 86.147453)"><g><g><path d="M -19.099999999999998 -23.099999999999994 l -10 10 l 0 30 l 30 30 l 7.5 -7.5 l -27.5 -27.5 l 0 -35 z"></path><g><path d="M -30.9 -34.89999999999999 l 11.8 11.8 l -10 10 l 0 5 q 5.188 -7.964 10 -5 l 0 -7.7 l 8.2 -8.2 l -13 -12.9 l -7 7 z"></path></g><g><path d="M 8.399999999999999 39.400000000000006 q -6.8 0.5 -7.5 7.5 l 15 15 l 15 -15 l -1.2 -1.2 l -7.5 7.5 l -13.8 -13.8 z"></path></g><path d="M 10 -51.9 l 10 -10 l -30 0 l -10 10 l 30 0 z"></path></g></g></g>
</svg>
