<svg xmlns="http://www.w3.org/2000/svg" viewBox="0 0 135 95" width="135" height="95" fill="currentColor" stroke="none">
<g transform="translate(67.5 47.5)"><g><g><path d="M -39.5 -4.4 l 7.45 -7.5 27.05 34.4 7.5 -7.5 -27.8 -36 -7.75 7.8 -26.95 -34.3 -7.5 7.5 28 35.6 z"></path><path d="M -55 5 l -10 10 l 0 25 l 10 -10 l 0 -25 z"></path><path d="M -47.5 40 l 7.5 7.5 l 7.5 -7.5 l -7.5 -7.5 l -7.5 7.5 z"></path></g><g><path d="M 67.5 -47.475 l -10 10 l 0 20 l -35 0 l -10 10 l 29.95 29.95 l 7.5 -7.5 l -22.45 -22.45 l 30 0 l 10 -10 l 0 -30 z"></path></g></g></g>
</svg>
