<svg xmlns="http://www.w3.org/2000/svg" viewBox="0 0 61.8 172.294907" width="61.8" height="172.294907" fill="currentColor" stroke="none">
<g transform="translate(30.9 86.147453)"><g><g><path d="M -10.900000000000002 -35.650000000000006 l -10 10 l 0 50 l -10 10 l 45 0 l 10 -10 l -42.6 0 l 7.6 -7.6 l 0 -42.4 l 30 0 l 10 -10 l -40 0 z"></path><g><path d="M 30.899999999999995 -13.850000000000005 l -11.8 -11.8 l 10 -10 l -11.15 0 q 3.75 5.2 -5.8 10 l 4.65 0 l -5.9 5.9 l 13 12.9 l 7 -7 z"></path></g><g><path d="M 24.099999999999998 24.349999999999994 l -15 0 q 2.75 6.15 -5 10 l 10 0 l 0 12.6 l -7.5 7.5 l 1.2 1.2 l 16.3 -16.3 l 0 -15 z"></path></g><path d="M 10.000000000000004 -45.650000000000006 l 10 -10 l -30 0 l -10 10 l 30 0 z"></path></g></g></g>
</svg>
