<svg xmlns="http://www.w3.org/2000/svg" viewBox="0 0 289.4 131.4" width="289.4" height="131.4" fill="currentColor" stroke="none">
<g transform="translate(144.7 65.7)"><g><g><path d="M -89.70000000000002 29.299999999999997 l 7.5 -7.5 -26.9 -26.9 7.45 -7.55 -28.05 -28.05 -7.5 7.5 26.9 26.9 -7.5 7.5 28.1 28.1 z"></path><path d="M -130.8 -37.650000000000006 q -3.28 1.825 -6.4 4.45 l -7.5 7.5 l 1.2 1.2 l 7.5 -7.5 q 4.106 1.688 4.55 0.35 q 0.6 -1.45 0.65 -6 z"></path><path d="M -92.30000000000001 19.299999999999997 q -1.655 2.716 2.6 10 l 15 0 l 10 -10 l -20 0 q -7.015 -2.931 -7.6 0 z"></path><path d="M -117.20000000000002 -58.2 l 7.5 7.5 l 7.5 -7.5 l -7.5 -7.5 l -7.5 7.5 z"></path></g><g><path d="M -12.150000000000006 -40.7 l -10 10 l 0 60 l 10 -10 l 0 -50 l 30 0 l 10 -10 l -40 0 z"></path><g><path d="M -12.150000000000006 19.299999999999997 l 0 -7.3 q -4.546 5.888 -10 3.05 l 0 11.95 l -15.05 0 l -17.5 17.5 l 1.2 1.2 l 8.7 -8.7 l 15 0 l 17.65 -17.7 z"></path></g><path d="M -3.4250000000000114 65.7 l 10 -10 l -30 0 l -10 10 l 30 0 z"></path></g><g><path d="M 47.849999999999994 -40.7 l -10 10 l 0 60 l 10 -10 l 0 -60 z"></path><g><path d="M 47.900000000000006 -38.400000000000006 l 15 0 l 10 -10 l -17.4 0 l -17.65 17.7 l 0 7.3 q 5.4 -4.35 10 -2.75 l 0 -12.25 z"></path></g></g><g><path d="M 102.9 -40.7 l -10 10 l 0 50 l -10 10 l 45 0 l 10 -10 l -42.6 0 l 7.6 -7.6 l 0 -42.4 l 30 0 l 10 -10 l -40 0 z"></path><g><path d="M 144.70000000000002 -18.900000000000002 l -11.8 -11.8 l 10 -10 l -11.15 0 q 3.75 5.2 -5.8 10 l 4.65 0 l -5.9 5.9 l 13 12.9 l 7 -7 z"></path></g><g><path d="M 137.9 19.299999999999997 l -15 0 q 2.75 6.15 -5 10 l 10 0 l 0 12.6 l -7.5 7.5 l 1.2 1.2 l 16.3 -16.3 l 0 -15 z"></path></g><path d="M 123.79999999999998 -50.7 l 10 -10 l -30 0 l -10 10 l 30 0 z"></path></g></g></g>
</svg>
