<svg xmlns="http://www.w3.org/2000/svg" viewBox="0 0 95 110" width="95" height="110" fill="currentColor" stroke="none">
<g transform="translate(47.5 55)"><g><g><path d="M -37.5 -35 l -10 10 l 0 60 l 10 -10 l 0 -60 z"></path><g><path d="M -47.5 20 l 0 15 l 15 0 l 10 -10 l -15 0 l 0 -10 q -3.874 7.753 -10 5 z"></path></g></g><g><path d="M 2.549999999999997 -25 l 34.95 0 l 10 -10 l -50 0 l -10 10 l 25 25 l 0 35 l 10 -10 l 0 -30.05 l -19.95 -19.95 z"></path><g><path d="M 12.5 55 l 10 -10 l 0 -20 q -7.3 -5 -10 10 l 0 20 z"></path></g><path d="M 27.5 -45 l 10 -10 l -30 0 l -10 10 l 30 0 z"></path></g></g></g>
</svg>
