<svg xmlns="http://www.w3.org/2000/svg" viewBox="0 0 57.4 172.294907" width="57.4" height="172.294907" fill="currentColor" stroke="none">
<g transform="translate(28.7 86.148473)"><g><g><path d="M 18.7 -0.5275465648325053 l 10 -10 l -29.85 -29.85 l -7.5 7.5 l 22.35 22.35 l -20 0 l -15 15 l 25.6 25.6 l 7.5 -7.5 l -23.1 -23.1 l 30 0 z"></path><g><path d="M -7.5 -31.727546564832508 l 0 0.05 q 8.1 2.8 6.35 -8.7 l -6.35 6.3 q -9.4 -17.75 -21.2 -6.85 q 12.25 -2.15 14.85 15.5 l 6.35 -6.3 z"></path></g><g><path d="M 24.3 20.072453435167496 l -15 0 q -7 -2.95 -7.6 0 q -1.65 2.7 2.6 10 l 10 0 l 0 15 l 10 -10 l 0 -15 z"></path></g></g></g></g>
</svg>
