<svg xmlns="http://www.w3.org/2000/svg" viewBox="0 0 265.75 119.696946" width="265.75" height="119.696946" fill="currentColor" stroke="none">
<g transform="translate(132.875 59.848473)"><g><g><path d="M -79.82499999999997 8.251527050610823 l 7.45 -7.5 27.05 34.4 7.5 -7.5 -27.8 -36 -7.75 7.8 -26.95 -34.3 -7.5 7.5 28 35.6 z"></path><path d="M -107.82499999999997 -27.348472949389176 l -15.05 0 l -10 10 l 17.45 0 l 8.75 -8.8 q 6.9 0.2 3.8 -6.15 l -4.95 4.95 z"></path><path d="M -40.87499999999997 28.751527050610825 q -1.825 3.28 -4.45 6.4 l -7.5 7.5 l -1.2 -1.2 l 7.5 -7.5 q -1.688 -4.106 -0.35 -4.55 q 1.45 -0.6 6 -0.65 z"></path><path d="M -45.224999999999966 -24.848472949389176 l -8.8 8.8 l 1.2 1.2 l 20 -20 l -30 0 l -10 10 l 27.6 0 z"></path><path d="M -80.32499999999997 -52.348472949389176 l 7.5 7.5 l 7.5 -7.5 l -7.5 -7.5 l -7.5 7.5 z"></path></g><g><path d="M 42.82500000000002 -24.773472949389177 l 10 -10 l -65.75 0 l -9.9 9.95 l 30.45 37.55 l 7.25 -7.3 l 24.15 29.65 l 7.45 -7.4 l -25.2 -31.05 l -7.5 7.45 l -23.1 -28.85 l 52.15 0 z"></path><path d="M 25.00000000000003 55.07652705061082 l 10 -10 l -30 0 l -10 10 l 30 0 z"></path></g><g><path d="M 105.32500000000002 35.151527050610824 l 7.5 -7.5 l -31.25 -31.25 l 31.25 -31.25 l -40 0 l -10 10 l 37.6 0 l -27.5 27.6 l 32.4 32.4 z"></path><g><path d="M 111.67499999999998 26.501527050610825 l 0 -0.05 q -8.1 -2.8 -6.35 8.7 l 6.35 -6.3 q 9.4 17.75 21.2 6.85 q -12.25 2.15 -14.85 -15.5 l -6.35 6.3 z"></path></g><path d="M 107.85 59.848472949389176 l 10 -10 l -30 0 l -10 10 l 30 0 z"></path></g></g></g>
</svg>
