<svg xmlns="http://www.w3.org/2000/svg" viewBox="0 0 57.4 172.294907" width="57.4" height="172.294907" fill="currentColor" stroke="none">
<g transform="translate(28.7 86.160475)"><g><g><path d="M 12.5 -15.083337833492495 l -10 10 l 0 -33.85 l -10 10 l 0 36.2 l 10 -9.95 l 0 33.75 l 10 -10 l 0 -36.15 z"></path><g><path d="M 2.4999999999999964 -23.283337833492496 l 0 -15.65 l -10 10 q -9.4 -17.75 -21.2 -6.85 q 12.25 -2.15 14.85 15.5 l 6.35 -6.3 l 0 8.1 q 4.8 -9.5 10 -4.8 z"></path></g><g><path d="M 2.4999999999999964 15.416662166507507 l 0 15.65 l 10 -10.05 q 10.8 2.6 16.2 18.85 q 0.35 -21.9 -9.85 -27.5 l -6.35 6.35 l 0 -8.1 q -4.8 9.5 -10 4.8 z"></path></g></g></g></g>
</svg>
