<svg xmlns="http://www.w3.org/2000/svg" viewBox="0 0 60.6 133.8" width="60.6" height="133.8" fill="currentColor" stroke="none">
<g transform="translate(30.3 66.9)"><g><g fill="currentColor"><path d="M -14.000000000000004 -66.9 l -7.5 7.5 l 31.25 31.25 l -31.25 31.25 l 40 0 l 10 -10 l -37.6 0 l 27.5 -27.6 l -32.4 -32.4 z"></path><g><path d="M -20.300000000000004 -58.2 q 6.486 1.216 4.75 -5 q -2.924 3.894 -5.95 3.8 l -8.8 8.8 l 0 15 l 10 -10 l 0 -12.6 z"></path></g><g><path d="M 30.299999999999994 14.899999999999991 l -11.8 -11.8 l 10 -10 l -11.15 0 q 3.75 5.2 -5.8 10 l 4.65 0 l -5.9 5.9 l 13 12.9 l 7 -7 z"></path></g><path d="M -10.000000000000004 41.89999999999999 l 0 25 l 20 -20 l -1.2 -1.2 l -8.8 8.8 l 0 -22.6 l -10 10 z"></path></g></g></g>
</svg>
