<svg xmlns="http://www.w3.org/2000/svg" viewBox="0 0 50 123.8" width="50" height="123.8" fill="currentColor" stroke="none">
<g transform="translate(25 61.9)"><g><g fill="currentColor"><path d="M 15 16.9 l 10 -10 l 0 -60 l -10 10 l 0 50 l -30 0 l -10 10 l 40 0 z"></path><g><path d="M 25 -37.45 l 0 -15.65 l -10 10.05 q -10.8 -2.6 -16.2 -18.85 q -0.35 21.9 9.85 27.5 l 6.35 -6.35 l 0 8.1 q 4.8 -9.5 10 -4.8 z"></path></g><g><path d="M 2.5 -23.300000000000004 l -1.2 -1.2 l -16.3 16.3 l 0 15.1 l -10 10 l 18.3 0 q -4.75 -2.3 1.7 -10 l -7.6 0 l -0.25 0.2 l 7.85 -7.85 l 0 -15.05 l 7.5 -7.5 z"></path></g><path d="M -10 36.9 l 0 25 l 20 -20 l -1.2 -1.2 l -8.8 8.8 l 0 -22.6 l -10 10 z"></path></g></g></g>
</svg>
