<svg xmlns="http://www.w3.org/2000/svg" viewBox="0 0 63.2 172.294907" width="63.2" height="172.294907" fill="currentColor" stroke="none">
<g transform="translate(31.6 86.147453)"><g><g><path d="M -23.400000000000002 3.0749999999999957 l 10 -10 l 0 -20 l 35 0 l 10 -10 l -29.95 -29.95 l -7.5 7.5 l 22.45 22.45 l -30 0 l -10 10 l 0 30 z"></path><g><path d="M -4.650000000000002 -58.175 q 6.486 1.216 4.75 -5 q -2.924 3.894 -5.95 3.8 l -8.8 8.8 l 0 15 l 10 -10 l 0 -12.6 z"></path></g><g><path d="M -11.600000000000001 14.875 l -11.8 -11.8 l 10 -10 l 0 -5 q -5.188 7.964 -10 5 l 0 7.7 l -8.2 8.2 l 13 12.9 l 7 -7 z"></path></g><path d="M 9.999999999999996 56.875 l 0 -25 l -20 20 l 1.2 1.2 l 8.8 -8.8 l 0 22.6 l 10 -10 z"></path></g></g></g>
</svg>
