<svg xmlns="http://www.w3.org/2000/svg" viewBox="0 0 58.85 172.294907" width="58.85" height="172.294907" fill="currentColor" stroke="none">
<g transform="translate(29.425 86.147453)"><g><g><path d="M -19.424999999999997 -40 l -10 10 l 0 60 l 10 -10 l 0 -50 l 30 0 l 10 -10 l -40 0 z"></path><g><path d="M 6.925000000000004 -40 q 2.585 3.848 -6.35 10 l 7.65 0 l -6.3 6.35 q 5.6 10.2 27.5 9.85 q -16.25 -5.4 -18.85 -16.2 l 10 -10 l -13.65 0 z"></path></g><g><path d="M 0.5750000000000028 30 l -15 0 l 10 -10 l -15 0 l 0 -10 q -3.85 7.75 -10 5 l 0 15 l 12.55 0 l -9.95 10 l 17.4 0 l 10 -10 z"></path></g></g></g></g>
</svg>
