<svg xmlns="http://www.w3.org/2000/svg" viewBox="0 0 350.05 103.725" width="350.05" height="103.725" fill="currentColor" stroke="none">
<g transform="translate(175.025 51.8625)"><g><g><path d="M -167.525 -43.1625 l -7.5 7.5 57.5 62.5 7.5 -7.5 -57.5 -62.5 z"></path></g><g><path d="M -24.37500000000003 -43.1875 l -65.75 0 l -9.9 9.95 l 25.7 25.7 l -7.5 7.5 l 26.9 26.9 l 7.5 -7.5 l -25.7 -25.7 l 7.45 -7.55 l -19.3 -19.3 l 50.6 0 l 10 -10 z"></path><g><path d="M -24.37500000000003 -43.18750000000001 l -15 0 q 2.75 6.15 -5 10 l 10 0 l 0 12.6 l -7.5 7.5 l 1.2 1.2 l 16.3 -16.3 l 0 -15 z"></path></g><g><path d="M -52.42500000000001 24.362500000000004 l 5 -5 l 10 10 l 7.15 -7.15 l -11.3 -11.2 l -7 7.1 l -1 1 q -3.183 -1.742 -3.85 0 q -0.916 1.293 0 6.25 z"></path></g><path d="M -52.20000000000002 49.362500000000004 l 10 -10 l -30 0 l -10 10 l 30 0 z"></path></g><g><path d="M 5.625 -19.3125 l -10 10 l 0 -33.85 l -10 10 l 0 36.2 l 10 -9.95 l 0 33.75 l 10 -10 l 0 -36.15 z"></path><g><path d="M -0.6750000000000114 43.2375 l 16.3 -16.3 l 0 -22.45 l -10 10 l 0 -5.15 q -5 6.1 -10 2.5 l 0 15 l 10 -10 l 0 17.7 l -7.5 7.5 l 1.2 1.2 z"></path></g></g><g><path d="M 35.525000000000006 -43.1875 l -9.9 9.95 l 47.35 58.35 l 0.05 0 l 1.4 1.75 l 7.5 -7.5 l -42.7 -52.55 l 52.05 0 l 10 -10 l -65.75 0 z"></path><path d="M 55.95000000000002 44.36250000000001 l 7.5 7.5 l 7.5 -7.5 l -7.5 -7.5 l -7.5 7.5 z"></path></g><g><path d="M 117.525 -33.1625 q 24.3 9.1 15 21.3 l 1.25 1.15 q 15.85 -14.1 3.75 -22.45 l 20 0 l 17.5 -17.5 l -1.2 -1.2 l -8.7 8.7 l -37.6 0 l -10 10 z"></path><path d="M 121.275 -13.162500000000001 l -10 10 l 50 0 l 10 -10 l -50 0 z"></path></g></g></g>
</svg>
