<svg xmlns="http://www.w3.org/2000/svg" viewBox="0 0 105.65 108.825" width="105.65" height="108.825" fill="currentColor" stroke="none">
<g transform="translate(52.825 54.4125)"><g><g><path d="M -34.625 -34.38750000000001 l -10 10 l 0 60 l 10 -10 l 0 -60 z"></path><g><path d="M -32.824999999999996 47.41249999999999 l -11.8 -11.8 l 10 -10 l 0 -5 q -5.188 7.964 -10 5 l 0 7.7 l -8.2 8.2 l 13 12.9 l 7 -7 z"></path></g></g><g><path d="M -12.924999999999997 -34.41250000000001 l -9.9 9.95 l 47.35 58.35 l 0.05 0 l 1.4 1.75 l 7.5 -7.5 l -42.7 -52.55 l 52.05 0 l 10 -10 l -65.75 0 z"></path><path d="M 25.000000000000007 -44.41250000000001 l 10 -10 l -30 0 l -10 10 l 30 0 z"></path></g></g></g>
</svg>
