<svg xmlns="http://www.w3.org/2000/svg" viewBox="0 0 237.55 108.7" width="237.55" height="108.7" fill="currentColor" stroke="none">
<g transform="translate(118.775 54.35)"><g><g><path d="M -108.77499999999999 -24.35 l -10 10 l 0 60 l 10 -10 l 0 -60 z"></path><g><path d="M -108.725 -22.050000000000004 l 15 0 l 10 -10 l -17.4 0 l -17.65 17.7 l 0 7.3 q 5.4 -4.35 10 -2.75 l 0 -12.25 z"></path></g></g><g><path d="M -18.724999999999994 -24.325000000000003 l -10 10 l 0 20 l -35 0 l -10 10 l 29.95 29.95 l 7.5 -7.5 l -22.45 -22.45 l 30 0 l 10 -10 l 0 -30 z"></path><g><path d="M -37.474999999999994 36.92499999999998 q -6.486 -1.216 -4.75 5 q 2.924 -3.894 5.95 -3.8 l 8.8 -8.8 l 0 -15 l -10 10 l 0 12.6 z"></path></g><path d="M -36.224999999999994 -34.32500000000001 l 10 -10 l -30 0 l -10 10 l 30 0 z"></path></g><g><path d="M 1.2750000000000057 -24.35 l -10 10 l 0 60 l 10 -10 l 0 -60 z"></path></g><g><path d="M 31.27500000000002 -24.35 l -10 10 l 0 35 l 26.3 0 l 8.7 -8.75 l 0 33.75 l 10 -10 l 0 -36.15 l -11.15 11.15 l -23.85 0 l 0 -35 z"></path><g><path d="M 43.675000000000026 -34.35 l -22.4 0 l -10 10.1 l 19.9 0 l 0.1 -0.1 l 0 0.1 l -0.05 0 l -9.95 9.9 l 0 5 q 5 -5.774 10 -5 l 0 -7.55 l 12.4 -12.4 z"></path></g><g><path d="M 66.27500000000002 24.45 q -5 12.14 -10 11.2 l 0 10 l 17.5 -17.5 l -1.2 -1.2 l -6.3 6.3 l 0 -8.8 z"></path></g><path d="M 52.52500000000002 -44.35 l 10 -10 l -30 0 l -10 10 l 30 0 z"></path></g><g><path d="M 103.77500000000002 -0.5000000000000018 l -10 10 l 0 -33.85 l -10 10 l 0 36.2 l 10 -9.95 l 0 33.75 l 10 -10 l 0 -36.15 z"></path><g><path d="M 93.77500000000002 30.65 l 0 15 l 12.6 0 l -7.5 7.5 l 1.2 1.2 l 18.7 -18.7 l -15 0 l 0 -10 q -3.85 7.75 -10 5 z"></path></g></g></g></g>
</svg>
