<svg xmlns="http://www.w3.org/2000/svg" viewBox="0 0 381.25 140.85" width="381.25" height="140.85" fill="currentColor" stroke="none">
<g transform="translate(190.625 70.425)"><g><g><path d="M -154.375 -10.424999999999997 l 7.5 -7.5 -32.5 -32.5 -7.5 7.5 32.5 32.5 m -17.5 -10 l -7.5 7.5 32.5 32.5 7.5 -7.5 -32.5 -32.5 z"></path><path d="M -160.625 39.575 l 10 -10 l -30 0 l -10 10 l 30 0 z"></path></g><g><path d="M -114.325 -40.425 l 34.95 0 l 10 -10 l -50 0 l -10 10 l 25 25 l 0 35 l 10 -10 l 0 -30.05 l -19.95 -19.95 z"></path><g><path d="M -104.375 4.575000000000003 l 0 15 l 10 -10 l 0 20 l 10 -9.9 l 0 -22.4 l -10 9.95 l 0 -5.15 q -5 6.1 -10 2.5 z"></path></g></g><g><path d="M -26.875 -52.925 l 12.5 12.5 l -25 0 l -10 10 l 40 0 l 10 -10 l -20 -20 l -7.5 7.5 z"></path><path d="M -49.375 -20.424999999999997 l -10 10 l 50 0 l 10 -10 l -50 0 z"></path></g><g><path d="M 28.82499999999999 -50.425 l -10 10 l 0 60 l 10 -10 l 0 -60 z"></path><g><path d="M 30.625 31.375 l -11.8 -11.8 l 10 -10 l 0 -5 q -5.188 7.964 -10 5 l 0 7.7 l -8.2 8.2 l 13 12.9 l 7 -7 z"></path></g></g><g><path d="M 50.625 -50.425 l -10 10 l 0 36.3 l 10 -10.05 l 0 33.75 l 10 -10 l 0 -36.15 l -10 10 l 0 -23.85 l 30 0 l 10 -10 l -40 0 z"></path><g><path d="M 60.625 27.175000000000004 l 0 -17.6 q -7.3 -5 -10 10 l 0 20 l 17.5 -17.5 l -1.2 -1.2 l -6.3 6.3 z"></path></g><path d="M 75.625 -60.425 l 10 -10 l -30 0 l -10 10 l 30 0 z"></path></g><g fill="currentColor"><path d="M 118.125 -50.425 l -10 10 l 0 35 l 26.3 0 l 8.7 -8.75 l 0 33.75 l 10 -10 l 0 -36.15 l -11.15 11.15 l -23.85 0 l 0 -35 z"></path><g><path d="M 108.125 -29.224999999999998 q 5 -12.14 10 -11.2 l 0 -10 l -17.5 17.5 l 1.2 1.2 l 6.3 -6.3 l 0 8.8 z"></path></g><g><path d="M 153.125 9.575000000000003 l 0 -5 q -6.25 9 -10 5 l 0 7.6 l -11.8 -11.7 l -7 7 l 12.95 12.95 l 15.85 -15.85 z"></path></g><path d="M 136.875 60.425 l 0 -25 l -20 20 l 1.2 1.2 l 8.8 -8.8 l 0 22.6 l 10 -10 z"></path></g><g fill="currentColor"><path d="M 183.125 -26.574999999999996 l -10 10 l 0 -33.85 l -10 10 l 0 36.2 l 10 -9.95 l 0 33.75 l 10 -10 l 0 -36.15 z"></path><g><path d="M 183.125 -1.6249999999999964 q -5 12.14 -10 11.2 l 0 10 l 17.5 -17.5 l -1.2 -1.2 l -6.3 6.3 l 0 -8.8 z"></path></g></g></g></g>
</svg>
