<svg xmlns="http://www.w3.org/2000/svg" viewBox="0 0 202.55 113.7" width="202.55" height="113.7" fill="currentColor" stroke="none">
<g transform="translate(101.275 56.85)"><g><g><path d="M -68.72500000000001 -23.15 l -7.5 7.5 57.5 62.5 7.5 -7.5 -57.5 -62.5 z"></path><path d="M -76.22500000000001 -15.649999999999999 l -15.05 0 l -10 10 l 17.45 0 l 8.75 -8.8 q 6.9 0.2 3.8 -6.15 l -4.95 4.95 z"></path></g><g><path d="M 61.275000000000006 46.85 l 10 -10 l 0 -36.3 l -10 10.05 l 0 -33.75 l -10 10 l 0 36.15 l 10 -10 l 0 23.85 l -30 0 l -10 10 l 40 0 z"></path><g><path d="M 61.275000000000006 -8.149999999999999 l 0 -15 l -12.6 0 l 7.5 -7.5 l -1.2 -1.2 l -18.7 18.7 l 15 0 l 0 10 q 3.85 -7.75 10 -5 z"></path></g><g><path d="M -1.2250000000000085 39.35 l 1.2 1.2 l 7.5 -7.5 l 13.8 13.8 q 8.65 -2.75 10 -10 l -5 0 l -12.5 -12.5 l -15 15 z"></path></g><path d="M 27.525000000000006 -49.35 l 7.5 7.5 l 7.5 -7.5 l -7.5 -7.5 l -7.5 7.5 z"></path></g><g><path d="M 91.275 -23.15 l -10 10 l 0 60 l 10 -10 l 0 -60 z"></path><g><path d="M 81.275 31.85 l 0 15 l 10 -10 l 0 20 l 10 -9.9 l 0 -22.4 l -10 9.95 l 0 -5.15 q -5 6.1 -10 2.5 z"></path></g></g></g></g>
</svg>
