<svg xmlns="http://www.w3.org/2000/svg" viewBox="0 0 117 118.8" width="117" height="118.8" fill="currentColor" stroke="none">
<g transform="translate(58.5 59.4)"><g><g><path d="M -48.5 -20.6 l -10 10 l 0 60 l 10 -10 l 0 -60 z"></path><g><path d="M -48.45 -18.300000000000004 l 15 0 l 10 -10 l -17.4 0 l -17.65 17.7 l 0 7.3 q 5.4 -4.35 10 -2.75 l 0 -12.25 z"></path></g><g><path d="M -58.5 34.4 l 0 15 l 15 0 l 10 -10 l -15 0 l 0 -10 q -3.874 7.753 -10 5 z"></path></g></g><g><path d="M -1.6500000000000057 -20.6 l -7.5 7.5 l 31.25 31.25 l -31.25 31.25 l 40 0 l 10 -10 l -37.6 0 l 27.5 -27.6 l -32.4 -32.4 z"></path><g><path d="M -13.450000000000003 -32.4 l 11.8 11.8 l -5 5 q 7.681 1.687 7.1 -0.5 l -0.95 -3.35 l 7.05 -7.05 l -13 -12.9 z"></path></g><g><path d="M 46 31.9 l -7.5 7.5 l -11.1 0 q 3.05 5.25 -1.5 10 l 5 0 l 8.8 -8.85 q 0.445 14.232 18.8 18.85 q -12.993 -10.704 -12.45 -27.5 z"></path></g><path d="M 32.52499999999999 -49.4 l 10 -10 l -30 0 l -10 10 l 30 0 z"></path></g></g></g>
</svg>
