<svg xmlns="http://www.w3.org/2000/svg" viewBox="0 0 452.2 127.475" width="452.2" height="127.475" fill="currentColor" stroke="none">
<g transform="translate(226.1 63.7375)"><g><g><path d="M -203.69999999999996 -38.73749999999999 l -10 10 l 0 60 l 10 -10 l 0 -60 z"></path><g><path d="M -226.09999999999997 41.26250000000001 l 22.4 0 l 10 -10.1 l -19.9 0 l -0.1 0.1 l 0 -0.1 l 0.05 0 l 9.95 -9.9 l 0 -5 q -5 5.774 -10 5 l 0 7.55 l -12.4 12.4 z"></path></g></g><g><path d="M -168.64999999999998 -28.73749999999999 l 34.95 0 l 10 -10 l -50 0 l -10 10 l 25 25 l 0 35 l 10 -10 l 0 -30.05 l -19.95 -19.95 z"></path><path d="M -143.69999999999996 -48.73749999999999 l 10 -10 l -30 0 l -10 10 l 30 0 z"></path></g><g><path d="M -106.19999999999996 -38.73749999999999 l -7.5 7.5 57.5 62.5 7.5 -7.5 -57.5 -62.5 z"></path></g><g><path d="M 16.30000000000004 -38.71249999999999 l -10 10 l 0 20 l -35 0 l -10 10 l 29.95 29.95 l 7.5 -7.5 l -22.45 -22.45 l 30 0 l 10 -10 l 0 -30 z"></path><g><path d="M 28.700000000000045 -48.7125 l -22.4 0 l -10 10.1 l 19.9 0 l 0.1 -0.1 l 0 0.1 l -0.05 0 l -9.95 9.9 l 0 5 q 5 -5.774 10 -5 l 0 -7.55 l 12.4 -12.4 z"></path></g><g><path d="M -6.249999999999972 28.73749999999999 l 5 -5 l 10 10 l 7.15 -7.15 l -11.3 -11.2 l -7 7.1 l -1 1 q -3.183 -1.742 -3.85 0 q -0.916 1.293 0 6.25 z"></path></g><path d="M -12.599999999999966 53.73749999999999 l 8.8 -8.8 l -1.2 -1.2 l -20 20 l 30 0 l 10 -10 l -27.6 0 z"></path></g><g><path d="M 58.69999999999999 -14.88749999999999 l -10 10 l 0 -33.85 l -10 10 l 0 36.2 l 10 -9.95 l 0 33.75 l 10 -10 l 0 -36.15 z"></path><g><path d="M 48.69999999999999 51.26250000000001 l 10 -10 l 0 -20 q -7.3 -5 -10 10 l 0 20 z"></path></g></g><g><path d="M 78.69999999999999 -38.73749999999999 l -10 10 l 0 60 l 10 -10 l 0 -50 l 30 0 l 10 -10 l -40 0 z"></path><path d="M 86.19999999999999 -56.23749999999999 l 7.5 7.5 l 7.5 -7.5 l -7.5 -7.5 l -7.5 7.5 z"></path><path d="M 103.69999999999999 51.26250000000001 l 10 -10 l -30 0 l -10 10 l 30 0 z"></path></g><g><path d="M 151.09999999999997 -38.73749999999999 l -10 10 l 0 60 l 10 -10 l 0 -60 z"></path><g><path d="M 128.7 41.26250000000001 l 22.4 0 l 10 -10.1 l -19.9 0 l -0.1 0.1 l 0 -0.1 l 0.05 0 l 9.95 -9.9 l 0 -5 q -5 5.774 -10 5 l 0 7.55 l -12.4 12.4 z"></path></g></g><g><path d="M 226.09999999999997 -38.71249999999999 l -10 10 l 0 20 l -35 0 l -10 10 l 29.95 29.95 l 7.5 -7.5 l -22.45 -22.45 l 30 0 l 10 -10 l 0 -30 z"></path><g><path d="M 200.14999999999998 29.63749999999999 l -11.2 11.3 l 22.4 0 l 10 -10.1 l -19.9 0 l 7.1 -7.1 q -10.446 -1.157 -8.4 5.9 z"></path></g><path d="M 208.59999999999997 -48.7125 l 10 -10 l -30 0 l -10 10 l 30 0 z"></path></g></g></g>
</svg>
