<svg xmlns="http://www.w3.org/2000/svg" viewBox="0 0 81.3 172.294907" width="81.3" height="172.294907" fill="currentColor" stroke="none">
<g transform="translate(40.65 86.147453)"><g><g><path d="M -16.949999999999996 -29.375 l -10 10 l 17.5 17.5 l -15 0 l -16.2 16.15 l 26.35 26.35 l 7.5 -7.5 l -25 -25 l 32.35 0 l 7.5 -7.5 l -20 -20 l 35 0 l 10 -10 l -50 0 z"></path><g><path d="M 25.400000000000006 -29.375 q 0.465 4.718 -7.9 10 l 5.55 0 l 17.6 -17.6 l 0 -15 l -10 10 l 0 12.6 l -5.25 0 z"></path></g><g><path d="M 9.400000000000006 51.975 q 0.35 -21.9 -9.85 -27.5 l -6.3 6.35 l -2 2 q -8.054 -2.82 -4.35 6.65 l 6.3 -6.35 q 10.8 2.6 16.2 18.85 z"></path></g></g></g></g>
</svg>
