<svg xmlns="http://www.w3.org/2000/svg" viewBox="0 0 90.05 172.294907" width="90.05" height="172.294907" fill="currentColor" stroke="none">
<g transform="translate(45.025 86.147453)"><g><g><path d="M -2.4749999999999943 -28.85 l -10 10 l 0 60 l 10 -10 l 0 -50 l 30 0 l 10 -10 l -40 0 z"></path><g><path d="M 17.525000000000006 -18.85 l 10 0 l 17.5 -17.5 l -1.2 -1.2 l -8.7 8.7 l -7.6 0 q 0.83 5.4 -10 10 z"></path></g><g><path d="M -2.4749999999999943 31.15 l 0 -7.3 q -4.546 5.888 -10 3.05 l 0 11.95 l -15.05 0 l -17.5 17.5 l 1.2 1.2 l 8.7 -8.7 l 15 0 l 17.65 -17.7 z"></path></g><path d="M 10.000000000000007 -47.550000000000004 l 10 -10 l -30 0 l -10 10 l 30 0 z"></path></g></g></g>
</svg>
