<svg xmlns="http://www.w3.org/2000/svg" viewBox="0 0 132.45 115.1" width="132.45" height="115.1" fill="currentColor" stroke="none">
<g transform="translate(66.225 57.55)"><g><g><path d="M -43.824999999999996 -28.85 l -10 10 l 0 60 l 10 -10 l 0 -60 z"></path><g><path d="M -66.225 51.15 l 22.4 0 l 10 -10.1 l -19.9 0 l -0.1 0.1 l 0 -0.1 l 0.05 0 l 9.95 -9.9 l 0 -5 q -5 5.774 -10 5 l 0 7.55 l -12.4 12.4 z"></path></g></g><g><path d="M 18.724999999999994 -28.85 l -10 10 l 0 60 l 10 -10 l 0 -50 l 30 0 l 10 -10 l -40 0 z"></path><g><path d="M 38.724999999999994 -18.85 l 10 0 l 17.5 -17.5 l -1.2 -1.2 l -8.7 8.7 l -7.6 0 q 0.83 5.4 -10 10 z"></path></g><g><path d="M 18.724999999999994 31.15 l 0 -7.3 q -4.546 5.888 -10 3.05 l 0 11.95 l -15.05 0 l -17.5 17.5 l 1.2 1.2 l 8.7 -8.7 l 15 0 l 17.65 -17.7 z"></path></g><path d="M 31.200000000000017 -47.550000000000004 l 10 -10 l -30 0 l -10 10 l 30 0 z"></path></g></g></g>
</svg>
