<svg xmlns="http://www.w3.org/2000/svg" viewBox="0 0 60.2 172.294907" width="60.2" height="172.294907" fill="currentColor" stroke="none">
<g transform="translate(30.1 86.147453)"><g><g><path d="M 29.9 -34.92499999999999 l -50 0 l -10 10 l 0 40 l 9.55 -9.55 l 20.65 29.4 l 7.65 -7.65 l -21.65 -30.8 l -6.2 6.2 l 0 -27.6 l 40 0 l 10 -10 z"></path><g><path d="M 9.899999999999999 -34.925 q 6.368 3.408 0 10 l 10 0 l 10 -10 l 0 -15 l -10 10 l 0 5 l -10 0 z"></path></g><g><path d="M 7.600000000000001 27.424999999999997 q -6.8 0.5 -7.5 7.5 l 15 15 l 15 -15 l -1.2 -1.2 l -7.5 7.5 l -13.8 -13.8 z"></path></g></g></g></g>
</svg>
