<svg xmlns="http://www.w3.org/2000/svg" viewBox="0 0 424.65 137.5" width="424.65" height="137.5" fill="currentColor" stroke="none">
<g transform="translate(212.325 68.75)"><g><g><path d="M -187.67499999999998 -31.25 l -7.5 7.5 57.5 62.5 7.5 -7.5 -57.5 -62.5 z"></path><path d="M -190.17499999999998 -28.75 l -5 5 l -10 -10 l -7.15 7.15 l 11.3 11.2 l 7 -7.1 l 1 -1 q 3.183 1.742 3.85 0 q 0.916 -1.293 0 -6.25 z"></path><path d="M -140.27499999999998 28.75 q -1.655 2.716 2.6 10 l 15 0 l 10 -10 l -20 0 q -7.015 -2.931 -7.6 0 z"></path><path d="M -195.17499999999998 18.75 l 20 20 l 7.5 -7.5 l -20 -20 l -7.5 7.5 z"></path><path d="M -176.42499999999998 -61.25 l 20 20 l 7.5 -7.5 l -20 -20 l -7.5 7.5 z"></path></g><g><path d="M -92.67499999999998 -31.25 l -10 10 l 0 60 l 10 -10 l 0 -50 l 30 0 l 10 -10 l -40 0 z"></path><path d="M -67.67499999999998 -41.25 l 10 -10 l -30 0 l -10 10 l 30 0 z"></path><path d="M -67.67499999999998 58.75 l 10 -10 l -30 0 l -10 10 l 30 0 z"></path></g><g><path d="M 4.825000000000017 38.75 l 7.5 -7.5 -26.9 -26.9 7.45 -7.55 -28.05 -28.05 -7.5 7.5 26.9 26.9 -7.5 7.5 28.1 28.1 z"></path><path d="M -12.674999999999983 58.75 l 10 -10 l -30 0 l -10 10 l 30 0 z"></path></g><g><path d="M 37.37500000000003 -21.25 l 34.95 0 l 10 -10 l -50 0 l -10 10 l 25 25 l 0 35 l 10 -10 l 0 -30.05 l -19.95 -19.95 z"></path><g><path d="M 47.32499999999999 36.35 l -7.5 7.55 q 16.8 -0.55 27.5 12.45 q -4.6 -18.35 -18.85 -18.8 l 8.85 -8.8 l 0 -5 q -4.75 4.55 -10 1.5 l 0 11.1 z"></path></g></g><g><path d="M 102.32499999999999 -31.25 l -10 10 l 0 60 l 10 -10 l 0 -50 l 30 0 l 10 -10 l -40 0 z"></path><path d="M 109.72499999999997 58.75 l 8.8 -8.8 l -1.2 -1.2 l -20 20 l 30 0 l 10 -10 l -27.6 0 z"></path></g><g><path d="M 180.27499999999998 -46.25 l -7.5 7.5 l 21.65 27.5 l 7.45 -7.5 l -21.6 -27.5 z"></path><path d="M 162.325 -1.25 l -10 10 l 50 0 l 10 -10 l -50 0 z"></path></g></g></g>
</svg>
