<svg xmlns="http://www.w3.org/2000/svg" viewBox="0 0 50 172.294907" width="50" height="172.294907" fill="currentColor" stroke="none">
<g transform="translate(25 86.147453)"><g><g><path d="M -15 -35 l -10 10 l 0 36.3 l 10 -10.05 l 0 33.75 l 10 -10 l 0 -36.15 l -10 10 l 0 -23.85 l 30 0 l 10 -10 l -40 0 z"></path><g><path d="M 25 -35 l -15 0 q 2.75 6.15 -5 10 l 10 0 l 0 12.6 l -7.5 7.5 l 1.2 1.2 l 16.3 -16.3 l 0 -15 z"></path></g><g><path d="M -5 42.6 l 0 -17.6 q -7.3 -5 -10 10 l 0 20 l 17.5 -17.5 l -1.2 -1.2 l -6.3 6.3 z"></path></g><path d="M 10 -45 l 10 -10 l -30 0 l -10 10 l 30 0 z"></path></g></g></g>
</svg>
