<svg xmlns="http://www.w3.org/2000/svg" viewBox="0 0 433.25 110" width="433.25" height="110" fill="currentColor" stroke="none">
<g transform="translate(216.625 55)"><g><g><path d="M -209.125 -35 l -7.5 7.5 57.5 62.5 7.5 -7.5 -57.5 -62.5 z"></path><path d="M -154.675 28.6 q -1.825 3.28 -4.45 6.4 l -7.5 7.5 l -1.2 -1.2 l 7.5 -7.5 q -1.688 -4.106 -0.35 -4.55 q 1.45 -0.6 6 -0.65 z"></path></g><g><path d="M -126.575 -25 l 34.95 0 l 10 -10 l -50 0 l -10 10 l 25 25 l 0 35 l 10 -10 l 0 -30.05 l -19.95 -19.95 z"></path><g><path d="M -116.625 55 l 10 -10 l 0 -20 q -7.3 -5 -10 10 l 0 20 z"></path></g></g><g><path d="M -61.625 -35 l -10 10 l 0 60 l 10 -10 l 0 -60 z"></path><g><path d="M -71.625 20 l 0 15 l 10 -10 l 0 20 l 10 -9.9 l 0 -22.4 l -10 9.95 l 0 -5.15 q -5 6.1 -10 2.5 z"></path></g></g><g><path d="M 17.775000000000006 -35 l -50 0 l -9.4 9.4 l 23.2 33.05 l 6.2 -6.25 l 0 33.8 l 10 -10 l 0 -36.15 l -1.1 1.1 q -2.967 2.977 -5.95 5.95 l -1.95 2 l -0.65 0.65 l -16.5 -23.5 l 36.2 0 l 10 -10 z"></path><g><path d="M -12.224999999999994 55 l 10 -10 l 0 -20 q -7.3 -5 -10 10 l 0 20 z"></path></g><path d="M -1.9000000000000057 -45 l 10 -10 l -30 0 l -10 10 l 30 0 z"></path></g><g><path d="M 35.32499999999999 -35 l -7.5 7.5 57.5 62.5 7.5 -7.5 -57.5 -62.5 z"></path><path d="M 62.82499999999999 55 l 10 -10 l -30 0 l -10 10 l 30 0 z"></path></g><g><path d="M 152.825 -25 l 10 -10 l -50 0 l -10 10 l 0 30 l 30 0 l 0 30 l 10 -10 l 0 -30 l -30 0 l 0 -20 l 40 0 z"></path><g><path d="M 169.125 -28.7 l -6.3 6.3 l 0 -12.6 l -15 0 q 2.75 6.15 -5 10 l 10 0 l 0 15 l 17.5 -17.5 l -1.2 -1.2 z"></path></g><g><path d="M 142.47499999999997 22.9 q -0.375 0.363 -1.15 1.15 q -6.261 1.099 -8.5 -3.8 l 0 14.75 l 10 -10 l 10 10 l 7.15 -7.15 l -11.3 -11.2 l -5.85 5.9 q -0.04 0.029 -0.35 0.35 z"></path></g></g><g><path d="M 216.625 -11.15 l -10 10 l 0 -33.85 l -10 10 l 0 36.2 l 10 -9.95 l 0 33.75 l 10 -10 l 0 -36.15 z"></path><g><path d="M 180.325 35.4 l 1.2 1.2 l 7.5 -7.5 l 11.75 11.75 l 15.85 -15.85 l 0 -5 q -6.25 9 -10 5 l 0 7.6 l -11.8 -11.7 l -14.5 14.5 z"></path></g></g></g></g>
</svg>
