<svg xmlns="http://www.w3.org/2000/svg" viewBox="0 0 225.05 100" width="225.05" height="100" fill="currentColor" stroke="none">
<g transform="translate(112.525 50)"><g><g><path d="M -105.02499999999999 -40 l -7.5 7.5 57.5 62.5 7.5 -7.5 -57.5 -62.5 z"></path><path d="M -77.52499999999999 50 l 10 -10 l -30 0 l -10 10 l 30 0 z"></path></g><g><path d="M -1.2249999999999943 -40 l -10 10 l 0 60 l 10 -10 l 0 -50 l 30 0 l 10 -10 l -40 0 z"></path><g><path d="M 18.875000000000014 -22.5 l 1.2 1.2 l 18.7 -18.7 l -10 0 q 0.85 5.4 -10 10 l 7.6 0 l -7.5 7.5 z"></path></g><g><path d="M -37.52499999999999 30.4 l 1.2 1.2 l 7.5 -7.5 l 11.75 11.75 l 15.85 -15.85 l 0 -5 q -6.25 9 -10 5 l 0 7.6 l -11.8 -11.7 l -14.5 14.5 z"></path></g></g><g><path d="M 92.52500000000002 -50 l -7.5 7.5 l 12.5 12.5 l -25 0 l -17.5 17.5 l 1.2 1.2 l 8.7 -8.7 l 37.6 0 l 10 -10 l -20 -20 z"></path><path d="M 58.77500000000002 -10 l -10 10 l 50 0 l 10 -10 l -50 0 z"></path></g></g></g>
</svg>
