<svg xmlns="http://www.w3.org/2000/svg" viewBox="0 0 104.65 172.294907" width="104.65" height="172.294907" fill="currentColor" stroke="none">
<g transform="translate(52.325 86.147453)"><g><g><path d="M -7.174999999999997 0.5999999999999996 l 7.45 -7.5 27.05 34.4 7.5 -7.5 -27.8 -36 -7.75 7.8 -26.95 -34.3 -7.5 7.5 28 35.6 z"></path><path d="M -30.174999999999997 -40 l -5 5 l -10 -10 l -7.15 7.15 l 11.3 11.2 l 7 -7.1 l 1 -1 q 3.183 1.742 3.85 0 q 0.916 -1.293 0 -6.25 z"></path><path d="M 24.725 17.5 q -1.655 2.716 2.6 10 l 15 0 l 10 -10 l -20 0 q -7.015 -2.931 -7.6 0 z"></path><path d="M -22.674999999999997 10 l -10 10 l 0 25 l 10 -10 l 0 -25 z"></path></g></g></g>
</svg>
