<svg xmlns="http://www.w3.org/2000/svg" viewBox="0 0 595.1 140.025" width="595.1" height="140.025" fill="currentColor" stroke="none">
<g transform="translate(297.55 70.0125)"><g><g><path d="M -287.54999999999995 -44.9875 l -10 10 l 0 60 l 10 -10 l 0 -60 z"></path><g><path d="M -297.54999999999995 10.012500000000003 l 0 15 l 15 0 l 10 -10 l -15 0 l 0 -10 q -3.874 7.753 -10 5 z"></path></g></g><g><path d="M -252.54999999999995 -44.9875 l -10 10 l 0 36.3 l 10 -10.05 l 0 33.75 l 10 -10 l 0 -36.15 l -10 10 l 0 -23.85 l 30 0 l 10 -10 l -40 0 z"></path><path d="M -227.54999999999995 -54.9875 l 10 -10 l -30 0 l -10 10 l 30 0 z"></path></g><g><path d="M -184.34999999999997 -44.9875 l -10 10 l 0 60 l 10 -10 l 0 -60 z"></path><g><path d="M -182.54999999999995 36.8125 l -11.8 -11.8 l 10 -10 l 0 -5 q -5.188 7.964 -10 5 l 0 7.7 l -8.2 8.2 l 13 12.9 l 7 -7 z"></path></g></g><g><path d="M -161.29999999999995 -44.9875 l -10 10 l 0 30 l 30 30 l 7.5 -7.5 l -27.5 -27.5 l 0 -35 z"></path><path d="M -142.54999999999995 -54.9875 l 10 -10 l -30 0 l -10 10 l 30 0 z"></path></g><g><path d="M -69.49999999999994 -1.8874999999999975 l 7.45 -7.5 27.05 34.4 7.5 -7.5 -27.8 -36 -7.75 7.8 -26.95 -34.3 -7.5 7.5 28 35.6 z"></path><path d="M -97.49999999999994 -37.4875 l -15.05 0 l -10 10 l 17.45 0 l 8.75 -8.8 q 6.9 0.2 3.8 -6.15 l -4.95 4.95 z"></path><path d="M -37.59999999999991 15.012500000000003 q -1.655 2.716 2.6 10 l 15 0 l 10 -10 l -20 0 q -7.015 -2.931 -7.6 0 z"></path><path d="M -34.89999999999992 -34.9875 l -8.8 8.8 l 1.2 1.2 l 20 -20 l -30 0 l -10 10 l 27.6 0 z"></path><path d="M -77.49999999999994 42.5125 l 7.5 7.5 l 7.5 -7.5 l -7.5 -7.5 l -7.5 7.5 z"></path></g><g><path d="M 65.65000000000003 -34.912499999999994 l 10 -10 l -65.75 0 l -9.9 9.95 l 30.45 37.55 l 7.25 -7.3 l 24.15 29.65 l 7.45 -7.4 l -25.2 -31.05 l -7.5 7.45 l -23.1 -28.85 l 52.15 0 z"></path><g><path d="M 69.35000000000002 17.4375 q -6.8 0.5 -7.5 7.5 l 15 15 l 15 -15 l -1.2 -1.2 l -7.5 7.5 l -13.8 -13.8 z"></path></g></g><g><path d="M 109.35000000000002 -44.9875 l -7.5 7.5 57.5 62.5 7.5 -7.5 -57.5 -62.5 z"></path><path d="M 131.85000000000002 35.0125 l -10 10 l 0 25 l 10 -10 l 0 -25 z"></path></g><g><path d="M 242.60000000000002 25.0375 l 9.9 -9.95 l -47.35 -58.35 l -0.05 0 l -1.4 -1.75 l -7.5 7.5 l 42.7 52.55 l -52.05 0 l -10 10 l 65.75 0 z"></path><path d="M 207.175 -62.5125 l 7.5 7.5 l 7.5 -7.5 l -7.5 -7.5 l -7.5 7.5 z"></path></g><g><path d="M 272.5 -44.9875 l -10 10 l 0 60 l 10 -10 l 0 -60 z"></path><g><path d="M 272.54999999999995 -42.6875 l 15 0 l 10 -10 l -17.4 0 l -17.65 17.7 l 0 7.3 q 5.4 -4.35 10 -2.75 l 0 -12.25 z"></path></g><g><path d="M 262.5 10.012500000000003 l 0 15 l 15 0 l 10 -10 l -15 0 l 0 -10 q -3.874 7.753 -10 5 z"></path></g></g></g></g>
</svg>
