<svg xmlns="http://www.w3.org/2000/svg" viewBox="0 0 702.65 132.5" width="702.65" height="132.5" fill="currentColor" stroke="none">
<g transform="translate(351.325 66.25)"><g><g><path d="M -298.275 14.35 l 7.45 -7.5 27.05 34.4 7.5 -7.5 -27.8 -36 -7.75 7.8 -26.95 -34.3 -7.5 7.5 28 35.6 z"></path><path d="M -326.275 -21.25 l -15.05 0 l -10 10 l 17.45 0 l 8.75 -8.8 q 6.9 0.2 3.8 -6.15 l -4.95 4.95 z"></path><path d="M -266.375 31.25 q -1.655 2.716 2.6 10 l 15 0 l 10 -10 l -20 0 q -7.015 -2.931 -7.6 0 z"></path><path d="M -263.67499999999995 -18.75 l -8.8 8.8 l 1.2 1.2 l 20 -20 l -30 0 l -10 10 l 27.6 0 z"></path><path d="M -306.275 58.75 l 7.5 7.5 l 7.5 -7.5 l -7.5 -7.5 l -7.5 7.5 z"></path></g><g><path d="M -163.125 -18.675 l 10 -10 l -65.75 0 l -9.9 9.95 l 30.45 37.55 l 7.25 -7.3 l 24.15 29.65 l 7.45 -7.4 l -25.2 -31.05 l -7.5 7.45 l -23.1 -28.85 l 52.15 0 z"></path></g><g><path d="M -90.07499999999999 14.35 l 7.45 -7.5 27.05 34.4 7.5 -7.5 -27.8 -36 -7.75 7.8 -26.95 -34.3 -7.5 7.5 28 35.6 z"></path><path d="M -118.07499999999999 -21.25 l -15.05 0 l -10 10 l 17.45 0 l 8.75 -8.8 q 6.9 0.2 3.8 -6.15 l -4.95 4.95 z"></path><path d="M -115.57499999999999 33.75 l 0 25 l 20 -20 l -1.2 -1.2 l -8.8 8.8 l 0 -22.6 l -10 10 z"></path><path d="M -96.82499999999999 -58.75 l 20 20 l 7.5 -7.5 l -20 -20 l -7.5 7.5 z"></path></g><g><path d="M -28.07499999999999 -28.75 l -10 10 l 0 35 l 26.3 0 l 8.7 -8.75 l 0 33.75 l 10 -10 l 0 -36.15 l -11.15 11.15 l -23.85 0 l 0 -35 z"></path><g><path d="M -38.07499999999999 -18.75 l 0 5 q 6.25 -9 10 -5 l 0 -7.6 l 11.8 11.7 l 7 -7 l -12.95 -12.95 l -15.85 15.85 z"></path></g><g><path d="M -15.474999999999966 51.25 l 22.4 0 l 10 -10.1 l -19.9 0 l -0.1 0.1 l 0 -0.1 l 0.05 0 l 9.95 -9.9 l 0 -5 q -5 5.774 -10 5 l 0 7.55 l -12.4 12.4 z"></path></g></g><g><path d="M 69.47500000000002 -4.9 l -10 10 l 0 -33.85 l -10 10 l 0 36.2 l 10 -9.95 l 0 33.75 l 10 -10 l 0 -36.15 z"></path><g><path d="M 69.47500000000002 31.25 l 0 -7.3 q -4.546 5.888 -10 3.05 l 0 11.95 l -15.05 0 l -17.5 17.5 l 1.2 1.2 l 8.7 -8.7 l 15 0 l 17.65 -17.7 z"></path></g></g><g><path d="M 91.27500000000003 -28.75 l -10 10 l 0 60 l 10 -10 l 0 -60 z"></path><g><path d="M 79.47500000000002 -40.55 l 11.8 11.8 l -10 10 l 0 5 q 5.188 -7.964 10 -5 l 0 -7.7 l 8.2 -8.2 l -13 -12.9 l -7 7 z"></path></g><g><path d="M 81.27500000000003 26.25 l 0 15 l 10 -10 l 0 20 l 10 -9.9 l 0 -22.4 l -10 9.95 l 0 -5.15 q -5 6.1 -10 2.5 z"></path></g></g><g><path d="M 118.77500000000003 -28.75 l -7.5 7.5 l 31.25 31.25 l -31.25 31.25 l 40 0 l 10 -10 l -37.6 0 l 27.5 -27.6 l -32.4 -32.4 z"></path><path d="M 146.27500000000003 -38.75 l 10 -10 l -30 0 l -10 10 l 30 0 z"></path></g><g><path d="M 199.27500000000003 14.35 l 7.45 -7.5 27.05 34.4 7.5 -7.5 -27.8 -36 -7.75 7.8 -26.95 -34.3 -7.5 7.5 28 35.6 z"></path><path d="M 231.175 31.25 q -1.655 2.716 2.6 10 l 15 0 l 10 -10 l -20 0 q -7.015 -2.931 -7.6 0 z"></path><path d="M 191.27500000000003 58.75 l 7.5 7.5 l 7.5 -7.5 l -7.5 -7.5 l -7.5 7.5 z"></path></g><g><path d="M 311.325 -28.75 l -10 10 l 0 60 l 10 -10 l 0 -50 l 30 0 l 10 -10 l -40 0 z"></path><g><path d="M 311.325 31.25 l 0 -7.3 q -4.546 5.888 -10 3.05 l 0 11.95 l -15.05 0 l -17.5 17.5 l 1.2 1.2 l 8.7 -8.7 l 15 0 l 17.65 -17.7 z"></path></g></g></g></g>
</svg>
