<svg xmlns="http://www.w3.org/2000/svg" viewBox="0 0 91.85 172.294907" width="91.85" height="172.294907" fill="currentColor" stroke="none">
<g transform="translate(45.925 86.147453)"><g><g><path d="M 19.724999999999994 -13.025000000000002 l 10 -10 l -65.75 0 l -9.9 9.95 l 30.45 37.55 l 7.25 -7.3 l 24.15 29.65 l 7.45 -7.4 l -25.2 -31.05 l -7.5 7.45 l -23.1 -28.85 l 52.15 0 z"></path><g><path d="M 19.72500000000001 -23.025 q 2.55 4.45 -5 10 l 5 0 l 15.85 -15.9 l -13 -12.9 l -7 7 l 11.8 11.8 l -7.65 0 z"></path></g><g><path d="M 23.424999999999997 39.324999999999996 q -6.8 0.5 -7.5 7.5 l 15 15 l 15 -15 l -1.2 -1.2 l -7.5 7.5 l -13.8 -13.8 z"></path></g><path d="M 10 -51.824999999999996 l 10 -10 l -30 0 l -10 10 l 30 0 z"></path></g></g></g>
</svg>
