<svg xmlns="http://www.w3.org/2000/svg" viewBox="0 0 429.5 139.95" width="429.5" height="139.95" fill="currentColor" stroke="none">
<g transform="translate(214.75 69.975)"><g><g><path d="M -207.25000000000003 -44.999999999999986 l -7.5 7.5 57.5 62.5 7.5 -7.5 -57.5 -62.5 z"></path><path d="M -179.75000000000003 45.000000000000014 l 10 -10 l -30 0 l -10 10 l 30 0 z"></path></g><g><path d="M -129.75000000000003 -44.999999999999986 l -10 10 l 0 60 l 10 -10 l 0 -50 l 30 0 l 10 -10 l -40 0 z"></path><g><path d="M -103.40000000000003 -44.999999999999986 q 2.585 3.848 -6.35 10 l 7.65 0 l -6.3 6.35 q 5.6 10.2 27.5 9.85 q -16.25 -5.4 -18.85 -16.2 l 10 -10 l -13.65 0 z"></path></g><g><path d="M -129.75000000000003 32.600000000000016 l 0 -17.6 q -7.3 -5 -10 10 l 0 20 l 17.5 -17.5 l -1.2 -1.2 l -6.3 6.3 z"></path></g></g><g><path d="M -27.150000000000006 -42.499999999999986 l -1.2 -1.2 l -6.3 6.3 l 0 -27.6 l -10 10 l 0 30 l 17.5 -17.5 z"></path><path d="M -60.900000000000006 -14.999999999999986 l -10 10 l 50 0 l 10 -10 l -50 0 z"></path></g><g><path d="M 6.599999999999994 -44.999999999999986 l -7.5 7.5 57.5 62.5 7.5 -7.5 -57.5 -62.5 z"></path><path d="M 34.099999999999994 45.000000000000014 l 10 -10 l -30 0 l -10 10 l 30 0 z"></path></g><g><path d="M 83.99999999999997 -45.024999999999984 l -9.9 9.95 l 47.35 58.35 l 0.05 0 l 1.4 1.75 l 7.5 -7.5 l -42.7 -52.55 l 52.05 0 l 10 -10 l -65.75 0 z"></path><g><path d="M 129.74999999999997 -45.024999999999984 q 6.368 3.408 0 10 l 10 0 l 10 -10 l 0 -15 l -10 10 l 0 5 l -10 0 z"></path></g><g><path d="M 122.9 25.025000000000027 l 7.05 -7.05 q -4.298 -1.674 -7.9 0.9 q -1.089 2.895 -0.3 4.95 l -7.5 7.55 q 16.8 -0.55 27.5 12.45 q -4.6 -18.35 -18.85 -18.8 z"></path></g></g><g><path d="M 214.75000000000003 -44.97499999999999 l -10 10 l 0 20 l -35 0 l -10 10 l 29.95 29.95 l 7.5 -7.5 l -22.45 -22.45 l 30 0 l 10 -10 l 0 -30 z"></path><path d="M 179.75000000000003 -62.474999999999994 l 7.5 7.5 l 7.5 -7.5 l -7.5 -7.5 l -7.5 7.5 z"></path><path d="M 197.25000000000003 59.974999999999994 l 0 -25 l -20 20 l 1.2 1.2 l 8.8 -8.8 l 0 22.6 l 10 -10 z"></path></g></g></g>
</svg>
