<svg xmlns="http://www.w3.org/2000/svg" viewBox="0 0 73.7 172.294907" width="73.7" height="172.294907" fill="currentColor" stroke="none">
<g transform="translate(36.85 86.147453)"><g><g><path d="M -19.35 -35.466662166507504 l -10 10 l 0 35 l 26.3 0 l 8.7 -8.75 l 0 33.75 l 10 -10 l 0 -36.15 l -11.15 11.15 l -23.85 0 l 0 -35 z"></path><g><path d="M -29.35 -14.266662166507505 q 5 -12.14 10 -11.2 l 0 -10 l -17.5 17.5 l 1.2 1.2 l 6.3 -6.3 l 0 8.8 z"></path></g><g><path d="M 5.649999999999999 18.883337833492497 l 0 15.65 l 10 -10 q 9.4 17.75 21.2 6.85 q -12.25 2.15 -14.85 -15.5 l -6.35 6.3 l 0 -8.1 q -4.8 9.5 -10 4.8 z"></path></g></g></g></g>
</svg>
