<svg xmlns="http://www.w3.org/2000/svg" viewBox="0 0 73.8 172.294907" width="73.8" height="172.294907" fill="currentColor" stroke="none">
<g transform="translate(36.9 86.147453)"><g><g><path d="M 4.400000000000006 10.649999999999999 l 7.5 -7.5 -32.5 -32.5 -7.5 7.5 32.5 32.5 m -17.5 -10 l -7.5 7.5 32.5 32.5 7.5 -7.5 -32.5 -32.5 z"></path><path d="M -26.899999999999995 -20.650000000000002 q 6.486 1.216 4.75 -5 q -2.924 3.894 -5.95 3.8 l -8.8 8.8 l 0 15 l 10 -10 l 0 -12.6 z"></path><path d="M 9.300000000000004 30.65 q -1.65 2.7 2.6 10 l 12.6 0 l -7.5 7.5 l 1.2 1.2 l 18.7 -18.7 l -20 0 q -7 -2.95 -7.6 0 z"></path><path d="M 5.650000000000006 -39.35 l 10 -10 l -30 0 l -10 10 l 30 0 z"></path></g></g></g>
</svg>
