<svg xmlns="http://www.w3.org/2000/svg" viewBox="0 0 57.8 172.294907" width="57.8" height="172.294907" fill="currentColor" stroke="none">
<g transform="translate(28.9 86.147453)"><g><g fill="currentColor"><path d="M -11.399999999999999 -52.349999999999994 l -10 10 l 0 30 l 30 30 l 7.5 -7.5 l -27.5 -27.5 l 0 -35 z"></path><g><path d="M -21.4 -31.149999999999995 q 5 -12.14 10 -11.2 l 0 -10 l -17.5 17.5 l 1.2 1.2 l 6.3 -6.3 l 0 8.8 z"></path></g><g><path d="M 7.700000000000003 16.050000000000004 l -11.2 11.3 l 22.4 0 l 10 -10.1 l -19.9 0 l 7.1 -7.1 q -10.446 -1.157 -8.4 5.9 z"></path></g><path d="M 10 -62.349999999999994 l 10 -10 l -30 0 l -10 10 l 30 0 z"></path><path d="M -10 47.35000000000001 l 0 25 l 20 -20 l -1.2 -1.2 l -8.8 8.8 l 0 -22.6 l -10 10 z"></path></g></g></g>
</svg>
