<svg xmlns="http://www.w3.org/2000/svg" viewBox="0 0 68.144442 172.294907" width="68.144442" height="172.294907" fill="currentColor" stroke="none">
<g transform="translate(34.069952 86.147453)"><g><g><path d="M 19.02448979591837 -1.25 l -34.95 0 l -10 10 l 50 0 l 10 -10 l -25 -25 l 0 -35 l -10 10 l 0 30.05 l 19.95 19.95 z"></path><g><path d="M -0.9255102040816254 -40.05 q 5 -12.14 10 -11.2 l 0 -10 l -17.5 17.5 l 1.2 1.2 l 6.3 -6.3 l 0 8.8 z"></path></g><g><path d="M -23.625510204081625 -11.25 q -16 9.8 -7.5 27.5 l 7.55 -7.5 l 11.1 0 q -3.05 -5.25 1.5 -10 l -5 0 l -8.8 8.85 q -6.15 -7.15 1.15 -18.85 z"></path></g><path d="M -10 36.25 l 0 25 l 20 -20 l -1.2 -1.2 l -8.8 8.8 l 0 -22.6 l -10 10 z"></path></g></g></g>
</svg>
