<svg xmlns="http://www.w3.org/2000/svg" viewBox="0 0 69.9 172.294907" width="69.9" height="172.294907" fill="currentColor" stroke="none">
<g transform="translate(34.95 86.147453)"><g><g><path d="M 25.049999999999997 -44.449999999999996 l -50 0 l -10 10 l 0 27 l 33.1 33.1 l 7.5 -7.5 l -30.6 -30.6 l 0 -22 l 40 0 l 10 -10 z"></path><g><path d="M 2.6499999999999986 -24.449999999999996 l 22.4 0 l 9.9 -10 l -19.9 0 l 10 -10 l -12.65 0 q 5.504 3.447 -5.3 10 l 5.5 0 l -9.95 10 z"></path></g><g><path d="M 9.949999999999996 37.449999999999996 l -11.8 -11.8 l 5 -5 q -7.681 -1.687 -7.1 0.5 l 0.95 3.35 l -7.05 7.05 l 13 12.9 z"></path></g></g></g></g>
</svg>
