<svg xmlns="http://www.w3.org/2000/svg" viewBox="0 0 577.8 110" width="577.8" height="110" fill="currentColor" stroke="none">
<g transform="translate(288.9 55)"><g><g><path d="M -252.64999999999998 5 l 7.5 -7.5 -32.5 -32.5 -7.5 7.5 32.5 32.5 m -17.5 -10 l -7.5 7.5 32.5 32.5 7.5 -7.5 -32.5 -32.5 z"></path><path d="M -258.9 55 l 10 -10 l -30 0 l -10 10 l 30 0 z"></path></g><g><path d="M -167.64999999999998 -35.05 l -50 0 l -10 10 l 0 27 l 33.1 33.1 l 7.5 -7.5 l -30.6 -30.6 l 0 -22 l 40 0 l 10 -10 z"></path><g><path d="M -190.04999999999998 -15.049999999999997 l 22.4 0 l 9.9 -10 l -19.9 0 l 10 -10 l -12.65 0 q 5.504 3.447 -5.3 10 l 5.5 0 l -9.95 10 z"></path></g><g><path d="M -182.74999999999997 46.849999999999994 l -11.8 -11.8 l 5 -5 q -7.681 -1.687 -7.1 0.5 l 0.95 3.35 l -7.05 7.05 l 13 12.9 z"></path></g></g><g><path d="M -137.74999999999997 -35 l -10 10 l 0 60 l 10 -10 l 0 -60 z"></path><g><path d="M -147.74999999999997 20 l 0 15 l 10 -10 l 0 20 l 10 -9.9 l 0 -22.4 l -10 9.95 l 0 -5.15 q -5 6.1 -10 2.5 z"></path></g></g><g><path d="M -102.69999999999996 -25 l 34.95 0 l 10 -10 l -50 0 l -10 10 l 25 25 l 0 35 l 10 -10 l 0 -30.05 l -19.95 -19.95 z"></path><g><path d="M -92.74999999999997 55 l 10 -10 l 0 -20 q -7.3 -5 -10 10 l 0 20 z"></path></g><path d="M -77.74999999999997 -45 l 10 -10 l -30 0 l -10 10 l 30 0 z"></path></g><g><path d="M -25.34999999999991 -35 l -10 10 l 0 60 l 10 -10 l 0 -60 z"></path><g><path d="M -47.74999999999994 45 l 22.4 0 l 10 -10.1 l -19.9 0 l -0.1 0.1 l 0 -0.1 l 0.05 0 l 9.95 -9.9 l 0 -5 q -5 5.774 -10 5 l 0 7.55 l -12.4 12.4 z"></path></g></g><g><path d="M 60.30000000000007 -24.925 l 10 -10 l -65.75 0 l -9.9 9.95 l 30.45 37.55 l 7.25 -7.3 l 24.15 29.65 l 7.45 -7.4 l -25.2 -31.05 l -7.5 7.45 l -23.1 -28.85 l 52.15 0 z"></path><g><path d="M 64.00000000000006 27.424999999999997 q -6.8 0.5 -7.5 7.5 l 15 15 l 15 -15 l -1.2 -1.2 l -7.5 7.5 l -13.8 -13.8 z"></path></g><path d="M 50.5750000000001 -44.925 l 10 -10 l -30 0 l -10 10 l 30 0 z"></path></g><g><path d="M 118.90000000000003 -35 l -10 10 l 0 60 l 10 -10 l 0 -60 z"></path><g><path d="M 96.50000000000006 45 l 22.4 0 l 10 -10.1 l -19.9 0 l -0.1 0.1 l 0 -0.1 l 0.05 0 l 9.95 -9.9 l 0 -5 q -5 5.774 -10 5 l 0 7.55 l -12.4 12.4 z"></path></g></g><g><path d="M 148.90000000000003 -35 l -10 10 l 0 60 l 10 -10 l 0 -50 l 30 0 l 10 -10 l -40 0 z"></path><path d="M 173.90000000000003 -45 l 10 -10 l -30 0 l -10 10 l 30 0 z"></path></g><g><path d="M 208.90000000000003 -35 l -10 10 l 0 60 l 10 -10 l 0 -60 z"></path><g><path d="M 198.90000000000003 20 l 0 15 l 15 0 l 10 -10 l -15 0 l 0 -10 q -3.874 7.753 -10 5 z"></path></g></g><g><path d="M 288.9 -34.975 l -10 10 l 0 20 l -35 0 l -10 10 l 29.95 29.95 l 7.5 -7.5 l -22.45 -22.45 l 30 0 l 10 -10 l 0 -30 z"></path><path d="M 271.4 -44.97500000000001 l 10 -10 l -30 0 l -10 10 l 30 0 z"></path></g></g></g>
</svg>
