<svg xmlns="http://www.w3.org/2000/svg" viewBox="0 0 100.7 172.294907" width="100.7" height="172.294907" fill="currentColor" stroke="none">
<g transform="translate(50.35 86.147453)"><g><g><path d="M 15.29999999999999 -17.425 l 10 -10 l -65.75 0 l -9.9 9.95 l 30.45 37.55 l 7.25 -7.3 l 24.15 29.65 l 7.45 -7.4 l -25.2 -31.05 l -7.5 7.45 l -23.1 -28.85 l 52.15 0 z"></path><g><path d="M 25.300000000000004 -27.424999999999997 l 15.05 0 l 10 -10 l -17.45 0 l -9.95 10 l -7.6 0 q 4.95 4.2 -6.25 10 l 6.25 0 l 9.95 -10 z"></path></g><g><path d="M 18.999999999999993 34.925 q -6.8 0.5 -7.5 7.5 l 15 15 l 15 -15 l -1.2 -1.2 l -7.5 7.5 l -13.8 -13.8 z"></path></g><path d="M 9.999999999999993 -47.425 l 10 -10 l -30 0 l -10 10 l 30 0 z"></path></g></g></g>
</svg>
