<svg xmlns="http://www.w3.org/2000/svg" viewBox="0 0 94.95 172.294907" width="94.95" height="172.294907" fill="currentColor" stroke="none">
<g transform="translate(47.475 86.147453)"><g><g><path d="M -22.824999999999996 -48.75 l -7.5 7.5 57.5 62.5 7.5 -7.5 -57.5 -62.5 z"></path><path d="M -25.324999999999996 -46.25 l -5 5 l -10 -10 l -7.15 7.15 l 11.3 11.2 l 7 -7.1 l 1 -1 q 3.183 1.742 3.85 0 q 0.916 -1.293 0 -6.25 z"></path><path d="M 26.275000000000006 19.65 l -11.2 11.3 l 22.4 0 l 10 -10.1 l -19.9 0 l 7.1 -7.1 q -10.446 -1.157 -8.4 5.9 z"></path><path d="M 2.2750000000000057 41.25 l -8.8 8.8 l 1.2 1.2 l 20 -20 l -30 0 l -10 10 l 27.6 0 z"></path></g></g></g>
</svg>
