<svg xmlns="http://www.w3.org/2000/svg" viewBox="0 0 319.85 132.975" width="319.85" height="132.975" fill="currentColor" stroke="none">
<g transform="translate(159.925 66.4875)"><g><g><path d="M -149.925 -34.91250000000001 l -10 10 l 0 60 l 10 -10 l 0 -60 z"></path></g><g><path d="M -96.37500000000001 4.7124999999999915 l 10 -10 l -29.85 -29.85 l -7.5 7.5 l 22.35 22.35 l -20 0 l -15 15 l 25.6 25.6 l 7.5 -7.5 l -23.1 -23.1 l 30 0 z"></path><g><path d="M -139.925 -46.48750000000001 q -0.35 21.9 9.85 27.5 l 6.3 -6.35 l 2 -2 q 8.054 2.82 4.35 -6.65 l -6.3 6.35 q -10.8 -2.6 -16.2 -18.85 z"></path></g><g><path d="M -87.07500000000002 46.662499999999994 q 0.35 -21.9 -9.85 -27.5 l -6.3 6.35 l -2 2 q -8.054 -2.82 -4.35 6.65 l 6.3 -6.35 q 10.8 2.6 16.2 18.85 z"></path></g><path d="M -103.15 -56.48750000000001 l 10 -10 l -30 0 l -10 10 l 30 0 z"></path></g><g><path d="M -56.375000000000014 -11.062500000000009 l -10 10 l 0 -33.85 l -10 10 l 0 36.2 l 10 -9.95 l 0 33.75 l 10 -10 l 0 -36.15 z"></path><g><path d="M -76.37500000000001 -24.91250000000001 l 0 5 q 6.25 -9 10 -5 l 0 -7.6 l 11.8 11.7 l 7 -7 l -12.95 -12.95 l -15.85 15.85 z"></path></g><g><path d="M -56.375000000000014 42.68749999999999 l 0 -17.6 q -7.3 -5 -10 10 l 0 20 l 17.5 -17.5 l -1.2 -1.2 l -6.3 6.3 z"></path></g></g><g><path d="M -30.075000000000017 -34.91250000000001 l -7.5 7.5 57.5 62.5 7.5 -7.5 -57.5 -62.5 z"></path><path d="M -28.92500000000001 -27.41250000000001 q 1.328 -4.078 -0.8 -6.7 l 0.8 0.35 q 19.05 9.15 23.7 -6.2 q -7.65 9.4 -17.35 -2.45 l -15 15 q 4.648 1.323 8.65 0 z"></path><path d="M -12.575000000000017 -52.41250000000001 l 7.5 7.5 l 7.5 -7.5 l -7.5 -7.5 l -7.5 7.5 z"></path><path d="M -20.075000000000017 52.58749999999999 l 7.5 7.5 l 7.5 -7.5 l -7.5 -7.5 l -7.5 7.5 z"></path></g><g><path d="M 57.42499999999998 -34.91250000000001 l -10 10 l 0 60 l 40 0 l 10 -10 l -40 0 l 0 -60 z"></path><g><path d="M 69.82499999999999 -44.91250000000001 l -22.4 0 l -10 10.1 l 19.9 0 l 0.1 -0.1 l 0 0.1 l -0.05 0 l -9.95 9.9 l 0 5 q 5 -5.774 10 -5 l 0 -7.55 l 12.4 -12.4 z"></path></g><g><path d="M 69.92499999999998 65.2875 l 1.2 1.2 l 16.3 -16.3 l 0 -15.1 l 10 -10 l -18.3 0 q 4.75 2.3 -1.7 10 l 7.6 0 l 0.25 -0.2 l -7.85 7.85 l 0 15.05 l -7.5 7.5 z"></path></g></g><g><path d="M 152.425 -11.062500000000009 l -10 10 l 0 -33.85 l -10 10 l 0 36.2 l 10 -9.95 l 0 33.75 l 10 -10 l 0 -36.15 z"></path><g><path d="M 132.425 -24.91250000000001 l -15 0 l -10 10 l 17.45 0 l 7.6 -7.6 l -0.05 5.05 q 4.6 -6.3 10 -4 l 0 -13.45 l -9.95 10 z"></path></g><g><path d="M 152.425 42.68749999999999 l 0 -17.6 q -7.3 -5 -10 10 l 0 20 l 17.5 -17.5 l -1.2 -1.2 l -6.3 6.3 z"></path></g></g></g></g>
</svg>
