<svg xmlns="http://www.w3.org/2000/svg" viewBox="0 0 100 172.294907" width="100" height="172.294907" fill="currentColor" stroke="none">
<g transform="translate(50 86.147453)"><g><g><path d="M -25 -30.65 l -7.5 7.5 57.5 62.5 7.5 -7.5 -57.5 -62.5 z"></path><path d="M -22.4 -20.65 q 1.65 -2.7 -2.6 -10 l -12.6 0 l 7.5 -7.5 l -1.2 -1.2 l -18.7 18.7 l 20 0 q 7 2.95 7.6 0 z"></path><path d="M 22.400000000000006 29.35 q -1.655 2.716 2.6 10 l 15 0 l 10 -10 l -20 0 q -7.015 -2.931 -7.6 0 z"></path><path d="M -32.5 19.35 l 20 20 l 7.5 -7.5 l -20 -20 l -7.5 7.5 z"></path><path d="M 27.599999999999994 -20.65 l -8.8 8.8 l 1.2 1.2 l 20 -20 l -30 0 l -10 10 l 27.6 0 z"></path></g></g></g>
</svg>
