<svg xmlns="http://www.w3.org/2000/svg" viewBox="0 0 319.35 133.7" width="319.35" height="133.7" fill="currentColor" stroke="none">
<g transform="translate(159.675 66.85)"><g><g><path d="M -134.675 -58.14999999999999 l -7.5 7.5 57.5 62.5 7.5 -7.5 -57.5 -62.5 z"></path><path d="M -132.07500000000002 -48.14999999999999 q 1.65 -2.7 -2.6 -10 l -12.6 0 l 7.5 -7.5 l -1.2 -1.2 l -18.7 18.7 l 20 0 q 7 2.95 7.6 0 z"></path><path d="M -87.275 1.8500000000000085 q -1.655 2.716 2.6 10 l 15 0 l 10 -10 l -20 0 q -7.015 -2.931 -7.6 0 z"></path><path d="M -142.175 -8.149999999999991 l 20 20 l 7.5 -7.5 l -20 -20 l -7.5 7.5 z"></path><path d="M -82.07500000000002 -48.14999999999999 l -8.8 8.8 l 1.2 1.2 l 20 -20 l -30 0 l -10 10 l 27.6 0 z"></path></g><g><path d="M 15.974999999999966 -48.07499999999999 l 10 -10 l -65.75 0 l -9.9 9.95 l 30.45 37.55 l 7.25 -7.3 l 24.15 29.65 l 7.45 -7.4 l -25.2 -31.05 l -7.5 7.45 l -23.1 -28.85 l 52.15 0 z"></path><g><path d="M 19.674999999999983 4.275000000000006 q -6.8 0.5 -7.5 7.5 l 15 15 l 15 -15 l -1.2 -1.2 l -7.5 7.5 l -13.8 -13.8 z"></path></g><path d="M -11.350000000000023 46.775000000000006 l 8.8 -8.8 l -1.2 -1.2 l -20 20 l 30 0 l 10 -10 l -27.6 0 z"></path></g><g><path d="M 92.17499999999998 11.850000000000009 l 10 -10 l 0 -36.3 l -10 10.05 l 0 -33.75 l -10 10 l 0 36.15 l 10 -10 l 0 23.85 l -30 0 l -10 10 l 40 0 z"></path><path d="M 87.17499999999998 46.85000000000001 l 0 -25 l -20 20 l 1.2 1.2 l 8.8 -8.8 l 0 22.6 l 10 -10 z"></path></g><g><path d="M 139.675 11.850000000000009 l 10 -10 l 0 -30 l -30 -30 l -7.5 7.5 l 27.5 27.5 l 0 35 z"></path><g><path d="M 127.27500000000003 21.85000000000001 l 22.4 0 l 10 -10.1 l -19.9 0 l -0.1 0.1 l 0 -0.1 l 0.05 0 l 9.95 -9.9 l 0 -5 q -5 5.774 -10 5 l 0 7.55 l -12.4 12.4 z"></path></g><path d="M 125.92500000000001 41.85000000000001 l 0 25 l 20 -20 l -1.2 -1.2 l -8.8 8.8 l 0 -22.6 l -10 10 z"></path></g></g></g>
</svg>
