<svg xmlns="http://www.w3.org/2000/svg" viewBox="0 0 295.65 110.025" width="295.65" height="110.025" fill="currentColor" stroke="none">
<g transform="translate(147.825 55.0125)"><g><g><path d="M -137.825 -34.987500000000004 l -10 10 l 0 60 l 10 -10 l 0 -60 z"></path><g><path d="M -147.825 20.012499999999996 l 0 15 l 15 0 l 10 -10 l -15 0 l 0 -10 q -3.874 7.753 -10 5 z"></path></g></g><g><path d="M -97.77499999999999 -24.987500000000004 l 34.95 0 l 10 -10 l -50 0 l -10 10 l 25 25 l 0 35 l 10 -10 l 0 -30.05 l -19.95 -19.95 z"></path><g><path d="M -77.82499999999999 42.6125 l 0 -17.6 q -7.3 -5 -10 10 l 0 20 l 17.5 -17.5 l -1.2 -1.2 l -6.3 6.3 z"></path></g><path d="M -72.82499999999999 -44.987500000000004 l 10 -10 l -30 0 l -10 10 l 30 0 z"></path></g><g><path d="M -32.82499999999999 -34.987500000000004 l -10 10 l 0 60 l 10 -10 l 0 -60 z"></path><g><path d="M -42.82499999999999 20.012499999999996 l 0 15 l 15 0 l 10 -10 l -15 0 l 0 -10 q -3.874 7.753 -10 5 z"></path></g></g><g><path d="M 3.4250000000000114 -34.987500000000004 l -10 10 l 0 30 l 30 30 l 7.5 -7.5 l -27.5 -27.5 l 0 -35 z"></path><path d="M 22.17500000000001 -44.987500000000004 l 10 -10 l -30 0 l -10 10 l 30 0 z"></path></g><g><path d="M 60.375 -34.987500000000004 l -10 10 l 0 60 l 10 -10 l 0 -60 z"></path><g><path d="M 62.17500000000001 46.81249999999999 l -11.8 -11.8 l 10 -10 l 0 -5 q -5.188 7.964 -10 5 l 0 7.7 l -8.2 8.2 l 13 12.9 l 7 -7 z"></path></g></g><g><path d="M 82.07499999999999 -35.0125 l -9.9 9.95 l 47.35 58.35 l 0.05 0 l 1.4 1.75 l 7.5 -7.5 l -42.7 -52.55 l 52.05 0 l 10 -10 l -65.75 0 z"></path><path d="M 120 -45.0125 l 10 -10 l -30 0 l -10 10 l 30 0 z"></path></g></g></g>
</svg>
