<svg xmlns="http://www.w3.org/2000/svg" viewBox="0 0 456.3 138.825" width="456.3" height="138.825" fill="currentColor" stroke="none">
<g transform="translate(228.15 69.4125)"><g><g><path d="M -209.95000000000002 -31.912499999999994 l -10 10 l 0 60 l 10 -10 l 0 -60 z"></path><g><path d="M -208.15 49.8875 l -11.8 -11.8 l 10 -10 l 0 -5 q -5.188 7.964 -10 5 l 0 7.7 l -8.2 8.2 l 13 12.9 l 7 -7 z"></path></g></g><g><path d="M -187 -31.83749999999999 l -10 10 l 0 40 l 9.55 -9.55 l 20.65 29.4 l 7.5 -7.5 l -21.6 -30.85 l -6.1 6.1 l 0 -37.6 z"></path><path d="M -168.15 -41.8375 l 10 -10 l -30 0 l -10 10 l 30 0 z"></path></g><g><path d="M -138.15 -31.912499999999994 l -10 10 l 0 60 l 10 -10 l 0 -60 z"></path><g><path d="M -148.15 23.087500000000006 l 0 15 l 10 -10 l 0 20 l 10 -9.9 l 0 -22.4 l -10 9.95 l 0 -5.15 q -5 6.1 -10 2.5 z"></path></g></g><g><path d="M -63.150000000000006 -31.887499999999996 l -10 10 l 0 20 l -35 0 l -10 10 l 29.95 29.95 l 7.5 -7.5 l -22.45 -22.45 l 30 0 l 10 -10 l 0 -30 z"></path><g><path d="M -89.10000000000002 36.462499999999984 l -11.2 11.3 l 22.4 0 l 10 -10.1 l -19.9 0 l 7.1 -7.1 q -10.446 -1.157 -8.4 5.9 z"></path></g><path d="M -80.65 -41.8875 l 10 -10 l -30 0 l -10 10 l 30 0 z"></path></g><g><path d="M -36.849999999999994 -31.912499999999994 l -7.5 7.5 57.5 62.5 7.5 -7.5 -57.5 -62.5 z"></path><path d="M -43.150000000000006 -23.212499999999995 q 4.2 0.65 6.3 -2.7 q 0.8 -1 0 -6 l -6.3 6.3 l 0 -19.95 l -10 10.1 l 0 22.35 l 10 -10.1 z"></path><path d="M 10.550000000000011 28.087500000000006 q -1.655 2.716 2.6 10 l 15 0 l 10 -10 l -20 0 q -7.015 -2.931 -7.6 0 z"></path><path d="M 15.75 -21.912499999999994 l -8.8 8.8 l 1.2 1.2 l 20 -20 l -30 0 l -10 10 l 27.6 0 z"></path><path d="M -25.599999999999994 -61.912499999999994 l 20 20 l 7.5 -7.5 l -20 -20 l -7.5 7.5 z"></path></g><g><path d="M 103.15 -31.887499999999996 l -10 10 l 0 20 l -35 0 l -10 10 l 29.95 29.95 l 7.5 -7.5 l -22.45 -22.45 l 30 0 l 10 -10 l 0 -30 z"></path><g><path d="M 60.599999999999994 68.21249999999998 l 1.2 1.2 l 16.3 -16.3 l 0 -15.05 l 7.5 -7.5 q -11.45 -4.9 -8.7 6.3 l -8.8 8.9 l 0 14.95 l -7.5 7.5 z"></path></g></g><g><path d="M 113.15 38.06250000000001 l 10 -10 l 0 -20 l 35 0 l 10 -10 l -29.95 -29.95 l -7.5 7.5 l 22.45 22.45 l -30 0 l -10 10 l 0 30 z"></path><path d="M 150.65 -41.88749999999999 l 10 -10 l -30 0 l -10 10 l 30 0 z"></path><path d="M 133.15 55.562500000000014 l 7.5 7.5 l 7.5 -7.5 l -7.5 -7.5 l -7.5 7.5 z"></path></g><g><path d="M 213.15 38.087500000000006 l 10 -10 l 0 -35 l -19.95 0 l 24.95 -25 l -40 0 l -10 10 l 37.6 0 l -24.85 25 l 22.25 0 l 0 35 z"></path><path d="M 213.15 -41.912499999999994 l 10 -10 l -30 0 l -10 10 l 30 0 z"></path><path d="M 195.65 55.587500000000006 l 7.5 7.5 l 7.5 -7.5 l -7.5 -7.5 l -7.5 7.5 z"></path></g></g></g>
</svg>
