<svg xmlns="http://www.w3.org/2000/svg" viewBox="0 0 70 172.294907" width="70" height="172.294907" fill="currentColor" stroke="none">
<g transform="translate(35 86.147453)"><g><g><path d="M -19.950000000000003 -45 l 34.95 0 l 10 -10 l -50 0 l -10 10 l 25 25 l 0 35 l 10 -10 l 0 -30.05 l -19.95 -19.95 z"></path><g><path d="M 25 -35 l 0.1 0 l 9.9 -10 l -19.9 0 l 10 -10 l -12.65 0 q 5.5 3.45 -5.3 10 l 5.5 0 l -9.95 10 l 19.9 0 l -7.5 7.5 l 1.2 1.2 l 8.7 -8.7 z"></path></g><g><path d="M -10.000000000000004 35 l 10 -10 l 0 -20 q -7.3 -5 -10 10 l 0 20 z"></path></g><path d="M 10 55 l 10 -10 l -30 0 l -10 10 l 30 0 z"></path></g></g></g>
</svg>
