<svg xmlns="http://www.w3.org/2000/svg" viewBox="0 0 450.3 139.925" width="450.3" height="139.925" fill="currentColor" stroke="none">
<g transform="translate(225.15 69.9625)"><g><g><path d="M -188.9 -10.037500000000009 l 7.5 -7.5 -32.5 -32.5 -7.5 7.5 32.5 32.5 m -17.5 -10 l -7.5 7.5 32.5 32.5 7.5 -7.5 -32.5 -32.5 z"></path><path d="M -195.15 39.96249999999999 l 10 -10 l -30 0 l -10 10 l 30 0 z"></path></g><g><path d="M -103.9 -49.962500000000006 l -50 0 l -10 10 l 0 40 l 9.55 -9.55 l 20.65 29.4 l 7.65 -7.65 l -21.65 -30.8 l -6.2 6.2 l 0 -27.6 l 40 0 l 10 -10 z"></path><g><path d="M -123.9 -49.96250000000001 q 6.368 3.408 0 10 l 10 0 l 10 -10 l 0 -15 l -10 10 l 0 5 l -10 0 z"></path></g><g><path d="M -126.2 12.387499999999982 q -6.8 0.5 -7.5 7.5 l 15 15 l 15 -15 l -1.2 -1.2 l -7.5 7.5 l -13.8 -13.8 z"></path></g></g><g><path d="M -46.19999999999999 19.96249999999999 l 7.5 -7.5 -26.9 -26.9 7.45 -7.55 -28.05 -28.05 -7.5 7.5 26.9 26.9 -7.5 7.5 28.1 28.1 z"></path><path d="M -85.04999999999998 -42.53750000000001 q 1.328 -4.078 -0.8 -6.7 l 0.8 0.35 q 19.05 9.15 23.7 -6.2 q -7.65 9.4 -17.35 -2.45 l -15 15 q 4.648 1.323 8.65 0 z"></path></g><g><path d="M 30.700000000000017 -50.03750000000001 l -50 0 l -9.4 9.4 l 23.2 33.05 l 6.2 -6.25 l 0 33.8 l 10 -10 l 0 -36.15 l -1.1 1.1 q -2.967 2.977 -5.95 5.95 l -1.95 2 l -0.65 0.65 l -16.5 -23.5 l 36.2 0 l 10 -10 z"></path><g><path d="M 10.700000000000017 27.562499999999993 l 0 -17.6 q -7.3 -5 -10 10 l 0 20 l 17.5 -17.5 l -1.2 -1.2 l -6.3 6.3 z"></path></g><path d="M -6.574999999999989 59.96249999999999 l 8.8 -8.8 l -1.2 -1.2 l -20 20 l 30 0 l 10 -10 l -27.6 0 z"></path></g><g><path d="M 84.50000000000003 -60.03750000000001 l -7.5 7.5 l 12.5 12.5 l -25 0 l -17.5 17.5 l 1.2 1.2 l 8.7 -8.7 l 37.6 0 l 10 -10 l -20 -20 z"></path><path d="M 50.75000000000003 -20.03750000000001 l -10 10 l 50 0 l 10 -10 l -50 0 z"></path></g><g><path d="M 124.50000000000003 -50.03750000000001 l -10 10 l 0 60 l 10 -10 l 0 -60 z"></path><g><path d="M 114.50000000000003 4.9624999999999915 l 0 15 l 15 0 l 10 -10 l -15 0 l 0 -10 q -3.874 7.753 -10 5 z"></path></g></g><g><path d="M 215.15 -39.962500000000006 l 10 -10 l -65.75 0 l -9.9 9.95 l 30.45 37.55 l 7.25 -7.3 l 24.15 29.65 l 7.45 -7.4 l -25.2 -31.05 l -7.5 7.45 l -23.1 -28.85 l 52.15 0 z"></path><g><path d="M 210.20000000000002 18.73749999999999 l -15.05 0 l -10 10 l 17.45 0 l 8.75 -8.85 q 1.75 -3.2 4.85 -7.2 q -5.7 -0.35 -6 6.05 z"></path></g><path d="M 197.32500000000002 -59.962500000000006 l 10 -10 l -30 0 l -10 10 l 30 0 z"></path></g></g></g>
</svg>
