<svg xmlns="http://www.w3.org/2000/svg" viewBox="0 0 65.65 172.294907" width="65.65" height="172.294907" fill="currentColor" stroke="none">
<g transform="translate(32.825 86.147453)"><g><g><path d="M -7.824999999999999 -35.025000000000006 l -7.5 7.5 l 22.55 22.55 l -14.4 0 l -17.6 17.65 l 0 22.35 l 40 0 l 10 -10 l -40 0 l 0 -20 l 30 0 l 8.5 -8.5 l -31.55 -31.55 z"></path><g><path d="M -5.225000000000001 -25.025000000000006 q 1.655 -2.716 -2.6 -10 l -15 0 l -10 10 l 20 0 q 7.015 2.931 7.6 0 z"></path></g><g><path d="M 17.575000000000003 25.025000000000006 q 0.465 4.718 -7.9 10 l 5.55 0 l 17.6 -17.6 l 0 -15 l -10 10 l 0 12.6 l -5.25 0 z"></path></g></g></g></g>
</svg>
