<svg xmlns="http://www.w3.org/2000/svg" viewBox="0 0 175.65 90.025" width="175.65" height="90.025" fill="currentColor" stroke="none">
<g transform="translate(87.825 45.0125)"><g><g><path d="M -59.825 -1.8875000000000046 l 7.45 -7.5 27.05 34.4 7.5 -7.5 -27.8 -36 -7.75 7.8 -26.95 -34.3 -7.5 7.5 28 35.6 z"></path><path d="M -50.325 45.012499999999996 l 10 -10 l -30 0 l -10 10 l 30 0 z"></path></g><g><path d="M 17.174999999999997 -45.0125 l -7.5 7.5 l 22.55 22.55 l -14.4 0 l -17.6 17.65 l 0 22.35 l 40 0 l 10 -10 l -40 0 l 0 -20 l 30 0 l 8.5 -8.5 l -31.55 -31.55 z"></path><g><path d="M 19.77499999999999 -35.0125 q 1.655 -2.716 -2.6 -10 l -15 0 l -10 10 l 20 0 q 7.015 2.931 7.6 0 z"></path></g><g><path d="M 42.575 15.037500000000009 q 0.465 4.718 -7.9 10 l 5.55 0 l 17.6 -17.6 l 0 -15 l -10 10 l 0 12.6 l -5.25 0 z"></path></g></g><g><path d="M 87.825 -21.137500000000003 l -10 10 l 0 -33.85 l -10 10 l 0 36.2 l 10 -9.95 l 0 33.75 l 10 -10 l 0 -36.15 z"></path><g><path d="M 77.825 45.012499999999996 l 10 -10 l 0 -20 q -7.3 -5 -10 10 l 0 20 z"></path></g></g></g></g>
</svg>
