<svg xmlns="http://www.w3.org/2000/svg" viewBox="0 0 434.5 131.4" width="434.5" height="131.4" fill="currentColor" stroke="none">
<g transform="translate(217.25 65.7)"><g><g><path d="M -207.25000000000003 -40.7 l -10 10 l 0 60 l 10 -10 l 0 -60 z"></path><g><path d="M -217.25000000000003 14.299999999999997 l 0 15 l 15 0 l 10 -10 l -15 0 l 0 -10 q -3.874 7.753 -10 5 z"></path></g></g><g><path d="M -122.85000000000002 -40.7 l -50 0 l -9.4 9.4 l 23.2 33.05 l 6.2 -6.25 l 0 33.8 l 10 -10 l 0 -36.15 l -1.1 1.1 q -2.967 2.977 -5.95 5.95 l -1.95 2 l -0.65 0.65 l -16.5 -23.5 l 36.2 0 l 10 -10 z"></path><g><path d="M -142.85000000000002 36.9 l 0 -17.6 q -7.3 -5 -10 10 l 0 20 l 17.5 -17.5 l -1.2 -1.2 l -6.3 6.3 z"></path></g><path d="M -142.52500000000003 -50.7 l 10 -10 l -30 0 l -10 10 l 30 0 z"></path></g><g><path d="M -52.80000000000001 29.299999999999997 l 7.5 -7.5 -26.9 -26.9 7.45 -7.55 -28.05 -28.05 -7.5 7.5 26.9 26.9 -7.5 7.5 28.1 28.1 z"></path><path d="M -91.65 -39.5 l 7.5 -7.55 q -17.7 -8.5 -27.5 7.5 q 11.7 -7.3 18.85 -1.15 l -3.7 3.65 q 1.81 1.308 4.55 2.1 q 1.8 0.5 0.3 -4.55 z"></path><path d="M -55.400000000000006 19.299999999999997 q -1.655 2.716 2.6 10 l 15 0 l 10 -10 l -20 0 q -7.015 -2.931 -7.6 0 z"></path><path d="M -82.80000000000001 29.299999999999997 l 10 -10 l -30 0 l -10 10 l 30 0 z"></path><path d="M -80.30000000000001 -58.2 l 7.5 7.5 l 7.5 -7.5 l -7.5 -7.5 l -7.5 7.5 z"></path></g><g><path d="M -2.75 -30.700000000000003 l 34.95 0 l 10 -10 l -50 0 l -10 10 l 25 25 l 0 35 l 10 -10 l 0 -30.05 l -19.95 -19.95 z"></path><g><path d="M 17.19999999999999 36.9 l 0 -17.6 q -7.3 -5 -10 10 l 0 20 l 17.5 -17.5 l -1.2 -1.2 l -6.3 6.3 z"></path></g></g><g><path d="M 59.70000000000002 -40.7 l -7.5 7.5 57.5 62.5 7.5 -7.5 -57.5 -62.5 z"></path><path d="M 62.20000000000002 11.799999999999997 l -10 10 l 0 25 l 10 -10 l 0 -25 z"></path><path d="M 112.30000000000004 -30.700000000000003 l -8.8 8.8 l 1.2 1.2 l 20 -20 l -30 0 l -10 10 l 27.6 0 z"></path><path d="M 94.70000000000002 -50.7 l 10 -10 l -30 0 l -10 10 l 30 0 z"></path></g><g><path d="M 177.25000000000003 -40.7 l -10 10 l 0 60 l 10 -10 l 0 -50 l 30 0 l 10 -10 l -40 0 z"></path><g><path d="M 177.25000000000003 19.299999999999997 l 0 -7.3 q -4.546 5.888 -10 3.05 l 0 11.95 l -15.05 0 l -17.5 17.5 l 1.2 1.2 l 8.7 -8.7 l 15 0 l 17.65 -17.7 z"></path></g><path d="M 185.97500000000005 65.7 l 10 -10 l -30 0 l -10 10 l 30 0 z"></path></g></g></g>
</svg>
