<svg xmlns="http://www.w3.org/2000/svg" viewBox="0 0 45 172.294907" width="45" height="172.294907" fill="currentColor" stroke="none">
<g transform="translate(22.5 86.147453)"><g><g><path d="M -2.5 -8.224999999999996 l -10 10 l 0 -33.85 l -10 10 l 0 36.2 l 10 -9.95 l 0 33.75 l 10 -10 l 0 -36.15 z"></path><g><path d="M -22.5 -22.074999999999996 l 0 5 q 6.25 -9 10 -5 l 0 -7.6 l 11.8 11.7 l 7 -7 l -12.95 -12.95 l -15.85 15.85 z"></path></g><g><path d="M -2.5500000000000007 25.525000000000006 l 0.05 -5.05 q -4.6 6.3 -10 4 l 0 13.45 l 9.95 -10 l 12.65 0 l -7.5 7.5 l 1.2 1.2 l 18.7 -18.7 l -17.45 0 l -7.6 7.6 z"></path></g></g></g></g>
</svg>
