<svg xmlns="http://www.w3.org/2000/svg" viewBox="0 0 134.45 95" width="134.45" height="95" fill="currentColor" stroke="none">
<g transform="translate(67.225 47.5)"><g><g><path d="M -59.724999999999994 -47.5 l -7.5 7.5 57.5 62.5 7.5 -7.5 -57.5 -62.5 z"></path><path d="M -57.224999999999994 5 l -10 10 l 0 25 l 10 -10 l 0 -25 z"></path><path d="M -49.724999999999994 40 l 7.5 7.5 l 7.5 -7.5 l -7.5 -7.5 l -7.5 7.5 z"></path></g><g><path d="M 67.17499999999998 -47.5 l -50 0 l -9.4 9.4 l 23.2 33.05 l 6.2 -6.25 l 0 33.8 l 10 -10 l 0 -36.15 l -1.1 1.1 q -2.967 2.977 -5.95 5.95 l -1.95 2 l -0.65 0.65 l -16.5 -23.5 l 36.2 0 l 10 -10 z"></path><g><path d="M 37.175 42.5 l 10 -10 l 0 -20 q -7.3 -5 -10 10 l 0 20 z"></path></g></g></g></g>
</svg>
