<svg xmlns="http://www.w3.org/2000/svg" viewBox="0 0 68.144442 172.294907" width="68.144442" height="172.294907" fill="currentColor" stroke="none">
<g transform="translate(34.064844 86.147453)"><g><g><path d="M -19.014843749999997 -21.25 l 34.95 0 l 10 -10 l -50 0 l -10 10 l 25 25 l 0 35 l 10 -10 l 0 -30.05 l -19.95 -19.95 z"></path><g><path d="M 23.63515625 -11.25 q 16 -9.8 7.5 -27.5 l -7.55 7.5 l -11.1 0 q 3.05 5.25 -1.5 10 l 5 0 l 8.8 -8.85 q 6.15 7.15 -1.15 18.85 z"></path></g><g><path d="M -9.064843749999998 38.75 l 10 -10 l 0 -10 q -3.499 7.753 -10 5 l 0 5 l -10 0 l -10 10 l 20 0 z"></path></g></g></g></g>
</svg>
