<svg xmlns="http://www.w3.org/2000/svg" viewBox="0 0 186.6 97.2" width="186.6" height="97.2" fill="currentColor" stroke="none">
<g transform="translate(93.3 48.6)"><g><g><path d="M -40.8 31.1 l 7.5 -7.5 -26.9 -26.9 7.45 -7.55 -28.05 -28.05 -7.5 7.5 26.9 26.9 -7.5 7.5 28.1 28.1 z"></path><path d="M -34.5 22.400000000000002 q -4.2 -0.65 -6.3 2.7 q -0.8 1 0 6 l 6.3 -6.3 l 0 19.95 l 10 -10.1 l 0 -22.35 l -10 10.1 z"></path><path d="M -93.3 23.6 l 0 25 l 20 -20 l -1.2 -1.2 l -8.8 8.8 l 0 -22.6 l -10 10 z"></path></g><g><path d="M 5.799999999999997 -38.9 l -7.5 7.5 l 31.25 31.25 l -31.25 31.25 l 40 0 l 10 -10 l -37.6 0 l 27.5 -27.6 l -32.4 -32.4 z"></path><g><path d="M 6.700000000000003 -37.3 l 11.2 -11.3 l -22.4 0 l -10 10.1 l 19.9 0 l -7.1 7.1 q 10.446 1.157 8.4 -5.9 z"></path></g><g><path d="M 28.299999999999997 21.1 q 6.368 3.408 0 10 l 10 0 l 10 -10 l 0 -15 l -10 10 l 0 5 l -10 0 z"></path></g></g><g><path d="M 78.3 -15.049999999999999 l -10 10 l 0 -33.85 l -10 10 l 0 36.2 l 10 -9.95 l 0 33.75 l 10 -10 l 0 -36.15 z"></path><g><path d="M 68.3 16.1 l 0 15 l 15 0 l 10 -10 l -15 0 l 0 -10 q -3.874 7.753 -10 5 z"></path></g></g></g></g>
</svg>
