<svg xmlns="http://www.w3.org/2000/svg" viewBox="0 0 581.9 124.5" width="581.9" height="124.5" fill="currentColor" stroke="none">
<g transform="translate(290.95 62.25)"><g><g><path d="M -272.75000000000006 -36.42499999999999 l -10 10 l 0 60 l 10 -10 l 0 -60 z"></path><g><path d="M -270.95000000000005 45.37500000000001 l -11.8 -11.8 l 10 -10 l 0 -5 q -5.188 7.964 -10 5 l 0 7.7 l -8.2 8.2 l 13 12.9 l 7 -7 z"></path></g></g><g><path d="M -250.95000000000005 -36.42499999999999 l -10 10 l 0 60 l 10 -10 l 0 -50 l 30 0 l 10 -10 l -40 0 z"></path><g><path d="M -250.95000000000005 41.17500000000001 l 0 -17.6 q -7.3 -5 -10 10 l 0 20 l 17.5 -17.5 l -1.2 -1.2 l -6.3 6.3 z"></path></g><path d="M -225.95000000000005 -46.42499999999999 l 10 -10 l -30 0 l -10 10 l 30 0 z"></path></g><g><path d="M -193.45000000000005 -36.42499999999999 l -7.5 7.5 57.5 62.5 7.5 -7.5 -57.5 -62.5 z"></path><path d="M -137.15000000000006 24.87500000000001 q -4.2 -0.65 -6.3 2.7 q -0.8 1 0 6 l 6.3 -6.3 l 0 19.95 l 10 -10.1 l 0 -22.35 l -10 10.1 z"></path></g><g><path d="M -62.15000000000006 -36.39999999999999 l -10 10 l 0 20 l -35 0 l -10 10 l 29.95 29.95 l 7.5 -7.5 l -22.45 -22.45 l 30 0 l 10 -10 l 0 -30 z"></path><g><path d="M -72.15000000000006 -26.4 l 0 5 q 6.25 -9 10 -5 l 0 -7.6 l 11.8 11.7 l 7 -7 l -12.95 -12.95 l -15.85 15.85 z"></path></g><g><path d="M -89.80000000000007 23.54999999999999 q -1.65 2.7 2.6 10 l 12.6 0 l -7.5 7.5 l 1.2 1.2 l 18.7 -18.7 l -20 0 q -7 -2.95 -7.6 0 z"></path></g><path d="M -70.25000000000006 -52.25 l 10 -10 l -30 0 l -10 10 l 30 0 z"></path><path d="M -70.25000000000006 62.25 l 10 -10 l -30 0 l -10 10 l 30 0 z"></path></g><g><path d="M -25.85000000000008 -36.42499999999999 l -7.5 7.5 57.5 62.5 7.5 -7.5 -57.5 -62.5 z"></path><path d="M 1.6499999999999204 53.57500000000001 l 10 -10 l -30 0 l -10 10 l 30 0 z"></path></g><g><path d="M 91.64999999999992 -26.42499999999999 l 10 -10 l -50 0 l -10 10 l 0 35 l 10 -10 l 15 0 l 0 35 l 10 -10 l 0 -35 l -17.35 0 l -7.65 7.6 l 0 -22.6 l 40 0 z"></path><g><path d="M 103.44999999999993 -14.62499999999999 l -11.8 -11.8 l 10 -10 l -11.15 0 q 3.75 5.2 -5.8 10 l 4.65 0 l -5.9 5.9 l 13 12.9 l 7 -7 z"></path></g><g><path d="M 76.64999999999992 23.57500000000001 l 15 0 l 10 -10 l -17.45 0 l -7.6 7.6 l 0.05 -5.05 q -4.6 6.3 -10 4 l 0 13.45 l 9.95 -10 z"></path></g></g><g><path d="M 133.44999999999993 -12.57499999999999 l -10 10 l 0 -33.85 l -10 10 l 0 36.2 l 10 -9.95 l 0 33.75 l 10 -10 l 0 -36.15 z"></path><g><path d="M 123.44999999999993 53.57500000000001 l 10 -10 l 0 -20 q -7.3 -5 -10 10 l 0 20 z"></path></g></g><g><path d="M 150.94999999999993 -36.42499999999999 l -7.5 7.5 57.5 62.5 7.5 -7.5 -57.5 -62.5 z"></path><path d="M 198.3499999999999 23.57500000000001 q -1.655 2.716 2.6 10 l 15 0 l 10 -10 l -20 0 q -7.015 -2.931 -7.6 0 z"></path><path d="M 153.44999999999993 16.07500000000001 l -10 10 l 0 25 l 10 -10 l 0 -25 z"></path><path d="M 160.94999999999993 51.07500000000001 l 7.5 7.5 l 7.5 -7.5 l -7.5 -7.5 l -7.5 7.5 z"></path></g><g><path d="M 290.95000000000005 -36.39999999999999 l -10 10 l 0 20 l -35 0 l -10 10 l 29.95 29.95 l 7.5 -7.5 l -22.45 -22.45 l 30 0 l 10 -10 l 0 -30 z"></path><g><path d="M 268.4000000000001 31.04999999999999 l 5 -5 l 10 10 l 7.15 -7.15 l -11.3 -11.2 l -7 7.1 l -1 1 q -3.183 -1.742 -3.85 0 q -0.916 1.293 0 6.25 z"></path></g></g></g></g>
</svg>
