<svg xmlns="http://www.w3.org/2000/svg" viewBox="0 0 95.95 172.294907" width="95.95" height="172.294907" fill="currentColor" stroke="none">
<g transform="translate(47.975 86.147453)"><g><g><path d="M -11.175000000000004 9.35 l 7.45 -7.5 27.05 34.4 7.5 -7.5 -27.8 -36 -7.75 7.8 -26.95 -34.3 -7.5 7.5 28 35.6 z"></path><path d="M -37.975 -25.05 q 4.2 0.65 6.3 -2.7 q 0.8 -1 0 -6 l -6.3 6.3 l 0 -19.95 l -10 10.1 l 0 22.35 l 10 -10.1 z"></path><path d="M 25.824999999999996 33.75 l 5 -5 l 10 10 l 7.15 -7.15 l -11.3 -11.2 l -7 7.1 l -1 1 q -3.183 -1.742 -3.85 0 q -0.916 1.293 0 6.25 z"></path><path d="M -26.675000000000004 18.75 l -10 10 l 0 25 l 10 -10 l 0 -25 z"></path><path d="M 23.425000000000004 -23.75 l -8.8 8.8 l 1.2 1.2 l 20 -20 l -30 0 l -10 10 l 27.6 0 z"></path><path d="M 5.824999999999996 -43.75 l 10 -10 l -30 0 l -10 10 l 30 0 z"></path></g></g></g>
</svg>
