<svg xmlns="http://www.w3.org/2000/svg" viewBox="0 0 430.05 110" width="430.05" height="110" fill="currentColor" stroke="none">
<g transform="translate(215.025 55)"><g><g><path d="M -182.025 8.1 l 7.45 -7.5 27.05 34.4 7.5 -7.5 -27.8 -36 -7.75 7.8 -26.95 -34.3 -7.5 7.5 28 35.6 z"></path><path d="M -185.025 35 l 10 -10 l -30 0 l -10 10 l 30 0 z"></path><path d="M -147.425 -25 l -8.8 8.8 l 1.2 1.2 l 20 -20 l -30 0 l -10 10 l 27.6 0 z"></path></g><g><path d="M -115.025 -35 l -10 10 l 0 36.3 l 10 -10.05 l 0 33.75 l 10 -10 l 0 -36.15 l -10 10 l 0 -23.85 l 30 0 l 10 -10 l -40 0 z"></path><path d="M -90.025 55 l 10 -10 l -30 0 l -10 10 l 30 0 z"></path></g><g><path d="M -55.025000000000006 -35 l -10 10 l 0 60 l 10 -10 l 0 -60 z"></path><g><path d="M -65.025 20 l 0 15 l 15 0 l 10 -10 l -15 0 l 0 -10 q -3.874 7.753 -10 5 z"></path></g></g><g><path d="M -14.924999999999983 -25 l 34.95 0 l 10 -10 l -50 0 l -10 10 l 25 25 l 0 35 l 10 -10 l 0 -30.05 l -19.95 -19.95 z"></path><g><path d="M -5.025000000000006 32.7 l -15 0 l -10 10 l 17.4 0 l 17.65 -17.7 l 0 -7.3 q -5.4 4.35 -10 2.75 l 0 12.25 z"></path></g><path d="M 10 -45 l 10 -10 l -30 0 l -10 10 l 30 0 z"></path></g><g><path d="M 50.025000000000006 -35 l -10 10 l 0 60 l 10 -10 l 0 -60 z"></path><g><path d="M 40.025000000000006 20 l 0 15 l 15 0 l 10 -10 l -15 0 l 0 -10 q -3.874 7.753 -10 5 z"></path></g></g><g><path d="M 86.275 -35 l -10 10 l 0 30 l 30 30 l 7.5 -7.5 l -27.5 -27.5 l 0 -35 z"></path><path d="M 105.025 -45 l 10 -10 l -30 0 l -10 10 l 30 0 z"></path></g><g><path d="M 135.025 -35 l -10 10 l 0 60 l 10 -10 l 0 -60 z"></path><g><path d="M 125.025 20 l 0 15 l 10 -10 l 0 20 l 10 -9.9 l 0 -22.4 l -10 9.95 l 0 -5.15 q -5 6.1 -10 2.5 z"></path></g></g><g><path d="M 205.025 -25 l 10 -10 l -50 0 l -10 10 l 0 35 l 10 -10 l 15 0 l 0 35 l 10 -10 l 0 -35 l -17.35 0 l -7.65 7.6 l 0 -22.6 l 40 0 z"></path><g><path d="M 172.525 40.1 l 1.2 1.2 l 16.3 -16.3 l 0 -7.75 q -5 9.444 -10 6.55 l 0 8.8 l -7.5 7.5 z"></path></g><path d="M 195.025 -45 l 10 -10 l -30 0 l -10 10 l 30 0 z"></path></g></g></g>
</svg>
