<svg xmlns="http://www.w3.org/2000/svg" viewBox="0 0 62.5 116.15" width="62.5" height="116.15" fill="currentColor" stroke="none">
<g transform="translate(31.25 58.075)"><g><g fill="currentColor"><path d="M 23.75 -58.07499999999999 l -10 10 l 0 20 l -35 0 l -10 10 l 29.95 29.95 l 7.5 -7.5 l -22.45 -22.45 l 30 0 l 10 -10 l 0 -30 z"></path><g><path d="M 6.200000000000003 4.374999999999993 l 12.65 0 l -7.5 7.5 l 1.2 1.2 l 18.7 -18.7 l -17.45 0 l -8.75 8.8 q -6.9 -0.2 -3.8 6.15 l 4.95 -4.95 z"></path></g><path d="M 10 48.074999999999996 l 0 -25 l -20 20 l 1.2 1.2 l 8.8 -8.8 l 0 22.6 l 10 -10 z"></path></g></g></g>
</svg>
