<svg xmlns="http://www.w3.org/2000/svg" viewBox="0 0 194.95 141.4" width="194.95" height="141.4" fill="currentColor" stroke="none">
<g transform="translate(97.475 70.7)"><g><g><path d="M -64.47499999999998 -2.600000000000003 l 7.45 -7.5 27.05 34.4 7.5 -7.5 -27.8 -36 -7.75 7.8 -26.95 -34.3 -7.5 7.5 28 35.6 z"></path><path d="M -67.47499999999998 24.299999999999997 l 10 -10 l -30 0 l -10 10 l 30 0 z"></path></g><g><path d="M 30.075000000000017 -45.7 l -10 10 l 0 60 l 10 -10 l 0 -50 l 30 0 l 10 -10 l -40 0 z"></path><g><path d="M 30.075000000000017 14.299999999999997 l 0 -7.3 q -4.546 5.888 -10 3.05 l 0 11.95 l -15.05 0 l -17.5 17.5 l 1.2 1.2 l 8.7 -8.7 l 15 0 l 17.65 -17.7 z"></path></g><path d="M 21.300000000000026 -63.2 l 7.5 7.5 l 7.5 -7.5 l -7.5 -7.5 l -7.5 7.5 z"></path><path d="M 36.40000000000002 60.7 l -8.8 8.8 l 1.2 1.2 l 20 -20 l -30 0 l -10 10 l 27.6 0 z"></path></g><path d="M 81.27500000000002 -18.200000000000003 l 6.95 6.95 l -7.5 7.45 l 6.85 6.9 l -7.5 7.5 l 1.2 1.2 l 15 -15 l -6.85 -6.85 l 7.45 -7.55 l -6.9 -6.9 l 7.5 -7.5 l -1.2 -1.2 l -15 15 z"></path></g></g>
</svg>
