<svg xmlns="http://www.w3.org/2000/svg" viewBox="0 0 83.25 172.294907" width="83.25" height="172.294907" fill="currentColor" stroke="none">
<g transform="translate(41.625 86.147453)"><g><g><path d="M -31.724999999999998 -13.725000000000001 l -9.9 9.95 l 47.35 58.35 l 0.05 0 l 1.4 1.75 l 7.5 -7.5 l -42.7 -52.55 l 52.05 0 l 10 -10 l -65.75 0 z"></path><g><path d="M 26.375 -13.725000000000001 q 0.465 4.718 -7.9 10 l 5.55 0 l 17.6 -17.6 l 0 -15 l -10 10 l 0 12.6 l -5.25 0 z"></path></g><g><path d="M 8.275000000000006 53.275000000000006 q 3.28 -1.825 6.4 -4.45 l 7.5 -7.5 l -1.2 -1.2 l -7.5 7.5 q -4.106 -1.688 -4.55 -0.35 q -0.6 1.45 -0.65 6 z"></path></g><path d="M 10.000000000000007 -46.325 l 10 -10 l -30 0 l -10 10 l 30 0 z"></path></g></g></g>
</svg>
