<svg xmlns="http://www.w3.org/2000/svg" viewBox="0 0 65 172.294907" width="65" height="172.294907" fill="currentColor" stroke="none">
<g transform="translate(32.5 86.147453)"><g><g><path d="M 0 15 l 7.5 -7.5 -32.5 -32.5 -7.5 7.5 32.5 32.5 m -17.5 -10 l -7.5 7.5 32.5 32.5 7.5 -7.5 -32.5 -32.5 z"></path><path d="M -23.85 -17.5 q 1.328 -4.078 -0.8 -6.7 l 0.8 0.35 q 19.05 9.15 23.7 -6.2 q -7.65 9.4 -17.35 -2.45 l -15 15 q 4.648 1.323 8.65 0 z"></path><path d="M 4.899999999999999 35 q -1.655 2.716 2.6 10 l 15 0 l 10 -10 l -20 0 q -7.015 -2.931 -7.6 0 z"></path><path d="M 1.25 -35 l 10 -10 l -30 0 l -10 10 l 30 0 z"></path></g></g></g>
</svg>
