<svg xmlns="http://www.w3.org/2000/svg" viewBox="0 0 80.7 172.294907" width="80.7" height="172.294907" fill="currentColor" stroke="none">
<g transform="translate(40.35 86.147453)"><g><g><path d="M 22.15 41.900000000000006 l 10 -10 l 0 -60 l -10 10 l 0 50 l -30 0 l -10 10 l 40 0 z"></path><g><path d="M 20.35 -39.89999999999999 l 11.8 11.8 l -10 10 l 0 5 q 5.188 -7.964 10 -5 l 0 -7.7 l 8.2 -8.2 l -13 -12.9 l -7 7 z"></path></g><g><path d="M -40.35 34.400000000000006 l 1.2 1.2 l 7.5 -7.5 l 13.8 13.8 q 8.65 -2.75 10 -10 l -5 0 l -12.5 -12.5 l -15 15 z"></path></g><path d="M 10 -56.9 l 10 -10 l -30 0 l -10 10 l 30 0 z"></path><path d="M -7.5 59.400000000000006 l 7.5 7.5 l 7.5 -7.5 l -7.5 -7.5 l -7.5 7.5 z"></path></g></g></g>
</svg>
