<svg xmlns="http://www.w3.org/2000/svg" viewBox="0 0 61.2 172.294907" width="61.2" height="172.294907" fill="currentColor" stroke="none">
<g transform="translate(30.6 86.178838)"><g><g><path d="M 10.600000000000001 -15.683337833492503 l -10 10 l 0 -33.85 l -10 10 l 0 36.2 l 10 -9.95 l 0 33.75 l 10 -10 l 0 -36.15 z"></path><g><path d="M 0.5999999999999979 -23.883337833492504 l 0 -15.65 l -10 10 q -9.4 -17.75 -21.2 -6.85 q 12.25 -2.15 14.85 15.5 l 6.35 -6.3 l 0 8.1 q 4.8 -9.5 10 -4.8 z"></path></g><g><path d="M 30.6 30.466662166507497 l -15 0 l 10 -10 l -15 0 l 0 -10 q -3.85 7.75 -10 5 l 0 15 l 12.55 0 l -9.95 10 l 17.4 0 l 10 -10 z"></path></g></g></g></g>
</svg>
