<svg xmlns="http://www.w3.org/2000/svg" viewBox="0 0 184.95 115" width="184.95" height="115" fill="currentColor" stroke="none">
<g transform="translate(92.475 57.5)"><g><g fill="currentColor"><path d="M -57.47500000000001 -47.5 l -10 10 l 0 35 l 26.3 0 l 8.7 -8.75 l 0 33.75 l 10 -10 l 0 -36.15 l -11.15 11.15 l -23.85 0 l 0 -35 z"></path><g><path d="M -67.42500000000001 -35.1 l -0.05 5.05 q 4.6 -6.3 10 -4 l 0 -13.45 l -9.95 10 l -12.65 0 l 7.5 -7.5 l -1.2 -1.2 l -18.7 18.7 l 17.45 0 l 7.6 -7.6 z"></path></g><g><path d="M -32.47500000000001 22.5 l 15 0 l 0 15 l 10 -10 l 0 -15 l -15 0 l 0 -10 q -3.85 7.75 -10 5 l 0 15 z"></path></g><path d="M -39.97500000000001 57.5 l 10 -10 l -30 0 l -10 10 l 30 0 z"></path></g><g fill="currentColor"><path d="M 45.075 -23.65 l -10 10 l 0 -33.85 l -10 10 l 0 36.2 l 10 -9.95 l 0 33.75 l 10 -10 l 0 -36.15 z"></path><g><path d="M 47.47499999999998 -57.5 l -22.4 0 l -10 10.1 l 19.9 0 l 0.1 -0.1 l 0 0.1 l -0.05 0 l -9.95 9.9 l 0 5 q 5 -5.774 10 -5 l 0 -7.55 l 12.4 -12.4 z"></path></g><g><path d="M 45.075 12.5 l 0 -7.3 q -4.546 5.888 -10 3.05 l 0 11.95 l -15.05 0 l -17.5 17.5 l 1.2 1.2 l 8.7 -8.7 l 15 0 l 17.65 -17.7 z"></path></g></g><g fill="currentColor"><path d="M 77.47500000000001 -23.65 l -10 10 l 0 -33.85 l -10 10 l 0 36.2 l 10 -9.95 l 0 33.75 l 10 -10 l 0 -36.15 z"></path><g><path d="M 67.47500000000001 7.5 l 0 15 l 15 0 l 10 -10 l -15 0 l 0 -10 q -3.874 7.753 -10 5 z"></path></g></g></g></g>
</svg>
