<svg xmlns="http://www.w3.org/2000/svg" viewBox="0 0 75 172.294907" width="75" height="172.294907" fill="currentColor" stroke="none">
<g transform="translate(37.5 86.147453)"><g><g><path d="M -9.5 16.875 l 7.45 -7.5 27.05 34.4 7.5 -7.5 -27.8 -36 -7.75 7.8 -26.95 -34.3 -7.5 7.5 28 35.6 z"></path><path d="M -30 -26.225 l -7.5 7.5 q 11.45 4.9 8.7 -6.3 l 8.8 -8.9 l 0 -17.35 l -10 10 l 0 15.05 z"></path><path d="M 29.450000000000003 37.375 q -1.825 3.28 -4.45 6.4 l -7.5 7.5 l -1.2 -1.2 l 7.5 -7.5 q -1.688 -4.106 -0.35 -4.55 q 1.45 -0.6 6 -0.65 z"></path><path d="M 25.1 -16.225 l -8.8 8.8 l 1.2 1.2 l 20 -20 l -30 0 l -10 10 l 27.6 0 z"></path><path d="M -10 -43.725 l 7.5 7.5 l 7.5 -7.5 l -7.5 -7.5 l -7.5 7.5 z"></path></g></g></g>
</svg>
