<svg xmlns="http://www.w3.org/2000/svg" viewBox="0 0 571.75 145.05" width="571.75" height="145.05" fill="currentColor" stroke="none">
<g transform="translate(285.875 72.525)"><g><g><path d="M -257.87500000000006 -4.375000000000009 l 7.45 -7.5 27.05 34.4 7.5 -7.5 -27.8 -36 -7.75 7.8 -26.95 -34.3 -7.5 7.5 28 35.6 z"></path><path d="M -278.37500000000006 -47.47500000000001 l -7.5 7.5 q 11.45 4.9 8.7 -6.3 l 8.8 -8.9 l 0 -17.35 l -10 10 l 0 15.05 z"></path><path d="M -218.92500000000007 16.124999999999993 q -1.825 3.28 -4.45 6.4 l -7.5 7.5 l -1.2 -1.2 l 7.5 -7.5 q -1.688 -4.106 -0.35 -4.55 q 1.45 -0.6 6 -0.65 z"></path><path d="M -223.27500000000006 -37.47500000000001 l -8.8 8.8 l 1.2 1.2 l 20 -20 l -30 0 l -10 10 l 27.6 0 z"></path><path d="M -258.37500000000006 -64.97500000000001 l 7.5 7.5 l 7.5 -7.5 l -7.5 -7.5 l -7.5 7.5 z"></path></g><g><path d="M -185.82500000000005 -37.47500000000001 l 34.95 0 l 10 -10 l -50 0 l -10 10 l 25 25 l 0 35 l 10 -10 l 0 -30.05 l -19.95 -19.95 z"></path><g><path d="M -165.87500000000006 30.124999999999993 l 0 -17.6 q -7.3 -5 -10 10 l 0 20 l 17.5 -17.5 l -1.2 -1.2 l -6.3 6.3 z"></path></g><path d="M -178.47500000000005 62.52499999999999 l 8.8 -8.8 l -1.2 -1.2 l -20 20 l 30 0 l 10 -10 l -27.6 0 z"></path></g><g><path d="M -120.87500000000006 12.524999999999991 l -10 10 l 50 0 l 10 -10 l 0 -35 l -10 10 l -15 0 l 0 -35 l -10 10 l 0 35 l 17.35 0 l 7.65 -7.6 l 0 22.6 l -40 0 z"></path><path d="M -90.87500000000006 57.52499999999999 l 0 -25 l -20 20 l 1.2 1.2 l 8.8 -8.8 l 0 22.6 l 10 -10 z"></path></g><g><path d="M -32.87500000000006 -4.375000000000009 l 7.45 -7.5 27.05 34.4 7.5 -7.5 -27.8 -36 -7.75 7.8 -26.95 -34.3 -7.5 7.5 28 35.6 z"></path><path d="M -23.375000000000057 42.52499999999999 l 10 -10 l -30 0 l -10 10 l 30 0 z"></path></g><g><path d="M 42.82499999999999 -47.47500000000001 l -10 10 l 17.5 17.5 l -15 0 l -16.2 16.15 l 26.35 26.35 l 7.5 -7.5 l -25 -25 l 32.35 0 l 7.5 -7.5 l -20 -20 l 35 0 l 10 -10 l -50 0 z"></path><g><path d="M 42.87499999999994 12.524999999999991 q -1.655 2.716 2.6 10 l 15 0 l 10 -10 l -20 0 q -7.015 -2.931 -7.6 0 z"></path></g></g><g><path d="M 112.72500000000002 -47.50000000000001 l -9.9 9.95 l 47.35 58.35 l 0.05 0 l 1.4 1.75 l 7.5 -7.5 l -42.7 -52.55 l 52.05 0 l 10 -10 l -65.75 0 z"></path><path d="M 133.15000000000003 40.050000000000004 l 7.5 7.5 l 7.5 -7.5 l -7.5 -7.5 l -7.5 7.5 z"></path></g><g><path d="M 210.87500000000006 -47.47500000000001 l -10 10 l 0 60 l 10 -10 l 0 -60 z"></path><g><path d="M 188.47500000000008 32.52499999999999 l 22.4 0 l 10 -10.1 l -19.9 0 l -0.1 0.1 l 0 -0.1 l 0.05 0 l 9.95 -9.9 l 0 -5 q -5 5.774 -10 5 l 0 7.55 l -12.4 12.4 z"></path></g></g><g><path d="M 285.87500000000006 -47.45000000000001 l -10 10 l 0 20 l -35 0 l -10 10 l 29.95 29.95 l 7.5 -7.5 l -22.45 -22.45 l 30 0 l 10 -10 l 0 -30 z"></path><g><path d="M 258.2250000000001 12.499999999999972 q -1.655 2.716 2.6 10 l 15 0 l 10 -10 l -20 0 q -7.015 -2.931 -7.6 0 z"></path></g><path d="M 268.37500000000006 -57.45000000000002 l 10 -10 l -30 0 l -10 10 l 30 0 z"></path></g></g></g>
</svg>
