<svg xmlns="http://www.w3.org/2000/svg" viewBox="0 0 91.85 172.294907" width="91.85" height="172.294907" fill="currentColor" stroke="none">
<g transform="translate(45.925 86.147453)"><g><g><path d="M 19.724999999999994 -37.425 l 10 -10 l -65.75 0 l -9.9 9.95 l 30.45 37.55 l 7.25 -7.3 l 24.15 29.65 l 7.45 -7.4 l -25.2 -31.05 l -7.5 7.45 l -23.1 -28.85 l 52.15 0 z"></path><g><path d="M 14.725000000000001 -37.425 l 5 0 l 7.6 -7.6 l 0 19.95 l 10 -9.9 l 0 -22.45 l -10 10 l -12.6 0 q 3.5 4 0 10 z"></path></g><g><path d="M 18.52499999999999 32.425 l 17.4 0 l 10 -10 l -15 0 l 10 -10 l -20 0 q -7 -2.95 -7.6 0 q -1.65 2.7 2.6 10 l 12.55 0 l -9.95 10 z"></path></g><path d="M -7.5 49.925 l 7.5 7.5 l 7.5 -7.5 l -7.5 -7.5 l -7.5 7.5 z"></path></g></g></g>
</svg>
