<svg xmlns="http://www.w3.org/2000/svg" viewBox="0 0 656.85 123.85" width="656.85" height="123.85" fill="currentColor" stroke="none">
<g transform="translate(328.425 61.925)"><g><g><path d="M -299.625 -33.074999999999996 l -10 10 l 0 60 l 10 -10 l 0 -60 z"></path><g><path d="M -299.575 -30.775 l 15 0 l 10 -10 l -17.4 0 l -17.65 17.7 l 0 7.3 q 5.4 -4.35 10 -2.75 l 0 -12.25 z"></path></g><g><path d="M -299.625 26.925000000000004 l 0 -5 q -6.25 9 -10 5 l 0 7.6 l -11.8 -11.7 l -7 7 l 12.95 12.95 l 15.85 -15.85 z"></path></g></g><g><path d="M -257.07500000000005 -33.074999999999996 l -7.5 7.5 l 31.25 31.25 l -31.25 31.25 l 40 0 l 10 -10 l -37.6 0 l 27.5 -27.6 l -32.4 -32.4 z"></path><g><path d="M -255.925 -31.924999999999997 l 15.05 0 l 10 -10 l -17.45 0 l -8.75 8.85 q -1.75 3.2 -4.85 7.2 q 5.7 0.35 6 -6.05 z"></path></g><g><path d="M -209.425 19.425000000000004 l -7.5 7.5 l -11.1 0 q 3.05 5.25 -1.5 10 l 5 0 l 8.8 -8.85 q 0.445 14.232 18.8 18.85 q -12.993 -10.704 -12.45 -27.5 z"></path></g><path d="M -220.75 -51.925 l 10 -10 l -30 0 l -10 10 l 30 0 z"></path></g><g><path d="M -166.925 -9.224999999999996 l -10 10 l 0 -33.85 l -10 10 l 0 36.2 l 10 -9.95 l 0 33.75 l 10 -10 l 0 -36.15 z"></path><g><path d="M -167.275 24.825000000000003 q -0.375 0.363 -1.15 1.15 q -6.261 1.099 -8.5 -3.8 l 0 14.75 l 10 -10 l 10 10 l 7.15 -7.15 l -11.3 -11.2 l -5.85 5.9 q -0.04 0.029 -0.35 0.35 z"></path></g></g><g><path d="M -67.22500000000002 36.925000000000004 l 7.5 -7.5 -26.9 -26.9 7.45 -7.55 -28.05 -28.05 -7.5 7.5 26.9 26.9 -7.5 7.5 28.1 28.1 z"></path><path d="M -114.72500000000002 -25.574999999999996 l -15.05 0 l -10 10 l 17.45 0 l 8.75 -8.8 q 6.9 0.2 3.8 -6.15 l -4.95 4.95 z"></path><path d="M -119.72500000000002 16.925000000000004 l 20 20 l 7.5 -7.5 l -20 -20 l -7.5 7.5 z"></path></g><g><path d="M 15.924999999999955 -22.999999999999996 l 10 -10 l -65.75 0 l -9.9 9.95 l 30.45 37.55 l 7.25 -7.3 l 24.15 29.65 l 7.45 -7.4 l -25.2 -31.05 l -7.5 7.45 l -23.1 -28.85 l 52.15 0 z"></path><path d="M -19.400000000000034 -50.49999999999999 l 7.5 7.5 l 7.5 -7.5 l -7.5 -7.5 l -7.5 7.5 z"></path></g><g><path d="M 63.924999999999955 10.025000000000004 l 7.45 -7.5 27.05 34.4 7.5 -7.5 -27.8 -36 -7.75 7.8 -26.95 -34.3 -7.5 7.5 28 35.6 z"></path><path d="M 48.424999999999955 19.425000000000004 l -10 10 l 0 25 l 10 -10 l 0 -25 z"></path><path d="M 55.924999999999955 54.425000000000004 l 7.5 7.5 l 7.5 -7.5 l -7.5 -7.5 l -7.5 7.5 z"></path></g><g><path d="M 125.92499999999995 -33.074999999999996 l -10 10 l 0 60 l 10 -10 l 0 -50 l 30 0 l 10 -10 l -40 0 z"></path></g><g><path d="M 183.42499999999995 -33.074999999999996 l -7.5 7.5 57.5 62.5 7.5 -7.5 -57.5 -62.5 z"></path><path d="M 230.82499999999987 26.925000000000004 q -1.65 2.7 2.6 10 l 12.6 0 l -7.5 7.5 l 1.2 1.2 l 18.7 -18.7 l -20 0 q -7 -2.95 -7.6 0 z"></path><path d="M 193.4249999999999 54.425000000000004 l 7.5 7.5 l 7.5 -7.5 l -7.5 -7.5 l -7.5 7.5 z"></path></g><g><path d="M 318.425 -23.074999999999996 l 10 -10 l -50 0 l -10 10 l 0 35 l 10 -10 l 15 0 l 0 35 l 10 -10 l 0 -35 l -17.35 0 l -7.65 7.6 l 0 -22.6 l 40 0 z"></path></g></g></g>
</svg>
