<svg xmlns="http://www.w3.org/2000/svg" viewBox="0 0 406.45 115" width="406.45" height="115" fill="currentColor" stroke="none">
<g transform="translate(203.225 57.5)"><g><g><path d="M -193.22500000000005 -37.5 l -10 10 l 0 60 l 10 -10 l 0 -60 z"></path></g><g><path d="M -128.22500000000005 -37.475 l -10 10 l 0 20 l -35 0 l -10 10 l 29.95 29.95 l 7.5 -7.5 l -22.45 -22.45 l 30 0 l 10 -10 l 0 -30 z"></path><g><path d="M -150.77500000000003 29.97499999999998 l 5 -5 l 10 10 l 7.15 -7.15 l -11.3 -11.2 l -7 7.1 l -1 1 q -3.183 -1.742 -3.85 0 q -0.916 1.293 0 6.25 z"></path></g><path d="M -145.72500000000005 -47.47500000000001 l 10 -10 l -30 0 l -10 10 l 30 0 z"></path></g><g><path d="M -82.72500000000005 5.6 l 7.45 -7.5 27.05 34.4 7.5 -7.5 -27.8 -36 -7.75 7.8 -26.95 -34.3 -7.5 7.5 28 35.6 z"></path><path d="M -104.32500000000005 -34.45 q -3.28 1.825 -6.4 4.45 l -7.5 7.5 l 1.2 1.2 l 7.5 -7.5 q 4.106 1.688 4.55 0.35 q 0.6 -1.45 0.65 -6 z"></path><path d="M -43.77500000000006 26.1 q -1.825 3.28 -4.45 6.4 l -7.5 7.5 l -1.2 -1.2 l 7.5 -7.5 q -1.688 -4.106 -0.35 -4.55 q 1.45 -0.6 6 -0.65 z"></path><path d="M -65.72500000000005 -47.5 l 10 -10 l -30 0 l -10 10 l 30 0 z"></path></g><g><path d="M -15.725000000000051 -37.5 l -10 10 l 0 35 l 19.95 0 l -24.95 25 l 40 0 l 10 -10 l -37.6 0 l 24.85 -25 l -22.25 0 l 0 -35 z"></path></g><g><path d="M 88.67499999999998 -37.5 l -50 0 l -9.4 9.4 l 23.2 33.05 l 6.2 -6.25 l 0 33.8 l 10 -10 l 0 -36.15 l -1.1 1.1 q -2.967 2.977 -5.95 5.95 l -1.95 2 l -0.65 0.65 l -16.5 -23.5 l 36.2 0 l 10 -10 z"></path><path d="M 68.99999999999997 -47.5 l 10 -10 l -30 0 l -10 10 l 30 0 z"></path><path d="M 51.49999999999997 50 l 7.5 7.5 l 7.5 -7.5 l -7.5 -7.5 l -7.5 7.5 z"></path></g><g><path d="M 108.725 -37.5 l -10 10 l 0 60 l 10 -10 l 0 -60 z"></path><g><path d="M 108.775 -35.2 l 15 0 l 10 -10 l -17.4 0 l -17.65 17.7 l 0 7.3 q 5.4 -4.35 10 -2.75 l 0 -12.25 z"></path></g></g><g><path d="M 203.17500000000004 -37.5 l -50 0 l -9.4 9.4 l 23.2 33.05 l 6.2 -6.25 l 0 33.8 l 10 -10 l 0 -36.15 l -1.1 1.1 q -2.967 2.977 -5.95 5.95 l -1.95 2 l -0.65 0.65 l -16.5 -23.5 l 36.2 0 l 10 -10 z"></path><path d="M 183.50000000000003 -47.5 l 10 -10 l -30 0 l -10 10 l 30 0 z"></path></g></g></g>
</svg>
