<svg xmlns="http://www.w3.org/2000/svg" viewBox="0 0 100.3 172.294907" width="100.3" height="172.294907" fill="currentColor" stroke="none">
<g transform="translate(50.15 86.147453)"><g><g><path d="M -9.349999999999994 4.749999999999998 l 7.45 -7.5 27.05 34.4 7.5 -7.5 -27.8 -36 -7.75 7.8 -26.95 -34.3 -7.5 7.5 28 35.6 z"></path><path d="M -40.14999999999999 -48.050000000000004 l -10 10.1 l 19.9 0 l -7.1 7.1 q 10.45 1.15 8.4 -5.9 l 11.2 -11.3 l -19.9 0 l 7.4 -7.4 l -1.2 -1.2 l -8.6 8.6 l -0.1 0 z"></path><path d="M 22.549999999999997 21.65 q -1.65 2.7 2.6 10 l 12.6 0 l -7.5 7.5 l 1.2 1.2 l 18.7 -18.7 l -20 0 q -7 -2.95 -7.6 0 z"></path><path d="M -17.349999999999994 49.15 l 7.5 7.5 l 7.5 -7.5 l -7.5 -7.5 l -7.5 7.5 z"></path></g></g></g>
</svg>
