<svg xmlns="http://www.w3.org/2000/svg" viewBox="0 0 95 172.294907" width="95" height="172.294907" fill="currentColor" stroke="none">
<g transform="translate(47.5 86.147453)"><g><g><path d="M 12.5 25 l 10 -10 l 0 -35 l -26.3 0 l -8.7 8.75 l 0 -33.75 l -10 10 l 0 36.15 l 11.15 -11.15 l 23.85 0 l 0 35 z"></path><g><path d="M -22.45 -32.6 l -0.05 5.05 q 4.6 -6.3 10 -4 l 0 -13.45 l -9.95 10 l -12.65 0 l 7.5 -7.5 l -1.2 -1.2 l -18.7 18.7 l 17.45 0 l 7.6 -7.6 z"></path></g><g><path d="M 22.5 15 l 15 0 l 10 -10 l -17.45 0 l -7.6 7.6 l 0.05 -5.05 q -4.6 6.3 -10 4 l 0 13.45 l 9.95 -10 z"></path></g><path d="M 10 45 l 10 -10 l -30 0 l -10 10 l 30 0 z"></path></g></g></g>
</svg>
