<svg xmlns="http://www.w3.org/2000/svg" viewBox="0 0 425.65 128.8" width="425.65" height="128.8" fill="currentColor" stroke="none">
<g transform="translate(212.825 64.4)"><g><g><path d="M -156.52499999999998 43.099999999999994 l 7.5 -7.5 -26.9 -26.9 7.45 -7.55 -28.05 -28.05 -7.5 7.5 26.9 26.9 -7.5 7.5 28.1 28.1 z"></path><path d="M -202.825 -18.200000000000006 q 6.486 1.216 4.75 -5 q -2.924 3.894 -5.95 3.8 l -8.8 8.8 l 0 15 l 10 -10 l 0 -12.6 z"></path><path d="M -199.02499999999998 25.599999999999994 l -10 10 l 0 25 l 10 -10 l 0 -25 z"></path></g><g><path d="M -84.02499999999998 -26.875000000000007 l -10 10 l 0 20 l -35 0 l -10 10 l 29.95 29.95 l 7.5 -7.5 l -22.45 -22.45 l 30 0 l 10 -10 l 0 -30 z"></path><g><path d="M -111.675 33.074999999999974 q -1.655 2.716 2.6 10 l 15 0 l 10 -10 l -20 0 q -7.015 -2.931 -7.6 0 z"></path></g></g><g><path d="M -64.02499999999998 -26.900000000000006 l -10 10 l 0 60 l 10 -10 l 0 -60 z"></path><g><path d="M -63.974999999999966 -24.60000000000001 l 15 0 l 10 -10 l -17.4 0 l -17.65 17.7 l 0 7.3 q 5.4 -4.35 10 -2.75 l 0 -12.25 z"></path></g></g><g><path d="M 21.025000000000034 -16.900000000000006 l 10 -10 l -50 0 l -10 10 l 0 30 l 30 0 l 0 30 l 10 -10 l 0 -30 l -30 0 l 0 -20 l 40 0 z"></path><path d="M 11.025000000000034 -36.900000000000006 l 10 -10 l -30 0 l -10 10 l 30 0 z"></path></g><g><path d="M 65.67500000000001 -26.900000000000006 l -7.5 7.5 57.5 62.5 7.5 -7.5 -57.5 -62.5 z"></path><path d="M 63.17500000000001 -24.400000000000006 l -5 5 l -10 -10 l -7.15 7.15 l 11.3 11.2 l 7 -7.1 l 1 -1 q 3.183 1.742 3.85 0 q 0.916 -1.293 0 -6.25 z"></path><path d="M 113.07499999999999 33.099999999999994 q -1.655 2.716 2.6 10 l 15 0 l 10 -10 l -20 0 q -7.015 -2.931 -7.6 0 z"></path><path d="M 68.17500000000001 25.599999999999994 l -10 10 l 0 25 l 10 -10 l 0 -25 z"></path><path d="M 76.92500000000001 -56.900000000000006 l 20 20 l 7.5 -7.5 l -20 -20 l -7.5 7.5 z"></path></g><g><path d="M 177.825 -26.900000000000006 l -10 10 l 0 35 l 19.95 0 l -24.95 25 l 40 0 l 10 -10 l -37.6 0 l 24.85 -25 l -22.25 0 l 0 -35 z"></path><g><path d="M 168.175 -14.800000000000004 q 0.375 -0.363 1.15 -1.15 q 6.261 -1.099 8.5 3.8 l 0 -14.75 l -10 10 l -10 -10 l -7.15 7.15 l 11.3 11.2 l 5.85 -5.9 q 0.04 -0.029 0.35 -0.35 z"></path></g><g><path d="M 212.825 33.099999999999994 l -15 0 q 2.75 6.15 -5 10 l 10 0 l 0 12.6 l -7.5 7.5 l 1.2 1.2 l 16.3 -16.3 l 0 -15 z"></path></g></g></g></g>
</svg>
