<svg xmlns="http://www.w3.org/2000/svg" viewBox="0 0 346.35 126.4" width="346.35" height="126.4" fill="currentColor" stroke="none">
<g transform="translate(173.175 63.2)"><g><g><path d="M -165.675 -43.2 l -7.5 7.5 57.5 62.5 7.5 -7.5 -57.5 -62.5 z"></path><path d="M -173.175 6.799999999999997 l 20 20 l 7.5 -7.5 l -20 -20 l -7.5 7.5 z"></path></g><g><path d="M -55.625000000000014 -43.2 l -10 10 l 0 60 l 10 -10 l 0 -50 l 30 0 l 10 -10 l -40 0 z"></path><g><path d="M -55.625000000000014 16.799999999999997 l 0 -7.3 q -4.546 5.888 -10 3.05 l 0 11.95 l -15.05 0 l -17.5 17.5 l 1.2 1.2 l 8.7 -8.7 l 15 0 l 17.65 -17.7 z"></path></g><path d="M -46.900000000000006 63.2 l 10 -10 l -30 0 l -10 10 l 30 0 z"></path></g><g><path d="M 13.175000000000011 26.775 l 10 -10 l 0 -20 l 35 0 l 10 -10 l -29.95 -29.95 l -7.5 7.5 l 22.45 22.45 l -30 0 l -10 10 l 0 30 z"></path><g><path d="M 23.17500000000001 16.775000000000006 l 0 -5 q -6.25 9 -10 5 l 0 7.6 l -11.8 -11.7 l -7 7 l 12.95 12.95 l 15.85 -15.85 z"></path></g><path d="M 41.275000000000006 -53.175 l 10 -10 l -30 0 l -10 10 l 30 0 z"></path><path d="M 23.775000000000006 50.125000000000014 l 7.5 7.5 l 7.5 -7.5 l -7.5 -7.5 l -7.5 7.5 z"></path></g><g><path d="M 88.17500000000001 -43.2 l -10 10 l 0 60 l 10 -10 l 0 -60 z"></path><g><path d="M 78.17500000000001 11.799999999999997 l 0 15 l 15 0 l 10 -10 l -15 0 l 0 -10 q -3.874 7.753 -10 5 z"></path></g></g><g><path d="M 163.175 -33.2 l 10 -10 l -50 0 l -10 10 l 0 30 l 30 0 l 0 30 l 10 -10 l 0 -30 l -30 0 l 0 -20 l 40 0 z"></path><path d="M 153.175 -53.2 l 10 -10 l -30 0 l -10 10 l 30 0 z"></path></g></g></g>
</svg>
