<svg xmlns="http://www.w3.org/2000/svg" viewBox="0 0 270 117.625" width="270" height="117.625" fill="currentColor" stroke="none">
<g transform="translate(135 58.8125)"><g><g><path d="M -125 -38.8125 l -10 10 l 0 60 l 10 -10 l 0 -60 z"></path></g><g><path d="M -60 -38.7875 l -10 10 l 0 20 l -35 0 l -10 10 l 29.95 29.95 l 7.5 -7.5 l -22.45 -22.45 l 30 0 l 10 -10 l 0 -30 z"></path><g><path d="M -78.75 22.46249999999998 q -6.486 -1.216 -4.75 5 q 2.924 -3.894 5.95 -3.8 l 8.8 -8.8 l 0 -15 l -10 10 l 0 12.6 z"></path></g><path d="M -77.5 -48.78750000000001 l 10 -10 l -30 0 l -10 10 l 30 0 z"></path></g><g><path d="M -22 4.2875 l 7.45 -7.5 27.05 34.4 7.5 -7.5 -27.8 -36 -7.75 7.8 -26.95 -34.3 -7.5 7.5 28 35.6 z"></path><path d="M -37.5 13.6875 l -10 10 l 0 25 l 10 -10 l 0 -25 z"></path><path d="M 12.599999999999994 -28.8125 l -8.8 8.8 l 1.2 1.2 l 20 -20 l -30 0 l -10 10 l 27.6 0 z"></path><path d="M -5 -48.8125 l 10 -10 l -30 0 l -10 10 l 30 0 z"></path></g><g><path d="M 44.99999999999997 -38.8125 l -10 10 l 0 36.3 l 10 -10.05 l 0 33.75 l 10 -10 l 0 -36.15 l -10 10 l 0 -23.85 l 30 0 l 10 -10 l -40 0 z"></path></g><g><path d="M 123.84999999999997 31.112499999999997 l 10 -10 l 0 -40 l -9.55 9.55 l -20.65 -29.4 l -7.5 7.5 l 21.6 30.85 l 6.1 -6.1 l 0 37.6 z"></path><g><path d="M 123.79999999999995 28.8125 l -15 0 l -10 10 l 17.4 0 l 17.65 -17.7 l 0 -7.3 q -5.4 4.35 -10 2.75 l 0 12.25 z"></path></g><path d="M 125 58.8125 l 10 -10 l -30 0 l -10 10 l 30 0 z"></path></g></g></g>
</svg>
