<svg xmlns="http://www.w3.org/2000/svg" viewBox="0 0 62.5 172.294907" width="62.5" height="172.294907" fill="currentColor" stroke="none">
<g transform="translate(31.25 86.147453)"><g><g><path d="M 11.25 27.5 l 7.5 -7.5 l -31.25 -31.25 l 31.25 -31.25 l -40 0 l -10 10 l 37.6 0 l -27.5 27.6 l 32.4 32.4 z"></path><g><path d="M 31.25 17.5 l -15 0 q -7 -2.95 -7.6 0 q -1.65 2.7 2.6 10 l 10 0 l 0 15 l 10 -10 l 0 -15 z"></path></g><path d="M -7.5 -60 l 7.5 7.5 l 7.5 -7.5 l -7.5 -7.5 l -7.5 7.5 z"></path><path d="M -7.5 60 l 7.5 7.5 l 7.5 -7.5 l -7.5 -7.5 l -7.5 7.5 z"></path></g></g></g>
</svg>
