<svg xmlns="http://www.w3.org/2000/svg" viewBox="0 0 54.85 172.294907" width="54.85" height="172.294907" fill="currentColor" stroke="none">
<g transform="translate(27.425 86.147453)"><g><g><path d="M 17.424999999999997 -15.425000000000004 l 10 -10 l -29.85 -29.85 l -7.5 7.5 l 22.35 22.35 l -20 0 l -15 15 l 25.6 25.6 l 7.5 -7.5 l -23.1 -23.1 l 30 0 z"></path><g><path d="M 0.1750000000000007 -45.275000000000006 q 1.65 -2.7 -2.6 -10 l -12.6 0 l 7.5 -7.5 l -1.2 -1.2 l -18.7 18.7 l 20 0 q 7 2.95 7.6 0 z"></path></g><g><path d="M 14.825000000000003 26.975 l -11.8 -11.8 l 5 -5 q -7.681 -1.687 -7.1 0.5 l 0.95 3.35 l -7.05 7.05 l 13 12.9 z"></path></g><path d="M -7.600000000000001 53.975 l 8.8 -8.8 l -1.2 -1.2 l -20 20 l 30 0 l 10 -10 l -27.6 0 z"></path></g></g></g>
</svg>
