<svg xmlns="http://www.w3.org/2000/svg" viewBox="0 0 57.6 172.294907" width="57.6" height="172.294907" fill="currentColor" stroke="none">
<g transform="translate(28.8 86.147453)"><g><g><path d="M -13.799999999999997 -54.375 l -10 10 l 0 35 l 19.95 0 l -24.95 25 l 40 0 l 10 -10 l -37.6 0 l 24.85 -25 l -22.25 0 l 0 -35 z"></path><g><path d="M 12.5 34.375 l 16.3 -16.3 l 0 -22.45 l -10 10 l -12.6 0 q 3.5 4 0 10 l 5 0 l 7.6 -7.65 l 0 17.7 l -7.5 7.5 l 1.2 1.2 z"></path></g><path d="M 10 54.375 l 10 -10 l -30 0 l -10 10 l 30 0 z"></path></g></g></g>
</svg>
