<svg xmlns="http://www.w3.org/2000/svg" viewBox="0 0 463.9 128.75" width="463.9" height="128.75" fill="currentColor" stroke="none">
<g transform="translate(231.95 64.375)"><g><g><path d="M -211.95000000000002 -44.375 l -10 10 l 0 60 l 10 -10 l 0 -60 z"></path><g><path d="M -211.95000000000002 -29.375 l 0 -15 l -10 10 l 0 -20 l -10 9.9 l 0 22.4 l 10 -9.95 l 0 5.15 q 5 -6.1 10 -2.5 z"></path></g><g><path d="M -221.95000000000002 10.625 l 0 15 l 10 -10 l 0 20 l 10 -9.9 l 0 -22.4 l -10 9.95 l 0 -5.15 q -5 6.1 -10 2.5 z"></path></g></g><g><path d="M -169.35000000000002 -34.375 l 34.95 0 l 10 -10 l -50 0 l -10 10 l 25 25 l 0 35 l 10 -10 l 0 -30.05 l -19.95 -19.95 z"></path><g><path d="M -149.40000000000003 15.625 l 0 -7.3 q -4.546 5.888 -10 3.05 l 0 11.95 l -15.05 0 l -17.5 17.5 l 1.2 1.2 l 8.7 -8.7 l 15 0 l 17.65 -17.7 z"></path></g><path d="M -148.175 -54.375 l 10 -10 l -30 0 l -10 10 l 30 0 z"></path></g><g><path d="M -66.9 25.625 l 7.5 -7.5 -26.9 -26.9 7.45 -7.55 -28.05 -28.05 -7.5 7.5 26.9 26.9 -7.5 7.5 28.1 28.1 z"></path></g><g><path d="M -34.400000000000006 -44.375 l -10 10 l 0 35 l 19.95 0 l -24.95 25 l 40 0 l 10 -10 l -37.6 0 l 24.85 -25 l -22.25 0 l 0 -35 z"></path><g><path d="M -8.099999999999994 44.375 l 16.3 -16.3 l 0 -22.45 l -10 10 l -12.6 0 q 3.5 4 0 10 l 5 0 l 7.6 -7.65 l 0 17.7 l -7.5 7.5 l 1.2 1.2 z"></path></g><path d="M -10.599999999999994 64.375 l 10 -10 l -30 0 l -10 10 l 30 0 z"></path></g><g><path d="M 28.200000000000017 -44.375 l -10 10 l 0 60 l 10 -10 l 0 -50 l 30 0 l 10 -10 l -40 0 z"></path><path d="M 35.70000000000002 43.125 l 7.5 7.5 l 7.5 -7.5 l -7.5 -7.5 l -7.5 7.5 z"></path></g><g><path d="M 121.95000000000002 -54.375 l -7.5 7.5 l 12.5 12.5 l -25 0 l -17.5 17.5 l 1.2 1.2 l 8.7 -8.7 l 37.6 0 l 10 -10 l -20 -20 z"></path><path d="M 88.20000000000002 -14.375 l -10 10 l 50 0 l 10 -10 l -50 0 z"></path></g><g><path d="M 161.95000000000002 -44.375 l -10 10 l 0 60 l 10 -10 l 0 -60 z"></path><g><path d="M 151.95000000000002 10.625 l 0 15 l 10 -10 l 0 20 l 10 -9.9 l 0 -22.4 l -10 9.95 l 0 -5.15 q -5 6.1 -10 2.5 z"></path></g></g><g><path d="M 189.45000000000002 -44.375 l -7.5 7.5 l 31.25 31.25 l -31.25 31.25 l 40 0 l 10 -10 l -37.6 0 l 27.5 -27.6 l -32.4 -32.4 z"></path><path d="M 216.95000000000002 -54.375 l 10 -10 l -30 0 l -10 10 l 30 0 z"></path></g></g></g>
</svg>
