<svg xmlns="http://www.w3.org/2000/svg" viewBox="0 0 95 90" width="95" height="90" fill="currentColor" stroke="none">
<g transform="translate(47.5 45)"><g><g><path d="M -27.5 -25 l -10 10 l 0 60 l 10 -10 l 0 -60 z"></path><g><path d="M -27.5 -10 l 0 -15 l -10 10 l 0 -20 l -10 9.9 l 0 22.4 l 10 -9.95 l 0 5.15 q 5 -6.1 10 -2.5 z"></path></g><g><path d="M -27.5 35 l 15 0 l 10 -10 l -17.45 0 l -7.6 7.6 l 0.05 -5.05 q -4.6 6.3 -10 4 l 0 13.45 l 9.95 -10 z"></path></g></g><g><path d="M 18.75 -25 l -10 10 l 0 30 l 30 30 l 7.5 -7.5 l -27.5 -27.5 l 0 -35 z"></path><path d="M 37.5 -35 l 10 -10 l -30 0 l -10 10 l 30 0 z"></path></g></g></g>
</svg>
