<svg xmlns="http://www.w3.org/2000/svg" viewBox="0 0 80.95 172.294907" width="80.95" height="172.294907" fill="currentColor" stroke="none">
<g transform="translate(40.475 86.147453)"><g><g><path d="M 24.175000000000004 13.75 l 7.5 -7.5 -26.9 -26.9 7.45 -7.55 -28.05 -28.05 -7.5 7.5 26.9 26.9 -7.5 7.5 28.1 28.1 z"></path><path d="M -18.325000000000003 -53.75 l -5 5 l -10 -10 l -7.15 7.15 l 11.3 11.2 l 7 -7.1 l 1 -1 q 3.183 1.742 3.85 0 q 0.916 -1.293 0 -6.25 z"></path><path d="M 30.475 5.050000000000001 q -4.2 -0.65 -6.3 2.7 q -0.8 1 0 6 l 6.3 -6.3 l 0 19.95 l 10 -10.1 l 0 -22.35 l -10 10.1 z"></path><path d="M -5.825000000000003 13.75 l 10 -10 l -30 0 l -10 10 l 30 0 z"></path><path d="M 1.6749999999999972 23.75 l -10 10 l 0 25 l 10 -10 l 0 -25 z"></path></g></g></g>
</svg>
