<svg xmlns="http://www.w3.org/2000/svg" viewBox="0 0 65.95 172.294907" width="65.95" height="172.294907" fill="currentColor" stroke="none">
<g transform="translate(32.975 86.147453)"><g><g><path d="M -25.475 -41.175000000000004 l -7.5 7.5 l 31.25 31.25 l -31.25 31.25 l 40 0 l 10 -10 l -37.6 0 l 27.5 -27.6 l -32.4 -32.4 z"></path><g><path d="M -24.325000000000003 -40.025000000000006 l 15.05 0 l 10 -10 l -17.45 0 l -8.75 8.85 q -1.75 3.2 -4.85 7.2 q 5.7 0.35 6 -6.05 z"></path></g><g><path d="M 2.4750000000000014 28.824999999999996 l 4.55 0 l 8.8 -8.8 l 10 10 l 7.15 -7.15 l -11.3 -11.2 l -7.05 7.15 l -6.3 0 q 3.7 5 -5.85 10 z"></path></g><path d="M 9.999999999999993 50.025000000000006 l 10 -10 l -30 0 l -10 10 l 30 0 z"></path></g></g></g>
</svg>
