<svg xmlns="http://www.w3.org/2000/svg" viewBox="0 0 57.55 172.294907" width="57.55" height="172.294907" fill="currentColor" stroke="none">
<g transform="translate(28.775 86.14198)"><g><g><path d="M 18.775000000000002 11.69847294938917 l 10 -10 l 0 -30 l -30 -30 l -7.5 7.5 l 27.5 27.5 l 0 35 z"></path><g><path d="M -7.574999999999999 -49.65152705061083 l 0 0.05 q 8.1 2.8 6.35 -8.7 l -6.35 6.3 q -9.4 -17.75 -21.2 -6.85 q 12.25 -2.15 14.85 15.5 l 6.35 -6.3 z"></path></g><g><path d="M 11.275000000000002 16.798472949389172 l 1.2 1.2 l 16.3 -16.3 l 0 -7.75 q -5 9.444 -10 6.55 l 0 8.8 l -7.5 7.5 z"></path></g><path d="M -9.999999999999996 37.99847294938918 l 0 25 l 20 -20 l -1.2 -1.2 l -8.8 8.8 l 0 -22.6 l -10 10 z"></path></g></g></g>
</svg>
