<svg xmlns="http://www.w3.org/2000/svg" viewBox="0 0 324.95 110.025" width="324.95" height="110.025" fill="currentColor" stroke="none">
<g transform="translate(162.475 55.0125)"><g><g><path d="M -152.475 -34.987500000000004 l -10 10 l 0 60 l 10 -10 l 0 -60 z"></path><g><path d="M -162.475 20.012499999999996 l 0 15 l 15 0 l 10 -10 l -15 0 l 0 -10 q -3.874 7.753 -10 5 z"></path></g></g><g><path d="M -117.57499999999999 -35.0125 l -9.9 9.95 l 47.35 58.35 l 0.05 0 l 1.4 1.75 l 7.5 -7.5 l -42.7 -52.55 l 52.05 0 l 10 -10 l -65.75 0 z"></path><g><path d="M -63.67499999999998 50.03750000000001 l 7.5 -7.5 l -15 -15 q -6.8 0.5 -7.5 7.5 l 15 15 z"></path></g><path d="M -79.64999999999999 -45.0125 l 10 -10 l -30 0 l -10 10 l 30 0 z"></path></g><g><path d="M -9.525000000000006 8.112499999999995 l 7.45 -7.5 27.05 34.4 7.5 -7.5 -27.8 -36 -7.75 7.8 -26.95 -34.3 -7.5 7.5 28 35.6 z"></path><path d="M -41.825 -46.7875 l 11.8 11.8 l -5 5 q 7.681 1.687 7.1 -0.5 l -0.95 -3.35 l 7.05 -7.05 l -13 -12.9 z"></path></g><g><path d="M 92.475 -24.987500000000004 l 10 -10 l -50 0 l -10 10 l 0 30 l 30 0 l 0 30 l 10 -10 l 0 -30 l -30 0 l 0 -20 l 40 0 z"></path><path d="M 82.475 -44.987500000000004 l 10 -10 l -30 0 l -10 10 l 30 0 z"></path><path d="M 82.475 55.012499999999996 l 10 -10 l -30 0 l -10 10 l 30 0 z"></path></g><g><path d="M 147.475 35.012499999999996 l 10 -10 l 0 -35 l -19.95 0 l 24.95 -25 l -40 0 l -10 10 l 37.6 0 l -24.85 25 l 22.25 0 l 0 35 z"></path><path d="M 147.475 55.012499999999996 l 10 -10 l -30 0 l -10 10 l 30 0 z"></path></g></g></g>
</svg>
