<svg xmlns="http://www.w3.org/2000/svg" viewBox="0 0 322.65 137.625" width="322.65" height="137.625" fill="currentColor" stroke="none">
<g transform="translate(161.325 68.8125)"><g><g><path d="M -153.82500000000005 -26.1875 l -7.5 7.5 57.5 62.5 7.5 -7.5 -57.5 -62.5 z"></path><path d="M -106.42500000000004 33.8125 q -1.655 2.716 2.6 10 l 15 0 l 10 -10 l -20 0 q -7.015 -2.931 -7.6 0 z"></path><path d="M -151.32500000000005 26.3125 l -10 10 l 0 25 l 10 -10 l 0 -25 z"></path><path d="M -143.82500000000005 61.3125 l 7.5 7.5 l 7.5 -7.5 l -7.5 -7.5 l -7.5 7.5 z"></path></g><g><path d="M -3.175000000000068 -16.1125 l 10 -10 l -65.75 0 l -9.9 9.95 l 30.45 37.55 l 7.25 -7.3 l 24.15 29.65 l 7.45 -7.4 l -25.2 -31.05 l -7.5 7.45 l -23.1 -28.85 l 52.15 0 z"></path><g><path d="M 0.5249999999999488 36.2375 q -6.8 0.5 -7.5 7.5 l 15 15 l 15 -15 l -1.2 -1.2 l -7.5 7.5 l -13.8 -13.8 z"></path></g></g><g><path d="M 43.02499999999995 -26.1875 l -10 10 l 0 60 l 10 -10 l 0 -60 z"></path><g><path d="M 43.07499999999996 -23.887500000000003 l 15 0 l 10 -10 l -17.4 0 l -17.65 17.7 l 0 7.3 q 5.4 -4.35 10 -2.75 l 0 -12.25 z"></path></g><g><path d="M 33.02499999999995 28.8125 l 0 15 l 15 0 l 10 -10 l -15 0 l 0 -10 q -3.874 7.753 -10 5 z"></path></g></g><g><path d="M 87.97499999999997 -26.2125 l -9.9 9.95 l 47.35 58.35 l 0.05 0 l 1.4 1.75 l 7.5 -7.5 l -42.7 -52.55 l 52.05 0 l 10 -10 l -65.75 0 z"></path><g><path d="M 146.075 -26.2125 q 0.465 4.718 -7.9 10 l 5.55 0 l 17.6 -17.6 l 0 -15 l -10 10 l 0 12.6 l -5.25 0 z"></path></g><g><path d="M 146.875 33.83750000000001 l -15 0 q -7 -2.95 -7.6 0 q -1.65 2.7 2.6 10 l 10 0 l 0 15 l 10 -10 l 0 -15 z"></path></g><path d="M 129.7 -58.8125 l 10 -10 l -30 0 l -10 10 l 30 0 z"></path></g></g></g>
</svg>
