<svg xmlns="http://www.w3.org/2000/svg" viewBox="0 0 54.3 172.294907" width="54.3" height="172.294907" fill="currentColor" stroke="none">
<g transform="translate(27.15 86.147453)"><g><g><path d="M -15.350000000000005 -19.950000000000003 l -7.5 7.5 l 31.25 31.25 l -31.25 31.25 l 40 0 l 10 -10 l -37.6 0 l 27.5 -27.6 l -32.4 -32.4 z"></path><g><path d="M -27.150000000000006 -31.75 l 11.8 11.8 l -5 5 q 7.681 1.687 7.1 -0.5 l -0.95 -3.35 l 7.05 -7.05 l -13 -12.9 z"></path></g><g><path d="M 7.25 57.55 l 1.2 1.2 l 18.7 -18.7 l -10 0 q 0.85 5.4 -10 10 l 7.6 0 l -7.5 7.5 z"></path></g><path d="M 9.999999999999993 -48.75 l 10 -10 l -30 0 l -10 10 l 30 0 z"></path></g></g></g>
</svg>
