<svg xmlns="http://www.w3.org/2000/svg" viewBox="0 0 95 172.294907" width="95" height="172.294907" fill="currentColor" stroke="none">
<g transform="translate(47.5 86.147453)"><g><g><path d="M -12 3.7499999999999982 l 7.45 -7.5 27.05 34.4 7.5 -7.5 -27.8 -36 -7.75 7.8 -26.95 -34.3 -7.5 7.5 28 35.6 z"></path><path d="M -33.6 -36.3 q -3.28 1.825 -6.4 4.45 l -7.5 7.5 l 1.2 1.2 l 7.5 -7.5 q 4.106 1.688 4.55 0.35 q 0.6 -1.45 0.65 -6 z"></path><path d="M 19.900000000000006 20.65 q -1.65 2.7 2.6 10 l 12.6 0 l -7.5 7.5 l 1.2 1.2 l 18.7 -18.7 l -20 0 q -7 -2.95 -7.6 0 z"></path></g></g></g>
</svg>
