<svg xmlns="http://www.w3.org/2000/svg" viewBox="0 0 534.55 125" width="534.55" height="125" fill="currentColor" stroke="none">
<g transform="translate(267.275 62.5)"><g><g><path d="M -210.97499999999997 42.5 l 7.5 -7.5 -26.9 -26.9 7.45 -7.55 -28.05 -28.05 -7.5 7.5 26.9 26.9 -7.5 7.5 28.1 28.1 z"></path><path d="M -257.275 -18.8 q 4.2 0.65 6.3 -2.7 q 0.8 -1 0 -6 l -6.3 6.3 l 0 -19.95 l -10 10.1 l 0 22.35 l 10 -10.1 z"></path><path d="M -213.575 32.5 q -1.65 2.7 2.6 10 l 12.6 0 l -7.5 7.5 l 1.2 1.2 l 18.7 -18.7 l -20 0 q -7 -2.95 -7.6 0 z"></path><path d="M -203.37499999999997 -17.5 l -8.8 8.8 l 1.2 1.2 l 20 -20 l -30 0 l -10 10 l 27.6 0 z"></path><path d="M -238.47499999999997 -45 l 7.5 7.5 l 7.5 -7.5 l -7.5 -7.5 l -7.5 7.5 z"></path></g><g><path d="M -116.57499999999999 -27.5 l -50 0 l -9.4 9.4 l 23.2 33.05 l 6.2 -6.25 l 0 33.8 l 10 -10 l 0 -36.15 l -1.1 1.1 q -2.967 2.977 -5.95 5.95 l -1.95 2 l -0.65 0.65 l -16.5 -23.5 l 36.2 0 l 10 -10 z"></path></g><g><path d="M -96.52499999999998 -27.5 l -10 10 l 0 60 l 10 -10 l 0 -60 z"></path><g><path d="M -96.47499999999997 -25.200000000000003 l 15 0 l 10 -10 l -17.4 0 l -17.65 17.7 l 0 7.3 q 5.4 -4.35 10 -2.75 l 0 -12.25 z"></path></g></g><g><path d="M -51.474999999999966 -27.5 l -10 10 l 0 60 l 10 -10 l 0 -50 l 30 0 l 10 -10 l -40 0 z"></path><g><path d="M -51.474999999999966 50.1 l 0 -17.6 q -7.3 -5 -10 10 l 0 20 l 17.5 -17.5 l -1.2 -1.2 l -6.3 6.3 z"></path></g><path d="M -26.474999999999966 -37.5 l 10 -10 l -30 0 l -10 10 l 30 0 z"></path></g><g><path d="M 31.075000000000045 -27.5 l -7.5 7.5 57.5 62.5 7.5 -7.5 -57.5 -62.5 z"></path><path d="M 23.575000000000045 -20 l -15.05 0 l -10 10 l 17.45 0 l 8.75 -8.8 q 6.9 0.2 3.8 -6.15 l -4.95 4.95 z"></path></g><g><path d="M 138.57500000000005 42.5 l 10 -10 l 0 -60 l -10 10 l 0 50 l -30 0 l -10 10 l 40 0 z"></path><g><path d="M 160.97500000000002 -37.5 l -22.4 0 l -10 10.1 l 19.9 0 l 0.1 -0.1 l 0 0.1 l -0.05 0 l -9.95 9.9 l 0 5 q 5 -5.774 10 -5 l 0 -7.55 l 12.4 -12.4 z"></path></g><g><path d="M 113.57500000000005 42.5 l -15 0 l 0 -15 l 10 -10 l 0 15 l 10 0 q -7.753 3.874 -5 10 z"></path></g><path d="M 122.27500000000003 -55 l 7.5 7.5 l 7.5 -7.5 l -7.5 -7.5 l -7.5 7.5 z"></path></g><g><path d="M 170.97500000000002 18.65 l 10 -10 l 0 33.85 l 10 -10 l 0 -36.2 l -10 9.95 l 0 -33.75 l -10 10 l 0 36.15 z"></path><g><path d="M 170.97500000000002 -17.5 l 0 5 q 6.25 -9 10 -5 l 0 -7.6 l 11.8 11.7 l 7 -7 l -12.95 -12.95 l -15.85 15.85 z"></path></g><g><path d="M 190.97500000000002 50.1 l 0 -17.6 q -7.3 -5 -10 10 l 0 20 l 17.5 -17.5 l -1.2 -1.2 l -6.3 6.3 z"></path></g></g><g><path d="M 209.77500000000003 18.65 l 10 -10 l 0 33.85 l 10 -10 l 0 -36.2 l -10 9.95 l 0 -33.75 l -10 10 l 0 36.15 z"></path><g><path d="M 229.77500000000003 50.1 l 0 -17.6 q -7.3 -5 -10 10 l 0 20 l 17.5 -17.5 l -1.2 -1.2 l -6.3 6.3 z"></path></g></g><g><path d="M 257.275 -27.5 l -10 10 l 0 60 l 10 -10 l 0 -60 z"></path><g><path d="M 247.27499999999998 27.5 l 0 15 l 10 -10 l 0 20 l 10 -9.9 l 0 -22.4 l -10 9.95 l 0 -5.15 q -5 6.1 -10 2.5 z"></path></g></g></g></g>
</svg>
