<svg xmlns="http://www.w3.org/2000/svg" viewBox="0 0 75 172.294907" width="75" height="172.294907" fill="currentColor" stroke="none">
<g transform="translate(37.5 86.147453)"><g><g><path d="M -12.5 -47.5 l -10 10 l 0 30 l 17.7 0 l -6.35 6.4 l 23.65 23.6 l 7.45 -7.5 l -22.5 -22.5 l 10.05 -10 l -20 0 l 0 -30 z"></path><g><path d="M -12.5 -32.5 l 0 -15 l -12.6 0 l 7.5 -7.5 l -1.2 -1.2 l -18.7 18.7 l 15 0 l 0 10 q 3.85 -7.75 10 -5 z"></path></g><g><path d="M 9.899999999999999 12.5 q -1.65 2.7 2.6 10 l 12.6 0 l -7.5 7.5 l 1.2 1.2 l 18.7 -18.7 l -20 0 q -7 -2.95 -7.6 0 z"></path></g><path d="M -7.499999999999993 48.7 l 7.5 7.5 l 7.5 -7.5 l -7.5 -7.5 l -7.5 7.5 z"></path></g></g></g>
</svg>
