<svg xmlns="http://www.w3.org/2000/svg" viewBox="0 0 559.4 140" width="559.4" height="140" fill="currentColor" stroke="none">
<g transform="translate(279.7 70)"><g><g><path d="M -272.20000000000005 -45 l -7.5 7.5 57.5 62.5 7.5 -7.5 -57.5 -62.5 z"></path></g><g><path d="M -179.70000000000005 -45 l -10 10 l 0 30 l 17.7 0 l -6.35 6.4 l 23.65 23.6 l 7.45 -7.5 l -22.5 -22.5 l 10.05 -10 l -20 0 l 0 -30 z"></path><g><path d="M -179.70000000000005 -30 l 0 -15 l -12.6 0 l 7.5 -7.5 l -1.2 -1.2 l -18.7 18.7 l 15 0 l 0 10 q 3.85 -7.75 10 -5 z"></path></g><g><path d="M -157.30000000000007 15 q -1.65 2.7 2.6 10 l 12.6 0 l -7.5 7.5 l 1.2 1.2 l 18.7 -18.7 l -20 0 q -7 -2.95 -7.6 0 z"></path></g><path d="M -174.70000000000005 51.2 l 7.5 7.5 l 7.5 -7.5 l -7.5 -7.5 l -7.5 7.5 z"></path></g><g><path d="M -99.70000000000005 -21.15 l -10 10 l 0 -33.85 l -10 10 l 0 36.2 l 10 -9.95 l 0 33.75 l 10 -10 l 0 -36.15 z"></path><g><path d="M -79.70000000000005 25 l -15 0 l 10 -10 l -15 0 l 0 -10 q -3.85 7.75 -10 5 l 0 15 l 12.55 0 l -9.95 10 l 17.4 0 l 10 -10 z"></path></g></g><g><path d="M -59.70000000000002 -45 l -10 10 l 0 60 l 40 0 l 10 -10 l -40 0 l 0 -60 z"></path><path d="M -52.20000000000002 -62.5 l 7.5 7.5 l 7.5 -7.5 l -7.5 -7.5 l -7.5 7.5 z"></path><path d="M -34.70000000000002 45 l 10 -10 l -30 0 l -10 10 l 30 0 z"></path></g><g><path d="M 37.799999999999955 25 l 7.5 -7.5 -26.9 -26.9 7.45 -7.55 -28.05 -28.05 -7.5 7.5 26.9 26.9 -7.5 7.5 28.1 28.1 z"></path></g><g><path d="M 87.84999999999997 -45.025 l -7.5 7.5 l 22.55 22.55 l -14.4 0 l -17.6 17.65 l 0 22.35 l 40 0 l 10 -10 l -40 0 l 0 -20 l 30 0 l 8.5 -8.5 l -31.55 -31.55 z"></path><g><path d="M 80.34999999999997 -37.525 l -15.05 0 l -10 10 l 17.45 0 l 8.75 -8.8 q 6.9 0.2 3.8 -6.15 l -4.95 4.95 z"></path></g><g><path d="M 120.89999999999998 15.025000000000013 l 15.05 0 l 10 -10 l -17.45 0 l -9.95 10 l -7.6 0 q 4.95 4.2 -6.25 10 l 6.25 0 l 9.95 -10 z"></path></g><path d="M 110.625 45.02500000000001 l 10 -10 l -30 0 l -10 10 l 30 0 z"></path></g><g><path d="M 165.95 -45 l -10 10 l 0 60 l 40 0 l 10 -10 l -40 0 l 0 -60 z"></path><path d="M 170.95 45 l 0 25 l 20 -20 l -1.2 -1.2 l -8.8 8.8 l 0 -22.6 l -10 10 z"></path></g><g><path d="M 259.70000000000005 -55 l -7.5 7.5 l 12.5 12.5 l -25 0 l -17.5 17.5 l 1.2 1.2 l 8.7 -8.7 l 37.6 0 l 10 -10 l -20 -20 z"></path><path d="M 225.95 -15 l -10 10 l 50 0 l 10 -10 l -50 0 z"></path></g></g></g>
</svg>
