<svg xmlns="http://www.w3.org/2000/svg" viewBox="0 0 451.1 120" width="451.1" height="120" fill="currentColor" stroke="none">
<g transform="translate(225.55 60)"><g><g><path d="M -200.89999999999995 -40 l -7.5 7.5 57.5 62.5 7.5 -7.5 -57.5 -62.5 z"></path><path d="M -203.39999999999995 -37.5 l -5 5 l -10 -10 l -7.15 7.15 l 11.3 11.2 l 7 -7.1 l 1 -1 q 3.183 1.742 3.85 0 q 0.916 -1.293 0 -6.25 z"></path><path d="M -175.79999999999995 50 l -8.8 8.8 l 1.2 1.2 l 20 -20 l -30 0 l -10 10 l 27.6 0 z"></path></g><g><path d="M -115.89999999999995 -39.925 l -10 10 l 0 40 l 9.55 -9.55 l 20.65 29.4 l 7.5 -7.5 l -21.6 -30.85 l -6.1 6.1 l 0 -37.6 z"></path><g><path d="M -125.89999999999995 -18.725000000000005 q 5 -12.14 10 -11.2 l 0 -10 l -17.5 17.5 l 1.2 1.2 l 6.3 -6.3 l 0 8.8 z"></path></g><g><path d="M -98.29999999999995 19.92499999999999 q -1.655 2.716 2.6 10 l 15 0 l 10 -10 l -20 0 q -7.015 -2.931 -7.6 0 z"></path></g></g><g><path d="M -38.299999999999955 -30 l -0.05 0 l 7.65 -7.65 l 0 -17.45 l -10 10 l 0 15.1 l -10 10 l 40 0 l 10 -10 l -37.6 0 z"></path><path d="M -50.69999999999996 -10 l -10 10 l 50 0 l 10 -10 l -50 0 z"></path></g><g><path d="M 45.55000000000001 0 l 7.5 -7.5 -32.5 -32.5 -7.5 7.5 32.5 32.5 m -17.5 -10 l -7.5 7.5 32.5 32.5 7.5 -7.5 -32.5 -32.5 z"></path><path d="M 39.30000000000001 50 l 10 -10 l -30 0 l -10 10 l 30 0 z"></path></g><g><path d="M 125.54999999999995 -39.975 l -10 10 l 0 20 l -35 0 l -10 10 l 29.95 29.95 l 7.5 -7.5 l -22.45 -22.45 l 30 0 l 10 -10 l 0 -30 z"></path><g><path d="M 115.49999999999994 44.97499999999998 l 7.5 -7.5 l -15 -15 q -6.8 0.5 -7.5 7.5 l 15 15 z"></path></g></g><g><path d="M 153.74999999999994 -40 l -10 10 l 0 60 l 10 -10 l 0 -60 z"></path><g><path d="M 155.54999999999995 41.8 l -11.8 -11.8 l 10 -10 l 0 -5 q -5.188 7.964 -10 5 l 0 7.7 l -8.2 8.2 l 13 12.9 l 7 -7 z"></path></g></g><g><path d="M 215.54999999999995 -30 l 10 -10 l -50 0 l -10 10 l 0 30 l 30 0 l 0 30 l 10 -10 l 0 -30 l -30 0 l 0 -20 l 40 0 z"></path><path d="M 205.54999999999995 -50 l 10 -10 l -30 0 l -10 10 l 30 0 z"></path></g></g></g>
</svg>
