<svg xmlns="http://www.w3.org/2000/svg" viewBox="0 0 80 121.3" width="80" height="121.3" fill="currentColor" stroke="none">
<g transform="translate(40 60.65)"><g><g fill="currentColor"><path d="M -22.5 -60.650000000000006 l -10 10 l 0 60 l 10 -10 l 0 -50 l 30 0 l 10 -10 l -40 0 z"></path><g><path d="M 40 -53.150000000000006 l -1.2 -1.2 l -7.5 7.5 l -13.8 -13.8 q -8.65 2.75 -10 10 l 5 0 l 12.5 12.5 l 15 -15 z"></path></g><g><path d="M -40 14.449999999999996 l 1.2 1.2 l 16.3 -16.3 l 0 -7.75 q -5 9.444 -10 6.55 l 0 8.8 l -7.5 7.5 z"></path></g><path d="M 10 50.650000000000006 l 0 -25 l -20 20 l 1.2 1.2 l 8.8 -8.8 l 0 22.6 l 10 -10 z"></path></g></g></g>
</svg>
