<svg xmlns="http://www.w3.org/2000/svg" viewBox="0 0 220.7 128.725" width="220.7" height="128.725" fill="currentColor" stroke="none">
<g transform="translate(110.35 64.3625)"><g><g><path d="M -77.8 -35.637499999999996 l -7.5 7.5 57.5 62.5 7.5 -7.5 -57.5 -62.5 z"></path><path d="M -85.3 -28.137499999999996 l -15.05 0 l -10 10 l 17.45 0 l 8.75 -8.8 q 6.9 0.2 3.8 -6.15 l -4.95 4.95 z"></path><path d="M -27.799999999999997 34.362500000000004 l 7.5 -7.5 q -11.45 -4.9 -8.7 6.3 l -8.8 8.9 l 0 17.35 l 10 -10 l 0 -15.05 z"></path><path d="M -52.699999999999996 54.362500000000004 l -8.8 8.8 l 1.2 1.2 l 20 -20 l -30 0 l -10 10 l 27.6 0 z"></path></g><g><path d="M -0.3999999999999915 -35.662499999999994 l -9.9 9.95 l 47.35 58.35 l 0.05 0 l 1.4 1.75 l 7.5 -7.5 l -42.7 -52.55 l 52.05 0 l 10 -10 l -65.75 0 z"></path><g><path d="M 45.349999999999994 -25.662499999999994 l 10 0 l 17.5 -17.5 l -1.2 -1.2 l -8.7 8.7 l -7.6 0 q 0.83 5.4 -10 10 z"></path></g><g><path d="M 46.00000000000003 26.887500000000017 l 15.05 0 l 10 -10 l -17.45 0 l -8.75 8.8 q -6.9 -0.2 -3.8 6.15 l 4.95 -4.95 z"></path></g><path d="M 41.275000000000006 -54.3625 l 10 -10 l -30 0 l -10 10 l 30 0 z"></path></g><g><path d="M 102.85 -11.787499999999996 l -10 10 l 0 -33.85 l -10 10 l 0 36.2 l 10 -9.95 l 0 33.75 l 10 -10 l 0 -36.15 z"></path><g><path d="M 102.85 41.962500000000006 l 0 -17.6 q -7.3 -5 -10 10 l 0 20 l 17.5 -17.5 l -1.2 -1.2 l -6.3 6.3 z"></path></g></g></g></g>
</svg>
