<svg xmlns="http://www.w3.org/2000/svg" viewBox="0 0 244.3 104.95" width="244.3" height="104.95" fill="currentColor" stroke="none">
<g transform="translate(122.15 52.475)"><g><g><path d="M -110.35000000000001 -32.449999999999996 l -10 10 l 0 60 l 10 -10 l 0 -60 z"></path><g><path d="M -122.15 -44.24999999999999 l 11.8 11.8 l -10 10 l 0 5 q 5.188 -7.964 10 -5 l 0 -7.7 l 8.2 -8.2 l -13 -12.9 l -7 7 z"></path></g><g><path d="M -120.35000000000001 22.550000000000004 l 0 15 l 10 -10 l 0 20 l 10 -9.9 l 0 -22.4 l -10 9.95 l 0 -5.15 q -5 6.1 -10 2.5 z"></path></g></g><g><path d="M -80.45 -32.474999999999994 l -9.9 9.95 l 47.35 58.35 l 0.05 0 l 1.4 1.75 l 7.5 -7.5 l -42.7 -52.55 l 52.05 0 l 10 -10 l -65.75 0 z"></path><g><path d="M -40.45 34.52500000000002 q 3.28 -1.825 6.4 -4.45 l 7.5 -7.5 l -1.2 -1.2 l -7.5 7.5 q -4.106 -1.688 -4.55 -0.35 q -0.6 1.45 -0.65 6 z"></path></g><path d="M -42.525000000000006 -42.474999999999994 l 10 -10 l -30 0 l -10 10 l 30 0 z"></path></g><g><path d="M 5.299999999999997 -32.449999999999996 l -10 10 l 0 60 l 10 -10 l 0 -60 z"></path><g><path d="M -4.700000000000003 22.550000000000004 l 0 15 l 15 0 l 10 -10 l -15 0 l 0 -10 q -3.874 7.753 -10 5 z"></path></g></g><g><path d="M 95.94999999999999 -22.374999999999996 l 10 -10 l -65.75 0 l -9.9 9.95 l 30.45 37.55 l 7.25 -7.3 l 24.15 29.65 l 7.45 -7.4 l -25.2 -31.05 l -7.5 7.45 l -23.1 -28.85 l 52.15 0 z"></path><g><path d="M 99.65 29.975 q -6.8 0.5 -7.5 7.5 l 15 15 l 15 -15 l -1.2 -1.2 l -7.5 7.5 l -13.8 -13.8 z"></path></g><path d="M 86.225 -42.37499999999999 l 10 -10 l -30 0 l -10 10 l 30 0 z"></path></g></g></g>
</svg>
