<svg xmlns="http://www.w3.org/2000/svg" viewBox="0 0 125.65 127.65" width="125.65" height="127.65" fill="currentColor" stroke="none">
<g transform="translate(62.825 63.825)"><g><g><path d="M -40.425000000000004 -21.200000000000003 l -10 10 l 0 60 l 10 -10 l 0 -60 z"></path><g><path d="M -62.825 58.8 l 22.4 0 l 10 -10.1 l -19.9 0 l -0.1 0.1 l 0 -0.1 l 0.05 0 l 9.95 -9.9 l 0 -5 q -5 5.774 -10 5 l 0 7.55 l -12.4 12.4 z"></path></g></g><g><path d="M -10.524999999999999 -21.225 l -9.9 9.95 l 47.35 58.35 l 0.05 0 l 1.4 1.75 l 7.5 -7.5 l -42.7 -52.55 l 52.05 0 l 10 -10 l -65.75 0 z"></path><g><path d="M 47.575 -21.225 q 0.465 4.718 -7.9 10 l 5.55 0 l 17.6 -17.6 l 0 -15 l -10 10 l 0 12.6 l -5.25 0 z"></path></g><g><path d="M 35.875000000000014 41.32500000000001 q -6.8 0.5 -7.5 7.5 l 15 15 l 15 -15 l -1.2 -1.2 l -7.5 7.5 l -13.8 -13.8 z"></path></g><path d="M 31.200000000000003 -53.825 l 10 -10 l -30 0 l -10 10 l 30 0 z"></path></g></g></g>
</svg>
