<svg xmlns="http://www.w3.org/2000/svg" viewBox="0 0 557.55 166.425" width="557.55" height="166.425" fill="currentColor" stroke="none">
<g transform="translate(278.775 83.2125)"><g><g><path d="M -250.77499999999998 -20.087499999999977 l 7.45 -7.5 27.05 34.4 7.5 -7.5 -27.8 -36 -7.75 7.8 -26.95 -34.3 -7.5 7.5 28 35.6 z"></path></g><g><path d="M -138.77499999999998 -63.237499999999976 l -50 0 l -10 10 l 0 27 l 33.1 33.1 l 7.5 -7.5 l -30.6 -30.6 l 0 -22 l 40 0 l 10 -10 z"></path><g><path d="M -165.67499999999998 6.8625000000000185 l 7.05 -7.05 q -4.298 -1.674 -7.9 0.9 q -1.089 2.895 -0.3 4.95 l -7.5 7.55 q 16.8 -0.55 27.5 12.45 q -4.6 -18.35 -18.85 -18.8 z"></path></g><path d="M -176.37499999999997 45.662500000000016 l 8.8 -8.8 l -1.2 -1.2 l -20 20 l 30 0 l 10 -10 l -27.6 0 z"></path></g><g><path d="M -118.77499999999998 -63.18749999999998 l -10 10 l 0 60 l 40 0 l 10 -10 l -40 0 l 0 -60 z"></path><g><path d="M -106.27499999999998 37.012500000000024 l 1.2 1.2 l 16.3 -16.3 l 0 -15.1 l 10 -10 l -18.3 0 q 4.75 2.3 -1.7 10 l 7.6 0 l 0.25 -0.2 l -7.85 7.85 l 0 15.05 l -7.5 7.5 z"></path></g><path d="M -113.77499999999998 58.21250000000003 l 0 25 l 20 -20 l -1.2 -1.2 l -8.8 8.8 l 0 -22.6 l -10 10 z"></path></g><g><path d="M -62.52499999999998 -53.18749999999998 q 24.3 9.1 15 21.3 l 1.25 1.15 q 15.85 -14.1 3.75 -22.45 l 20 0 l 17.5 -17.5 l -1.2 -1.2 l -8.7 8.7 l -37.6 0 l -10 10 z"></path><path d="M -58.77499999999998 -33.18749999999998 l -10 10 l 50 0 l 10 -10 l -50 0 z"></path></g><g><path d="M 14.975000000000023 -63.18749999999998 l -10 10 l 0 60 l 10 -10 l 0 -60 z"></path><g><path d="M 4.975000000000023 -8.187499999999979 l 0 15 l 15 0 l 10 -10 l -15 0 l 0 -10 q -3.874 7.753 -10 5 z"></path></g></g><g><path d="M 49.875 -63.21249999999998 l -9.9 9.95 l 47.35 58.35 l 0.05 0 l 1.4 1.75 l 7.5 -7.5 l -42.7 -52.55 l 52.05 0 l 10 -10 l -65.75 0 z"></path><g><path d="M 96.27500000000003 -0.6624999999999659 q -6.8 0.5 -7.5 7.5 l 15 15 l 15 -15 l -1.2 -1.2 l -7.5 7.5 l -13.8 -13.8 z"></path></g><path d="M 89.375 -73.21249999999998 l 10 -10 l -30 0 l -10 10 l 30 0 z"></path></g><g><path d="M 138.77500000000003 -63.18749999999998 l -10 10 l 0 60 l 10 -10 l 0 -60 z"></path><g><path d="M 128.77500000000003 -8.187499999999979 l 0 15 l 10 -10 l 0 20 l 10 -9.9 l 0 -22.4 l -10 9.95 l 0 -5.15 q -5 6.1 -10 2.5 z"></path></g></g><g><path d="M 173.77500000000003 -63.18749999999998 l -10 10 l 0 35 l 19.95 0 l -24.95 25 l 40 0 l 10 -10 l -37.6 0 l 24.85 -25 l -22.25 0 l 0 -35 z"></path><path d="M 193.77500000000003 -73.18749999999997 l 10 -10 l -30 0 l -10 10 l 30 0 z"></path></g><g><path d="M 228.77500000000003 -63.18749999999998 l -10 10 l 0 60 l 10 -10 l 0 -60 z"></path></g><g><path d="M 250.02499999999998 -63.18749999999998 l -10 10 l 0 30 l 30 30 l 7.5 -7.5 l -27.5 -27.5 l 0 -35 z"></path><path d="M 268.775 -73.18749999999997 l 10 -10 l -30 0 l -10 10 l 30 0 z"></path></g></g></g>
</svg>
