<svg xmlns="http://www.w3.org/2000/svg" viewBox="0 0 103.8 172.294907" width="103.8" height="172.294907" fill="currentColor" stroke="none">
<g transform="translate(51.9 86.147453)"><g><g><path d="M -7.599999999999994 14.924999999999995 l 7.45 -7.5 27.05 34.4 7.5 -7.5 -27.8 -36 -7.75 7.8 -26.95 -34.3 -7.5 7.5 28 35.6 z"></path><path d="M -28.099999999999994 -22.175000000000004 q 0.8 -1 0 -6 l -6.3 6.3 l 0 -19.95 l -17.5 17.5 l 1.2 1.2 l 6.3 -6.3 l 0 20.05 l 10 -10.1 q 4.2 0.65 6.3 -2.7 z"></path><path d="M 24.299999999999997 31.824999999999996 q -1.655 2.716 2.6 10 l 15 0 l 10 -10 l -20 0 q -7.015 -2.931 -7.6 0 z"></path></g></g></g>
</svg>
