<svg xmlns="http://www.w3.org/2000/svg" viewBox="0 0 226.35 136.25" width="226.35" height="136.25" fill="currentColor" stroke="none">
<g transform="translate(113.175 68.125)"><g><g><path d="M -68.87499999999999 -0.1000000000000032 l 7.45 -7.5 27.05 34.4 7.5 -7.5 -27.8 -36 -7.75 7.8 -26.95 -34.3 -7.5 7.5 28 35.6 z"></path><path d="M -89.37499999999999 -37.2 q 0.8 -1 0 -6 l -6.3 6.3 l 0 -19.95 l -17.5 17.5 l 1.2 1.2 l 6.3 -6.3 l 0 20.05 l 10 -10.1 q 4.2 0.65 6.3 -2.7 z"></path><path d="M -36.974999999999994 16.799999999999997 q -1.655 2.716 2.6 10 l 15 0 l 10 -10 l -20 0 q -7.015 -2.931 -7.6 0 z"></path></g><g><path d="M 15.675000000000011 -33.2 l 34.95 0 l 10 -10 l -50 0 l -10 10 l 25 25 l 0 35 l 10 -10 l 0 -30.05 l -19.95 -19.95 z"></path></g><g><path d="M 103.17499999999998 26.724999999999994 l 10 -10 l 0 -40 l -9.55 9.55 l -20.65 -29.4 l -7.5 7.5 l 21.6 30.85 l 6.1 -6.1 l 0 37.6 z"></path><g><path d="M 113.17499999999998 16.724999999999994 l 0 -7.3 q -4.546 5.888 -10 3.05 l 0 11.95 l -15.05 0 l -17.5 17.5 l 1.2 1.2 l 8.7 -8.7 l 15 0 l 17.65 -17.7 z"></path></g><path d="M 84.4 -60.625 l 7.5 7.5 l 7.5 -7.5 l -7.5 -7.5 l -7.5 7.5 z"></path><path d="M 84.4 60.625 l 7.5 7.5 l 7.5 -7.5 l -7.5 -7.5 l -7.5 7.5 z"></path></g></g></g>
</svg>
