<svg xmlns="http://www.w3.org/2000/svg" viewBox="0 0 198.75 105.225" width="198.75" height="105.225" fill="currentColor" stroke="none">
<g transform="translate(99.375 52.6125)"><g><g><path d="M -91.87500000000001 -37.387499999999996 l -7.5 7.5 57.5 62.5 7.5 -7.5 -57.5 -62.5 z"></path><path d="M -64.37500000000001 52.612500000000004 l 10 -10 l -30 0 l -10 10 l 30 0 z"></path></g><g><path d="M 15.624999999999986 2.2375000000000043 l 10 -10 l -29.85 -29.85 l -7.5 7.5 l 22.35 22.35 l -20 0 l -15 15 l 25.6 25.6 l 7.5 -7.5 l -23.1 -23.1 l 30 0 z"></path><g><path d="M -24.22500000000001 -27.612499999999997 l 15 0 q 7 2.95 7.6 0 q 1.65 -2.7 -2.6 -10 l -10 0 l 0 -15 l -10 10 l 0 15 z"></path></g><g><path d="M 16.22499999999998 47.837500000000006 l 7.5 -7.5 l -15 -15 q -6.8 0.5 -7.5 7.5 l 15 15 z"></path></g></g><g><path d="M 74.675 -19.937499999999996 l -1.25 -1.15 q -5.45 4.65 -10.85 3.05 q -5.65 -1.7 -5.7 -9.35 l 25 0 l 17.5 -17.5 l -1.2 -1.2 l -8.7 8.7 l -37.6 0 l -10 10 q 14.9 23.2 32.8 7.45 z"></path><path d="M 45.624999999999986 -7.387499999999996 l -10 10 l 50 0 l 10 -10 l -50 0 z"></path></g></g></g>
</svg>
