<svg xmlns="http://www.w3.org/2000/svg" viewBox="0 0 82.5 172.294907" width="82.5" height="172.294907" fill="currentColor" stroke="none">
<g transform="translate(41.25 86.147453)"><g><g><path d="M -21.25 -53.10565213269 l -10 10 l 0 50 l -10 10 l 45 0 l 10 -10 l -42.6 0 l 7.6 -7.6 l 0 -42.4 l 30 0 l 10 -10 l -40 0 z"></path><g><path d="M 41.25 -45.60565213269 l -1.2 -1.2 l -7.5 7.5 l -13.8 -13.8 q -8.65 2.75 -10 10 l 5 0 l 12.5 12.5 l 15 -15 z"></path></g><g><path d="M 0.10000000000000142 6.894347867310003 q 2.585 3.848 -6.35 10 l 7.65 0 l -6.3 6.35 q 5.6 10.2 27.5 9.85 q -16.25 -5.4 -18.85 -16.2 l 10 -10 l -13.65 0 z"></path></g><path d="M 10 53.10565213269 l 10 -10 l -30 0 l -10 10 l 30 0 z"></path></g></g></g>
</svg>
