<svg xmlns="http://www.w3.org/2000/svg" viewBox="0 0 87.15 172.294907" width="87.15" height="172.294907" fill="currentColor" stroke="none">
<g transform="translate(43.575 86.147453)"><g><g><path d="M 1.5749999999999957 26.85 l 7.45 -7.5 27.05 34.4 7.5 -7.5 -27.8 -36 -7.75 7.8 -26.95 -34.3 -7.5 7.5 28 35.6 z"></path><path d="M -21.425000000000004 -13.75 l -5 5 l -10 -10 l -7.15 7.15 l 11.3 11.2 l 7 -7.1 l 1 -1 q 3.183 1.742 3.85 0 q 0.916 -1.293 0 -6.25 z"></path><path d="M -23.925000000000004 33.75 l 20 20 l 7.5 -7.5 l -20 -20 l -7.5 7.5 z"></path><path d="M -5.175000000000004 -46.25 l 20 20 l 7.5 -7.5 l -20 -20 l -7.5 7.5 z"></path></g></g></g>
</svg>
