<svg xmlns="http://www.w3.org/2000/svg" viewBox="0 0 320.65 122.5" width="320.65" height="122.5" fill="currentColor" stroke="none">
<g transform="translate(160.325 61.25)"><g><g><path d="M -132.325 1.8750000000000124 l 7.45 -7.5 27.05 34.4 7.5 -7.5 -27.8 -36 -7.75 7.8 -26.95 -34.3 -7.5 7.5 28 35.6 z"></path></g><g><path d="M -25.32499999999999 -41.19999999999999 l -10 10 l 0 20 l -35 0 l -10 10 l 29.95 29.95 l 7.5 -7.5 l -22.45 -22.45 l 30 0 l 10 -10 l 0 -30 z"></path><g><path d="M -47.874999999999986 26.249999999999993 l 5 -5 l 10 10 l 7.15 -7.15 l -11.3 -11.2 l -7 7.1 l -1 1 q -3.183 -1.742 -3.85 0 q -0.916 1.293 0 6.25 z"></path></g><path d="M -60.42499999999998 51.24999999999999 l 8.8 -8.8 l -1.2 -1.2 l -20 20 l 30 0 l 10 -10 l -27.6 0 z"></path></g><g><path d="M 12.625 -56.22499999999999 l -7.5 7.5 l 21.65 27.5 l 7.45 -7.5 l -21.6 -27.5 z"></path><path d="M -5.324999999999989 -11.224999999999987 l -10 10 l 50 0 l 10 -10 l -50 0 z"></path></g><g><path d="M 72.875 -41.22499999999999 l -10 10 l 0 60 l 10 -10 l 0 -60 z"></path><g><path d="M 74.67500000000001 40.57500000000001 l -11.8 -11.8 l 10 -10 l 0 -5 q -5.188 7.964 -10 5 l 0 7.7 l -8.2 8.2 l 13 12.9 l 7 -7 z"></path></g></g><g><path d="M 94.57499999999999 -41.249999999999986 l -9.9 9.95 l 47.35 58.35 l 0.05 0 l 1.4 1.75 l 7.5 -7.5 l -42.7 -52.55 l 52.05 0 l 10 -10 l -65.75 0 z"></path><g><path d="M 148.47500000000002 43.800000000000026 l 7.5 -7.5 l -15 -15 q -6.8 0.5 -7.5 7.5 l 15 15 z"></path></g><path d="M 132.5 -51.249999999999986 l 10 -10 l -30 0 l -10 10 l 30 0 z"></path></g></g></g>
</svg>
