<svg xmlns="http://www.w3.org/2000/svg" viewBox="0 0 50.25 172.294907" width="50.25" height="172.294907" fill="currentColor" stroke="none">
<g transform="translate(25.125 86.147453)"><g><g><path d="M 14.875 12.775000000000006 l 10 -10 l -29.85 -29.85 l -7.5 7.5 l 22.35 22.35 l -20 0 l -15 15 l 25.6 25.6 l 7.5 -7.5 l -23.1 -23.1 l 30 0 z"></path><g><path d="M -16.775 -38.875 l 11.8 11.8 l -5 5 q 7.681 1.687 7.1 -0.5 l -0.95 -3.35 l 7.05 -7.05 l -13 -12.9 z"></path></g><g><path d="M 2.9750000000000014 40.87500000000001 l 5 -5 l 10 10 l 7.15 -7.15 l -11.3 -11.2 l -7 7.1 l -1 1 q -3.183 -1.742 -3.85 0 q -0.916 1.293 0 6.25 z"></path></g></g></g></g>
</svg>
