<svg xmlns="http://www.w3.org/2000/svg" viewBox="0 0 546.6 121.4" width="546.6" height="121.4" fill="currentColor" stroke="none">
<g transform="translate(273.3 60.7)"><g><g><path d="M -263.29999999999995 -40.7 l -10 10 l 0 60 l 10 -10 l 0 -60 z"></path><g><path d="M -273.29999999999995 14.299999999999997 l 0 15 l 10 -10 l 0 20 l 10 -9.9 l 0 -22.4 l -10 9.95 l 0 -5.15 q -5 6.1 -10 2.5 z"></path></g></g><g><path d="M -193.29999999999995 -30.700000000000003 l 10 -10 l -50 0 l -10 10 l 0 35 l 10 -10 l 15 0 l 0 35 l 10 -10 l 0 -35 l -17.35 0 l -7.65 7.6 l 0 -22.6 l 40 0 z"></path><path d="M -203.29999999999995 -50.7 l 10 -10 l -30 0 l -10 10 l 30 0 z"></path></g><g><path d="M -165.79999999999995 -40.7 l -7.5 7.5 57.5 62.5 7.5 -7.5 -57.5 -62.5 z"></path><path d="M -118.39999999999995 19.299999999999997 q -1.65 2.7 2.6 10 l 12.6 0 l -7.5 7.5 l 1.2 1.2 l 18.7 -18.7 l -20 0 q -7 -2.95 -7.6 0 z"></path><path d="M -155.79999999999995 46.8 l 7.5 7.5 l 7.5 -7.5 l -7.5 -7.5 l -7.5 7.5 z"></path></g><g><path d="M -21.399999999999977 -40.7 l -50 0 l -9.4 9.4 l 23.2 33.05 l 6.2 -6.25 l 0 33.8 l 10 -10 l 0 -36.15 l -1.1 1.1 q -2.967 2.977 -5.95 5.95 l -1.95 2 l -0.65 0.65 l -16.5 -23.5 l 36.2 0 l 10 -10 z"></path></g><g><path d="M 13.300000000000011 -40.7 l -7.5 7.5 57.5 62.5 7.5 -7.5 -57.5 -62.5 z"></path><path d="M 10.800000000000011 -38.2 l -5 5 l -10 -10 l -7.15 7.15 l 11.3 11.2 l 7 -7.1 l 1 -1 q 3.183 1.742 3.85 0 q 0.916 -1.293 0 -6.25 z"></path><path d="M 60.69999999999999 19.299999999999997 q -1.655 2.716 2.6 10 l 15 0 l 10 -10 l -20 0 q -7.015 -2.931 -7.6 0 z"></path><path d="M 23.30000000000001 46.8 l 7.5 7.5 l 7.5 -7.5 l -7.5 -7.5 l -7.5 7.5 z"></path></g><g><path d="M 138.3 -1.0750000000000028 l 10 -10 l -29.85 -29.85 l -7.5 7.5 l 22.35 22.35 l -20 0 l -15 15 l 25.6 25.6 l 7.5 -7.5 l -23.1 -23.1 l 30 0 z"></path></g><g><path d="M 205.8 29.299999999999997 l 7.5 -7.5 -26.9 -26.9 7.45 -7.55 -28.05 -28.05 -7.5 7.5 26.9 26.9 -7.5 7.5 28.1 28.1 z"></path><path d="M 210.25 22.9 q -1.825 3.28 -4.45 6.4 l -7.5 7.5 l -1.2 -1.2 l 7.5 -7.5 q -1.688 -4.106 -0.35 -4.55 q 1.45 -0.6 6 -0.65 z"></path><path d="M 170.8 46.8 l 7.5 7.5 l 7.5 -7.5 l -7.5 -7.5 l -7.5 7.5 z"></path></g><g><path d="M 233.29999999999995 -40.7 l -10 10 l 0 60 l 40 0 l 10 -10 l -40 0 l 0 -60 z"></path><g><path d="M 245.79999999999995 59.5 l 1.2 1.2 l 16.3 -16.3 l 0 -15.1 l 10 -10 l -18.3 0 q 4.75 2.3 -1.7 10 l 7.6 0 l 0.25 -0.2 l -7.85 7.85 l 0 15.05 l -7.5 7.5 z"></path></g></g></g></g>
</svg>
