<svg xmlns="http://www.w3.org/2000/svg" viewBox="0 0 71.3 172.294907" width="71.3" height="172.294907" fill="currentColor" stroke="none">
<g transform="translate(35.65 86.147453)"><g><g><path d="M 4.350000000000001 8.174999999999997 l 7.5 -7.5 -32.5 -32.5 -7.5 7.5 32.5 32.5 m -17.5 -10 l -7.5 7.5 32.5 32.5 7.5 -7.5 -32.5 -32.5 z"></path><path d="M -21.75 -28.775000000000002 q -3.28 1.825 -6.4 4.45 l -7.5 7.5 l 1.2 1.2 l 7.5 -7.5 q 4.106 1.688 4.55 0.35 q 0.6 -1.45 0.65 -6 z"></path><path d="M 11.850000000000001 32.175 q -0.8 1 0 6 l 6.3 -6.3 l 0 19.95 l 17.5 -17.5 l -1.2 -1.2 l -6.3 6.3 l 0 -20.05 l -10 10.1 q -4.2 -0.65 -6.3 2.7 z"></path><path d="M 5.600000000000001 -41.825 l 10 -10 l -30 0 l -10 10 l 30 0 z"></path></g></g></g>
</svg>
