<svg xmlns="http://www.w3.org/2000/svg" viewBox="0 0 270.95 110" width="270.95" height="110" fill="currentColor" stroke="none">
<g transform="translate(135.475 55)"><g><g><path d="M -125.47500000000002 -35 l -10 10 l 0 60 l 10 -10 l 0 -60 z"></path><g><path d="M -135.47500000000002 20 l 0 15 l 10 -10 l 0 20 l 10 -9.9 l 0 -22.4 l -10 9.95 l 0 -5.15 q -5 6.1 -10 2.5 z"></path></g></g><g><path d="M -95.47500000000002 -35 l -10 10 l 0 36.3 l 10 -10.05 l 0 33.75 l 10 -10 l 0 -36.15 l -10 10 l 0 -23.85 l 30 0 l 10 -10 l -40 0 z"></path><g><path d="M -85.47500000000002 42.6 l 0 -17.6 q -7.3 -5 -10 10 l 0 20 l 17.5 -17.5 l -1.2 -1.2 l -6.3 6.3 z"></path></g><path d="M -70.47500000000002 -45 l 10 -10 l -30 0 l -10 10 l 30 0 z"></path></g><g><path d="M -5.475000000000023 5 l 7.5 -7.5 -32.5 -32.5 -7.5 7.5 32.5 32.5 m -17.5 -10 l -7.5 7.5 32.5 32.5 7.5 -7.5 -32.5 -32.5 z"></path><path d="M -31.575000000000017 -31.95 q -3.28 1.825 -6.4 4.45 l -7.5 7.5 l 1.2 1.2 l 7.5 -7.5 q 4.106 1.688 4.55 0.35 q 0.6 -1.45 0.65 -6 z"></path><path d="M 2.0249999999999773 29 q -0.8 1 0 6 l 6.3 -6.3 l 0 19.95 l 17.5 -17.5 l -1.2 -1.2 l -6.3 6.3 l 0 -20.05 l -10 10.1 q -4.2 -0.65 -6.3 2.7 z"></path><path d="M -4.225000000000023 -45 l 10 -10 l -30 0 l -10 10 l 30 0 z"></path></g><g><path d="M 53.32499999999999 -35 l -10 10 l 0 35 l 26.3 0 l 8.7 -8.75 l 0 33.75 l 10 -10 l 0 -36.15 l -11.15 11.15 l -23.85 0 l 0 -35 z"></path><g><path d="M 43.32499999999999 -13.8 q 5 -12.14 10 -11.2 l 0 -10 l -17.5 17.5 l 1.2 1.2 l 6.3 -6.3 l 0 8.8 z"></path></g><g><path d="M 87.975 22.9 q -0.375 0.363 -1.15 1.15 q -6.261 1.099 -8.5 -3.8 l 0 14.75 l 10 -10 l 10 10 l 7.15 -7.15 l -11.3 -11.2 l -5.85 5.9 q -0.04 0.029 -0.35 0.35 z"></path></g></g><g><path d="M 135.47500000000002 -11.15 l -10 10 l 0 -33.85 l -10 10 l 0 36.2 l 10 -9.95 l 0 33.75 l 10 -10 l 0 -36.15 z"></path><g><path d="M 125.47500000000002 55 l 10 -10 l 0 -20 q -7.3 -5 -10 10 l 0 20 z"></path></g></g></g></g>
</svg>
