<svg xmlns="http://www.w3.org/2000/svg" viewBox="0 0 77.6 90" width="77.6" height="90" fill="currentColor" stroke="none">
<g transform="translate(38.8 45)"><g><g><path d="M -28.799999999999997 -25 l -10 10 l 0 60 l 10 -10 l 0 -60 z"></path></g><g><path d="M -11.299999999999997 -25 l -7.5 7.5 l 31.25 31.25 l -31.25 31.25 l 40 0 l 10 -10 l -37.6 0 l 27.5 -27.6 l -32.4 -32.4 z"></path><g><path d="M 23.550000000000004 35 q 0.465 4.718 -7.9 10 l 5.55 0 l 17.6 -17.6 l 0 -15 l -10 10 l 0 12.6 l -5.25 0 z"></path></g><path d="M 20 -35 l 10 -10 l -30 0 l -10 10 l 30 0 z"></path></g></g></g>
</svg>
