<svg xmlns="http://www.w3.org/2000/svg" viewBox="0 0 136.55 108.8" width="136.55" height="108.8" fill="currentColor" stroke="none">
<g transform="translate(68.275 54.4)"><g><g><path d="M -41.12499999999999 -34.4 l -10 10 l 0 60 l 10 -10 l 0 -60 z"></path><g><path d="M -50.77499999999999 -22.299999999999997 q 0.375 -0.363 1.15 -1.15 q 6.261 -1.099 8.5 3.8 l 0 -14.75 l -10 10 l -10 -10 l -7.15 7.15 l 11.3 11.2 l 5.85 -5.9 q 0.04 -0.029 0.35 -0.35 z"></path></g></g><g><path d="M -14.824999999999996 -34.4 l -7.5 7.5 l 31.25 31.25 l -31.25 31.25 l 40 0 l 10 -10 l -37.6 0 l 27.5 -27.6 l -32.4 -32.4 z"></path><g><path d="M -21.125 -25.7 q 6.486 1.216 4.75 -5 q -2.924 3.894 -5.95 3.8 l -8.8 8.8 l 0 15 l 10 -10 l 0 -12.6 z"></path></g><g><path d="M 29.47500000000001 47.4 l -11.8 -11.8 l 10 -10 l -11.15 0 q 3.75 5.2 -5.8 10 l 4.65 0 l -5.9 5.9 l 13 12.9 l 7 -7 z"></path></g><path d="M 9.174999999999997 -44.4 l 10 -10 l -30 0 l -10 10 l 30 0 z"></path></g><g><path d="M 68.27499999999999 -10.549999999999999 l -10 10 l 0 -33.85 l -10 10 l 0 36.2 l 10 -9.95 l 0 33.75 l 10 -10 l 0 -36.15 z"></path><g><path d="M 48.27499999999999 -42 l 0 17.6 q 7.3 5 10 -10 l 0 -20 l -17.5 17.5 l 1.2 1.2 l 6.3 -6.3 z"></path></g><g><path d="M 68.27499999999999 25.6 l 0 -5 q -6.25 9 -10 5 l 0 7.6 l -11.8 -11.7 l -7 7 l 12.95 12.95 l 15.85 -15.85 z"></path></g></g></g></g>
</svg>
