<svg xmlns="http://www.w3.org/2000/svg" viewBox="0 0 479.7 135" width="479.7" height="135" fill="currentColor" stroke="none">
<g transform="translate(239.85 67.5)"><g><g><path d="M -203.05 -4.4 l 7.45 -7.5 27.05 34.4 7.5 -7.5 -27.8 -36 -7.75 7.8 -26.95 -34.3 -7.5 7.5 28 35.6 z"></path><path d="M -229.85 -38.8 q 6.486 1.216 4.75 -5 q -2.924 3.894 -5.95 3.8 l -8.8 8.8 l 0 15 l 10 -10 l 0 -12.6 z"></path></g><g><path d="M -141.05 -47.5 l -10 10 l 0 60 l 10 -10 l 0 -50 l 30 0 l 10 -10 l -40 0 z"></path></g><g><path d="M -58.49999999999997 22.475 l 10 -10 l 0 -20 l 35 0 l 10 -10 l -29.95 -29.95 l -7.5 7.5 l 22.45 22.45 l -30 0 l -10 10 l 0 30 z"></path><g><path d="M -48.49999999999997 12.475000000000009 l 0 -7.3 q -4.546 5.888 -10 3.05 l 0 11.95 l -15.05 0 l -17.5 17.5 l 1.2 1.2 l 8.7 -8.7 l 15 0 l 17.65 -17.7 z"></path></g><path d="M -37.275000000000006 58.875000000000014 l 10 -10 l -30 0 l -10 10 l 30 0 z"></path></g><g><path d="M 49.00000000000003 22.5 l 7.5 -7.5 l -31.25 -31.25 l 31.25 -31.25 l -40 0 l -10 10 l 37.6 0 l -27.5 27.6 l 32.4 32.4 z"></path><g><path d="M 55.30000000000004 13.8 q -6.486 -1.216 -4.75 5 q 2.924 -3.894 5.95 -3.8 l 8.8 -8.8 l 0 -15 l -10 10 l 0 12.6 z"></path></g><path d="M 25.900000000000006 42.5 l 0 25 l 20 -20 l -1.2 -1.2 l -8.8 8.8 l 0 -22.6 l -10 10 z"></path></g><g><path d="M 97.70000000000002 -47.5 l -10 10 l 0 60 l 10 -10 l 0 -60 z"></path><g><path d="M 75.30000000000004 32.5 l 22.4 0 l 10 -10.1 l -19.9 0 l -0.1 0.1 l 0 -0.1 l 0.05 0 l 9.95 -9.9 l 0 -5 q -5 5.774 -10 5 l 0 7.55 l -12.4 12.4 z"></path></g></g><g><path d="M 144.85 -47.5 l -10 10 l 0 35 l 26.3 0 l 8.7 -8.75 l 0 33.75 l 10 -10 l 0 -36.15 l -11.15 11.15 l -23.85 0 l 0 -35 z"></path><g><path d="M 135.20000000000002 -35.4 q 0.375 -0.363 1.15 -1.15 q 6.261 -1.099 8.5 3.8 l 0 -14.75 l -10 10 l -10 -10 l -7.15 7.15 l 11.3 11.2 l 5.85 -5.9 q 0.04 -0.029 0.35 -0.35 z"></path></g><g><path d="M 179.85 1.3000000000000007 q -5 12.14 -10 11.2 l 0 10 l 17.5 -17.5 l -1.2 -1.2 l -6.3 6.3 l 0 -8.8 z"></path></g><path d="M 162.525 -57.5 l 10 -10 l -30 0 l -10 10 l 30 0 z"></path></g><g><path d="M 232.35 -23.65 l -10 10 l 0 -33.85 l -10 10 l 0 36.2 l 10 -9.95 l 0 33.75 l 10 -10 l 0 -36.15 z"></path><g><path d="M 222.35 -32.5 l 0 -15 l -15 0 l -10 10 l 15 0 l 0 10 q 3.874 -7.753 10 -5 z"></path></g><g><path d="M 232.35 30.1 l 0 -17.6 q -7.3 -5 -10 10 l 0 20 l 17.5 -17.5 l -1.2 -1.2 l -6.3 6.3 z"></path></g></g></g></g>
</svg>
