<svg xmlns="http://www.w3.org/2000/svg" viewBox="0 0 295.7 120.45" width="295.7" height="120.45" fill="currentColor" stroke="none">
<g transform="translate(147.85 60.225)"><g><g><path d="M -115.54999999999997 8.1 l 7.45 -7.5 27.05 34.4 7.5 -7.5 -27.8 -36 -7.75 7.8 -26.95 -34.3 -7.5 7.5 28 35.6 z"></path><path d="M -147.84999999999997 -46.8 l 11.8 11.8 l -5 5 q 7.681 1.687 7.1 -0.5 l -0.95 -3.35 l 7.05 -7.05 l -13 -12.9 z"></path><path d="M -98.54999999999997 -45 l 10 -10 l -30 0 l -10 10 l 30 0 z"></path></g><g><path d="M -4.149999999999977 -35 l -50 0 l -9.4 9.4 l 23.2 33.05 l 6.2 -6.25 l 0 33.8 l 10 -10 l 0 -36.15 l -1.1 1.1 q -2.967 2.977 -5.95 5.95 l -1.95 2 l -0.65 0.65 l -16.5 -23.5 l 36.2 0 l 10 -10 z"></path></g><g><path d="M 15.900000000000034 -4.625 l -10 10 l 29.85 29.85 l 7.5 -7.5 l -22.35 -22.35 l 20 0 l 15 -15 l -25.6 -25.6 l -7.5 7.5 l 23.1 23.1 l -30 0 z"></path><path d="M 23.400000000000034 -52.725 l 7.5 7.5 l 7.5 -7.5 l -7.5 -7.5 l -7.5 7.5 z"></path><path d="M 23.400000000000034 52.725 l 7.5 7.5 l 7.5 -7.5 l -7.5 -7.5 l -7.5 7.5 z"></path></g><g><path d="M 88.44999999999999 35 l 50 0 l 9.4 -9.4 l -23.2 -33.05 l -6.2 6.25 l 0 -33.8 l -10 10 l 0 36.15 l 1.1 -1.1 q 2.967 -2.977 5.95 -5.95 l 1.95 -2 l 0.65 -0.65 l 16.5 23.5 l -36.2 0 l -10 10 z"></path><g><path d="M 108.44999999999999 -13.799999999999994 q 5 -12.14 10 -11.2 l 0 -10 l -17.5 17.5 l 1.2 1.2 l 6.3 -6.3 l 0 8.8 z"></path></g><g><path d="M 65.90000000000003 27.500000000000007 l 1.2 1.2 l 7.5 -7.5 l 13.8 13.8 q 8.65 -2.75 10 -10 l -5 0 l -12.5 -12.5 l -15 15 z"></path></g><path d="M 99.375 52.50000000000001 l 7.5 7.5 l 7.5 -7.5 l -7.5 -7.5 l -7.5 7.5 z"></path></g></g></g>
</svg>
