<svg xmlns="http://www.w3.org/2000/svg" viewBox="0 0 197.4 108.8" width="197.4" height="108.8" fill="currentColor" stroke="none">
<g transform="translate(98.7 54.4)"><g><g><path d="M -76.30000000000001 -34.400000000000006 l -10 10 l 0 60 l 10 -10 l 0 -60 z"></path><g><path d="M -98.7 45.599999999999994 l 22.4 0 l 10 -10.1 l -19.9 0 l -0.1 0.1 l 0 -0.1 l 0.05 0 l 9.95 -9.9 l 0 -5 q -5 5.774 -10 5 l 0 7.55 l -12.4 12.4 z"></path></g></g><g><path d="M -41.25000000000001 -24.400000000000006 l 34.95 0 l 10 -10 l -50 0 l -10 10 l 25 25 l 0 35 l 10 -10 l 0 -30.05 l -19.95 -19.95 z"></path><path d="M -16.299999999999997 -44.400000000000006 l 10 -10 l -30 0 l -10 10 l 30 0 z"></path></g><g><path d="M 31.89999999999999 -34.400000000000006 l -10 10 l 0 60 l 10 -10 l 0 -60 z"></path><g><path d="M 33.7 47.39999999999999 l -11.8 -11.8 l 10 -10 l 0 -5 q -5.188 7.964 -10 5 l 0 7.7 l -8.2 8.2 l 13 12.9 l 7 -7 z"></path></g></g><g><path d="M 98.7 -34.37500000000001 l -10 10 l 0 20 l -35 0 l -10 10 l 29.95 29.95 l 7.5 -7.5 l -22.45 -22.45 l 30 0 l 10 -10 l 0 -30 z"></path><g><path d="M 71.05 25.574999999999974 q -1.655 2.716 2.6 10 l 15 0 l 10 -10 l -20 0 q -7.015 -2.931 -7.6 0 z"></path></g><path d="M 81.2 -44.375000000000014 l 10 -10 l -30 0 l -10 10 l 30 0 z"></path></g></g></g>
</svg>
