<svg xmlns="http://www.w3.org/2000/svg" viewBox="0 0 83.25 172.294907" width="83.25" height="172.294907" fill="currentColor" stroke="none">
<g transform="translate(41.625 86.147453)"><g><g><path d="M -31.724999999999998 -39.95 l -9.9 9.95 l 47.35 58.35 l 0.05 0 l 1.4 1.75 l 7.5 -7.5 l -42.7 -52.55 l 52.05 0 l 10 -10 l -65.75 0 z"></path><g><path d="M 19.025000000000006 -29.950000000000003 l 5 0 l 7.6 -7.6 l 0 19.95 l 10 -9.9 l 0 -22.45 l -10 10 l -12.6 0 q 3.5 4 0 10 z"></path></g><g><path d="M 13.475000000000001 41.25000000000001 l -7.5 7.5 l 1.2 1.2 l 16.3 -16.3 l 0 -22.35 l -10 10.1 q -4.2 -0.65 -6.3 2.7 q -0.8 1 0 6 l 6.3 -6.3 l 0 17.45 z"></path></g></g></g></g>
</svg>
