<svg xmlns="http://www.w3.org/2000/svg" viewBox="0 0 180 90" width="180" height="90" fill="currentColor" stroke="none">
<g transform="translate(90 45)"><g><g><path d="M -80 -25 l -10 10 l 0 60 l 10 -10 l 0 -60 z"></path><g><path d="M -90 30 l 0 15 l 15 0 l 10 -10 l -15 0 l 0 -10 q -3.874 7.753 -10 5 z"></path></g></g><g><path d="M -47.5 -25 l -7.5 7.5 l 31.25 31.25 l -31.25 31.25 l 40 0 l 10 -10 l -37.6 0 l 27.5 -27.6 l -32.4 -32.4 z"></path><path d="M -20 -35 l 10 -10 l -30 0 l -10 10 l 30 0 z"></path></g><g><path d="M 15 -25 l -10 10 l 0 60 l 10 -10 l 0 -60 z"></path><g><path d="M 5 30 l 0 15 l 15 0 l 10 -10 l -15 0 l 0 -10 q -3.874 7.753 -10 5 z"></path></g></g><g><path d="M 47.5 -25 l -7.5 7.5 l 31.25 31.25 l -31.25 31.25 l 40 0 l 10 -10 l -37.6 0 l 27.5 -27.6 l -32.4 -32.4 z"></path><path d="M 75 -35 l 10 -10 l -30 0 l -10 10 l 30 0 z"></path></g></g></g>
</svg>
