<svg xmlns="http://www.w3.org/2000/svg" viewBox="0 0 75.95 172.294907" width="75.95" height="172.294907" fill="currentColor" stroke="none">
<g transform="translate(37.975 86.147453)"><g><g><path d="M -17.975 -26.800000000000004 l -10 10 l 0 60 l 40 0 l 10 -10 l -40 0 l 0 -60 z"></path><g><path d="M -17.975 -24.400000000000006 l 7.5 -7.55 q -16.8 0.55 -27.5 -12.45 q 4.6 18.35 18.85 18.8 l -8.85 8.8 l 0 5 q 4.75 -4.55 10 -1.5 l 0 -11.1 z"></path></g><g><path d="M 7.475000000000001 43.199999999999996 l 4.55 0 l 8.8 -8.8 l 10 10 l 7.15 -7.15 l -11.3 -11.2 l -7.05 7.15 l -6.3 0 q 3.7 5 -5.85 10 z"></path></g></g></g></g>
</svg>
