<svg xmlns="http://www.w3.org/2000/svg" viewBox="0 0 64.05 172.294907" width="64.05" height="172.294907" fill="currentColor" stroke="none">
<g transform="translate(32.025 86.147453)"><g><g><path d="M -13.825000000000003 -25 l -10 10 l 0 60 l 10 -10 l 0 -50 l 30 0 l 10 -10 l -40 0 z"></path><g><path d="M 16.174999999999997 -25 q 2.55 4.45 -5 10 l 5 0 l 15.85 -15.9 l -13 -12.9 l -7 7 l 11.8 11.8 l -7.65 0 z"></path></g><g><path d="M -12.025000000000002 56.8 l -11.8 -11.8 l 10 -10 l 0 -5 q -5.188 7.964 -10 5 l 0 7.7 l -8.2 8.2 l 13 12.9 l 7 -7 z"></path></g><path d="M 10 -53.8 l 10 -10 l -30 0 l -10 10 l 30 0 z"></path></g></g></g>
</svg>
