<svg xmlns="http://www.w3.org/2000/svg" viewBox="0 0 571.1 135.025" width="571.1" height="135.025" fill="currentColor" stroke="none">
<g transform="translate(285.55 67.5125)"><g><g><path d="M -278.04999999999995 -47.51249999999999 l -7.5 7.5 57.5 62.5 7.5 -7.5 -57.5 -62.5 z"></path></g><g><path d="M -170.54999999999995 -47.51249999999999 l -10 10 l 0 20 l -20 0 l -10 10 l 0 30 l 30 0 l 10 -10 l -30 0 l 0 -20 l 20 0 l 10 -10 l 0 -30 z"></path><g><path d="M -158.14999999999995 -57.51249999999999 l -22.4 0 l -10 10.1 l 19.9 0 l 0.1 -0.1 l 0 0.1 l -0.05 0 l -9.95 9.9 l 0 5 q 5 -5.774 10 -5 l 0 -7.55 l 12.4 -12.4 z"></path></g><g><path d="M -175.54999999999995 22.48750000000001 l 12.5 12.5 l 7.5 -7.5 l -15 -15 q -8.65 2.75 -10 10 l 5 0 z"></path></g><path d="M -173.04999999999995 54.98750000000001 l 10 -10 l -30 0 l -10 10 l 30 0 z"></path></g><g><path d="M -135.64999999999998 -47.53749999999999 l -9.9 9.95 l 47.35 58.35 l 0.05 0 l 1.4 1.75 l 7.5 -7.5 l -42.7 -52.55 l 52.05 0 l 10 -10 l -65.75 0 z"></path><path d="M -117.72499999999997 42.512500000000024 l 0 25 l 20 -20 l -1.2 -1.2 l -8.8 8.8 l 0 -22.6 l -10 10 z"></path></g><g><path d="M -53.64999999999995 -37.51249999999999 q 24.3 9.1 15 21.3 l 1.25 1.15 q 15.85 -14.1 3.75 -22.45 l 20 0 l 17.5 -17.5 l -1.2 -1.2 l -8.7 8.7 l -37.6 0 l -10 10 z"></path><path d="M -49.89999999999995 -17.51249999999999 l -10 10 l 50 0 l 10 -10 l -50 0 z"></path></g><g><path d="M 65.65000000000003 22.48750000000001 l 7.5 -7.5 -26.9 -26.9 7.45 -7.55 -28.05 -28.05 -7.5 7.5 26.9 26.9 -7.5 7.5 28.1 28.1 z"></path><path d="M 13.850000000000023 -59.312499999999986 l 11.8 11.8 l -5 5 q 7.681 1.687 7.1 -0.5 l -0.95 -3.35 l 7.05 -7.05 l -13 -12.9 z"></path></g><g><path d="M 133.15000000000003 -37.51249999999999 l 10 -10 l -50 0 l -10 10 l 0 35 l 10 -10 l 15 0 l 0 35 l 10 -10 l 0 -35 l -17.35 0 l -7.65 7.6 l 0 -22.6 l 40 0 z"></path><path d="M 123.15000000000003 -57.51249999999999 l 10 -10 l -30 0 l -10 10 l 30 0 z"></path></g><g><path d="M 163.15000000000003 -47.51249999999999 l -10 10 l 0 60 l 10 -10 l 0 -60 z"></path><g><path d="M 153.15000000000003 7.487500000000011 l 0 15 l 15 0 l 10 -10 l -15 0 l 0 -10 q -3.874 7.753 -10 5 z"></path></g></g><g><path d="M 198.15000000000003 -47.51249999999999 l -10 10 l 0 60 l 10 -10 l 0 -50 l 30 0 l 10 -10 l -40 0 z"></path><g><path d="M 215.75000000000006 -27.51249999999999 l 22.4 0 l 9.9 -10 l -19.9 0 l 10 -10 l -12.65 0 q 5.504 3.447 -5.3 10 l 5.5 0 l -9.95 10 z"></path></g><g><path d="M 188.15000000000003 42.48750000000001 l 10 -10 l 0 -20 q -7.3 -5 -10 10 l 0 20 z"></path></g><path d="M 228.10000000000002 -57.51249999999999 l 10 -10 l -30 0 l -10 10 l 30 0 z"></path></g><g><path d="M 278.04999999999995 -23.662499999999987 l -10 10 l 0 -33.85 l -10 10 l 0 36.2 l 10 -9.95 l 0 33.75 l 10 -10 l 0 -36.15 z"></path><g><path d="M 278.04999999999995 30.087500000000013 l 0 -17.6 q -7.3 -5 -10 10 l 0 20 l 17.5 -17.5 l -1.2 -1.2 l -6.3 6.3 z"></path></g></g></g></g>
</svg>
