<svg xmlns="http://www.w3.org/2000/svg" viewBox="0 0 82.55 90" width="82.55" height="90" fill="currentColor" stroke="none">
<g transform="translate(41.275 45)"><g><g fill="currentColor"><path d="M -8.724999999999994 -45 l -7.5 7.5 l 31.25 31.25 l -31.25 31.25 l 40 0 l 10 -10 l -37.6 0 l 27.5 -27.6 l -32.4 -32.4 z"></path><g><path d="M -16.224999999999994 -37.5 l -15.05 0 l -10 10 l 17.45 0 l 8.75 -8.8 q 6.9 0.2 3.8 -6.15 l -4.95 4.95 z"></path></g><g><path d="M 13.775000000000006 25 l 10 0 l 17.5 -17.5 l -1.2 -1.2 l -8.7 8.7 l -7.6 0 q 0.83 5.4 -10 10 z"></path></g><path d="M 10.000000000000007 45 l 10 -10 l -30 0 l -10 10 l 30 0 z"></path></g></g></g>
</svg>
