<svg xmlns="http://www.w3.org/2000/svg" viewBox="0 0 90.65 172.294907" width="90.65" height="172.294907" fill="currentColor" stroke="none">
<g transform="translate(45.325 86.147453)"><g><g><path d="M 35.425 39.37500000000001 l 9.9 -9.95 l -47.35 -58.35 l -0.05 0 l -1.4 -1.75 l -7.5 7.5 l 42.7 52.55 l -52.05 0 l -10 10 l 65.75 0 z"></path><g><path d="M -0.875 -20.674999999999997 q 1.65 -2.7 -2.6 -10 l -12.6 0 l 7.5 -7.5 l -1.2 -1.2 l -18.7 18.7 l 20 0 q 7 2.95 7.6 0 z"></path></g><g><path d="M -25.325000000000003 29.375000000000014 l -12.5 -12.5 l -7.5 7.5 l 15 15 q 8.65 -2.75 10 -10 l -5 0 z"></path></g><path d="M -7.5 -56.875 l 7.5 7.5 l 7.5 -7.5 l -7.5 -7.5 l -7.5 7.5 z"></path><path d="M -7.5 56.875000000000014 l 7.5 7.5 l 7.5 -7.5 l -7.5 -7.5 l -7.5 7.5 z"></path></g></g></g>
</svg>
