<svg xmlns="http://www.w3.org/2000/svg" viewBox="0 0 402.35 140" width="402.35" height="140" fill="currentColor" stroke="none">
<g transform="translate(201.175 70)"><g><g><path d="M -191.175 -45 l -10 10 l 0 60 l 10 -10 l 0 -60 z"></path><g><path d="M -201.175 10 l 0 15 l 15 0 l 10 -10 l -15 0 l 0 -10 q -3.874 7.753 -10 5 z"></path></g></g><g><path d="M -111.17500000000001 -44.975 l -10 10 l 0 20 l -35 0 l -10 10 l 29.95 29.95 l 7.5 -7.5 l -22.45 -22.45 l 30 0 l 10 -10 l 0 -30 z"></path><g><path d="M -138.82500000000002 14.97499999999998 q -1.65 2.7 2.6 10 l 12.6 0 l -7.5 7.5 l 1.2 1.2 l 18.7 -18.7 l -20 0 q -7 -2.95 -7.6 0 z"></path></g><path d="M -128.675 -54.97500000000001 l 10 -10 l -30 0 l -10 10 l 30 0 z"></path></g><g><path d="M -93.67500000000001 -45 l -7.5 7.5 57.5 62.5 7.5 -7.5 -57.5 -62.5 z"></path></g><g><path d="M 6.324999999999989 -45.025 l -7.5 7.5 l 22.55 22.55 l -14.4 0 l -17.6 17.65 l 0 22.35 l 40 0 l 10 -10 l -40 0 l 0 -20 l 30 0 l 8.5 -8.5 l -31.55 -31.55 z"></path><g><path d="M 8.925000000000011 -35.025 q 1.65 -2.7 -2.6 -10 l -15 0 l -17.5 17.5 l 1.2 1.2 l 8.7 -8.7 l 17.6 0 q 7 2.95 7.6 0 z"></path></g><g><path d="M 41.17500000000001 36.82500000000002 l -11.8 -11.8 l 10 -10 l -11.15 0 q 3.75 5.2 -5.8 10 l 4.65 0 l -5.9 5.9 l 13 12.9 l 7 -7 z"></path></g><path d="M 17.5 63.82500000000002 l 10 -10 l -30 0 l -10 10 l 30 0 z"></path></g><g><path d="M 71.17500000000001 -21.15 l -10 10 l 0 -33.85 l -10 10 l 0 36.2 l 10 -9.95 l 0 33.75 l 10 -10 l 0 -36.15 z"></path><g><path d="M 61.17500000000001 45 l 10 -10 l 0 -20 q -7.3 -5 -10 10 l 0 20 z"></path></g></g><g><path d="M 91.17500000000001 -45 l -10 10 l 0 60 l 40 0 l 10 -10 l -40 0 l 0 -60 z"></path><path d="M 98.67500000000001 -62.5 l 7.5 7.5 l 7.5 -7.5 l -7.5 -7.5 l -7.5 7.5 z"></path><path d="M 96.17500000000001 45 l 0 25 l 20 -20 l -1.2 -1.2 l -8.8 8.8 l 0 -22.6 l -10 10 z"></path></g><g><path d="M 169.125 -60 l -7.5 7.5 l 21.65 27.5 l 7.45 -7.5 l -21.6 -27.5 z"></path><path d="M 151.175 -15 l -10 10 l 50 0 l 10 -10 l -50 0 z"></path></g></g></g>
</svg>
