<svg xmlns="http://www.w3.org/2000/svg" viewBox="0 0 54.5 172.294907" width="54.5" height="172.294907" fill="currentColor" stroke="none">
<g transform="translate(27.25 86.147453)"><g><g><path d="M -17.25 11.474999999999994 l -10 10 l 29.85 29.85 l 7.5 -7.5 l -22.35 -22.35 l 20 0 l 15 -15 l -25.6 -25.6 l -7.5 7.5 l 23.1 23.1 l -30 0 z"></path><g><path d="M -1.9499999999999993 -17.525000000000006 l 11.2 -11.3 l -22.4 0 l -10 10.1 l 19.9 0 l -7.1 7.1 q 10.446 1.157 8.4 -5.9 z"></path></g><g><path d="M 5.100000000000001 48.824999999999996 l 5 -5 l 10 10 l 7.15 -7.15 l -11.3 -11.2 l -7 7.1 l -1 1 q -3.183 -1.742 -3.85 0 q -0.916 1.293 0 6.25 z"></path></g><path d="M -7.5 -46.325 l 7.5 7.5 l 7.5 -7.5 l -7.5 -7.5 l -7.5 7.5 z"></path></g></g></g>
</svg>
