<svg xmlns="http://www.w3.org/2000/svg" viewBox="0 0 98.15 172.294907" width="98.15" height="172.294907" fill="currentColor" stroke="none">
<g transform="translate(49.075 86.147453)"><g><g><path d="M -39.175 -44.95 l -9.9 9.95 l 47.35 58.35 l 0.05 0 l 1.4 1.75 l 7.5 -7.5 l -42.7 -52.55 l 52.05 0 l 10 -10 l -65.75 0 z"></path><g><path d="M 49.075 -37.45 l -1.2 -1.2 l -7.5 7.5 l -13.8 -13.8 q -8.65 2.75 -10 10 l 5 0 l 12.5 12.5 l 15 -15 z"></path></g><g><path d="M 6.024999999999999 36.25000000000001 l -7.5 7.5 l 1.2 1.2 l 16.3 -16.3 l 0 -22.35 l -10 10.1 q -4.2 -0.65 -6.3 2.7 q -0.8 1 0 6 l 6.3 -6.3 l 0 17.45 z"></path></g></g></g></g>
</svg>
