<svg xmlns="http://www.w3.org/2000/svg" viewBox="0 0 430.9 120.85" width="430.9" height="120.85" fill="currentColor" stroke="none">
<g transform="translate(215.45 60.425)"><g><g><path d="M -205.45 -34.574999999999996 l -10 10 l 0 60 l 10 -10 l 0 -60 z"></path><g><path d="M -205.39999999999998 -32.275 l 15 0 l 10 -10 l -17.4 0 l -17.65 17.7 l 0 7.3 q 5.4 -4.35 10 -2.75 l 0 -12.25 z"></path></g><g><path d="M -215.45 20.425000000000004 l 0 15 l 15 0 l 10 -10 l -15 0 l 0 -10 q -3.874 7.753 -10 5 z"></path></g></g><g><path d="M -160.39999999999998 -34.574999999999996 l -10 10 l 0 35 l 26.3 0 l 8.7 -8.75 l 0 33.75 l 10 -10 l 0 -36.15 l -11.15 11.15 l -23.85 0 l 0 -35 z"></path><g><path d="M -170.39999999999998 -24.574999999999996 l 0 5 q 6.25 -9 10 -5 l 0 -7.6 l 11.8 11.7 l 7 -7 l -12.95 -12.95 l -15.85 15.85 z"></path></g><g><path d="M -125.75 23.325000000000003 q -0.375 0.363 -1.15 1.15 q -6.261 1.099 -8.5 -3.8 l 0 14.75 l 10 -10 l 10 10 l 7.15 -7.15 l -11.3 -11.2 l -5.85 5.9 q -0.04 0.029 -0.35 0.35 z"></path></g><path d="M -129.325 -50.425 l 10 -10 l -30 0 l -10 10 l 30 0 z"></path></g><g><path d="M -78.25 -10.724999999999996 l -10 10 l 0 -33.85 l -10 10 l 0 36.2 l 10 -9.95 l 0 33.75 l 10 -10 l 0 -36.15 z"></path><g><path d="M -88.25 55.425000000000004 l 10 -10 l 0 -20 q -7.3 -5 -10 10 l 0 20 z"></path></g></g><g><path d="M -40.25 8.525000000000004 l 7.45 -7.5 27.05 34.4 7.5 -7.5 -27.8 -36 -7.75 7.8 -26.95 -34.3 -7.5 7.5 28 35.6 z"></path></g><g><path d="M 35.44999999999996 -34.574999999999996 l -10 10 l 17.5 17.5 l -15 0 l -16.2 16.15 l 26.35 26.35 l 7.5 -7.5 l -25 -25 l 32.35 0 l 7.5 -7.5 l -20 -20 l 35 0 l 10 -10 l -50 0 z"></path><g><path d="M 35.49999999999997 25.425000000000004 q -1.65 2.7 2.6 10 l 15 0 l 17.5 -17.5 l -1.2 -1.2 l -8.7 8.7 l -17.6 0 q -7 -2.95 -7.6 0 z"></path></g></g><g><path d="M 105.44999999999999 -34.574999999999996 l -10 10 l 0 60 l 40 0 l 10 -10 l -40 0 l 0 -60 z"></path><path d="M 112.94999999999999 -52.074999999999996 l 7.5 7.5 l 7.5 -7.5 l -7.5 -7.5 l -7.5 7.5 z"></path><path d="M 112.94999999999999 52.925000000000004 l 7.5 7.5 l 7.5 -7.5 l -7.5 -7.5 l -7.5 7.5 z"></path></g><g><path d="M 183.39999999999998 -49.574999999999996 l -7.5 7.5 l 21.65 27.5 l 7.45 -7.5 l -21.6 -27.5 z"></path><path d="M 165.45 -4.574999999999996 l -10 10 l 50 0 l 10 -10 l -50 0 z"></path></g></g></g>
</svg>
