<svg xmlns="http://www.w3.org/2000/svg" viewBox="0 0 330.45 162.55" width="330.45" height="162.55" fill="currentColor" stroke="none">
<g transform="translate(165.225 81.275)"><g><g><path d="M -137.225 1.8499999999999996 l 7.45 -7.5 27.05 34.4 7.5 -7.5 -27.8 -36 -7.75 7.8 -26.95 -34.3 -7.5 7.5 28 35.6 z"></path><path d="M -105.32499999999999 18.75 q -1.65 2.7 2.6 10 l 12.6 0 l -7.5 7.5 l 1.2 1.2 l 18.7 -18.7 l -20 0 q -7 -2.95 -7.6 0 z"></path></g><g><path d="M -57.724999999999994 -41.175 l -10 10 l 0 40 l 9.55 -9.55 l 20.65 29.4 l 7.5 -7.5 l -21.6 -30.85 l -6.1 6.1 l 0 -37.6 z"></path></g><g><path d="M 2.5249999999999773 28.75 l 50 0 l 9.4 -9.4 l -23.2 -33.05 l -6.2 6.25 l 0 -33.8 l -10 10 l 0 36.15 l 1.1 -1.1 q 2.967 -2.977 5.95 -5.95 l 1.95 -2 l 0.65 -0.65 l 16.5 23.5 l -36.2 0 l -10 10 z"></path><g><path d="M -20.025000000000006 21.250000000000007 l 1.2 1.2 l 7.5 -7.5 l 13.8 13.8 q 8.65 -2.75 10 -10 l -5 0 l -12.5 -12.5 l -15 15 z"></path></g><path d="M 30.94999999999999 -51.24999999999999 l 10 -10 l -30 0 l -10 10 l 30 0 z"></path><path d="M 13.449999999999989 46.25000000000001 l 7.5 7.5 l 7.5 -7.5 l -7.5 -7.5 l -7.5 7.5 z"></path></g><g><path d="M 155.32500000000002 28.775 l 9.9 -9.95 l -47.35 -58.35 l -0.05 0 l -1.4 -1.75 l -7.5 7.5 l 42.7 52.55 l -52.05 0 l -10 10 l 65.75 0 z"></path><g><path d="M 108.92499999999998 -33.775000000000006 q 6.8 -0.5 7.5 -7.5 l -15 -15 l -15 15 l 1.2 1.2 l 7.5 -7.5 l 13.8 13.8 z"></path></g><g><path d="M 84.42500000000001 36.275000000000006 l 7.5 -7.5 l 11.1 0 q -3.05 -5.25 1.5 -10 l -5 0 l -8.8 8.85 q -0.445 -14.232 -18.8 -18.85 q 12.993 10.704 12.45 27.5 z"></path></g><path d="M 111.07500000000002 -73.775 l 7.5 7.5 l 7.5 -7.5 l -7.5 -7.5 l -7.5 7.5 z"></path><path d="M 108.57500000000002 56.275000000000006 l 0 25 l 20 -20 l -1.2 -1.2 l -8.8 8.8 l 0 -22.6 l -10 10 z"></path></g></g></g>
</svg>
