<svg xmlns="http://www.w3.org/2000/svg" viewBox="0 0 92.4 172.294907" width="92.4" height="172.294907" fill="currentColor" stroke="none">
<g transform="translate(46.2 86.147453)"><g><g><path d="M 8.799999999999997 -39.97499999999999 l -10 10 l 0 20 l -35 0 l -10 10 l 29.95 29.95 l 7.5 -7.5 l -22.45 -22.45 l 30 0 l 10 -10 l 0 -30 z"></path><path d="M 21.200000000000003 -49.974999999999994 l -22.4 0 l -10 10.1 l 19.9 0 l 0.1 -0.1 l 0 0.1 l -0.05 0 l -9.95 9.9 l 0 5 q 5 -5.774 10 -5 l 0 -7.55 l 12.4 -12.4 z"></path><path d="M -18.85 19.974999999999994 q -1.655 2.716 2.6 10 l 15 0 l 10 -10 l -20 0 q -7.015 -2.931 -7.6 0 z"></path><path d="M -2.5 49.974999999999994 l 10 -10 l -30 0 l -10 10 l 30 0 z"></path><path d="M 31.200000000000003 -4.999999999999986 l 7.5 7.5 l 7.5 -7.5 l -7.5 -7.5 l -7.5 7.5 z"></path></g></g></g>
</svg>
