<svg xmlns="http://www.w3.org/2000/svg" viewBox="0 0 55.2 172.294907" width="55.2" height="172.294907" fill="currentColor" stroke="none">
<g transform="translate(27.6 86.147453)"><g><g><path d="M -17.6 -21.999999999999986 l -10 10 l 0 40 l 9.55 -9.55 l 20.65 29.4 l 7.5 -7.5 l -21.6 -30.85 l -6.1 6.1 l 0 -37.6 z"></path><g><path d="M -27.6 -11.999999999999993 l 0 5 q 6.25 -9 10 -5 l 0 -7.6 l 11.8 11.7 l 7 -7 l -12.95 -12.95 l -15.85 15.85 z"></path></g><g><path d="M 0 37.85 q -1.655 2.716 2.6 10 l 15 0 l 10 -10 l -20 0 q -7.015 -2.931 -7.6 0 z"></path></g><path d="M 10 -37.849999999999994 l 10 -10 l -30 0 l -10 10 l 30 0 z"></path></g></g></g>
</svg>
