<svg xmlns="http://www.w3.org/2000/svg" viewBox="0 0 209.05 110.8" width="209.05" height="110.8" fill="currentColor" stroke="none">
<g transform="translate(104.525 55.4)"><g><g><path d="M -94.52499999999999 -29.625 l -10 10 l 0 60 l 10 -10 l 0 -60 z"></path><g><path d="M -94.475 -27.325000000000003 l 15 0 l 10 -10 l -17.4 0 l -17.65 17.7 l 0 7.3 q 5.4 -4.35 10 -2.75 l 0 -12.25 z"></path></g><g><path d="M -104.52499999999999 25.375 l 0 15 l 10 -10 l 0 20 l 10 -9.9 l 0 -22.4 l -10 9.95 l 0 -5.15 q -5 6.1 -10 2.5 z"></path></g></g><g><path d="M -49.474999999999994 -29.549999999999997 l -10 10 l 0 40 l 9.55 -9.55 l 20.65 29.4 l 7.5 -7.5 l -21.6 -30.85 l -6.1 6.1 l 0 -37.6 z"></path><g><path d="M -59.474999999999994 -19.550000000000004 l 0 5 q 6.25 -9 10 -5 l 0 -7.6 l 11.8 11.7 l 7 -7 l -12.95 -12.95 l -15.85 15.85 z"></path></g><g><path d="M -31.874999999999986 30.29999999999999 q -1.655 2.716 2.6 10 l 15 0 l 10 -10 l -20 0 q -7.015 -2.931 -7.6 0 z"></path></g><path d="M -21.874999999999986 -45.400000000000006 l 10 -10 l -30 0 l -10 10 l 30 0 z"></path></g><g><path d="M 15.725000000000009 -29.625 l -10 10 l 0 60 l 10 -10 l 0 -60 z"></path></g><g><path d="M 35.624999999999986 -29.65 l -9.9 9.95 l 47.35 58.35 l 0.05 0 l 1.4 1.75 l 7.5 -7.5 l -42.7 -52.55 l 52.05 0 l 10 -10 l -65.75 0 z"></path><g><path d="M 82.02499999999999 32.90000000000001 q -6.8 0.5 -7.5 7.5 l 15 15 l 15 -15 l -1.2 -1.2 l -7.5 7.5 l -13.8 -13.8 z"></path></g><path d="M 75.12499999999999 -39.65 l 10 -10 l -30 0 l -10 10 l 30 0 z"></path></g></g></g>
</svg>
