<svg xmlns="http://www.w3.org/2000/svg" viewBox="0 0 65.85 172.294907" width="65.85" height="172.294907" fill="currentColor" stroke="none">
<g transform="translate(32.925 86.147453)"><g><g><path d="M 17.075000000000003 -23.799999999999997 l 10 -10 l -50 0 l -10 10 l 0 35 l 10 -10 l 15 0 l 0 35 l 10 -10 l 0 -35 l -17.35 0 l -7.65 7.6 l 0 -22.6 l 40 0 z"></path><g><path d="M 17.075000000000003 -33.8 q 2.55 4.45 -5 10 l 5 0 l 15.85 -15.9 l -13 -12.9 l -7 7 l 11.8 11.8 l -7.65 0 z"></path></g><g><path d="M -4.224999999999998 52.6 l 16.3 -16.3 l 0 -22.45 l -10 10 l 0 -5.15 q -5 6.1 -10 2.5 l 0 15 l 10 -10 l 0 17.7 l -7.5 7.5 l 1.2 1.2 z"></path></g></g></g></g>
</svg>
