<svg xmlns="http://www.w3.org/2000/svg" viewBox="0 0 197.05 87.5" width="197.05" height="87.5" fill="currentColor" stroke="none">
<g transform="translate(98.525 43.75)"><g><g><path d="M -73.875 -41.25 l -7.5 7.5 57.5 62.5 7.5 -7.5 -57.5 -62.5 z"></path><path d="M -76.375 -38.75 l -5 5 l -10 -10 l -7.15 7.15 l 11.3 11.2 l 7 -7.1 l 1 -1 q 3.183 1.742 3.85 0 q 0.916 -1.293 0 -6.25 z"></path></g><g><path d="M 3.625000000000014 -41.25 l -10 10 l 0 60 l 10 -10 l 0 -50 l 30 0 l 10 -10 l -40 0 z"></path><g><path d="M 21.22500000000001 -21.25 l 22.4 0 l 9.9 -10 l -19.9 0 l 10 -10 l -12.65 0 q 5.504 3.447 -5.3 10 l 5.5 0 l -9.95 10 z"></path></g><g><path d="M -6.374999999999986 28.75 l 15 0 l 0 15 l 10 -10 l 0 -15 l -15 0 l 0 -10 q -3.85 7.75 -10 5 l 0 15 z"></path></g></g><g><path d="M 83.52500000000002 -17.4 l -10 10 l 0 -33.85 l -10 10 l 0 36.2 l 10 -9.95 l 0 33.75 l 10 -10 l 0 -36.15 z"></path><g><path d="M 73.52500000000002 13.75 l 0 15 l 12.6 0 l -7.5 7.5 l 1.2 1.2 l 18.7 -18.7 l -15 0 l 0 -10 q -3.85 7.75 -10 5 z"></path></g></g></g></g>
</svg>
