<svg xmlns="http://www.w3.org/2000/svg" viewBox="0 0 305.3 120.025" width="305.3" height="120.025" fill="currentColor" stroke="none">
<g transform="translate(152.65 60.0125)"><g><g><path d="M -134.45000000000002 -40.0125 l -10 10 l 0 60 l 10 -10 l 0 -60 z"></path><g><path d="M -132.65 41.787499999999994 l -11.8 -11.8 l 10 -10 l 0 -5 q -5.188 7.964 -10 5 l 0 7.7 l -8.2 8.2 l 13 12.9 l 7 -7 z"></path></g></g><g><path d="M -63.25 -40.0125 l -50 0 l -9.4 9.4 l 23.2 33.05 l 6.2 -6.25 l 0 33.8 l 10 -10 l 0 -36.15 l -1.1 1.1 q -2.967 2.977 -5.95 5.95 l -1.95 2 l -0.65 0.65 l -16.5 -23.5 l 36.2 0 l 10 -10 z"></path><path d="M -82.925 -50.0125 l 10 -10 l -30 0 l -10 10 l 30 0 z"></path></g><g><path d="M -25.200000000000003 3.087499999999997 l 7.45 -7.5 27.05 34.4 7.5 -7.5 -27.8 -36 -7.75 7.8 -26.95 -34.3 -7.5 7.5 28 35.6 z"></path></g><g><path d="M 43.74999999999997 -40.0375 l -7.5 7.5 l 22.55 22.55 l -14.4 0 l -17.6 17.65 l 0 22.35 l 40 0 l 10 -10 l -40 0 l 0 -20 l 30 0 l 8.5 -8.5 l -31.55 -31.55 z"></path><g><path d="M 66.79999999999998 20.01250000000001 q 2.55 4.45 -5 10 l 5 0 l 15.85 -15.9 l -13 -12.9 l -7 7 l 11.8 11.8 l -7.65 0 z"></path></g><path d="M 47.12499999999997 50.01250000000001 l 8.8 -8.8 l -1.2 -1.2 l -20 20 l 30 0 l 10 -10 l -27.6 0 z"></path></g><g><path d="M 112.65 -30.012500000000003 q -0.1 -10.25 13.15 -13.1 l -1.2 -1.1 q -22.3 -0.55 -21.95 24.2 l 37.6 0 l -7.5 7.5 l 1.2 1.2 l 18.7 -18.7 l -40 0 z"></path><path d="M 102.65 -10.012500000000003 l -10 10 l 50 0 l 10 -10 l -50 0 z"></path></g></g></g>
</svg>
