<svg xmlns="http://www.w3.org/2000/svg" viewBox="0 0 208.75 98.7" width="208.75" height="98.7" fill="currentColor" stroke="none">
<g transform="translate(104.375 49.35)"><g><g><path d="M -96.87500000000001 -40.65 l -7.5 7.5 57.5 62.5 7.5 -7.5 -57.5 -62.5 z"></path><path d="M -69.37500000000001 49.35 l 10 -10 l -30 0 l -10 10 l 30 0 z"></path></g><g><path d="M -14.325000000000017 -30.65 l 34.95 0 l 10 -10 l -50 0 l -10 10 l 25 25 l 0 35 l 10 -10 l 0 -30.05 l -19.95 -19.95 z"></path><g><path d="M -0.6750000000000114 45.75 l 16.3 -16.3 l 0 -22.45 l -10 10 l 0 -5.15 q -5 6.1 -10 2.5 l 0 15 l 10 -10 l 0 17.7 l -7.5 7.5 l 1.2 1.2 z"></path></g></g><g><path d="M 79.675 -23.2 l -1.25 -1.15 q -5.45 4.65 -10.85 3.05 q -5.65 -1.7 -5.7 -9.35 l 25 0 l 17.5 -17.5 l -1.2 -1.2 l -8.7 8.7 l -37.6 0 l -10 10 q 14.9 23.2 32.8 7.45 z"></path><path d="M 50.624999999999986 -10.649999999999999 l -10 10 l 50 0 l 10 -10 l -50 0 z"></path></g></g></g>
</svg>
