<svg xmlns="http://www.w3.org/2000/svg" viewBox="0 0 69.3 172.294907" width="69.3" height="172.294907" fill="currentColor" stroke="none">
<g transform="translate(34.65 86.147453)"><g><g><path d="M 2.1499999999999915 15 l 7.5 -7.5 -32.5 -32.5 -7.5 7.5 32.5 32.5 m -17.5 -10 l -7.5 7.5 32.5 32.5 7.5 -7.5 -32.5 -32.5 z"></path><path d="M -34.650000000000006 -36.8 l 11.8 11.8 l -5 5 q 7.681 1.687 7.1 -0.5 l -0.95 -3.35 l 7.05 -7.05 l -13 -12.9 z"></path><path d="M 7.049999999999997 35 q -1.655 2.716 2.6 10 l 15 0 l 10 -10 l -20 0 q -7.015 -2.931 -7.6 0 z"></path><path d="M 3.3999999999999915 -35 l 10 -10 l -30 0 l -10 10 l 30 0 z"></path></g></g></g>
</svg>
