<svg xmlns="http://www.w3.org/2000/svg" viewBox="0 0 475.2 120" width="475.2" height="120" fill="currentColor" stroke="none">
<g transform="translate(237.6 60)"><g><g><path d="M -221.3 -40 l -7.5 7.5 57.5 62.5 7.5 -7.5 -57.5 -62.5 z"></path><path d="M -227.60000000000002 -31.3 q 4.2 0.65 6.3 -2.7 q 0.8 -1 0 -6 l -6.3 6.3 l 0 -19.95 l -10 10.1 l 0 22.35 l 10 -10.1 z"></path><path d="M -166.85000000000002 23.6 q -1.825 3.28 -4.45 6.4 l -7.5 7.5 l -1.2 -1.2 l 7.5 -7.5 q -1.688 -4.106 -0.35 -4.55 q 1.45 -0.6 6 -0.65 z"></path><path d="M -168.70000000000002 -30 l -8.8 8.8 l 1.2 1.2 l 20 -20 l -30 0 l -10 10 l 27.6 0 z"></path></g><g><path d="M -131.25000000000003 -30 l 34.95 0 l 10 -10 l -50 0 l -10 10 l 25 25 l 0 35 l 10 -10 l 0 -30.05 l -19.95 -19.95 z"></path></g><g><path d="M -28.69999999999999 30 l 10 -10 l 0 -36.3 l -10 10.05 l 0 -33.75 l -10 10 l 0 36.15 l 10 -10 l 0 23.85 l -30 0 l -10 10 l 40 0 z"></path><g><path d="M -28.69999999999999 -25 l 0 -15 l -12.6 0 l 7.5 -7.5 l -1.2 -1.2 l -18.7 18.7 l 15 0 l 0 10 q 3.85 -7.75 10 -5 z"></path></g><g><path d="M -60 1.25 l -16.3 16.3 l 0 22.45 l 10 -10 l 12.6 0 q -3.5 -4 0 -10 l -5 0 l -7.6 7.65 l 0 -17.7 l 7.5 -7.5 l -1.2 -1.2 z"></path></g><path d="M -37.5 60 l 10 -10 l -30 0 l -10 10 l 30 0 z"></path></g><g><path d="M 1.3000000000000114 -40 l -10 10 l 0 60 l 10 -10 l 0 -60 z"></path><g><path d="M -8.699999999999989 15 l 0 15 l 15 0 l 10 -10 l -15 0 l 0 -10 q -3.874 7.753 -10 5 z"></path></g></g><g><path d="M 33.80000000000001 -40 l -7.5 7.5 l 31.25 31.25 l -31.25 31.25 l 40 0 l 10 -10 l -37.6 0 l 27.5 -27.6 l -32.4 -32.4 z"></path><path d="M 61.30000000000001 -50 l 10 -10 l -30 0 l -10 10 l 30 0 z"></path></g><g><path d="M 102.60000000000002 -40 l -7.5 7.5 57.5 62.5 7.5 -7.5 -57.5 -62.5 z"></path><path d="M 96.30000000000001 -31.3 q 4.2 0.65 6.3 -2.7 q 0.8 -1 0 -6 l -6.3 6.3 l 0 -19.95 l -10 10.1 l 0 22.35 l 10 -10.1 z"></path><path d="M 150 20 q -1.655 2.716 2.6 10 l 15 0 l 10 -10 l -20 0 q -7.015 -2.931 -7.6 0 z"></path><path d="M 105.10000000000002 12.5 l -10 10 l 0 25 l 10 -10 l 0 -25 z"></path><path d="M 155.20000000000005 -30 l -8.8 8.8 l 1.2 1.2 l 20 -20 l -30 0 l -10 10 l 27.6 0 z"></path></g><g><path d="M 197.60000000000002 -40 l -10 10 l 0 60 l 10 -10 l 0 -50 l 30 0 l 10 -10 l -40 0 z"></path><g><path d="M 197.60000000000002 8.8 q -5 12.14 -10 11.2 l 0 10 l 17.5 -17.5 l -1.2 -1.2 l -6.3 6.3 l 0 -8.8 z"></path></g><path d="M 222.60000000000002 50 l 10 -10 l -30 0 l -10 10 l 30 0 z"></path></g></g></g>
</svg>
