<svg xmlns="http://www.w3.org/2000/svg" viewBox="0 0 61.3 172.294907" width="61.3" height="172.294907" fill="currentColor" stroke="none">
<g transform="translate(30.65 86.147453)"><g><g><path d="M -5.649999999999999 -52.425 l -10 10 l 0 30 l 30 30 l 7.5 -7.5 l -27.5 -27.5 l 0 -35 z"></path><g><path d="M -5.649999999999999 -52.425 l -15 0 l 0 -15 l -10 10 l 0 15 l 15 0 l 0 10 q 3.85 -7.75 10 -5 l 0 -15 z"></path></g><g><path d="M 20.65 28.725 l -7.5 7.5 l 1.2 1.2 l 16.3 -16.3 l 0 -22.35 l -10 10.1 q -4.2 -0.65 -6.3 2.7 q -0.8 1 0 6 l 6.3 -6.3 l 0 17.45 z"></path></g><path d="M -7.600000000000001 57.425 l 8.8 -8.8 l -1.2 -1.2 l -20 20 l 30 0 l 10 -10 l -27.6 0 z"></path></g></g></g>
</svg>
