<svg xmlns="http://www.w3.org/2000/svg" viewBox="0 0 457.3 118.85" width="457.3" height="118.85" fill="currentColor" stroke="none">
<g transform="translate(228.65 59.425)"><g><g><path d="M -199.85000000000002 -30.574999999999996 l -10 10 l 0 60 l 10 -10 l 0 -60 z"></path><g><path d="M -199.80000000000004 -28.275 l 15 0 l 10 -10 l -17.4 0 l -17.65 17.7 l 0 7.3 q 5.4 -4.35 10 -2.75 l 0 -12.25 z"></path></g><g><path d="M -199.85000000000002 29.425000000000004 l 0 -5 q -6.25 9 -10 5 l 0 7.6 l -11.8 -11.7 l -7 7 l 12.95 12.95 l 15.85 -15.85 z"></path></g></g><g><path d="M -157.30000000000004 -30.574999999999996 l -7.5 7.5 l 31.25 31.25 l -31.25 31.25 l 40 0 l 10 -10 l -37.6 0 l 27.5 -27.6 l -32.4 -32.4 z"></path><g><path d="M -156.15000000000003 -29.424999999999997 l 15.05 0 l 10 -10 l -17.45 0 l -8.75 8.85 q -1.75 3.2 -4.85 7.2 q 5.7 0.35 6 -6.05 z"></path></g><g><path d="M -134.70000000000005 46.925000000000004 l 1.2 1.2 l 18.7 -18.7 l -10 0 q 0.85 5.4 -10 10 l 7.6 0 l -7.5 7.5 z"></path></g><path d="M -129.80000000000004 -49.425 l 10 -10 l -30 0 l -10 10 l 30 0 z"></path></g><g><path d="M -76 -6.724999999999996 l -10 10 l 0 -33.85 l -10 10 l 0 36.2 l 10 -9.95 l 0 33.75 l 10 -10 l 0 -36.15 z"></path><g><path d="M -96.00000000000003 -9.374999999999996 q 5 -12.14 10 -11.2 l 0 -10 l -17.5 17.5 l 1.2 1.2 l 6.3 -6.3 l 0 8.8 z"></path></g><g><path d="M -76 29.425000000000004 l 0 -5 q -6.25 9 -10 5 l 0 7.6 l -11.8 -11.7 l -7 7 l 12.95 12.95 l 15.85 -15.85 z"></path></g></g><g><path d="M -38.5 -6.724999999999996 l -10 10 l 0 -33.85 l -10 10 l 0 36.2 l 10 -9.95 l 0 33.75 l 10 -10 l 0 -36.15 z"></path><g><path d="M -58.5 -9.374999999999996 q 5 -12.14 10 -11.2 l 0 -10 l -17.5 17.5 l 1.2 1.2 l 6.3 -6.3 l 0 8.8 z"></path></g><g><path d="M -38.849999999999994 27.325000000000003 q -0.375 0.363 -1.15 1.15 q -6.261 1.099 -8.5 -3.8 l 0 14.75 l 10 -10 l 10 10 l 7.15 -7.15 l -11.3 -11.2 l -5.85 5.9 q -0.04 0.029 -0.35 0.35 z"></path></g></g><g><path d="M 16.650000000000006 12.525000000000004 l 7.45 -7.5 27.05 34.4 7.5 -7.5 -27.8 -36 -7.75 7.8 -26.95 -34.3 -7.5 7.5 28 35.6 z"></path><path d="M 48.55000000000001 29.425000000000004 q -1.655 2.716 2.6 10 l 15 0 l 10 -10 l -20 0 q -7.015 -2.931 -7.6 0 z"></path><path d="M -8.849999999999994 31.925000000000004 l 0 25 l 20 -20 l -1.2 -1.2 l -8.8 8.8 l 0 -22.6 l -10 10 z"></path></g><g><path d="M 136.15000000000003 -20.574999999999996 l 10 -10 l -50 0 l -10 10 l 0 30 l 30 0 l 0 30 l 10 -10 l 0 -30 l -30 0 l 0 -20 l 40 0 z"></path><path d="M 108.65000000000003 -48.074999999999996 l 7.5 7.5 l 7.5 -7.5 l -7.5 -7.5 l -7.5 7.5 z"></path><path d="M 126.15000000000003 59.425000000000004 l 10 -10 l -30 0 l -10 10 l 30 0 z"></path></g><g><path d="M 218.65000000000003 39.425000000000004 l 10 -10 l 0 -60 l -10 10 l 0 50 l -30 0 l -10 10 l 40 0 z"></path><g><path d="M 228.65000000000003 -50.574999999999996 l -10 10 l 0 20 q 7.3 5 10 -10 l 0 -20 z"></path></g><g><path d="M 156.15000000000003 31.925000000000004 l 1.2 1.2 l 7.5 -7.5 l 13.8 13.8 q 8.65 -2.75 10 -10 l -5 0 l -12.5 -12.5 l -15 15 z"></path></g><path d="M 202.40000000000003 59.425000000000004 l 10 -10 l -30 0 l -10 10 l 30 0 z"></path></g></g></g>
</svg>
