<svg xmlns="http://www.w3.org/2000/svg" viewBox="0 0 53.55 172.294907" width="53.55" height="172.294907" fill="currentColor" stroke="none">
<g transform="translate(26.775 86.147453)"><g><g><path d="M 16.775 14.625 l 10 -10 l -29.85 -29.85 l -7.5 7.5 l 22.35 22.35 l -20 0 l -15 15 l 25.6 25.6 l 7.5 -7.5 l -23.1 -23.1 l 30 0 z"></path><g><path d="M -26.775 -36.575 q -0.35 21.9 9.85 27.5 l 6.3 -6.35 l 2 -2 q 8.054 2.82 4.35 -6.65 l -6.3 6.35 q -10.8 -2.6 -16.2 -18.85 z"></path></g><g><path d="M 26.074999999999996 56.575 q 0.35 -21.9 -9.85 -27.5 l -6.3 6.35 l -2 2 q -8.054 -2.82 -4.35 6.65 l 6.3 -6.35 q 10.8 2.6 16.2 18.85 z"></path></g><path d="M 10 -46.575 l 10 -10 l -30 0 l -10 10 l 30 0 z"></path></g></g></g>
</svg>
