<svg xmlns="http://www.w3.org/2000/svg" viewBox="0 0 568.8 120" width="568.8" height="120" fill="currentColor" stroke="none">
<g transform="translate(284.4 60)"><g><g><path d="M -266.20000000000005 -35 l -10 10 l 0 60 l 10 -10 l 0 -60 z"></path><g><path d="M -264.40000000000003 46.8 l -11.8 -11.8 l 10 -10 l 0 -5 q -5.188 7.964 -10 5 l 0 7.7 l -8.2 8.2 l 13 12.9 l 7 -7 z"></path></g></g><g><path d="M -239.35000000000002 -25 l 34.95 0 l 10 -10 l -50 0 l -10 10 l 25 25 l 0 35 l 10 -10 l 0 -30.05 l -19.95 -19.95 z"></path><g><path d="M -229.40000000000003 55 l 10 -10 l 0 -20 q -7.3 -5 -10 10 l 0 20 z"></path></g><path d="M -214.40000000000003 -45 l 10 -10 l -30 0 l -10 10 l 30 0 z"></path></g><g><path d="M -156.40000000000003 8.1 l 7.45 -7.5 27.05 34.4 7.5 -7.5 -27.8 -36 -7.75 7.8 -26.95 -34.3 -7.5 7.5 28 35.6 z"></path><path d="M -171.90000000000003 17.5 l -10 10 l 0 25 l 10 -10 l 0 -25 z"></path><path d="M -164.40000000000003 52.5 l 7.5 7.5 l 7.5 -7.5 l -7.5 -7.5 l -7.5 7.5 z"></path></g><g><path d="M -54.400000000000034 -25 l 10 -10 l -50 0 l -10 10 l 0 35 l 10 -10 l 15 0 l 0 35 l 10 -10 l 0 -35 l -17.35 0 l -7.65 7.6 l 0 -22.6 l 40 0 z"></path></g><g><path d="M -18.100000000000023 -35 l -7.5 7.5 57.5 62.5 7.5 -7.5 -57.5 -62.5 z"></path><path d="M -24.400000000000034 -26.3 q 4.2 0.65 6.3 -2.7 q 0.8 -1 0 -6 l -6.3 6.3 l 0 -19.95 l -10 10.1 l 0 22.35 l 10 -10.1 z"></path></g><g><path d="M 59.39999999999998 25 l -10 10 l 50 0 l 10 -10 l 0 -35 l -10 10 l -15 0 l 0 -35 l -10 10 l 0 35 l 17.35 0 l 7.65 -7.6 l 0 22.6 l -40 0 z"></path><path d="M 71.89999999999998 -52.5 l 7.5 7.5 l 7.5 -7.5 l -7.5 -7.5 l -7.5 7.5 z"></path></g><g><path d="M 129.39999999999998 -35 l -10 10 l 0 60 l 10 -10 l 0 -60 z"></path><g><path d="M 119.39999999999998 20 l 0 15 l 15 0 l 10 -10 l -15 0 l 0 -10 q -3.874 7.753 -10 5 z"></path></g></g><g><path d="M 182.39999999999998 8.1 l 7.45 -7.5 27.05 34.4 7.5 -7.5 -27.8 -36 -7.75 7.8 -26.95 -34.3 -7.5 7.5 28 35.6 z"></path><path d="M 156.89999999999998 15 l 20 20 l 7.5 -7.5 l -20 -20 l -7.5 7.5 z"></path><path d="M 174.39999999999998 52.5 l 7.5 7.5 l 7.5 -7.5 l -7.5 -7.5 l -7.5 7.5 z"></path></g><g><path d="M 244.40000000000003 -35 l -10 10 l 0 60 l 10 -10 l 0 -50 l 30 0 l 10 -10 l -40 0 z"></path></g></g></g>
</svg>
