<svg xmlns="http://www.w3.org/2000/svg" viewBox="0 0 368.1 118.725" width="368.1" height="118.725" fill="currentColor" stroke="none">
<g transform="translate(184.05 59.3625)"><g><g><path d="M -161.64999999999998 -30.637499999999996 l -10 10 l 0 60 l 10 -10 l 0 -60 z"></path><g><path d="M -184.04999999999998 49.362500000000004 l 22.4 0 l 10 -10.1 l -19.9 0 l -0.1 0.1 l 0 -0.1 l 0.05 0 l 9.95 -9.9 l 0 -5 q -5 5.774 -10 5 l 0 7.55 l -12.4 12.4 z"></path></g></g><g><path d="M -126.6 -20.637499999999996 l 34.95 0 l 10 -10 l -50 0 l -10 10 l 25 25 l 0 35 l 10 -10 l 0 -30.05 l -19.95 -19.95 z"></path><g><path d="M -106.64999999999998 46.962500000000006 l 0 -17.6 q -7.3 -5 -10 10 l 0 20 l 17.5 -17.5 l -1.2 -1.2 l -6.3 6.3 z"></path></g><path d="M -101.64999999999998 -40.637499999999996 l 10 -10 l -30 0 l -10 10 l 30 0 z"></path></g><g><path d="M -53.44999999999999 -30.637499999999996 l -10 10 l 0 60 l 10 -10 l 0 -60 z"></path><g><path d="M -51.64999999999998 51.1625 l -11.8 -11.8 l 10 -10 l 0 -5 q -5.188 7.964 -10 5 l 0 7.7 l -8.2 8.2 l 13 12.9 l 7 -7 z"></path></g></g><g><path d="M -31.649999999999977 -30.637499999999996 l -10 10 l 0 60 l 10 -10 l 0 -50 l 30 0 l 10 -10 l -40 0 z"></path><path d="M -6.649999999999977 -40.637499999999996 l 10 -10 l -30 0 l -10 10 l 30 0 z"></path></g><g><path d="M 36.55000000000001 -30.637499999999996 l -10 10 l 0 60 l 10 -10 l 0 -60 z"></path><g><path d="M 38.35000000000002 51.1625 l -11.8 -11.8 l 10 -10 l 0 -5 q -5.188 7.964 -10 5 l 0 7.7 l -8.2 8.2 l 13 12.9 l 7 -7 z"></path></g></g><g><path d="M 58.25 -30.662499999999994 l -9.9 9.95 l 47.35 58.35 l 0.05 0 l 1.4 1.75 l 7.5 -7.5 l -42.7 -52.55 l 52.05 0 l 10 -10 l -65.75 0 z"></path><g><path d="M 103.99999999999997 -20.662499999999994 l 10 0 l 17.5 -17.5 l -1.2 -1.2 l -8.7 8.7 l -7.6 0 q 0.83 5.4 -10 10 z"></path></g><g><path d="M 117.15 29.387500000000017 l -15 0 q -7 -2.95 -7.6 0 q -1.65 2.7 2.6 10 l 10 0 l 0 15 l 10 -10 l 0 -15 z"></path></g><path d="M 99.92499999999998 -49.3625 l 10 -10 l -30 0 l -10 10 l 30 0 z"></path></g><g><path d="M 184.04999999999998 -6.787499999999996 l -10 10 l 0 -33.85 l -10 10 l 0 36.2 l 10 -9.95 l 0 33.75 l 10 -10 l 0 -36.15 z"></path><g><path d="M 184.04999999999998 29.362500000000004 l 0 -7.3 q -4.546 5.888 -10 3.05 l 0 11.95 l -15.05 0 l -17.5 17.5 l 1.2 1.2 l 8.7 -8.7 l 15 0 l 17.65 -17.7 z"></path></g></g></g></g>
</svg>
