<svg xmlns="http://www.w3.org/2000/svg" viewBox="0 0 73.8 172.294907" width="73.8" height="172.294907" fill="currentColor" stroke="none">
<g transform="translate(36.9 86.147453)"><g><g><path d="M -20.599999999999994 -31.25 l -7.5 7.5 l 31.25 31.25 l -31.25 31.25 l 40 0 l 10 -10 l -37.6 0 l 27.5 -27.6 l -32.4 -32.4 z"></path><g><path d="M -26.899999999999995 -22.55 q 6.486 1.216 4.75 -5 q -2.924 3.894 -5.95 3.8 l -8.8 8.8 l 0 15 l 10 -10 l 0 -12.6 z"></path></g><g><path d="M 16.900000000000006 38.75 l 12.5 12.5 l 7.5 -7.5 l -15 -15 q -8.65 2.75 -10 10 l 5 0 z"></path></g><path d="M 10.000000000000007 -41.25 l 10 -10 l -30 0 l -10 10 l 30 0 z"></path></g></g></g>
</svg>
