<svg xmlns="http://www.w3.org/2000/svg" viewBox="0 0 50.15 172.294907" width="50.15" height="172.294907" fill="currentColor" stroke="none">
<g transform="translate(25.075 86.147453)"><g><g><path d="M 15.075 -0.45000000000000284 l 10 -10 l -29.85 -29.85 l -7.5 7.5 l 22.35 22.35 l -20 0 l -15 15 l 25.6 25.6 l 7.5 -7.5 l -23.1 -23.1 l 30 0 z"></path><g><path d="M -3.875 -38.7 l 11.2 -11.3 l -22.4 0 l -10 10.1 l 19.9 0 l -7.1 7.1 q 10.446 1.157 8.4 -5.9 z"></path></g><g><path d="M 6.974999999999998 41.3 l -7.5 7.5 l 1.2 1.2 l 16.3 -16.3 l 0 -22.35 l -10 10.1 q -4.2 -0.65 -6.3 2.7 q -0.8 1 0 6 l 6.3 -6.3 l 0 17.45 z"></path></g></g></g></g>
</svg>
