<svg xmlns="http://www.w3.org/2000/svg" viewBox="0 0 85 172.294907" width="85" height="172.294907" fill="currentColor" stroke="none">
<g transform="translate(42.5 86.147453)"><g><g><path d="M 17.5 35 l 7.5 -7.5 -26.9 -26.9 7.45 -7.55 -28.05 -28.05 -7.5 7.5 26.9 26.9 -7.5 7.5 28.1 28.1 z"></path><path d="M 14.899999999999999 25 q -1.655 2.716 2.6 10 l 15 0 l 10 -10 l -20 0 q -7.015 -2.931 -7.6 0 z"></path><path d="M -12.5 35 l 10 -10 l -30 0 l -10 10 l 30 0 z"></path><path d="M -10 -52.5 l 7.5 7.5 l 7.5 -7.5 l -7.5 -7.5 l -7.5 7.5 z"></path><path d="M -17.5 52.5 l 7.5 7.5 l 7.5 -7.5 l -7.5 -7.5 l -7.5 7.5 z"></path></g></g></g>
</svg>
