<svg xmlns="http://www.w3.org/2000/svg" viewBox="0 0 62.15 172.294907" width="62.15" height="172.294907" fill="currentColor" stroke="none">
<g transform="translate(31.075 86.147453)"><g><g><path d="M -3.9250000000000043 -35.650000000000006 l -10 10 l 0 35 l 19.95 0 l -24.95 25 l 40 0 l 10 -10 l -37.6 0 l 24.85 -25 l -22.25 0 l 0 -35 z"></path><g><path d="M -13.575000000000003 -23.550000000000004 q 0.375 -0.363 1.15 -1.15 q 6.261 -1.099 8.5 3.8 l 0 -14.75 l -10 10 l -10 -10 l -7.15 7.15 l 11.3 11.2 l 5.85 -5.9 q 0.04 -0.029 0.35 -0.35 z"></path></g><g><path d="M 31.074999999999996 24.349999999999994 l -15 0 q 2.75 6.15 -5 10 l 10 0 l 0 12.6 l -7.5 7.5 l 1.2 1.2 l 16.3 -16.3 l 0 -15 z"></path></g><path d="M 10 -45.650000000000006 l 10 -10 l -30 0 l -10 10 l 30 0 z"></path></g></g></g>
</svg>
