<svg xmlns="http://www.w3.org/2000/svg" viewBox="0 0 276.9 115.025" width="276.9" height="115.025" fill="currentColor" stroke="none">
<g transform="translate(138.45 57.5125)"><g><g><path d="M -102.19999999999999 -2.512500000000003 l 7.5 -7.5 -32.5 -32.5 -7.5 7.5 32.5 32.5 m -17.5 -10 l -7.5 7.5 32.5 32.5 7.5 -7.5 -32.5 -32.5 z"></path><path d="M -108.44999999999999 47.4875 l 10 -10 l -30 0 l -10 10 l 30 0 z"></path></g><g><path d="M -62.14999999999999 -32.5125 l 34.95 0 l 10 -10 l -50 0 l -10 10 l 25 25 l 0 35 l 10 -10 l 0 -30.05 l -19.95 -19.95 z"></path><g><path d="M -32.19999999999999 25.137499999999996 q -9.8 16 -27.5 7.5 l 7.5 -7.55 l 0 -11.1 q 5.25 3.05 10 -1.5 l 0 5 l -8.85 8.8 q 7.15 6.15 18.85 -1.15 z"></path></g></g><g><path d="M 2.6999999999999886 -42.5375 l -9.9 9.95 l 47.35 58.35 l 0.05 0 l 1.4 1.75 l 7.5 -7.5 l -42.7 -52.55 l 52.05 0 l 10 -10 l -65.75 0 z"></path><path d="M 23.025000000000006 47.51250000000001 l 8.8 -8.8 l -1.2 -1.2 l -20 20 l 30 0 l 10 -10 l -27.6 0 z"></path></g><g><path d="M 106.4 -57.5125 l -7.5 7.5 l 21.65 27.5 l 7.45 -7.5 l -21.6 -27.5 z"></path><path d="M 88.45000000000002 -12.512500000000003 l -10 10 l 50 0 l 10 -10 l -50 0 z"></path></g></g></g>
</svg>
