<svg xmlns="http://www.w3.org/2000/svg" viewBox="0 0 67.95 172.294907" width="67.95" height="172.294907" fill="currentColor" stroke="none">
<g transform="translate(33.975 86.147453)"><g><g><path d="M -8.975000000000005 -40.025000000000006 l -7.5 7.5 l 22.55 22.55 l -14.4 0 l -17.6 17.65 l 0 22.35 l 40 0 l 10 -10 l -40 0 l 0 -20 l 30 0 l 8.5 -8.5 l -31.55 -31.55 z"></path><g><path d="M -6.375000000000007 -30.025000000000006 q 1.655 -2.716 -2.6 -10 l -15 0 l -10 10 l 20 0 q 7.015 2.931 7.6 0 z"></path></g><g><path d="M 1.6749999999999972 40.025000000000006 l 22.4 0 l 9.9 -10 l -19.9 0 l 10 -10 l -12.65 0 q 5.504 3.447 -5.3 10 l 5.5 0 l -9.95 10 z"></path></g></g></g></g>
</svg>
