<svg xmlns="http://www.w3.org/2000/svg" viewBox="0 0 523.65 128.9" width="523.65" height="128.9" fill="currentColor" stroke="none">
<g transform="translate(261.825 64.45)"><g><g><path d="M -239.42499999999998 -36.925000000000004 l -10 10 l 0 60 l 10 -10 l 0 -60 z"></path><g><path d="M -261.825 43.074999999999996 l 22.4 0 l 10 -10.1 l -19.9 0 l -0.1 0.1 l 0 -0.1 l 0.05 0 l 9.95 -9.9 l 0 -5 q -5 5.774 -10 5 l 0 7.55 l -12.4 12.4 z"></path></g></g><g><path d="M -208.17499999999998 -36.925000000000004 l -10 10 l 0 30 l 30 30 l 7.5 -7.5 l -27.5 -27.5 l 0 -35 z"></path><path d="M -189.42499999999998 -46.925000000000004 l 10 -10 l -30 0 l -10 10 l 30 0 z"></path></g><g><path d="M -141.42499999999998 6.174999999999995 l 7.45 -7.5 27.05 34.4 7.5 -7.5 -27.8 -36 -7.75 7.8 -26.95 -34.3 -7.5 7.5 28 35.6 z"></path><path d="M -131.92499999999998 53.074999999999996 l 10 -10 l -30 0 l -10 10 l 30 0 z"></path></g><g><path d="M -64.42499999999998 -36.95 l -7.5 7.5 l 22.55 22.55 l -14.4 0 l -17.6 17.65 l 0 22.35 l 40 0 l 10 -10 l -40 0 l 0 -20 l 30 0 l 8.5 -8.5 l -31.55 -31.55 z"></path><g><path d="M -61.82499999999996 -26.950000000000003 q 1.655 -2.716 -2.6 -10 l -15 0 l -10 10 l 20 0 q 7.015 2.931 7.6 0 z"></path></g><g><path d="M -53.77499999999998 43.10000000000001 l 22.4 0 l 9.9 -10 l -19.9 0 l 10 -10 l -12.65 0 q 5.504 3.447 -5.3 10 l 5.5 0 l -9.95 10 z"></path></g></g><g><path d="M 24.82499999999999 -13.075000000000005 l -10 10 l 0 -33.85 l -10 10 l 0 36.2 l 10 -9.95 l 0 33.75 l 10 -10 l 0 -36.15 z"></path><g><path d="M -11.474999999999994 33.474999999999994 l 1.2 1.2 l 7.5 -7.5 l 11.75 11.75 l 15.85 -15.85 l 0 -5 q -6.25 9 -10 5 l 0 7.6 l -11.8 -11.7 l -14.5 14.5 z"></path></g></g><g><path d="M 44.82499999999999 -36.925000000000004 l -10 10 l 0 60 l 10 -10 l 0 -60 z"></path><g><path d="M 34.82499999999999 18.074999999999996 l 0 15 l 10 -10 l 0 20 l 10 -9.9 l 0 -22.4 l -10 9.95 l 0 -5.15 q -5 6.1 -10 2.5 z"></path></g></g><g><path d="M 74.72499999999997 -36.95 l -9.9 9.95 l 47.35 58.35 l 0.05 0 l 1.4 1.75 l 7.5 -7.5 l -42.7 -52.55 l 52.05 0 l 10 -10 l -65.75 0 z"></path><g><path d="M 145.625 -44.45 l -7.5 7.5 l -11.1 0 q 3.05 5.25 -1.5 10 l 5 0 l 8.8 -8.85 q 0.445 14.232 18.8 18.85 q -12.993 -10.704 -12.45 -27.5 z"></path></g><g><path d="M 96.125 63.25000000000001 l 1.2 1.2 l 16.3 -16.3 l 0 -15.05 l 7.5 -7.5 q -11.45 -4.9 -8.7 6.3 l -8.8 8.9 l 0 14.95 l -7.5 7.5 z"></path></g><path d="M 121.47499999999997 -54.45 l 10 -10 l -30 0 l -10 10 l 30 0 z"></path></g><g><path d="M 188.125 -13.075000000000005 l -10 10 l 0 -33.85 l -10 10 l 0 36.2 l 10 -9.95 l 0 33.75 l 10 -10 l 0 -36.15 z"></path><g><path d="M 178.125 -56.925000000000004 l -10 10 l 0 20 q 7.3 5 10 -10 l 0 -20 z"></path></g><g><path d="M 178.125 17.424999999999997 l 0 15.65 l 10 -10 q 9.4 17.75 21.2 6.85 q -12.25 2.15 -14.85 -15.5 l -6.35 6.3 l 0 -8.1 q -4.8 9.5 -10 4.8 z"></path></g></g><g><path d="M 246.825 -13.075000000000005 l -10 10 l 0 -33.85 l -10 10 l 0 36.2 l 10 -9.95 l 0 33.75 l 10 -10 l 0 -36.15 z"></path><g><path d="M 226.825 -15.725000000000005 q 5 -12.14 10 -11.2 l 0 -10 l -17.5 17.5 l 1.2 1.2 l 6.3 -6.3 l 0 8.8 z"></path></g><g><path d="M 236.825 18.074999999999996 l 0 15 l 12.6 0 l -7.5 7.5 l 1.2 1.2 l 18.7 -18.7 l -15 0 l 0 -10 q -3.85 7.75 -10 5 z"></path></g></g></g></g>
</svg>
