<svg xmlns="http://www.w3.org/2000/svg" viewBox="0 0 455.15 118.533324" width="455.15" height="118.533324" fill="currentColor" stroke="none">
<g transform="translate(227.575 59.266662)"><g><g><path d="M -195.02499999999998 -33.3333378334925 l -7.5 7.5 57.5 62.5 7.5 -7.5 -57.5 -62.5 z"></path><path d="M -202.52499999999998 -25.8333378334925 l -15.05 0 l -10 10 l 17.45 0 l 8.75 -8.8 q 6.9 0.2 3.8 -6.15 l -4.95 4.95 z"></path></g><g><path d="M -74.975 26.6666621665075 l -34.95 0 l -10 10 l 50 0 l 10 -10 l -25 -25 l 0 -35 l -10 10 l 0 30.05 l 19.95 19.95 z"></path><g><path d="M -84.92500000000001 -17.6833378334925 l 0 -15.65 l -10 10 q -9.4 -17.75 -21.2 -6.85 q 12.25 -2.15 14.85 15.5 l 6.35 -6.3 l 0 8.1 q 4.8 -9.5 10 -4.8 z"></path></g><g><path d="M -112.275 36.6666621665075 q -0.465 -4.718 7.9 -10 l -5.55 0 l -17.6 17.6 l 0 15 l 10 -10 l 0 -12.6 l 5.25 0 z"></path></g><path d="M -101.22500000000001 -51.7666621665075 l 7.5 7.5 l 7.5 -7.5 l -7.5 -7.5 l -7.5 7.5 z"></path></g><g><path d="M -49.92500000000001 12.8166621665075 l 10 -10 l 0 33.85 l 10 -10 l 0 -36.2 l -10 9.95 l 0 -33.75 l -10 10 l 0 36.15 z"></path><g><path d="M -39.92500000000001 -53.3333378334925 l -10 10 l 0 20 q 7.3 5 10 -10 l 0 -20 z"></path></g><g><path d="M -29.92500000000001 44.2666621665075 l 0 -17.6 q -7.3 -5 -10 10 l 0 20 l 17.5 -17.5 l -1.2 -1.2 l -6.3 6.3 z"></path></g></g><g><path d="M -2.4250000000000114 -33.3333378334925 l -10 10 l 0 60 l 10 -10 l 0 -60 z"></path></g><g><path d="M 55.07499999999999 36.6666621665075 l 7.5 -7.5 -26.9 -26.9 7.45 -7.55 -28.05 -28.05 -7.5 7.5 26.9 26.9 -7.5 7.5 28.1 28.1 z"></path><path d="M 37.57499999999999 56.6666621665075 l 10 -10 l -30 0 l -10 10 l 30 0 z"></path></g><g><path d="M 127.57499999999999 -33.3083378334925 l -10 10 l 0 20 l -35 0 l -10 10 l 29.95 29.95 l 7.5 -7.5 l -22.45 -22.45 l 30 0 l 10 -10 l 0 -30 z"></path><g><path d="M 117.92500000000001 -21.208337833492507 q 0.375 -0.363 1.15 -1.15 q 6.261 -1.099 8.5 3.8 l 0 -14.75 l -10 10 l -10 -10 l -7.15 7.15 l 11.3 11.2 l 5.85 -5.9 q 0.04 -0.029 0.35 -0.35 z"></path></g><g><path d="M 108.82499999999999 27.94166216650748 q -6.486 -1.216 -4.75 5 q 2.924 -3.894 5.95 -3.8 l 8.8 -8.8 l 0 -15 l -10 10 l 0 12.6 z"></path></g></g><g><path d="M 157.575 -9.4833378334925 l -10 10 l 0 -33.85 l -10 10 l 0 36.2 l 10 -9.95 l 0 33.75 l 10 -10 l 0 -36.15 z"></path><g><path d="M 147.575 56.6666621665075 l 10 -10 l 0 -20 q -7.3 -5 -10 10 l 0 20 z"></path></g></g><g><path d="M 200.075 -35.8333378334925 l 12.5 12.5 l -25 0 l -10 10 l 40 0 l 10 -10 l -20 -20 l -7.5 7.5 z"></path><path d="M 177.575 -3.3333378334925 l -10 10 l 50 0 l 10 -10 l -50 0 z"></path></g></g></g>
</svg>
