<svg xmlns="http://www.w3.org/2000/svg" viewBox="0 0 50 127.7" width="50" height="127.7" fill="currentColor" stroke="none">
<g transform="translate(25 63.85)"><g><g fill="currentColor"><path d="M -15 -57.550000000000004 l -10 10 l 0 60 l 40 0 l 10 -10 l -40 0 l 0 -60 z"></path><g><path d="M -7.5 -62.650000000000006 l -1.2 -1.2 l -16.3 16.3 l 0 7.75 q 5 -9.444 10 -6.55 l 0 -8.8 l 7.5 -7.5 z"></path></g><g><path d="M -2.5 42.65 l 1.2 1.2 l 16.3 -16.3 l 0 -15.1 l 10 -10 l -18.3 0 q 4.75 2.3 -1.7 10 l 7.6 0 l 0.25 -0.2 l -7.85 7.85 l 0 15.05 l -7.5 7.5 z"></path></g><path d="M 10 63.85 l 10 -10 l -30 0 l -10 10 l 30 0 z"></path></g></g></g>
</svg>
