<svg xmlns="http://www.w3.org/2000/svg" viewBox="0 0 90.05 172.294907" width="90.05" height="172.294907" fill="currentColor" stroke="none">
<g transform="translate(45.025 86.128665)"><g><g><path d="M 3.0250000000000057 6.698472949389176 l 7.45 -7.5 27.05 34.4 7.5 -7.5 -27.8 -36 -7.75 7.8 -26.95 -34.3 -7.5 7.5 28 35.6 z"></path><path d="M -23.824999999999996 -27.751527050610825 l 0 0.05 q 8.1 2.8 6.35 -8.7 l -6.35 6.3 q -9.4 -17.75 -21.2 -6.85 q 12.25 -2.15 14.85 15.5 l 6.35 -6.3 z"></path><path d="M 41.97500000000001 27.198472949389178 q -1.825 3.28 -4.45 6.4 l -7.5 7.5 l -1.2 -1.2 l 7.5 -7.5 q -1.688 -4.106 -0.35 -4.55 q 1.45 -0.6 6 -0.65 z"></path></g></g></g>
</svg>
