<svg xmlns="http://www.w3.org/2000/svg" viewBox="0 0 31.8 172.294907" width="31.8" height="172.294907" fill="currentColor" stroke="none">
<g transform="translate(15.9 86.147453)"><g><g><path d="M 5.9 -9.949999999999998 l -10 10 l 0 -33.85 l -10 10 l 0 36.2 l 10 -9.95 l 0 33.75 l 10 -10 l 0 -36.15 z"></path><g><path d="M -15.9 -45.599999999999994 l 11.8 11.8 l -10 10 l 0 5 q 5.188 -7.964 10 -5 l 0 -7.7 l 8.2 -8.2 l -13 -12.9 l -7 7 z"></path></g><g><path d="M -0.40000000000000036 52.6 l 16.3 -16.3 l 0 -22.45 l -10 10 l 0 -5.15 q -5 6.1 -10 2.5 l 0 15 l 10 -10 l 0 17.7 l -7.5 7.5 l 1.2 1.2 z"></path></g></g></g></g>
</svg>
