<svg xmlns="http://www.w3.org/2000/svg"
 viewBox="0 0 1254 52" width="1254" height="52"
 fill="#fff" color="#fff" stroke="none">
<g><svg x="0" y="0" width="17" height="52" viewBox="0 0 55 172.294907" preserveAspectRatio="xMidYMid meet" color="#fff" fill="#fff" stroke="none"><g transform="translate(27.5 86.147453)"><g><g><path d="M 27.5 -24.974999999999987 l -10 10 l 0 20 l -35 0 l -10 10 l 29.95 29.95 l 7.5 -7.5 l -22.45 -22.45 l 30 0 l 10 -10 l 0 -30 z"></path><path d="M 10 -34.974999999999994 l 10 -10 l -30 0 l -10 10 l 30 0 z"></path></g></g></g></svg><svg x="20" y="0" width="23" height="52" viewBox="0 0 77.5 172.294907" preserveAspectRatio="xMidYMid meet" color="#fff" fill="#fff" stroke="none"><g transform="translate(38.75 86.147453)"><g><g><path d="M 6.25 15 l 7.5 -7.5 -32.5 -32.5 -7.5 7.5 32.5 32.5 m -17.5 -10 l -7.5 7.5 32.5 32.5 7.5 -7.5 -32.5 -32.5 z"></path><path d="M 11.149999999999999 35 q -1.655 2.716 2.6 10 l 15 0 l 10 -10 l -20 0 q -7.015 -2.931 -7.6 0 z"></path><path d="M -38.75 25 l 20 20 l 7.5 -7.5 l -20 -20 l -7.5 7.5 z"></path><path d="M 6.25 -17.5 l 20 20 l 7.5 -7.5 l -20 -20 l -7.5 7.5 z"></path><path d="M 7.5 -35 l 10 -10 l -30 0 l -10 10 l 30 0 z"></path></g></g></g></svg><svg x="46" y="0" width="27" height="52" viewBox="0 0 89.65 172.294907" preserveAspectRatio="xMidYMid meet" color="#fff" fill="#fff" stroke="none"><g transform="translate(44.825 86.147453)"><g><g><path d="M 19.82500000000001 38.75 l 7.5 -7.5 -26.9 -26.9 7.45 -7.55 -28.05 -28.05 -7.5 7.5 26.9 26.9 -7.5 7.5 28.1 28.1 z"></path><path d="M -22.674999999999997 -28.75 l -5 5 l -10 -10 l -7.15 7.15 l 11.3 11.2 l 7 -7.1 l 1 -1 q 3.183 1.742 3.85 0 q 0.916 -1.293 0 -6.25 z"></path><path d="M 17.225 28.75 q -1.655 2.716 2.6 10 l 15 0 l 10 -10 l -20 0 q -7.015 -2.931 -7.6 0 z"></path><path d="M -22.674999999999997 21.25 l -10 10 l 0 25 l 10 -10 l 0 -25 z"></path><path d="M -7.674999999999997 -48.75 l 7.5 7.5 l 7.5 -7.5 l -7.5 -7.5 l -7.5 7.5 z"></path></g></g></g></svg><svg x="76" y="0" width="22" height="52" viewBox="0 0 72.5 172.294907" preserveAspectRatio="xMidYMid meet" color="#fff" fill="#fff" stroke="none"><g transform="translate(36.25 86.147453)"><g><g><path d="M -28.75 -33.75 l -7.5 7.5 57.5 62.5 7.5 -7.5 -57.5 -62.5 z"></path><path d="M -26.25 18.75 l -10 10 l 0 25 l 10 -10 l 0 -25 z"></path><path d="M 23.85 -23.75 l -8.8 8.8 l 1.2 1.2 l 20 -20 l -30 0 l -10 10 l 27.6 0 z"></path><path d="M 6.25 -43.75 l 10 -10 l -30 0 l -10 10 l 30 0 z"></path></g></g></g></svg><svg x="101" y="0" width="8" height="52" viewBox="0 0 27.5 172.294907" preserveAspectRatio="xMidYMid meet" color="#fff" fill="#fff" stroke="none"><g transform="translate(13.75 86.147453)"><g><g><path d="M -13.75 1.1500000000000004 l 10 -10 l 0 33.85 l 10 -10 l 0 -36.2 l -10 9.95 l 0 -33.75 l -10 10 l 0 36.15 z"></path><g><path d="M 6.25 32.6 l 0 -17.6 q -7.3 -5 -10 10 l 0 20 l 17.5 -17.5 l -1.2 -1.2 l -6.3 6.3 z"></path></g></g></g></g></svg><svg x="112" y="0" width="15" height="52" viewBox="0 0 50 172.294907" preserveAspectRatio="xMidYMid meet" color="#fff" fill="#fff" stroke="none"><g transform="translate(25 86.147453)"><g><g><path d="M 15 4.299999999999997 l 10 -10 l 0 -60 l -40 0 l -10 10 l 40 0 l 0 60 z"></path><g><path d="M 25 -5.700000000000003 l 0 -7.3 q -4.546 5.888 -10 3.05 l 0 11.95 l -15.05 0 l -17.5 17.5 l 1.2 1.2 l 8.7 -8.7 l 15 0 l 17.65 -17.7 z"></path></g><path d="M 10 55.7 l 0 -25 l -20 20 l 1.2 1.2 l 8.8 -8.8 l 0 22.6 l 10 -10 z"></path></g></g></g></svg><svg x="130" y="0" width="17" height="52" viewBox="0 0 55 172.294907" preserveAspectRatio="xMidYMid meet" color="#fff" fill="#fff" stroke="none"><g transform="translate(27.5 86.147453)"><g><g><path d="M 27.5 -29.32499999999999 l -10 10 l 0 20 l -35 0 l -10 10 l 29.95 29.95 l 7.5 -7.5 l -22.45 -22.45 l 30 0 l 10 -10 l 0 -30 z"></path><g><path d="M -0.14999999999999858 30.624999999999993 q -1.65 2.7 2.6 10 l 12.6 0 l -7.5 7.5 l 1.2 1.2 l 18.7 -18.7 l -20 0 q -7 -2.95 -7.6 0 z"></path></g><path d="M 10 -39.324999999999996 l 10 -10 l -30 0 l -10 10 l 30 0 z"></path></g></g></g></svg><svg x="150" y="0" width="18" height="52" viewBox="0 0 60 172.294907" preserveAspectRatio="xMidYMid meet" color="#fff" fill="#fff" stroke="none"><g transform="translate(30 86.147453)"><g><g><path d="M -10 -35.650000000000006 l -10 10 l 0 50 l -10 10 l 45 0 l 10 -10 l -42.6 0 l 7.6 -7.6 l 0 -42.4 l 30 0 l 10 -10 l -40 0 z"></path><g><path d="M 25 24.349999999999994 l -15 0 q 2.75 6.15 -5 10 l 10 0 l 0 12.6 l -7.5 7.5 l 1.2 1.2 l 16.3 -16.3 l 0 -15 z"></path></g><path d="M 10 -45.650000000000006 l 10 -10 l -30 0 l -10 10 l 30 0 z"></path></g></g></g></svg><svg x="171" y="0" width="10" height="52" viewBox="0 0 32.4 172.294907" preserveAspectRatio="xMidYMid meet" color="#fff" fill="#fff" stroke="none"><g transform="translate(16.2 86.147453)"><g><g><path d="M 6.200000000000003 -20.449999999999996 l -10 10 l 0 -33.85 l -10 10 l 0 36.2 l 10 -9.95 l 0 33.75 l 10 -10 l 0 -36.15 z"></path><g><path d="M -3.7999999999999954 25.700000000000003 l 0 -0.1 l 0.05 0 l 9.95 -9.9 l 0 -5 q -5 5.75 -10 5 l 0 7.55 l -12.4 12.45 l 19.9 0 l -7.4 7.4 l 1.2 1.2 l 8.6 -8.6 l 0.1 0 l 10 -10.1 l -19.9 0 l -0.1 0.1 z"></path></g></g></g></g></svg><svg x="184" y="0" width="18" height="52" viewBox="0 0 59.45 172.294907" preserveAspectRatio="xMidYMid meet" color="#fff" fill="#fff" stroke="none"><g transform="translate(29.725 86.147453)"><g><g><path d="M 29.675000000000004 -55 l -50 0 l -9.4 9.4 l 23.2 33.05 l 6.2 -6.25 l 0 33.8 l 10 -10 l 0 -36.15 l -1.1 1.1 q -2.967 2.977 -5.95 5.95 l -1.95 2 l -0.65 0.65 l -16.5 -23.5 l 36.2 0 l 10 -10 z"></path><g><path d="M 9.675000000000004 22.6 l 0 -17.6 q -7.3 -5 -10 10 l 0 20 l 17.5 -17.5 l -1.2 -1.2 l -6.3 6.3 z"></path></g><path d="M 10 55 l 10 -10 l -30 0 l -10 10 l 30 0 z"></path></g></g></g></svg><svg x="205" y="0" width="20" height="52" viewBox="0 0 65 172.294907" preserveAspectRatio="xMidYMid meet" color="#fff" fill="#fff" stroke="none"><g transform="translate(32.5 86.147453)"><g><g><path d="M -25 -35 l -7.5 7.5 57.5 62.5 7.5 -7.5 -57.5 -62.5 z"></path></g></g></g></svg><svg x="228" y="0" width="17" height="52" viewBox="0 0 55 172.294907" preserveAspectRatio="xMidYMid meet" color="#fff" fill="#fff" stroke="none"><g transform="translate(27.5 86.147453)"><g><g><path d="M 27.5 -36.22499999999999 l -10 10 l 0 20 l -35 0 l -10 10 l 29.95 29.95 l 7.5 -7.5 l -22.45 -22.45 l 30 0 l 10 -10 l 0 -30 z"></path><g><path d="M 4.950000000000003 31.224999999999994 l 5 -5 l 10 10 l 7.15 -7.15 l -11.3 -11.2 l -7 7.1 l -1 1 q -3.183 -1.742 -3.85 0 q -0.916 1.293 0 6.25 z"></path></g></g></g></g></svg><svg x="248" y="0" width="9" height="52" viewBox="0 0 28.8 172.294907" preserveAspectRatio="xMidYMid meet" color="#fff" fill="#fff" stroke="none"><g transform="translate(14.4 86.147453)"><g><g><path d="M 14.4 -14.074999999999998 l -10 10 l 0 -33.85 l -10 10 l 0 36.2 l 10 -9.95 l 0 33.75 l 10 -10 l 0 -36.15 z"></path><g><path d="M 14.4 22.075000000000003 l 0 -5 q -6.25 9 -10 5 l 0 7.6 l -11.8 -11.7 l -7 7 l 12.95 12.95 l 15.85 -15.85 z"></path></g></g></g></g></svg><svg x="260" y="0" width="17" height="52" viewBox="0 0 55 172.294907" preserveAspectRatio="xMidYMid meet" color="#fff" fill="#fff" stroke="none"><g transform="translate(27.5 86.147453)"><g><g><path d="M 27.5 -34.97499999999999 l -10 10 l 0 20 l -35 0 l -10 10 l 29.95 29.95 l 7.5 -7.5 l -22.45 -22.45 l 30 0 l 10 -10 l 0 -30 z"></path><path d="M -7.5 -52.474999999999994 l 7.5 7.5 l 7.5 -7.5 l -7.5 -7.5 l -7.5 7.5 z"></path><path d="M -7.5 52.474999999999994 l 7.5 7.5 l 7.5 -7.5 l -7.5 -7.5 l -7.5 7.5 z"></path></g></g></g></svg><svg x="280" y="0" width="17" height="52" viewBox="0 0 55 172.294907" preserveAspectRatio="xMidYMid meet" color="#fff" fill="#fff" stroke="none"><g transform="translate(27.5 86.147453)"><g><g><path d="M 19.999999999999996 35 l 7.5 -7.5 -26.9 -26.9 7.45 -7.55 -28.05 -28.05 -7.5 7.5 26.9 26.9 -7.5 7.5 28.1 28.1 z"></path></g></g></g></svg><svg x="300" y="0" width="18" height="52" viewBox="0 0 60 172.294907" preserveAspectRatio="xMidYMid meet" color="#fff" fill="#fff" stroke="none"><g transform="translate(30 86.147453)"><g><g><path d="M -2.049999999999997 -27.5 l -7.5 7.5 l 21.65 27.5 l 7.45 -7.5 l -21.6 -27.5 z"></path><path d="M -20 17.5 l -10 10 l 50 0 l 10 -10 l -50 0 z"></path></g></g></g></svg><svg x="321" y="0" width="6" height="52" viewBox="0 0 20 172.294907" preserveAspectRatio="xMidYMid meet" color="#fff" fill="#fff" stroke="none"><g transform="translate(10 86.147453)"><g><g><path d="M 10 -21.15 l -10 10 l 0 -33.85 l -10 10 l 0 36.2 l 10 -9.95 l 0 33.75 l 10 -10 l 0 -36.15 z"></path><g><path d="M 0 45 l 10 -10 l 0 -20 q -7.3 -5 -10 10 l 0 20 z"></path></g></g></g></g></svg><svg x="330" y="0" width="18" height="52" viewBox="0 0 60 172.294907" preserveAspectRatio="xMidYMid meet" color="#fff" fill="#fff" stroke="none"><g transform="translate(30 86.147453)"><g><g><path d="M 2.5 -17.5 l 12.5 12.5 l -25 0 l -10 10 l 40 0 l 10 -10 l -20 -20 l -7.5 7.5 z"></path><path d="M -20 15 l -10 10 l 50 0 l 10 -10 l -50 0 z"></path></g></g></g></svg><svg x="351" y="0" width="23" height="52" viewBox="0 0 77.5 172.294907" preserveAspectRatio="xMidYMid meet" color="#fff" fill="#fff" stroke="none"><g transform="translate(38.75 86.147453)"><g><g><path d="M 6.25 15 l 7.5 -7.5 -32.5 -32.5 -7.5 7.5 32.5 32.5 m -17.5 -10 l -7.5 7.5 32.5 32.5 7.5 -7.5 -32.5 -32.5 z"></path><path d="M 11.149999999999999 35 q -1.655 2.716 2.6 10 l 15 0 l 10 -10 l -20 0 q -7.015 -2.931 -7.6 0 z"></path><path d="M -38.75 25 l 20 20 l 7.5 -7.5 l -20 -20 l -7.5 7.5 z"></path><path d="M 6.25 -17.5 l 20 20 l 7.5 -7.5 l -20 -20 l -7.5 7.5 z"></path><path d="M 7.5 -35 l 10 -10 l -30 0 l -10 10 l 30 0 z"></path></g></g></g></svg><svg x="377" y="0" width="17" height="52" viewBox="0 0 55 172.294907" preserveAspectRatio="xMidYMid meet" color="#fff" fill="#fff" stroke="none"><g transform="translate(27.5 86.147453)"><g><g><path d="M 27.5 -24.974999999999987 l -10 10 l 0 20 l -35 0 l -10 10 l 29.95 29.95 l 7.5 -7.5 l -22.45 -22.45 l 30 0 l 10 -10 l 0 -30 z"></path><path d="M 10 -34.974999999999994 l 10 -10 l -30 0 l -10 10 l 30 0 z"></path></g></g></g></svg><svg x="397" y="0" width="18" height="52" viewBox="0 0 60 172.294907" preserveAspectRatio="xMidYMid meet" color="#fff" fill="#fff" stroke="none"><g transform="translate(30 86.147453)"><g><g><path d="M 2.5 -17.5 l 12.5 12.5 l -25 0 l -10 10 l 40 0 l 10 -10 l -20 -20 l -7.5 7.5 z"></path><path d="M -20 15 l -10 10 l 50 0 l 10 -10 l -50 0 z"></path></g></g></g></svg><svg x="418" y="0" width="6" height="52" viewBox="0 0 20 172.294907" preserveAspectRatio="xMidYMid meet" color="#fff" fill="#fff" stroke="none"><g transform="translate(10 86.147453)"><g><g><path d="M 10 -21.15 l -10 10 l 0 -33.85 l -10 10 l 0 36.2 l 10 -9.95 l 0 33.75 l 10 -10 l 0 -36.15 z"></path><g><path d="M 0 45 l 10 -10 l 0 -20 q -7.3 -5 -10 10 l 0 20 z"></path></g></g></g></g></svg><svg x="427" y="0" width="18" height="52" viewBox="0 0 60 172.294907" preserveAspectRatio="xMidYMid meet" color="#fff" fill="#fff" stroke="none"><g transform="translate(30 86.147453)"><g><g><path d="M -2.049999999999997 -27.5 l -7.5 7.5 l 21.65 27.5 l 7.45 -7.5 l -21.6 -27.5 z"></path><path d="M -20 17.5 l -10 10 l 50 0 l 10 -10 l -50 0 z"></path></g></g></g></svg><svg x="448" y="0" width="17" height="52" viewBox="0 0 55 172.294907" preserveAspectRatio="xMidYMid meet" color="#fff" fill="#fff" stroke="none"><g transform="translate(27.5 86.147453)"><g><g><path d="M 19.999999999999996 35 l 7.5 -7.5 -26.9 -26.9 7.45 -7.55 -28.05 -28.05 -7.5 7.5 26.9 26.9 -7.5 7.5 28.1 28.1 z"></path></g></g></g></svg><svg x="468" y="0" width="17" height="52" viewBox="0 0 55 172.294907" preserveAspectRatio="xMidYMid meet" color="#fff" fill="#fff" stroke="none"><g transform="translate(27.5 86.147453)"><g><g><path d="M 27.5 -34.97499999999999 l -10 10 l 0 20 l -35 0 l -10 10 l 29.95 29.95 l 7.5 -7.5 l -22.45 -22.45 l 30 0 l 10 -10 l 0 -30 z"></path><path d="M -7.5 -52.474999999999994 l 7.5 7.5 l 7.5 -7.5 l -7.5 -7.5 l -7.5 7.5 z"></path><path d="M -7.5 52.474999999999994 l 7.5 7.5 l 7.5 -7.5 l -7.5 -7.5 l -7.5 7.5 z"></path></g></g></g></svg><svg x="488" y="0" width="9" height="52" viewBox="0 0 28.8 172.294907" preserveAspectRatio="xMidYMid meet" color="#fff" fill="#fff" stroke="none"><g transform="translate(14.4 86.147453)"><g><g><path d="M 14.4 -14.074999999999998 l -10 10 l 0 -33.85 l -10 10 l 0 36.2 l 10 -9.95 l 0 33.75 l 10 -10 l 0 -36.15 z"></path><g><path d="M 14.4 22.075000000000003 l 0 -5 q -6.25 9 -10 5 l 0 7.6 l -11.8 -11.7 l -7 7 l 12.95 12.95 l 15.85 -15.85 z"></path></g></g></g></g></svg><svg x="500" y="0" width="17" height="52" viewBox="0 0 55 172.294907" preserveAspectRatio="xMidYMid meet" color="#fff" fill="#fff" stroke="none"><g transform="translate(27.5 86.147453)"><g><g><path d="M 27.5 -36.22499999999999 l -10 10 l 0 20 l -35 0 l -10 10 l 29.95 29.95 l 7.5 -7.5 l -22.45 -22.45 l 30 0 l 10 -10 l 0 -30 z"></path><g><path d="M 4.950000000000003 31.224999999999994 l 5 -5 l 10 10 l 7.15 -7.15 l -11.3 -11.2 l -7 7.1 l -1 1 q -3.183 -1.742 -3.85 0 q -0.916 1.293 0 6.25 z"></path></g></g></g></g></svg><svg x="520" y="0" width="20" height="52" viewBox="0 0 65 172.294907" preserveAspectRatio="xMidYMid meet" color="#fff" fill="#fff" stroke="none"><g transform="translate(32.5 86.147453)"><g><g><path d="M -25 -35 l -7.5 7.5 57.5 62.5 7.5 -7.5 -57.5 -62.5 z"></path></g></g></g></svg><svg x="543" y="0" width="18" height="52" viewBox="0 0 59.45 172.294907" preserveAspectRatio="xMidYMid meet" color="#fff" fill="#fff" stroke="none"><g transform="translate(29.725 86.147453)"><g><g><path d="M 29.675000000000004 -55 l -50 0 l -9.4 9.4 l 23.2 33.05 l 6.2 -6.25 l 0 33.8 l 10 -10 l 0 -36.15 l -1.1 1.1 q -2.967 2.977 -5.95 5.95 l -1.95 2 l -0.65 0.65 l -16.5 -23.5 l 36.2 0 l 10 -10 z"></path><g><path d="M 9.675000000000004 22.6 l 0 -17.6 q -7.3 -5 -10 10 l 0 20 l 17.5 -17.5 l -1.2 -1.2 l -6.3 6.3 z"></path></g><path d="M 10 55 l 10 -10 l -30 0 l -10 10 l 30 0 z"></path></g></g></g></svg><svg x="564" y="0" width="10" height="52" viewBox="0 0 32.4 172.294907" preserveAspectRatio="xMidYMid meet" color="#fff" fill="#fff" stroke="none"><g transform="translate(16.2 86.147453)"><g><g><path d="M 6.200000000000003 -20.449999999999996 l -10 10 l 0 -33.85 l -10 10 l 0 36.2 l 10 -9.95 l 0 33.75 l 10 -10 l 0 -36.15 z"></path><g><path d="M -3.7999999999999954 25.700000000000003 l 0 -0.1 l 0.05 0 l 9.95 -9.9 l 0 -5 q -5 5.75 -10 5 l 0 7.55 l -12.4 12.45 l 19.9 0 l -7.4 7.4 l 1.2 1.2 l 8.6 -8.6 l 0.1 0 l 10 -10.1 l -19.9 0 l -0.1 0.1 z"></path></g></g></g></g></svg><svg x="577" y="0" width="18" height="52" viewBox="0 0 60 172.294907" preserveAspectRatio="xMidYMid meet" color="#fff" fill="#fff" stroke="none"><g transform="translate(30 86.147453)"><g><g><path d="M -10 -35.650000000000006 l -10 10 l 0 50 l -10 10 l 45 0 l 10 -10 l -42.6 0 l 7.6 -7.6 l 0 -42.4 l 30 0 l 10 -10 l -40 0 z"></path><g><path d="M 25 24.349999999999994 l -15 0 q 2.75 6.15 -5 10 l 10 0 l 0 12.6 l -7.5 7.5 l 1.2 1.2 l 16.3 -16.3 l 0 -15 z"></path></g><path d="M 10 -45.650000000000006 l 10 -10 l -30 0 l -10 10 l 30 0 z"></path></g></g></g></svg><svg x="598" y="0" width="17" height="52" viewBox="0 0 55 172.294907" preserveAspectRatio="xMidYMid meet" color="#fff" fill="#fff" stroke="none"><g transform="translate(27.5 86.147453)"><g><g><path d="M 27.5 -29.32499999999999 l -10 10 l 0 20 l -35 0 l -10 10 l 29.95 29.95 l 7.5 -7.5 l -22.45 -22.45 l 30 0 l 10 -10 l 0 -30 z"></path><g><path d="M -0.14999999999999858 30.624999999999993 q -1.65 2.7 2.6 10 l 12.6 0 l -7.5 7.5 l 1.2 1.2 l 18.7 -18.7 l -20 0 q -7 -2.95 -7.6 0 z"></path></g><path d="M 10 -39.324999999999996 l 10 -10 l -30 0 l -10 10 l 30 0 z"></path></g></g></g></svg><svg x="618" y="0" width="15" height="52" viewBox="0 0 50 172.294907" preserveAspectRatio="xMidYMid meet" color="#fff" fill="#fff" stroke="none"><g transform="translate(25 86.147453)"><g><g><path d="M 15 4.299999999999997 l 10 -10 l 0 -60 l -40 0 l -10 10 l 40 0 l 0 60 z"></path><g><path d="M 25 -5.700000000000003 l 0 -7.3 q -4.546 5.888 -10 3.05 l 0 11.95 l -15.05 0 l -17.5 17.5 l 1.2 1.2 l 8.7 -8.7 l 15 0 l 17.65 -17.7 z"></path></g><path d="M 10 55.7 l 0 -25 l -20 20 l 1.2 1.2 l 8.8 -8.8 l 0 22.6 l 10 -10 z"></path></g></g></g></svg><svg x="636" y="0" width="8" height="52" viewBox="0 0 27.5 172.294907" preserveAspectRatio="xMidYMid meet" color="#fff" fill="#fff" stroke="none"><g transform="translate(13.75 86.147453)"><g><g><path d="M -13.75 1.1500000000000004 l 10 -10 l 0 33.85 l 10 -10 l 0 -36.2 l -10 9.95 l 0 -33.75 l -10 10 l 0 36.15 z"></path><g><path d="M 6.25 32.6 l 0 -17.6 q -7.3 -5 -10 10 l 0 20 l 17.5 -17.5 l -1.2 -1.2 l -6.3 6.3 z"></path></g></g></g></g></svg><svg x="647" y="0" width="22" height="52" viewBox="0 0 72.5 172.294907" preserveAspectRatio="xMidYMid meet" color="#fff" fill="#fff" stroke="none"><g transform="translate(36.25 86.147453)"><g><g><path d="M -28.75 -33.75 l -7.5 7.5 57.5 62.5 7.5 -7.5 -57.5 -62.5 z"></path><path d="M -26.25 18.75 l -10 10 l 0 25 l 10 -10 l 0 -25 z"></path><path d="M 23.85 -23.75 l -8.8 8.8 l 1.2 1.2 l 20 -20 l -30 0 l -10 10 l 27.6 0 z"></path><path d="M 6.25 -43.75 l 10 -10 l -30 0 l -10 10 l 30 0 z"></path></g></g></g></svg><svg x="672" y="0" width="27" height="52" viewBox="0 0 89.65 172.294907" preserveAspectRatio="xMidYMid meet" color="#fff" fill="#fff" stroke="none"><g transform="translate(44.825 86.147453)"><g><g><path d="M 19.82500000000001 38.75 l 7.5 -7.5 -26.9 -26.9 7.45 -7.55 -28.05 -28.05 -7.5 7.5 26.9 26.9 -7.5 7.5 28.1 28.1 z"></path><path d="M -22.674999999999997 -28.75 l -5 5 l -10 -10 l -7.15 7.15 l 11.3 11.2 l 7 -7.1 l 1 -1 q 3.183 1.742 3.85 0 q 0.916 -1.293 0 -6.25 z"></path><path d="M 17.225 28.75 q -1.655 2.716 2.6 10 l 15 0 l 10 -10 l -20 0 q -7.015 -2.931 -7.6 0 z"></path><path d="M -22.674999999999997 21.25 l -10 10 l 0 25 l 10 -10 l 0 -25 z"></path><path d="M -7.674999999999997 -48.75 l 7.5 7.5 l 7.5 -7.5 l -7.5 -7.5 l -7.5 7.5 z"></path></g></g></g></svg><svg x="702" y="0" width="27" height="52" viewBox="0 0 89.65 172.294907" preserveAspectRatio="xMidYMid meet" color="#fff" fill="#fff" stroke="none"><g transform="translate(44.825 86.147453)"><g><g><path d="M 19.82500000000001 38.75 l 7.5 -7.5 -26.9 -26.9 7.45 -7.55 -28.05 -28.05 -7.5 7.5 26.9 26.9 -7.5 7.5 28.1 28.1 z"></path><path d="M -22.674999999999997 -28.75 l -5 5 l -10 -10 l -7.15 7.15 l 11.3 11.2 l 7 -7.1 l 1 -1 q 3.183 1.742 3.85 0 q 0.916 -1.293 0 -6.25 z"></path><path d="M 17.225 28.75 q -1.655 2.716 2.6 10 l 15 0 l 10 -10 l -20 0 q -7.015 -2.931 -7.6 0 z"></path><path d="M -22.674999999999997 21.25 l -10 10 l 0 25 l 10 -10 l 0 -25 z"></path><path d="M -7.674999999999997 -48.75 l 7.5 7.5 l 7.5 -7.5 l -7.5 -7.5 l -7.5 7.5 z"></path></g></g></g></svg><svg x="732" y="0" width="22" height="52" viewBox="0 0 72.5 172.294907" preserveAspectRatio="xMidYMid meet" color="#fff" fill="#fff" stroke="none"><g transform="translate(36.25 86.147453)"><g><g><path d="M -28.75 -33.75 l -7.5 7.5 57.5 62.5 7.5 -7.5 -57.5 -62.5 z"></path><path d="M -26.25 18.75 l -10 10 l 0 25 l 10 -10 l 0 -25 z"></path><path d="M 23.85 -23.75 l -8.8 8.8 l 1.2 1.2 l 20 -20 l -30 0 l -10 10 l 27.6 0 z"></path><path d="M 6.25 -43.75 l 10 -10 l -30 0 l -10 10 l 30 0 z"></path></g></g></g></svg><svg x="757" y="0" width="8" height="52" viewBox="0 0 27.5 172.294907" preserveAspectRatio="xMidYMid meet" color="#fff" fill="#fff" stroke="none"><g transform="translate(13.75 86.147453)"><g><g><path d="M -13.75 1.1500000000000004 l 10 -10 l 0 33.85 l 10 -10 l 0 -36.2 l -10 9.95 l 0 -33.75 l -10 10 l 0 36.15 z"></path><g><path d="M 6.25 32.6 l 0 -17.6 q -7.3 -5 -10 10 l 0 20 l 17.5 -17.5 l -1.2 -1.2 l -6.3 6.3 z"></path></g></g></g></g></svg><svg x="768" y="0" width="15" height="52" viewBox="0 0 50 172.294907" preserveAspectRatio="xMidYMid meet" color="#fff" fill="#fff" stroke="none"><g transform="translate(25 86.147453)"><g><g><path d="M 15 4.299999999999997 l 10 -10 l 0 -60 l -40 0 l -10 10 l 40 0 l 0 60 z"></path><g><path d="M 25 -5.700000000000003 l 0 -7.3 q -4.546 5.888 -10 3.05 l 0 11.95 l -15.05 0 l -17.5 17.5 l 1.2 1.2 l 8.7 -8.7 l 15 0 l 17.65 -17.7 z"></path></g><path d="M 10 55.7 l 0 -25 l -20 20 l 1.2 1.2 l 8.8 -8.8 l 0 22.6 l 10 -10 z"></path></g></g></g></svg><svg x="786" y="0" width="17" height="52" viewBox="0 0 55 172.294907" preserveAspectRatio="xMidYMid meet" color="#fff" fill="#fff" stroke="none"><g transform="translate(27.5 86.147453)"><g><g><path d="M 27.5 -29.32499999999999 l -10 10 l 0 20 l -35 0 l -10 10 l 29.95 29.95 l 7.5 -7.5 l -22.45 -22.45 l 30 0 l 10 -10 l 0 -30 z"></path><g><path d="M -0.14999999999999858 30.624999999999993 q -1.65 2.7 2.6 10 l 12.6 0 l -7.5 7.5 l 1.2 1.2 l 18.7 -18.7 l -20 0 q -7 -2.95 -7.6 0 z"></path></g><path d="M 10 -39.324999999999996 l 10 -10 l -30 0 l -10 10 l 30 0 z"></path></g></g></g></svg><svg x="806" y="0" width="18" height="52" viewBox="0 0 60 172.294907" preserveAspectRatio="xMidYMid meet" color="#fff" fill="#fff" stroke="none"><g transform="translate(30 86.147453)"><g><g><path d="M -10 -35.650000000000006 l -10 10 l 0 50 l -10 10 l 45 0 l 10 -10 l -42.6 0 l 7.6 -7.6 l 0 -42.4 l 30 0 l 10 -10 l -40 0 z"></path><g><path d="M 25 24.349999999999994 l -15 0 q 2.75 6.15 -5 10 l 10 0 l 0 12.6 l -7.5 7.5 l 1.2 1.2 l 16.3 -16.3 l 0 -15 z"></path></g><path d="M 10 -45.650000000000006 l 10 -10 l -30 0 l -10 10 l 30 0 z"></path></g></g></g></svg><svg x="827" y="0" width="10" height="52" viewBox="0 0 32.4 172.294907" preserveAspectRatio="xMidYMid meet" color="#fff" fill="#fff" stroke="none"><g transform="translate(16.2 86.147453)"><g><g><path d="M 6.200000000000003 -20.449999999999996 l -10 10 l 0 -33.85 l -10 10 l 0 36.2 l 10 -9.95 l 0 33.75 l 10 -10 l 0 -36.15 z"></path><g><path d="M -3.7999999999999954 25.700000000000003 l 0 -0.1 l 0.05 0 l 9.95 -9.9 l 0 -5 q -5 5.75 -10 5 l 0 7.55 l -12.4 12.45 l 19.9 0 l -7.4 7.4 l 1.2 1.2 l 8.6 -8.6 l 0.1 0 l 10 -10.1 l -19.9 0 l -0.1 0.1 z"></path></g></g></g></g></svg><svg x="840" y="0" width="18" height="52" viewBox="0 0 59.45 172.294907" preserveAspectRatio="xMidYMid meet" color="#fff" fill="#fff" stroke="none"><g transform="translate(29.725 86.147453)"><g><g><path d="M 29.675000000000004 -55 l -50 0 l -9.4 9.4 l 23.2 33.05 l 6.2 -6.25 l 0 33.8 l 10 -10 l 0 -36.15 l -1.1 1.1 q -2.967 2.977 -5.95 5.95 l -1.95 2 l -0.65 0.65 l -16.5 -23.5 l 36.2 0 l 10 -10 z"></path><g><path d="M 9.675000000000004 22.6 l 0 -17.6 q -7.3 -5 -10 10 l 0 20 l 17.5 -17.5 l -1.2 -1.2 l -6.3 6.3 z"></path></g><path d="M 10 55 l 10 -10 l -30 0 l -10 10 l 30 0 z"></path></g></g></g></svg><svg x="861" y="0" width="20" height="52" viewBox="0 0 65 172.294907" preserveAspectRatio="xMidYMid meet" color="#fff" fill="#fff" stroke="none"><g transform="translate(32.5 86.147453)"><g><g><path d="M -25 -35 l -7.5 7.5 57.5 62.5 7.5 -7.5 -57.5 -62.5 z"></path></g></g></g></svg><svg x="884" y="0" width="17" height="52" viewBox="0 0 55 172.294907" preserveAspectRatio="xMidYMid meet" color="#fff" fill="#fff" stroke="none"><g transform="translate(27.5 86.147453)"><g><g><path d="M 27.5 -36.22499999999999 l -10 10 l 0 20 l -35 0 l -10 10 l 29.95 29.95 l 7.5 -7.5 l -22.45 -22.45 l 30 0 l 10 -10 l 0 -30 z"></path><g><path d="M 4.950000000000003 31.224999999999994 l 5 -5 l 10 10 l 7.15 -7.15 l -11.3 -11.2 l -7 7.1 l -1 1 q -3.183 -1.742 -3.85 0 q -0.916 1.293 0 6.25 z"></path></g></g></g></g></svg><svg x="904" y="0" width="9" height="52" viewBox="0 0 28.8 172.294907" preserveAspectRatio="xMidYMid meet" color="#fff" fill="#fff" stroke="none"><g transform="translate(14.4 86.147453)"><g><g><path d="M 14.4 -14.074999999999998 l -10 10 l 0 -33.85 l -10 10 l 0 36.2 l 10 -9.95 l 0 33.75 l 10 -10 l 0 -36.15 z"></path><g><path d="M 14.4 22.075000000000003 l 0 -5 q -6.25 9 -10 5 l 0 7.6 l -11.8 -11.7 l -7 7 l 12.95 12.95 l 15.85 -15.85 z"></path></g></g></g></g></svg><svg x="916" y="0" width="17" height="52" viewBox="0 0 55 172.294907" preserveAspectRatio="xMidYMid meet" color="#fff" fill="#fff" stroke="none"><g transform="translate(27.5 86.147453)"><g><g><path d="M 27.5 -34.97499999999999 l -10 10 l 0 20 l -35 0 l -10 10 l 29.95 29.95 l 7.5 -7.5 l -22.45 -22.45 l 30 0 l 10 -10 l 0 -30 z"></path><path d="M -7.5 -52.474999999999994 l 7.5 7.5 l 7.5 -7.5 l -7.5 -7.5 l -7.5 7.5 z"></path><path d="M -7.5 52.474999999999994 l 7.5 7.5 l 7.5 -7.5 l -7.5 -7.5 l -7.5 7.5 z"></path></g></g></g></svg><svg x="936" y="0" width="17" height="52" viewBox="0 0 55 172.294907" preserveAspectRatio="xMidYMid meet" color="#fff" fill="#fff" stroke="none"><g transform="translate(27.5 86.147453)"><g><g><path d="M 19.999999999999996 35 l 7.5 -7.5 -26.9 -26.9 7.45 -7.55 -28.05 -28.05 -7.5 7.5 26.9 26.9 -7.5 7.5 28.1 28.1 z"></path></g></g></g></svg><svg x="956" y="0" width="18" height="52" viewBox="0 0 60 172.294907" preserveAspectRatio="xMidYMid meet" color="#fff" fill="#fff" stroke="none"><g transform="translate(30 86.147453)"><g><g><path d="M -2.049999999999997 -27.5 l -7.5 7.5 l 21.65 27.5 l 7.45 -7.5 l -21.6 -27.5 z"></path><path d="M -20 17.5 l -10 10 l 50 0 l 10 -10 l -50 0 z"></path></g></g></g></svg><svg x="977" y="0" width="6" height="52" viewBox="0 0 20 172.294907" preserveAspectRatio="xMidYMid meet" color="#fff" fill="#fff" stroke="none"><g transform="translate(10 86.147453)"><g><g><path d="M 10 -21.15 l -10 10 l 0 -33.85 l -10 10 l 0 36.2 l 10 -9.95 l 0 33.75 l 10 -10 l 0 -36.15 z"></path><g><path d="M 0 45 l 10 -10 l 0 -20 q -7.3 -5 -10 10 l 0 20 z"></path></g></g></g></g></svg><svg x="986" y="0" width="18" height="52" viewBox="0 0 60 172.294907" preserveAspectRatio="xMidYMid meet" color="#fff" fill="#fff" stroke="none"><g transform="translate(30 86.147453)"><g><g><path d="M 2.5 -17.5 l 12.5 12.5 l -25 0 l -10 10 l 40 0 l 10 -10 l -20 -20 l -7.5 7.5 z"></path><path d="M -20 15 l -10 10 l 50 0 l 10 -10 l -50 0 z"></path></g></g></g></svg><svg x="1007" y="0" width="17" height="52" viewBox="0 0 55 172.294907" preserveAspectRatio="xMidYMid meet" color="#fff" fill="#fff" stroke="none"><g transform="translate(27.5 86.147453)"><g><g><path d="M 27.5 -24.974999999999987 l -10 10 l 0 20 l -35 0 l -10 10 l 29.95 29.95 l 7.5 -7.5 l -22.45 -22.45 l 30 0 l 10 -10 l 0 -30 z"></path><path d="M 10 -34.974999999999994 l 10 -10 l -30 0 l -10 10 l 30 0 z"></path></g></g></g></svg><svg x="1027" y="0" width="23" height="52" viewBox="0 0 77.5 172.294907" preserveAspectRatio="xMidYMid meet" color="#fff" fill="#fff" stroke="none"><g transform="translate(38.75 86.147453)"><g><g><path d="M 6.25 15 l 7.5 -7.5 -32.5 -32.5 -7.5 7.5 32.5 32.5 m -17.5 -10 l -7.5 7.5 32.5 32.5 7.5 -7.5 -32.5 -32.5 z"></path><path d="M 11.149999999999999 35 q -1.655 2.716 2.6 10 l 15 0 l 10 -10 l -20 0 q -7.015 -2.931 -7.6 0 z"></path><path d="M -38.75 25 l 20 20 l 7.5 -7.5 l -20 -20 l -7.5 7.5 z"></path><path d="M 6.25 -17.5 l 20 20 l 7.5 -7.5 l -20 -20 l -7.5 7.5 z"></path><path d="M 7.5 -35 l 10 -10 l -30 0 l -10 10 l 30 0 z"></path></g></g></g></svg><svg x="1053" y="0" width="22" height="52" viewBox="0 0 72.5 172.294907" preserveAspectRatio="xMidYMid meet" color="#fff" fill="#fff" stroke="none"><g transform="translate(36.25 86.147453)"><g><g><path d="M -28.75 -33.75 l -7.5 7.5 57.5 62.5 7.5 -7.5 -57.5 -62.5 z"></path><path d="M -26.25 18.75 l -10 10 l 0 25 l 10 -10 l 0 -25 z"></path><path d="M 23.85 -23.75 l -8.8 8.8 l 1.2 1.2 l 20 -20 l -30 0 l -10 10 l 27.6 0 z"></path><path d="M 6.25 -43.75 l 10 -10 l -30 0 l -10 10 l 30 0 z"></path></g></g></g></svg><svg x="1078" y="0" width="27" height="52" viewBox="0 0 89.65 172.294907" preserveAspectRatio="xMidYMid meet" color="#fff" fill="#fff" stroke="none"><g transform="translate(44.825 86.147453)"><g><g><path d="M 19.82500000000001 38.75 l 7.5 -7.5 -26.9 -26.9 7.45 -7.55 -28.05 -28.05 -7.5 7.5 26.9 26.9 -7.5 7.5 28.1 28.1 z"></path><path d="M -22.674999999999997 -28.75 l -5 5 l -10 -10 l -7.15 7.15 l 11.3 11.2 l 7 -7.1 l 1 -1 q 3.183 1.742 3.85 0 q 0.916 -1.293 0 -6.25 z"></path><path d="M 17.225 28.75 q -1.655 2.716 2.6 10 l 15 0 l 10 -10 l -20 0 q -7.015 -2.931 -7.6 0 z"></path><path d="M -22.674999999999997 21.25 l -10 10 l 0 25 l 10 -10 l 0 -25 z"></path><path d="M -7.674999999999997 -48.75 l 7.5 7.5 l 7.5 -7.5 l -7.5 -7.5 l -7.5 7.5 z"></path></g></g></g></svg><svg x="1108" y="0" width="23" height="52" viewBox="0 0 77.5 172.294907" preserveAspectRatio="xMidYMid meet" color="#fff" fill="#fff" stroke="none"><g transform="translate(38.75 86.147453)"><g><g><path d="M 6.25 15 l 7.5 -7.5 -32.5 -32.5 -7.5 7.5 32.5 32.5 m -17.5 -10 l -7.5 7.5 32.5 32.5 7.5 -7.5 -32.5 -32.5 z"></path><path d="M 11.149999999999999 35 q -1.655 2.716 2.6 10 l 15 0 l 10 -10 l -20 0 q -7.015 -2.931 -7.6 0 z"></path><path d="M -38.75 25 l 20 20 l 7.5 -7.5 l -20 -20 l -7.5 7.5 z"></path><path d="M 6.25 -17.5 l 20 20 l 7.5 -7.5 l -20 -20 l -7.5 7.5 z"></path><path d="M 7.5 -35 l 10 -10 l -30 0 l -10 10 l 30 0 z"></path></g></g></g></svg><svg x="1134" y="0" width="17" height="52" viewBox="0 0 55 172.294907" preserveAspectRatio="xMidYMid meet" color="#fff" fill="#fff" stroke="none"><g transform="translate(27.5 86.147453)"><g><g><path d="M 27.5 -24.974999999999987 l -10 10 l 0 20 l -35 0 l -10 10 l 29.95 29.95 l 7.5 -7.5 l -22.45 -22.45 l 30 0 l 10 -10 l 0 -30 z"></path><path d="M 10 -34.974999999999994 l 10 -10 l -30 0 l -10 10 l 30 0 z"></path></g></g></g></svg><svg x="1154" y="0" width="18" height="52" viewBox="0 0 60 172.294907" preserveAspectRatio="xMidYMid meet" color="#fff" fill="#fff" stroke="none"><g transform="translate(30 86.147453)"><g><g><path d="M 2.5 -17.5 l 12.5 12.5 l -25 0 l -10 10 l 40 0 l 10 -10 l -20 -20 l -7.5 7.5 z"></path><path d="M -20 15 l -10 10 l 50 0 l 10 -10 l -50 0 z"></path></g></g></g></svg><svg x="1175" y="0" width="6" height="52" viewBox="0 0 20 172.294907" preserveAspectRatio="xMidYMid meet" color="#fff" fill="#fff" stroke="none"><g transform="translate(10 86.147453)"><g><g><path d="M 10 -21.15 l -10 10 l 0 -33.85 l -10 10 l 0 36.2 l 10 -9.95 l 0 33.75 l 10 -10 l 0 -36.15 z"></path><g><path d="M 0 45 l 10 -10 l 0 -20 q -7.3 -5 -10 10 l 0 20 z"></path></g></g></g></g></svg><svg x="1184" y="0" width="18" height="52" viewBox="0 0 60 172.294907" preserveAspectRatio="xMidYMid meet" color="#fff" fill="#fff" stroke="none"><g transform="translate(30 86.147453)"><g><g><path d="M -2.049999999999997 -27.5 l -7.5 7.5 l 21.65 27.5 l 7.45 -7.5 l -21.6 -27.5 z"></path><path d="M -20 17.5 l -10 10 l 50 0 l 10 -10 l -50 0 z"></path></g></g></g></svg><svg x="1205" y="0" width="17" height="52" viewBox="0 0 55 172.294907" preserveAspectRatio="xMidYMid meet" color="#fff" fill="#fff" stroke="none"><g transform="translate(27.5 86.147453)"><g><g><path d="M 19.999999999999996 35 l 7.5 -7.5 -26.9 -26.9 7.45 -7.55 -28.05 -28.05 -7.5 7.5 26.9 26.9 -7.5 7.5 28.1 28.1 z"></path></g></g></g></svg><svg x="1225" y="0" width="17" height="52" viewBox="0 0 55 172.294907" preserveAspectRatio="xMidYMid meet" color="#fff" fill="#fff" stroke="none"><g transform="translate(27.5 86.147453)"><g><g><path d="M 27.5 -34.97499999999999 l -10 10 l 0 20 l -35 0 l -10 10 l 29.95 29.95 l 7.5 -7.5 l -22.45 -22.45 l 30 0 l 10 -10 l 0 -30 z"></path><path d="M -7.5 -52.474999999999994 l 7.5 7.5 l 7.5 -7.5 l -7.5 -7.5 l -7.5 7.5 z"></path><path d="M -7.5 52.474999999999994 l 7.5 7.5 l 7.5 -7.5 l -7.5 -7.5 l -7.5 7.5 z"></path></g></g></g></svg><svg x="1245" y="0" width="9" height="52" viewBox="0 0 28.8 172.294907" preserveAspectRatio="xMidYMid meet" color="#fff" fill="#fff" stroke="none"><g transform="translate(14.4 86.147453)"><g><g><path d="M 14.4 -14.074999999999998 l -10 10 l 0 -33.85 l -10 10 l 0 36.2 l 10 -9.95 l 0 33.75 l 10 -10 l 0 -36.15 z"></path><g><path d="M 14.4 22.075000000000003 l 0 -5 q -6.25 9 -10 5 l 0 7.6 l -11.8 -11.7 l -7 7 l 12.95 12.95 l 15.85 -15.85 z"></path></g></g></g></g></svg></g>
</svg>
