<svg xmlns="http://www.w3.org/2000/svg" viewBox="0 0 77.5 172.294907" width="77.5" height="172.294907" fill="currentColor" stroke="none">
<g transform="translate(38.75 86.147453)"><g><g><path d="M 13.75 38.75 l 7.5 -7.5 -26.9 -26.9 7.45 -7.55 -28.05 -28.05 -7.5 7.5 26.9 26.9 -7.5 7.5 28.1 28.1 z"></path><path d="M 11.149999999999999 28.75 q -1.655 2.716 2.6 10 l 15 0 l 10 -10 l -20 0 q -7.015 -2.931 -7.6 0 z"></path><path d="M -38.75 31.25 l 0 25 l 20 -20 l -1.2 -1.2 l -8.8 8.8 l 0 -22.6 l -10 10 z"></path><path d="M -13.75 -48.75 l 7.5 7.5 l 7.5 -7.5 l -7.5 -7.5 l -7.5 7.5 z"></path></g></g></g>
</svg>
