<svg xmlns="http://www.w3.org/2000/svg" viewBox="0 0 84.9 172.294907" width="84.9" height="172.294907" fill="currentColor" stroke="none">
<g transform="translate(42.45 86.147453)"><g><g fill="currentColor"><path d="M -32.45 -45 l -10 10 l 0 60 l 10 -10 l 0 -50 l 30 0 l 10 -10 l -40 0 z"></path><path d="M -14.850000000000001 -25 l 22.4 0 l 9.9 -10 l -19.9 0 l 10 -10 l -12.65 0 q 5.504 3.447 -5.3 10 l 5.5 0 l -9.95 10 z"></path><path d="M -32.800000000000004 12.899999999999999 q -0.375 0.363 -1.15 1.15 q -6.261 1.099 -8.5 -3.8 l 0 14.75 l 10 -10 l 10 10 l 7.15 -7.15 l -11.3 -11.2 l -5.85 5.9 q -0.04 0.029 -0.35 0.35 z"></path><path d="M -2.5 45 l 10 -10 l -30 0 l -10 10 l 30 0 z"></path><path d="M 27.450000000000003 -10 l 7.5 7.5 l 7.5 -7.5 l -7.5 -7.5 l -7.5 7.5 z"></path></g></g></g>
</svg>
