<svg xmlns="http://www.w3.org/2000/svg" viewBox="0 0 37.45 172.294907" width="37.45" height="172.294907" fill="currentColor" stroke="none">
<g transform="translate(18.725 86.147453)"><g><g><path d="M 16.324999999999996 -10.000000000000002 l -10 10 l 0 -33.85 l -10 10 l 0 36.2 l 10 -9.95 l 0 33.75 l 10 -10 l 0 -36.15 z"></path><g><path d="M 18.725 -43.85 l -22.4 0 l -10 10.1 l 19.9 0 l 0.1 -0.1 l 0 0.1 l -0.05 0 l -9.95 9.9 l 0 5 q 5 -5.774 10 -5 l 0 -7.55 l 12.4 -12.4 z"></path></g><g><path d="M 6.274999999999999 33.85 l -15 0 l -10 10 l 17.4 0 l 17.65 -17.7 l 0 -7.3 q -5.4 4.35 -10 2.75 l 0 12.25 z"></path></g></g></g></g>
</svg>
