<svg xmlns="http://www.w3.org/2000/svg" viewBox="0 0 47.6 172.294907" width="47.6" height="172.294907" fill="currentColor" stroke="none">
<g transform="translate(23.8 86.147453)"><g><g><path d="M 16.199999999999996 -30.65 l -10 10 l 0 20 l -20 0 l -10 10 l 0 30 l 30 0 l 10 -10 l -30 0 l 0 -20 l 20 0 l 10 -10 l 0 -30 z"></path><g><path d="M 16.199999999999996 -15.649999999999999 l 0 -15 l -12.6 0 l 7.5 -7.5 l -1.2 -1.2 l -18.7 18.7 l 15 0 l 0 10 q 3.85 -7.75 10 -5 z"></path></g><g><path d="M 8.549999999999997 29.35 q 0.465 4.718 -7.9 10 l 5.55 0 l 17.6 -17.6 l 0 -15 l -10 10 l 0 12.6 l -5.25 0 z"></path></g></g></g></g>
</svg>
