<svg xmlns="http://www.w3.org/2000/svg" viewBox="0 0 55.45 172.294907" width="55.45" height="172.294907" fill="currentColor" stroke="none">
<g transform="translate(27.725 86.147453)"><g><g><path d="M 17.124999999999993 -5.375 l 10 -10 l -29.85 -29.85 l -7.5 7.5 l 22.35 22.35 l -20 0 l -15 15 l 25.6 25.6 l 7.5 -7.5 l -23.1 -23.1 l 30 0 z"></path><g><path d="M -0.12500000000000355 -35.225 q 1.65 -2.7 -2.6 -10 l -12.6 0 l 7.5 -7.5 l -1.2 -1.2 l -18.7 18.7 l 20 0 q 7 2.95 7.6 0 z"></path></g><g><path d="M 0.12499999999999645 15.225000000000001 q -1.65 2.7 2.6 10 l 12.6 0 l -7.5 7.5 l 1.2 1.2 l 18.7 -18.7 l -20 0 q -7 -2.95 -7.6 0 z"></path></g><path d="M 9.999999999999993 53.925000000000004 l 10 -10 l -30 0 l -10 10 l 30 0 z"></path></g></g></g>
</svg>
