<svg xmlns="http://www.w3.org/2000/svg" viewBox="0 0 72.4 172.294907" width="72.4" height="172.294907" fill="currentColor" stroke="none">
<g transform="translate(36.2 86.147453)"><g><g><path d="M -16.200000000000003 -32.5 l -7.5 7.5 l 31.25 31.25 l -31.25 31.25 l 40 0 l 10 -10 l -37.6 0 l 27.5 -27.6 l -32.4 -32.4 z"></path><g><path d="M -36.2 -22.5 l 15 0 q 7 2.95 7.6 0 q 1.65 -2.7 -2.6 -10 l -10 0 l 0 -15 l -10 10 l 0 15 z"></path></g><g><path d="M 3.8999999999999986 47.5 l 22.4 0 l 9.9 -10 l -19.9 0 l 10 -10 l -12.65 0 q 5.504 3.447 -5.3 10 l 5.5 0 l -9.95 10 z"></path></g></g></g></g>
</svg>
