<svg xmlns="http://www.w3.org/2000/svg" viewBox="0 0 96.2 172.294907" width="96.2" height="172.294907" fill="currentColor" stroke="none">
<g transform="translate(48.1 86.147453)"><g><g><path d="M -24.4 -37.348472949389176 l -10 10 l 17.5 17.5 l -15 0 l -16.2 16.15 l 26.35 26.35 l 7.5 -7.5 l -25 -25 l 32.35 0 l 7.5 -7.5 l -20 -20 l 35 0 l 10 -10 l -50 0 z"></path><g><path d="M 48.099999999999994 -29.848472949389176 l -1.2 -1.2 l -7.5 7.5 l -13.8 -13.8 q -8.65 2.75 -10 10 l 5 0 l 12.5 12.5 l 15 -15 z"></path></g><g><path d="M -15.399999999999999 24.001527050610825 l 0 -0.05 q -8.1 -2.8 -6.35 8.7 l 6.35 -6.3 q 9.4 17.75 21.2 6.85 q -12.25 2.15 -14.85 -15.5 l -6.35 6.3 z"></path></g></g></g></g>
</svg>
