<svg xmlns="http://www.w3.org/2000/svg" viewBox="0 0 598.7 153.8" width="598.7" height="153.8" fill="currentColor" stroke="none">
<g transform="translate(299.35 76.9)"><g><g><path d="M -281.15000000000003 -38.10000000000001 l -10 10 l 0 60 l 10 -10 l 0 -60 z"></path><g><path d="M -279.35 43.69999999999999 l -11.8 -11.8 l 10 -10 l 0 -5 q -5.188 7.964 -10 5 l 0 7.7 l -8.2 8.2 l 13 12.9 l 7 -7 z"></path></g></g><g><path d="M -257.55 -38.10000000000001 l -7.5 7.5 l 31.25 31.25 l -31.25 31.25 l 40 0 l 10 -10 l -37.6 0 l 27.5 -27.6 l -32.4 -32.4 z"></path><g><path d="M -269.35 -49.900000000000006 l 11.8 11.8 l -5 5 q 7.681 1.687 7.1 -0.5 l -0.95 -3.35 l 7.05 -7.05 l -13 -12.9 z"></path></g><g><path d="M -237.45000000000002 41.89999999999999 l 22.4 0 l 9.9 -10 l -19.9 0 l 10 -10 l -12.65 0 q 5.504 3.447 -5.3 10 l 5.5 0 l -9.95 10 z"></path></g><path d="M -227.25 -66.9 l 10 -10 l -30 0 l -10 10 l 30 0 z"></path></g><g><path d="M -185.15000000000003 -38.10000000000001 l -10 10 l 0 60 l 10 -10 l 0 -60 z"></path><g><path d="M -195.15000000000003 -28.10000000000001 l 0 5 q 6.25 -9 10 -5 l 0 -7.6 l 11.8 11.7 l 7 -7 l -12.95 -12.95 l -15.85 15.85 z"></path></g></g><g><path d="M -123.80000000000001 -38.10000000000001 l -7.5 7.5 l 31.25 31.25 l -31.25 31.25 l 40 0 l 10 -10 l -37.6 0 l 27.5 -27.6 l -32.4 -32.4 z"></path><g><path d="M -131.3 -30.60000000000001 l -15.05 0 l -10 10 l 17.45 0 l 8.75 -8.8 q 6.9 0.2 3.8 -6.15 l -4.95 4.95 z"></path></g><g><path d="M -101.30000000000001 21.89999999999999 q 6.368 3.408 0 10 l 10 0 l 10 -10 l 0 -15 l -10 10 l 0 5 l -10 0 z"></path></g><path d="M -108.82500000000002 -48.10000000000001 l 10 -10 l -30 0 l -10 10 l 30 0 z"></path></g><g><path d="M -61.30000000000001 -38.10000000000001 l -10 10 l 0 60 l 10 -10 l 0 -60 z"></path><g><path d="M -71.30000000000001 16.89999999999999 l 0 15 l 10 -10 l 0 20 l 10 -9.9 l 0 -22.4 l -10 9.95 l 0 -5.15 q -5 6.1 -10 2.5 z"></path></g></g><g><path d="M -30.150000000000034 -38.025000000000006 l -10 10 l 0 40 l 9.55 -9.55 l 20.65 29.4 l 7.5 -7.5 l -21.6 -30.85 l -6.1 6.1 l 0 -37.6 z"></path><path d="M -11.300000000000011 -48.02500000000001 l 10 -10 l -30 0 l -10 10 l 30 0 z"></path></g><g><path d="M 16.19999999999999 -38.10000000000001 l -7.5 7.5 57.5 62.5 7.5 -7.5 -57.5 -62.5 z"></path><path d="M 17.349999999999966 -36.95000000000001 l 15.05 0 l 10 -10 l -17.45 0 l -8.75 8.85 q -1.75 3.2 -4.85 7.2 q 5.7 0.35 6 -6.05 z"></path><path d="M 70.64999999999998 25.499999999999993 q -1.825 3.28 -4.45 6.4 l -7.5 7.5 l -1.2 -1.2 l 7.5 -7.5 q -1.688 -4.106 -0.35 -4.55 q 1.45 -0.6 6 -0.65 z"></path><path d="M 51.19999999999999 -48.10000000000001 l 10 -10 l -30 0 l -10 10 l 30 0 z"></path></g><g><path d="M 98.75 -28.10000000000001 l 34.95 0 l 10 -10 l -50 0 l -10 10 l 25 25 l 0 35 l 10 -10 l 0 -30.05 l -19.95 -19.95 z"></path></g><g><path d="M 163.7 21.89999999999999 l -10 10 l 50 0 l 10 -10 l 0 -35 l -10 10 l -15 0 l 0 -35 l -10 10 l 0 35 l 17.35 0 l 7.65 -7.6 l 0 22.6 l -40 0 z"></path><path d="M 173.7 51.89999999999999 l 0 25 l 20 -20 l -1.2 -1.2 l -8.8 8.8 l 0 -22.6 l -10 10 z"></path></g><g><path d="M 233.70000000000005 21.824999999999992 l -10 10 l 65.75 0 l 9.9 -9.95 l -30.45 -37.55 l -7.25 7.3 l -24.15 -29.65 l -7.45 7.4 l 25.2 31.05 l 7.5 -7.45 l 23.1 28.85 l -52.15 0 z"></path><path d="M 271.5250000000001 66.82499999999999 l 0 -25 l -20 20 l 1.2 1.2 l 8.8 -8.8 l 0 22.6 l 10 -10 z"></path></g></g></g>
</svg>
