<svg xmlns="http://www.w3.org/2000/svg" viewBox="0 0 637.161572 153.775" width="637.161572" height="153.775" fill="currentColor" stroke="none">
<g transform="translate(318.580786 76.8875)"><g><g><path d="M -303.5807861328124 -48.0375 l -7.5 7.5 57.5 62.5 7.5 -7.5 -57.5 -62.5 z"></path><path d="M -288.5807861328124 21.9625 l 10 -10 l -30 0 l -10 10 l 30 0 z"></path><path d="M -268.5807861328124 -58.0375 l 10 -10 l -30 0 l -10 10 l 30 0 z"></path></g><g><path d="M -221.0307861328124 -38.0375 l 34.95 0 l 10 -10 l -50 0 l -10 10 l 25 25 l 0 35 l 10 -10 l 0 -30.05 l -19.95 -19.95 z"></path></g><g><path d="M -138.38078613281243 21.887499999999996 l 10 -10 l 0 -40 l -9.55 9.55 l -20.65 -29.4 l -7.5 7.5 l 21.6 30.85 l 6.1 -6.1 l 0 37.6 z"></path><g><path d="M -138.38078613281243 21.887499999999996 l 0 -0.1 l 0.05 0 l 9.95 -9.9 l 0 -5 q -5 5.75 -10 5 l 0 7.55 l -12.4 12.45 l 22.4 0 l 17.5 -17.5 l -1.2 -1.2 l -8.6 8.6 l -17.6 0 l -0.1 0.1 z"></path></g><path d="M -128.48078613281243 -57.9625 l 10 -10 l -30 0 l -10 10 l 30 0 z"></path><path d="M -148.48078613281243 51.887499999999996 l 0 25 l 20 -20 l -1.2 -1.2 l -8.8 8.8 l 0 -22.6 l -10 10 z"></path></g><g><path d="M -90.88078613281243 -48.0375 l -10 10 l 0 60 l 10 -10 l 0 -60 z"></path><g><path d="M -100.88078613281243 6.962499999999999 l 0 15 l 15 0 l 10 -10 l -15 0 l 0 -10 q -3.874 7.753 -10 5 z"></path></g></g><g><path d="M -55.980786132812455 -48.0625 l -9.9 9.95 l 47.35 58.35 l 0.05 0 l 1.4 1.75 l 7.5 -7.5 l -42.7 -52.55 l 52.05 0 l 10 -10 l -65.75 0 z"></path><g><path d="M -2.0807861328124204 36.98750000000001 l 7.5 -7.5 l -15 -15 q -6.8 0.5 -7.5 7.5 l 15 15 z"></path></g><path d="M -18.055786132812443 -58.0625 l 10 -10 l -30 0 l -10 10 l 30 0 z"></path></g><g><path d="M 42.16921386718752 -48.0375 l -10 10 l 0 60 l 10 -10 l 0 -60 z"></path><g><path d="M 19.769213867187545 31.9625 l 22.4 0 l 10 -10.1 l -19.9 0 l -0.1 0.1 l 0 -0.1 l 0.05 0 l 9.95 -9.9 l 0 -5 q -5 5.774 -10 5 l 0 7.55 l -12.4 12.4 z"></path></g></g><g><path d="M 69.66921386718752 -48.0375 l -7.5 7.5 l 31.25 31.25 l -31.25 31.25 l 40 0 l 10 -10 l -37.6 0 l 27.5 -27.6 l -32.4 -32.4 z"></path><g><path d="M 70.8192138671875 -46.8875 l 15.05 0 l 10 -10 l -17.45 0 l -8.75 8.85 q -1.75 3.2 -4.85 7.2 q 5.7 0.35 6 -6.05 z"></path></g><g><path d="M 107.16921386718752 21.9625 l 12.5 12.5 l 7.5 -7.5 l -15 -15 q -8.65 2.75 -10 10 l 5 0 z"></path></g><path d="M 104.66921386718752 -66.8875 l 10 -10 l -30 0 l -10 10 l 30 0 z"></path></g><g><path d="M 157.16921386718752 -24.1875 l -10 10 l 0 -33.85 l -10 10 l 0 36.2 l 10 -9.95 l 0 33.75 l 10 -10 l 0 -36.15 z"></path><g><path d="M 147.16921386718752 6.3125 l 0 15.65 l 10 -10.05 q 10.8 2.6 16.2 18.85 q 0.35 -21.9 -9.85 -27.5 l -6.35 6.35 l 0 -8.1 q -4.8 9.5 -10 4.8 z"></path></g></g><g><path d="M 211.3807861328125 -4.937500000000002 l 7.45 -7.5 27.05 34.4 7.5 -7.5 -27.8 -36 -7.75 7.8 -26.95 -34.3 -7.5 7.5 28 35.6 z"></path><path d="M 192.0307861328124 -40.5375 q 1.328 -4.078 -0.8 -6.7 l 0.8 0.35 q 19.05 9.15 23.7 -6.2 q -7.65 9.4 -17.35 -2.45 l -15 15 q 4.648 1.323 8.65 0 z"></path><path d="M 243.28078613281247 11.962499999999999 q -1.655 2.716 2.6 10 l 15 0 l 10 -10 l -20 0 q -7.015 -2.931 -7.6 0 z"></path><path d="M 185.88078613281243 1.9624999999999986 l 20 20 l 7.5 -7.5 l -20 -20 l -7.5 7.5 z"></path><path d="M 248.3807861328125 -38.0375 l 10 -10 l -30 0 l -10 10 l 30 0 z"></path></g><g><path d="M 290.8807861328125 -47.9625 l -10 10 l 0 40 l 9.55 -9.55 l 20.65 29.4 l 7.5 -7.5 l -21.6 -30.85 l -6.1 6.1 l 0 -37.6 z"></path></g></g></g>
</svg>
