<svg xmlns="http://www.w3.org/2000/svg" viewBox="0 0 65 172.294907" width="65" height="172.294907" fill="currentColor" stroke="none">
<g transform="translate(32.5 86.147453)"><g><g><path d="M -22.5 -37.074999999999996 l -10 10 l 0 35 l 26.3 0 l 8.7 -8.75 l 0 33.75 l 10 -10 l 0 -36.15 l -11.15 11.15 l -23.85 0 l 0 -35 z"></path><g><path d="M -32.5 -27.074999999999996 l 0 5 q 6.25 -9 10 -5 l 0 -7.6 l 11.8 11.7 l 7 -7 l -12.95 -12.95 l -15.85 15.85 z"></path></g><g><path d="M 32.5 32.925000000000004 l -15 0 l 10 -10 l -15 0 l 0 -10 q -3.85 7.75 -10 5 l 0 15 l 12.55 0 l -9.95 10 l 17.4 0 l 10 -10 z"></path></g></g></g></g>
</svg>
