<svg xmlns="http://www.w3.org/2000/svg" viewBox="0 0 72.5 172.294907" width="72.5" height="172.294907" fill="currentColor" stroke="none">
<g transform="translate(36.25 86.147453)"><g><g><path d="M 26.25 12.5 l 10 -10 l 0 -36.3 l -10 10.05 l 0 -33.75 l -10 10 l 0 36.15 l 10 -10 l 0 23.85 l -30 0 l -10 10 l 40 0 z"></path><g><path d="M -36.25 5 l 1.2 1.2 l 7.5 -7.5 l 13.8 13.8 q 8.65 -2.75 10 -10 l -5 0 l -12.5 -12.5 l -15 15 z"></path></g><path d="M -10 32.5 l 0 25 l 20 -20 l -1.2 -1.2 l -8.8 8.8 l 0 -22.6 l -10 10 z"></path></g></g></g>
</svg>
