<svg xmlns="http://www.w3.org/2000/svg" viewBox="0 0 100.2 172.294907" width="100.2" height="172.294907" fill="currentColor" stroke="none">
<g transform="translate(50.1 86.147453)"><g><g><path d="M -7.549999999999997 -29.450000000000003 l -10 10 l 0 60 l 10 -10 l 0 -50 l 30 0 l 10 -10 l -40 0 z"></path><g><path d="M 37.599999999999994 -36.95 l -7.5 7.5 l -11.1 0 q 3.05 5.25 -1.5 10 l 5 0 l 8.8 -8.85 q 0.445 14.232 18.8 18.85 q -12.993 -10.704 -12.45 -27.5 z"></path></g><g><path d="M -7.549999999999997 30.549999999999997 l 0 -7.3 q -4.546 5.888 -10 3.05 l 0 11.95 l -15.05 0 l -17.5 17.5 l 1.2 1.2 l 8.7 -8.7 l 15 0 l 17.65 -17.7 z"></path></g><path d="M 10.000000000000007 -46.95 l 10 -10 l -30 0 l -10 10 l 30 0 z"></path></g></g></g>
</svg>
