<svg xmlns="http://www.w3.org/2000/svg" viewBox="0 0 646.55 148.9" width="646.55" height="148.9" fill="currentColor" stroke="none">
<g transform="translate(323.275 74.45)"><g><g><path d="M -315.7749999999999 -46.95 l -7.5 7.5 57.5 62.5 7.5 -7.5 -57.5 -62.5 z"></path></g><g><path d="M -240.77499999999992 -46.95 l -7.5 7.5 l 31.25 31.25 l -31.25 31.25 l 40 0 l 10 -10 l -37.6 0 l 27.5 -27.6 l -32.4 -32.4 z"></path></g><g><path d="M -178.27499999999992 -46.95 l -10 10 l 0 60 l 40 0 l 10 -10 l -40 0 l 0 -60 z"></path><g><path d="M -165.77499999999992 53.25 l 1.2 1.2 l 16.3 -16.3 l 0 -15.1 l 10 -10 l -18.3 0 q 4.75 2.3 -1.7 10 l 7.6 0 l 0.25 -0.2 l -7.85 7.85 l 0 15.05 l -7.5 7.5 z"></path></g><path d="M -153.27499999999992 74.45 l 10 -10 l -30 0 l -10 10 l 30 0 z"></path></g><g><path d="M -118.27499999999992 -46.95 l -10 10 l 0 60 l 10 -10 l 0 -60 z"></path><g><path d="M -128.27499999999992 8.049999999999997 l 0 15 l 15 0 l 10 -10 l -15 0 l 0 -10 q -3.874 7.753 -10 5 z"></path></g></g><g><path d="M -82.12499999999991 -46.875 l -10 10 l 0 40 l 9.55 -9.55 l 20.65 29.4 l 7.5 -7.5 l -21.6 -30.85 l -6.1 6.1 l 0 -37.6 z"></path><path d="M -63.27499999999992 -56.87500000000001 l 10 -10 l -30 0 l -10 10 l 30 0 z"></path></g><g><path d="M -24.424999999999898 -46.95 l -7.5 7.5 57.5 62.5 7.5 -7.5 -57.5 -62.5 z"></path><path d="M -24.424999999999898 -46.95 l -7.05 7.05 q 4.298 1.674 7.9 -0.9 q 1.089 -2.895 0.3 -4.95 l 7.5 -7.55 q -16.8 0.55 -27.5 -12.45 q 4.6 18.35 18.85 18.8 z"></path><path d="M -31.924999999999898 15.549999999999997 l 0 25 l 20 -20 l -1.2 -1.2 l -8.8 8.8 l 0 -22.6 l -10 10 z"></path><path d="M 28.175000000000125 -36.95 l -8.8 8.8 l 1.2 1.2 l 20 -20 l -30 0 l -10 10 l 27.6 0 z"></path></g><g><path d="M 60.5750000000001 -46.95 l -10 10 l 0 60 l 40 0 l 10 -10 l -40 0 l 0 -60 z"></path><g><path d="M 73.0750000000001 53.25 l 1.2 1.2 l 16.3 -16.3 l 0 -15.1 l 10 -10 l -18.3 0 q 4.75 2.3 -1.7 10 l 7.6 0 l 0.25 -0.2 l -7.85 7.85 l 0 15.05 l -7.5 7.5 z"></path></g></g><g><path d="M 173.0750000000001 23.049999999999997 l 10 -10 l 0 -36.3 l -10 10.05 l 0 -33.75 l -10 10 l 0 36.15 l 10 -10 l 0 23.85 l -30 0 l -10 10 l 40 0 z"></path><g><path d="M 110.5750000000001 15.549999999999997 l 1.2 1.2 l 7.5 -7.5 l 13.8 13.8 q 8.65 -2.75 10 -10 l -5 0 l -12.5 -12.5 l -15 15 z"></path></g><path d="M 136.8250000000001 43.05 l 0 25 l 20 -20 l -1.2 -1.2 l -8.8 8.8 l 0 -22.6 l -10 10 z"></path></g><g><path d="M 211.27500000000003 -46.95 l -10 10 l 0 60 l 10 -10 l 0 -60 z"></path><g><path d="M 213.0750000000001 34.849999999999994 l -11.8 -11.8 l 10 -10 l 0 -5 q -5.188 7.964 -10 5 l 0 7.7 l -8.2 8.2 l 13 12.9 l 7 -7 z"></path></g></g><g><path d="M 265.62500000000006 -46.95 l -10 10 l 0 60 l 10 -10 l 0 -50 l 30 0 l 10 -10 l -40 0 z"></path><g><path d="M 310.77500000000003 -54.45 l -7.5 7.5 l -11.1 0 q 3.05 5.25 -1.5 10 l 5 0 l 8.8 -8.85 q 0.445 14.232 18.8 18.85 q -12.993 -10.704 -12.45 -27.5 z"></path></g><g><path d="M 265.62500000000006 13.049999999999997 l 0 -7.3 q -4.546 5.888 -10 3.05 l 0 11.95 l -15.05 0 l -17.5 17.5 l 1.2 1.2 l 8.7 -8.7 l 15 0 l 17.65 -17.7 z"></path></g><path d="M 283.175 -64.45 l 10 -10 l -30 0 l -10 10 l 30 0 z"></path></g></g></g>
</svg>
