<svg xmlns="http://www.w3.org/2000/svg" viewBox="0 0 57.75 172.294907" width="57.75" height="172.294907" fill="currentColor" stroke="none">
<g transform="translate(28.875 86.147453)"><g><g><path d="M -26.125 25.474999999999987 l 10 -10 l 0 -20 l 35 0 l 10 -10 l -29.95 -29.95 l -7.5 7.5 l 22.45 22.45 l -30 0 l -10 10 l 0 30 z"></path><g><path d="M -19.075 -44.07500000000001 l 17.6 0 l -7.1 7.1 q 10.45 1.15 8.4 -5.9 l 11.2 -11.3 l -22.4 0 l -17.5 17.5 l 1.2 1.2 l 8.6 -8.6 z"></path></g><g><path d="M -26.125 10.474999999999994 l 0 15 l 12.6 0 l -7.5 7.5 l 1.2 1.2 l 18.7 -18.7 l -15 0 l 0 -10 q -3.85 7.75 -10 5 z"></path></g><path d="M -7.4999999999999964 -71.67500000000001 l 7.5 7.5 l 7.5 -7.5 l -7.5 -7.5 l -7.5 7.5 z"></path><path d="M -9.999999999999996 54.175 l 0 25 l 20 -20 l -1.2 -1.2 l -8.8 8.8 l 0 -22.6 l -10 10 z"></path></g></g></g>
</svg>
