<svg xmlns="http://www.w3.org/2000/svg" viewBox="0 0 89.65 172.294907" width="89.65" height="172.294907" fill="currentColor" stroke="none">
<g transform="translate(44.825 86.147453)"><g><g><path d="M -21.124999999999993 -37.10000000000001 l -10 10 l 17.5 17.5 l -15 0 l -16.2 16.15 l 26.35 26.35 l 7.5 -7.5 l -25 -25 l 32.35 0 l 7.5 -7.5 l -20 -20 l 35 0 l 10 -10 l -50 0 z"></path><g><path d="M 14.325000000000003 -27.10000000000001 l 4.55 0 l 8.8 -8.8 l 10 10 l 7.15 -7.15 l -11.3 -11.2 l -7.05 7.15 l -6.3 0 q 3.7 5 -5.85 10 z"></path></g><g><path d="M 5.2250000000000085 44.24999999999999 q 0.35 -21.9 -9.85 -27.5 l -6.3 6.35 l -2 2 q -8.054 -2.82 -4.35 6.65 l 6.3 -6.35 q 10.8 2.6 16.2 18.85 z"></path></g></g></g></g>
</svg>
