<svg xmlns="http://www.w3.org/2000/svg" viewBox="0 0 67.5 172.294907" width="67.5" height="172.294907" fill="currentColor" stroke="none">
<g transform="translate(33.75 86.147453)"><g><g><path d="M -23.75 -43.8 l -10 10 l 0 36.3 l 10 -10.05 l 0 33.75 l 10 -10 l 0 -36.15 l -10 10 l 0 -23.85 l 30 0 l 10 -10 l -40 0 z"></path><g><path d="M -6.149999999999999 -23.799999999999997 l 22.4 0 l 17.5 -17.5 l -1.2 -1.2 l -8.7 8.7 l -17.6 0 l 10 -10 l -12.65 0 q 5.5 3.45 -5.3 10 l 5.5 0 l -9.95 10 z"></path></g><g><path d="M -23.75 23.800000000000004 l -7.5 7.55 q 16.8 -0.55 27.5 12.45 q -4.6 -18.35 -18.85 -18.8 l 8.85 -8.8 l 0 -5 q -4.75 4.55 -10 1.5 l 0 11.1 z"></path></g></g></g></g>
</svg>
