<svg xmlns="http://www.w3.org/2000/svg" viewBox="0 0 70.4 99.7" width="70.4" height="99.7" fill="currentColor" stroke="none">
<g transform="translate(35.2 49.85)"><g><g fill="currentColor"><path d="M -14.899999999999999 -40.15 l -7.5 7.5 l 31.25 31.25 l -31.25 31.25 l 40 0 l 10 -10 l -37.6 0 l 27.5 -27.6 l -32.4 -32.4 z"></path><g><path d="M -14 -38.55 l 11.2 -11.3 l -22.4 0 l -10 10.1 l 19.9 0 l -7.1 7.1 q 10.446 1.157 8.4 -5.9 z"></path></g><g><path d="M 19.950000000000003 19.85 q 0.465 4.718 -7.9 10 l 5.55 0 l 17.6 -17.6 l 0 -15 l -10 10 l 0 12.6 l -5.25 0 z"></path></g><path d="M 10.000000000000007 49.85 l 10 -10 l -30 0 l -10 10 l 30 0 z"></path></g></g></g>
</svg>
