<svg xmlns="http://www.w3.org/2000/svg" viewBox="0 0 272.55 115" width="272.55" height="115" fill="currentColor" stroke="none">
<g transform="translate(136.275 57.5)"><g><g><path d="M -126.275 -22.5 l -10 10 l 0 60 l 10 -10 l 0 -60 z"></path><g><path d="M -136.275 32.5 l 0 15 l 10 -10 l 0 20 l 10 -9.9 l 0 -22.4 l -10 9.95 l 0 -5.15 q -5 6.1 -10 2.5 z"></path></g></g><g><path d="M -56.275000000000006 -12.5 l 10 -10 l -50 0 l -10 10 l 0 30 l 30 0 l 0 30 l 10 -10 l 0 -30 l -30 0 l 0 -20 l 40 0 z"></path><g><path d="M -66.275 -22.5 q 6.368 3.408 0 10 l 10 0 l 10 -10 l 0 -15 l -10 10 l 0 5 l -10 0 z"></path></g><g><path d="M -83.775 52.6 l 1.2 1.2 l 16.3 -16.3 l 0 -7.75 q -5 9.444 -10 6.55 l 0 8.8 l -7.5 7.5 z"></path></g><path d="M -66.275 -47.5 l 10 -10 l -30 0 l -10 10 l 30 0 z"></path></g><g><path d="M -8.775000000000006 1.3499999999999996 l -10 10 l 0 -33.85 l -10 10 l 0 36.2 l 10 -9.95 l 0 33.75 l 10 -10 l 0 -36.15 z"></path><g><path d="M -28.775000000000006 -1.3000000000000007 q 5 -12.14 10 -11.2 l 0 -10 l -17.5 17.5 l 1.2 1.2 l 6.3 -6.3 l 0 8.8 z"></path></g><g><path d="M -18.775000000000006 32.5 l 0 15 l 12.6 0 l -7.5 7.5 l 1.2 1.2 l 18.7 -18.7 l -15 0 l 0 -10 q -3.85 7.75 -10 5 z"></path></g></g><g><path d="M 43.724999999999994 1.3499999999999996 l -10 10 l 0 -33.85 l -10 10 l 0 36.2 l 10 -9.95 l 0 33.75 l 10 -10 l 0 -36.15 z"></path><g><path d="M 23.724999999999994 -1.3000000000000007 q 5 -12.14 10 -11.2 l 0 -10 l -17.5 17.5 l 1.2 1.2 l 6.3 -6.3 l 0 8.8 z"></path></g><g><path d="M 21.32499999999999 57.5 l 22.4 0 l 10 -10.1 l -19.9 0 l -0.1 0.1 l 0 -0.1 l 0.05 0 l 9.95 -9.9 l 0 -5 q -5 5.774 -10 5 l 0 7.55 l -12.4 12.4 z"></path></g></g><g><path d="M 83.725 1.3499999999999996 l -10 10 l 0 -33.85 l -10 10 l 0 36.2 l 10 -9.95 l 0 33.75 l 10 -10 l 0 -36.15 z"></path><g><path d="M 63.724999999999994 -12.5 l 0 7.3 q 4.546 -5.888 10 -3.05 l 0 -11.95 l 15.05 0 l 17.5 -17.5 l -1.2 -1.2 l -8.7 8.7 l -15 0 l -17.65 17.7 z"></path></g><g><path d="M 83.375 35.4 q -0.375 0.363 -1.15 1.15 q -6.261 1.099 -8.5 -3.8 l 0 14.75 l 10 -10 l 10 10 l 7.15 -7.15 l -11.3 -11.2 l -5.85 5.9 q -0.04 0.029 -0.35 0.35 z"></path></g></g><g><path d="M 136.275 1.3499999999999996 l -10 10 l 0 -33.85 l -10 10 l 0 36.2 l 10 -9.95 l 0 33.75 l 10 -10 l 0 -36.15 z"></path><g><path d="M 126.275 -42.5 l -10 10 l 0 20 q 7.3 5 10 -10 l 0 -20 z"></path></g><g><path d="M 118.775 52.6 l 1.2 1.2 l 16.3 -16.3 l 0 -7.75 q -5 9.444 -10 6.55 l 0 8.8 l -7.5 7.5 z"></path></g></g></g></g>
</svg>
