<svg xmlns="http://www.w3.org/2000/svg" viewBox="0 0 67.15 172.294907" width="67.15" height="172.294907" fill="currentColor" stroke="none">
<g transform="translate(33.575 86.147453)"><g><g><path d="M -6.425000000000004 -50.7 l -10 10 l 0 60 l 40 0 l 10 -10 l -40 0 l 0 -60 z"></path><g><path d="M -16.075000000000003 -38.6 q 0.375 -0.363 1.15 -1.15 q 6.261 -1.099 8.5 3.8 l 0 -14.75 l -10 10 l -10 -10 l -7.15 7.15 l 11.3 11.2 l 5.85 -5.9 q 0.04 -0.029 0.35 -0.35 z"></path></g><g><path d="M 6.074999999999996 49.5 l 1.2 1.2 l 16.3 -16.3 l 0 -15.1 l 10 -10 l -18.3 0 q 4.75 2.3 -1.7 10 l 7.6 0 l 0.25 -0.2 l -7.85 7.85 l 0 15.05 l -7.5 7.5 z"></path></g></g></g></g>
</svg>
