<svg xmlns="http://www.w3.org/2000/svg" viewBox="0 0 467 108.825" width="467" height="108.825" fill="currentColor" stroke="none">
<g transform="translate(233.5 54.4125)"><g><g><path d="M -215.3 -34.38750000000001 l -10 10 l 0 60 l 10 -10 l 0 -60 z"></path><g><path d="M -213.5 47.41249999999999 l -11.8 -11.8 l 10 -10 l 0 -5 q -5.188 7.964 -10 5 l 0 7.7 l -8.2 8.2 l 13 12.9 l 7 -7 z"></path></g></g><g><path d="M -148.5 -34.36250000000001 l -10 10 l 0 20 l -35 0 l -10 10 l 29.95 29.95 l 7.5 -7.5 l -22.45 -22.45 l 30 0 l 10 -10 l 0 -30 z"></path><g><path d="M -176.15 25.58749999999997 q -1.65 2.7 2.6 10 l 12.6 0 l -7.5 7.5 l 1.2 1.2 l 18.7 -18.7 l -20 0 q -7 -2.95 -7.6 0 z"></path></g><path d="M -166 -44.36250000000002 l 10 -10 l -30 0 l -10 10 l 30 0 z"></path></g><g><path d="M -128.5 -34.38750000000001 l -10 10 l 0 60 l 10 -10 l 0 -60 z"></path><g><path d="M -138.5 20.61249999999999 l 0 15 l 10 -10 l 0 20 l 10 -9.9 l 0 -22.4 l -10 9.95 l 0 -5.15 q -5 6.1 -10 2.5 z"></path></g></g><g><path d="M -98.6 -34.41250000000001 l -9.9 9.95 l 47.35 58.35 l 0.05 0 l 1.4 1.75 l 7.5 -7.5 l -42.7 -52.55 l 52.05 0 l 10 -10 l -65.75 0 z"></path><path d="M -60.67500000000001 -44.41250000000001 l 10 -10 l -30 0 l -10 10 l 30 0 z"></path></g><g><path d="M -6.550000000000011 -34.38750000000001 l -7.5 7.5 57.5 62.5 7.5 -7.5 -57.5 -62.5 z"></path><path d="M -12.850000000000023 -25.68750000000001 q 4.2 0.65 6.3 -2.7 q 0.8 -1 0 -6 l -6.3 6.3 l 0 -19.95 l -10 10.1 l 0 22.35 l 10 -10.1 z"></path><path d="M 48.44999999999999 -24.38750000000001 l 10 -10 l -30 0 l -10 10 l 30 0 z"></path><path d="M 28.44999999999999 -44.38750000000001 l 10 -10 l -30 0 l -10 10 l 30 0 z"></path></g><g><path d="M 78.44999999999999 -34.38750000000001 l -10 10 l 0 60 l 10 -10 l 0 -50 l 30 0 l 10 -10 l -40 0 z"></path><g><path d="M 78.44999999999999 14.41249999999999 q -5 12.14 -10 11.2 l 0 10 l 17.5 -17.5 l -1.2 -1.2 l -6.3 6.3 l 0 -8.8 z"></path></g></g><g><path d="M 138.45 -34.38750000000001 l -10 10 l 0 60 l 10 -10 l 0 -60 z"></path><g><path d="M 138.5 -32.08750000000001 l 15 0 l 10 -10 l -17.4 0 l -17.65 17.7 l 0 7.3 q 5.4 -4.35 10 -2.75 l 0 -12.25 z"></path></g><g><path d="M 138.45 25.61249999999999 l 15 0 l 10 -10 l -17.45 0 l -7.6 7.6 l 0.05 -5.05 q -4.6 6.3 -10 4 l 0 13.45 l 9.95 -10 z"></path></g></g><g><path d="M 188.55 -24.38750000000001 l 34.95 0 l 10 -10 l -50 0 l -10 10 l 25 25 l 0 35 l 10 -10 l 0 -30.05 l -19.95 -19.95 z"></path><g><path d="M 208.45 23.21249999999999 l 0.05 -5.05 q -4.6 6.3 -10 4 l 0 13.45 l 9.95 -10 l 12.65 0 l -7.5 7.5 l 1.2 1.2 l 18.7 -18.7 l -17.45 0 l -7.6 7.6 z"></path></g><path d="M 213.5 -44.38750000000001 l 10 -10 l -30 0 l -10 10 l 30 0 z"></path></g></g></g>
</svg>
