<svg xmlns="http://www.w3.org/2000/svg" viewBox="0 0 328.25 112.625" width="328.25" height="112.625" fill="currentColor" stroke="none">
<g transform="translate(164.125 56.3125)"><g><g><path d="M -156.625 -33.6875 l -7.5 7.5 57.5 62.5 7.5 -7.5 -57.5 -62.5 z"></path><path d="M -154.125 18.8125 l -10 10 l 0 25 l 10 -10 l 0 -25 z"></path></g><g><path d="M -79.225 -33.7125 l -9.9 9.95 l 47.35 58.35 l 0.05 0 l 1.4 1.75 l 7.5 -7.5 l -42.7 -52.55 l 52.05 0 l 10 -10 l -65.75 0 z"></path><g><path d="M -21.125 -33.7125 q 0.465 4.718 -7.9 10 l 5.55 0 l 17.6 -17.6 l 0 -15 l -10 10 l 0 12.6 l -5.25 0 z"></path></g><g><path d="M -32.82499999999999 28.837500000000013 q -6.8 0.5 -7.5 7.5 l 15 15 l 15 -15 l -1.2 -1.2 l -7.5 7.5 l -13.8 -13.8 z"></path></g></g><g><path d="M 14.125 -33.6875 l -10 10 l 0 60 l 10 -10 l 0 -60 z"></path></g><g><path d="M 34.125 -33.6875 l -10 10 l 0 60 l 10 -10 l 0 -50 l 30 0 l 10 -10 l -40 0 z"></path><g><path d="M 34.125 43.9125 l 0 -17.6 q -7.3 -5 -10 10 l 0 20 l 17.5 -17.5 l -1.2 -1.2 l -6.3 6.3 z"></path></g><path d="M 59.125 -43.6875 l 10 -10 l -30 0 l -10 10 l 30 0 z"></path></g><g><path d="M 94.125 -33.6875 l -10 10 l 0 60 l 10 -10 l 0 -60 z"></path><g><path d="M 84.125 21.3125 l 0 15 l 10 -10 l 0 20 l 10 -9.9 l 0 -22.4 l -10 9.95 l 0 -5.15 q -5 6.1 -10 2.5 z"></path></g></g><g><path d="M 124.125 -33.6875 l -10 10 l 0 36.3 l 10 -10.05 l 0 33.75 l 10 -10 l 0 -36.15 l -10 10 l 0 -23.85 l 30 0 l 10 -10 l -40 0 z"></path><path d="M 149.125 -43.6875 l 10 -10 l -30 0 l -10 10 l 30 0 z"></path></g></g></g>
</svg>
