<svg xmlns="http://www.w3.org/2000/svg" viewBox="0 0 67.5 130" width="67.5" height="130" fill="currentColor" stroke="none">
<g transform="translate(33.75 65)"><g><g fill="currentColor"><path d="M -18.700000000000003 -46.3 l 34.95 0 l 10 -10 l -50 0 l -10 10 l 25 25 l 0 35 l 10 -10 l 0 -30.05 l -19.95 -19.95 z"></path><g><path d="M 6.25 -46.3 l 10 0 l 17.5 -17.5 l -1.2 -1.2 l -8.7 8.7 l -7.6 0 q 0.83 5.4 -10 10 z"></path></g><g><path d="M -16.250000000000004 18.800000000000004 l 1.2 1.2 l 16.3 -16.3 l 0 -7.75 q -5 9.444 -10 6.55 l 0 8.8 l -7.5 7.5 z"></path></g><path d="M -10 40 l 0 25 l 20 -20 l -1.2 -1.2 l -8.8 8.8 l 0 -22.6 l -10 10 z"></path></g></g></g>
</svg>
