<svg xmlns="http://www.w3.org/2000/svg" viewBox="0 0 241.3 109.975" width="241.3" height="109.975" fill="currentColor" stroke="none">
<g transform="translate(120.65 54.9875)"><g><g><path d="M -96.85000000000001 -29.98749999999999 l -7.5 7.5 57.5 62.5 7.5 -7.5 -57.5 -62.5 z"></path><path d="M -96.85000000000001 -23.98749999999999 q 0.8 -1 0 -6 l -6.3 6.3 l 0 -19.95 l -17.5 17.5 l 1.2 1.2 l 6.3 -6.3 l 0 20.05 l 10 -10.1 q 4.2 0.65 6.3 -2.7 z"></path><path d="M -66.85000000000001 -22.48749999999999 l 20 20 l 7.5 -7.5 l -20 -20 l -7.5 7.5 z"></path><path d="M -79.35000000000001 -47.48749999999999 l 7.5 7.5 l 7.5 -7.5 l -7.5 -7.5 l -7.5 7.5 z"></path></g><g><path d="M 25.650000000000006 -29.96249999999999 l -10 10 l 0 20 l -35 0 l -10 10 l 29.95 29.95 l 7.5 -7.5 l -22.45 -22.45 l 30 0 l 10 -10 l 0 -30 z"></path><g><path d="M -2.000000000000014 29.98749999999999 q -1.655 2.716 2.6 10 l 15 0 l 10 -10 l -20 0 q -7.015 -2.931 -7.6 0 z"></path></g></g><g><path d="M 45.650000000000006 -29.98749999999999 l -10 10 l 0 60 l 10 -10 l 0 -60 z"></path><g><path d="M 35.650000000000006 25.01250000000001 l 0 15 l 10 -10 l 0 20 l 10 -9.9 l 0 -22.4 l -10 9.95 l 0 -5.15 q -5 6.1 -10 2.5 z"></path></g></g><g><path d="M 120.65 -29.96249999999999 l -10 10 l 0 20 l -35 0 l -10 10 l 29.95 29.95 l 7.5 -7.5 l -22.45 -22.45 l 30 0 l 10 -10 l 0 -30 z"></path><g><path d="M 110.99999999999997 -17.862499999999997 q 0.375 -0.363 1.15 -1.15 q 6.261 -1.099 8.5 3.8 l 0 -14.75 l -10 10 l -10 -10 l -7.15 7.15 l 11.3 11.2 l 5.85 -5.9 q 0.04 -0.029 0.35 -0.35 z"></path></g><g><path d="M 110.6 54.98749999999999 l 7.5 -7.5 l -15 -15 q -6.8 0.5 -7.5 7.5 l 15 15 z"></path></g><path d="M 103.15 -39.9625 l 10 -10 l -30 0 l -10 10 l 30 0 z"></path></g></g></g>
</svg>
