<svg xmlns="http://www.w3.org/2000/svg" viewBox="0 0 429 111.3" width="429" height="111.3" fill="currentColor" stroke="none">
<g transform="translate(214.5 55.65)"><g><g><path d="M -189.84999999999997 -35.650000000000006 l -7.5 7.5 57.5 62.5 7.5 -7.5 -57.5 -62.5 z"></path><path d="M -192.34999999999997 -33.150000000000006 l -5 5 l -10 -10 l -7.15 7.15 l 11.3 11.2 l 7 -7.1 l 1 -1 q 3.183 1.742 3.85 0 q 0.916 -1.293 0 -6.25 z"></path><path d="M -154.84999999999997 -45.650000000000006 l 10 -10 l -30 0 l -10 10 l 30 0 z"></path></g><g><path d="M -114.84999999999997 -35.650000000000006 l -7.5 7.5 l 31.25 31.25 l -31.25 31.25 l 40 0 l 10 -10 l -37.6 0 l 27.5 -27.6 l -32.4 -32.4 z"></path></g><g><path d="M -52.349999999999966 -35.650000000000006 l -10 10 l 0 60 l 10 -10 l 0 -60 z"></path><g><path d="M -52.29999999999998 -33.35000000000001 l 15 0 l 10 -10 l -17.4 0 l -17.65 17.7 l 0 7.3 q 5.4 -4.35 10 -2.75 l 0 -12.25 z"></path></g><g><path d="M -62.349999999999966 19.349999999999994 l 0 15 l 10 -10 l 0 20 l 10 -9.9 l 0 -22.4 l -10 9.95 l 0 -5.15 q -5 6.1 -10 2.5 z"></path></g></g><g><path d="M 2.7000000000000455 -35.650000000000006 l -10 10 l 0 50 l -10 10 l 45 0 l 10 -10 l -42.6 0 l 7.6 -7.6 l 0 -42.4 l 30 0 l 10 -10 l -40 0 z"></path><g><path d="M 37.700000000000045 24.349999999999994 l -15 0 q 2.75 6.15 -5 10 l 10 0 l 0 12.6 l -7.5 7.5 l 1.2 1.2 l 16.3 -16.3 l 0 -15 z"></path></g><path d="M 22.700000000000045 -45.650000000000006 l 10 -10 l -30 0 l -10 10 l 30 0 z"></path></g><g><path d="M 62.70000000000002 -35.650000000000006 l -10 10 l 0 60 l 10 -10 l 0 -60 z"></path></g><g><path d="M 83.85 -35.575 l -10 10 l 0 40 l 9.55 -9.55 l 20.65 29.4 l 7.5 -7.5 l -21.6 -30.85 l -6.1 6.1 l 0 -37.6 z"></path><path d="M 102.69999999999996 -45.57500000000001 l 10 -10 l -30 0 l -10 10 l 30 0 z"></path></g><g><path d="M 134.49999999999997 -35.650000000000006 l -10 10 l 0 60 l 10 -10 l 0 -60 z"></path><g><path d="M 122.69999999999996 -47.45 l 11.8 11.8 l -10 10 l 0 5 q 5.188 -7.964 10 -5 l 0 -7.7 l 8.2 -8.2 l -13 -12.9 l -7 7 z"></path></g><g><path d="M 124.49999999999997 19.349999999999994 l 0 15 l 15 0 l 10 -10 l -15 0 l 0 -10 q -3.874 7.753 -10 5 z"></path></g></g><g><path d="M 214.49999999999997 -35.62500000000001 l -10 10 l 0 20 l -35 0 l -10 10 l 29.95 29.95 l 7.5 -7.5 l -22.45 -22.45 l 30 0 l 10 -10 l 0 -30 z"></path><path d="M 196.99999999999997 -45.625000000000014 l 10 -10 l -30 0 l -10 10 l 30 0 z"></path></g></g></g>
</svg>
