<svg xmlns="http://www.w3.org/2000/svg" viewBox="0 0 72.3 118.75" width="72.3" height="118.75" fill="currentColor" stroke="none">
<g transform="translate(36.15 59.375)"><g><g><path d="M 36.15 -40.625 l -52.3 0 l -10 10 l 50 0 l -60 60 l 52.4 0 l 9.9 -10 l -49.8 0 l 59.8 -60 z"></path><g><path d="M -17.45 -59.375 l -16.3 16.3 l 0 22.45 l 10 -10 l 12.6 0 q -3.5 -4 0 -10 l -5 0 l -7.6 7.65 l 0 -17.7 l 7.5 -7.5 l -1.2 -1.2 z"></path></g><path d="M -2.3999999999999986 49.375 l -8.8 8.8 l 1.2 1.2 l 20 -20 l -30 0 l -10 10 l 27.6 0 z"></path></g></g></g>
</svg>
