<svg xmlns="http://www.w3.org/2000/svg" viewBox="0 0 275 110" width="275" height="110" fill="currentColor" stroke="none">
<g transform="translate(137.5 55)"><g><g><path d="M -119.3 -35 l -10 10 l 0 60 l 10 -10 l 0 -60 z"></path><g><path d="M -117.5 46.8 l -11.8 -11.8 l 10 -10 l 0 -5 q -5.188 7.964 -10 5 l 0 7.7 l -8.2 8.2 l 13 12.9 l 7 -7 z"></path></g></g><g><path d="M -97.5 -35 l -10 10 l 0 60 l 10 -10 l 0 -50 l 30 0 l 10 -10 l -40 0 z"></path><path d="M -72.5 -45 l 10 -10 l -30 0 l -10 10 l 30 0 z"></path></g><g><path d="M -29.299999999999997 -35 l -10 10 l 0 60 l 10 -10 l 0 -60 z"></path><g><path d="M -27.5 46.8 l -11.8 -11.8 l 10 -10 l 0 -5 q -5.188 7.964 -10 5 l 0 7.7 l -8.2 8.2 l 13 12.9 l 7 -7 z"></path></g></g><g><path d="M -7.5 -35 l -10 10 l 0 36.3 l 10 -10.05 l 0 33.75 l 10 -10 l 0 -36.15 l -10 10 l 0 -23.85 l 30 0 l 10 -10 l -40 0 z"></path><g><path d="M 2.5 42.6 l 0 -17.6 q -7.3 -5 -10 10 l 0 20 l 17.5 -17.5 l -1.2 -1.2 l -6.3 6.3 z"></path></g><path d="M 17.5 -45 l 10 -10 l -30 0 l -10 10 l 30 0 z"></path></g><g><path d="M 52.5 -35 l -10 10 l 0 60 l 10 -10 l 0 -60 z"></path><g><path d="M 42.5 20 l 0 15 l 15 0 l 10 -10 l -15 0 l 0 -10 q -3.874 7.753 -10 5 z"></path></g></g><g><path d="M 127.5 -25 l 10 -10 l -50 0 l -10 10 l 0 30 l 30 0 l 0 30 l 10 -10 l 0 -30 l -30 0 l 0 -20 l 40 0 z"></path><path d="M 117.5 -45 l 10 -10 l -30 0 l -10 10 l 30 0 z"></path></g></g></g>
</svg>
