<svg xmlns="http://www.w3.org/2000/svg" viewBox="0 0 75.65 172.294907" width="75.65" height="172.294907" fill="currentColor" stroke="none">
<g transform="translate(37.825 86.147453)"><g><g><path d="M 37.824999999999996 -52.373472949389175 l -65.75 0 l -9.9 9.95 l 25.7 25.7 l -7.5 7.5 l 26.9 26.9 l 7.5 -7.5 l -25.7 -25.7 l 7.45 -7.55 l -19.3 -19.3 l 50.6 0 l 10 -10 z"></path><g><path d="M 13.624999999999986 9.02652705061083 l 0 -0.05 q -8.1 -2.8 -6.35 8.7 l 6.35 -6.3 q 9.4 17.75 21.2 6.85 q -12.25 2.15 -14.85 -15.5 l -6.35 6.3 z"></path></g><path d="M -7.6000000000000085 42.37347294938918 l 8.8 -8.8 l -1.2 -1.2 l -20 20 l 30 0 l 10 -10 l -27.6 0 z"></path></g></g></g>
</svg>
