<svg xmlns="http://www.w3.org/2000/svg" viewBox="0 0 59.65 172.294907" width="59.65" height="172.294907" fill="currentColor" stroke="none">
<g transform="translate(29.825 86.147453)"><g><g><path d="M -19.824999999999996 -33.324999999999996 l -10 10 l 0 30 l 17.7 0 l -6.35 6.4 l 23.65 23.6 l 7.45 -7.5 l -22.5 -22.5 l 10.05 -10 l -20 0 l 0 -30 z"></path><g><path d="M -29.825 -23.324999999999996 l 0 5 q 6.25 -9 10 -5 l 0 -7.6 l 11.8 11.7 l 7 -7 l -12.95 -12.95 l -15.85 15.85 z"></path></g><g><path d="M 7.675000000000001 34.175000000000004 l 5 -5 l 10 10 l 7.15 -7.15 l -11.3 -11.2 l -7 7.1 l -1 1 q -3.183 -1.742 -3.85 0 q -0.916 1.293 0 6.25 z"></path></g></g></g></g>
</svg>
