<svg xmlns="http://www.w3.org/2000/svg" viewBox="0 0 396.3 115.025" width="396.3" height="115.025" fill="currentColor" stroke="none">
<g transform="translate(198.15 57.5125)"><g><g><path d="M -188.14999999999998 -37.487500000000004 l -10 10 l 0 60 l 10 -10 l 0 -60 z"></path><g><path d="M -198.14999999999998 17.512499999999996 l 0 15 l 10 -10 l 0 20 l 10 -9.9 l 0 -22.4 l -10 9.95 l 0 -5.15 q -5 6.1 -10 2.5 z"></path></g></g><g><path d="M -158.24999999999997 -37.5125 l -9.9 9.95 l 47.35 58.35 l 0.05 0 l 1.4 1.75 l 7.5 -7.5 l -42.7 -52.55 l 52.05 0 l 10 -10 l -65.75 0 z"></path><g><path d="M -104.34999999999997 47.53750000000001 l 7.5 -7.5 l -15 -15 q -6.8 0.5 -7.5 7.5 l 15 15 z"></path></g><path d="M -120.32499999999997 -47.5125 l 10 -10 l -30 0 l -10 10 l 30 0 z"></path></g><g><path d="M -34.99999999999997 32.512499999999996 l 7.5 -7.5 -26.9 -26.9 7.45 -7.55 -28.05 -28.05 -7.5 7.5 26.9 26.9 -7.5 7.5 28.1 28.1 z"></path><path d="M -30.549999999999983 26.112499999999997 q -1.825 3.28 -4.45 6.4 l -7.5 7.5 l -1.2 -1.2 l 7.5 -7.5 q -1.688 -4.106 -0.35 -4.55 q 1.45 -0.6 6 -0.65 z"></path><path d="M -69.99999999999997 50.012499999999996 l 7.5 7.5 l 7.5 -7.5 l -7.5 -7.5 l -7.5 7.5 z"></path></g><g><path d="M 32.50000000000003 -27.487500000000004 l 10 -10 l -50 0 l -10 10 l 0 30 l 30 0 l 0 30 l 10 -10 l 0 -30 l -30 0 l 0 -20 l 40 0 z"></path></g><g><path d="M 105 32.512499999999996 l 7.5 -7.5 -26.9 -26.9 7.45 -7.55 -28.05 -28.05 -7.5 7.5 26.9 26.9 -7.5 7.5 28.1 28.1 z"></path><path d="M 52.5 12.512499999999996 l 20 20 l 7.5 -7.5 l -20 -20 l -7.5 7.5 z"></path><path d="M 70 50.012499999999996 l 7.5 7.5 l 7.5 -7.5 l -7.5 -7.5 l -7.5 7.5 z"></path></g><g><path d="M 188.14999999999998 -27.412500000000005 l 10 -10 l -65.75 0 l -9.9 9.95 l 30.45 37.55 l 7.25 -7.3 l 24.15 29.65 l 7.45 -7.4 l -25.2 -31.05 l -7.5 7.45 l -23.1 -28.85 l 52.15 0 z"></path></g></g></g>
</svg>
