<svg xmlns="http://www.w3.org/2000/svg" viewBox="0 0 155 95" width="155" height="95" fill="currentColor" stroke="none">
<g transform="translate(77.5 47.5)"><g><g><path d="M -70 -22.5 l -7.5 7.5 57.5 62.5 7.5 -7.5 -57.5 -62.5 z"></path></g><g><path d="M 7.5 37.5 l -10 10 l 50 0 l 10 -10 l 0 -35 l -10 10 l -15 0 l 0 -35 l -10 10 l 0 35 l 17.35 0 l 7.65 -7.6 l 0 22.6 l -40 0 z"></path><path d="M 20 -40 l 7.5 7.5 l 7.5 -7.5 l -7.5 -7.5 l -7.5 7.5 z"></path></g><g><path d="M 77.5 -22.5 l -10 10 l 0 60 l 10 -10 l 0 -60 z"></path></g></g></g>
</svg>
