<svg xmlns="http://www.w3.org/2000/svg" viewBox="0 0 67.6 172.294907" width="67.6" height="172.294907" fill="currentColor" stroke="none">
<g transform="translate(33.8 86.147453)"><g><g><path d="M -18.75 -30 l 34.95 0 l 10 -10 l -50 0 l -10 10 l 25 25 l 0 35 l 10 -10 l 0 -30.05 l -19.95 -19.95 z"></path><g><path d="M 11.200000000000003 -30 l 5 0 l 7.6 -7.6 l 0 19.95 l 10 -9.9 l 0 -22.45 l -10 10 l -12.6 0 q 3.5 4 0 10 z"></path></g><g><path d="M 1.2000000000000028 37.6 l 0 -17.6 q -7.3 -5 -10 10 l 0 20 l 17.5 -17.5 l -1.2 -1.2 l -6.3 6.3 z"></path></g></g></g></g>
</svg>
