<svg xmlns="http://www.w3.org/2000/svg" viewBox="0 0 646.25 109.025" width="646.25" height="109.025" fill="currentColor" stroke="none">
<g transform="translate(323.125 54.5125)"><g><g><path d="M -295.125 8.812499999999998 l 7.45 -7.5 27.05 34.4 7.5 -7.5 -27.8 -36 -7.75 7.8 -26.95 -34.3 -7.5 7.5 28 35.6 z"></path></g><g><path d="M -190.725 5.337499999999999 l 10 -10 l -29.85 -29.85 l -7.5 7.5 l 22.35 22.35 l -20 0 l -15 15 l 25.6 25.6 l 7.5 -7.5 l -23.1 -23.1 l 30 0 z"></path><g><path d="M -218.075 -27.012500000000003 l -15.05 0 l -10 10 l 17.45 0 l 8.75 -8.8 q 6.9 0.2 3.8 -6.15 l -4.95 4.95 z"></path></g><g><path d="M -185.125 25.9375 l -15 0 q -7 -2.95 -7.6 0 q -1.65 2.7 2.6 10 l 10 0 l 0 15 l 10 -10 l 0 -15 z"></path></g></g><g><path d="M -126.975 -31.7875 l -1.2 -1.2 l -6.3 6.3 l 0 -27.6 l -10 10 l 0 30 l 17.5 -17.5 z"></path><path d="M -160.725 -4.287500000000001 l -10 10 l 50 0 l 10 -10 l -50 0 z"></path></g><g><path d="M -90.725 -34.2875 l -10 10 l 0 60 l 10 -10 l 0 -60 z"></path></g><g><path d="M -70.82499999999999 -34.3125 l -9.9 9.95 l 47.35 58.35 l 0.05 0 l 1.4 1.75 l 7.5 -7.5 l -42.7 -52.55 l 52.05 0 l 10 -10 l -65.75 0 z"></path><g><path d="M -24.424999999999955 28.23750000000001 q -6.8 0.5 -7.5 7.5 l 15 15 l 15 -15 l -1.2 -1.2 l -7.5 7.5 l -13.8 -13.8 z"></path></g><path d="M -31.32499999999999 -44.3125 l 10 -10 l -30 0 l -10 10 l 30 0 z"></path></g><g><path d="M 60.575000000000045 5.712499999999999 l 7.5 -7.5 -32.5 -32.5 -7.5 7.5 32.5 32.5 m -17.5 -10 l -7.5 7.5 32.5 32.5 7.5 -7.5 -32.5 -32.5 z"></path><path d="M 65.47500000000002 25.7125 q -1.655 2.716 2.6 10 l 15 0 l 10 -10 l -20 0 q -7.015 -2.931 -7.6 0 z"></path><path d="M 38.075000000000045 35.7125 l 10 -10 l -30 0 l -10 10 l 30 0 z"></path><path d="M 83.17500000000007 -24.2875 l -8.8 8.8 l 1.2 1.2 l 20 -20 l -30 0 l -10 10 l 27.6 0 z"></path><path d="M 61.825000000000045 -44.2875 l 10 -10 l -30 0 l -10 10 l 30 0 z"></path></g><g><path d="M 138.12500000000006 -34.2875 l -7.5 7.5 l 31.25 31.25 l -31.25 31.25 l 40 0 l 10 -10 l -37.6 0 l 27.5 -27.6 l -32.4 -32.4 z"></path><g><path d="M 130.62500000000006 -26.7875 l -15.05 0 l -10 10 l 17.45 0 l 8.75 -8.8 q 6.9 0.2 3.8 -6.15 l -4.95 4.95 z"></path></g><g><path d="M 160.62500000000006 35.7125 l 10 0 l 17.5 -17.5 l -1.2 -1.2 l -8.7 8.7 l -7.6 0 q 0.83 5.4 -10 10 z"></path></g></g><g><path d="M 218.125 -10.437500000000002 l -10 10 l 0 -33.85 l -10 10 l 0 36.2 l 10 -9.95 l 0 33.75 l 10 -10 l 0 -36.15 z"></path><g><path d="M 208.125 20.7125 l 0 15 l 15 0 l 10 -10 l -15 0 l 0 -10 q -3.874 7.753 -10 5 z"></path></g></g><g><path d="M 261.32500000000005 -34.2875 l -10 10 l 0 60 l 10 -10 l 0 -60 z"></path><g><path d="M 263.125 47.512499999999996 l -11.8 -11.8 l 10 -10 l 0 -5 q -5.188 7.964 -10 5 l 0 7.7 l -8.2 8.2 l 13 12.9 l 7 -7 z"></path></g></g><g><path d="M 313.125 5.337499999999999 l 10 -10 l -29.85 -29.85 l -7.5 7.5 l 22.35 22.35 l -20 0 l -15 15 l 25.6 25.6 l 7.5 -7.5 l -23.1 -23.1 l 30 0 z"></path><path d="M 308.125 -44.5125 l 10 -10 l -30 0 l -10 10 l 30 0 z"></path></g></g></g>
</svg>
