<svg xmlns="http://www.w3.org/2000/svg" viewBox="0 0 413.05 134.9" width="413.05" height="134.9" fill="currentColor" stroke="none">
<g transform="translate(206.525 67.45)"><g><g><path d="M -196.525 -42.47499999999998 l -10 10 l 0 60 l 10 -10 l 0 -60 z"></path></g><g><path d="M -176.625 -42.49999999999998 l -9.9 9.95 l 47.35 58.35 l 0.05 0 l 1.4 1.75 l 7.5 -7.5 l -42.7 -52.55 l 52.05 0 l 10 -10 l -65.75 0 z"></path><path d="M -138.7 -52.49999999999998 l 10 -10 l -30 0 l -10 10 l 30 0 z"></path></g><g><path d="M -93.37500000000003 -42.47499999999998 l -7.5 7.5 57.5 62.5 7.5 -7.5 -57.5 -62.5 z"></path></g><g><path d="M 21.524999999999977 -2.84999999999998 l 10 -10 l -29.85 -29.85 l -7.5 7.5 l 22.35 22.35 l -20 0 l -15 15 l 25.6 25.6 l 7.5 -7.5 l -23.1 -23.1 l 30 0 z"></path><g><path d="M -4.675000000000011 -34.04999999999998 l 0 0.05 q 8.1 2.8 6.35 -8.7 l -6.35 6.3 q -9.4 -17.75 -21.2 -6.85 q 12.25 -2.15 14.85 15.5 l 6.35 -6.3 z"></path></g><g><path d="M 6.224999999999966 26.15000000000002 l -11.2 11.3 l 22.4 0 l 10 -10.1 l -19.9 0 l 7.1 -7.1 q -10.446 -1.157 -8.4 5.9 z"></path></g><path d="M -4.775000000000034 57.45000000000002 l 8.8 -8.8 l -1.2 -1.2 l -20 20 l 30 0 l 10 -10 l -27.6 0 z"></path></g><g><path d="M 61.52499999999995 -18.62499999999998 l -10 10 l 0 -33.85 l -10 10 l 0 36.2 l 10 -9.95 l 0 33.75 l 10 -10 l 0 -36.15 z"></path><g><path d="M 55.224999999999994 43.92500000000002 l 16.3 -16.3 l 0 -22.45 l -10 10 l 0 -5.15 q -5 6.1 -10 2.5 l 0 15 l 10 -10 l 0 17.7 l -7.5 7.5 l 1.2 1.2 z"></path></g></g><g><path d="M 136.525 -42.44999999999998 l -10 10 l 0 20 l -35 0 l -10 10 l 29.95 29.95 l 7.5 -7.5 l -22.45 -22.45 l 30 0 l 10 -10 l 0 -30 z"></path><path d="M 101.525 -59.94999999999999 l 7.5 7.5 l 7.5 -7.5 l -7.5 -7.5 l -7.5 7.5 z"></path><path d="M 101.525 45 l 7.5 7.5 l 7.5 -7.5 l -7.5 -7.5 l -7.5 7.5 z"></path></g><g><path d="M 190.275 -39.97499999999998 l -1.2 -1.2 l -6.3 6.3 l 0 -27.6 l -10 10 l 0 30 l 17.5 -17.5 z"></path><path d="M 156.525 -12.47499999999998 l -10 10 l 50 0 l 10 -10 l -50 0 z"></path></g></g></g>
</svg>
