<svg xmlns="http://www.w3.org/2000/svg" viewBox="0 0 36.8 172.294907" width="36.8" height="172.294907" fill="currentColor" stroke="none">
<g transform="translate(18.4 86.147453)"><g><g><path d="M 16.6 -16.199999999999996 l -10 10 l 0 -33.85 l -10 10 l 0 36.2 l 10 -9.95 l 0 33.75 l 10 -10 l 0 -36.15 z"></path><g><path d="M 6.600000000000001 -25.049999999999997 l 0 -15 l -12.6 0 l 7.5 -7.5 l -1.2 -1.2 l -18.7 18.7 l 15 0 l 0 10 q 3.85 -7.75 10 -5 z"></path></g><g><path d="M 18.4 41.75 l -11.8 -11.8 l 10 -10 l 0 -5 q -5.188 7.964 -10 5 l 0 7.7 l -8.2 8.2 l 13 12.9 l 7 -7 z"></path></g></g></g></g>
</svg>
