<svg xmlns="http://www.w3.org/2000/svg" viewBox="0 0 424.5 110.225" width="424.5" height="110.225" fill="currentColor" stroke="none">
<g transform="translate(212.25 55.1125)"><g><g><path d="M -195.95 -34.887499999999996 l -7.5 7.5 57.5 62.5 7.5 -7.5 -57.5 -62.5 z"></path><path d="M -202.24999999999997 -26.187499999999996 q 4.2 0.65 6.3 -2.7 q 0.8 -1 0 -6 l -6.3 6.3 l 0 -19.95 l -10 10.1 l 0 22.35 l 10 -10.1 z"></path><path d="M -193.45 17.612500000000004 l -10 10 l 0 25 l 10 -10 l 0 -25 z"></path><path d="M -143.34999999999997 -24.887499999999996 l -8.8 8.8 l 1.2 1.2 l 20 -20 l -30 0 l -10 10 l 27.6 0 z"></path></g><g><path d="M -65.94999999999996 -34.8625 l -10 10 l 0 20 l -35 0 l -10 10 l 29.95 29.95 l 7.5 -7.5 l -22.45 -22.45 l 30 0 l 10 -10 l 0 -30 z"></path><g><path d="M -77.74999999999997 -46.6625 l 11.8 11.8 l -10 10 l 0 5 q 5.188 -7.964 10 -5 l 0 -7.7 l 8.2 -8.2 l -13 -12.9 l -7 7 z"></path></g><g><path d="M -93.59999999999998 25.087499999999984 q -1.655 2.716 2.6 10 l 15 0 l 10 -10 l -20 0 q -7.015 -2.931 -7.6 0 z"></path></g></g><g><path d="M -27.74999999999997 -11.037499999999996 l -10 10 l 0 -33.85 l -10 10 l 0 36.2 l 10 -9.95 l 0 33.75 l 10 -10 l 0 -36.15 z"></path><g><path d="M -37.74999999999997 55.112500000000004 l 10 -10 l 0 -20 q -7.3 -5 -10 10 l 0 20 z"></path></g></g><g><path d="M 14.750000000000028 5.112500000000004 l 7.5 -7.5 -32.5 -32.5 -7.5 7.5 32.5 32.5 m -17.5 -10 l -7.5 7.5 32.5 32.5 7.5 -7.5 -32.5 -32.5 z"></path><path d="M -9.099999999999994 -33.7375 l 15.05 0 l 10 -10 l -17.45 0 l -8.75 8.85 q -1.75 3.2 -4.85 7.2 q 5.7 0.35 6 -6.05 z"></path><path d="M 19.650000000000006 25.112500000000004 q -1.65 2.7 2.6 10 l 12.6 0 l -7.5 7.5 l 1.2 1.2 l 18.7 -18.7 l -20 0 q -7 -2.95 -7.6 0 z"></path><path d="M 16.00000000000003 -44.887499999999996 l 10 -10 l -30 0 l -10 10 l 30 0 z"></path></g><g><path d="M 72.29999999999998 -24.887499999999996 l 34.95 0 l 10 -10 l -50 0 l -10 10 l 25 25 l 0 35 l 10 -10 l 0 -30.05 l -19.95 -19.95 z"></path></g><g><path d="M 137.24999999999997 -34.887499999999996 l -10 10 l 0 60 l 10 -10 l 0 -60 z"></path><g><path d="M 127.24999999999997 20.112500000000004 l 0 15 l 15 0 l 10 -10 l -15 0 l 0 -10 q -3.874 7.753 -10 5 z"></path></g></g><g><path d="M 202.24999999999997 4.737500000000004 l 10 -10 l -29.85 -29.85 l -7.5 7.5 l 22.35 22.35 l -20 0 l -15 15 l 25.6 25.6 l 7.5 -7.5 l -23.1 -23.1 l 30 0 z"></path><path d="M 197.24999999999997 -45.1125 l 10 -10 l -30 0 l -10 10 l 30 0 z"></path></g></g></g>
</svg>
