<svg xmlns="http://www.w3.org/2000/svg" viewBox="0 0 147.45 100" width="147.45" height="100" fill="currentColor" stroke="none">
<g transform="translate(73.725 50)"><g><g><path d="M -63.724999999999994 -30 l -10 10 l 0 60 l 10 -10 l 0 -60 z"></path><g><path d="M -63.675 -27.700000000000003 l 15 0 l 10 -10 l -17.4 0 l -17.65 17.7 l 0 7.3 q 5.4 -4.35 10 -2.75 l 0 -12.25 z"></path></g><g><path d="M -73.725 25 l 0 15 l 10 -10 l 0 20 l 10 -9.9 l 0 -22.4 l -10 9.95 l 0 -5.15 q -5 6.1 -10 2.5 z"></path></g></g><g><path d="M -13.625 -20 l 34.95 0 l 10 -10 l -50 0 l -10 10 l 25 25 l 0 35 l 10 -10 l 0 -30.05 l -19.95 -19.95 z"></path><path d="M 11.325000000000003 -40 l 10 -10 l -30 0 l -10 10 l 30 0 z"></path></g><g><path d="M 63.724999999999994 -30 l -10 10 l 0 60 l 10 -10 l 0 -60 z"></path><g><path d="M 41.32499999999999 50 l 22.4 0 l 10 -10.1 l -19.9 0 l -0.1 0.1 l 0 -0.1 l 0.05 0 l 9.95 -9.9 l 0 -5 q -5 5.774 -10 5 l 0 7.55 l -12.4 12.4 z"></path></g></g></g></g>
</svg>
