<svg xmlns="http://www.w3.org/2000/svg" viewBox="0 0 313.05 108.775" width="313.05" height="108.775" fill="currentColor" stroke="none">
<g transform="translate(156.525 54.3875)"><g><g><path d="M -138.32500000000002 -34.4125 l -10 10 l 0 60 l 10 -10 l 0 -60 z"></path><g><path d="M -136.525 47.387499999999996 l -11.8 -11.8 l 10 -10 l 0 -5 q -5.188 7.964 -10 5 l 0 7.7 l -8.2 8.2 l 13 12.9 l 7 -7 z"></path></g></g><g><path d="M -60.875 -24.337500000000002 l 10 -10 l -65.75 0 l -9.9 9.95 l 30.45 37.55 l 7.25 -7.3 l 24.15 29.65 l 7.45 -7.4 l -25.2 -31.05 l -7.5 7.45 l -23.1 -28.85 l 52.15 0 z"></path><path d="M -78.7 -44.3375 l 10 -10 l -30 0 l -10 10 l 30 0 z"></path></g><g><path d="M -30.875 -34.4125 l -10 10 l 0 60 l 10 -10 l 0 -60 z"></path><g><path d="M -40.875 20.5875 l 0 15 l 15 0 l 10 -10 l -15 0 l 0 -10 q -3.874 7.753 -10 5 z"></path></g></g><g><path d="M 49.12499999999997 -34.3875 l -10 10 l 0 20 l -35 0 l -10 10 l 29.95 29.95 l 7.5 -7.5 l -22.45 -22.45 l 30 0 l 10 -10 l 0 -30 z"></path><g><path d="M 26.57499999999996 33.06249999999998 l 5 -5 l 10 10 l 7.15 -7.15 l -11.3 -11.2 l -7 7.1 l -1 1 q -3.183 -1.742 -3.85 0 q -0.916 1.293 0 6.25 z"></path></g><path d="M 31.62499999999997 -44.38750000000001 l 10 -10 l -30 0 l -10 10 l 30 0 z"></path></g><g><path d="M 81.52499999999998 -34.4125 l -10 10 l 0 60 l 10 -10 l 0 -60 z"></path><g><path d="M 59.12499999999997 45.5875 l 22.4 0 l 10 -10.1 l -19.9 0 l -0.1 0.1 l 0 -0.1 l 0.05 0 l 9.95 -9.9 l 0 -5 q -5 5.774 -10 5 l 0 7.55 l -12.4 12.4 z"></path></g></g><g><path d="M 156.525 -34.3875 l -10 10 l 0 20 l -35 0 l -10 10 l 29.95 29.95 l 7.5 -7.5 l -22.45 -22.45 l 30 0 l 10 -10 l 0 -30 z"></path><g><path d="M 128.87500000000003 25.56249999999998 q -1.655 2.716 2.6 10 l 15 0 l 10 -10 l -20 0 q -7.015 -2.931 -7.6 0 z"></path></g><path d="M 139.025 -44.38750000000001 l 10 -10 l -30 0 l -10 10 l 30 0 z"></path></g></g></g>
</svg>
