<svg xmlns="http://www.w3.org/2000/svg" viewBox="0 0 91.8 172.294907" width="91.8" height="172.294907" fill="currentColor" stroke="none">
<g transform="translate(45.9 86.147453)"><g><g><path d="M -13.599999999999994 4.999999999999998 l 7.45 -7.5 27.05 34.4 7.5 -7.5 -27.8 -36 -7.75 7.8 -26.95 -34.3 -7.5 7.5 28 35.6 z"></path><path d="M -45.89999999999999 -49.9 l 11.8 11.8 l -5 5 q 7.681 1.687 7.1 -0.5 l -0.95 -3.35 l 7.05 -7.05 l -13 -12.9 z"></path><path d="M 18.299999999999997 21.9 q -1.655 2.716 2.6 10 l 15 0 l 10 -10 l -20 0 q -7.015 -2.931 -7.6 0 z"></path><path d="M -21.599999999999994 49.4 l 7.5 7.5 l 7.5 -7.5 l -7.5 -7.5 l -7.5 7.5 z"></path></g></g></g>
</svg>
