<svg xmlns="http://www.w3.org/2000/svg" viewBox="0 0 473.75 131.4" width="473.75" height="131.4" fill="currentColor" stroke="none">
<g transform="translate(236.875 65.7)"><g><g><path d="M -208.875 2.399999999999997 l 7.45 -7.5 27.05 34.4 7.5 -7.5 -27.8 -36 -7.75 7.8 -26.95 -34.3 -7.5 7.5 28 35.6 z"></path></g><g><path d="M -101.875 -40.675000000000004 l -10 10 l 0 20 l -35 0 l -10 10 l 29.95 29.95 l 7.5 -7.5 l -22.45 -22.45 l 30 0 l 10 -10 l 0 -30 z"></path><g><path d="M -111.525 -28.57500000000001 q 0.375 -0.363 1.15 -1.15 q 6.261 -1.099 8.5 3.8 l 0 -14.75 l -10 10 l -10 -10 l -7.15 7.15 l 11.3 11.2 l 5.85 -5.9 q 0.04 -0.029 0.35 -0.35 z"></path></g><g><path d="M -111.925 44.27499999999998 l 7.5 -7.5 l -15 -15 q -6.8 0.5 -7.5 7.5 l 15 15 z"></path></g></g><g><path d="M -63.92500000000001 -55.7 l -7.5 7.5 l 21.65 27.5 l 7.45 -7.5 l -21.6 -27.5 z"></path><path d="M -81.875 -10.700000000000003 l -10 10 l 50 0 l 10 -10 l -50 0 z"></path></g><g><path d="M 25.625 29.299999999999997 l 7.5 -7.5 -26.9 -26.9 7.45 -7.55 -28.05 -28.05 -7.5 7.5 26.9 26.9 -7.5 7.5 28.1 28.1 z"></path></g><g><path d="M 93.125 -30.700000000000003 l 10 -10 l -50 0 l -10 10 l 0 30 l 30 0 l 0 30 l 10 -10 l 0 -30 l -30 0 l 0 -20 l 40 0 z"></path><g><path d="M 76.82499999999999 45.699999999999996 l 16.3 -16.3 l 0 -22.45 l -10 10 l 0 -5.15 q -5 6.1 -10 2.5 l 0 15 l 10 -10 l 0 17.7 l -7.5 7.5 l 1.2 1.2 z"></path></g><path d="M 83.125 65.7 l 10 -10 l -30 0 l -10 10 l 30 0 z"></path></g><g><path d="M 120.625 -40.7 l -7.5 7.5 l 31.25 31.25 l -31.25 31.25 l 40 0 l 10 -10 l -37.6 0 l 27.5 -27.6 l -32.4 -32.4 z"></path><path d="M 130.625 -58.2 l 7.5 7.5 l 7.5 -7.5 l -7.5 -7.5 l -7.5 7.5 z"></path><path d="M 148.125 49.3 l 10 -10 l -30 0 l -10 10 l 30 0 z"></path></g><g><path d="M 179.375 -30.700000000000003 q 24.3 9.1 15 21.3 l 1.25 1.15 q 15.85 -14.1 3.75 -22.45 l 20 0 l 17.5 -17.5 l -1.2 -1.2 l -8.7 8.7 l -37.6 0 l -10 10 z"></path><path d="M 183.125 -10.700000000000003 l -10 10 l 50 0 l 10 -10 l -50 0 z"></path></g></g></g>
</svg>
