<svg xmlns="http://www.w3.org/2000/svg" viewBox="0 0 198.05 100.225" width="198.05" height="100.225" fill="currentColor" stroke="none">
<g transform="translate(99.025 50.1125)"><g><g><path d="M -76.625 -29.887500000000003 l -10 10 l 0 60 l 10 -10 l 0 -60 z"></path><g><path d="M -99.025 50.1125 l 22.4 0 l 10 -10.1 l -19.9 0 l -0.1 0.1 l 0 -0.1 l 0.05 0 l 9.95 -9.9 l 0 -5 q -5 5.774 -10 5 l 0 7.55 l -12.4 12.4 z"></path></g></g><g><path d="M -46.725 -29.9125 l -9.9 9.95 l 47.35 58.35 l 0.05 0 l 1.4 1.75 l 7.5 -7.5 l -42.7 -52.55 l 52.05 0 l 10 -10 l -65.75 0 z"></path><path d="M -8.800000000000011 -39.9125 l 10 -10 l -30 0 l -10 10 l 30 0 z"></path></g><g><path d="M 39.025000000000006 -29.887500000000003 l -10 10 l 0 60 l 10 -10 l 0 -60 z"></path></g><g><path d="M 89.025 9.737499999999997 l 10 -10 l -29.85 -29.85 l -7.5 7.5 l 22.35 22.35 l -20 0 l -15 15 l 25.6 25.6 l 7.5 -7.5 l -23.1 -23.1 l 30 0 z"></path><path d="M 84.025 -40.112500000000004 l 10 -10 l -30 0 l -10 10 l 30 0 z"></path></g></g></g>
</svg>
