<svg xmlns="http://www.w3.org/2000/svg" viewBox="0 0 743.561586 140.025" width="743.561586" height="140.025" fill="currentColor" stroke="none">
<g transform="translate(371.780793 70.0125)"><g><g><path d="M -364.28079310144 -45.0125 l -7.5 7.5 57.5 62.5 7.5 -7.5 -57.5 -62.5 z"></path></g><g><path d="M -246.78079310144 -35.0125 l 10 -10 l -50 0 l -10 10 l 0 35 l 10 -10 l 15 0 l 0 35 l 10 -10 l 0 -35 l -17.35 0 l -7.65 7.6 l 0 -22.6 l 40 0 z"></path><g><path d="M -245.48079310143999 -48.9125 l 6.3 -6.3 l 0 10.2 l -13.5 0 q 5.808 4.7 0.35 10 l 5.55 0 l 17.6 -17.6 l 0 -15 l -17.5 17.5 l 1.2 1.2 z"></path></g><g><path d="M -268.08079310144 41.387499999999996 l 16.3 -16.3 l 0 -22.45 l -10 10 l 0 -5.15 q -5 6.1 -10 2.5 l 0 15 l 10 -10 l 0 17.7 l -7.5 7.5 l 1.2 1.2 z"></path></g><path d="M -252.98079310143999 61.3875 l 10 -10 l -30 0 l -10 10 l 30 0 z"></path></g><g><path d="M -209.28079310144 -45.0375 l -9.9 9.95 l 47.35 58.35 l 0.05 0 l 1.4 1.75 l 7.5 -7.5 l -42.7 -52.55 l 52.05 0 l 10 -10 l -65.75 0 z"></path><path d="M -195.10579310143999 42.51250000000001 l 20 20 l 7.5 -7.5 l -20 -20 l -7.5 7.5 z"></path></g><g><path d="M -88.38079310144002 -1.9125000000000032 l 7.45 -7.5 27.05 34.4 7.5 -7.5 -27.8 -36 -7.75 7.8 -26.95 -34.3 -7.5 7.5 28 35.6 z"></path><path d="M -111.38079310144002 -42.5125 l -5 5 l -10 -10 l -7.15 7.15 l 11.3 11.2 l 7 -7.1 l 1 -1 q 3.183 1.742 3.85 0 q 0.916 -1.293 0 -6.25 z"></path><path d="M -56.48079310144004 14.987499999999997 q -1.655 2.716 2.6 10 l 15 0 l 10 -10 l -20 0 q -7.015 -2.931 -7.6 0 z"></path></g><g><path d="M 36.11920689855998 -44.987500000000004 l -10 10 l 0 20 l -35 0 l -10 10 l 29.95 29.95 l 7.5 -7.5 l -22.45 -22.45 l 30 0 l 10 -10 l 0 -30 z"></path><g><path d="M 36.11920689855998 -29.337500000000013 l 0 -15.65 l -10 10 q -9.4 -17.75 -21.2 -6.85 q 12.25 -2.15 14.85 15.5 l 6.35 -6.3 l 0 8.1 q 4.8 -9.5 10 -4.8 z"></path></g><g><path d="M 10.169206898559992 23.362499999999976 l -11.2 11.3 l 22.4 0 l 10 -10.1 l -19.9 0 l 7.1 -7.1 q -10.446 -1.157 -8.4 5.9 z"></path></g><path d="M 18.61920689855998 54.66249999999998 l 10 -10 l -30 0 l -10 10 l 30 0 z"></path></g><g><path d="M 74.91920689856005 -21.1625 l -10 10 l 0 -33.85 l -10 10 l 0 36.2 l 10 -9.95 l 0 33.75 l 10 -10 l 0 -36.15 z"></path><g><path d="M 54.91920689856005 -52.612500000000004 l 0 17.6 q 7.3 5 10 -10 l 0 -20 l -17.5 17.5 l 1.2 1.2 l 6.3 -6.3 z"></path></g><g><path d="M 74.91920689856005 14.987499999999997 l 0 -5 q -6.25 9 -10 5 l 0 7.6 l -11.8 -11.7 l -7 7 l 12.95 12.95 l 15.85 -15.85 z"></path></g></g><g><path d="M 112.41920689856005 -21.1625 l -10 10 l 0 -33.85 l -10 10 l 0 36.2 l 10 -9.95 l 0 33.75 l 10 -10 l 0 -36.15 z"></path><g><path d="M 92.41920689856005 -52.612500000000004 l 0 17.6 q 7.3 5 10 -10 l 0 -20 l -17.5 17.5 l 1.2 1.2 l 6.3 -6.3 z"></path></g><g><path d="M 102.41920689856005 9.337499999999999 l 0 15.65 l 10 -10.05 q 10.8 2.6 16.2 18.85 q 0.35 -21.9 -9.85 -27.5 l -6.35 6.35 l 0 -8.1 q -4.8 9.5 -10 4.8 z"></path></g></g><g><path d="M 146.13079310144002 -45.0125 l -7.5 7.5 57.5 62.5 7.5 -7.5 -57.5 -62.5 z"></path><path d="M 147.2807931014401 -37.5125 q 1.328 -4.078 -0.8 -6.7 l 0.8 0.35 q 19.05 9.15 23.7 -6.2 q -7.65 9.4 -17.35 -2.45 l -15 15 q 4.648 1.323 8.65 0 z"></path><path d="M 138.63079310144008 4.987499999999997 l 20 20 l 7.5 -7.5 l -20 -20 l -7.5 7.5 z"></path><path d="M 201.13079310144002 -35.0125 l 10 -10 l -30 0 l -10 10 l 30 0 z"></path></g><g><path d="M 231.13079310144002 -45.0125 l -10 10 l 0 36.3 l 10 -10.05 l 0 33.75 l 10 -10 l 0 -36.15 l -10 10 l 0 -23.85 l 30 0 l 10 -10 l -40 0 z"></path><g><path d="M 241.13079310144002 32.5875 l 0 -17.6 q -7.3 -5 -10 10 l 0 20 l 17.5 -17.5 l -1.2 -1.2 l -6.3 6.3 z"></path></g><path d="M 238.63079310144002 -62.5125 l 7.5 7.5 l 7.5 -7.5 l -7.5 -7.5 l -7.5 7.5 z"></path><path d="M 256.13079310144 64.9875 l 10 -10 l -30 0 l -10 10 l 30 0 z"></path></g><g><path d="M 361.88079310144 25.012499999999996 l 9.9 -9.95 l -47.35 -58.35 l -0.05 0 l -1.4 -1.75 l -7.5 7.5 l 42.7 52.55 l -52.05 0 l -10 10 l 65.75 0 z"></path><g><path d="M 301.13079310144 15.012500000000003 l -12.5 -12.5 l -7.5 7.5 l 15 15 q 8.65 -2.75 10 -10 l -5 0 z"></path></g><path d="M 336.45579310144007 60.0125 l 0 -25 l -20 20 l 1.2 1.2 l 8.8 -8.8 l 0 22.6 l 10 -10 z"></path></g></g></g>
</svg>
