<svg xmlns="http://www.w3.org/2000/svg" viewBox="0 0 744.45 160.025" width="744.45" height="160.025" fill="currentColor" stroke="none">
<g transform="translate(372.225 80.0125)"><g><g><path d="M -364.72499999999997 -42.51250000000002 l -7.5 7.5 57.5 62.5 7.5 -7.5 -57.5 -62.5 z"></path><path d="M -337.22499999999997 47.48749999999998 l 10 -10 l -30 0 l -10 10 l 30 0 z"></path></g><g><path d="M -242.22499999999997 -42.48750000000002 l -10 10 l 0 20 l -35 0 l -10 10 l 29.95 29.95 l 7.5 -7.5 l -22.45 -22.45 l 30 0 l 10 -10 l 0 -30 z"></path><g><path d="M -272.275 32.46249999999996 l 5 -5 q 4.682 -11.683 -2.5 -5 l -12.5 0 l -10 10 l 20 0 z"></path></g></g><g><path d="M -222.325 -42.537500000000016 l -9.9 9.95 l 47.35 58.35 l 0.05 0 l 1.4 1.75 l 7.5 -7.5 l -42.7 -52.55 l 52.05 0 l 10 -10 l -65.75 0 z"></path><g><path d="M -175.92499999999998 20.012499999999996 q -6.8 0.5 -7.5 7.5 l 15 15 l 15 -15 l -1.2 -1.2 l -7.5 7.5 l -13.8 -13.8 z"></path></g><path d="M -206.575 60.01249999999999 l 20 20 l 7.5 -7.5 l -20 -20 l -7.5 7.5 z"></path></g><g><path d="M -118.42499999999998 -42.51250000000002 l -7.5 7.5 57.5 62.5 7.5 -7.5 -57.5 -62.5 z"></path><path d="M -115.82499999999999 -32.51250000000002 q 1.65 -2.7 -2.6 -10 l -12.6 0 l 7.5 -7.5 l -1.2 -1.2 l -18.7 18.7 l 20 0 q 7 2.95 7.6 0 z"></path><path d="M -71.02499999999998 17.487499999999983 q -1.655 2.716 2.6 10 l 15 0 l 10 -10 l -20 0 q -7.015 -2.931 -7.6 0 z"></path><path d="M -103.42500000000001 27.487499999999983 l 10 -10 l -30 0 l -10 10 l 30 0 z"></path><path d="M -107.17500000000001 -72.51250000000002 l 20 20 l 7.5 -7.5 l -20 -20 l -7.5 7.5 z"></path></g><g><path d="M 32.22500000000002 -32.437500000000014 l 10 -10 l -65.75 0 l -9.9 9.95 l 30.45 37.55 l 7.25 -7.3 l 24.15 29.65 l 7.45 -7.4 l -25.2 -31.05 l -7.5 7.45 l -23.1 -28.85 l 52.15 0 z"></path></g><g><path d="M 94.72500000000002 27.487499999999983 l 7.5 -7.5 l -31.25 -31.25 l 31.25 -31.25 l -40 0 l -10 10 l 37.6 0 l -27.5 27.6 l 32.4 32.4 z"></path><path d="M 69.72500000000002 -60.01250000000002 l 7.5 7.5 l 7.5 -7.5 l -7.5 -7.5 l -7.5 7.5 z"></path><path d="M 69.72500000000002 44.98749999999998 l 7.5 7.5 l 7.5 -7.5 l -7.5 -7.5 l -7.5 7.5 z"></path></g><g><path d="M 140.22500000000008 0.5874999999999826 l 7.45 -7.5 27.05 34.4 7.5 -7.5 -27.8 -36 -7.75 7.8 -26.95 -34.3 -7.5 7.5 28 35.6 z"></path><path d="M 157.22500000000008 -52.51250000000002 l 10 -10 l -30 0 l -10 10 l 30 0 z"></path></g><g><path d="M 242.22499999999997 -32.51250000000002 l 10 -10 l -50 0 l -10 10 l 0 30 l 30 0 l 0 30 l 10 -10 l 0 -30 l -30 0 l 0 -20 l 40 0 z"></path></g><g><path d="M 302.22499999999997 27.487499999999983 l 10 -10 l 0 -60 l -10 10 l 0 50 l -30 0 l -10 10 l 40 0 z"></path><g><path d="M 282.12499999999994 9.987499999999983 l -1.2 -1.2 l -18.7 18.7 l 10 0 q -0.85 -5.4 10 -10 l -7.6 0 l 7.5 -7.5 z"></path></g><path d="M 279.72499999999997 -60.01250000000002 l 7.5 7.5 l 7.5 -7.5 l -7.5 -7.5 l -7.5 7.5 z"></path><path d="M 279.72499999999997 44.98749999999998 l 7.5 7.5 l 7.5 -7.5 l -7.5 -7.5 l -7.5 7.5 z"></path></g><g><path d="M 357.22499999999997 27.487499999999983 l 10 -10 l 0 -35 l -19.95 0 l 24.95 -25 l -40 0 l -10 10 l 37.6 0 l -24.85 25 l 22.25 0 l 0 35 z"></path><path d="M 357.22499999999997 -52.51250000000002 l 10 -10 l -30 0 l -10 10 l 30 0 z"></path><path d="M 337.22499999999997 47.48749999999998 l 0 25 l 20 -20 l -1.2 -1.2 l -8.8 8.8 l 0 -22.6 l -10 10 z"></path></g></g></g>
</svg>
