<svg xmlns="http://www.w3.org/2000/svg" viewBox="0 0 91.6 172.294907" width="91.6" height="172.294907" fill="currentColor" stroke="none">
<g transform="translate(45.8 86.147453)"><g><g><path d="M 29.85 -51.37500000000001 l -65.75 0 l -9.9 9.95 l 25.7 25.7 l -7.5 7.5 l 26.9 26.9 l 7.5 -7.5 l -25.7 -25.7 l 7.45 -7.55 l -19.3 -19.3 l 50.6 0 l 10 -10 z"></path><g><path d="M 15.29999999999999 -41.375000000000014 l 4.55 0 l 8.8 -8.8 l 10 10 l 7.15 -7.15 l -11.3 -11.2 l -7.05 7.15 l -6.3 0 q 3.7 5 -5.85 10 z"></path></g><g><path d="M 5.599999999999987 29.824999999999996 l -7.5 7.5 l 1.2 1.2 l 16.3 -16.3 l 0 -22.35 l -10 10.1 q -4.2 -0.65 -6.3 2.7 q -0.8 1 0 6 l 6.3 -6.3 l 0 17.45 z"></path></g><path d="M 9.999999999999993 58.525000000000006 l 10 -10 l -30 0 l -10 10 l 30 0 z"></path></g></g></g>
</svg>
