<svg xmlns="http://www.w3.org/2000/svg" viewBox="0 0 105 172.294907" width="105" height="172.294907" fill="currentColor" stroke="none">
<g transform="translate(52.5 86.147453)"><g><g><path d="M -7 3.700000000000001 l 7.45 -7.5 27.05 34.4 7.5 -7.5 -27.8 -36 -7.75 7.8 -26.95 -34.3 -7.5 7.5 28 35.6 z"></path><path d="M -24.9 -29.4 q 1.65 -2.7 -2.6 -10 l -12.6 0 l 7.5 -7.5 l -1.2 -1.2 l -18.7 18.7 l 20 0 q 7 2.95 7.6 0 z"></path><path d="M 24.900000000000006 20.6 q -1.655 2.716 2.6 10 l 15 0 l 10 -10 l -20 0 q -7.015 -2.931 -7.6 0 z"></path><path d="M -22.5 13.100000000000001 l -10 10 l 0 25 l 10 -10 l 0 -25 z"></path><path d="M 27.599999999999994 -29.4 l -8.8 8.8 l 1.2 1.2 l 20 -20 l -30 0 l -10 10 l 27.6 0 z"></path></g></g></g>
</svg>
