<svg xmlns="http://www.w3.org/2000/svg" viewBox="0 0 405.75 107.5" width="405.75" height="107.5" fill="currentColor" stroke="none">
<g transform="translate(202.875 53.75)"><g><g><path d="M -157.375 9.35 l 7.45 -7.5 27.05 34.4 7.5 -7.5 -27.8 -36 -7.75 7.8 -26.95 -34.3 -7.5 7.5 28 35.6 z"></path><path d="M -175.275 -23.75 q 1.65 -2.7 -2.6 -10 l -12.6 0 l 7.5 -7.5 l -1.2 -1.2 l -18.7 18.7 l 20 0 q 7 2.95 7.6 0 z"></path><path d="M -125.475 26.25 q -1.655 2.716 2.6 10 l 15 0 l 10 -10 l -20 0 q -7.015 -2.931 -7.6 0 z"></path><path d="M -172.875 18.75 l -10 10 l 0 25 l 10 -10 l 0 -25 z"></path><path d="M -122.775 -23.75 l -8.8 8.8 l 1.2 1.2 l 20 -20 l -30 0 l -10 10 l 27.6 0 z"></path></g><g><path d="M -22.225000000000023 -23.675 l 10 -10 l -65.75 0 l -9.9 9.95 l 30.45 37.55 l 7.25 -7.3 l 24.15 29.65 l 7.45 -7.4 l -25.2 -31.05 l -7.5 7.45 l -23.1 -28.85 l 52.15 0 z"></path></g><g><path d="M 7.774999999999977 -33.75 l -10 10 l 0 60 l 10 -10 l 0 -60 z"></path><g><path d="M 7.824999999999989 -31.450000000000003 l 15 0 l 10 -10 l -17.4 0 l -17.65 17.7 l 0 7.3 q 5.4 -4.35 10 -2.75 l 0 -12.25 z"></path></g><g><path d="M -2.2250000000000227 21.25 l 0 15 l 10 -10 l 0 20 l 10 -9.9 l 0 -22.4 l -10 9.95 l 0 -5.15 q -5 6.1 -10 2.5 z"></path></g></g><g><path d="M 50.32499999999999 -33.75 l -7.5 7.5 l 31.25 31.25 l -31.25 31.25 l 40 0 l 10 -10 l -37.6 0 l 27.5 -27.6 l -32.4 -32.4 z"></path><path d="M 77.82499999999999 -43.75 l 10 -10 l -30 0 l -10 10 l 30 0 z"></path></g><g><path d="M 112.82499999999999 -33.75 l -10 10 l 0 60 l 10 -10 l 0 -60 z"></path><g><path d="M 112.875 -31.450000000000003 l 15 0 l 10 -10 l -17.4 0 l -17.65 17.7 l 0 7.3 q 5.4 -4.35 10 -2.75 l 0 -12.25 z"></path></g><g><path d="M 102.82499999999999 21.25 l 0 15 l 15 0 l 10 -10 l -15 0 l 0 -10 q -3.874 7.753 -10 5 z"></path></g></g><g><path d="M 202.875 -33.725 l -10 10 l 0 20 l -35 0 l -10 10 l 29.95 29.95 l 7.5 -7.5 l -22.45 -22.45 l 30 0 l 10 -10 l 0 -30 z"></path><path d="M 185.375 -43.72500000000001 l 10 -10 l -30 0 l -10 10 l 30 0 z"></path></g></g></g>
</svg>
