<svg xmlns="http://www.w3.org/2000/svg" viewBox="0 0 581.95 127.175" width="581.95" height="127.175" fill="currentColor" stroke="none">
<g transform="translate(290.975 63.5875)"><g><g><path d="M -262.975 6.6624999999999925 l 7.45 -7.5 27.05 34.4 7.5 -7.5 -27.8 -36 -7.75 7.8 -26.95 -34.3 -7.5 7.5 28 35.6 z"></path></g><g><path d="M -201.07500000000002 -36.462500000000006 l -9.9 9.95 l 47.35 58.35 l 0.05 0 l 1.4 1.75 l 7.5 -7.5 l -42.7 -52.55 l 52.05 0 l 10 -10 l -65.75 0 z"></path><g><path d="M -159.57500000000002 43.587500000000006 l 17.4 0 l 10 -10 l -15 0 l 10 -10 l -20 0 q -7 -2.95 -7.6 0 q -1.65 2.7 2.6 10 l 12.55 0 l -9.95 10 z"></path></g><path d="M -161.57500000000002 63.5875 l 10 -10 l -30 0 l -10 10 l 30 0 z"></path></g><g><path d="M -78.42500000000001 -33.93750000000001 l -1.2 -1.2 l -6.3 6.3 l 0 -27.6 l -10 10 l 0 30 l 17.5 -17.5 z"></path><path d="M -112.17500000000001 -6.437500000000007 l -10 10 l 50 0 l 10 -10 l -50 0 z"></path></g><g><path d="M -19.625 -36.43750000000001 l -7.5 7.5 57.5 62.5 7.5 -7.5 -57.5 -62.5 z"></path><path d="M -27.125 -28.937500000000007 l -15.05 0 l -10 10 l 17.45 0 l 8.75 -8.8 q 6.9 0.2 3.8 -6.15 l -4.95 4.95 z"></path></g><g><path d="M 75.57500000000005 33.48749999999999 l 10 -10 l 0 -40 l -9.55 9.55 l -20.65 -29.4 l -7.5 7.5 l 21.6 30.85 l 6.1 -6.1 l 0 37.6 z"></path><path d="M 59.22500000000002 -53.862500000000004 l 7.5 7.5 l 7.5 -7.5 l -7.5 -7.5 l -7.5 7.5 z"></path></g><g><path d="M 115.57500000000005 -36.43750000000001 l -10 10 l 0 60 l 10 -10 l 0 -60 z"></path><g><path d="M 115.57500000000005 -21.437500000000007 l 0 -15 l -10 10 l 0 -20 l -10 9.9 l 0 22.4 l 10 -9.95 l 0 5.15 q 5 -6.1 10 -2.5 z"></path></g></g><g><path d="M 135.57500000000005 -36.43750000000001 l -10 10 l 0 60 l 10 -10 l 0 -60 z"></path><g><path d="M 125.57500000000005 18.562499999999993 l 0 15 l 15 0 l 10 -10 l -15 0 l 0 -10 q -3.874 7.753 -10 5 z"></path></g></g><g><path d="M 219.97500000000008 -36.43750000000001 l -50 0 l -9.4 9.4 l 23.2 33.05 l 6.2 -6.25 l 0 33.8 l 10 -10 l 0 -36.15 l -1.1 1.1 q -2.967 2.977 -5.95 5.95 l -1.95 2 l -0.65 0.65 l -16.5 -23.5 l 36.2 0 l 10 -10 z"></path><g><path d="M 205.47500000000008 -26.437500000000007 l 4.55 0 l 8.8 -8.8 l 10 10 l 7.15 -7.15 l -11.3 -11.2 l -7.05 7.15 l -6.3 0 q 3.7 5 -5.85 10 z"></path></g><g><path d="M 199.97500000000008 41.162499999999994 l 0 -17.6 q -7.3 -5 -10 10 l 0 20 l 17.5 -17.5 l -1.2 -1.2 l -6.3 6.3 z"></path></g><path d="M 208.2750000000001 -53.5875 l 10 -10 l -30 0 l -10 10 l 30 0 z"></path></g><g><path d="M 265.975 -12.587500000000007 l -10 10 l 0 -33.85 l -10 10 l 0 36.2 l 10 -9.95 l 0 33.75 l 10 -10 l 0 -36.15 z"></path><g><path d="M 265.975 23.562499999999993 l 15 0 l 10 -10 l -17.45 0 l -7.6 7.6 l 0.05 -5.05 q -4.6 6.3 -10 4 l 0 13.45 l 9.95 -10 z"></path></g></g></g></g>
</svg>
