<svg xmlns="http://www.w3.org/2000/svg" viewBox="0 0 84.65 172.294907" width="84.65" height="172.294907" fill="currentColor" stroke="none">
<g transform="translate(42.325 86.147453)"><g><g><path d="M 22.325000000000003 27.5 l 7.5 -7.5 -26.9 -26.9 7.45 -7.55 -28.05 -28.05 -7.5 7.5 26.9 26.9 -7.5 7.5 28.1 28.1 z"></path><path d="M -20.175000000000004 -40 l -5 5 l -10 -10 l -7.15 7.15 l 11.3 11.2 l 7 -7.1 l 1 -1 q 3.183 1.742 3.85 0 q 0.916 -1.293 0 -6.25 z"></path><path d="M -20.175000000000004 10 l -10 10 l 0 25 l 10 -10 l 0 -25 z"></path><path d="M 32.325 -32.5 l 10 -10 l -30 0 l -10 10 l 30 0 z"></path></g></g></g>
</svg>
