<svg xmlns="http://www.w3.org/2000/svg" viewBox="0 0 55 172.294907" width="55" height="172.294907" fill="currentColor" stroke="none">
<g transform="translate(27.5 86.147453)"><g><g><path d="M -27.5 11.977546564832494 l 10 -10 l 0 -20 l 35 0 l 10 -10 l -29.95 -29.95 l -7.5 7.5 l 22.45 22.45 l -30 0 l -10 10 l 0 30 z"></path><g><path d="M -27.5 -3.6724534351674976 l 0 15.65 l 10 -10 q 9.4 17.75 21.2 6.85 q -12.25 2.15 -14.85 -15.5 l -6.35 6.3 l 0 -8.1 q -4.8 9.5 -10 4.8 z"></path></g><path d="M -10 32.9724534351675 l 0 25 l 20 -20 l -1.2 -1.2 l -8.8 8.8 l 0 -22.6 l -10 10 z"></path></g></g></g>
</svg>
