<svg xmlns="http://www.w3.org/2000/svg" viewBox="0 0 620.3 146.325" width="620.3" height="146.325" fill="currentColor" stroke="none">
<g transform="translate(310.15 73.1625)"><g><g><path d="M -282.15 1.2875000000000139 l 7.45 -7.5 27.05 34.4 7.5 -7.5 -27.8 -36 -7.75 7.8 -26.95 -34.3 -7.5 7.5 28 35.6 z"></path><path d="M -285.15 -71.96249999999999 l -1.2 -1.2 l -16.3 16.3 l 0 15.05 l -7.5 7.5 q 11.45 4.9 8.7 -6.3 l 8.8 -8.9 l 0 -14.95 l 7.5 -7.5 z"></path><path d="M -242.64999999999998 -34.312499999999986 l 0 -25 l -20 20 l 1.2 1.2 l 8.8 -8.8 l 0 22.6 l 10 -10 z"></path><path d="M -282.65 -59.312499999999986 l 7.5 7.5 l 7.5 -7.5 l -7.5 -7.5 l -7.5 7.5 z"></path><path d="M -290.15 45.687500000000014 l 7.5 7.5 l 7.5 -7.5 l -7.5 -7.5 l -7.5 7.5 z"></path></g><g><path d="M -209.84999999999997 -41.812499999999986 l -7.5 7.5 l 31.25 31.25 l -31.25 31.25 l 40 0 l 10 -10 l -37.6 0 l 27.5 -27.6 l -32.4 -32.4 z"></path><g><path d="M -208.95 -40.212499999999984 l 11.2 -11.3 l -22.4 0 l -10 10.1 l 19.9 0 l -7.1 7.1 q 10.446 1.157 8.4 -5.9 z"></path></g><g><path d="M -187.34999999999997 28.187500000000014 l 10 0 l 17.5 -17.5 l -1.2 -1.2 l -8.7 8.7 l -7.6 0 q 0.83 5.4 -10 10 z"></path></g></g><g><path d="M -129.84999999999997 -17.962499999999984 l -10 10 l 0 -33.85 l -10 10 l 0 36.2 l 10 -9.95 l 0 33.75 l 10 -10 l 0 -36.15 z"></path><g><path d="M -139.84999999999997 13.187500000000014 l 0 15 l 15 0 l 10 -10 l -15 0 l 0 -10 q -3.874 7.753 -10 5 z"></path></g></g><g><path d="M -97.34999999999997 -41.812499999999986 l -7.5 7.5 57.5 62.5 7.5 -7.5 -57.5 -62.5 z"></path><path d="M -69.84999999999997 48.187500000000014 l 10 -10 l -30 0 l -10 10 l 30 0 z"></path></g><g><path d="M 30.150000000000034 -41.86249999999998 l -50 0 l -10 10 l 0 27 l 33.1 33.1 l 7.5 -7.5 l -30.6 -30.6 l 0 -22 l 40 0 l 10 -10 z"></path><g><path d="M 25.150000000000034 -31.862499999999983 l 12.5 12.5 l 7.5 -7.5 l -15 -15 q -8.65 2.75 -10 10 l 5 0 z"></path></g><g><path d="M 5.750000000000057 25.73750000000001 l 5 -5 l 10 10 l 7.15 -7.15 l -11.3 -11.2 l -7 7.1 l -1 1 q -3.183 -1.742 -3.85 0 q -0.916 1.293 0 6.25 z"></path></g></g><g><path d="M 85.15000000000003 -17.962499999999984 l -10 10 l 0 -33.85 l -10 10 l 0 36.2 l 10 -9.95 l 0 33.75 l 10 -10 l 0 -36.15 z"></path><g><path d="M 75.15000000000003 28.187500000000014 l 10 -10 l 0 -10 q -3.499 7.753 -10 5 l 0 5 l -10 0 l -10 10 l 20 0 z"></path></g></g><g><path d="M 150.15000000000003 -41.78749999999999 l -10 10 l 0 20 l -35 0 l -10 10 l 29.95 29.95 l 7.5 -7.5 l -22.45 -22.45 l 30 0 l 10 -10 l 0 -30 z"></path><path d="M 115.15000000000003 -59.287499999999994 l 7.5 7.5 l 7.5 -7.5 l -7.5 -7.5 l -7.5 7.5 z"></path><path d="M 112.65000000000003 48.162499999999994 l 0 25 l 20 -20 l -1.2 -1.2 l -8.8 8.8 l 0 -22.6 l -10 10 z"></path></g><g><path d="M 203.89999999999998 -39.312499999999986 l -1.2 -1.2 l -6.3 6.3 l 0 -27.6 l -10 10 l 0 30 l 17.5 -17.5 z"></path><path d="M 170.15000000000003 -11.812499999999986 l -10 10 l 50 0 l 10 -10 l -50 0 z"></path></g><g><path d="M 240.14999999999998 -41.812499999999986 l -10 10 l 0 60 l 10 -10 l 0 -60 z"></path><g><path d="M 230.14999999999998 13.187500000000014 l 0 15 l 10 -10 l 0 20 l 10 -9.9 l 0 -22.4 l -10 9.95 l 0 -5.15 q -5 6.1 -10 2.5 z"></path></g></g><g><path d="M 275.15 -41.812499999999986 l -10 10 l 0 35 l 19.95 0 l -24.95 25 l 40 0 l 10 -10 l -37.6 0 l 24.85 -25 l -22.25 0 l 0 -35 z"></path><path d="M 295.15 -51.812499999999986 l 10 -10 l -30 0 l -10 10 l 30 0 z"></path></g></g></g>
</svg>
