<svg xmlns="http://www.w3.org/2000/svg" viewBox="0 0 45 172.294907" width="45" height="172.294907" fill="currentColor" stroke="none">
<g transform="translate(22.5 86.147453)"><g><g><path d="M -12.5 11.799999999999999 l 10 -10 l 0 33.85 l 10 -10 l 0 -36.2 l -10 9.95 l 0 -33.75 l -10 10 l 0 36.15 z"></path><g><path d="M 9.899999999999999 -44.35 l -22.4 0 l -10 10.1 l 19.9 0 l 0.1 -0.1 l 0 0.1 l -0.05 0 l -9.95 9.9 l 0 5 q 5 -5.774 10 -5 l 0 -7.55 l 12.4 -12.4 z"></path></g><g><path d="M -2.5 20.65 l 0 15 l 12.6 0 l -7.5 7.5 l 1.2 1.2 l 18.7 -18.7 l -15 0 l 0 -10 q -3.85 7.75 -10 5 z"></path></g></g></g></g>
</svg>
