<svg xmlns="http://www.w3.org/2000/svg" viewBox="0 0 77.5 172.294907" width="77.5" height="172.294907" fill="currentColor" stroke="none">
<g transform="translate(38.75 86.147453)"><g><g><path d="M 3.75 32.5 l 10 -10 l 0 -35 l -26.3 0 l -8.7 8.75 l 0 -33.75 l -10 10 l 0 36.15 l 11.15 -11.15 l 23.85 0 l 0 35 z"></path><g><path d="M -31.25 -16.3 q 5 -12.14 10 -11.2 l 0 -10 l -17.5 17.5 l 1.2 1.2 l 6.3 -6.3 l 0 8.8 z"></path></g><g><path d="M 13.75 22.5 l 15 0 l 10 -10 l -17.45 0 l -7.6 7.6 l 0.05 -5.05 q -4.6 6.3 -10 4 l 0 13.45 l 9.95 -10 z"></path></g><path d="M 10 -47.5 l 10 -10 l -30 0 l -10 10 l 30 0 z"></path><path d="M -7.5 50 l 7.5 7.5 l 7.5 -7.5 l -7.5 -7.5 l -7.5 7.5 z"></path></g></g></g>
</svg>
