<svg xmlns="http://www.w3.org/2000/svg" viewBox="0 0 364.65 110" width="364.65" height="110" fill="currentColor" stroke="none">
<g transform="translate(182.325 55)"><g><g><path d="M -162.325 -35 l -10 10 l 0 60 l 10 -10 l 0 -60 z"></path><g><path d="M -162.325 -20 l 0 -15 l -10 10 l 0 -20 l -10 9.9 l 0 22.4 l 10 -9.95 l 0 5.15 q 5 -6.1 10 -2.5 z"></path></g><g><path d="M -162.325 25 l 15 0 l 10 -10 l -17.45 0 l -7.6 7.6 l 0.05 -5.05 q -4.6 6.3 -10 4 l 0 13.45 l 9.95 -10 z"></path></g></g><g><path d="M -72.32499999999999 -34.975 l -10 10 l 0 20 l -35 0 l -10 10 l 29.95 29.95 l 7.5 -7.5 l -22.45 -22.45 l 30 0 l 10 -10 l 0 -30 z"></path><g><path d="M -99.975 24.97499999999998 q -1.65 2.7 2.6 10 l 12.6 0 l -7.5 7.5 l 1.2 1.2 l 18.7 -18.7 l -20 0 q -7 -2.95 -7.6 0 z"></path></g><path d="M -89.82499999999999 -44.97500000000001 l 10 -10 l -30 0 l -10 10 l 30 0 z"></path></g><g><path d="M -44.125 -35 l -10 10 l 0 60 l 10 -10 l 0 -60 z"></path><g><path d="M -42.32499999999999 46.8 l -11.8 -11.8 l 10 -10 l 0 -5 q -5.188 7.964 -10 5 l 0 7.7 l -8.2 8.2 l 13 12.9 l 7 -7 z"></path></g></g><g><path d="M -14.824999999999989 -35 l -10 10 l 0 30 l 30 30 l 7.5 -7.5 l -27.5 -27.5 l 0 -35 z"></path><g><path d="M -24.82499999999999 -13.8 q 5 -12.14 10 -11.2 l 0 -10 l -17.5 17.5 l 1.2 1.2 l 6.3 -6.3 l 0 8.8 z"></path></g><g><path d="M 12.675000000000011 27.5 q -6.8 0.5 -7.5 7.5 l 15 15 l 15 -15 l -1.2 -1.2 l -7.5 7.5 l -13.8 -13.8 z"></path></g><path d="M 11.425000000000011 -45 l 10 -10 l -30 0 l -10 10 l 30 0 z"></path></g><g><path d="M 65.17500000000001 -11.15 l -10 10 l 0 -33.85 l -10 10 l 0 36.2 l 10 -9.95 l 0 33.75 l 10 -10 l 0 -36.15 z"></path><g><path d="M 64.82500000000002 22.9 q -0.375 0.363 -1.15 1.15 q -6.261 1.099 -8.5 -3.8 l 0 14.75 l 10 -10 l 10 10 l 7.15 -7.15 l -11.3 -11.2 l -5.85 5.9 q -0.04 0.029 -0.35 0.35 z"></path></g></g><g><path d="M 102.32499999999999 -35 l -10 10 l 0 60 l 10 -10 l 0 -60 z"></path><g><path d="M 92.32499999999999 20 l 0 15 l 10 -10 l 0 20 l 10 -9.9 l 0 -22.4 l -10 9.95 l 0 -5.15 q -5 6.1 -10 2.5 z"></path></g></g><g><path d="M 137.375 -25 l 34.95 0 l 10 -10 l -50 0 l -10 10 l 25 25 l 0 35 l 10 -10 l 0 -30.05 l -19.95 -19.95 z"></path><g><path d="M 157.325 42.6 l 0 -17.6 q -7.3 -5 -10 10 l 0 20 l 17.5 -17.5 l -1.2 -1.2 l -6.3 6.3 z"></path></g><path d="M 162.325 -45 l 10 -10 l -30 0 l -10 10 l 30 0 z"></path></g></g></g>
</svg>
