<svg xmlns="http://www.w3.org/2000/svg" viewBox="0 0 100.7 172.294907" width="100.7" height="172.294907" fill="currentColor" stroke="none">
<g transform="translate(50.35 86.147453)"><g><g><path d="M -40.45 -24.449999999999996 l -9.9 9.95 l 47.35 58.35 l 0.05 0 l 1.4 1.75 l 7.5 -7.5 l -42.7 -52.55 l 52.05 0 l 10 -10 l -65.75 0 z"></path><g><path d="M 25.300000000000004 -24.449999999999996 l 15.05 0 l 10 -10 l -17.45 0 l -9.95 10 l -7.6 0 q 4.95 4.2 -6.25 10 l 6.25 0 l 9.95 -10 z"></path></g><g><path d="M -2.6999999999999957 44.45000000000002 l -15.05 0 l -10 10 l 17.45 0 l 8.75 -8.85 q 1.75 -3.2 4.85 -7.2 q -5.7 -0.35 -6 6.05 z"></path></g><path d="M 10 -44.449999999999996 l 10 -10 l -30 0 l -10 10 l 30 0 z"></path></g></g></g>
</svg>
