<svg xmlns="http://www.w3.org/2000/svg" viewBox="0 0 73.75 172.294907" width="73.75" height="172.294907" fill="currentColor" stroke="none">
<g transform="translate(36.875 86.147453)"><g><g><path d="M 18.125 -36.64999999999999 l -10 10 l 0 20 l -35 0 l -10 10 l 29.95 29.95 l 7.5 -7.5 l -22.45 -22.45 l 30 0 l 10 -10 l 0 -30 z"></path><g><path d="M 18.125 -34.35 l 0 13.35 q -5.2 -4.7 -10 4.8 l 0 -10.45 l 16.35 -16.35 q 11.35 3.25 12.3 12.55 q 0.1 0.8 0.1 1.7 q 0 0.6 -0.05 1.2 q -3.4 -6.7 -18.7 -6.8 z"></path></g><g><path d="M -7.824999999999999 31.69999999999999 l -11.2 11.3 l 22.4 0 l 10 -10.1 l -19.9 0 l 7.1 -7.1 q -10.446 -1.157 -8.4 5.9 z"></path></g></g></g></g>
</svg>
