<svg xmlns="http://www.w3.org/2000/svg" viewBox="0 0 388.2 136.3" width="388.2" height="136.3" fill="currentColor" stroke="none">
<g transform="translate(194.1 68.15)"><g><g><path d="M -166.1 1.2499999999999911 l 7.45 -7.5 27.05 34.4 7.5 -7.5 -27.8 -36 -7.75 7.8 -26.95 -34.3 -7.5 7.5 28 35.6 z"></path></g><g><path d="M -104.1 -41.85000000000001 l -10 10 l 0 60 l 10 -10 l 0 -50 l 30 0 l 10 -10 l -40 0 z"></path><g><path d="M -66.6 -41.85000000000001 l -7.65 0 q 2.55 4.45 -5 10 l 5 0 l 15.85 -15.9 l -11.8 -11.7 l 7.5 -7.5 l -1.2 -1.2 l -14.5 14.5 l 11.8 11.8 z"></path></g><g><path d="M -114.1 48.14999999999999 l 10 -10 l 0 -20 q -7.3 -5 -10 10 l 0 20 z"></path></g><path d="M -76.25 68.14999999999999 l 10 -10 l -30 0 l -10 10 l 30 0 z"></path></g><g><path d="M -38.400000000000006 -41.85000000000001 l -10 10 l 0 60 l 40 0 l 10 -10 l -40 0 l 0 -60 z"></path><path d="M -30.900000000000006 -59.35000000000001 l 7.5 7.5 l 7.5 -7.5 l -7.5 -7.5 l -7.5 7.5 z"></path><path d="M -30.900000000000006 45.64999999999999 l 7.5 7.5 l 7.5 -7.5 l -7.5 -7.5 l -7.5 7.5 z"></path></g><g><path d="M 19.099999999999994 -41.85000000000001 l -7.5 7.5 57.5 62.5 7.5 -7.5 -57.5 -62.5 z"></path><path d="M 11.599999999999994 8.149999999999991 l 20 20 l 7.5 -7.5 l -20 -20 l -7.5 7.5 z"></path><path d="M 54.099999999999994 -51.85000000000001 l 10 -10 l -30 0 l -10 10 l 30 0 z"></path></g><g><path d="M 121.6 -41.85000000000001 l -10 10 l 0 35 l 26.3 0 l 8.7 -8.75 l 0 33.75 l 10 -10 l 0 -36.15 l -11.15 11.15 l -23.85 0 l 0 -35 z"></path><g><path d="M 111.65 -29.45000000000001 l -0.05 5.05 q 4.6 -6.3 10 -4 l 0 -13.45 l -9.95 10 l -12.65 0 l 7.5 -7.5 l -1.2 -1.2 l -18.7 18.7 l 17.45 0 l 7.6 -7.6 z"></path></g><g><path d="M 146.54999999999998 25.849999999999994 l -15 0 l -10 10 l 17.4 0 l 17.65 -17.7 l 0 -7.3 q -5.4 4.35 -10 2.75 l 0 12.25 z"></path></g></g><g><path d="M 186.6 -18.000000000000007 l -10 10 l 0 -33.85 l -10 10 l 0 36.2 l 10 -9.95 l 0 33.75 l 10 -10 l 0 -36.15 z"></path><g><path d="M 186.6 35.74999999999999 l 0 -17.6 q -7.3 -5 -10 10 l 0 20 l 17.5 -17.5 l -1.2 -1.2 l -6.3 6.3 z"></path></g></g></g></g>
</svg>
