<svg xmlns="http://www.w3.org/2000/svg" viewBox="0 0 584.55 171.375" width="584.55" height="171.375" fill="currentColor" stroke="none">
<g transform="translate(292.275 85.6875)"><g><g><path d="M -282.275 -60.6875 l -10 10 l 0 60 l 10 -10 l 0 -60 z"></path></g><g><path d="M -212.87499999999997 -60.6875 l -50 0 l -9.4 9.4 l 23.2 33.05 l 6.2 -6.25 l 0 33.8 l 10 -10 l 0 -36.15 l -1.1 1.1 q -2.967 2.977 -5.95 5.95 l -1.95 2 l -0.65 0.65 l -16.5 -23.5 l 36.2 0 l 10 -10 z"></path><g><path d="M -242.87499999999997 29.3125 l 10 -10 l 0 -20 q -7.3 -5 -10 10 l 0 20 z"></path></g><path d="M -232.54999999999998 -70.6875 l 10 -10 l -30 0 l -10 10 l 30 0 z"></path></g><g><path d="M -192.825 -60.6875 l -10 10 l 0 60 l 10 -10 l 0 -60 z"></path></g><g><path d="M -126.52499999999998 9.3125 l 7.5 -7.5 -26.9 -26.9 7.45 -7.55 -28.05 -28.05 -7.5 7.5 26.9 26.9 -7.5 7.5 28.1 28.1 z"></path><path d="M -172.825 -51.9875 q 4.2 0.65 6.3 -2.7 q 0.8 -1 0 -6 l -6.3 6.3 l 0 -19.95 l -10 10.1 l 0 22.35 l 10 -10.1 z"></path><path d="M -129.12499999999997 -0.6875 q -1.655 2.716 2.6 10 l 15 0 l 10 -10 l -20 0 q -7.015 -2.931 -7.6 0 z"></path><path d="M -154.02499999999998 -78.1875 l 7.5 7.5 l 7.5 -7.5 l -7.5 -7.5 l -7.5 7.5 z"></path></g><g><path d="M -41.52499999999998 -50.6875 l 10 -10 l -50 0 l -10 10 l 0 30 l 30 0 l 0 30 l 10 -10 l 0 -30 l -30 0 l 0 -20 l 40 0 z"></path></g><g><path d="M -11.625 -60.7125 l -9.9 9.95 l 47.35 58.35 l 0.05 0 l 1.4 1.75 l 7.5 -7.5 l -42.7 -52.55 l 52.05 0 l 10 -10 l -65.75 0 z"></path><g><path d="M 9.775000000000034 39.48750000000001 l 1.2 1.2 l 16.3 -16.3 l 0 -15.05 l 7.5 -7.5 q -11.45 -4.9 -8.7 6.3 l -8.8 8.9 l 0 14.95 l -7.5 7.5 z"></path></g><path d="M 26.30000000000001 75.6875 l 0 -25 l -20 20 l 1.2 1.2 l 8.8 -8.8 l 0 22.6 l 10 -10 z"></path></g><g><path d="M 152.37500000000006 9.337499999999999 l 9.9 -9.95 l -47.35 -58.35 l -0.05 0 l -1.4 -1.75 l -7.5 7.5 l 42.7 52.55 l -52.05 0 l -10 10 l 65.75 0 z"></path><g><path d="M 105.97500000000002 -53.212500000000006 q 6.8 -0.5 7.5 -7.5 l -15 -15 l -15 15 l 1.2 1.2 l 7.5 -7.5 l 13.8 13.8 z"></path></g><g><path d="M 64.12500000000006 1.8375000000000057 l 1.2 1.2 l 7.5 -7.5 l 13.8 13.8 q 8.65 -2.75 10 -10 l -5 0 l -12.5 -12.5 l -15 15 z"></path></g><path d="M 123.20000000000005 44.337500000000006 l 0 -25 l -20 20 l 1.2 1.2 l 8.8 -8.8 l 0 22.6 l 10 -10 z"></path></g><g><path d="M 212.27500000000003 9.3125 l 10 -10 l 0 -36.3 l -10 10.05 l 0 -33.75 l -10 10 l 0 36.15 l 10 -10 l 0 23.85 l -30 0 l -10 10 l 40 0 z"></path><path d="M 207.27500000000003 29.3125 l 10 -10 l -30 0 l -10 10 l 30 0 z"></path></g><g fill="currentColor"><path d="M 277.275 -71.9875 l -1.25 -1.15 q -15.871 14.121 -3.75 22.45 l -20 0 l -10 10 l 40 0 l 10 -10 q -24.307 -9.097 -15 -21.3 z"></path><path d="M 242.27499999999998 -30.6875 l -10 10 l 50 0 l 10 -10 l -50 0 z"></path></g></g></g>
</svg>
