<svg xmlns="http://www.w3.org/2000/svg" viewBox="0 0 566.55 117.55" width="566.55" height="117.55" fill="currentColor" stroke="none">
<g transform="translate(283.275 58.775)"><g><g><path d="M -230.77500000000003 31.225 l 7.5 -7.5 -26.9 -26.9 7.45 -7.55 -28.05 -28.05 -7.5 7.5 26.9 26.9 -7.5 7.5 28.1 28.1 z"></path><path d="M -273.27500000000003 13.725000000000001 l -10 10 l 0 25 l 10 -10 l 0 -25 z"></path><path d="M -265.77500000000003 48.725 l 7.5 7.5 l 7.5 -7.5 l -7.5 -7.5 l -7.5 7.5 z"></path></g><g><path d="M -153.87500000000006 -38.775 l -50 0 l -9.4 9.4 l 23.2 33.05 l 6.2 -6.25 l 0 33.8 l 10 -10 l 0 -36.15 l -1.1 1.1 q -2.967 2.977 -5.95 5.95 l -1.95 2 l -0.65 0.65 l -16.5 -23.5 l 36.2 0 l 10 -10 z"></path><g><path d="M -173.87500000000006 38.825 l 0 -17.6 q -7.3 -5 -10 10 l 0 20 l 17.5 -17.5 l -1.2 -1.2 l -6.3 6.3 z"></path></g></g><g><path d="M -136.32500000000005 -38.775 l -7.5 7.5 57.5 62.5 7.5 -7.5 -57.5 -62.5 z"></path><path d="M -135.17500000000004 -37.625 l 15.05 0 l 10 -10 l -17.45 0 l -8.75 8.85 q -1.75 3.2 -4.85 7.2 q 5.7 0.35 6 -6.05 z"></path><path d="M -81.87500000000006 24.825000000000003 q -1.825 3.28 -4.45 6.4 l -7.5 7.5 l -1.2 -1.2 l 7.5 -7.5 q -1.688 -4.106 -0.35 -4.55 q 1.45 -0.6 6 -0.65 z"></path><path d="M -126.32500000000005 48.725 l 7.5 7.5 l 7.5 -7.5 l -7.5 -7.5 l -7.5 7.5 z"></path></g><g><path d="M -3.175000000000068 -28.7 l 10 -10 l -65.75 0 l -9.9 9.95 l 30.45 37.55 l 7.25 -7.3 l 24.15 29.65 l 7.45 -7.4 l -25.2 -31.05 l -7.5 7.45 l -23.1 -28.85 l 52.15 0 z"></path><g><path d="M 0.5249999999999204 23.65 q -6.8 0.5 -7.5 7.5 l 15 15 l 15 -15 l -1.2 -1.2 l -7.5 7.5 l -13.8 -13.8 z"></path></g></g><g><path d="M 40.52499999999992 -38.775 l -7.5 7.5 57.5 62.5 7.5 -7.5 -57.5 -62.5 z"></path></g><g><path d="M 123.02499999999992 -28.825 l 0 25 l -8.45 8.45 l 26.7 26.65 l 7.5 -7.5 l -25.5 -25.5 l 9.75 -9.7 l 0 -27.4 l -10 10 z"></path><g><path d="M 133.02499999999992 -38.824999999999996 l -15 0 l 0 -15 l -10 10 l 0 15 l 15 0 l 0 10 q 3.85 -7.75 10 -5 l 0 -15 z"></path></g><g><path d="M 145.7249999999999 24.875 q -1.825 3.28 -4.45 6.4 l -7.5 7.5 l -1.2 -1.2 l 7.5 -7.5 q -1.688 -4.106 -0.35 -4.55 q 1.45 -0.6 6 -0.65 z"></path></g><path d="M 138.39999999999992 58.775 l 10 -10 l -30 0 l -10 10 l 30 0 z"></path></g><g><path d="M 178.77499999999992 -14.924999999999999 l -10 10 l 0 -33.85 l -10 10 l 0 36.2 l 10 -9.95 l 0 33.75 l 10 -10 l 0 -36.15 z"></path><g><path d="M 168.82499999999993 -36.475 l 15 0 l 10 -10 l -17.4 0 l -17.65 17.7 l 0 7.3 q 5.4 -4.35 10 -2.75 l 0 -12.25 z"></path></g><g><path d="M 168.77499999999992 51.225 l 10 -10 l 0 -20 q -7.3 -5 -10 10 l 0 20 z"></path></g></g><g><path d="M 213.82499999999993 -38.775 l -10 10 l 0 60 l 10 -10 l 0 -60 z"></path></g><g><path d="M 283.22499999999997 -38.775 l -50 0 l -9.4 9.4 l 23.2 33.05 l 6.2 -6.25 l 0 33.8 l 10 -10 l 0 -36.15 l -1.1 1.1 q -2.967 2.977 -5.95 5.95 l -1.95 2 l -0.65 0.65 l -16.5 -23.5 l 36.2 0 l 10 -10 z"></path><g><path d="M 263.22499999999997 38.825 l 0 -17.6 q -7.3 -5 -10 10 l 0 20 l 17.5 -17.5 l -1.2 -1.2 l -6.3 6.3 z"></path></g><path d="M 263.55 -48.775 l 10 -10 l -30 0 l -10 10 l 30 0 z"></path></g></g></g>
</svg>
