<svg xmlns="http://www.w3.org/2000/svg" viewBox="0 0 295.55 130.2" width="295.55" height="130.2" fill="currentColor" stroke="none">
<g transform="translate(147.775 65.1)"><g><g><path d="M -140.275 -40.124999999999986 l -7.5 7.5 57.5 62.5 7.5 -7.5 -57.5 -62.5 z"></path></g><g><path d="M -32.775000000000006 -0.4999999999999858 l 10 -10 l -29.85 -29.85 l -7.5 7.5 l 22.35 22.35 l -20 0 l -15 15 l 25.6 25.6 l 7.5 -7.5 l -23.1 -23.1 l 30 0 z"></path><g><path d="M -64.42500000000001 -52.14999999999999 l 11.8 11.8 l -5 5 q 7.681 1.687 7.1 -0.5 l -0.95 -3.35 l 7.05 -7.05 l -13 -12.9 z"></path></g><g><path d="M -27.17500000000001 20.100000000000016 l -15 0 q -7 -2.95 -7.6 0 q -1.65 2.7 2.6 10 l 10 0 l 0 15 l 10 -10 l 0 -15 z"></path></g><path d="M -37.775000000000006 65.10000000000001 l 10 -10 l -30 0 l -10 10 l 30 0 z"></path></g><g><path d="M 9.025000000000006 -16.274999999999984 l -10 10 l 0 -33.85 l -10 10 l 0 36.2 l 10 -9.95 l 0 33.75 l 10 -10 l 0 -36.15 z"></path><g><path d="M -12.775000000000006 -51.92499999999998 l 11.8 11.8 l -10 10 l 0 5 q 5.188 -7.964 10 -5 l 0 -7.7 l 8.2 -8.2 l -13 -12.9 l -7 7 z"></path></g><g><path d="M -0.9749999999999943 49.875000000000014 l 10 -10 l 0 -20 q -7.3 -5 -10 10 l 0 20 z"></path></g></g><g><path d="M 74.025 -40.09999999999999 l -10 10 l 0 20 l -35 0 l -10 10 l 29.95 29.95 l 7.5 -7.5 l -22.45 -22.45 l 30 0 l 10 -10 l 0 -30 z"></path><path d="M 39.025000000000006 -57.599999999999994 l 7.5 7.5 l 7.5 -7.5 l -7.5 -7.5 l -7.5 7.5 z"></path><path d="M 56.525000000000006 49.849999999999994 l 10 -10 l -30 0 l -10 10 l 30 0 z"></path></g><g><path d="M 127.775 -50.124999999999986 l -7.5 7.5 l 12.5 12.5 l -25 0 l -17.5 17.5 l 1.2 1.2 l 8.7 -8.7 l 37.6 0 l 10 -10 l -20 -20 z"></path><path d="M 94.025 -10.124999999999986 l -10 10 l 50 0 l 10 -10 l -50 0 z"></path></g></g></g>
</svg>
