<svg xmlns="http://www.w3.org/2000/svg" viewBox="0 0 463.8 128.7" width="463.8" height="128.7" fill="currentColor" stroke="none">
<g transform="translate(231.9 64.35)"><g><g><path d="M -199.34999999999997 -39.349999999999994 l -7.5 7.5 57.5 62.5 7.5 -7.5 -57.5 -62.5 z"></path><path d="M -206.84999999999997 -31.849999999999994 l -15.05 0 l -10 10 l 17.45 0 l 8.75 -8.8 q 6.9 0.2 3.8 -6.15 l -4.95 4.95 z"></path><path d="M -146.84999999999997 28.150000000000006 l 5 -5 l 10 10 l 7.15 -7.15 l -11.3 -11.2 l -7 7.1 l -1 1 q -3.183 -1.742 -3.85 0 q -0.916 1.293 0 6.25 z"></path><path d="M -146.74999999999997 -29.349999999999994 l -8.8 8.8 l 1.2 1.2 l 20 -20 l -30 0 l -10 10 l 27.6 0 z"></path></g><g><path d="M -59.69999999999999 -39.324999999999996 l -10 10 l 0 20 l -35 0 l -10 10 l 29.95 29.95 l 7.5 -7.5 l -22.45 -22.45 l 30 0 l 10 -10 l 0 -30 z"></path><g><path d="M -87.35 20.624999999999986 q -1.655 2.716 2.6 10 l 15 0 l 10 -10 l -20 0 q -7.015 -2.931 -7.6 0 z"></path></g></g><g><path d="M -25.05000000000001 -39.349999999999994 l -7.5 7.5 57.5 62.5 7.5 -7.5 -57.5 -62.5 z"></path><path d="M -27.55000000000001 -36.849999999999994 l -5 5 l -10 -10 l -7.15 7.15 l 11.3 11.2 l 7 -7.1 l 1 -1 q 3.183 1.742 3.85 0 q 0.916 -1.293 0 -6.25 z"></path><path d="M -10.050000000000011 30.650000000000006 l 10 -10 l -30 0 l -10 10 l 30 0 z"></path><path d="M 29.94999999999999 -29.349999999999994 l 10 -10 l -30 0 l -10 10 l 30 0 z"></path><path d="M -7.550000000000011 -56.849999999999994 l 7.5 7.5 l 7.5 -7.5 l -7.5 -7.5 l -7.5 7.5 z"></path></g><g><path d="M 59.849999999999966 -39.37499999999999 l -9.9 9.95 l 47.35 58.35 l 0.05 0 l 1.4 1.75 l 7.5 -7.5 l -42.7 -52.55 l 52.05 0 l 10 -10 l -65.75 0 z"></path></g><g><path d="M 183.09999999999997 30.650000000000006 l 10 -10 l 0 -60 l -10 10 l 0 50 l -30 0 l -10 10 l 40 0 z"></path><g><path d="M 183.09999999999997 -46.949999999999996 l 0 17.6 q 7.3 5 10 -10 l 0 -20 l -17.5 17.5 l 1.2 1.2 l 6.3 -6.3 z"></path></g><g><path d="M 163.09999999999997 20.650000000000006 l -10 0 l -17.5 17.5 l 1.2 1.2 l 8.7 -8.7 l 7.6 0 q -0.83 -5.4 10 -10 z"></path></g><path d="M 156.84999999999997 56.85000000000001 l 7.5 7.5 l 7.5 -7.5 l -7.5 -7.5 l -7.5 7.5 z"></path></g><g><path d="M 231.89999999999998 -15.499999999999995 l -10 10 l 0 -33.85 l -10 10 l 0 36.2 l 10 -9.95 l 0 33.75 l 10 -10 l 0 -36.15 z"></path><g><path d="M 231.89999999999998 20.650000000000006 l 0 -5 q -6.25 9 -10 5 l 0 7.6 l -11.8 -11.7 l -7 7 l 12.95 12.95 l 15.85 -15.85 z"></path></g></g></g></g>
</svg>
