<svg xmlns="http://www.w3.org/2000/svg" viewBox="0 0 58 172.294907" width="58" height="172.294907" fill="currentColor" stroke="none">
<g transform="translate(29 86.147453)"><g><g fill="currentColor"><path d="M -11.5 -62.274999999999984 l -10 10 l 0 40 l 9.55 -9.55 l 20.65 29.4 l 7.5 -7.5 l -21.6 -30.85 l -6.1 6.1 l 0 -37.6 z"></path><g><path d="M -21.5 -41.07499999999999 q 5 -12.14 10 -11.2 l 0 -10 l -17.5 17.5 l 1.2 1.2 l 6.3 -6.3 l 0 8.8 z"></path></g><g><path d="M 7.799999999999997 5.975000000000001 l -11.2 11.3 l 22.4 0 l 10 -10.1 l -19.9 0 l 7.1 -7.1 q -10.446 -1.157 -8.4 5.9 z"></path></g><path d="M -10 37.274999999999984 l 0 25 l 20 -20 l -1.2 -1.2 l -8.8 8.8 l 0 -22.6 l -10 10 z"></path></g></g></g>
</svg>
