<svg xmlns="http://www.w3.org/2000/svg" viewBox="0 0 230.05 118.7" width="230.05" height="118.7" fill="currentColor" stroke="none">
<g transform="translate(115.025 59.35)"><g><g><path d="M -107.525 -49.42499999999999 l -7.5 7.5 57.5 62.5 7.5 -7.5 -57.5 -62.5 z"></path></g><g><path d="M 19.974999999999994 -49.34999999999999 l -50 0 l -10 10 l 0 40 l 9.55 -9.55 l 20.65 29.4 l 7.65 -7.65 l -21.65 -30.8 l -6.2 6.2 l 0 -27.6 l 40 0 l 10 -10 z"></path><g><path d="M 19.974999999999994 -49.349999999999994 l 15.05 0 l 10 -10 l -17.45 0 l -9.95 10 l -7.6 0 q 4.95 4.2 -6.25 10 l 6.25 0 l 9.95 -10 z"></path></g><g><path d="M -10.975000000000009 19.35 l -15.05 0 l -10 10 l 17.45 0 l 8.75 -8.85 q 1.75 -3.2 4.85 -7.2 q -5.7 -0.35 -6 6.05 z"></path></g><path d="M -5.1000000000000085 49.349999999999994 l 8.8 -8.8 l -1.2 -1.2 l -20 20 l 30 0 l 10 -10 l -27.6 0 z"></path></g><g><path d="M 75.025 -39.42499999999999 q -0.1 -10.25 13.15 -13.1 l -1.2 -1.1 q -22.3 -0.55 -21.95 24.2 l 37.6 0 l -7.5 7.5 l 1.2 1.2 l 18.7 -18.7 l -40 0 z"></path><path d="M 65.025 -19.42499999999999 l -10 10 l 50 0 l 10 -10 l -50 0 z"></path></g></g></g>
</svg>
