<svg xmlns="http://www.w3.org/2000/svg" viewBox="0 0 83.15 172.294907" width="83.15" height="172.294907" fill="currentColor" stroke="none">
<g transform="translate(41.575 86.147453)"><g><g fill="currentColor"><path d="M -31.675 -60.675 l -9.9 9.95 l 47.35 58.35 l 0.05 0 l 1.4 1.75 l 7.5 -7.5 l -42.7 -52.55 l 52.05 0 l 10 -10 l -65.75 0 z"></path><g><path d="M 14.075000000000003 -50.675 l 10 0 l 17.5 -17.5 l -1.2 -1.2 l -8.7 8.7 l -7.6 0 q 0.83 5.4 -10 10 z"></path></g><g><path d="M 27.22500000000001 -0.6249999999999858 l -15 0 q -7 -2.95 -7.6 0 q -1.65 2.7 2.6 10 l 10 0 l 0 15 l 10 -10 l 0 -15 z"></path></g><path d="M 10 59.37500000000001 l 0 -25 l -20 20 l 1.2 1.2 l 8.8 -8.8 l 0 22.6 l 10 -10 z"></path></g></g></g>
</svg>
