<svg xmlns="http://www.w3.org/2000/svg" viewBox="0 0 140 95" width="140" height="95" fill="currentColor" stroke="none">
<g transform="translate(70 47.5)"><g><g><path d="M -42 -4.4 l 7.45 -7.5 27.05 34.4 7.5 -7.5 -27.8 -36 -7.75 7.8 -26.95 -34.3 -7.5 7.5 28 35.6 z"></path><path d="M -67.5 15 l 0 25 l 20 -20 l -1.2 -1.2 l -8.8 8.8 l 0 -22.6 l -10 10 z"></path><path d="M -50 40 l 7.5 7.5 l 7.5 -7.5 l -7.5 -7.5 l -7.5 7.5 z"></path></g><g><path d="M 30 -47.5 l -10 10 l 0 50 l -10 10 l 45 0 l 10 -10 l -42.6 0 l 7.6 -7.6 l 0 -42.4 l 30 0 l 10 -10 l -40 0 z"></path></g></g></g>
</svg>
