<svg xmlns="http://www.w3.org/2000/svg" viewBox="0 0 301.2 130.05" width="301.2" height="130.05" fill="currentColor" stroke="none">
<g transform="translate(150.6 65.025)"><g><g><path d="M -143.10000000000002 -40.00000000000001 l -7.5 7.5 57.5 62.5 7.5 -7.5 -57.5 -62.5 z"></path></g><g><path d="M -20.600000000000023 -39.97500000000001 l -10 10 l 0 20 l -35 0 l -10 10 l 29.95 29.95 l 7.5 -7.5 l -22.45 -22.45 l 30 0 l 10 -10 l 0 -30 z"></path><g><path d="M -8.200000000000017 -49.975000000000016 l -22.4 0 l -10 10.1 l 19.9 0 l 0.1 -0.1 l 0 0.1 l -0.05 0 l -9.95 9.9 l 0 5 q 5 -5.774 10 -5 l 0 -7.55 l 12.4 -12.4 z"></path></g><g><path d="M -48.25000000000003 19.974999999999973 q -1.655 2.716 2.6 10 l 15 0 l 10 -10 l -20 0 q -7.015 -2.931 -7.6 0 z"></path></g><path d="M -31.90000000000002 49.97499999999997 l 10 -10 l -30 0 l -10 10 l 30 0 z"></path></g><g><path d="M 11.699999999999989 -40.025000000000006 l -9.9 9.95 l 47.35 58.35 l 0.05 0 l 1.4 1.75 l 7.5 -7.5 l -42.7 -52.55 l 52.05 0 l 10 -10 l -65.75 0 z"></path><g><path d="M 58.099999999999994 22.525000000000006 q -6.8 0.5 -7.5 7.5 l 15 15 l 15 -15 l -1.2 -1.2 l -7.5 7.5 l -13.8 -13.8 z"></path></g><path d="M 33.69999999999999 -57.525000000000006 l 7.5 7.5 l 7.5 -7.5 l -7.5 -7.5 l -7.5 7.5 z"></path><path d="M 51.19999999999999 65.025 l 10 -10 l -30 0 l -10 10 l 30 0 z"></path></g><g><path d="M 123.10000000000002 -42.50000000000001 l 12.5 12.5 l -25 0 l -10 10 l 40 0 l 10 -10 l -20 -20 l -7.5 7.5 z"></path><path d="M 100.6 -10.000000000000007 l -10 10 l 50 0 l 10 -10 l -50 0 z"></path></g></g></g>
</svg>
