<svg xmlns="http://www.w3.org/2000/svg" viewBox="0 0 91.6 128.55" width="91.6" height="128.55" fill="currentColor" stroke="none">
<g transform="translate(45.8 64.275)"><g><g fill="currentColor"><path d="M -35.900000000000006 -57.12500000000001 l -9.9 9.95 l 47.35 58.35 l 0.05 0 l 1.4 1.75 l 7.5 -7.5 l -42.7 -52.55 l 52.05 0 l 10 -10 l -65.75 0 z"></path><g><path d="M 15.300000000000004 -47.12500000000001 l 4.55 0 l 8.8 -8.8 l 10 10 l 7.15 -7.15 l -11.3 -11.2 l -7.05 7.15 l -6.3 0 q 3.7 5 -5.85 10 z"></path></g><g><path d="M -14.5 43.075 l 1.2 1.2 l 16.3 -16.3 l 0 -15.05 l 7.5 -7.5 q -11.45 -4.9 -8.7 6.3 l -8.8 8.9 l 0 14.95 l -7.5 7.5 z"></path></g><path d="M 9.999999999999993 64.275 l 10 -10 l -30 0 l -10 10 l 30 0 z"></path></g></g></g>
</svg>
