<svg xmlns="http://www.w3.org/2000/svg" viewBox="0 0 31.8 172.294907" width="31.8" height="172.294907" fill="currentColor" stroke="none">
<g transform="translate(15.9 86.147453)"><g><g><path d="M 5.9 -10.549999999999999 l -10 10 l 0 -33.85 l -10 10 l 0 36.2 l 10 -9.95 l 0 33.75 l 10 -10 l 0 -36.15 z"></path><g><path d="M -15.9 -46.199999999999996 l 11.8 11.8 l -10 10 l 0 5 q 5.188 -7.964 10 -5 l 0 -7.7 l 8.2 -8.2 l -13 -12.9 l -7 7 z"></path></g><g><path d="M -4.1 33.2 l -7.5 7.55 q 16.8 -0.55 27.5 12.45 q -4.6 -18.35 -18.85 -18.8 l 8.85 -8.8 l 0 -5 q -4.75 4.55 -10 1.5 l 0 11.1 z"></path></g></g></g></g>
</svg>
