<svg xmlns="http://www.w3.org/2000/svg" viewBox="0 0 415.811572 110.025" width="415.811572" height="110.025" fill="currentColor" stroke="none">
<g transform="translate(207.905786 55.0125)"><g><g><path d="M -197.9057861328125 -24.987499999999997 l -10 10 l 0 60 l 10 -10 l 0 -60 z"></path><g><path d="M -197.85578613281248 -22.6875 l 15 0 l 10 -10 l -17.4 0 l -17.65 17.7 l 0 7.3 q 5.4 -4.35 10 -2.75 l 0 -12.25 z"></path></g><g><path d="M -207.9057861328125 30.012500000000003 l 0 15 l 10 -10 l 0 20 l 10 -9.9 l 0 -22.4 l -10 9.95 l 0 -5.15 q -5 6.1 -10 2.5 z"></path></g></g><g><path d="M -152.95578613281248 -25.012499999999996 l -9.9 9.95 l 47.35 58.35 l 0.05 0 l 1.4 1.75 l 7.5 -7.5 l -42.7 -52.55 l 52.05 0 l 10 -10 l -65.75 0 z"></path><g><path d="M -87.20578613281249 -25.012499999999996 l 15.05 0 l 10 -10 l -17.45 0 l -9.95 10 l -7.6 0 q 4.95 4.2 -6.25 10 l 6.25 0 l 9.95 -10 z"></path></g><g><path d="M -115.20578613281249 43.88750000000002 l -15.05 0 l -10 10 l 17.45 0 l 8.75 -8.85 q 1.75 -3.2 4.85 -7.2 q -5.7 -0.35 -6 6.05 z"></path></g><path d="M -102.50578613281249 -45.012499999999996 l 10 -10 l -30 0 l -10 10 l 30 0 z"></path></g><g><path d="M -24.655786132812494 -1.1374999999999975 l -10 10 l 0 -33.85 l -10 10 l 0 36.2 l 10 -9.95 l 0 33.75 l 10 -10 l 0 -36.15 z"></path><g><path d="M -44.655786132812494 -32.5875 l 0 17.6 q 7.3 5 10 -10 l 0 -20 l -17.5 17.5 l 1.2 1.2 l 6.3 -6.3 z"></path></g><g><path d="M -24.655786132812494 35.0125 l 15 0 l 10 -10 l -17.45 0 l -7.6 7.6 l 0.05 -5.05 q -4.6 6.3 -10 4 l 0 13.45 l 9.95 -10 z"></path></g></g><g><path d="M 39.14421386718752 -1.1374999999999975 l -10 10 l 0 -33.85 l -10 10 l 0 36.2 l 10 -9.95 l 0 33.75 l 10 -10 l 0 -36.15 z"></path><g><path d="M 19.144213867187517 -32.5875 l 0 17.6 q 7.3 5 10 -10 l 0 -20 l -17.5 17.5 l 1.2 1.2 l 6.3 -6.3 z"></path></g><g><path d="M 39.14421386718752 35.0125 l 0 -5 q -6.25 9 -10 5 l 0 7.6 l -11.8 -11.7 l -7 7 l 12.95 12.95 l 15.85 -15.85 z"></path></g></g><g><path d="M 69.14421386718752 -1.1374999999999975 l -10 10 l 0 -33.85 l -10 10 l 0 36.2 l 10 -9.95 l 0 33.75 l 10 -10 l 0 -36.15 z"></path><g><path d="M 49.14421386718752 -14.987499999999997 l 0 7.3 q 4.546 -5.888 10 -3.05 l 0 -11.95 l 15.05 0 l 17.5 -17.5 l -1.2 -1.2 l -8.7 8.7 l -15 0 l -17.65 17.7 z"></path></g><g><path d="M 59.14421386718752 30.012500000000003 l 0 15 l 15 0 l 10 -10 l -15 0 l 0 -10 q -3.874 7.753 -10 5 z"></path></g></g><g><path d="M 121.69421386718753 -1.1374999999999975 l -10 10 l 0 -33.85 l -10 10 l 0 36.2 l 10 -9.95 l 0 33.75 l 10 -10 l 0 -36.15 z"></path><g><path d="M 111.69421386718753 29.362500000000004 l 0 15.65 l 10 -10.05 q 10.8 2.6 16.2 18.85 q 0.35 -21.9 -9.85 -27.5 l -6.35 6.35 l 0 -8.1 q -4.8 9.5 -10 4.8 z"></path></g></g><g><path d="M 157.9057861328125 -24.987499999999997 l -10 10 l 0 60 l 10 -10 l 0 -60 z"></path></g><g><path d="M 179.05578613281247 -24.912499999999994 l -10 10 l 0 40 l 9.55 -9.55 l 20.65 29.4 l 7.5 -7.5 l -21.6 -30.85 l -6.1 6.1 l 0 -37.6 z"></path><path d="M 197.9057861328125 -34.9125 l 10 -10 l -30 0 l -10 10 l 30 0 z"></path></g></g></g>
</svg>
