<svg xmlns="http://www.w3.org/2000/svg" viewBox="0 0 406.55 138.725" width="406.55" height="138.725" fill="currentColor" stroke="none">
<g transform="translate(203.275 69.3625)"><g><g><path d="M -193.27499999999998 -40.637499999999996 l -10 10 l 0 60 l 10 -10 l 0 -60 z"></path><g><path d="M -203.27499999999998 14.362500000000004 l 0 15 l 15 0 l 10 -10 l -15 0 l 0 -10 q -3.874 7.753 -10 5 z"></path></g></g><g><path d="M -128.27499999999998 -1.0124999999999957 l 10 -10 l -29.85 -29.85 l -7.5 7.5 l 22.35 22.35 l -20 0 l -15 15 l 25.6 25.6 l 7.5 -7.5 l -23.1 -23.1 l 30 0 z"></path><path d="M -133.27499999999998 -50.8625 l 10 -10 l -30 0 l -10 10 l 30 0 z"></path></g><g><path d="M -100.77499999999998 -40.637499999999996 l -7.5 7.5 57.5 62.5 7.5 -7.5 -57.5 -62.5 z"></path></g><g><path d="M 26.12500000000003 -40.637499999999996 l -50 0 l -9.4 9.4 l 23.2 33.05 l 6.2 -6.25 l 0 33.8 l 10 -10 l 0 -36.15 l -1.1 1.1 q -2.967 2.977 -5.95 5.95 l -1.95 2 l -0.65 0.65 l -16.5 -23.5 l 36.2 0 l 10 -10 z"></path><g><path d="M 27.975000000000023 -18.837499999999995 l -11.8 -11.8 l 10 -10 l -11.15 0 q 3.75 5.2 -5.8 10 l 4.65 0 l -5.9 5.9 l 13 12.9 l 7 -7 z"></path></g><g><path d="M 6.125000000000028 36.962500000000006 l 0 -17.6 q -7.3 -5 -10 10 l 0 20 l 17.5 -17.5 l -1.2 -1.2 l -6.3 6.3 z"></path></g><path d="M 7.350000000000023 69.36250000000001 l 10 -10 l -30 0 l -10 10 l 30 0 z"></path></g><g><path d="M 47.97500000000002 -40.637499999999996 l -10 10 l 0 60 l 10 -10 l 0 -60 z"></path><g><path d="M 37.97500000000002 14.362500000000004 l 0 15 l 15 0 l 10 -10 l -15 0 l 0 -10 q -3.874 7.753 -10 5 z"></path></g></g><g><path d="M 82.875 -40.662499999999994 l -9.9 9.95 l 47.35 58.35 l 0.05 0 l 1.4 1.75 l 7.5 -7.5 l -42.7 -52.55 l 52.05 0 l 10 -10 l -65.75 0 z"></path><g><path d="M 128.625 -30.662499999999994 l 10 0 l 17.5 -17.5 l -1.2 -1.2 l -8.7 8.7 l -7.6 0 q 0.83 5.4 -10 10 z"></path></g><g><path d="M 122.875 26.337500000000016 q 3.28 -1.825 6.4 -4.45 l 7.5 -7.5 l -1.2 -1.2 l -7.5 7.5 q -4.106 -1.688 -4.55 -0.35 q -0.6 1.45 -0.65 6 z"></path></g><path d="M 124.55000000000001 -59.3625 l 10 -10 l -30 0 l -10 10 l 30 0 z"></path></g><g><path d="M 203.27499999999998 -16.787499999999994 l -10 10 l 0 -33.85 l -10 10 l 0 36.2 l 10 -9.95 l 0 33.75 l 10 -10 l 0 -36.15 z"></path><g><path d="M 183.625 -28.537499999999994 q 0.375 -0.363 1.15 -1.15 q 6.261 -1.099 8.5 3.8 l 0 -14.75 l -10 10 l -10 -10 l -7.15 7.15 l 11.3 11.2 l 5.85 -5.9 q 0.04 -0.029 0.35 -0.35 z"></path></g><g><path d="M 193.27499999999998 49.362500000000004 l 10 -10 l 0 -20 q -7.3 -5 -10 10 l 0 20 z"></path></g></g></g></g>
</svg>
