<svg xmlns="http://www.w3.org/2000/svg" viewBox="0 0 57.5 172.294907" width="57.5" height="172.294907" fill="currentColor" stroke="none">
<g transform="translate(28.75 86.147453)"><g><g><path d="M -11.25 -60.7 l -10 10 l 0 60 l 40 0 l 10 -10 l -40 0 l 0 -60 z"></path><g><path d="M -21.25 -39.5 q 5 -12.14 10 -11.2 l 0 -10 l -17.5 17.5 l 1.2 1.2 l 6.3 -6.3 l 0 8.8 z"></path></g><g><path d="M 1.25 39.5 l 1.2 1.2 l 16.3 -16.3 l 0 -15.1 l 10 -10 l -18.3 0 q 4.75 2.3 -1.7 10 l 7.6 0 l 0.25 -0.2 l -7.85 7.85 l 0 15.05 l -7.5 7.5 z"></path></g><path d="M 10 60.7 l 10 -10 l -30 0 l -10 10 l 30 0 z"></path></g></g></g>
</svg>
