<svg xmlns="http://www.w3.org/2000/svg" viewBox="0 0 348.5 117.425" width="348.5" height="117.425" fill="currentColor" stroke="none">
<g transform="translate(174.25 58.7125)"><g><g><path d="M -138.75 -0.6124999999999918 l 7.45 -7.5 27.05 34.4 7.5 -7.5 -27.8 -36 -7.75 7.8 -26.95 -34.3 -7.5 7.5 28 35.6 z"></path><path d="M -160.35 -40.662499999999994 q -3.28 1.825 -6.4 4.45 l -7.5 7.5 l 1.2 1.2 l 7.5 -7.5 q 4.106 1.688 4.55 0.35 q 0.6 -1.45 0.65 -6 z"></path><path d="M -164.25 6.2875000000000085 l 20 20 l 7.5 -7.5 l -20 -20 l -7.5 7.5 z"></path></g><g><path d="M -76.75 -43.63749999999999 l -10 10 l 0 40 l 9.55 -9.55 l 20.65 29.4 l 7.5 -7.5 l -21.6 -30.85 l -6.1 6.1 l 0 -37.6 z"></path></g><g><path d="M -11.400000000000034 16.21250000000001 l -10 10 l 65.75 0 l 9.9 -9.95 l -30.45 -37.55 l -7.25 7.3 l -24.15 -29.65 l -7.45 7.4 l 25.2 31.05 l 7.5 -7.45 l 23.1 28.85 l -52.15 0 z"></path><g><path d="M -26.55000000000001 33.712500000000006 l 7.5 -7.5 l 11.1 0 q -3.05 -5.25 1.5 -10 l -5 0 l -8.8 8.85 q -0.445 -14.232 -18.8 -18.85 q 12.993 10.704 12.45 27.5 z"></path></g><path d="M 0.09999999999999432 51.212500000000006 l 7.5 7.5 l 7.5 -7.5 l -7.5 -7.5 l -7.5 7.5 z"></path></g><g><path d="M 93.09999999999997 26.212500000000006 l 10 -10 l 0 -40 l -9.55 9.55 l -20.65 -29.4 l -7.5 7.5 l 21.6 30.85 l 6.1 -6.1 l 0 37.6 z"></path><g><path d="M 93.04999999999995 23.91250000000001 l -15 0 l -10 10 l 17.4 0 l 17.65 -17.7 l 0 -7.3 q -5.4 4.35 -10 2.75 l 0 12.25 z"></path></g><path d="M 94.25 53.91250000000001 l 10 -10 l -30 0 l -10 10 l 30 0 z"></path></g><g><path d="M 128.39999999999998 -42.51249999999999 l 7.35 -7.35 l 20.6 26.15 l 14.95 -15 l -1.2 -1.2 l -7.35 7.35 l -20.55 -26.15 l -15 15 l 1.2 1.2 z"></path><path d="M 124.25 -13.712499999999991 l -10 10 l 50 0 l 10 -10 l -50 0 z"></path></g></g></g>
</svg>
