<svg xmlns="http://www.w3.org/2000/svg" viewBox="0 0 575.5 115" width="575.5" height="115" fill="currentColor" stroke="none">
<g transform="translate(287.75 57.5)"><g><g><path d="M -280.24999999999994 -37.5 l -7.5 7.5 57.5 62.5 7.5 -7.5 -57.5 -62.5 z"></path><path d="M -277.74999999999994 15 l -10 10 l 0 25 l 10 -10 l 0 -25 z"></path><path d="M -270.24999999999994 50 l 7.5 7.5 l 7.5 -7.5 l -7.5 -7.5 l -7.5 7.5 z"></path></g><g><path d="M -147.09999999999997 -27.425 l 10 -10 l -65.75 0 l -9.9 9.95 l 30.45 37.55 l 7.25 -7.3 l 24.15 29.65 l 7.45 -7.4 l -25.2 -31.05 l -7.5 7.45 l -23.1 -28.85 l 52.15 0 z"></path><g><path d="M -143.39999999999995 24.924999999999997 q -6.8 0.5 -7.5 7.5 l 15 15 l 15 -15 l -1.2 -1.2 l -7.5 7.5 l -13.8 -13.8 z"></path></g></g><g><path d="M -78.34999999999997 -37.5 l -7.5 7.5 57.5 62.5 7.5 -7.5 -57.5 -62.5 z"></path><path d="M -85.84999999999997 -30 l -15.05 0 l -10 10 l 17.45 0 l 8.75 -8.8 q 6.9 0.2 3.8 -6.15 l -4.95 4.95 z"></path><path d="M -30.94999999999999 22.5 q -1.655 2.716 2.6 10 l 15 0 l 10 -10 l -20 0 q -7.015 -2.931 -7.6 0 z"></path><path d="M -25.749999999999943 -27.5 l -8.8 8.8 l 1.2 1.2 l 20 -20 l -30 0 l -10 10 l 27.6 0 z"></path><path d="M -68.34999999999997 50 l 7.5 7.5 l 7.5 -7.5 l -7.5 -7.5 l -7.5 7.5 z"></path></g><g><path d="M 16.650000000000034 -37.425 l -10 10 l 0 40 l 9.55 -9.55 l 20.65 29.4 l 7.5 -7.5 l -21.6 -30.85 l -6.1 6.1 l 0 -37.6 z"></path><g><path d="M 43.150000000000034 23.72499999999999 q -6.486 -1.216 -4.75 5 q 2.924 -3.894 5.95 -3.8 l 8.8 -8.8 l 0 -15 l -10 10 l 0 12.6 z"></path></g></g><g><path d="M 85.55000000000001 -37.5 l -10 10 l 0 60 l 10 -10 l 0 -60 z"></path><g><path d="M 63.150000000000034 42.5 l 22.4 0 l 10 -10.1 l -19.9 0 l -0.1 0.1 l 0 -0.1 l 0.05 0 l 9.95 -9.9 l 0 -5 q -5 5.774 -10 5 l 0 7.55 l -12.4 12.4 z"></path></g></g><g><path d="M 160.55 -37.475 l -10 10 l 0 20 l -35 0 l -10 10 l 29.95 29.95 l 7.5 -7.5 l -22.45 -22.45 l 30 0 l 10 -10 l 0 -30 z"></path><g><path d="M 132.90000000000003 22.47499999999998 q -1.65 2.7 2.6 10 l 12.6 0 l -7.5 7.5 l 1.2 1.2 l 18.7 -18.7 l -20 0 q -7 -2.95 -7.6 0 z"></path></g><path d="M 143.05 -47.47500000000001 l 10 -10 l -30 0 l -10 10 l 30 0 z"></path></g><g><path d="M 180.55 -37.5 l -10 10 l 0 60 l 10 -10 l 0 -60 z"></path><g><path d="M 180.60000000000002 -35.2 l 15 0 l 10 -10 l -17.4 0 l -17.65 17.7 l 0 7.3 q 5.4 -4.35 10 -2.75 l 0 -12.25 z"></path></g></g><g><path d="M 242.75000000000006 -37.5 l -10 10 l 0 35 l 26.3 0 l 8.7 -8.75 l 0 33.75 l 10 -10 l 0 -36.15 l -11.15 11.15 l -23.85 0 l 0 -35 z"></path><g><path d="M 233.09999999999997 -25.4 q 0.375 -0.363 1.15 -1.15 q 6.261 -1.099 8.5 3.8 l 0 -14.75 l -10 10 l -10 -10 l -7.15 7.15 l 11.3 11.2 l 5.85 -5.9 q 0.04 -0.029 0.35 -0.35 z"></path></g><g><path d="M 255.34999999999997 42.5 l 22.4 0 l 10 -10.1 l -19.9 0 l -0.1 0.1 l 0 -0.1 l 0.05 0 l 9.95 -9.9 l 0 -5 q -5 5.774 -10 5 l 0 7.55 l -12.4 12.4 z"></path></g><path d="M 261.675 -47.5 l 10 -10 l -30 0 l -10 10 l 30 0 z"></path></g></g></g>
</svg>
