<svg xmlns="http://www.w3.org/2000/svg" viewBox="0 0 69.9 172.294907" width="69.9" height="172.294907" fill="currentColor" stroke="none">
<g transform="translate(34.95 86.147453)"><g><g><path d="M 25.049999999999997 -45.05 l -50 0 l -10 10 l 0 27 l 33.1 33.1 l 7.5 -7.5 l -30.6 -30.6 l 0 -22 l 40 0 l 10 -10 z"></path><g><path d="M 2.6499999999999986 -25.049999999999997 l 22.4 0 l 9.9 -10 l -19.9 0 l 10 -10 l -12.65 0 q 5.504 3.447 -5.3 10 l 5.5 0 l -9.95 10 z"></path></g><g><path d="M -0.75 21.999999999999996 q 3.28 -1.825 6.4 -4.45 l 7.5 -7.5 l -1.2 -1.2 l -7.5 7.5 q -4.106 -1.688 -4.55 -0.35 q -0.6 1.45 -0.65 6 z"></path></g><path d="M 10 45.05 l 10 -10 l -30 0 l -10 10 l 30 0 z"></path></g></g></g>
</svg>
