<svg xmlns="http://www.w3.org/2000/svg" viewBox="0 0 599.55 121.325" width="599.55" height="121.325" fill="currentColor" stroke="none">
<g transform="translate(299.775 60.6625)"><g><g><path d="M -289.775 -40.66249999999999 l -10 10 l 0 60 l 10 -10 l 0 -60 z"></path></g><g><path d="M -272.275 -40.66249999999999 l -7.5 7.5 l 31.25 31.25 l -31.25 31.25 l 40 0 l 10 -10 l -37.6 0 l 27.5 -27.6 l -32.4 -32.4 z"></path><path d="M -244.77499999999998 -50.66249999999999 l 10 -10 l -30 0 l -10 10 l 30 0 z"></path></g><g><path d="M -172.27499999999998 29.337500000000013 l 7.5 -7.5 -26.9 -26.9 7.45 -7.55 -28.05 -28.05 -7.5 7.5 26.9 26.9 -7.5 7.5 28.1 28.1 z"></path><path d="M -167.825 22.937500000000014 q -1.825 3.28 -4.45 6.4 l -7.5 7.5 l -1.2 -1.2 l 7.5 -7.5 q -1.688 -4.106 -0.35 -4.55 q 1.45 -0.6 6 -0.65 z"></path><path d="M -207.27499999999998 46.83750000000001 l 7.5 7.5 l 7.5 -7.5 l -7.5 -7.5 l -7.5 7.5 z"></path></g><g><path d="M -99.77499999999998 -40.63749999999999 l -10 10 l 0 20 l -35 0 l -10 10 l 29.95 29.95 l 7.5 -7.5 l -22.45 -22.45 l 30 0 l 10 -10 l 0 -30 z"></path><g><path d="M -142.325 59.462499999999984 l 1.2 1.2 l 16.3 -16.3 l 0 -15.05 l 7.5 -7.5 q -11.45 -4.9 -8.7 6.3 l -8.8 8.9 l 0 14.95 l -7.5 7.5 z"></path></g></g><g><path d="M -61.77499999999998 2.4375000000000124 l 7.45 -7.5 27.05 34.4 7.5 -7.5 -27.8 -36 -7.75 7.8 -26.95 -34.3 -7.5 7.5 28 35.6 z"></path><path d="M -77.27499999999998 11.837500000000013 l -10 10 l 0 25 l 10 -10 l 0 -25 z"></path><path d="M -69.77499999999998 46.83750000000001 l 7.5 7.5 l 7.5 -7.5 l -7.5 -7.5 l -7.5 7.5 z"></path></g><g><path d="M 0.22500000000002274 -40.66249999999999 l -10 10 l 0 30 l 30 30 l 7.5 -7.5 l -27.5 -27.5 l 0 -35 z"></path></g><g><path d="M 45.22500000000002 -40.66249999999999 l -7.5 7.5 57.5 62.5 7.5 -7.5 -57.5 -62.5 z"></path></g><g><path d="M 172.72500000000002 -40.712499999999984 l -50 0 l -10 10 l 0 27 l 33.1 33.1 l 7.5 -7.5 l -30.6 -30.6 l 0 -22 l 40 0 l 10 -10 z"></path><g><path d="M 150.32500000000005 -20.712499999999984 l 22.4 0 l 9.9 -10 l -19.9 0 l 10 -10 l -12.65 0 q 5.504 3.447 -5.3 10 l 5.5 0 l -9.95 10 z"></path></g><g><path d="M 146.925 26.33750000000001 q 3.28 -1.825 6.4 -4.45 l 7.5 -7.5 l -1.2 -1.2 l -7.5 7.5 q -4.106 -1.688 -4.55 -0.35 q -0.6 1.45 -0.65 6 z"></path></g><path d="M 157.675 49.38750000000001 l 10 -10 l -30 0 l -10 10 l 30 0 z"></path></g><g><path d="M 212.625 -16.812499999999986 l -10 10 l 0 -33.85 l -10 10 l 0 36.2 l 10 -9.95 l 0 33.75 l 10 -10 l 0 -36.15 z"></path><g><path d="M 212.27499999999998 17.23750000000001 q -0.375 0.363 -1.15 1.15 q -6.261 1.099 -8.5 -3.8 l 0 14.75 l 10 -10 l 10 10 l 7.15 -7.15 l -11.3 -11.2 l -5.85 5.9 q -0.04 0.029 -0.35 0.35 z"></path></g></g><g><path d="M 272.275 -43.16249999999999 l 12.5 12.5 l -25 0 l -10 10 l 40 0 l 10 -10 l -20 -20 l -7.5 7.5 z"></path><path d="M 249.77499999999998 -10.662499999999987 l -10 10 l 50 0 l 10 -10 l -50 0 z"></path></g></g></g>
</svg>
