<svg xmlns="http://www.w3.org/2000/svg" viewBox="0 0 108.8 108.825" width="108.8" height="108.825" fill="currentColor" stroke="none">
<g transform="translate(54.4 54.4125)"><g><g><path d="M -36.2 -34.38750000000001 l -10 10 l 0 60 l 10 -10 l 0 -60 z"></path><g><path d="M -34.4 47.41249999999999 l -11.8 -11.8 l 10 -10 l 0 -5 q -5.188 7.964 -10 5 l 0 7.7 l -8.2 8.2 l 13 12.9 l 7 -7 z"></path></g></g><g><path d="M -14.5 -34.41250000000001 l -9.9 9.95 l 47.35 58.35 l 0.05 0 l 1.4 1.75 l 7.5 -7.5 l -42.7 -52.55 l 52.05 0 l 10 -10 l -65.75 0 z"></path><g><path d="M 31.9 28.137500000000003 q -6.8 0.5 -7.5 7.5 l 15 15 l 15 -15 l -1.2 -1.2 l -7.5 7.5 l -13.8 -13.8 z"></path></g><path d="M 25.000000000000007 -44.41250000000001 l 10 -10 l -30 0 l -10 10 l 30 0 z"></path></g></g></g>
</svg>
