<svg xmlns="http://www.w3.org/2000/svg" viewBox="0 0 108.79898 137.55" width="108.79898" height="137.55" fill="currentColor" stroke="none">
<g transform="translate(54.39949 68.775)"><g><g fill="currentColor"><path d="M -44.499489795918365 -61.275000000000006 l -9.9 9.95 l 47.35 58.35 l 0.05 0 l 1.4 1.75 l 7.5 -7.5 l -42.7 -52.55 l 52.05 0 l 10 -10 l -65.75 0 z"></path><path d="M 18.950510204081638 -41.275000000000006 q 16 -9.8 7.5 -27.5 l -7.55 7.5 l -11.1 0 q 3.05 5.25 -1.5 10 l 5 0 l 8.8 -8.85 q 6.15 7.15 -1.15 18.85 z"></path><path d="M 1.900510204081634 1.2750000000000057 q -6.8 0.5 -7.5 7.5 l 15 15 l 15 -15 l -1.2 -1.2 l -7.5 7.5 l -13.8 -13.8 z"></path><path d="M -22.5 43.775 l 0 25 l 20 -20 l -1.2 -1.2 l -8.8 8.8 l 0 -22.6 l -10 10 z"></path><path d="M 39.39948979591837 -26.250000000000007 l 7.5 7.5 l 7.5 -7.5 l -7.5 -7.5 l -7.5 7.5 z"></path></g></g></g>
</svg>
