<svg xmlns="http://www.w3.org/2000/svg" viewBox="0 0 95.05 172.294907" width="95.05" height="172.294907" fill="currentColor" stroke="none">
<g transform="translate(47.525 86.147453)"><g><g><path d="M 0.5250000000000057 10.448472949389176 l 7.45 -7.5 27.05 34.4 7.5 -7.5 -27.8 -36 -7.75 7.8 -26.95 -34.3 -7.5 7.5 28 35.6 z"></path><path d="M -26.324999999999996 -24.001527050610825 l 0 0.05 q 8.1 2.8 6.35 -8.7 l -6.35 6.3 q -9.4 -17.75 -21.2 -6.85 q 12.25 -2.15 14.85 15.5 l 6.35 -6.3 z"></path><path d="M -24.974999999999994 17.348472949389176 l 20 20 l 7.5 -7.5 l -20 -20 l -7.5 7.5 z"></path><path d="M 37.525000000000006 -22.651527050610824 l 10 -10 l -30 0 l -10 10 l 30 0 z"></path></g></g></g>
</svg>
