<svg xmlns="http://www.w3.org/2000/svg" viewBox="0 0 142.4 99.975" width="142.4" height="99.975" fill="currentColor" stroke="none">
<g transform="translate(71.2 49.9875)"><g><g><path d="M -63.7 -40.012499999999996 l -7.5 7.5 57.5 62.5 7.5 -7.5 -57.5 -62.5 z"></path><path d="M -36.2 49.987500000000004 l 10 -10 l -30 0 l -10 10 l 30 0 z"></path></g><g><path d="M 58.8 -39.9875 l -10 10 l 0 20 l -35 0 l -10 10 l 29.95 29.95 l 7.5 -7.5 l -22.45 -22.45 l 30 0 l 10 -10 l 0 -30 z"></path><g><path d="M 71.2 -49.987500000000004 l -22.4 0 l -10 10.1 l 19.9 0 l 0.1 -0.1 l 0 0.1 l -0.05 0 l -9.95 9.9 l 0 5 q 5 -5.774 10 -5 l 0 -7.55 l 12.4 -12.4 z"></path></g><g><path d="M 31.14999999999999 19.962499999999984 q -1.655 2.716 2.6 10 l 15 0 l 10 -10 l -20 0 q -7.015 -2.931 -7.6 0 z"></path></g></g></g></g>
</svg>
