<svg xmlns="http://www.w3.org/2000/svg" viewBox="0 0 222.5 113.8" width="222.5" height="113.8" fill="currentColor" stroke="none">
<g transform="translate(111.25 56.9)"><g><g><path d="M -93.04999999999998 -31.900000000000006 l -10 10 l 0 60 l 10 -10 l 0 -60 z"></path><g><path d="M -91.24999999999999 49.89999999999999 l -11.8 -11.8 l 10 -10 l 0 -5 q -5.188 7.964 -10 5 l 0 7.7 l -8.2 8.2 l 13 12.9 l 7 -7 z"></path></g></g><g><path d="M -69.99999999999999 -31.900000000000006 l -10 10 l 0 30 l 30 30 l 7.5 -7.5 l -27.5 -27.5 l 0 -35 z"></path><path d="M -51.249999999999986 -41.900000000000006 l 10 -10 l -30 0 l -10 10 l 30 0 z"></path></g><g><path d="M 21.250000000000014 38.099999999999994 l 7.5 -7.5 -26.9 -26.9 7.45 -7.55 -28.05 -28.05 -7.5 7.5 26.9 26.9 -7.5 7.5 28.1 28.1 z"></path><path d="M 18.64999999999999 28.099999999999994 q -1.65 2.7 2.6 10 l 12.6 0 l -7.5 7.5 l 1.2 1.2 l 18.7 -18.7 l -20 0 q -7 -2.95 -7.6 0 z"></path><path d="M -21.249999999999986 20.599999999999994 l -10 10 l 0 25 l 10 -10 l 0 -25 z"></path><path d="M 31.250000000000014 -21.900000000000006 l 10 -10 l -30 0 l -10 10 l 30 0 z"></path><path d="M -6.249999999999986 -49.400000000000006 l 7.5 7.5 l 7.5 -7.5 l -7.5 -7.5 l -7.5 7.5 z"></path></g><g><path d="M 111.24999999999999 -31.875000000000007 l -10 10 l 0 20 l -35 0 l -10 10 l 29.95 29.95 l 7.5 -7.5 l -22.45 -22.45 l 30 0 l 10 -10 l 0 -30 z"></path><g><path d="M 83.59999999999998 28.074999999999974 q -1.65 2.7 2.6 10 l 12.6 0 l -7.5 7.5 l 1.2 1.2 l 18.7 -18.7 l -20 0 q -7 -2.95 -7.6 0 z"></path></g><path d="M 76.24999999999999 -49.375000000000014 l 7.5 7.5 l 7.5 -7.5 l -7.5 -7.5 l -7.5 7.5 z"></path></g></g></g>
</svg>
