<svg xmlns="http://www.w3.org/2000/svg" viewBox="0 0 368.8 140" width="368.8" height="140" fill="currentColor" stroke="none">
<g transform="translate(184.4 70)"><g><g><path d="M -174.39999999999998 -45 l -10 10 l 0 60 l 10 -10 l 0 -60 z"></path></g><g><path d="M -98.74999999999999 -34.925 l 10 -10 l -65.75 0 l -9.9 9.95 l 30.45 37.55 l 7.25 -7.3 l 24.15 29.65 l 7.45 -7.4 l -25.2 -31.05 l -7.5 7.45 l -23.1 -28.85 l 52.15 0 z"></path><path d="M -116.57499999999997 -54.925 l 10 -10 l -30 0 l -10 10 l 30 0 z"></path></g><g><path d="M -71.25 -45 l -7.5 7.5 57.5 62.5 7.5 -7.5 -57.5 -62.5 z"></path></g><g><path d="M 36.25 -5.375 l 10 -10 l -29.85 -29.85 l -7.5 7.5 l 22.35 22.35 l -20 0 l -15 15 l 25.6 25.6 l 7.5 -7.5 l -23.1 -23.1 l 30 0 z"></path><g><path d="M -3.5999999999999943 -35.225 l 15 0 q 7 2.95 7.6 0 q 1.65 -2.7 -2.6 -10 l -10 0 l 0 -15 l -10 10 l 0 15 z"></path></g><g><path d="M 29.349999999999994 17.725 l 12.65 0 l -7.5 7.5 l 1.2 1.2 l 18.7 -18.7 l -17.45 0 l -8.75 8.8 q -6.9 -0.2 -3.8 6.15 l 4.95 -4.95 z"></path></g></g><g><path d="M 71.89999999999998 -45 l -7.5 7.5 l 31.25 31.25 l -31.25 31.25 l 40 0 l 10 -10 l -37.6 0 l 27.5 -27.6 l -32.4 -32.4 z"></path><path d="M 81.89999999999998 -62.5 l 7.5 7.5 l 7.5 -7.5 l -7.5 -7.5 l -7.5 7.5 z"></path><path d="M 79.39999999999998 45 l 0 25 l 20 -20 l -1.2 -1.2 l -8.8 8.8 l 0 -22.6 l -10 10 z"></path></g><g><path d="M 144.39999999999998 -35 q -0.1 -10.25 13.15 -13.1 l -1.2 -1.1 q -22.3 -0.55 -21.95 24.2 l 37.6 0 l -7.5 7.5 l 1.2 1.2 l 18.7 -18.7 l -40 0 z"></path><path d="M 134.39999999999998 -15 l -10 10 l 50 0 l 10 -10 l -50 0 z"></path></g></g></g>
</svg>
