<svg xmlns="http://www.w3.org/2000/svg" viewBox="0 0 167.55 101.2" width="167.55" height="101.2" fill="currentColor" stroke="none">
<g transform="translate(83.775 50.6)"><g><g><path d="M -63.775000000000006 -29.4 l -10 10 l 0 60 l 10 -10 l 0 -60 z"></path><g><path d="M -63.775000000000006 -14.399999999999999 l 0 -15 l -10 10 l 0 -20 l -10 9.9 l 0 22.4 l 10 -9.95 l 0 5.15 q 5 -6.1 10 -2.5 z"></path></g><g><path d="M -73.775 25.6 l 0 15 l 10 -10 l 0 20 l 10 -9.9 l 0 -22.4 l -10 9.95 l 0 -5.15 q -5 6.1 -10 2.5 z"></path></g></g><g><path d="M -11.225000000000009 -29.4 l -7.5 7.5 l 31.25 31.25 l -31.25 31.25 l 40 0 l 10 -10 l -37.6 0 l 27.5 -27.6 l -32.4 -32.4 z"></path><g><path d="M -18.72500000000001 -21.9 l -12.65 0 l 7.5 -7.5 l -1.2 -1.2 l -18.7 18.7 l 17.45 0 l 8.75 -8.8 q 6.9 0.2 3.8 -6.15 l -4.95 4.95 z"></path></g><g><path d="M 11.274999999999991 30.6 q 6.368 3.408 0 10 l 10 0 l 10 -10 l 0 -15 l -10 10 l 0 5 l -10 0 z"></path></g><path d="M 3.75 -40.6 l 10 -10 l -30 0 l -10 10 l 30 0 z"></path></g><g><path d="M 68.775 -5.549999999999999 l -10 10 l 0 -33.85 l -10 10 l 0 36.2 l 10 -9.95 l 0 33.75 l 10 -10 l 0 -36.15 z"></path><g><path d="M 48.775000000000006 -8.2 q 5 -12.14 10 -11.2 l 0 -10 l -17.5 17.5 l 1.2 1.2 l 6.3 -6.3 l 0 8.8 z"></path></g><g><path d="M 58.775000000000006 25.6 l 0 15 l 15 0 l 10 -10 l -15 0 l 0 -10 q -3.874 7.753 -10 5 z"></path></g></g></g></g>
</svg>
