<svg xmlns="http://www.w3.org/2000/svg" viewBox="0 0 36.2 172.294907" width="36.2" height="172.294907" fill="currentColor" stroke="none">
<g transform="translate(18.1 86.147453)"><g><g fill="currentColor"><path d="M 18.1 -9.675000000000006 l -10 10 l 0 -33.85 l -10 10 l 0 36.2 l 10 -9.95 l 0 33.75 l 10 -10 l 0 -36.15 z"></path><g><path d="M 8.099999999999998 -17.875000000000007 l 0 -15.65 l -10 10.05 q -10.8 -2.6 -16.2 -18.85 q -0.35 21.9 9.85 27.5 l 6.35 -6.35 l 0 8.1 q 4.8 -9.5 10 -4.8 z"></path></g><g><path d="M 18.1 26.474999999999994 l 0 -5 q -6.25 9 -10 5 l 0 7.6 l -11.8 -11.7 l -7 7 l 12.95 12.95 l 15.85 -15.85 z"></path></g></g></g></g>
</svg>
