<svg xmlns="http://www.w3.org/2000/svg" viewBox="0 0 215.1 108.975" width="215.1" height="108.975" fill="currentColor" stroke="none">
<g transform="translate(107.55 54.4875)"><g><g><path d="M -75.05 5.737500000000004 l 7.5 -7.5 -32.5 -32.5 -7.5 7.5 32.5 32.5 m -17.5 -10 l -7.5 7.5 32.5 32.5 7.5 -7.5 -32.5 -32.5 z"></path></g><g><path d="M -30.049999999999997 -34.262499999999996 l -10 10 l 0 50 l -10 10 l 45 0 l 10 -10 l -42.6 0 l 7.6 -7.6 l 0 -42.4 l 30 0 l 10 -10 l -40 0 z"></path><g><path d="M -3.75 54.487500000000004 l 16.3 -16.3 l 0 -22.45 l -10 10 l -12.6 0 q 3.5 4 0 10 l 5 0 l 7.6 -7.65 l 0 17.7 l -7.5 7.5 l 1.2 1.2 z"></path></g></g><g><path d="M 32.55 -34.262499999999996 l -10 10 l 0 60 l 10 -10 l 0 -60 z"></path><g><path d="M 22.549999999999997 20.737500000000004 l 0 15 l 15 0 l 10 -10 l -15 0 l 0 -10 q -3.874 7.753 -10 5 z"></path></g></g><g><path d="M 97.55 5.362500000000004 l 10 -10 l -29.85 -29.85 l -7.5 7.5 l 22.35 22.35 l -20 0 l -15 15 l 25.6 25.6 l 7.5 -7.5 l -23.1 -23.1 l 30 0 z"></path><path d="M 92.55 -44.4875 l 10 -10 l -30 0 l -10 10 l 30 0 z"></path></g></g></g>
</svg>
