<svg xmlns="http://www.w3.org/2000/svg" viewBox="0 0 196.35 110" width="196.35" height="110" fill="currentColor" stroke="none">
<g transform="translate(98.175 55)"><g><g><path d="M -61.925 5 l 7.5 -7.5 -32.5 -32.5 -7.5 7.5 32.5 32.5 m -17.5 -10 l -7.5 7.5 32.5 32.5 7.5 -7.5 -32.5 -32.5 z"></path><path d="M -68.175 55 l 10 -10 l -30 0 l -10 10 l 30 0 z"></path></g><g><path d="M -26.924999999999997 -35 l -10 10 l 0 36.3 l 10 -10.05 l 0 33.75 l 10 -10 l 0 -36.15 l -10 10 l 0 -23.85 l 30 0 l 10 -10 l -40 0 z"></path><g><path d="M -1.9249999999999972 -25 l 5 0 l 7.6 -7.65 l 0 20 l 10 -9.9 l 0 -0.1 l 7.5 -7.5 l -1.2 -1.2 l -6.3 6.3 l 0 -19.95 l -10 10 l -12.6 0 q 3.5 4 0 10 z"></path></g><g><path d="M 3.075000000000003 35 l -15 0 l 10 -10 l -15 0 l 0 -10 q -3.85 7.75 -10 5 l 0 15 l 12.55 0 l -9.95 10 l 17.4 0 l 10 -10 z"></path></g></g><g><path d="M 81.925 -32.5 l -1.2 -1.2 l -6.3 6.3 l 0 -27.6 l -10 10 l 0 30 l 17.5 -17.5 z"></path><path d="M 48.175 -5 l -10 10 l 50 0 l 10 -10 l -50 0 z"></path></g></g></g>
</svg>
