<svg xmlns="http://www.w3.org/2000/svg" viewBox="0 0 55 172.294907" width="55" height="172.294907" fill="currentColor" stroke="none">
<g transform="translate(27.5 86.147453)"><g><g><path d="M 27.5 -39.82499999999999 l -10 10 l 0 20 l -35 0 l -10 10 l 29.95 29.95 l 7.5 -7.5 l -22.45 -22.45 l 30 0 l 10 -10 l 0 -30 z"></path><g><path d="M 17.85 -27.724999999999994 q 0.375 -0.363 1.15 -1.15 q 6.261 -1.099 8.5 3.8 l 0 -14.75 l -10 10 l -10 -10 l -7.15 7.15 l 11.3 11.2 l 5.85 -5.9 q 0.04 -0.029 0.35 -0.35 z"></path></g><g><path d="M 1.5500000000000007 28.52499999999999 l -11.2 11.3 l 22.4 0 l 10 -10.1 l -19.9 0 l 7.1 -7.1 q -10.446 -1.157 -8.4 5.9 z"></path></g></g></g></g>
</svg>
