<svg xmlns="http://www.w3.org/2000/svg" viewBox="0 0 475.95 127.525" width="475.95" height="127.525" fill="currentColor" stroke="none">
<g transform="translate(237.975 63.7625)"><g><g><path d="M -227.975 -26.262500000000003 l -10 10 l 0 60 l 10 -10 l 0 -60 z"></path><g><path d="M -237.975 28.737499999999997 l 0 15 l 15 0 l 10 -10 l -15 0 l 0 -10 q -3.874 7.753 -10 5 z"></path></g></g><g><path d="M -193.075 -26.2875 l -9.9 9.95 l 47.35 58.35 l 0.05 0 l 1.4 1.75 l 7.5 -7.5 l -42.7 -52.55 l 52.05 0 l 10 -10 l -65.75 0 z"></path><path d="M -155.14999999999998 -36.2875 l 10 -10 l -30 0 l -10 10 l 30 0 z"></path></g><g><path d="M -92.67499999999998 -26.262500000000003 l -7.5 7.5 57.5 62.5 7.5 -7.5 -57.5 -62.5 z"></path><path d="M -95.17499999999998 -23.762500000000003 l -5 5 l -10 -10 l -7.15 7.15 l 11.3 11.2 l 7 -7.1 l 1 -1 q 3.183 1.742 3.85 0 q 0.916 -1.293 0 -6.25 z"></path><path d="M -45.27499999999998 33.7375 q -1.655 2.716 2.6 10 l 15 0 l 10 -10 l -20 0 q -7.015 -2.931 -7.6 0 z"></path><path d="M -90.17499999999998 26.237499999999997 l -10 10 l 0 25 l 10 -10 l 0 -25 z"></path><path d="M -81.42499999999998 -56.2625 l 20 20 l 7.5 -7.5 l -20 -20 l -7.5 7.5 z"></path></g><g><path d="M 47.32500000000002 -26.237500000000004 l -10 10 l 0 20 l -35 0 l -10 10 l 29.95 29.95 l 7.5 -7.5 l -22.45 -22.45 l 30 0 l 10 -10 l 0 -30 z"></path><g><path d="M 24.775000000000006 41.21249999999998 l 5 -5 l 10 10 l 7.15 -7.15 l -11.3 -11.2 l -7 7.1 l -1 1 q -3.183 -1.742 -3.85 0 q -0.916 1.293 0 6.25 z"></path></g></g><g><path d="M 123.07500000000002 43.762499999999996 l 9.9 -9.95 l -47.35 -58.35 l -0.05 0 l -1.4 -1.75 l -7.5 7.5 l 42.7 52.55 l -52.05 0 l -10 10 l 65.75 0 z"></path><path d="M 105.15 63.7625 l 10 -10 l -30 0 l -10 10 l 30 0 z"></path></g><g><path d="M 152.975 -26.262500000000003 l -10 10 l 0 60 l 10 -10 l 0 -60 z"></path><g><path d="M 142.975 28.737499999999997 l 0 15 l 15 0 l 10 -10 l -15 0 l 0 -10 q -3.874 7.753 -10 5 z"></path></g></g><g><path d="M 193.025 -16.262500000000003 l 34.95 0 l 10 -10 l -50 0 l -10 10 l 25 25 l 0 35 l 10 -10 l 0 -30.05 l -19.95 -19.95 z"></path><g><path d="M 212.975 22.537499999999998 q -5 12.14 -10 11.2 l 0 10 l 17.5 -17.5 l -1.2 -1.2 l -6.3 6.3 l 0 -8.8 z"></path></g><path d="M 217.975 -36.2625 l 10 -10 l -30 0 l -10 10 l 30 0 z"></path></g></g></g>
</svg>
