<svg xmlns="http://www.w3.org/2000/svg" viewBox="0 0 598.7 135.025" width="598.7" height="135.025" fill="currentColor" stroke="none">
<g transform="translate(299.35 67.5125)"><g><g><path d="M -246.85000000000002 22.487499999999997 l 7.5 -7.5 -26.9 -26.9 7.45 -7.55 -28.05 -28.05 -7.5 7.5 26.9 26.9 -7.5 7.5 28.1 28.1 z"></path><path d="M -299.35 2.487499999999997 l 20 20 l 7.5 -7.5 l -20 -20 l -7.5 7.5 z"></path></g><g><path d="M -219.45000000000002 -47.5375 l -9.9 9.95 l 47.35 58.35 l 0.05 0 l 1.4 1.75 l 7.5 -7.5 l -42.7 -52.55 l 52.05 0 l 10 -10 l -65.75 0 z"></path><g><path d="M -165.55 37.51250000000001 l 7.5 -7.5 l -15 -15 q -6.8 0.5 -7.5 7.5 l 15 15 z"></path></g></g><g><path d="M -93.80000000000001 22.487499999999997 l 10 -10 l 0 -60 l -10 10 l 0 50 l -30 0 l -10 10 l 40 0 z"></path><g><path d="M -93.80000000000001 -55.112500000000004 l 0 17.6 q 7.3 5 10 -10 l 0 -20 l -17.5 17.5 l 1.2 1.2 l 6.3 -6.3 z"></path></g><g><path d="M -111.4 2.487499999999997 l -22.4 0 l -9.9 10 l 19.9 0 l -10 10 l 12.65 0 q -5.504 -3.447 5.3 -10 l -5.5 0 l 9.95 -10 z"></path></g><path d="M -103.75 57.4875 l 0 -25 l -20 20 l 1.2 1.2 l 8.8 -8.8 l 0 22.6 l 10 -10 z"></path></g><g><path d="M -53.80000000000001 -23.6625 l -10 10 l 0 -33.85 l -10 10 l 0 36.2 l 10 -9.95 l 0 33.75 l 10 -10 l 0 -36.15 z"></path><g><path d="M -53.80000000000001 30.0875 l 0 -17.6 q -7.3 -5 -10 10 l 0 20 l 17.5 -17.5 l -1.2 -1.2 l -6.3 6.3 z"></path></g></g><g><path d="M 44.44999999999999 22.512499999999996 l 9.9 -9.95 l -47.35 -58.35 l -0.05 0 l -1.4 -1.75 l -7.5 7.5 l 42.7 52.55 l -52.05 0 l -10 10 l 65.75 0 z"></path><g><path d="M -16.30000000000001 12.512500000000003 l -12.5 -12.5 l -7.5 7.5 l 15 15 q 8.65 -2.75 10 -10 l -5 0 z"></path></g><path d="M -0.9750000000000227 42.5125 l 0 25 l 20 -20 l -1.2 -1.2 l -8.8 8.8 l 0 -22.6 l -10 10 z"></path></g><g><path d="M 74.34999999999997 -47.5125 l -10 10 l 0 60 l 10 -10 l 0 -60 z"></path></g><g><path d="M 139.34999999999997 -47.487500000000004 l -10 10 l 0 20 l -35 0 l -10 10 l 29.95 29.95 l 7.5 -7.5 l -22.45 -22.45 l 30 0 l 10 -10 l 0 -30 z"></path><g><path d="M 116.79999999999995 19.962499999999977 l 5 -5 l 10 10 l 7.15 -7.15 l -11.3 -11.2 l -7 7.1 l -1 1 q -3.183 -1.742 -3.85 0 q -0.916 1.293 0 6.25 z"></path></g><path d="M 121.84999999999997 -57.48750000000001 l 10 -10 l -30 0 l -10 10 l 30 0 z"></path></g><g><path d="M 164.34999999999997 -47.5125 l -7.5 7.5 57.5 62.5 7.5 -7.5 -57.5 -62.5 z"></path><path d="M 179.34999999999997 22.487499999999997 l 10 -10 l -30 0 l -10 10 l 30 0 z"></path><path d="M 216.94999999999993 -37.5125 l -8.8 8.8 l 1.2 1.2 l 20 -20 l -30 0 l -10 10 l 27.6 0 z"></path><path d="M 199.34999999999997 -57.5125 l 10 -10 l -30 0 l -10 10 l 30 0 z"></path></g><g><path d="M 254.39999999999998 -37.5125 l 34.95 0 l 10 -10 l -50 0 l -10 10 l 25 25 l 0 35 l 10 -10 l 0 -30.05 l -19.95 -19.95 z"></path><path d="M 261.75 42.4875 l 8.8 -8.8 l -1.2 -1.2 l -20 20 l 30 0 l 10 -10 l -27.6 0 z"></path></g></g></g>
</svg>
