<svg xmlns="http://www.w3.org/2000/svg" viewBox="0 0 42.55 172.294907" width="42.55" height="172.294907" fill="currentColor" stroke="none">
<g transform="translate(21.275 86.147453)"><g><g><path d="M 11.275000000000002 26.724999999999994 l 10 -10 l 0 -40 l -9.55 9.55 l -20.65 -29.4 l -7.5 7.5 l 21.6 30.85 l 6.1 -6.1 l 0 37.6 z"></path><g><path d="M 21.275000000000002 16.724999999999994 l 0 -7.3 q -4.546 5.888 -10 3.05 l 0 11.95 l -15.05 0 l -17.5 17.5 l 1.2 1.2 l 8.7 -8.7 l 15 0 l 17.65 -17.7 z"></path></g><path d="M -7.499999999999993 -60.625 l 7.5 7.5 l 7.5 -7.5 l -7.5 -7.5 l -7.5 7.5 z"></path><path d="M -7.499999999999993 60.625 l 7.5 7.5 l 7.5 -7.5 l -7.5 -7.5 l -7.5 7.5 z"></path></g></g></g>
</svg>
