<svg xmlns="http://www.w3.org/2000/svg" viewBox="0 0 89.45 100" width="89.45" height="100" fill="currentColor" stroke="none">
<g transform="translate(44.725 50)"><g><g><path d="M -34.72500000000001 -30 l -10 10 l 0 60 l 10 -10 l 0 -60 z"></path><g><path d="M -44.72500000000001 25 l 0 15 l 10 -10 l 0 20 l 10 -9.9 l 0 -22.4 l -10 9.95 l 0 -5.15 q -5 6.1 -10 2.5 z"></path></g></g><g><path d="M 44.675 -30 l -50 0 l -9.4 9.4 l 23.2 33.05 l 6.2 -6.25 l 0 33.8 l 10 -10 l 0 -36.15 l -1.1 1.1 q -2.967 2.977 -5.95 5.95 l -1.95 2 l -0.65 0.65 l -16.5 -23.5 l 36.2 0 l 10 -10 z"></path><path d="M 24.999999999999986 -40 l 10 -10 l -30 0 l -10 10 l 30 0 z"></path></g></g></g>
</svg>
