<svg xmlns="http://www.w3.org/2000/svg" viewBox="0 0 570.7 110" width="570.7" height="110" fill="currentColor" stroke="none">
<g transform="translate(285.35 55)"><g><g><path d="M -257.35 8.1 l 7.45 -7.5 27.05 34.4 7.5 -7.5 -27.8 -36 -7.75 7.8 -26.95 -34.3 -7.5 7.5 28 35.6 z"></path><path d="M -240.35000000000002 -45 l 10 -10 l -30 0 l -10 10 l 30 0 z"></path></g><g><path d="M -195.35000000000002 -35 l -10 10 l 0 60 l 10 -10 l 0 -50 l 30 0 l 10 -10 l -40 0 z"></path></g><g><path d="M -102.85000000000002 35 l 7.5 -7.5 l -31.25 -31.25 l 31.25 -31.25 l -40 0 l -10 10 l 37.6 0 l -27.5 27.6 l 32.4 32.4 z"></path><path d="M -110.35000000000002 55 l 10 -10 l -30 0 l -10 10 l 30 0 z"></path></g><g><path d="M -52.35000000000002 8.1 l 7.45 -7.5 27.05 34.4 7.5 -7.5 -27.8 -36 -7.75 7.8 -26.95 -34.3 -7.5 7.5 28 35.6 z"></path><path d="M -55.35000000000002 35 l 10 -10 l -30 0 l -10 10 l 30 0 z"></path><path d="M -17.75 -25 l -8.8 8.8 l 1.2 1.2 l 20 -20 l -30 0 l -10 10 l 27.6 0 z"></path></g><g><path d="M 70.29999999999995 -24.925 l 10 -10 l -65.75 0 l -9.9 9.95 l 30.45 37.55 l 7.25 -7.3 l 24.15 29.65 l 7.45 -7.4 l -25.2 -31.05 l -7.5 7.45 l -23.1 -28.85 l 52.15 0 z"></path></g><g><path d="M 100.29999999999995 -35 l -10 10 l 0 60 l 10 -10 l 0 -60 z"></path><g><path d="M 100.34999999999997 -32.7 l 15 0 l 10 -10 l -17.4 0 l -17.65 17.7 l 0 7.3 q 5.4 -4.35 10 -2.75 l 0 -12.25 z"></path></g><g><path d="M 90.29999999999995 20 l 0 15 l 10 -10 l 0 20 l 10 -9.9 l 0 -22.4 l -10 9.95 l 0 -5.15 q -5 6.1 -10 2.5 z"></path></g></g><g><path d="M 150.34999999999997 -35 l -10 10 l 0 35 l 19.95 0 l -24.95 25 l 40 0 l 10 -10 l -37.6 0 l 24.85 -25 l -22.25 0 l 0 -35 z"></path><path d="M 170.34999999999997 -45 l 10 -10 l -30 0 l -10 10 l 30 0 z"></path></g><g><path d="M 205.34999999999997 -35 l -10 10 l 0 60 l 10 -10 l 0 -60 z"></path><g><path d="M 195.34999999999997 20 l 0 15 l 10 -10 l 0 20 l 10 -9.9 l 0 -22.4 l -10 9.95 l 0 -5.15 q -5 6.1 -10 2.5 z"></path></g></g><g><path d="M 240.39999999999998 -25 l 34.95 0 l 10 -10 l -50 0 l -10 10 l 25 25 l 0 35 l 10 -10 l 0 -30.05 l -19.95 -19.95 z"></path><g><path d="M 260.35 42.6 l 0 -17.6 q -7.3 -5 -10 10 l 0 20 l 17.5 -17.5 l -1.2 -1.2 l -6.3 6.3 z"></path></g><path d="M 265.35 -45 l 10 -10 l -30 0 l -10 10 l 30 0 z"></path></g></g></g>
</svg>
