<svg xmlns="http://www.w3.org/2000/svg" viewBox="0 0 61.9 172.294907" width="61.9" height="172.294907" fill="currentColor" stroke="none">
<g transform="translate(30.95 86.147453)"><g><g fill="currentColor"><path d="M -19.150000000000002 -48.10000000000001 l -7.5 7.5 l 31.25 31.25 l -31.25 31.25 l 40 0 l 10 -10 l -37.6 0 l 27.5 -27.6 l -32.4 -32.4 z"></path><g><path d="M -30.950000000000003 -59.900000000000006 l 11.8 11.8 l -5 5 q 7.681 1.687 7.1 -0.5 l -0.95 -3.35 l 7.05 -7.05 l -13 -12.9 z"></path></g><g><path d="M 15.700000000000003 11.899999999999991 q 0.465 4.718 -7.9 10 l 5.55 0 l 17.6 -17.6 l 0 -15 l -10 10 l 0 12.6 l -5.25 0 z"></path></g><path d="M -10 41.89999999999999 l 0 25 l 20 -20 l -1.2 -1.2 l -8.8 8.8 l 0 -22.6 l -10 10 z"></path></g></g></g>
</svg>
