<svg xmlns="http://www.w3.org/2000/svg" viewBox="0 0 52.5 95.85" width="52.5" height="95.85" fill="currentColor" stroke="none">
<g transform="translate(26.25 47.925)"><g><g fill="currentColor"><path d="M 8.75 27.925000000000004 l 10 -10 l 0 -35 l -26.3 0 l -8.7 8.75 l 0 -33.75 l -10 10 l 0 36.15 l 11.15 -11.15 l 23.85 0 l 0 35 z"></path><g><path d="M -26.25 -32.074999999999996 l 0 5 q 6.25 -9 10 -5 l 0 -7.6 l 11.8 11.7 l 7 -7 l -12.95 -12.95 l -15.85 15.85 z"></path></g><g><path d="M 18.75 6.725000000000005 q -5 12.14 -10 11.2 l 0 10 l 17.5 -17.5 l -1.2 -1.2 l -6.3 6.3 l 0 -8.8 z"></path></g><path d="M 10 47.925 l 10 -10 l -30 0 l -10 10 l 30 0 z"></path></g></g></g>
</svg>
