<svg xmlns="http://www.w3.org/2000/svg" viewBox="0 0 564.5 150" width="564.5" height="150" fill="currentColor" stroke="none">
<g transform="translate(282.25 75)"><g><g><path d="M -272.24999999999994 -50 l -10 10 l 0 60 l 10 -10 l 0 -60 z"></path></g><g><path d="M -252.34999999999994 -50.025 l -9.9 9.95 l 47.35 58.35 l 0.05 0 l 1.4 1.75 l 7.5 -7.5 l -42.7 -52.55 l 52.05 0 l 10 -10 l -65.75 0 z"></path><path d="M -214.42499999999995 -60.025 l 10 -10 l -30 0 l -10 10 l 30 0 z"></path></g><g><path d="M -148.59999999999997 -6.9 l 7.45 -7.5 27.05 34.4 7.5 -7.5 -27.8 -36 -7.75 7.8 -26.95 -34.3 -7.5 7.5 28 35.6 z"></path><path d="M -164.09999999999997 2.5 l -10 10 l 0 25 l 10 -10 l 0 -25 z"></path><path d="M -113.99999999999997 -40 l -8.8 8.8 l 1.2 1.2 l 20 -20 l -30 0 l -10 10 l 27.6 0 z"></path><path d="M -131.59999999999997 -60 l 10 -10 l -30 0 l -10 10 l 30 0 z"></path></g><g><path d="M -36.599999999999994 -49.975 l -10 10 l 0 20 l -35 0 l -10 10 l 29.95 29.95 l 7.5 -7.5 l -22.45 -22.45 l 30 0 l 10 -10 l 0 -30 z"></path><g><path d="M -55.349999999999994 11.27499999999998 q -6.486 -1.216 -4.75 5 q 2.924 -3.894 5.95 -3.8 l 8.8 -8.8 l 0 -15 l -10 10 l 0 12.6 z"></path></g></g><g><path d="M 38.44999999999999 20 l 10 -10 l 0 -50 l 10 -10 l -45 0 l -10 10 l 42.6 0 l -7.6 7.6 l 0 42.4 l -30 0 l -10 10 l 40 0 z"></path><g><path d="M -1.5500000000000114 20 l -15.05 0 l -10 10 l 17.45 0 l 9.95 -10 l 7.6 0 q -4.95 -4.2 6.25 -10 l -6.25 0 l -9.95 10 z"></path></g><path d="M 8.425000000000011 -67.5 l 7.5 7.5 l 7.5 -7.5 l -7.5 -7.5 l -7.5 7.5 z"></path><path d="M 5.925000000000011 50 l 0 25 l 20 -20 l -1.2 -1.2 l -8.8 8.8 l 0 -22.6 l -10 10 z"></path></g><g><path d="M 113.39999999999998 10 l -34.95 0 l -10 10 l 50 0 l 10 -10 l -25 -25 l 0 -35 l -10 10 l 0 30.05 l 19.95 19.95 z"></path><path d="M 108.44999999999999 40 l 10 -10 l -30 0 l -10 10 l 30 0 z"></path></g><g><path d="M 154.75 -50 l -7.5 7.5 57.5 62.5 7.5 -7.5 -57.5 -62.5 z"></path><path d="M 148.45 -41.3 q 6.486 1.216 4.75 -5 q -2.924 3.894 -5.95 3.8 l -8.8 8.8 l 0 15 l 10 -10 l 0 -12.6 z"></path><path d="M 209.2 13.600000000000001 q -1.825 3.28 -4.45 6.4 l -7.5 7.5 l -1.2 -1.2 l 7.5 -7.5 q -1.688 -4.106 -0.35 -4.55 q 1.45 -0.6 6 -0.65 z"></path></g><g><path d="M 237.2999999999999 -40 l 34.95 0 l 10 -10 l -50 0 l -10 10 l 25 25 l 0 35 l 10 -10 l 0 -30.05 l -19.95 -19.95 z"></path><g><path d="M 247.24999999999994 40 l 10 -10 l 0 -20 q -7.3 -5 -10 10 l 0 20 z"></path></g></g></g></g>
</svg>
