<svg xmlns="http://www.w3.org/2000/svg" viewBox="0 0 92.55 172.294907" width="92.55" height="172.294907" fill="currentColor" stroke="none">
<g transform="translate(46.275 86.147453)"><g><g><path d="M 21.275000000000006 43.15 l 7.5 -7.5 -26.9 -26.9 7.45 -7.55 -28.05 -28.05 -7.5 7.5 26.9 26.9 -7.5 7.5 28.1 28.1 z"></path><path d="M -25.074999999999996 -18.200000000000003 l 0 0.05 q 8.1 2.8 6.35 -8.7 l -6.35 6.3 q -9.4 -17.75 -21.2 -6.85 q 12.25 -2.15 14.85 15.5 l 6.35 -6.3 z"></path><path d="M 18.674999999999997 33.15 q -1.65 2.7 2.6 10 l 12.6 0 l -7.5 7.5 l 1.2 1.2 l 18.7 -18.7 l -20 0 q -7 -2.95 -7.6 0 z"></path><path d="M -6.224999999999994 -44.35 l 7.5 7.5 l 7.5 -7.5 l -7.5 -7.5 l -7.5 7.5 z"></path></g></g></g>
</svg>
