<svg xmlns="http://www.w3.org/2000/svg" viewBox="0 0 90 89.975" width="90" height="89.975" fill="currentColor" stroke="none">
<g transform="translate(45 44.9875)"><g><g><path d="M -35 -25.012499999999996 l -10 10 l 0 60 l 10 -10 l 0 -60 z"></path><g><path d="M -45 29.987500000000004 l 0 15 l 15 0 l 10 -10 l -15 0 l 0 -10 q -3.874 7.753 -10 5 z"></path></g></g><g><path d="M 45 -24.987499999999997 l -10 10 l 0 20 l -35 0 l -10 10 l 29.95 29.95 l 7.5 -7.5 l -22.45 -22.45 l 30 0 l 10 -10 l 0 -30 z"></path><g><path d="M 26.25 36.26249999999999 q -6.486 -1.216 -4.75 5 q 2.924 -3.894 5.95 -3.8 l 8.8 -8.8 l 0 -15 l -10 10 l 0 12.6 z"></path></g><path d="M 27.5 -34.987500000000004 l 10 -10 l -30 0 l -10 10 l 30 0 z"></path></g></g></g>
</svg>
