<svg xmlns="http://www.w3.org/2000/svg" viewBox="0 0 82.5 172.294907" width="82.5" height="172.294907" fill="currentColor" stroke="none">
<g transform="translate(41.25 86.147453)"><g><g><path d="M -5.75 18.1 l 7.45 -7.5 27.05 34.4 7.5 -7.5 -27.8 -36 -7.75 7.8 -26.95 -34.3 -7.5 7.5 28 35.6 z"></path><path d="M -27.35 -21.95 q -3.28 1.825 -6.4 4.45 l -7.5 7.5 l 1.2 1.2 l 7.5 -7.5 q 4.106 1.688 4.55 0.35 q 0.6 -1.45 0.65 -6 z"></path><path d="M 31.25 -15 l 10 -10 l -30 0 l -10 10 l 30 0 z"></path><path d="M 11.25 -35 l 10 -10 l -30 0 l -10 10 l 30 0 z"></path></g></g></g>
</svg>
