<svg xmlns="http://www.w3.org/2000/svg" viewBox="0 0 585.65 118.7" width="585.65" height="118.7" fill="currentColor" stroke="none">
<g transform="translate(292.825 59.35)"><g><g><path d="M -264.82500000000005 12.450000000000001 l 7.45 -7.5 27.05 34.4 7.5 -7.5 -27.8 -36 -7.75 7.8 -26.95 -34.3 -7.5 7.5 28 35.6 z"></path></g><g><path d="M -205.32500000000005 -30.65 l -7.5 7.5 l 31.25 31.25 l -31.25 31.25 l 40 0 l 10 -10 l -37.6 0 l 27.5 -27.6 l -32.4 -32.4 z"></path><g><path d="M -172.82500000000005 39.35 l 0 14.9 l 10 -10.1 l 0 14.9 l 9.9 -9.9 l 0 -17.4 l -9.9 9.9 l 0 -12.3 l -15 0 q 2.75 6.15 -5 10 l 10 0 z"></path></g></g><g><path d="M -99.17500000000004 -40.65 l -7.5 7.5 l 12.5 12.5 l -25 0 l -17.5 17.5 l 1.2 1.2 l 8.7 -8.7 l 37.6 0 l 10 -10 l -20 -20 z"></path><path d="M -132.92500000000004 -0.6499999999999986 l -10 10 l 50 0 l 10 -10 l -50 0 z"></path></g><g><path d="M -16.125000000000057 12.450000000000001 l 7.45 -7.5 27.05 34.4 7.5 -7.5 -27.8 -36 -7.75 7.8 -26.95 -34.3 -7.5 7.5 28 35.6 z"></path><path d="M -44.12500000000006 -23.15 l -15.05 0 l -10 10 l 17.45 0 l 8.75 -8.8 q 6.9 0.2 3.8 -6.15 l -4.95 4.95 z"></path><path d="M 22.824999999999932 32.95 q -1.825 3.28 -4.45 6.4 l -7.5 7.5 l -1.2 -1.2 l 7.5 -7.5 q -1.688 -4.106 -0.35 -4.55 q 1.45 -0.6 6 -0.65 z"></path><path d="M -16.625000000000057 -48.15 l 7.5 7.5 l 7.5 -7.5 l -7.5 -7.5 l -7.5 7.5 z"></path></g><g><path d="M 95.27499999999998 -30.65 l -50 0 l -9.4 9.4 l 23.2 33.05 l 6.2 -6.25 l 0 33.8 l 10 -10 l 0 -36.15 l -1.1 1.1 q -2.967 2.977 -5.95 5.95 l -1.95 2 l -0.65 0.65 l -16.5 -23.5 l 36.2 0 l 10 -10 z"></path><path d="M 75.59999999999997 -40.65 l 10 -10 l -30 0 l -10 10 l 30 0 z"></path></g><g><path d="M 115.32499999999999 -30.65 l -10 10 l 0 60 l 10 -10 l 0 -60 z"></path><g><path d="M 105.32499999999999 24.35 l 0 15 l 10 -10 l 0 20 l 10 -9.9 l 0 -22.4 l -10 9.95 l 0 -5.15 q -5 6.1 -10 2.5 z"></path></g></g><g><path d="M 185.325 -20.65 l 10 -10 l -50 0 l -10 10 l 0 35 l 10 -10 l 15 0 l 0 35 l 10 -10 l 0 -35 l -17.35 0 l -7.65 7.6 l 0 -22.6 l 40 0 z"></path><g><path d="M 175.325 -20.65 l 10 0 l 17.5 -17.5 l -1.2 -1.2 l -8.7 8.7 l -7.6 0 q 0.83 5.4 -10 10 z"></path></g><g><path d="M 160.325 24.35 l 0 15 l 12.6 0 l -7.5 7.5 l 1.2 1.2 l 18.7 -18.7 l -15 0 l 0 -10 q -3.85 7.75 -10 5 z"></path></g><path d="M 179.075 -49.35 l 10 -10 l -30 0 l -10 10 l 30 0 z"></path></g><g><path d="M 222.82500000000005 -30.65 l -10 10 l 0 60 l 10 -10 l 0 -60 z"></path></g><g><path d="M 247.875 -20.65 l 34.95 0 l 10 -10 l -50 0 l -10 10 l 25 25 l 0 35 l 10 -10 l 0 -30.05 l -19.95 -19.95 z"></path><g><path d="M 267.82500000000005 46.95 l 0 -17.6 q -7.3 -5 -10 10 l 0 20 l 17.5 -17.5 l -1.2 -1.2 l -6.3 6.3 z"></path></g><path d="M 272.82500000000005 -40.65 l 10 -10 l -30 0 l -10 10 l 30 0 z"></path></g></g></g>
</svg>
