<svg xmlns="http://www.w3.org/2000/svg" viewBox="0 0 50 172.294907" width="50" height="172.294907" fill="currentColor" stroke="none">
<g transform="translate(25 86.147453)"><g><g><path d="M 15 6.525000000000006 l 10 -10 l -29.85 -29.85 l -7.5 7.5 l 22.35 22.35 l -20 0 l -15 15 l 25.6 25.6 l 7.5 -7.5 l -23.1 -23.1 l 30 0 z"></path><g><path d="M -16.65 -45.125 l 11.8 11.8 l -5 5 q 7.681 1.687 7.1 -0.5 l -0.95 -3.35 l 7.05 -7.05 l -13 -12.9 z"></path></g><g><path d="M 20.6 27.125000000000007 l -15 0 q -7 -2.95 -7.6 0 q -1.65 2.7 2.6 10 l 10 0 l 0 15 l 10 -10 l 0 -15 z"></path></g></g></g></g>
</svg>
