<svg xmlns="http://www.w3.org/2000/svg" viewBox="0 0 59.45 172.294907" width="59.45" height="172.294907" fill="currentColor" stroke="none">
<g transform="translate(29.725 86.147453)"><g><g><path d="M -29.674999999999994 22.499999999999993 l 50 0 l 9.4 -9.4 l -23.2 -33.05 l -6.2 6.25 l 0 -33.8 l -10 10 l 0 36.15 l 1.1 -1.1 q 2.967 -2.977 5.95 -5.95 l 1.95 -2 l 0.65 -0.65 l 16.5 23.5 l -36.2 0 l -10 10 z"></path><path d="M 10.000000000000007 -57.5 l 10 -10 l -30 0 l -10 10 l 30 0 z"></path><path d="M -9.999999999999993 42.5 l 0 25 l 20 -20 l -1.2 -1.2 l -8.8 8.8 l 0 -22.6 l -10 10 z"></path></g></g></g>
</svg>
