<svg xmlns="http://www.w3.org/2000/svg" viewBox="0 0 75.1 172.294907" width="75.1" height="172.294907" fill="currentColor" stroke="none">
<g transform="translate(37.55 86.147453)"><g><g fill="currentColor"><path d="M -12.549999999999997 -40.65 l -7.5 7.5 l 31.25 31.25 l -31.25 31.25 l 40 0 l 10 -10 l -37.6 0 l 27.5 -27.6 l -32.4 -32.4 z"></path><g><path d="M -9.949999999999996 -30.65 q 1.65 -2.7 -2.6 -10 l -12.6 0 l 7.5 -7.5 l -1.2 -1.2 l -18.7 18.7 l 20 0 q 7 2.95 7.6 0 z"></path></g><g><path d="M 22.300000000000004 19.35 q 0.465 4.718 -7.9 10 l 5.55 0 l 17.6 -17.6 l 0 -15 l -10 10 l 0 12.6 l -5.25 0 z"></path></g><path d="M 10 49.35 l 10 -10 l -30 0 l -10 10 l 30 0 z"></path></g></g></g>
</svg>
