<svg xmlns="http://www.w3.org/2000/svg" viewBox="0 0 91.3 172.294907" width="91.3" height="172.294907" fill="currentColor" stroke="none">
<g transform="translate(45.65 86.147453)"><g><g><path d="M -9.349999999999994 -50.425 l -10 10 l 0 60 l 10 -10 l 0 -50 l 30 0 l 10 -10 l -40 0 z"></path><g><path d="M 25.650000000000006 -40.425 l 12.5 12.5 l 7.5 -7.5 l -15 -15 q -8.65 2.75 -10 10 l 5 0 z"></path></g><g><path d="M -45.64999999999999 19.975 l 1.2 1.2 l 7.5 -7.5 l 11.75 11.75 l 15.85 -15.85 l 0 -5 q -6.25 9 -10 5 l 0 7.6 l -11.8 -11.7 l -14.5 14.5 z"></path></g><path d="M -7.499999999999993 42.925 l 7.5 7.5 l 7.5 -7.5 l -7.5 -7.5 l -7.5 7.5 z"></path></g></g></g>
</svg>
