<svg xmlns="http://www.w3.org/2000/svg" viewBox="0 0 142.4 105.85" width="142.4" height="105.85" fill="currentColor" stroke="none">
<g transform="translate(71.2 52.925)"><g><g><path d="M -48.800000000000004 -27.074999999999996 l -10 10 l 0 60 l 10 -10 l 0 -60 z"></path><g><path d="M -71.2 52.925000000000004 l 22.4 0 l 10 -10.1 l -19.9 0 l -0.1 0.1 l 0 -0.1 l 0.05 0 l 9.95 -9.9 l 0 -5 q -5 5.774 -10 5 l 0 7.55 l -12.4 12.4 z"></path></g></g><g><path d="M -18.800000000000004 -27.074999999999996 l -10 10 l 0 35 l 26.3 0 l 8.7 -8.75 l 0 33.75 l 10 -10 l 0 -36.15 l -11.15 11.15 l -23.85 0 l 0 -35 z"></path><g><path d="M -28.800000000000004 -17.074999999999996 l 0 5 q 6.25 -9 10 -5 l 0 -7.6 l 11.8 11.7 l 7 -7 l -12.95 -12.95 l -15.85 15.85 z"></path></g><g><path d="M -6.200000000000003 52.925000000000004 l 22.4 0 l 10 -10.1 l -19.9 0 l -0.1 0.1 l 0 -0.1 l 0.05 0 l 9.95 -9.9 l 0 -5 q -5 5.774 -10 5 l 0 7.55 l -12.4 12.4 z"></path></g><path d="M 8.700000000000003 -42.925 l 10 -10 l -30 0 l -10 10 l 30 0 z"></path></g><g><path d="M 56.2 -3.224999999999996 l -10 10 l 0 -33.85 l -10 10 l 0 36.2 l 10 -9.95 l 0 33.75 l 10 -10 l 0 -36.15 z"></path><g><path d="M 46.2 27.925000000000004 l 0 15 l 12.6 0 l -7.5 7.5 l 1.2 1.2 l 18.7 -18.7 l -15 0 l 0 -10 q -3.85 7.75 -10 5 z"></path></g></g></g></g>
</svg>
