<svg xmlns="http://www.w3.org/2000/svg" viewBox="0 0 76.3 172.294907" width="76.3" height="172.294907" fill="currentColor" stroke="none">
<g transform="translate(38.15 86.147453)"><g><g><path d="M 3.1500000000000057 10.650000000000006 l 7.5 -7.5 -32.5 -32.5 -7.5 7.5 32.5 32.5 m -17.5 -10 l -7.5 7.5 32.5 32.5 7.5 -7.5 -32.5 -32.5 z"></path><path d="M -28.149999999999995 -20.649999999999995 q 4.2 0.65 6.3 -2.7 q 0.8 -1 0 -6 l -6.3 6.3 l 0 -19.95 l -10 10.1 l 0 22.35 l 10 -10.1 z"></path><path d="M 8.050000000000004 30.650000000000006 q -1.65 2.7 2.6 10 l 12.6 0 l -7.5 7.5 l 1.2 1.2 l 18.7 -18.7 l -20 0 q -7 -2.95 -7.6 0 z"></path><path d="M 25.750000000000007 -19.349999999999994 l -8.8 8.8 l 1.2 1.2 l 20 -20 l -30 0 l -10 10 l 27.6 0 z"></path><path d="M 4.400000000000006 -39.349999999999994 l 10 -10 l -30 0 l -10 10 l 30 0 z"></path></g></g></g>
</svg>
