<svg xmlns="http://www.w3.org/2000/svg" viewBox="0 0 346.6 125.05" width="346.6" height="125.05" fill="currentColor" stroke="none">
<g transform="translate(173.3 62.525)"><g><g><path d="M -165.79999999999998 -37.50000000000001 l -7.5 7.5 57.5 62.5 7.5 -7.5 -57.5 -62.5 z"></path><path d="M -138.29999999999998 52.49999999999999 l 10 -10 l -30 0 l -10 10 l 30 0 z"></path></g><g><path d="M -38.29999999999998 -37.550000000000004 l -50 0 l -10 10 l 0 27 l 33.1 33.1 l 7.5 -7.5 l -30.6 -30.6 l 0 -22 l 40 0 l 10 -10 z"></path><g><path d="M -52.84999999999998 -27.550000000000004 l 4.55 0 l 8.8 -8.8 l 10 10 l 7.15 -7.15 l -11.3 -11.2 l -7.05 7.15 l -6.3 0 q 3.7 5 -5.85 10 z"></path></g><g><path d="M -58.89999999999998 23.84999999999999 q -6.486 -1.216 -4.75 5 q 2.924 -3.894 5.95 -3.8 l 8.8 -8.8 l 0 -15 l -10 10 l 0 12.6 z"></path></g></g><g><path d="M 17.650000000000006 -13.650000000000007 l -10 10 l 0 -33.85 l -10 10 l 0 36.2 l 10 -9.95 l 0 33.75 l 10 -10 l 0 -36.15 z"></path><g><path d="M 7.650000000000006 32.49999999999999 l 10 -10 l 0 -10 q -3.499 7.753 -10 5 l 0 5 l -10 0 l -10 10 l 20 0 z"></path></g></g><g><path d="M 37.54999999999998 -37.525000000000006 l -9.9 9.95 l 47.35 58.35 l 0.05 0 l 1.4 1.75 l 7.5 -7.5 l -42.7 -52.55 l 52.05 0 l 10 -10 l -65.75 0 z"></path><path d="M 57.974999999999994 -55.025000000000006 l 7.5 7.5 l 7.5 -7.5 l -7.5 -7.5 l -7.5 7.5 z"></path><path d="M 73.07499999999999 52.525000000000006 l -8.8 8.8 l 1.2 1.2 l 20 -20 l -30 0 l -10 10 l 27.6 0 z"></path></g><g><path d="M 141.24999999999997 -52.50000000000001 l -7.5 7.5 l 21.65 27.5 l 7.45 -7.5 l -21.6 -27.5 z"></path><path d="M 123.29999999999998 -7.500000000000007 l -10 10 l 50 0 l 10 -10 l -50 0 z"></path></g></g></g>
</svg>
