<svg xmlns="http://www.w3.org/2000/svg" viewBox="0 0 117.5 90" width="117.5" height="90" fill="currentColor" stroke="none">
<g transform="translate(58.75 45)"><g><g><path d="M -48.75 -25 l -10 10 l 0 60 l 10 -10 l 0 -60 z"></path></g><g><path d="M -21.25 -25 l -10 10 l 0 30 l 30 30 l 7.5 -7.5 l -27.5 -27.5 l 0 -35 z"></path><g><path d="M -31.25 -3.8000000000000007 q 5 -12.14 10 -11.2 l 0 -10 l -17.5 17.5 l 1.2 1.2 l 6.3 -6.3 l 0 8.8 z"></path></g><g><path d="M -0.14999999999999858 41.95 q 3.28 -1.825 6.4 -4.45 l 7.5 -7.5 l -1.2 -1.2 l -7.5 7.5 q -4.106 -1.688 -4.55 -0.35 q -0.6 1.45 -0.65 6 z"></path></g><path d="M -2.5 -35 l 10 -10 l -30 0 l -10 10 l 30 0 z"></path></g><g><path d="M 43.75 -1.1500000000000004 l -10 10 l 0 -33.85 l -10 10 l 0 36.2 l 10 -9.95 l 0 33.75 l 10 -10 l 0 -36.15 z"></path><g><path d="M 33.75 30 l 0 15 l 15 0 l 10 -10 l -15 0 l 0 -10 q -3.874 7.753 -10 5 z"></path></g></g></g></g>
</svg>
