<svg xmlns="http://www.w3.org/2000/svg" viewBox="0 0 291.3 138.9" width="291.3" height="138.9" fill="currentColor" stroke="none">
<g transform="translate(145.65 69.45)"><g><g><path d="M -129.35000000000002 -31.950000000000003 l -7.5 7.5 57.5 62.5 7.5 -7.5 -57.5 -62.5 z"></path><path d="M -135.65 -23.250000000000004 q 6.486 1.216 4.75 -5 q -2.924 3.894 -5.95 3.8 l -8.8 8.8 l 0 15 l 10 -10 l 0 -12.6 z"></path><path d="M -81.95000000000002 28.049999999999997 q -1.655 2.716 2.6 10 l 15 0 l 10 -10 l -20 0 q -7.015 -2.931 -7.6 0 z"></path><path d="M -126.85000000000001 20.549999999999997 l -10 10 l 0 25 l 10 -10 l 0 -25 z"></path><path d="M -118.10000000000001 -61.95 l 20 20 l 7.5 -7.5 l -20 -20 l -7.5 7.5 z"></path></g><g><path d="M 10.650000000000006 -31.925000000000004 l -10 10 l 0 20 l -35 0 l -10 10 l 29.95 29.95 l 7.5 -7.5 l -22.45 -22.45 l 30 0 l 10 -10 l 0 -30 z"></path><g><path d="M -8.099999999999994 49.174999999999976 l -7.5 7.5 l 1.2 1.2 l 16.3 -16.3 l 0 -22.35 l -10 10.1 q -4.2 -0.65 -6.3 2.7 q -0.8 1 0 6 l 6.3 -6.3 l 0 17.45 z"></path></g></g><g><path d="M 28.150000000000006 -31.950000000000003 l -7.5 7.5 57.5 62.5 7.5 -7.5 -57.5 -62.5 z"></path><path d="M 30.650000000000006 20.549999999999997 l -10 10 l 0 25 l 10 -10 l 0 -25 z"></path><path d="M 38.150000000000006 55.55 l 7.5 7.5 l 7.5 -7.5 l -7.5 -7.5 l -7.5 7.5 z"></path></g><g><path d="M 105.65 -31.950000000000003 l -10 10 l 0 60 l 40 0 l 10 -10 l -40 0 l 0 -60 z"></path><g><path d="M 118.15 68.25 l 1.2 1.2 l 16.3 -16.3 l 0 -15.1 l 10 -10 l -18.3 0 q 4.75 2.3 -1.7 10 l 7.6 0 l 0.25 -0.2 l -7.85 7.85 l 0 15.05 l -7.5 7.5 z"></path></g></g></g></g>
</svg>
