<svg xmlns="http://www.w3.org/2000/svg" viewBox="0 0 438.711572 132.5" width="438.711572" height="132.5" fill="currentColor" stroke="none">
<g transform="translate(219.355786 66.25)"><g><g><path d="M -203.0557861328125 -28.75 l -7.5 7.5 57.5 62.5 7.5 -7.5 -57.5 -62.5 z"></path><path d="M -209.3557861328125 -20.05 q 6.486 1.216 4.75 -5 q -2.924 3.894 -5.95 3.8 l -8.8 8.8 l 0 15 l 10 -10 l 0 -12.6 z"></path><path d="M -155.65578613281252 31.25 q -1.65 2.7 2.6 10 l 12.6 0 l -7.5 7.5 l 1.2 1.2 l 18.7 -18.7 l -20 0 q -7 -2.95 -7.6 0 z"></path><path d="M -191.8057861328125 -58.75 l 20 20 l 7.5 -7.5 l -20 -20 l -7.5 7.5 z"></path></g><g><path d="M -110.55578613281251 -28.75 l -7.5 7.5 l 31.25 31.25 l -31.25 31.25 l 40 0 l 10 -10 l -37.6 0 l 27.5 -27.6 l -32.4 -32.4 z"></path><g><path d="M -109.40578613281251 -27.6 l 15.05 0 l 10 -10 l -17.45 0 l -8.75 8.85 q -1.75 3.2 -4.85 7.2 q 5.7 0.35 6 -6.05 z"></path></g><g><path d="M -88.0557861328125 31.25 q 6.368 3.408 0 10 l 10 0 l 10 -10 l 0 -15 l -10 10 l 0 5 l -10 0 z"></path></g></g><g><path d="M -21.85578613281251 -4.9 l -10 10 l 0 -33.85 l -10 10 l 0 36.2 l 10 -9.95 l 0 33.75 l 10 -10 l 0 -36.15 z"></path><g><path d="M -31.85578613281251 -13.100000000000001 l 0 -15.65 l -10 10.05 q -10.8 -2.6 -16.2 -18.85 q -0.35 21.9 9.85 27.5 l 6.35 -6.35 l 0 8.1 q 4.8 -9.5 10 -4.8 z"></path></g><g><path d="M -31.85578613281251 25.6 l 0 15.65 l 10 -10.05 q 10.8 2.6 16.2 18.85 q 0.35 -21.9 -9.85 -27.5 l -6.35 6.35 l 0 -8.1 q -4.8 9.5 -10 4.8 z"></path></g></g><g><path d="M 11.855786132812511 -28.75 l -7.5 7.5 57.5 62.5 7.5 -7.5 -57.5 -62.5 z"></path><path d="M 4.355786132812511 21.25 l 20 20 l 7.5 -7.5 l -20 -20 l -7.5 7.5 z"></path><path d="M 29.35578613281251 -46.25 l 7.5 7.5 l 7.5 -7.5 l -7.5 -7.5 l -7.5 7.5 z"></path><path d="M 21.85578613281251 58.75 l 7.5 7.5 l 7.5 -7.5 l -7.5 -7.5 l -7.5 7.5 z"></path></g><g><path d="M 94.40578613281252 -18.75 l 34.95 0 l 10 -10 l -50 0 l -10 10 l 25 25 l 0 35 l 10 -10 l 0 -30.05 l -19.95 -19.95 z"></path><g><path d="M 104.35578613281251 61.25 l 10 -10 l 0 -20 q -7.3 -5 -10 10 l 0 20 z"></path></g></g><g><path d="M 159.3557861328125 -28.75 l -10 10 l 0 60 l 10 -10 l 0 -60 z"></path></g><g><path d="M 179.3557861328125 -28.75 l -10 10 l 0 60 l 10 -10 l 0 -50 l 30 0 l 10 -10 l -40 0 z"></path><path d="M 204.3557861328125 -38.75 l 10 -10 l -30 0 l -10 10 l 30 0 z"></path></g></g></g>
</svg>
