<svg xmlns="http://www.w3.org/2000/svg" viewBox="0 0 85 108.775" width="85" height="108.775" fill="currentColor" stroke="none">
<g transform="translate(42.5 54.3875)"><g><g><path d="M -24.3 -34.4125 l -10 10 l 0 60 l 10 -10 l 0 -60 z"></path><g><path d="M -22.5 47.387499999999996 l -11.8 -11.8 l 10 -10 l 0 -5 q -5.188 7.964 -10 5 l 0 7.7 l -8.2 8.2 l 13 12.9 l 7 -7 z"></path></g></g><g><path d="M 42.5 -34.3875 l -10 10 l 0 20 l -35 0 l -10 10 l 29.95 29.95 l 7.5 -7.5 l -22.45 -22.45 l 30 0 l 10 -10 l 0 -30 z"></path><g><path d="M 19.950000000000003 33.06249999999998 l 5 -5 l 10 10 l 7.15 -7.15 l -11.3 -11.2 l -7 7.1 l -1 1 q -3.183 -1.742 -3.85 0 q -0.916 1.293 0 6.25 z"></path></g><path d="M 25 -44.38750000000001 l 10 -10 l -30 0 l -10 10 l 30 0 z"></path></g></g></g>
</svg>
