<svg xmlns="http://www.w3.org/2000/svg" viewBox="0 0 651 158.325" width="651" height="158.325" fill="currentColor" stroke="none">
<g transform="translate(325.5 79.1625)"><g><g><path d="M -297.50000000000006 1.4374999999999911 l 7.45 -7.5 27.05 34.4 7.5 -7.5 -27.8 -36 -7.75 7.8 -26.95 -34.3 -7.5 7.5 28 35.6 z"></path></g><g><path d="M -235.50000000000006 -41.66250000000001 l -10 10 l 0 60 l 10 -10 l 0 -50 l 30 0 l 10 -10 l -40 0 z"></path><g><path d="M -209.15000000000006 -41.66250000000001 q 2.585 3.848 -6.35 10 l 7.65 0 l -6.3 6.35 q 5.6 10.2 27.5 9.85 q -16.25 -5.4 -18.85 -16.2 l 10 -10 l -13.65 0 z"></path></g><g><path d="M -215.50000000000006 28.33749999999999 l -15 0 l 10 -10 l -15 0 l 0 -10 q -3.85 7.75 -10 5 l 0 15 l 12.55 0 l -9.95 10 l 17.4 0 l 10 -10 z"></path></g><path d="M -206.07500000000005 58.33749999999999 l 10 -10 l -30 0 l -10 10 l 30 0 z"></path></g><g><path d="M -169.15000000000003 -41.66250000000001 l -7.5 7.5 57.5 62.5 7.5 -7.5 -57.5 -62.5 z"></path><path d="M -176.65000000000003 8.337499999999991 l 20 20 l 7.5 -7.5 l -20 -20 l -7.5 7.5 z"></path><path d="M -151.65000000000003 -59.16250000000001 l 7.5 7.5 l 7.5 -7.5 l -7.5 -7.5 l -7.5 7.5 z"></path></g><g><path d="M -61.650000000000034 -2.0375000000000085 l 10 -10 l -29.85 -29.85 l -7.5 7.5 l 22.35 22.35 l -20 0 l -15 15 l 25.6 25.6 l 7.5 -7.5 l -23.1 -23.1 l 30 0 z"></path></g><g><path d="M -13.949999999999989 28.26249999999999 l 10 -10 l 0 -40 l -9.55 9.55 l -20.65 -29.4 l -7.5 7.5 l 21.6 30.85 l 6.1 -6.1 l 0 37.6 z"></path><g><path d="M -3.9499999999999886 35.86249999999999 l 0 -17.6 q -7.3 -5 -10 10 l 0 20 l 17.5 -17.5 l -1.2 -1.2 l -6.3 6.3 z"></path></g><path d="M -9.050000000000011 68.26249999999999 l 10 -10 l -30 0 l -10 10 l 30 0 z"></path></g><g><path d="M 21.05000000000001 -41.66250000000001 l -7.5 7.5 57.5 62.5 7.5 -7.5 -57.5 -62.5 z"></path><path d="M 22.19999999999999 -34.16250000000001 q 1.328 -4.078 -0.8 -6.7 l 0.8 0.35 q 19.05 9.15 23.7 -6.2 q -7.65 9.4 -17.35 -2.45 l -15 15 q 4.648 1.323 8.65 0 z"></path><path d="M 68.44999999999999 18.33749999999999 q -1.655 2.716 2.6 10 l 15 0 l 10 -10 l -20 0 q -7.015 -2.931 -7.6 0 z"></path><path d="M 23.55000000000001 10.837499999999991 l -10 10 l 0 25 l 10 -10 l 0 -25 z"></path><path d="M 32.30000000000001 -71.66250000000001 l 20 20 l 7.5 -7.5 l -20 -20 l -7.5 7.5 z"></path></g><g><path d="M 116.05000000000001 -41.66250000000001 l -10 10 l 0 60 l 10 -10 l 0 -50 l 30 0 l 10 -10 l -40 0 z"></path></g><g><path d="M 184.85000000000002 28.312499999999993 l 10 -10 l 0 -20 l 35 0 l 10 -10 l -29.95 -29.95 l -7.5 7.5 l 22.45 22.45 l -30 0 l -10 10 l 0 30 z"></path><g><path d="M 194.85000000000008 18.3125 l 0 -5 q -6.25 9 -10 5 l 0 7.6 l -11.8 -11.7 l -7 7 l 12.95 12.95 l 15.85 -15.85 z"></path></g><path d="M 192.95 54.16250000000001 l 0 25 l 20 -20 l -1.2 -1.2 l -8.8 8.8 l 0 -22.6 l -10 10 z"></path></g><g><path d="M 259.8500000000001 18.262499999999992 l -10 10 l 65.75 0 l 9.9 -9.95 l -30.45 -37.55 l -7.25 7.3 l -24.15 -29.65 l -7.45 7.4 l 25.2 31.05 l 7.5 -7.45 l 23.1 28.85 l -52.15 0 z"></path><path d="M 280.1750000000001 -59.087500000000006 l 7.5 7.5 l 7.5 -7.5 l -7.5 -7.5 l -7.5 7.5 z"></path><path d="M 280.1750000000001 45.76249999999999 l 7.5 7.5 l 7.5 -7.5 l -7.5 -7.5 l -7.5 7.5 z"></path></g></g></g>
</svg>
