<svg xmlns="http://www.w3.org/2000/svg" viewBox="0 0 548.6 128.75" width="548.6" height="128.75" fill="currentColor" stroke="none">
<g transform="translate(274.3 64.375)"><g><g><path d="M -246.3 -1.2750000000000004 l 7.45 -7.5 27.05 34.4 7.5 -7.5 -27.8 -36 -7.75 7.8 -26.95 -34.3 -7.5 7.5 28 35.6 z"></path><path d="M -271.8 5.625 l 20 20 l 7.5 -7.5 l -20 -20 l -7.5 7.5 z"></path><path d="M -254.3 43.125 l 7.5 7.5 l 7.5 -7.5 l -7.5 -7.5 l -7.5 7.5 z"></path></g><g><path d="M -144.3 -34.375 l 10 -10 l -50 0 l -10 10 l 0 35 l 10 -10 l 15 0 l 0 35 l 10 -10 l 0 -35 l -17.35 0 l -7.65 7.6 l 0 -22.6 l 40 0 z"></path></g><g><path d="M -91.75 -44.375 l -7.5 7.5 l 31.25 31.25 l -31.25 31.25 l 40 0 l 10 -10 l -37.6 0 l 27.5 -27.6 l -32.4 -32.4 z"></path><g><path d="M -99.25 -36.875 l -15.05 0 l -10 10 l 17.45 0 l 8.75 -8.8 q 6.9 0.2 3.8 -6.15 l -4.95 4.95 z"></path></g><g><path d="M -57.94999999999999 44.375 l 16.3 -16.3 l 0 -22.45 l -10 10 l -12.6 0 q 3.5 4 0 10 l 5 0 l 7.6 -7.65 l 0 17.7 l -7.5 7.5 l 1.2 1.2 z"></path></g><path d="M -72.975 64.375 l 10 -10 l -30 0 l -10 10 l 30 0 z"></path></g><g><path d="M -11.649999999999977 -20.525 l -10 10 l 0 -33.85 l -10 10 l 0 36.2 l 10 -9.95 l 0 33.75 l 10 -10 l 0 -36.15 z"></path><g><path d="M -31.649999999999977 -34.375 l 0 5 q 6.25 -9 10 -5 l 0 -7.6 l 11.8 11.7 l 7 -7 l -12.95 -12.95 l -15.85 15.85 z"></path></g><g><path d="M -11.649999999999977 4.425000000000001 q -5 12.14 -10 11.2 l 0 10 l 17.5 -17.5 l -1.2 -1.2 l -6.3 6.3 l 0 -8.8 z"></path></g></g><g><path d="M 42.150000000000034 -20.525 l -10 10 l 0 -33.85 l -10 10 l 0 36.2 l 10 -9.95 l 0 33.75 l 10 -10 l 0 -36.15 z"></path><g><path d="M 32.150000000000034 -29.375 l 0 -15 l -15 0 l -10 10 l 15 0 l 0 10 q 3.874 -7.753 10 -5 z"></path></g><g><path d="M 41.80000000000001 13.524999999999999 q -0.375 0.363 -1.15 1.15 q -6.261 1.099 -8.5 -3.8 l 0 14.75 l 10 -10 l 10 10 l 7.15 -7.15 l -11.3 -11.2 l -5.85 5.9 q -0.04 0.029 -0.35 0.35 z"></path></g></g><g><path d="M 89.30000000000001 -20.525 l -10 10 l 0 -33.85 l -10 10 l 0 36.2 l 10 -9.95 l 0 33.75 l 10 -10 l 0 -36.15 z"></path><g><path d="M 79.30000000000001 45.625 l 10 -10 l 0 -20 q -7.3 -5 -10 10 l 0 20 z"></path></g></g><g><path d="M 109.30000000000001 -44.375 l -10 10 l 0 60 l 10 -10 l 0 -60 z"></path></g><g><path d="M 174.3 -44.35 l -10 10 l 0 20 l -35 0 l -10 10 l 29.95 29.95 l 7.5 -7.5 l -22.45 -22.45 l 30 0 l 10 -10 l 0 -30 z"></path><g><path d="M 151.75 23.09999999999998 l 5 -5 l 10 10 l 7.15 -7.15 l -11.3 -11.2 l -7 7.1 l -1 1 q -3.183 -1.742 -3.85 0 q -0.916 1.293 0 6.25 z"></path></g><path d="M 156.8 -54.35000000000001 l 10 -10 l -30 0 l -10 10 l 30 0 z"></path></g><g><path d="M 194.3 -44.375 l -10 10 l 0 60 l 10 -10 l 0 -60 z"></path><g><path d="M 184.3 10.625 l 0 15 l 10 -10 l 0 20 l 10 -9.9 l 0 -22.4 l -10 9.95 l 0 -5.15 q -5 6.1 -10 2.5 z"></path></g></g><g><path d="M 264.3 -34.375 l 10 -10 l -50 0 l -10 10 l 0 35 l 10 -10 l 15 0 l 0 35 l 10 -10 l 0 -35 l -17.35 0 l -7.65 7.6 l 0 -22.6 l 40 0 z"></path><path d="M 254.3 -54.375 l 10 -10 l -30 0 l -10 10 l 30 0 z"></path></g></g></g>
</svg>
