<svg xmlns="http://www.w3.org/2000/svg" viewBox="0 0 326.4 145" width="326.4" height="145" fill="currentColor" stroke="none">
<g transform="translate(163.2 72.5)"><g><g><path d="M -144.35000000000002 -47.5 l -7.5 7.5 57.5 62.5 7.5 -7.5 -57.5 -62.5 z"></path><path d="M -143.20000000000002 -46.3 l 7.5 -7.55 q -17.7 -8.5 -27.5 7.5 q 11.7 -7.3 18.85 -1.15 l -3.7 3.65 q 1.81 1.308 4.55 2.1 q 1.8 0.5 0.3 -4.55 z"></path><path d="M -151.85000000000002 2.5 l 20 20 l 7.5 -7.5 l -20 -20 l -7.5 7.5 z"></path><path d="M -89.35000000000002 -37.5 l 10 -10 l -30 0 l -10 10 l 30 0 z"></path><path d="M -109.35000000000002 -57.5 l 10 -10 l -30 0 l -10 10 l 30 0 z"></path></g><g><path d="M -54.30000000000004 -37.5 l 34.95 0 l 10 -10 l -50 0 l -10 10 l 25 25 l 0 35 l 10 -10 l 0 -30.05 l -19.95 -19.95 z"></path><g><path d="M -44.35000000000002 42.5 l 10 -10 l 0 -20 q -7.3 -5 -10 10 l 0 20 z"></path></g><path d="M -46.85000000000002 -65 l 7.5 7.5 l 7.5 -7.5 l -7.5 -7.5 l -7.5 7.5 z"></path><path d="M -31.75000000000003 62.5 l -8.8 8.8 l 1.2 1.2 l 20 -20 l -30 0 l -10 10 l 27.6 0 z"></path></g><g><path d="M 28.649999999999977 -4.4 l 7.45 -7.5 27.05 34.4 7.5 -7.5 -27.8 -36 -7.75 7.8 -26.95 -34.3 -7.5 7.5 28 35.6 z"></path></g><g><path d="M 123.20000000000002 -47.5 l -10 10 l 0 60 l 10 -10 l 0 -50 l 30 0 l 10 -10 l -40 0 z"></path><g><path d="M 123.20000000000002 12.5 l 0 -7.3 q -4.546 5.888 -10 3.05 l 0 11.95 l -15.05 0 l -17.5 17.5 l 1.2 1.2 l 8.7 -8.7 l 15 0 l 17.65 -17.7 z"></path></g><path d="M 114.32500000000002 58.900000000000006 l 8.8 -8.8 l -1.2 -1.2 l -20 20 l 30 0 l 10 -10 l -27.6 0 z"></path></g></g></g>
</svg>
