<svg xmlns="http://www.w3.org/2000/svg" viewBox="0 0 96.3 172.294907" width="96.3" height="172.294907" fill="currentColor" stroke="none">
<g transform="translate(48.15 86.147453)"><g><g><path d="M -11.349999999999994 12.500000000000005 l 7.45 -7.5 27.05 34.4 7.5 -7.5 -27.8 -36 -7.75 7.8 -26.95 -34.3 -7.5 7.5 28 35.6 z"></path><path d="M -38.14999999999999 -21.899999999999995 q 4.2 0.65 6.3 -2.7 q 0.8 -1 0 -6 l -6.3 6.3 l 0 -19.95 l -10 10.1 l 0 22.35 l 10 -10.1 z"></path><path d="M 20.549999999999997 29.400000000000006 q -1.65 2.7 2.6 10 l 12.6 0 l -7.5 7.5 l 1.2 1.2 l 18.7 -18.7 l -20 0 q -7 -2.95 -7.6 0 z"></path><path d="M 28.150000000000006 -23.099999999999994 l 0 -25 l -20 20 l 1.2 1.2 l 8.8 -8.8 l 0 22.6 l 10 -10 z"></path></g></g></g>
</svg>
