<svg xmlns="http://www.w3.org/2000/svg" viewBox="0 0 135.6 105.225" width="135.6" height="105.225" fill="currentColor" stroke="none">
<g transform="translate(67.8 52.6125)"><g><g><path d="M -39.8 5.712500000000004 l 7.45 -7.5 27.05 34.4 7.5 -7.5 -27.8 -36 -7.75 7.8 -26.95 -34.3 -7.5 7.5 28 35.6 z"></path><path d="M -30.299999999999997 52.612500000000004 l 10 -10 l -30 0 l -10 10 l 30 0 z"></path></g><g><path d="M 52.2 2.2375000000000043 l 10 -10 l -29.85 -29.85 l -7.5 7.5 l 22.35 22.35 l -20 0 l -15 15 l 25.6 25.6 l 7.5 -7.5 l -23.1 -23.1 l 30 0 z"></path><g><path d="M 12.350000000000009 -27.612499999999997 l 15 0 q 7 2.95 7.6 0 q 1.65 -2.7 -2.6 -10 l -10 0 l 0 -15 l -10 10 l 0 15 z"></path></g><g><path d="M 40.400000000000006 42.837500000000006 l 17.4 0 l 10 -10 l -15 0 l 10 -10 l -20 0 q -7 -2.95 -7.6 0 q -1.65 2.7 2.6 10 l 12.55 0 l -9.95 10 z"></path></g></g></g></g>
</svg>
