<svg xmlns="http://www.w3.org/2000/svg" viewBox="0 0 706.947698 149.925" width="706.947698" height="149.925" fill="currentColor" stroke="none">
<g transform="translate(353.473849 74.9625)"><g><g><path d="M -325.473849235975 3.137499999999994 l 7.45 -7.5 27.05 34.4 7.5 -7.5 -27.8 -36 -7.75 7.8 -26.95 -34.3 -7.5 7.5 28 35.6 z"></path><path d="M -293.57384923597505 20.037499999999994 q -1.655 2.716 2.6 10 l 15 0 l 10 -10 l -20 0 q -7.015 -2.931 -7.6 0 z"></path><path d="M -350.973849235975 10.037499999999994 l 20 20 l 7.5 -7.5 l -20 -20 l -7.5 7.5 z"></path><path d="M -333.473849235975 47.537499999999994 l 7.5 7.5 l 7.5 -7.5 l -7.5 -7.5 l -7.5 7.5 z"></path></g><g><path d="M -245.97384923597502 -39.962500000000006 l -10 10 l 0 30 l 30 30 l 7.5 -7.5 l -27.5 -27.5 l 0 -35 z"></path></g><g><path d="M -160.97384923597502 30.037499999999994 l 7.5 -7.5 -26.9 -26.9 7.45 -7.55 -28.05 -28.05 -7.5 7.5 26.9 26.9 -7.5 7.5 28.1 28.1 z"></path><path d="M -199.82384923597502 -38.81250000000001 l 15.05 0 l 10 -10 l -17.45 0 l -8.75 8.85 q -1.75 3.2 -4.85 7.2 q 5.7 0.35 6 -6.05 z"></path><path d="M -163.57384923597502 20.037499999999994 q -1.65 2.7 2.6 10 l 12.6 0 l -7.5 7.5 l 1.2 1.2 l 18.7 -18.7 l -20 0 q -7 -2.95 -7.6 0 z"></path><path d="M -188.47384923597502 -57.462500000000006 l 7.5 7.5 l 7.5 -7.5 l -7.5 -7.5 l -7.5 7.5 z"></path></g><g><path d="M -70.97384923597502 -39.93750000000001 l -10 10 l 0 20 l -35 0 l -10 10 l 29.95 29.95 l 7.5 -7.5 l -22.45 -22.45 l 30 0 l 10 -10 l 0 -30 z"></path><g><path d="M -113.52384923597506 60.162499999999966 l 1.2 1.2 l 16.3 -16.3 l 0 -15.05 l 7.5 -7.5 q -11.45 -4.9 -8.7 6.3 l -8.8 8.9 l 0 14.95 l -7.5 7.5 z"></path></g></g><g><path d="M -50.973849235975024 19.962499999999995 l -10 10 l 65.75 0 l 9.9 -9.95 l -30.45 -37.55 l -7.25 7.3 l -24.15 -29.65 l -7.45 7.4 l 25.2 31.05 l 7.5 -7.45 l 23.1 28.85 l -52.15 0 z"></path><path d="M -13.148849235975035 64.96249999999999 l 0 -25 l -20 20 l 1.2 1.2 l 8.8 -8.8 l 0 22.6 l 10 -10 z"></path></g><g><path d="M 34.67615076402495 -39.962500000000006 l -10 10 l 0 60 l 10 -10 l 0 -60 z"></path></g><g><path d="M 64.67615076402495 -39.962500000000006 l -7.5 7.5 l 31.25 31.25 l -31.25 31.25 l 40 0 l 10 -10 l -37.6 0 l 27.5 -27.6 l -32.4 -32.4 z"></path><g><path d="M 44.67615076402495 -29.962500000000006 l 15 0 q 7 2.95 7.6 0 q 1.65 -2.7 -2.6 -10 l -10 0 l 0 -15 l -10 10 l 0 15 z"></path></g><g><path d="M 104.87615076402494 40.037499999999994 q 16 -9.8 7.5 -27.5 l -7.55 7.5 l -11.1 0 q 3.05 5.25 -1.5 10 l 5 0 l 8.8 -8.85 q 6.15 7.15 -1.15 18.85 z"></path></g><path d="M 89.99837187499998 -64.9625 l 10 -10 l -30 0 l -10 10 l 30 0 z"></path></g><g><path d="M 132.823849235975 -39.962500000000006 l -7.5 7.5 57.5 62.5 7.5 -7.5 -57.5 -62.5 z"></path><path d="M 133.97384923597497 -32.462500000000006 q 1.328 -4.078 -0.8 -6.7 l 0.8 0.35 q 19.05 9.15 23.7 -6.2 q -7.65 9.4 -17.35 -2.45 l -15 15 q 4.648 1.323 8.65 0 z"></path><path d="M 180.2238492359749 20.037499999999994 q -1.655 2.716 2.6 10 l 15 0 l 10 -10 l -20 0 q -7.015 -2.931 -7.6 0 z"></path></g><g><path d="M 227.82384923597505 -39.962500000000006 l -10 10 l 0 36.3 l 10 -10.05 l 0 33.75 l 10 -10 l 0 -36.15 l -10 10 l 0 -23.85 l 30 0 l 10 -10 l -40 0 z"></path><path d="M 252.82384923597505 -49.962500000000006 l 10 -10 l -30 0 l -10 10 l 30 0 z"></path><path d="M 252.82384923597505 50.037499999999994 l 10 -10 l -30 0 l -10 10 l 30 0 z"></path></g><g><path d="M 343.57384923597505 30.062499999999993 l 9.9 -9.95 l -47.35 -58.35 l -0.05 0 l -1.4 -1.75 l -7.5 7.5 l 42.7 52.55 l -52.05 0 l -10 10 l 65.75 0 z"></path><path d="M 308.1488492359751 47.5625 l 7.5 7.5 l 7.5 -7.5 l -7.5 -7.5 l -7.5 7.5 z"></path></g></g></g>
</svg>
