<svg xmlns="http://www.w3.org/2000/svg" viewBox="0 0 411.211572 131.35" width="411.211572" height="131.35" fill="currentColor" stroke="none">
<g transform="translate(205.605786 65.675)"><g><g><path d="M -153.1057861328125 29.325000000000003 l 7.5 -7.5 -26.9 -26.9 7.45 -7.55 -28.05 -28.05 -7.5 7.5 26.9 26.9 -7.5 7.5 28.1 28.1 z"></path><path d="M -195.6057861328125 11.825000000000003 l -10 10 l 0 25 l 10 -10 l 0 -25 z"></path><path d="M -188.1057861328125 46.825 l 7.5 7.5 l 7.5 -7.5 l -7.5 -7.5 l -7.5 7.5 z"></path></g><g><path d="M -80.60578613281251 -40.65 l -10 10 l 0 20 l -35 0 l -10 10 l 29.95 29.95 l 7.5 -7.5 l -22.45 -22.45 l 30 0 l 10 -10 l 0 -30 z"></path><g><path d="M -108.25578613281252 19.299999999999983 q -1.65 2.7 2.6 10 l 12.6 0 l -7.5 7.5 l 1.2 1.2 l 18.7 -18.7 l -20 0 q -7 -2.95 -7.6 0 z"></path></g></g><g><path d="M -42.60578613281251 2.4250000000000025 l 7.45 -7.5 27.05 34.4 7.5 -7.5 -27.8 -36 -7.75 7.8 -26.95 -34.3 -7.5 7.5 28 35.6 z"></path><path d="M -61.955786132812506 -39.525 l 15.05 0 l 10 -10 l -17.45 0 l -8.75 8.85 q -1.75 3.2 -4.85 7.2 q 5.7 0.35 6 -6.05 z"></path><path d="M -3.6557861328125227 22.925000000000004 q -1.825 3.28 -4.45 6.4 l -7.5 7.5 l -1.2 -1.2 l 7.5 -7.5 q -1.688 -4.106 -0.35 -4.55 q 1.45 -0.6 6 -0.65 z"></path></g><g><path d="M 19.39421386718749 -40.675 l -10 10 l 0 60 l 10 -10 l 0 -50 l 30 0 l 10 -10 l -40 0 z"></path><g><path d="M 19.39421386718749 36.925000000000004 l 0 -17.6 q -7.3 -5 -10 10 l 0 20 l 17.5 -17.5 l -1.2 -1.2 l -6.3 6.3 z"></path></g></g><g><path d="M 111.89421386718749 29.325000000000003 l 7.5 -7.5 l -31.25 -31.25 l 31.25 -31.25 l -40 0 l -10 10 l 37.6 0 l -27.5 27.6 l 32.4 32.4 z"></path><g><path d="M 135.59421386718748 40.675000000000004 q 0.35 -21.9 -9.85 -27.5 l -6.3 6.35 l -2 2 q -8.054 -2.82 -4.35 6.65 l 6.3 -6.35 q 10.8 2.6 16.2 18.85 z"></path></g><path d="M 94.99421386718751 -58.175 l 7.5 7.5 l 7.5 -7.5 l -7.5 -7.5 l -7.5 7.5 z"></path><path d="M 94.99421386718751 58.175 l 7.5 7.5 l 7.5 -7.5 l -7.5 -7.5 l -7.5 7.5 z"></path></g><g><path d="M 193.20578613281248 -30.674999999999997 l 0.05 0 l -7.65 7.65 l 0 17.45 l 10 -10 l 0 -15.1 l 10 -10 l -40 0 l -10 10 l 37.6 0 z"></path><path d="M 155.60578613281245 -10.674999999999997 l -10 10 l 50 0 l 10 -10 l -50 0 z"></path></g></g></g>
</svg>
