<svg xmlns="http://www.w3.org/2000/svg" viewBox="0 0 358.700911 112.5" width="358.700911" height="112.5" fill="currentColor" stroke="none">
<g transform="translate(179.350456 56.25)"><g><g><path d="M -151.35045568744002 11.85 l 7.45 -7.5 27.05 34.4 7.5 -7.5 -27.8 -36 -7.75 7.8 -26.95 -34.3 -7.5 7.5 28 35.6 z"></path><path d="M -176.85045568744002 31.25 l 0 25 l 20 -20 l -1.2 -1.2 l -8.8 8.8 l 0 -22.6 l -10 10 z"></path><path d="M -151.85045568744002 -48.75 l 7.5 7.5 l 7.5 -7.5 l -7.5 -7.5 l -7.5 7.5 z"></path></g><g><path d="M -49.35045568744002 -21.25 l 10 -10 l -50 0 l -10 10 l 0 35 l 10 -10 l 15 0 l 0 35 l 10 -10 l 0 -35 l -17.35 0 l -7.65 7.6 l 0 -22.6 l 40 0 z"></path></g><g><path d="M -19.350455687440018 -31.25 l -10 10 l 0 60 l 10 -10 l 0 -60 z"></path><g><path d="M -19.300455687440007 -28.950000000000003 l 15 0 l 10 -10 l -17.4 0 l -17.65 17.7 l 0 7.3 q 5.4 -4.35 10 -2.75 l 0 -12.25 z"></path></g><g><path d="M -29.350455687440018 23.75 l 0 15 l 10 -10 l 0 20 l 10 -9.9 l 0 -22.4 l -10 9.95 l 0 -5.15 q -5 6.1 -10 2.5 z"></path></g></g><g><path d="M 25.59954431255997 -31.275 l -9.9 9.95 l 47.35 58.35 l 0.05 0 l 1.4 1.75 l 7.5 -7.5 l -42.7 -52.55 l 52.05 0 l 10 -10 l -65.75 0 z"></path><g><path d="M 71.99954431255998 31.275000000000013 q -6.8 0.5 -7.5 7.5 l 15 15 l 15 -15 l -1.2 -1.2 l -7.5 7.5 l -13.8 -13.8 z"></path></g><path d="M 65.09954431255997 -41.275 l 10 -10 l -30 0 l -10 10 l 30 0 z"></path></g><g fill="currentColor"><path d="M 155.67500727552297 -28.75 l -1.2 -1.2 l -6.3 6.3 l 0 -27.6 l -10 10 l 0 30 l 17.5 -17.5 z"></path><path d="M 114.49954431256 -1.25 l -10 10 l 50 0 q 3.305 -3.314 6.6 -6.65 l 2.25 -2.2 q 7.703 1.262 8.9 5.75 q 1.1 4.25 -3.5 11.9 q 10.7 -7.55 10.6 -16.15 q -0.05 -8.35 -9.7 -10.15 l -7.55 7.5 l -47.6 0 z"></path></g></g></g>
</svg>
