<svg xmlns="http://www.w3.org/2000/svg" viewBox="0 0 65 172.294907" width="65" height="172.294907" fill="currentColor" stroke="none">
<g transform="translate(32.5 86.147453)"><g><g><path d="M -7.5 -43.2 l -10 10 l 0 60 l 40 0 l 10 -10 l -40 0 l 0 -60 z"></path><g><path d="M -7.5 -43.2 l -15 0 l 0 -15 l -10 10 l 0 15 l 15 0 l 0 10 q 3.85 -7.75 10 -5 l 0 -15 z"></path></g><g><path d="M 5 57 l 1.2 1.2 l 16.3 -16.3 l 0 -15.1 l 10 -10 l -18.3 0 q 4.75 2.3 -1.7 10 l 7.6 0 l 0.25 -0.2 l -7.85 7.85 l 0 15.05 l -7.5 7.5 z"></path></g></g></g></g>
</svg>
