<svg xmlns="http://www.w3.org/2000/svg" viewBox="0 0 75.65 172.294907" width="75.65" height="172.294907" fill="currentColor" stroke="none">
<g transform="translate(37.825 86.147453)"><g><g><path d="M -27.925 -36.925 l -9.9 9.95 l 47.35 58.35 l 0.05 0 l 1.4 1.75 l 7.5 -7.5 l -42.7 -52.55 l 52.05 0 l 10 -10 l -65.75 0 z"></path><g><path d="M 17.825000000000003 -36.925 q 6.368 3.408 0 10 l 10 0 l 10 -10 l 0 -15 l -10 10 l 0 5 l -10 0 z"></path></g><g><path d="M 10.975000000000001 33.125000000000014 l 7.05 -7.05 q -4.298 -1.674 -7.9 0.9 q -1.089 2.895 -0.3 4.95 l -7.5 7.55 q 16.8 -0.55 27.5 12.45 q -4.6 -18.35 -18.85 -18.8 z"></path></g></g></g></g>
</svg>
