<svg xmlns="http://www.w3.org/2000/svg" viewBox="0 0 740.95 126.375" width="740.95" height="126.375" fill="currentColor" stroke="none">
<g transform="translate(370.475 63.1875)"><g><g><path d="M -322.97499999999997 31.812499999999993 l 7.5 -7.5 -26.9 -26.9 7.45 -7.55 -28.05 -28.05 -7.5 7.5 26.9 26.9 -7.5 7.5 28.1 28.1 z"></path><path d="M -361.825 -30.687500000000007 q 1.328 -4.078 -0.8 -6.7 l 0.8 0.35 q 19.05 9.15 23.7 -6.2 q -7.65 9.4 -17.35 -2.45 l -15 15 q 4.648 1.323 8.65 0 z"></path><path d="M -325.57499999999993 21.812499999999993 q -1.655 2.716 2.6 10 l 15 0 l 10 -10 l -20 0 q -7.015 -2.931 -7.6 0 z"></path><path d="M -350.47499999999997 -55.68750000000001 l 7.5 7.5 l 7.5 -7.5 l -7.5 -7.5 l -7.5 7.5 z"></path></g><g><path d="M -247.97499999999997 1.437499999999993 l 10 -10 l -29.85 -29.85 l -7.5 7.5 l 22.35 22.35 l -20 0 l -15 15 l 25.6 25.6 l 7.5 -7.5 l -23.1 -23.1 l 30 0 z"></path></g><g><path d="M -160.52499999999998 21.812499999999993 l -34.95 0 l -10 10 l 50 0 l 10 -10 l -25 -25 l 0 -35 l -10 10 l 0 30.05 l 19.95 19.95 z"></path><g><path d="M -227.97499999999997 24.312499999999993 l 1.2 1.2 l 7.5 -7.5 l 13.8 13.8 q 8.65 -2.75 10 -10 l -5 0 l -12.5 -12.5 l -15 15 z"></path></g><path d="M -176.72499999999997 51.81249999999999 l 10 -10 l -30 0 l -10 10 l 30 0 z"></path></g><g><path d="M -110.47499999999997 -6.887500000000006 l 1.25 1.15 q 15.871 -14.121 3.75 -22.45 l 20 0 l 10 -10 l -40 0 l -10 10 q 24.307 9.097 15 21.3 z"></path><path d="M -125.47499999999997 -8.187500000000007 l -10 10 l 50 0 l 10 -10 l -50 0 z"></path></g><g><path d="M -43.07499999999999 -38.18750000000001 l -10 10 l 0 60 l 10 -10 l 0 -60 z"></path><g><path d="M -65.47499999999997 41.81249999999999 l 22.4 0 l 10 -10.1 l -19.9 0 l -0.1 0.1 l 0 -0.1 l 0.05 0 l 9.95 -9.9 l 0 -5 q -5 5.774 -10 5 l 0 7.55 l -12.4 12.4 z"></path></g></g><g><path d="M 36.325000000000045 -38.18750000000001 l -50 0 l -9.4 9.4 l 23.2 33.05 l 6.2 -6.25 l 0 33.8 l 10 -10 l 0 -36.15 l -1.1 1.1 q -2.967 2.977 -5.95 5.95 l -1.95 2 l -0.65 0.65 l -16.5 -23.5 l 36.2 0 l 10 -10 z"></path><path d="M 16.650000000000034 -48.18750000000001 l 10 -10 l -30 0 l -10 10 l 30 0 z"></path></g><g><path d="M 91.52500000000003 4.9124999999999925 l 7.45 -7.5 27.05 34.4 7.5 -7.5 -27.8 -36 -7.75 7.8 -26.95 -34.3 -7.5 7.5 28 35.6 z"></path><path d="M 68.52500000000003 -35.68750000000001 l -5 5 l -10 -10 l -7.15 7.15 l 11.3 11.2 l 7 -7.1 l 1 -1 q 3.183 1.742 3.85 0 q 0.916 -1.293 0 -6.25 z"></path><path d="M 83.52500000000003 49.31249999999999 l 7.5 7.5 l 7.5 -7.5 l -7.5 -7.5 l -7.5 7.5 z"></path></g><g><path d="M 183.52500000000003 1.437499999999993 l 10 -10 l -29.85 -29.85 l -7.5 7.5 l 22.35 22.35 l -20 0 l -15 15 l 25.6 25.6 l 7.5 -7.5 l -23.1 -23.1 l 30 0 z"></path></g><g><path d="M 227.325 -38.18750000000001 l -7.5 7.5 57.5 62.5 7.5 -7.5 -57.5 -62.5 z"></path><path d="M 227.325 -32.18750000000001 q 0.8 -1 0 -6 l -6.3 6.3 l 0 -19.95 l -17.5 17.5 l 1.2 1.2 l 6.3 -6.3 l 0 20.05 l 10 -10.1 q 4.2 0.65 6.3 -2.7 z"></path></g><g><path d="M 304.7250000000001 -38.212500000000006 l -9.9 9.95 l 47.35 58.35 l 0.05 0 l 1.4 1.75 l 7.5 -7.5 l -42.7 -52.55 l 52.05 0 l 10 -10 l -65.75 0 z"></path><g><path d="M 326.12500000000006 61.987500000000004 l 1.2 1.2 l 16.3 -16.3 l 0 -15.05 l 7.5 -7.5 q -11.45 -4.9 -8.7 6.3 l -8.8 8.9 l 0 14.95 l -7.5 7.5 z"></path></g></g></g></g>
</svg>
