<svg xmlns="http://www.w3.org/2000/svg" viewBox="0 0 57.6 172.294907" width="57.6" height="172.294907" fill="currentColor" stroke="none">
<g transform="translate(28.8 86.147453)"><g><g fill="currentColor"><path d="M 6.2499999999999964 -6.799999999999999 l -10 10 l 0 -33.85 l -10 10 l 0 36.2 l 10 -9.95 l 0 33.75 l 10 -10 l 0 -36.15 z"></path><g><path d="M -13.75 -20.65 l 0 7.3 q 4.546 -5.888 10 -3.05 l 0 -11.95 l 15.05 0 l 17.5 -17.5 l -1.2 -1.2 l -8.7 8.7 l -15 0 l -17.65 17.7 z"></path></g><g><path d="M -3.8000000000000007 37.050000000000004 l -15 0 l -10 10 l 17.4 0 l 17.65 -17.7 l 0 -7.3 q -5.4 4.35 -10 2.75 l 0 12.25 z"></path></g></g></g></g>
</svg>
