<svg xmlns="http://www.w3.org/2000/svg" viewBox="0 0 79.9 172.294907" width="79.9" height="172.294907" fill="currentColor" stroke="none">
<g transform="translate(39.95 86.147453)"><g><g fill="currentColor"><path d="M -12.800000000000004 -58.025 l -10 10 l 0 40 l 9.55 -9.55 l 20.65 29.4 l 7.5 -7.5 l -21.6 -30.85 l -6.1 6.1 l 0 -37.6 z"></path><g><path d="M -22.450000000000003 -45.925000000000004 q 0.375 -0.363 1.15 -1.15 q 6.261 -1.099 8.5 3.8 l 0 -14.75 l -10 10 l -10 -10 l -7.15 7.15 l 11.3 11.2 l 5.85 -5.9 q 0.04 -0.029 0.35 -0.35 z"></path></g><g><path d="M 14.899999999999999 4.324999999999989 l 12.65 0 l -7.5 7.5 l 1.2 1.2 l 18.7 -18.7 l -17.45 0 l -8.75 8.8 q -6.9 -0.2 -3.8 6.15 l 4.95 -4.95 z"></path></g><path d="M 10 48.025 l 0 -25 l -20 20 l 1.2 1.2 l 8.8 -8.8 l 0 22.6 l 10 -10 z"></path></g></g></g>
</svg>
