<svg xmlns="http://www.w3.org/2000/svg" viewBox="0 0 424.45 154.5" width="424.45" height="154.5" fill="currentColor" stroke="none">
<g transform="translate(212.225 77.25)"><g><g><path d="M -184.225 -0.4750000000000032 l 7.45 -7.5 27.05 34.4 7.5 -7.5 -27.8 -36 -7.75 7.8 -26.95 -34.3 -7.5 7.5 28 35.6 z"></path><path d="M -152.325 16.424999999999997 q -1.65 2.7 2.6 10 l 12.6 0 l -7.5 7.5 l 1.2 1.2 l 18.7 -18.7 l -20 0 q -7 -2.95 -7.6 0 z"></path><path d="M -192.225 43.925 l 7.5 7.5 l 7.5 -7.5 l -7.5 -7.5 l -7.5 7.5 z"></path></g><g><path d="M -49.07500000000002 -33.5 l 10 -10 l -65.75 0 l -9.9 9.95 l 30.45 37.55 l 7.25 -7.3 l 24.15 29.65 l 7.45 -7.4 l -25.2 -31.05 l -7.5 7.45 l -23.1 -28.85 l 52.15 0 z"></path><g><path d="M -45.375 18.849999999999994 q -6.8 0.5 -7.5 7.5 l 15 15 l 15 -15 l -1.2 -1.2 l -7.5 7.5 l -13.8 -13.8 z"></path></g></g><g><path d="M 10.924999999999983 -43.575 l -7.5 7.5 57.5 62.5 7.5 -7.5 -57.5 -62.5 z"></path><path d="M 10.924999999999983 -37.575 q 0.8 -1 0 -6 l -6.3 6.3 l 0 -19.95 l -17.5 17.5 l 1.2 1.2 l 6.3 -6.3 l 0 20.05 l 10 -10.1 q 4.2 0.65 6.3 -2.7 z"></path><path d="M 28.424999999999983 -61.075 l 7.5 7.5 l 7.5 -7.5 l -7.5 -7.5 l -7.5 7.5 z"></path></g><g><path d="M 118.42499999999998 -3.950000000000003 l 10 -10 l -29.85 -29.85 l -7.5 7.5 l 22.35 22.35 l -20 0 l -15 15 l 25.6 25.6 l 7.5 -7.5 l -23.1 -23.1 l 30 0 z"></path><path d="M 95.92499999999998 -61.300000000000004 l 7.5 7.5 l 7.5 -7.5 l -7.5 -7.5 l -7.5 7.5 z"></path></g><g><path d="M 157.225 26.4 l 10 -10 l 0 -20 l 35 0 l 10 -10 l -29.95 -29.95 l -7.5 7.5 l 22.45 22.45 l -30 0 l -10 10 l 0 30 z"></path><g><path d="M 184.87499999999997 -33.55 q 1.65 -2.7 -2.6 -10 l -12.6 0 l 7.5 -7.5 l -1.2 -1.2 l -18.7 18.7 l 20 0 q 7 2.95 7.6 0 z"></path></g><g><path d="M 167.225 16.400000000000006 l 0 -5 q -6.25 9 -10 5 l 0 7.6 l -11.8 -11.7 l -7 7 l 12.95 12.95 l 15.85 -15.85 z"></path></g><path d="M 167.82500000000002 -69.75 l 7.5 7.5 l 7.5 -7.5 l -7.5 -7.5 l -7.5 7.5 z"></path><path d="M 165.32500000000002 52.25 l 0 25 l 20 -20 l -1.2 -1.2 l -8.8 8.8 l 0 -22.6 l -10 10 z"></path></g></g></g>
</svg>
