<svg xmlns="http://www.w3.org/2000/svg" viewBox="0 0 65.1 172.294907" width="65.1" height="172.294907" fill="currentColor" stroke="none">
<g transform="translate(32.55 86.147453)"><g><g><path d="M -22.549999999999997 -38.8 l -10 10 l 0 36.3 l 10 -10.05 l 0 33.75 l 10 -10 l 0 -36.15 l -10 10 l 0 -23.85 l 30 0 l 10 -10 l -40 0 z"></path><g><path d="M 2.450000000000003 -28.799999999999997 l 5 0 l 7.6 -7.65 l 0 20 l 10 -9.9 l 0 -0.1 l 7.5 -7.5 l -1.2 -1.2 l -6.3 6.3 l 0 -19.95 l -10 10 l -12.6 0 q 3.5 4 0 10 z"></path></g><g><path d="M -22.549999999999997 28.800000000000004 l -7.5 7.55 q 16.8 -0.55 27.5 12.45 q -4.6 -18.35 -18.85 -18.8 l 8.85 -8.8 l 0 -5 q -4.75 4.55 -10 1.5 l 0 11.1 z"></path></g></g></g></g>
</svg>
