<svg xmlns="http://www.w3.org/2000/svg" viewBox="0 0 252 110.025" width="252" height="110.025" fill="currentColor" stroke="none">
<g transform="translate(126 55.0125)"><g><g><path d="M -109.70000000000002 -35.0125 l -7.5 7.5 57.5 62.5 7.5 -7.5 -57.5 -62.5 z"></path><path d="M -116.00000000000001 -26.312500000000004 q 4.2 0.65 6.3 -2.7 q 0.8 -1 0 -6 l -6.3 6.3 l 0 -19.95 l -10 10.1 l 0 22.35 l 10 -10.1 z"></path><path d="M -74.70000000000002 -45.0125 l 10 -10 l -30 0 l -10 10 l 30 0 z"></path></g><g><path d="M 0.3499999999999801 -35.0125 l -10 10 l 0 60 l 10 -10 l 0 -50 l 30 0 l 10 -10 l -40 0 z"></path><g><path d="M 0.3499999999999801 24.987499999999997 l 0 -7.3 q -4.546 5.888 -10 3.05 l 0 11.95 l -15.05 0 l -17.5 17.5 l 1.2 1.2 l 8.7 -8.7 l 15 0 l 17.65 -17.7 z"></path></g></g><g><path d="M 116.10000000000001 35.012499999999996 l 9.9 -9.95 l -47.35 -58.35 l -0.05 0 l -1.4 -1.75 l -7.5 7.5 l 42.7 52.55 l -52.05 0 l -10 10 l 65.75 0 z"></path><g><path d="M 72.74999999999999 -28.63750000000001 q 1.825 -3.28 4.45 -6.4 l 7.5 -7.5 l 1.2 1.2 l -7.5 7.5 q 1.688 4.106 0.35 4.55 q -1.45 0.6 -6 0.65 z"></path></g><g><path d="M 77.85000000000001 -5.1875 l -1.2 -1.2 l -16.3 16.3 l 0 15.1 l -10 10 l 18.3 0 q -4.75 -2.3 1.7 -10 l -7.6 0 l -0.25 0.2 l 7.85 -7.85 l 0 -15.05 l 7.5 -7.5 z"></path></g><path d="M 98.175 55.0125 l 10 -10 l -30 0 l -10 10 l 30 0 z"></path></g></g></g>
</svg>
