<svg xmlns="http://www.w3.org/2000/svg" viewBox="0 0 271.9 104.9" width="271.9" height="104.9" fill="currentColor" stroke="none">
<g transform="translate(135.95 52.45)"><g><g><path d="M -83.44999999999999 37.525000000000006 l 7.5 -7.5 -26.9 -26.9 7.45 -7.55 -28.05 -28.05 -7.5 7.5 26.9 26.9 -7.5 7.5 28.1 28.1 z"></path><path d="M -135.95 17.525000000000006 l 20 20 l 7.5 -7.5 l -20 -20 l -7.5 7.5 z"></path></g><g><path d="M -0.30000000000001137 -22.399999999999995 l 10 -10 l -65.75 0 l -9.9 9.95 l 30.45 37.55 l 7.25 -7.3 l 24.15 29.65 l 7.45 -7.4 l -25.2 -31.05 l -7.5 7.45 l -23.1 -28.85 l 52.15 0 z"></path><g><path d="M 3.4000000000000057 29.950000000000003 q -6.8 0.5 -7.5 7.5 l 15 15 l 15 -15 l -1.2 -1.2 l -7.5 7.5 l -13.8 -13.8 z"></path></g></g><g><path d="M 45.900000000000006 -32.474999999999994 l -10 10 l 0 60 l 10 -10 l 0 -60 z"></path><g><path d="M 45.95000000000002 -30.174999999999997 l 15 0 l 10 -10 l -17.4 0 l -17.65 17.7 l 0 7.3 q 5.4 -4.35 10 -2.75 l 0 -12.25 z"></path></g></g><g><path d="M 135.95 -32.449999999999996 l -10 10 l 0 20 l -35 0 l -10 10 l 29.95 29.95 l 7.5 -7.5 l -22.45 -22.45 l 30 0 l 10 -10 l 0 -30 z"></path><path d="M 118.45000000000002 -42.45 l 10 -10 l -30 0 l -10 10 l 30 0 z"></path></g></g></g>
</svg>
