<svg xmlns="http://www.w3.org/2000/svg" viewBox="0 0 150.65 135.025" width="150.65" height="135.025" fill="currentColor" stroke="none">
<g transform="translate(75.325 67.5125)"><g><g><path d="M -67.825 -47.5125 l -7.5 7.5 57.5 62.5 7.5 -7.5 -57.5 -62.5 z"></path><path d="M -65.325 4.987499999999997 l -10 10 l 0 25 l 10 -10 l 0 -25 z"></path><path d="M -32.825 -57.5125 l 10 -10 l -30 0 l -10 10 l 30 0 z"></path></g><g><path d="M 9.575000000000003 -47.5375 l -9.9 9.95 l 47.35 58.35 l 0.05 0 l 1.4 1.75 l 7.5 -7.5 l -42.7 -52.55 l 52.05 0 l 10 -10 l -65.75 0 z"></path><g><path d="M 63.47500000000001 37.51250000000001 l 7.5 -7.5 l -15 -15 q -6.8 0.5 -7.5 7.5 l 15 15 z"></path></g><path d="M 29.89999999999999 57.5125 l 8.8 -8.8 l -1.2 -1.2 l -20 20 l 30 0 l 10 -10 l -27.6 0 z"></path></g></g></g>
</svg>
