<svg xmlns="http://www.w3.org/2000/svg" viewBox="0 0 517.8 145.05" width="517.8" height="145.05" fill="currentColor" stroke="none">
<g transform="translate(258.9 72.525)"><g><g><path d="M -251.39999999999998 -32.5 l -7.5 7.5 57.5 62.5 7.5 -7.5 -57.5 -62.5 z"></path><path d="M -223.89999999999998 57.5 l 10 -10 l -30 0 l -10 10 l 30 0 z"></path></g><g><path d="M -173.89999999999998 -32.5 l -10 10 l 0 36.3 l 10 -10.05 l 0 33.75 l 10 -10 l 0 -36.15 l -10 10 l 0 -23.85 l 30 0 l 10 -10 l -40 0 z"></path><g><path d="M -128.74999999999997 -40 l -7.5 7.5 l -11.1 0 q 3.05 5.25 -1.5 10 l 5 0 l 8.8 -8.85 q 0.445 14.232 18.8 18.85 q -12.993 -10.704 -12.45 -27.5 z"></path></g><g><path d="M -143.89999999999998 37.5 l -15 0 l 10 -10 l -15 0 l 0 -10 q -3.85 7.75 -10 5 l 0 15 l 12.55 0 l -9.95 10 l 17.4 0 l 10 -10 z"></path></g></g><g><path d="M -96.34999999999997 -32.525 l -9.9 9.95 l 47.35 58.35 l 0.05 0 l 1.4 1.75 l 7.5 -7.5 l -42.7 -52.55 l 52.05 0 l 10 -10 l -65.75 0 z"></path><path d="M -58.424999999999955 57.52500000000001 l 10 -10 l -30 0 l -10 10 l 30 0 z"></path></g><g><path d="M -4.2999999999999545 -32.5 l -7.5 7.5 57.5 62.5 7.5 -7.5 -57.5 -62.5 z"></path><path d="M -10.599999999999966 -43.65 l 7.5 -7.5 l -1.2 -1.2 l -16.3 16.3 l 0 22.35 l 10 -10.1 q 4.2 0.65 6.3 -2.7 q 0.8 -1 0 -6 l -6.3 6.3 l 0 -17.45 z"></path><path d="M 48.30000000000007 -22.5 l -8.8 8.8 l 1.2 1.2 l 20 -20 l -30 0 l -10 10 l 27.6 0 z"></path><path d="M 30.700000000000045 -42.5 l 10 -10 l -30 0 l -10 10 l 30 0 z"></path></g><g><path d="M 81.85000000000002 -32.425 l -10 10 l 0 40 l 9.55 -9.55 l 20.65 29.4 l 7.5 -7.5 l -21.6 -30.85 l -6.1 6.1 l 0 -37.6 z"></path><path d="M 83.10000000000002 57.42499999999999 l 8.8 -8.8 l -1.2 -1.2 l -20 20 l 30 0 l 10 -10 l -27.6 0 z"></path></g><g><path d="M 211.50000000000006 37.525 l 9.9 -9.95 l -47.35 -58.35 l -0.05 0 l -1.4 -1.75 l -7.5 7.5 l 42.7 52.55 l -52.05 0 l -10 10 l 65.75 0 z"></path><g><path d="M 165.10000000000002 -25.025000000000006 q 6.8 -0.5 7.5 -7.5 l -15 -15 l -15 15 l 1.2 1.2 l 7.5 -7.5 l 13.8 13.8 z"></path></g><g><path d="M 145.75000000000006 37.525000000000006 l -15.05 0 l -10 10 l 17.45 0 l 9.95 -10 l 7.6 0 q -4.95 -4.2 6.25 -10 l -6.25 0 l -9.95 10 z"></path></g><path d="M 163.55000000000007 -65.025 l 7.5 7.5 l 7.5 -7.5 l -7.5 -7.5 l -7.5 7.5 z"></path><path d="M 163.55000000000007 65.025 l 7.5 7.5 l 7.5 -7.5 l -7.5 -7.5 l -7.5 7.5 z"></path></g><g><path d="M 251.40000000000003 -8.65 l -10 10 l 0 -33.85 l -10 10 l 0 36.2 l 10 -9.95 l 0 33.75 l 10 -10 l 0 -36.15 z"></path><g><path d="M 251.40000000000003 45.1 l 0 -17.6 q -7.3 -5 -10 10 l 0 20 l 17.5 -17.5 l -1.2 -1.2 l -6.3 6.3 z"></path></g></g></g></g>
</svg>
