<svg xmlns="http://www.w3.org/2000/svg" viewBox="0 0 148.8 95.025" width="148.8" height="95.025" fill="currentColor" stroke="none">
<g transform="translate(74.4 47.5125)"><g><g><path d="M -21.900000000000006 22.512499999999996 l 7.5 -7.5 -26.9 -26.9 7.45 -7.55 -28.05 -28.05 -7.5 7.5 26.9 26.9 -7.5 7.5 28.1 28.1 z"></path><path d="M -74.4 2.5124999999999957 l 20 20 l 7.5 -7.5 l -20 -20 l -7.5 7.5 z"></path><path d="M -56.900000000000006 40.012499999999996 l 7.5 7.5 l 7.5 -7.5 l -7.5 -7.5 l -7.5 7.5 z"></path></g><g><path d="M 5.5 -47.5125 l -9.9 9.95 l 47.35 58.35 l 0.05 0 l 1.4 1.75 l 7.5 -7.5 l -42.7 -52.55 l 52.05 0 l 10 -10 l -65.75 0 z"></path><g><path d="M 51.900000000000006 15.037500000000009 q -6.8 0.5 -7.5 7.5 l 15 15 l 15 -15 l -1.2 -1.2 l -7.5 7.5 l -13.8 -13.8 z"></path></g></g></g></g>
</svg>
