<svg xmlns="http://www.w3.org/2000/svg" viewBox="0 0 216.15 99.975" width="216.15" height="99.975" fill="currentColor" stroke="none">
<g transform="translate(108.075 49.9875)"><g><g><path d="M -100.575 -40.012499999999996 l -7.5 7.5 57.5 62.5 7.5 -7.5 -57.5 -62.5 z"></path><path d="M -73.075 49.987500000000004 l 10 -10 l -30 0 l -10 10 l 30 0 z"></path></g><g><path d="M 21.924999999999997 -39.9875 l -10 10 l 0 20 l -35 0 l -10 10 l 29.95 29.95 l 7.5 -7.5 l -22.45 -22.45 l 30 0 l 10 -10 l 0 -30 z"></path><g><path d="M 34.325 -49.987500000000004 l -22.4 0 l -10 10.1 l 19.9 0 l 0.1 -0.1 l 0 0.1 l -0.05 0 l -9.95 9.9 l 0 5 q 5 -5.774 10 -5 l 0 -7.55 l 12.4 -12.4 z"></path></g><g><path d="M 20.575000000000003 41.312499999999986 q 0.35 -21.9 -9.85 -27.5 l -6.3 6.35 l -2 2 q -8.054 -2.82 -4.35 6.65 l 6.3 -6.35 q 10.8 2.6 16.2 18.85 z"></path></g></g><g><path d="M 50.575 -30.012499999999996 q 24.3 9.1 15 21.3 l 1.25 1.15 q 15.85 -14.1 3.75 -22.45 l 20 0 l 17.5 -17.5 l -1.2 -1.2 l -8.7 8.7 l -37.6 0 l -10 10 z"></path><path d="M 54.325 -10.012499999999996 l -10 10 l 50 0 l 10 -10 l -50 0 z"></path></g></g></g>
</svg>
