<svg xmlns="http://www.w3.org/2000/svg" viewBox="0 0 225.7 115.125" width="225.7" height="115.125" fill="currentColor" stroke="none">
<g transform="translate(112.85 57.5625)"><g><g><path d="M -102.85 -28.8375 l -10 10 l 0 60 l 10 -10 l 0 -60 z"></path><g><path d="M -112.85 26.1625 l 0 15 l 10 -10 l 0 20 l 10 -9.9 l 0 -22.4 l -10 9.95 l 0 -5.15 q -5 6.1 -10 2.5 z"></path></g></g><g><path d="M -72.94999999999999 -28.862499999999997 l -9.9 9.95 l 47.35 58.35 l 0.05 0 l 1.4 1.75 l 7.5 -7.5 l -42.7 -52.55 l 52.05 0 l 10 -10 l -65.75 0 z"></path><g><path d="M -27.19999999999999 -18.862499999999997 l 10 0 l 17.5 -17.5 l -1.2 -1.2 l -8.7 8.7 l -7.6 0 q 0.83 5.4 -10 10 z"></path></g><g><path d="M -14.049999999999983 31.187500000000014 l -15 0 q -7 -2.95 -7.6 0 q -1.65 2.7 2.6 10 l 10 0 l 0 15 l 10 -10 l 0 -15 z"></path></g><path d="M -31.27499999999999 -47.5625 l 10 -10 l -30 0 l -10 10 l 30 0 z"></path></g><g><path d="M 20.30000000000001 -28.8375 l -10 10 l 0 60 l 10 -10 l 0 -60 z"></path></g><g><path d="M 72.85 -28.8375 l -10 10 l 0 60 l 10 -10 l 0 -50 l 30 0 l 10 -10 l -40 0 z"></path><g><path d="M 72.85 31.1625 l 0 -7.3 q -4.546 5.888 -10 3.05 l 0 11.95 l -15.05 0 l -17.5 17.5 l 1.2 1.2 l 8.7 -8.7 l 15 0 l 17.65 -17.7 z"></path></g><path d="M 81.57499999999999 -38.8375 l 10 -10 l -30 0 l -10 10 l 30 0 z"></path></g></g></g>
</svg>
