<svg xmlns="http://www.w3.org/2000/svg" viewBox="0 0 399.95 150.25" width="399.95" height="150.25" fill="currentColor" stroke="none">
<g transform="translate(199.975 75.125)"><g><g><path d="M -171.975 -11.799999999999999 l 7.45 -7.5 27.05 34.4 7.5 -7.5 -27.8 -36 -7.75 7.8 -26.95 -34.3 -7.5 7.5 28 35.6 z"></path></g><g><path d="M -67.57499999999999 -15.274999999999999 l 10 -10 l -29.85 -29.85 l -7.5 7.5 l 22.35 22.35 l -20 0 l -15 15 l 25.6 25.6 l 7.5 -7.5 l -23.1 -23.1 l 30 0 z"></path><g><path d="M -94.92499999999998 -47.625 l -15.05 0 l -10 10 l 17.45 0 l 8.75 -8.8 q 6.9 0.2 3.8 -6.15 l -4.95 4.95 z"></path></g><g><path d="M -83.12499999999999 14.175000000000004 l -15.05 0 l -10 10 l 17.45 0 l 8.75 -8.85 q 1.75 -3.2 4.85 -7.2 q -5.7 -0.35 -6 6.05 z"></path></g><path d="M -78.77499999999999 44.17500000000002 l 10 -10 l -30 0 l -10 10 l 30 0 z"></path></g><g><path d="M -37.67499999999998 -54.925 l -9.9 9.95 l 47.35 58.35 l 0.05 0 l 1.4 1.75 l 7.5 -7.5 l -42.7 -52.55 l 52.05 0 l 10 -10 l -65.75 0 z"></path><g><path d="M 8.725000000000023 7.625000000000014 q -6.8 0.5 -7.5 7.5 l 15 15 l 15 -15 l -1.2 -1.2 l -7.5 7.5 l -13.8 -13.8 z"></path></g><path d="M 1.825000000000017 65.125 l 0 -25 l -20 20 l 1.2 1.2 l 8.8 -8.8 l 0 22.6 l 10 -10 z"></path></g><g><path d="M 84.97500000000005 -64.9 l -7.5 7.5 l 12.5 12.5 l -25 0 l -17.5 17.5 l 1.2 1.2 l 8.7 -8.7 l 37.6 0 l 10 -10 l -20 -20 z"></path><path d="M 51.22500000000002 -24.9 l -10 10 l 50 0 l 10 -10 l -50 0 z"></path></g><g><path d="M 124.975 -54.9 l -10 10 l 0 60 l 10 -10 l 0 -60 z"></path><g><path d="M 114.975 0.10000000000000142 l 0 15 l 15 0 l 10 -10 l -15 0 l 0 -10 q -3.874 7.753 -10 5 z"></path></g></g><g><path d="M 189.975 -15.274999999999999 l 10 -10 l -29.85 -29.85 l -7.5 7.5 l 22.35 22.35 l -20 0 l -15 15 l 25.6 25.6 l 7.5 -7.5 l -23.1 -23.1 l 30 0 z"></path><path d="M 184.975 -65.125 l 10 -10 l -30 0 l -10 10 l 30 0 z"></path></g></g></g>
</svg>
