<svg xmlns="http://www.w3.org/2000/svg" viewBox="0 0 447.6 115.025" width="447.6" height="115.025" fill="currentColor" stroke="none">
<g transform="translate(223.8 57.5125)"><g><g><path d="M -216.3 -32.4875 l -7.5 7.5 57.5 62.5 7.5 -7.5 -57.5 -62.5 z"></path></g><g><path d="M -83.05000000000001 37.5375 l 9.9 -9.95 l -47.35 -58.35 l -0.05 0 l -1.4 -1.75 l -7.5 7.5 l 42.7 52.55 l -52.05 0 l -10 10 l 65.75 0 z"></path><path d="M -118.47500000000002 -50.0125 l 7.5 7.5 l 7.5 -7.5 l -7.5 -7.5 l -7.5 7.5 z"></path></g><g><path d="M -0.6500000000000341 37.5125 l 10 -10 l 0 -36.3 l -10 10.05 l 0 -33.75 l -10 10 l 0 36.15 l 10 -10 l 0 23.85 l -30 0 l -10 10 l 40 0 z"></path><g><path d="M -63.150000000000034 30.012500000000003 l 1.2 1.2 l 7.5 -7.5 l 13.8 13.8 q 8.65 -2.75 10 -10 l -5 0 l -12.5 -12.5 l -15 15 z"></path></g><path d="M -16.900000000000034 57.5125 l 10 -10 l -30 0 l -10 10 l 30 0 z"></path></g><g><path d="M 29.349999999999966 -32.4875 l -10 10 l 0 60 l 10 -10 l 0 -60 z"></path></g><g><path d="M 49.349999999999966 -32.4875 l -10 10 l 0 60 l 10 -10 l 0 -60 z"></path><g><path d="M 39.349999999999966 22.512500000000003 l 0 15 l 10 -10 l 0 20 l 10 -9.9 l 0 -22.4 l -10 9.95 l 0 -5.15 q -5 6.1 -10 2.5 z"></path></g></g><g><path d="M 76.84999999999997 -32.4875 l -7.5 7.5 l 31.25 31.25 l -31.25 31.25 l 40 0 l 10 -10 l -37.6 0 l 27.5 -27.6 l -32.4 -32.4 z"></path><path d="M 104.34999999999997 -42.4875 l 10 -10 l -30 0 l -10 10 l 30 0 z"></path></g><g><path d="M 139.34999999999997 -32.4875 l -10 10 l 0 60 l 10 -10 l 0 -60 z"></path><g><path d="M 129.34999999999997 22.512500000000003 l 0 15 l 15 0 l 10 -10 l -15 0 l 0 -10 q -3.874 7.753 -10 5 z"></path></g></g><g><path d="M 223.75 -32.4875 l -50 0 l -9.4 9.4 l 23.2 33.05 l 6.2 -6.25 l 0 33.8 l 10 -10 l 0 -36.15 l -1.1 1.1 q -2.967 2.977 -5.95 5.95 l -1.95 2 l -0.65 0.65 l -16.5 -23.5 l 36.2 0 l 10 -10 z"></path><path d="M 204.075 -42.4875 l 10 -10 l -30 0 l -10 10 l 30 0 z"></path></g></g></g>
</svg>
