<svg xmlns="http://www.w3.org/2000/svg" viewBox="0 0 285.85 139.925" width="285.85" height="139.925" fill="currentColor" stroke="none">
<g transform="translate(142.925 69.9625)"><g><g><path d="M -114.92499999999998 -1.9375000000000089 l 7.45 -7.5 27.05 34.4 7.5 -7.5 -27.8 -36 -7.75 7.8 -26.95 -34.3 -7.5 7.5 28 35.6 z"></path><path d="M -134.27499999999998 -43.88750000000001 l 15.05 0 l 10 -10 l -17.45 0 l -8.75 8.85 q -1.75 3.2 -4.85 7.2 q 5.7 0.35 6 -6.05 z"></path><path d="M -80.32499999999999 -35.03750000000001 l -8.8 8.8 l 1.2 1.2 l 20 -20 l -30 0 l -10 10 l 27.6 0 z"></path></g><g><path d="M 7.724999999999994 -34.962500000000006 l 10 -10 l -65.75 0 l -9.9 9.95 l 30.45 37.55 l 7.25 -7.3 l 24.15 29.65 l 7.45 -7.4 l -25.2 -31.05 l -7.5 7.45 l -23.1 -28.85 l 52.15 0 z"></path></g><g><path d="M 55.42499999999998 24.88749999999999 l 10 -10 l 0 -40 l -9.55 9.55 l -20.65 -29.4 l -7.5 7.5 l 21.6 30.85 l 6.1 -6.1 l 0 37.6 z"></path><g><path d="M 55.42499999999998 24.88749999999999 l 0 -0.1 l 0.05 0 l 9.95 -9.9 l 0 -5 q -5 5.75 -10 5 l 0 7.55 l -12.4 12.45 l 22.4 0 l 17.5 -17.5 l -1.2 -1.2 l -8.6 8.6 l -17.6 0 l -0.1 0.1 z"></path></g><path d="M 47.82499999999999 -62.462500000000006 l 7.5 7.5 l 7.5 -7.5 l -7.5 -7.5 l -7.5 7.5 z"></path><path d="M 47.82499999999999 52.38749999999999 l 7.5 7.5 l 7.5 -7.5 l -7.5 -7.5 l -7.5 7.5 z"></path></g><g><path d="M 132.92499999999998 24.96249999999999 l 10 -10 l 0 -60 l -10 10 l 0 50 l -30 0 l -10 10 l 40 0 z"></path><path d="M 127.92499999999998 -55.03750000000001 l 10 -10 l -30 0 l -10 10 l 30 0 z"></path><path d="M 107.92499999999998 44.96249999999999 l 0 25 l 20 -20 l -1.2 -1.2 l -8.8 8.8 l 0 -22.6 l -10 10 z"></path></g></g></g>
</svg>
