<svg xmlns="http://www.w3.org/2000/svg" viewBox="0 0 554.05 140.05" width="554.05" height="140.05" fill="currentColor" stroke="none">
<g transform="translate(277.025 70.025)"><g><g><path d="M -267.025 -35 l -10 10 l 0 60 l 10 -10 l 0 -60 z"></path><g><path d="M -266.97499999999997 -32.7 l 15 0 l 10 -10 l -17.4 0 l -17.65 17.7 l 0 7.3 q 5.4 -4.35 10 -2.75 l 0 -12.25 z"></path></g><g><path d="M -277.025 20 l 0 15 l 10 -10 l 0 20 l 10 -9.9 l 0 -22.4 l -10 9.95 l 0 -5.15 q -5 6.1 -10 2.5 z"></path></g></g><g><path d="M -166.325 -24.925 l 10 -10 l -65.75 0 l -9.9 9.95 l 30.45 37.55 l 7.25 -7.3 l 24.15 29.65 l 7.45 -7.4 l -25.2 -31.05 l -7.5 7.45 l -23.1 -28.85 l 52.15 0 z"></path><path d="M -184.14999999999998 -44.925 l 10 -10 l -30 0 l -10 10 l 30 0 z"></path></g><g><path d="M -126.32499999999999 -35 l -10 10 l 0 60 l 10 -10 l 0 -60 z"></path><g><path d="M -126.32499999999999 -20 l 0 -15 l -10 10 l 0 -20 l -10 9.9 l 0 22.4 l 10 -9.95 l 0 5.15 q 5 -6.1 10 -2.5 z"></path></g><g><path d="M -126.32499999999999 25 l 15 0 l 10 -10 l -17.45 0 l -7.6 7.6 l 0.05 -5.05 q -4.6 6.3 -10 4 l 0 13.45 l 9.95 -10 z"></path></g></g><g><path d="M -81.42500000000001 -35.025 l -9.9 9.95 l 47.35 58.35 l 0.05 0 l 1.4 1.75 l 7.5 -7.5 l -42.7 -52.55 l 52.05 0 l 10 -10 l -65.75 0 z"></path><g><path d="M -35.67500000000001 -35.025 q 6.368 3.408 0 10 l 10 0 l 10 -10 l 0 -15 l -10 10 l 0 5 l -10 0 z"></path></g><g><path d="M -41.42500000000001 31.975000000000012 q 3.28 -1.825 6.4 -4.45 l 7.5 -7.5 l -1.2 -1.2 l -7.5 7.5 q -4.106 -1.688 -4.55 -0.35 q -0.6 1.45 -0.65 6 z"></path></g><path d="M -43.5 -60.025 l 10 -10 l -30 0 l -10 10 l 30 0 z"></path></g><g><path d="M 1.8249999999999886 -35 l -7.5 7.5 57.5 62.5 7.5 -7.5 -57.5 -62.5 z"></path></g><g><path d="M 86.82499999999999 -25.05 l 0 25 l -8.45 8.45 l 26.7 26.65 l 7.5 -7.5 l -25.5 -25.5 l 9.75 -9.7 l 0 -27.4 l -10 10 z"></path><g><path d="M 96.82499999999999 -35.05 l 0 0.1 l -0.05 0 l -9.95 9.9 l 0 5 q 5 -5.75 10 -5 l 0 -7.55 l 12.4 -12.45 l -22.4 0 l -17.5 17.5 l 1.2 1.2 l 8.6 -8.6 l 17.6 0 l 0.1 -0.1 z"></path></g><g><path d="M 111.37499999999994 46.199999999999996 l -7.5 7.5 l 1.2 1.2 l 16.3 -16.3 l 0 -22.35 l -10 10.1 q -4.2 -0.65 -6.3 2.7 q -0.8 1 0 6 l 6.3 -6.3 l 0 17.45 z"></path></g></g><g><path d="M 141.27499999999992 -35.025 l -9.9 9.95 l 47.35 58.35 l 0.05 0 l 1.4 1.75 l 7.5 -7.5 l -42.7 -52.55 l 52.05 0 l 10 -10 l -65.75 0 z"></path><g><path d="M 195.17499999999995 50.02500000000001 l 7.5 -7.5 l -15 -15 q -6.8 0.5 -7.5 7.5 l 15 15 z"></path></g><path d="M 179.19999999999993 70.025 l 10 -10 l -30 0 l -10 10 l 30 0 z"></path></g><g><path d="M 228.64999999999998 -33.8 l 7.35 -7.35 l 20.6 26.15 l 10 0 l 10 -10 l -14.55 0 l -19.6 -25 l -15 15 l 1.2 1.2 z"></path><path d="M 227.02499999999998 -5 l -10 10 l 50 0 l 10 -10 l -50 0 z"></path></g></g></g>
</svg>
