<svg xmlns="http://www.w3.org/2000/svg" viewBox="0 0 48.7 172.294907" width="48.7" height="172.294907" fill="currentColor" stroke="none">
<g transform="translate(24.35 86.160475)"><g><g><path d="M 16.85 -10.683337833492503 l -10 10 l 0 -33.85 l -10 10 l 0 36.2 l 10 -9.95 l 0 33.75 l 10 -10 l 0 -36.15 z"></path><g><path d="M 6.849999999999998 -18.883337833492504 l 0 -15.65 l -10 10 q -9.4 -17.75 -21.2 -6.85 q 12.25 -2.15 14.85 15.5 l 6.35 -6.3 l 0 8.1 q 4.8 -9.5 10 -4.8 z"></path></g><g><path d="M 16.85 14.266662166507498 q -5 12.14 -10 11.2 l 0 10 l 17.5 -17.5 l -1.2 -1.2 l -6.3 6.3 l 0 -8.8 z"></path></g></g></g></g>
</svg>
