<svg xmlns="http://www.w3.org/2000/svg" viewBox="0 0 40.933324 172.294907" width="40.933324" height="172.294907" fill="currentColor" stroke="none">
<g transform="translate(20.466662 86.147453)"><g><g><path d="M 19.533337833492503 -58.1 l -10 10 l 0 20 l -20 0 l -10 10 l 0 30 l 30 0 l 10 -10 l -30 0 l 0 -20 l 20 0 l 10 -10 l 0 -30 z"></path><g><path d="M 3.8833378334925044 1.8999999999999986 l 15.65 0 l -10 10 q 17.75 9.4 6.85 21.2 q 2.15 -12.25 -15.5 -14.85 l 6.3 -6.35 l -8.1 0 q 9.5 -4.8 4.8 -10 z"></path></g><path d="M -7.4999999999999964 50.6 l 7.5 7.5 l 7.5 -7.5 l -7.5 -7.5 l -7.5 7.5 z"></path></g></g></g>
</svg>
