<svg xmlns="http://www.w3.org/2000/svg" viewBox="0 0 267.9 110" width="267.9" height="110" fill="currentColor" stroke="none">
<g transform="translate(133.95 55)"><g><g><path d="M -123.94999999999999 -35 l -10 10 l 0 60 l 10 -10 l 0 -60 z"></path><g><path d="M -133.95 20 l 0 15 l 15 0 l 10 -10 l -15 0 l 0 -10 q -3.874 7.753 -10 5 z"></path></g></g><g><path d="M -56.39999999999999 -35 l -10 10 l 0 60 l 10 -10 l 0 -50 l 30 0 l 10 -10 l -40 0 z"></path><g><path d="M -56.39999999999999 25 l 0 -7.3 q -4.546 5.888 -10 3.05 l 0 11.95 l -15.05 0 l -17.5 17.5 l 1.2 1.2 l 8.7 -8.7 l 15 0 l 17.65 -17.7 z"></path></g><path d="M -47.67499999999998 -45 l 10 -10 l -30 0 l -10 10 l 30 0 z"></path></g><g><path d="M 3.6000000000000227 -35 l -10 10 l 0 60 l 10 -10 l 0 -60 z"></path><g><path d="M 3.6500000000000057 -32.7 l 15 0 l 10 -10 l -17.4 0 l -17.65 17.7 l 0 7.3 q 5.4 -4.35 10 -2.75 l 0 -12.25 z"></path></g><g><path d="M -6.3999999999999915 20 l 0 15 l 15 0 l 10 -10 l -15 0 l 0 -10 q -3.874 7.753 -10 5 z"></path></g></g><g><path d="M 56.150000000000006 -35 l -10 10 l 0 30 l 30 30 l 7.5 -7.5 l -27.5 -27.5 l 0 -35 z"></path><g><path d="M 46.150000000000006 -13.8 q 5 -12.14 10 -11.2 l 0 -10 l -17.5 17.5 l 1.2 1.2 l 6.3 -6.3 l 0 8.8 z"></path></g><g><path d="M 75.25 33.4 l -11.2 11.3 l 22.4 0 l 10 -10.1 l -19.9 0 l 7.1 -7.1 q -10.446 -1.157 -8.4 5.9 z"></path></g><path d="M 77.55000000000001 -45 l 10 -10 l -30 0 l -10 10 l 30 0 z"></path></g><g><path d="M 126.44999999999999 -11.15 l -10 10 l 0 -33.85 l -10 10 l 0 36.2 l 10 -9.95 l 0 33.75 l 10 -10 l 0 -36.15 z"></path><g><path d="M 126.44999999999999 42.6 l 0 -17.6 q -7.3 -5 -10 10 l 0 20 l 17.5 -17.5 l -1.2 -1.2 l -6.3 6.3 z"></path></g></g></g></g>
</svg>
