<svg xmlns="http://www.w3.org/2000/svg" viewBox="0 0 81.5 172.294907" width="81.5" height="172.294907" fill="currentColor" stroke="none">
<g transform="translate(40.75 86.147453)"><g><g><path d="M -30.849999999999998 -23.125000000000007 l -9.9 9.95 l 47.35 58.35 l 0.05 0 l 1.4 1.75 l 7.5 -7.5 l -42.7 -52.55 l 52.05 0 l 10 -10 l -65.75 0 z"></path><g><path d="M 24.900000000000006 -23.125000000000007 q 2.55 4.45 -5 10 l 5 0 l 15.85 -15.9 l -13 -12.9 l -7 7 l 11.8 11.8 l -7.65 0 z"></path></g><g><path d="M 15.550000000000004 39.425000000000004 q -6.8 0.5 -7.5 7.5 l 15 15 l 15 -15 l -1.2 -1.2 l -7.5 7.5 l -13.8 -13.8 z"></path></g><path d="M 10 -51.925000000000004 l 10 -10 l -30 0 l -10 10 l 30 0 z"></path></g></g></g>
</svg>
