<svg xmlns="http://www.w3.org/2000/svg" viewBox="0 0 274.3 129.925" width="274.3" height="129.925" fill="currentColor" stroke="none">
<g transform="translate(137.15 64.9625)"><g><g><path d="M -118.94999999999997 -44.962500000000006 l -10 10 l 0 60 l 10 -10 l 0 -60 z"></path><g><path d="M -117.14999999999998 36.83749999999999 l -11.8 -11.8 l 10 -10 l 0 -5 q -5.188 7.964 -10 5 l 0 7.7 l -8.2 8.2 l 13 12.9 l 7 -7 z"></path></g></g><g><path d="M -47.74999999999997 -44.962500000000006 l -50 0 l -9.4 9.4 l 23.2 33.05 l 6.2 -6.25 l 0 33.8 l 10 -10 l 0 -36.15 l -1.1 1.1 q -2.967 2.977 -5.95 5.95 l -1.95 2 l -0.65 0.65 l -16.5 -23.5 l 36.2 0 l 10 -10 z"></path><g><path d="M -67.74999999999997 32.637499999999996 l 0 -17.6 q -7.3 -5 -10 10 l 0 20 l 17.5 -17.5 l -1.2 -1.2 l -6.3 6.3 z"></path></g><path d="M -67.42499999999997 -54.962500000000006 l 10 -10 l -30 0 l -10 10 l 30 0 z"></path></g><g><path d="M -30.199999999999974 -44.962500000000006 l -7.5 7.5 57.5 62.5 7.5 -7.5 -57.5 -62.5 z"></path></g><g><path d="M 82.15 -5.337500000000006 l 10 -10 l -29.85 -29.85 l -7.5 7.5 l 22.35 22.35 l -20 0 l -15 15 l 25.6 25.6 l 7.5 -7.5 l -23.1 -23.1 l 30 0 z"></path><g><path d="M 64.9 -35.18750000000001 q 1.655 -2.716 -2.6 -10 l -15 0 l -10 10 l 20 0 q 7.015 2.931 7.6 0 z"></path></g><g><path d="M 66.85 23.662499999999994 l -11.2 11.3 l 22.4 0 l 10 -10.1 l -19.9 0 l 7.1 -7.1 q -10.446 -1.157 -8.4 5.9 z"></path></g><path d="M 57.125 54.962500000000006 l 8.8 -8.8 l -1.2 -1.2 l -20 20 l 30 0 l 10 -10 l -27.6 0 z"></path></g><g><path d="M 122.15000000000003 -21.112500000000004 l -10 10 l 0 -33.85 l -10 10 l 0 36.2 l 10 -9.95 l 0 33.75 l 10 -10 l 0 -36.15 z"></path><g><path d="M 112.15 10.037499999999994 l 0 15 l 12.6 0 l -7.5 7.5 l 1.2 1.2 l 18.7 -18.7 l -15 0 l 0 -10 q -3.85 7.75 -10 5 z"></path></g></g></g></g>
</svg>
