<svg xmlns="http://www.w3.org/2000/svg" viewBox="0 0 343.95 128.8" width="343.95" height="128.8" fill="currentColor" stroke="none">
<g transform="translate(171.975 64.4)"><g><g><path d="M -124.475 44.39999999999999 l 7.5 -7.5 -26.9 -26.9 7.45 -7.55 -28.05 -28.05 -7.5 7.5 26.9 26.9 -7.5 7.5 28.1 28.1 z"></path><path d="M -141.975 64.39999999999999 l 10 -10 l -30 0 l -10 10 l 30 0 z"></path></g><g><path d="M -56.974999999999994 -15.600000000000009 l 10 -10 l -50 0 l -10 10 l 0 30 l 30 0 l 0 30 l 10 -10 l 0 -30 l -30 0 l 0 -20 l 40 0 z"></path></g><g><path d="M -4.474999999999994 -28.10000000000001 l 12.5 12.5 l -25 0 l -10 10 l 40 0 l 10 -10 l -20 -20 l -7.5 7.5 z"></path><path d="M -26.974999999999994 4.3999999999999915 l -10 10 l 50 0 l 10 -10 l -50 0 z"></path></g><g><path d="M 51.224999999999994 -25.60000000000001 l -10 10 l 0 60 l 10 -10 l 0 -60 z"></path><g><path d="M 53.025000000000006 56.19999999999999 l -11.8 -11.8 l 10 -10 l 0 -5 q -5.188 7.964 -10 5 l 0 7.7 l -8.2 8.2 l 13 12.9 l 7 -7 z"></path></g></g><g><path d="M 74.82500000000002 -25.60000000000001 l -7.5 7.5 l 31.25 31.25 l -31.25 31.25 l 40 0 l 10 -10 l -37.6 0 l 27.5 -27.6 l -32.4 -32.4 z"></path><g><path d="M 63.025000000000006 -37.400000000000006 l 11.8 11.8 l -5 5 q 7.681 1.687 7.1 -0.5 l -0.95 -3.35 l 7.05 -7.05 l -13 -12.9 z"></path></g><g><path d="M 97.32500000000002 44.39999999999999 l 10 0 l 17.5 -17.5 l -1.2 -1.2 l -8.7 8.7 l -7.6 0 q 0.83 5.4 -10 10 z"></path></g><path d="M 103.92499999999998 -54.400000000000006 l 10 -10 l -30 0 l -10 10 l 30 0 z"></path></g><g><path d="M 154.82500000000002 -1.7500000000000089 l -10 10 l 0 -33.85 l -10 10 l 0 36.2 l 10 -9.95 l 0 33.75 l 10 -10 l 0 -36.15 z"></path><g><path d="M 154.475 32.29999999999999 q -0.375 0.363 -1.15 1.15 q -6.261 1.099 -8.5 -3.8 l 0 14.75 l 10 -10 l 10 10 l 7.15 -7.15 l -11.3 -11.2 l -5.85 5.9 q -0.04 0.029 -0.35 0.35 z"></path></g></g></g></g>
</svg>
