<svg xmlns="http://www.w3.org/2000/svg" viewBox="0 0 224.45 115" width="224.45" height="115" fill="currentColor" stroke="none">
<g transform="translate(112.225 57.5)"><g><g><path d="M -76.725 10.6 l 7.45 -7.5 27.05 34.4 7.5 -7.5 -27.8 -36 -7.75 7.8 -26.95 -34.3 -7.5 7.5 28 35.6 z"></path><path d="M -98.32499999999999 -29.45 q -3.28 1.825 -6.4 4.45 l -7.5 7.5 l 1.2 1.2 l 7.5 -7.5 q 4.106 1.688 4.55 0.35 q 0.6 -1.45 0.65 -6 z"></path><path d="M -44.82499999999999 27.5 q -1.65 2.7 2.6 10 l 12.6 0 l -7.5 7.5 l 1.2 1.2 l 18.7 -18.7 l -20 0 q -7 -2.95 -7.6 0 z"></path></g><g><path d="M 52.17499999999998 -32.5 l -50 0 l -9.4 9.4 l 23.2 33.05 l 6.2 -6.25 l 0 33.8 l 10 -10 l 0 -36.15 l -1.1 1.1 q -2.967 2.977 -5.95 5.95 l -1.95 2 l -0.65 0.65 l -16.5 -23.5 l 36.2 0 l 10 -10 z"></path><g><path d="M 32.17499999999998 45.1 l 0 -17.6 q -7.3 -5 -10 10 l 0 20 l 17.5 -17.5 l -1.2 -1.2 l -6.3 6.3 z"></path></g></g><g><path d="M 102.225 37.5 l 10 -10 l 0 -60 l -10 10 l 0 50 l -30 0 l -10 10 l 40 0 z"></path><path d="M 79.725 -50 l 7.5 7.5 l 7.5 -7.5 l -7.5 -7.5 l -7.5 7.5 z"></path><path d="M 97.225 57.5 l 10 -10 l -30 0 l -10 10 l 30 0 z"></path></g></g></g>
</svg>
