<svg xmlns="http://www.w3.org/2000/svg" viewBox="0 0 236.45 138.8" width="236.45" height="138.8" fill="currentColor" stroke="none">
<g transform="translate(118.225 69.4)"><g><g><path d="M -53.575 25.599999999999994 l 7.5 -7.5 -26.9 -26.9 7.45 -7.55 -28.05 -28.05 -7.5 7.5 26.9 26.9 -7.5 7.5 28.1 28.1 z"></path><path d="M -96.07500000000002 -41.900000000000006 l -5 5 l -10 -10 l -7.15 7.15 l 11.3 11.2 l 7 -7.1 l 1 -1 q 3.183 1.742 3.85 0 q 0.916 -1.293 0 -6.25 z"></path><path d="M -56.17500000000001 15.599999999999994 q -1.655 2.716 2.6 10 l 15 0 l 10 -10 l -20 0 q -7.015 -2.931 -7.6 0 z"></path><path d="M -106.07500000000002 5.599999999999994 l 20 20 l 7.5 -7.5 l -20 -20 l -7.5 7.5 z"></path><path d="M -81.07500000000002 -61.900000000000006 l 7.5 7.5 l 7.5 -7.5 l -7.5 -7.5 l -7.5 7.5 z"></path></g><g><path d="M 36.425 -44.37500000000001 l -10 10 l 0 20 l -35 0 l -10 10 l 29.95 29.95 l 7.5 -7.5 l -22.45 -22.45 l 30 0 l 10 -10 l 0 -30 z"></path><g><path d="M 8.774999999999991 15.574999999999974 q -1.655 2.716 2.6 10 l 15 0 l 10 -10 l -20 0 q -7.015 -2.931 -7.6 0 z"></path></g><path d="M 1.3250000000000028 45.574999999999974 l 8.8 -8.8 l -1.2 -1.2 l -20 20 l 30 0 l 10 -10 l -27.6 0 z"></path></g><g><path d="M 106.425 25.599999999999994 l 10 -10 l 0 -35 l -26.3 0 l -8.7 8.75 l 0 -33.75 l -10 10 l 0 36.15 l 11.15 -11.15 l 23.85 0 l 0 35 z"></path><g><path d="M 71.47500000000001 -32.00000000000001 l -0.05 5.05 q 4.6 -6.3 10 -4 l 0 -13.45 l -9.95 10 l -12.65 0 l 7.5 -7.5 l -1.2 -1.2 l -18.7 18.7 l 17.45 0 l 7.6 -7.6 z"></path></g><g><path d="M 118.22500000000001 37.39999999999999 l -11.8 -11.8 l 10 -10 l 0 -5 q -5.188 7.964 -10 5 l 0 7.7 l -8.2 8.2 l 13 12.9 l 7 -7 z"></path></g><path d="M 74.825 -61.900000000000006 l 7.5 7.5 l 7.5 -7.5 l -7.5 -7.5 l -7.5 7.5 z"></path><path d="M 74.825 61.900000000000006 l 7.5 7.5 l 7.5 -7.5 l -7.5 -7.5 l -7.5 7.5 z"></path></g></g></g>
</svg>
