<svg xmlns="http://www.w3.org/2000/svg" viewBox="0 0 375.25 171.3" width="375.25" height="171.3" fill="currentColor" stroke="none">
<g transform="translate(187.625 85.65)"><g><g><path d="M -123.975 5.649999999999995 l -24.95 -24.95 l 28.8 -28.85 l -45 0 l -10 10 l 42.6 0 l -25.05 25.2 l 24.8 24.8 l -37.35 0 l -10 10 l 40 0 l 16.15 -16.2 z"></path><g><path d="M -160.125 11.849999999999994 l -10 0 l -17.5 17.5 l 1.2 1.2 l 8.7 -8.7 l 7.6 0 q -0.83 -5.4 10 -10 z"></path></g></g><g><path d="M -85.475 -48.150000000000006 l -7.5 7.5 57.5 62.5 7.5 -7.5 -57.5 -62.5 z"></path><path d="M -87.975 -45.650000000000006 l -5 5 l -10 -10 l -7.15 7.15 l 11.3 11.2 l 7 -7.1 l 1 -1 q 3.183 1.742 3.85 0 q 0.916 -1.293 0 -6.25 z"></path><path d="M -38.07499999999999 11.849999999999994 q -1.655 2.716 2.6 10 l 15 0 l 10 -10 l -20 0 q -7.015 -2.931 -7.6 0 z"></path><path d="M -82.975 4.349999999999994 l -10 10 l 0 25 l 10 -10 l 0 -25 z"></path><path d="M -74.225 -78.15 l 20 20 l 7.5 -7.5 l -20 -20 l -7.5 7.5 z"></path></g><g><path d="M 54.525000000000006 -48.12500000000001 l -10 10 l 0 20 l -35 0 l -10 10 l 29.95 29.95 l 7.5 -7.5 l -22.45 -22.45 l 30 0 l 10 -10 l 0 -30 z"></path></g><g><path d="M 107.02499999999998 21.849999999999994 l 10 -10 l 0 -35 l -26.3 0 l -8.7 8.75 l 0 -33.75 l -10 10 l 0 36.15 l 11.15 -11.15 l 23.85 0 l 0 35 z"></path><g><path d="M 72.02499999999998 -26.950000000000006 q 5 -12.14 10 -11.2 l 0 -10 l -17.5 17.5 l 1.2 1.2 l 6.3 -6.3 l 0 8.8 z"></path></g><g><path d="M 118.82499999999999 33.64999999999999 l -11.8 -11.8 l 10 -10 l 0 -5 q -5.188 7.964 -10 5 l 0 7.7 l -8.2 8.2 l 13 12.9 l 7 -7 z"></path></g><path d="M 81.67500000000001 60.650000000000006 l 0 25 l 20 -20 l -1.2 -1.2 l -8.8 8.8 l 0 -22.6 l -10 10 z"></path></g><g><path d="M 171.325 21.849999999999994 l 7.5 -7.5 l -31.25 -31.25 l 31.25 -31.25 l -40 0 l -10 10 l 37.6 0 l -27.5 27.6 l 32.4 32.4 z"></path><g><path d="M 177.625 13.149999999999995 q -6.486 -1.216 -4.75 5 q 2.924 -3.894 5.95 -3.8 l 8.8 -8.8 l 0 -15 l -10 10 l 0 12.6 z"></path></g><path d="M 168.22499999999997 41.849999999999994 l 10 -10 l -30 0 l -10 10 l 30 0 z"></path></g></g></g>
</svg>
