<svg xmlns="http://www.w3.org/2000/svg" viewBox="0 0 454.7 135" width="454.7" height="135" fill="currentColor" stroke="none">
<g transform="translate(227.35 67.5)"><g><g><path d="M -202.7 -47.5 l -7.5 7.5 57.5 62.5 7.5 -7.5 -57.5 -62.5 z"></path><path d="M -205.2 -45 l -5 5 l -10 -10 l -7.15 7.15 l 11.3 11.2 l 7 -7.1 l 1 -1 q 3.183 1.742 3.85 0 q 0.916 -1.293 0 -6.25 z"></path><path d="M -172.7 -40 l 20 20 l 7.5 -7.5 l -20 -20 l -7.5 7.5 z"></path><path d="M -167.7 -57.5 l 10 -10 l -30 0 l -10 10 l 30 0 z"></path></g><g><path d="M -80.19999999999999 -47.475 l -10 10 l 0 20 l -35 0 l -10 10 l 29.95 29.95 l 7.5 -7.5 l -22.45 -22.45 l 30 0 l 10 -10 l 0 -30 z"></path><g><path d="M -107.85 12.47499999999998 q -1.65 2.7 2.6 10 l 12.6 0 l -7.5 7.5 l 1.2 1.2 l 18.7 -18.7 l -20 0 q -7 -2.95 -7.6 0 z"></path></g><path d="M -97.69999999999999 51.17499999999998 l 10 -10 l -30 0 l -10 10 l 30 0 z"></path></g><g><path d="M -27.69999999999999 22.5 l 7.5 -7.5 l -31.25 -31.25 l 31.25 -31.25 l -40 0 l -10 10 l 37.6 0 l -27.5 27.6 l 32.4 32.4 z"></path><path d="M -55.19999999999999 42.5 l 0 25 l 20 -20 l -1.2 -1.2 l -8.8 8.8 l 0 -22.6 l -10 10 z"></path></g><g><path d="M 49.74999999999997 12.5 l -34.95 0 l -10 10 l 50 0 l 10 -10 l -25 -25 l 0 -35 l -10 10 l 0 30.05 l 19.95 19.95 z"></path><g><path d="M 9.800000000000011 12.5 l -12.5 -12.5 l -7.5 7.5 l 15 15 q 8.65 -2.75 10 -10 l -5 0 z"></path></g><path d="M 37.29999999999998 57.5 l 0 -25 l -20 20 l 1.2 1.2 l 8.8 -8.8 l 0 22.6 l 10 -10 z"></path></g><g><path d="M 127.29999999999998 22.5 l 7.5 -7.5 -26.9 -26.9 7.45 -7.55 -28.05 -28.05 -7.5 7.5 26.9 26.9 -7.5 7.5 28.1 28.1 z"></path><path d="M 84.79999999999998 5 l -10 10 l 0 25 l 10 -10 l 0 -25 z"></path><path d="M 92.29999999999998 40 l 7.5 7.5 l 7.5 -7.5 l -7.5 -7.5 l -7.5 7.5 z"></path></g><g><path d="M 187.35 -47.5 l -10 10 l 0 60 l 10 -10 l 0 -50 l 30 0 l 10 -10 l -40 0 z"></path><g><path d="M 187.35 12.5 l 0 -7.3 q -4.546 5.888 -10 3.05 l 0 11.95 l -15.05 0 l -17.5 17.5 l 1.2 1.2 l 8.7 -8.7 l 15 0 l 17.65 -17.7 z"></path></g></g></g></g>
</svg>
