<svg xmlns="http://www.w3.org/2000/svg" viewBox="0 0 83.79898 172.294907" width="83.79898" height="172.294907" fill="currentColor" stroke="none">
<g transform="translate(41.89949 86.147453)"><g><g><path d="M 31.999489795918365 8.774999999999999 l 9.9 -9.95 l -47.35 -58.35 l -0.05 0 l -1.4 -1.75 l -7.5 7.5 l 42.7 52.55 l -52.05 0 l -10 10 l 65.75 0 z"></path><g><path d="M -31.450510204081638 -11.224999999999994 q -16 9.8 -7.5 27.5 l 7.55 -7.5 l 11.1 0 q -3.05 -5.25 1.5 -10 l -5 0 l -8.8 8.85 q -6.15 -7.15 1.15 -18.85 z"></path></g><path d="M 10 51.275000000000006 l 0 -25 l -20 20 l 1.2 1.2 l 8.8 -8.8 l 0 22.6 l 10 -10 z"></path></g></g></g>
</svg>
