<svg xmlns="http://www.w3.org/2000/svg" viewBox="0 0 289.8 110.225" width="289.8" height="110.225" fill="currentColor" stroke="none">
<g transform="translate(144.9 55.1125)"><g><g><path d="M -122.49999999999997 -34.887499999999996 l -10 10 l 0 60 l 10 -10 l 0 -60 z"></path><g><path d="M -144.89999999999998 45.112500000000004 l 22.4 0 l 10 -10.1 l -19.9 0 l -0.1 0.1 l 0 -0.1 l 0.05 0 l 9.95 -9.9 l 0 -5 q -5 5.774 -10 5 l 0 7.55 l -12.4 12.4 z"></path></g></g><g><path d="M -91.24999999999997 -34.887499999999996 l -10 10 l 0 30 l 30 30 l 7.5 -7.5 l -27.5 -27.5 l 0 -35 z"></path><path d="M -72.49999999999997 -44.887499999999996 l 10 -10 l -30 0 l -10 10 l 30 0 z"></path></g><g><path d="M -42.49999999999997 -34.887499999999996 l -10 10 l 0 60 l 10 -10 l 0 -60 z"></path><g><path d="M -52.49999999999997 20.112500000000004 l 0 15 l 15 0 l 10 -10 l -15 0 l 0 -10 q -3.874 7.753 -10 5 z"></path></g></g><g><path d="M -2.4499999999999886 -24.887499999999996 l 34.95 0 l 10 -10 l -50 0 l -10 10 l 25 25 l 0 35 l 10 -10 l 0 -30.05 l -19.95 -19.95 z"></path><g><path d="M 17.50000000000003 42.712500000000006 l 0 -17.6 q -7.3 -5 -10 10 l 0 20 l 17.5 -17.5 l -1.2 -1.2 l -6.3 6.3 z"></path></g><path d="M 22.50000000000003 -44.887499999999996 l 10 -10 l -30 0 l -10 10 l 30 0 z"></path></g><g><path d="M 74.90000000000003 -34.887499999999996 l -10 10 l 0 60 l 10 -10 l 0 -60 z"></path><g><path d="M 52.50000000000003 45.112500000000004 l 22.4 0 l 10 -10.1 l -19.9 0 l -0.1 0.1 l 0 -0.1 l 0.05 0 l 9.95 -9.9 l 0 -5 q -5 5.774 -10 5 l 0 7.55 l -12.4 12.4 z"></path></g></g><g><path d="M 134.89999999999998 4.737500000000004 l 10 -10 l -29.85 -29.85 l -7.5 7.5 l 22.35 22.35 l -20 0 l -15 15 l 25.6 25.6 l 7.5 -7.5 l -23.1 -23.1 l 30 0 z"></path><path d="M 129.89999999999998 -45.1125 l 10 -10 l -30 0 l -10 10 l 30 0 z"></path></g></g></g>
</svg>
