<svg xmlns="http://www.w3.org/2000/svg" viewBox="0 0 638.9 147.15" width="638.9" height="147.15" fill="currentColor" stroke="none">
<g transform="translate(319.45 73.575)"><g><g><path d="M -311.95 -48.57499999999999 l -7.5 7.5 57.5 62.5 7.5 -7.5 -57.5 -62.5 z"></path><path d="M -310.8 -47.42499999999999 l 15.05 0 l 10 -10 l -17.45 0 l -8.75 8.85 q -1.75 3.2 -4.85 7.2 q 5.7 0.35 6 -6.05 z"></path><path d="M -259.34999999999997 -38.57499999999999 l -8.8 8.8 l 1.2 1.2 l 20 -20 l -30 0 l -10 10 l 27.6 0 z"></path></g><g><path d="M -226.95 -48.57499999999999 l -10 10 l 0 60 l 10 -10 l 0 -50 l 30 0 l 10 -10 l -40 0 z"></path><g><path d="M -226.95 29.025000000000013 l 0 -17.6 q -7.3 -5 -10 10 l 0 20 l 17.5 -17.5 l -1.2 -1.2 l -6.3 6.3 z"></path></g></g><g><path d="M -88.69999999999999 21.45000000000001 l 9.9 -9.95 l -47.35 -58.35 l -0.05 0 l -1.4 -1.75 l -7.5 7.5 l 42.7 52.55 l -52.05 0 l -10 10 l 65.75 0 z"></path><g><path d="M -176.95 13.950000000000017 l 1.2 1.2 l 7.5 -7.5 l 13.8 13.8 q 8.65 -2.75 10 -10 l -5 0 l -12.5 -12.5 l -15 15 z"></path></g><path d="M -137.875 41.45000000000002 l 0 25 l 20 -20 l -1.2 -1.2 l -8.8 8.8 l 0 -22.6 l -10 10 z"></path></g><g><path d="M -12.849999999999966 21.42500000000001 l 10 -10 l 0 -60 l -10 10 l 0 50 l -30 0 l -10 10 l 40 0 z"></path><g><path d="M -38.299999999999955 11.425000000000011 l -4.55 0 l -8.8 8.8 l -10 -10 l -7.15 7.15 l 11.3 11.2 l 7.05 -7.15 l 6.3 0 q -3.7 -5 5.85 -10 z"></path></g><path d="M -25.82499999999999 -58.57499999999999 l 10 -10 l -30 0 l -10 10 l 30 0 z"></path><path d="M -45.82499999999999 48.575 l 0 25 l 20 -20 l -1.2 -1.2 l -8.8 8.8 l 0 -22.6 l -10 10 z"></path></g><g><path d="M 14.650000000000034 -48.57499999999999 l -7.5 7.5 57.5 62.5 7.5 -7.5 -57.5 -62.5 z"></path><path d="M 42.150000000000034 41.42500000000001 l 10 -10 l -30 0 l -10 10 l 30 0 z"></path></g><g><path d="M 124.50000000000006 -8.949999999999989 l 10 -10 l -29.85 -29.85 l -7.5 7.5 l 22.35 22.35 l -20 0 l -15 15 l 25.6 25.6 l 7.5 -7.5 l -23.1 -23.1 l 30 0 z"></path><g><path d="M 89.65000000000003 -63.79999999999999 l -7.5 7.5 l 15 15 q 6.8 -0.5 7.5 -7.5 l -15 -15 z"></path></g><g><path d="M 130.10000000000008 11.650000000000013 l -15 0 q -7 -2.95 -7.6 0 q -1.65 2.7 2.6 10 l 10 0 l 0 15 l 10 -10 l 0 -15 z"></path></g></g><g><path d="M 185.70000000000005 -24.724999999999987 l -10 10 l 0 -33.85 l -10 10 l 0 36.2 l 10 -9.95 l 0 33.75 l 10 -10 l 0 -36.15 z"></path><g><path d="M 175.70000000000005 -32.92499999999999 l 0 -15.65 l -10 10 q -9.4 -17.75 -21.2 -6.85 q 12.25 -2.15 14.85 15.5 l 6.35 -6.3 l 0 8.1 q 4.8 -9.5 10 -4.8 z"></path></g><g><path d="M 175.70000000000005 41.42500000000001 l 10 -10 l 0 -20 q -7.3 -5 -10 10 l 0 20 z"></path></g></g><g><path d="M 205.7000000000001 -48.57499999999999 l -10 10 l 0 60 l 10 -10 l 0 -50 l 30 0 l 10 -10 l -40 0 z"></path><path d="M 213.2000000000001 -66.07499999999999 l 7.5 7.5 l 7.5 -7.5 l -7.5 -7.5 l -7.5 7.5 z"></path><path d="M 210.7000000000001 41.42500000000001 l 0 25 l 20 -20 l -1.2 -1.2 l -8.8 8.8 l 0 -22.6 l -10 10 z"></path></g><g><path d="M 294.75000000000006 -31.12499999999999 l -1.25 -1.15 q -5.45 4.65 -10.85 3.05 q -5.65 -1.7 -5.7 -9.35 l 25 0 l 17.5 -17.5 l -1.2 -1.2 l -8.7 8.7 l -37.6 0 l -10 10 q 14.9 23.2 32.8 7.45 z"></path><path d="M 265.7000000000001 -18.57499999999999 l -10 10 l 50 0 l 10 -10 l -50 0 z"></path></g></g></g>
</svg>
