<svg xmlns="http://www.w3.org/2000/svg" viewBox="0 0 120 95" width="120" height="95" fill="currentColor" stroke="none">
<g transform="translate(60 47.5)"><g><g><path d="M -7.5 22.5 l 7.5 -7.5 -26.9 -26.9 7.45 -7.55 -28.05 -28.05 -7.5 7.5 26.9 26.9 -7.5 7.5 28.1 28.1 z"></path><path d="M -60 2.5 l 20 20 l 7.5 -7.5 l -20 -20 l -7.5 7.5 z"></path><path d="M -42.5 40 l 7.5 7.5 l 7.5 -7.5 l -7.5 -7.5 l -7.5 7.5 z"></path></g><g><path d="M 17.5 -47.5 l -7.5 7.5 l 31.25 31.25 l -31.25 31.25 l 40 0 l 10 -10 l -37.6 0 l 27.5 -27.6 l -32.4 -32.4 z"></path></g></g></g>
</svg>
