<svg xmlns="http://www.w3.org/2000/svg" viewBox="0 0 520.45 132.45" width="520.45" height="132.45" fill="currentColor" stroke="none">
<g transform="translate(260.225 66.225)"><g><g><path d="M -250.22499999999997 -31.249999999999986 l -10 10 l 0 60 l 10 -10 l 0 -60 z"></path><g><path d="M -260.22499999999997 23.750000000000014 l 0 15 l 10 -10 l 0 20 l 10 -9.9 l 0 -22.4 l -10 9.95 l 0 -5.15 q -5 6.1 -10 2.5 z"></path></g></g><g><path d="M -215.17499999999995 -21.249999999999986 l 34.95 0 l 10 -10 l -50 0 l -10 10 l 25 25 l 0 35 l 10 -10 l 0 -30.05 l -19.95 -19.95 z"></path><g><path d="M -195.22499999999997 46.350000000000016 l 0 -17.6 q -7.3 -5 -10 10 l 0 20 l 17.5 -17.5 l -1.2 -1.2 l -6.3 6.3 z"></path></g><path d="M -190.22499999999997 -41.249999999999986 l 10 -10 l -30 0 l -10 10 l 30 0 z"></path></g><g><path d="M -137.82499999999996 -31.249999999999986 l -10 10 l 0 60 l 10 -10 l 0 -60 z"></path><g><path d="M -160.22499999999997 48.750000000000014 l 22.4 0 l 10 -10.1 l -19.9 0 l -0.1 0.1 l 0 -0.1 l 0.05 0 l 9.95 -9.9 l 0 -5 q -5 5.774 -10 5 l 0 7.55 l -12.4 12.4 z"></path></g></g><g><path d="M -110.32499999999996 -31.249999999999986 l -7.5 7.5 l 31.25 31.25 l -31.25 31.25 l 40 0 l 10 -10 l -37.6 0 l 27.5 -27.6 l -32.4 -32.4 z"></path><path d="M -82.82499999999996 -41.249999999999986 l 10 -10 l -30 0 l -10 10 l 30 0 z"></path></g><g><path d="M -47.82499999999996 -31.249999999999986 l -10 10 l 0 60 l 10 -10 l 0 -60 z"></path><g><path d="M -57.82499999999996 23.750000000000014 l 0 15 l 10 -10 l 0 20 l 10 -9.9 l 0 -22.4 l -10 9.95 l 0 -5.15 q -5 6.1 -10 2.5 z"></path></g></g><g><path d="M 27.17500000000001 -31.224999999999987 l -10 10 l 0 20 l -35 0 l -10 10 l 29.95 29.95 l 7.5 -7.5 l -22.45 -22.45 l 30 0 l 10 -10 l 0 -30 z"></path><g><path d="M 8.425000000000011 30.024999999999995 q -6.486 -1.216 -4.75 5 q 2.924 -3.894 5.95 -3.8 l 8.8 -8.8 l 0 -15 l -10 10 l 0 12.6 z"></path></g><path d="M 9.675000000000011 -41.224999999999994 l 10 -10 l -30 0 l -10 10 l 30 0 z"></path></g><g fill="currentColor"><path d="M 102.82499999999999 -21.174999999999986 l 10 -10 l -65.75 0 l -9.9 9.95 l 30.45 37.55 l 7.25 -7.3 l 24.15 29.65 l 7.45 -7.4 l -25.2 -31.05 l -7.5 7.45 l -23.1 -28.85 l 52.15 0 z"></path><path d="M 67.5 -48.67499999999998 l 7.5 7.5 l 7.5 -7.5 l -7.5 -7.5 l -7.5 7.5 z"></path><path d="M 67.5 56.17500000000001 l 7.5 7.5 l 7.5 -7.5 l -7.5 -7.5 l -7.5 7.5 z"></path></g><g fill="currentColor"><path d="M 177.825 -31.224999999999987 l -10 10 l 0 20 l -35 0 l -10 10 l 29.95 29.95 l 7.5 -7.5 l -22.45 -22.45 l 30 0 l 10 -10 l 0 -30 z"></path><g><path d="M 177.825 -31.224999999999994 l 0 0.1 l -0.05 0 l -9.95 9.9 l 0 5 q 5 -5.75 10 -5 l 0 -7.55 l 12.4 -12.45 l -22.4 0 l -17.5 17.5 l 1.2 1.2 l 8.6 -8.6 l 17.6 0 l 0.1 -0.1 z"></path></g><g><path d="M 155.27499999999998 36.224999999999994 l 5 -5 l 10 10 l 7.15 -7.15 l -11.3 -11.2 l -7 7.1 l -1 1 q -3.183 -1.742 -3.85 0 q -0.916 1.293 0 6.25 z"></path></g><path d="M 149.02499999999998 -58.724999999999994 l 7.5 7.5 l 7.5 -7.5 l -7.5 -7.5 l -7.5 7.5 z"></path><path d="M 149.02499999999998 58.724999999999994 l 7.5 7.5 l 7.5 -7.5 l -7.5 -7.5 l -7.5 7.5 z"></path></g><g fill="currentColor"><path d="M 228.17499999999995 -46.249999999999986 l -7.5 7.5 l 21.65 27.5 l 7.45 -7.5 l -21.6 -27.5 z"></path><path d="M 210.22499999999997 -1.2499999999999858 l -10 10 l 50 0 l 10 -10 l -50 0 z"></path></g></g></g>
</svg>
