<svg xmlns="http://www.w3.org/2000/svg" viewBox="0 0 245.65 97.5" width="245.65" height="97.5" fill="currentColor" stroke="none">
<g transform="translate(122.825 48.75)"><g><g><path d="M -115.32499999999999 -28.75 l -7.5 7.5 57.5 62.5 7.5 -7.5 -57.5 -62.5 z"></path><path d="M -60.874999999999986 34.85 q -1.825 3.28 -4.45 6.4 l -7.5 7.5 l -1.2 -1.2 l 7.5 -7.5 q -1.688 -4.106 -0.35 -4.55 q 1.45 -0.6 6 -0.65 z"></path><path d="M -80.32499999999999 -38.75 l 10 -10 l -30 0 l -10 10 l 30 0 z"></path></g><g><path d="M -7.824999999999989 10.875 l 10 -10 l -29.85 -29.85 l -7.5 7.5 l 22.35 22.35 l -20 0 l -15 15 l 25.6 25.6 l 7.5 -7.5 l -23.1 -23.1 l 30 0 z"></path></g><g><path d="M 22.17500000000001 -28.75 l -10 10 l 0 60 l 10 -10 l 0 -60 z"></path><g><path d="M 12.175000000000011 26.25 l 0 15 l 15 0 l 10 -10 l -15 0 l 0 -10 q -3.874 7.753 -10 5 z"></path></g></g><g><path d="M 112.82499999999999 -18.675 l 10 -10 l -65.75 0 l -9.9 9.95 l 30.45 37.55 l 7.25 -7.3 l 24.15 29.65 l 7.45 -7.4 l -25.2 -31.05 l -7.5 7.45 l -23.1 -28.85 l 52.15 0 z"></path><path d="M 95 -38.675 l 10 -10 l -30 0 l -10 10 l 30 0 z"></path></g></g></g>
</svg>
