<svg xmlns="http://www.w3.org/2000/svg" viewBox="0 0 67.65 172.294907" width="67.65" height="172.294907" fill="currentColor" stroke="none">
<g transform="translate(33.825 86.147453)"><g><g><path d="M -18.824999999999996 -62.5 l -10 10 l 0 35 l 19.95 0 l -24.95 25 l 40 0 l 10 -10 l -37.6 0 l 24.85 -25 l -22.25 0 l 0 -35 z"></path><g><path d="M 21.325000000000003 -10 l -7.5 7.5 l -11.1 0 q 3.05 5.25 -1.5 10 l 5 0 l 8.8 -8.85 q 0.445 14.232 18.8 18.85 q -12.993 -10.704 -12.45 -27.5 z"></path></g><path d="M -9.999999999999993 37.5 l 0 25 l 20 -20 l -1.2 -1.2 l -8.8 8.8 l 0 -22.6 l -10 10 z"></path></g></g></g>
</svg>
