<svg xmlns="http://www.w3.org/2000/svg" viewBox="0 0 76.3 172.294907" width="76.3" height="172.294907" fill="currentColor" stroke="none">
<g transform="translate(38.15 86.147453)"><g><g><path d="M 18.150000000000006 33.074999999999996 l 7.5 -7.5 -26.9 -26.9 7.45 -7.55 -28.05 -28.05 -7.5 7.5 26.9 26.9 -7.5 7.5 28.1 28.1 z"></path><path d="M -28.149999999999995 -28.225000000000005 q 4.2 0.65 6.3 -2.7 q 0.8 -1 0 -6 l -6.3 6.3 l 0 -19.95 l -10 10.1 l 0 22.35 l 10 -10.1 z"></path><path d="M -24.349999999999994 15.574999999999996 l -10 10 l 0 25 l 10 -10 l 0 -25 z"></path><path d="M 25.750000000000007 -26.925000000000004 l -8.8 8.8 l 1.2 1.2 l 20 -20 l -30 0 l -10 10 l 27.6 0 z"></path></g></g></g>
</svg>
