<svg xmlns="http://www.w3.org/2000/svg" viewBox="0 0 387.5 140.05" width="387.5" height="140.05" fill="currentColor" stroke="none">
<g transform="translate(193.75 70.025)"><g><g><path d="M -183.75 -44.97500000000001 l -10 10 l 0 60 l 10 -10 l 0 -60 z"></path><g><path d="M -193.75 10.024999999999991 l 0 15 l 10 -10 l 0 20 l 10 -9.9 l 0 -22.4 l -10 9.95 l 0 -5.15 q -5 6.1 -10 2.5 z"></path></g></g><g><path d="M -113.75 -34.97500000000001 l 10 -10 l -50 0 l -10 10 l 0 35 l 10 -10 l 15 0 l 0 35 l 10 -10 l 0 -35 l -17.35 0 l -7.65 7.6 l 0 -22.6 l 40 0 z"></path><path d="M -123.75 -54.97500000000001 l 10 -10 l -30 0 l -10 10 l 30 0 z"></path></g><g><path d="M -86.25 -44.97500000000001 l -7.5 7.5 57.5 62.5 7.5 -7.5 -57.5 -62.5 z"></path><path d="M -86.25 -44.97500000000001 l -7.5 7.5 q 11.45 4.9 8.7 -6.3 l 8.8 -8.9 l 0 -17.35 l -10 10 l 0 15.05 z"></path><path d="M -33.650000000000006 -34.97500000000001 l -8.8 8.8 l 1.2 1.2 l 20 -20 l -30 0 l -10 10 l 27.6 0 z"></path><path d="M -68.75 -62.47500000000001 l 7.5 7.5 l 7.5 -7.5 l -7.5 -7.5 l -7.5 7.5 z"></path></g><g><path d="M -1.2500000000000284 -44.97500000000001 l -10 10 l 0 36.3 l 10 -10.05 l 0 33.75 l 10 -10 l 0 -36.15 l -10 10 l 0 -23.85 l 30 0 l 10 -10 l -40 0 z"></path></g><g><path d="M 58.75 15.024999999999991 l -10 10 l 50 0 l 10 -10 l 0 -35 l -10 10 l -15 0 l 0 -35 l -10 10 l 0 35 l 17.35 0 l 7.65 -7.6 l 0 22.6 l -40 0 z"></path><path d="M 88.75 -54.97500000000001 l 10 -10 l -30 0 l -10 10 l 30 0 z"></path><path d="M 68.75 45.02499999999999 l 0 25 l 20 -20 l -1.2 -1.2 l -8.8 8.8 l 0 -22.6 l -10 10 z"></path></g><g><path d="M 128.75 -44.97500000000001 l -10 10 l 0 60 l 10 -10 l 0 -60 z"></path><g><path d="M 118.75 10.024999999999991 l 0 15 l 15 0 l 10 -10 l -15 0 l 0 -10 q -3.874 7.753 -10 5 z"></path></g></g><g><path d="M 164.89999999999998 -44.900000000000006 l -10 10 l 0 40 l 9.55 -9.55 l 20.65 29.4 l 7.5 -7.5 l -21.6 -30.85 l -6.1 6.1 l 0 -37.6 z"></path><path d="M 183.75 -54.90000000000001 l 10 -10 l -30 0 l -10 10 l 30 0 z"></path></g></g></g>
</svg>
