<svg xmlns="http://www.w3.org/2000/svg" viewBox="0 0 359 119.925" width="359" height="119.925" fill="currentColor" stroke="none">
<g transform="translate(179.5 59.9625)"><g><g><path d="M -142.7 3.137500000000001 l 7.45 -7.5 27.05 34.4 7.5 -7.5 -27.8 -36 -7.75 7.8 -26.95 -34.3 -7.5 7.5 28 35.6 z"></path><path d="M -169.5 -31.2625 q 4.2 0.65 6.3 -2.7 q 0.8 -1 0 -6 l -6.3 6.3 l 0 -19.95 l -10 10.1 l 0 22.35 l 10 -10.1 z"></path></g><g><path d="M -75.65 -29.9625 l 34.95 0 l 10 -10 l -50 0 l -10 10 l 25 25 l 0 35 l 10 -10 l 0 -30.05 l -19.95 -19.95 z"></path></g><g><path d="M 8.149999999999977 29.9625 l 10 -10 l 0 -40 l -9.55 9.55 l -20.65 -29.4 l -7.5 7.5 l 21.6 30.85 l 6.1 -6.1 l 0 37.6 z"></path><path d="M 9.300000000000011 -49.887499999999996 l 10 -10 l -30 0 l -10 10 l 30 0 z"></path><path d="M -8.199999999999989 47.4625 l 7.5 7.5 l 7.5 -7.5 l -7.5 -7.5 l -7.5 7.5 z"></path></g><g><path d="M 57 29.9625 l 10 -10 l 0 -40 l -9.55 9.55 l -20.65 -29.4 l -7.5 7.5 l 21.6 30.85 l 6.1 -6.1 l 0 37.6 z"></path><g><path d="M 57 29.9625 l 0 -0.1 l 0.05 0 l 9.95 -9.9 l 0 -5 q -5 5.75 -10 5 l 0 7.55 l -12.4 12.45 l 22.4 0 l 17.5 -17.5 l -1.2 -1.2 l -8.6 8.6 l -17.6 0 l -0.1 0.1 z"></path></g><path d="M 66.89999999999998 59.9625 l 10 -10 l -30 0 l -10 10 l 30 0 z"></path></g><g><path d="M 104.5 -39.9625 l -10 10 l 0 60 l 10 -10 l 0 -60 z"></path><g><path d="M 94.5 15.037500000000001 l 0 15 l 15 0 l 10 -10 l -15 0 l 0 -10 q -3.874 7.753 -10 5 z"></path></g></g><g><path d="M 144.5 -39.9625 l -10 10 l 0 35 l 19.95 0 l -24.95 25 l 40 0 l 10 -10 l -37.6 0 l 24.85 -25 l -22.25 0 l 0 -35 z"></path><path d="M 164.5 -49.9625 l 10 -10 l -30 0 l -10 10 l 30 0 z"></path></g></g></g>
</svg>
