<svg xmlns="http://www.w3.org/2000/svg" viewBox="0 0 81.4 150.809368" width="81.4" height="150.809368" fill="currentColor" stroke="none">
<g transform="translate(40.7 75.404684)"><g><g fill="currentColor"><path d="M -9.500000000000007 -54.445315958492486 l -10 10 l 0 40 l 9.55 -9.55 l 20.65 29.4 l 7.5 -7.5 l -21.6 -30.85 l -6.1 6.1 l 0 -37.6 z"></path><g><path d="M -9.500000000000007 -38.795315958492495 l 0 -15.65 l -10 10 q -9.4 -17.75 -21.2 -6.85 q 12.25 -2.15 14.85 15.5 l 6.35 -6.3 l 0 8.1 q 4.8 -9.5 10 -4.8 z"></path></g><g><path d="M 18.199999999999996 7.904684041507501 q -6.8 0.5 -7.5 7.5 l 15 15 l 15 -15 l -1.2 -1.2 l -7.5 7.5 l -13.8 -13.8 z"></path></g><path d="M 10 -65.4046840415075 l 10 -10 l -30 0 l -10 10 l 30 0 z"></path><path d="M 10 65.4046840415075 l 0 -25 l -20 20 l 1.2 1.2 l 8.8 -8.8 l 0 22.6 l 10 -10 z"></path></g></g></g>
</svg>
