<svg xmlns="http://www.w3.org/2000/svg" viewBox="0 0 398.25 110" width="398.25" height="110" fill="currentColor" stroke="none">
<g transform="translate(199.125 55)"><g><g><path d="M -189.125 -35 l -10 10 l 0 60 l 10 -10 l 0 -60 z"></path></g><g><path d="M -136.575 -35 l -10 10 l 0 60 l 10 -10 l 0 -50 l 30 0 l 10 -10 l -40 0 z"></path><g><path d="M -136.575 25 l 0 -7.3 q -4.546 5.888 -10 3.05 l 0 11.95 l -15.05 0 l -17.5 17.5 l 1.2 1.2 l 8.7 -8.7 l 15 0 l 17.65 -17.7 z"></path></g><path d="M -127.85 -45 l 10 -10 l -30 0 l -10 10 l 30 0 z"></path></g><g><path d="M -68.375 -35 l -10 10 l 0 60 l 10 -10 l 0 -60 z"></path><g><path d="M -66.57499999999999 46.8 l -11.8 -11.8 l 10 -10 l 0 -5 q -5.188 7.964 -10 5 l 0 7.7 l -8.2 8.2 l 13 12.9 l 7 -7 z"></path></g></g><g><path d="M 2.825000000000017 -35 l -50 0 l -9.4 9.4 l 23.2 33.05 l 6.2 -6.25 l 0 33.8 l 10 -10 l 0 -36.15 l -1.1 1.1 q -2.967 2.977 -5.95 5.95 l -1.95 2 l -0.65 0.65 l -16.5 -23.5 l 36.2 0 l 10 -10 z"></path><g><path d="M -17.174999999999983 42.6 l 0 -17.6 q -7.3 -5 -10 10 l 0 20 l 17.5 -17.5 l -1.2 -1.2 l -6.3 6.3 z"></path></g><path d="M -16.849999999999994 -45 l 10 -10 l -30 0 l -10 10 l 30 0 z"></path></g><g><path d="M 40.875 8.1 l 7.45 -7.5 27.05 34.4 7.5 -7.5 -27.8 -36 -7.75 7.8 -26.95 -34.3 -7.5 7.5 28 35.6 z"></path><path d="M 50.375 55 l 10 -10 l -30 0 l -10 10 l 30 0 z"></path></g><g><path d="M 152.875 -35.05 l -50 0 l -10 10 l 0 27 l 33.1 33.1 l 7.5 -7.5 l -30.6 -30.6 l 0 -22 l 40 0 l 10 -10 z"></path><g><path d="M 159.175 -28.749999999999996 l -6.3 6.3 l 0 -12.6 l -15 0 q 2.75 6.15 -5 10 l 10 0 l 0 15 l 17.5 -17.5 l -1.2 -1.2 z"></path></g><g><path d="M 128.47500000000002 32.55 l 5 -5 l 10 10 l 7.15 -7.15 l -11.3 -11.2 l -7 7.1 l -1 1 q -3.183 -1.742 -3.85 0 q -0.916 1.293 0 6.25 z"></path></g></g><g><path d="M 199.125 -11.15 l -10 10 l 0 -33.85 l -10 10 l 0 36.2 l 10 -9.95 l 0 33.75 l 10 -10 l 0 -36.15 z"></path><g><path d="M 189.125 32.7 l 0 -13.35 q 5.2 4.7 10 -4.8 l 0 10.45 l -16.35 16.35 q -11.35 -3.25 -12.3 -12.55 q -0.1 -0.8 -0.1 -1.7 q 0 -0.6 0.05 -1.2 q 3.4 6.7 18.7 6.8 z"></path></g></g></g></g>
</svg>
