<svg xmlns="http://www.w3.org/2000/svg" viewBox="0 0 116.85 129.85" width="116.85" height="129.85" fill="currentColor" stroke="none">
<g transform="translate(58.425 64.925)"><g><g fill="currentColor"><path d="M 7.224999999999994 -54.925 l 10 -10 l -65.75 0 l -9.9 9.95 l 30.45 37.55 l 7.25 -7.3 l 24.15 29.65 l 7.45 -7.4 l -25.2 -31.05 l -7.5 7.45 l -23.1 -28.85 l 52.15 0 z"></path><path d="M 10.924999999999997 -2.575000000000003 q -6.8 0.5 -7.5 7.5 l 15 15 l 15 -15 l -1.2 -1.2 l -7.5 7.5 l -13.8 -13.8 z"></path><path d="M -22.5 39.925 l 0 25 l 20 -20 l -1.2 -1.2 l -8.8 8.8 l 0 -22.6 l -10 10 z"></path><path d="M 43.425 -30 l 7.5 7.5 l 7.5 -7.5 l -7.5 -7.5 l -7.5 7.5 z"></path></g></g></g>
</svg>
