<svg xmlns="http://www.w3.org/2000/svg" viewBox="0 0 563.15 146.3" width="563.15" height="146.3" fill="currentColor" stroke="none">
<g transform="translate(281.575 73.15)"><g><g><path d="M -253.57500000000005 -5.125000000000009 l 7.45 -7.5 27.05 34.4 7.5 -7.5 -27.8 -36 -7.75 7.8 -26.95 -34.3 -7.5 7.5 28 35.6 z"></path><path d="M -272.92500000000007 -47.07500000000001 l 15.05 0 l 10 -10 l -17.45 0 l -8.75 8.85 q -1.75 3.2 -4.85 7.2 q 5.7 0.35 6 -6.05 z"></path><path d="M -221.67500000000004 11.774999999999991 q -1.65 2.7 2.6 10 l 12.6 0 l -7.5 7.5 l 1.2 1.2 l 18.7 -18.7 l -20 0 q -7 -2.95 -7.6 0 z"></path></g><g><path d="M -118.42500000000007 -38.150000000000006 l 10 -10 l -65.75 0 l -9.9 9.95 l 30.45 37.55 l 7.25 -7.3 l 24.15 29.65 l 7.45 -7.4 l -25.2 -31.05 l -7.5 7.45 l -23.1 -28.85 l 52.15 0 z"></path><path d="M -153.75000000000006 -65.65 l 7.5 7.5 l 7.5 -7.5 l -7.5 -7.5 l -7.5 7.5 z"></path></g><g><path d="M -88.42500000000007 -48.22500000000001 l -10 10 l 0 60 l 10 -10 l 0 -60 z"></path></g><g><path d="M -12.775000000000091 -38.150000000000006 l 10 -10 l -65.75 0 l -9.9 9.95 l 30.45 37.55 l 7.25 -7.3 l 24.15 29.65 l 7.45 -7.4 l -25.2 -31.05 l -7.5 7.45 l -23.1 -28.85 l 52.15 0 z"></path><g><path d="M -9.075000000000045 14.199999999999989 q -6.8 0.5 -7.5 7.5 l 15 15 l 15 -15 l -1.2 -1.2 l -7.5 7.5 l -13.8 -13.8 z"></path></g><path d="M -22.500000000000114 -58.150000000000006 l 10 -10 l -30 0 l -10 10 l 30 0 z"></path></g><g><path d="M 68.42499999999995 -8.225000000000009 l 7.5 -7.5 -32.5 -32.5 -7.5 7.5 32.5 32.5 m -17.5 -10 l -7.5 7.5 32.5 32.5 7.5 -7.5 -32.5 -32.5 z"></path><path d="M 73.32499999999993 11.774999999999991 q -1.655 2.716 2.6 10 l 15 0 l 10 -10 l -20 0 q -7.015 -2.931 -7.6 0 z"></path><path d="M 33.424999999999955 4.2749999999999915 l -10 10 l 0 25 l 10 -10 l 0 -25 z"></path><path d="M 69.67499999999995 -58.22500000000001 l 10 -10 l -30 0 l -10 10 l 30 0 z"></path></g><g><path d="M 120.82499999999993 -48.25000000000001 l -9.9 9.95 l 47.35 58.35 l 0.05 0 l 1.4 1.75 l 7.5 -7.5 l -42.7 -52.55 l 52.05 0 l 10 -10 l -65.75 0 z"></path><g><path d="M 186.57499999999993 -48.25000000000001 l -15 0 q 2.75 6.15 -5 10 l 10 0 l 0 12.6 l -7.5 7.5 l 1.2 1.2 l 16.3 -16.3 l 0 -15 z"></path></g><g><path d="M 142.22499999999997 51.95 l 1.2 1.2 l 16.3 -16.3 l 0 -15.05 l 7.5 -7.5 q -11.45 -4.9 -8.7 6.3 l -8.8 8.9 l 0 14.95 l -7.5 7.5 z"></path></g><path d="M 158.74999999999994 73.14999999999999 l 10 -10 l -30 0 l -10 10 l 30 0 z"></path></g><g><path d="M 206.575 -48.22500000000001 l -10 10 l 0 60 l 10 -10 l 0 -60 z"></path><g><path d="M 196.575 6.7749999999999915 l 0 15 l 15 0 l 10 -10 l -15 0 l 0 -10 q -3.874 7.753 -10 5 z"></path></g></g><g><path d="M 271.57500000000005 -8.600000000000009 l 10 -10 l -29.85 -29.85 l -7.5 7.5 l 22.35 22.35 l -20 0 l -15 15 l 25.6 25.6 l 7.5 -7.5 l -23.1 -23.1 l 30 0 z"></path><path d="M 266.57500000000005 -58.45000000000001 l 10 -10 l -30 0 l -10 10 l 30 0 z"></path></g></g></g>
</svg>
