<svg xmlns="http://www.w3.org/2000/svg" viewBox="0 0 358.15 147.5" width="358.15" height="147.5" fill="currentColor" stroke="none">
<g transform="translate(179.075 73.75)"><g><g><path d="M -171.57500000000002 -36.25 l -7.5 7.5 57.5 62.5 7.5 -7.5 -57.5 -62.5 z"></path><path d="M -124.17500000000001 23.75 q -1.655 2.716 2.6 10 l 15 0 l 10 -10 l -20 0 q -7.015 -2.931 -7.6 0 z"></path><path d="M -179.07500000000002 26.25 l 0 25 l 20 -20 l -1.2 -1.2 l -8.8 8.8 l 0 -22.6 l -10 10 z"></path><path d="M -160.32500000000002 -66.25 l 20 20 l 7.5 -7.5 l -20 -20 l -7.5 7.5 z"></path></g><g><path d="M -76.57500000000002 -36.25 l -10 10 l 0 60 l 10 -10 l 0 -50 l 30 0 l 10 -10 l -40 0 z"></path><g><path d="M -76.57500000000002 41.35 l 0 -17.6 q -7.3 -5 -10 10 l 0 20 l 17.5 -17.5 l -1.2 -1.2 l -6.3 6.3 z"></path></g><path d="M -51.57500000000002 73.75 l 10 -10 l -30 0 l -10 10 l 30 0 z"></path></g><g><path d="M -16.575000000000017 -36.25 l -10 10 l 0 60 l 10 -10 l 0 -60 z"></path><g><path d="M -26.575000000000017 18.75 l 0 15 l 10 -10 l 0 20 l 10 -9.9 l 0 -22.4 l -10 9.95 l 0 -5.15 q -5 6.1 -10 2.5 z"></path></g></g><g><path d="M 53.42499999999998 -26.25 l 10 -10 l -50 0 l -10 10 l 0 35 l 10 -10 l 15 0 l 0 35 l 10 -10 l 0 -35 l -17.35 0 l -7.65 7.6 l 0 -22.6 l 40 0 z"></path><path d="M 43.42499999999998 -46.25 l 10 -10 l -30 0 l -10 10 l 30 0 z"></path></g><g><path d="M 91.62499999999997 -36.25 l -10 10 l 0 60 l 10 -10 l 0 -60 z"></path><g><path d="M 93.42499999999998 45.55 l -11.8 -11.8 l 10 -10 l 0 -5 q -5.188 7.964 -10 5 l 0 7.7 l -8.2 8.2 l 13 12.9 l 7 -7 z"></path></g></g><g><path d="M 113.32499999999996 -36.275 l -9.9 9.95 l 47.35 58.35 l 0.05 0 l 1.4 1.75 l 7.5 -7.5 l -42.7 -52.55 l 52.05 0 l 10 -10 l -65.75 0 z"></path><g><path d="M 167.225 48.77500000000001 l 7.5 -7.5 l -15 -15 q -6.8 0.5 -7.5 7.5 l 15 15 z"></path></g><path d="M 151.24999999999997 -46.275 l 10 -10 l -30 0 l -10 10 l 30 0 z"></path></g></g></g>
</svg>
