<svg xmlns="http://www.w3.org/2000/svg" viewBox="0 0 411.211572 163.7" width="411.211572" height="163.7" fill="currentColor" stroke="none">
<g transform="translate(205.605786 81.85)"><g><g><path d="M -158.10578613281248 16.85000000000001 l 7.5 -7.5 -26.9 -26.9 7.45 -7.55 -28.05 -28.05 -7.5 7.5 26.9 26.9 -7.5 7.5 28.1 28.1 z"></path><path d="M -175.60578613281248 36.85000000000001 l 10 -10 l -30 0 l -10 10 l 30 0 z"></path></g><g><path d="M -85.60578613281248 -53.12499999999999 l -10 10 l 0 20 l -35 0 l -10 10 l 29.95 29.95 l 7.5 -7.5 l -22.45 -22.45 l 30 0 l 10 -10 l 0 -30 z"></path><g><path d="M -95.25578613281249 -41.025 q 0.375 -0.363 1.15 -1.15 q 6.261 -1.099 8.5 3.8 l 0 -14.75 l -10 10 l -10 -10 l -7.15 7.15 l 11.3 11.2 l 5.85 -5.9 q 0.04 -0.029 0.35 -0.35 z"></path></g><g><path d="M -95.65578613281248 31.82499999999999 l 7.5 -7.5 l -15 -15 q -6.8 0.5 -7.5 7.5 l 15 15 z"></path></g></g><g><path d="M -65.60578613281248 -53.14999999999999 l -10 10 l 0 60 l 10 -10 l 0 -50 l 30 0 l 10 -10 l -40 0 z"></path><path d="M -43.00578613281249 36.85000000000001 l -8.8 8.8 l 1.2 1.2 l 20 -20 l -30 0 l -10 10 l 27.6 0 z"></path></g><g><path d="M 14.844213867187506 -68.14999999999999 l -7.5 7.5 l 21.65 27.5 l 7.45 -7.5 l -21.6 -27.5 z"></path><path d="M -3.105786132812483 -23.14999999999999 l -10 10 l 50 0 l 10 -10 l -50 0 z"></path><path d="M -5.605786132812483 -3.1499999999999915 l -10 10 l 37.55 0 l -9.95 10 l 17.4 0 l 10 -10 l -15 0 l 10 -10 l -40 0 z"></path></g><g fill="currentColor"><path d="M 66.89421386718752 -53.14999999999999 l -10 10 l 0 60 l 10 -10 l 0 -50 l 30 0 l 10 -10 l -40 0 z"></path><g><path d="M 86.89421386718752 -43.14999999999999 l 10 0 l 17.5 -17.5 l -1.2 -1.2 l -8.7 8.7 l -7.6 0 q 0.83 5.4 -10 10 z"></path></g><g><path d="M 66.89421386718752 24.45000000000001 l 0 -17.6 q -7.3 -5 -10 10 l 0 20 l 17.5 -17.5 l -1.2 -1.2 l -6.3 6.3 z"></path></g><path d="M 95.64421386718752 -71.85 l 10 -10 l -30 0 l -10 10 l 30 0 z"></path><path d="M 95.64421386718752 71.85000000000001 l 0 -25 l -20 20 l 1.2 1.2 l 8.8 -8.8 l 0 22.6 l 10 -10 z"></path></g><g fill="currentColor"><path d="M 151.89421386718752 -29.29999999999999 l -10 10 l 0 -33.85 l -10 10 l 0 36.2 l 10 -9.95 l 0 33.75 l 10 -10 l 0 -36.15 z"></path><g><path d="M 131.89421386718752 -60.74999999999999 l 0 17.6 q 7.3 5 10 -10 l 0 -20 l -17.5 17.5 l 1.2 1.2 l 6.3 -6.3 z"></path></g><g><path d="M 151.89421386718752 24.45000000000001 l 0 -17.6 q -7.3 -5 -10 10 l 0 20 l 17.5 -17.5 l -1.2 -1.2 l -6.3 6.3 z"></path></g></g><g fill="currentColor"><path d="M 189.39421386718752 -29.29999999999999 l -10 10 l 0 -33.85 l -10 10 l 0 36.2 l 10 -9.95 l 0 33.75 l 10 -10 l 0 -36.15 z"></path><g><path d="M 179.39421386718752 1.20000000000001 l 0 15.65 l 10 -10.05 q 10.8 2.6 16.2 18.85 q 0.35 -21.9 -9.85 -27.5 l -6.35 6.35 l 0 -8.1 q -4.8 9.5 -10 4.8 z"></path></g></g></g></g>
</svg>
