<svg xmlns="http://www.w3.org/2000/svg" viewBox="0 0 80 172.294907" width="80" height="172.294907" fill="currentColor" stroke="none">
<g transform="translate(40 86.147453)"><g><g><path d="M 5 6.25 l 7.5 -7.5 -32.5 -32.5 -7.5 7.5 32.5 32.5 m -17.5 -10 l -7.5 7.5 32.5 32.5 7.5 -7.5 -32.5 -32.5 z"></path><path d="M -26.3 -25.05 q 4.2 0.65 6.3 -2.7 q 0.8 -1 0 -6 l -6.3 6.3 l 0 -19.95 l -10 10.1 l 0 22.35 l 10 -10.1 z"></path><path d="M 9.899999999999999 26.25 q -1.655 2.716 2.6 10 l 15 0 l 10 -10 l -20 0 q -7.015 -2.931 -7.6 0 z"></path><path d="M -30 18.75 l -10 10 l 0 25 l 10 -10 l 0 -25 z"></path><path d="M 27.599999999999994 -23.75 l -8.8 8.8 l 1.2 1.2 l 20 -20 l -30 0 l -10 10 l 27.6 0 z"></path><path d="M 6.25 -43.75 l 10 -10 l -30 0 l -10 10 l 30 0 z"></path></g></g></g>
</svg>
