<svg xmlns="http://www.w3.org/2000/svg" viewBox="0 0 120.996094 116.2" width="120.996094" height="116.2" fill="currentColor" stroke="none">
<g transform="translate(60.498047 58.1)"><g><g><path d="M -32.498046875 -15.000000000000002 l 7.45 -7.5 27.05 34.4 7.5 -7.5 -27.8 -36 -7.75 7.8 -26.95 -34.3 -7.5 7.5 28 35.6 z"></path></g><g><path d="M 59.501953125 -58.1 l -10 10 l 0 20 l -20 0 l -10 10 l 0 30 l 30 0 l 10 -10 l -30 0 l 0 -20 l 20 0 l 10 -10 l 0 -30 z"></path><g><path d="M 43.851953124999994 1.8999999999999986 l 15.65 0 l -10 10 q 17.75 9.4 6.85 21.2 q 2.15 -12.25 -15.5 -14.85 l 6.3 -6.35 l -8.1 0 q 9.5 -4.8 4.8 -10 z"></path></g><path d="M 32.468615291507504 50.6 l 7.5 7.5 l 7.5 -7.5 l -7.5 -7.5 l -7.5 7.5 z"></path></g></g></g>
</svg>
