<svg xmlns="http://www.w3.org/2000/svg" viewBox="0 0 244.6 110" width="244.6" height="110" fill="currentColor" stroke="none">
<g transform="translate(122.3 55)"><g><g><path d="M -114.80000000000001 -35 l -7.5 7.5 57.5 62.5 7.5 -7.5 -57.5 -62.5 z"></path><path d="M -60.35000000000001 28.6 q -1.825 3.28 -4.45 6.4 l -7.5 7.5 l -1.2 -1.2 l 7.5 -7.5 q -1.688 -4.106 -0.35 -4.55 q 1.45 -0.6 6 -0.65 z"></path><path d="M -79.80000000000001 -45 l 10 -10 l -30 0 l -10 10 l 30 0 z"></path></g><g><path d="M -37.400000000000006 -35.025 l -9.9 9.95 l 47.35 58.35 l 0.05 0 l 1.4 1.75 l 7.5 -7.5 l -42.7 -52.55 l 52.05 0 l 10 -10 l -65.75 0 z"></path><g><path d="M 8.349999999999994 -25.025 l 10 0 l 17.5 -17.5 l -1.2 -1.2 l -8.7 8.7 l -7.6 0 q 0.83 5.4 -10 10 z"></path></g><g><path d="M 4.099999999999994 45.02500000000001 l 17.4 0 l 10 -10 l -15 0 l 10 -10 l -20 0 q -7 -2.95 -7.6 0 q -1.65 2.7 2.6 10 l 12.55 0 l -9.95 10 z"></path></g></g><g><path d="M 83 -11.15 l -10 10 l 0 -33.85 l -10 10 l 0 36.2 l 10 -9.95 l 0 33.75 l 10 -10 l 0 -36.15 z"></path><g><path d="M 63.349999999999994 -22.9 q 0.375 -0.363 1.15 -1.15 q 6.261 -1.099 8.5 3.8 l 0 -14.75 l -10 10 l -10 -10 l -7.15 7.15 l 11.3 11.2 l 5.85 -5.9 q 0.04 -0.029 0.35 -0.35 z"></path></g><g><path d="M 84.80000000000001 46.8 l -11.8 -11.8 l 10 -10 l 0 -5 q -5.188 7.964 -10 5 l 0 7.7 l -8.2 8.2 l 13 12.9 l 7 -7 z"></path></g></g><g><path d="M 114.80000000000001 -11.15 l -10 10 l 0 -33.85 l -10 10 l 0 36.2 l 10 -9.95 l 0 33.75 l 10 -10 l 0 -36.15 z"></path><g><path d="M 114.80000000000001 42.6 l 0 -17.6 q -7.3 -5 -10 10 l 0 20 l 17.5 -17.5 l -1.2 -1.2 l -6.3 6.3 z"></path></g></g></g></g>
</svg>
