<svg xmlns="http://www.w3.org/2000/svg" viewBox="0 0 369.45 135" width="369.45" height="135" fill="currentColor" stroke="none">
<g transform="translate(184.725 67.5)"><g><g><path d="M -164.725 -47.5 l -10 10 l 0 60 l 10 -10 l 0 -60 z"></path><g><path d="M -164.725 -32.5 l 0 -15 l -10 10 l 0 -20 l -10 9.9 l 0 22.4 l 10 -9.95 l 0 5.15 q 5 -6.1 10 -2.5 z"></path></g><g><path d="M -174.725 7.5 l 0 15 l 10 -10 l 0 20 l 10 -9.9 l 0 -22.4 l -10 9.95 l 0 -5.15 q -5 6.1 -10 2.5 z"></path></g></g><g><path d="M -134.725 -47.5 l -10 10 l 0 36.3 l 10 -10.05 l 0 33.75 l 10 -10 l 0 -36.15 l -10 10 l 0 -23.85 l 30 0 l 10 -10 l -40 0 z"></path><g><path d="M -124.725 30.1 l 0 -17.6 q -7.3 -5 -10 10 l 0 20 l 17.5 -17.5 l -1.2 -1.2 l -6.3 6.3 z"></path></g><path d="M -109.725 -57.5 l 10 -10 l -30 0 l -10 10 l 30 0 z"></path></g><g><path d="M -28.424999999999983 22.5 l 7.5 -7.5 -26.9 -26.9 7.45 -7.55 -28.05 -28.05 -7.5 7.5 26.9 26.9 -7.5 7.5 28.1 28.1 z"></path><path d="M -74.725 -38.8 q 6.486 1.216 4.75 -5 q -2.924 3.894 -5.95 3.8 l -8.8 8.8 l 0 15 l 10 -10 l 0 -12.6 z"></path></g><g><path d="M -1.0250000000000057 -47.525 l -9.9 9.95 l 47.35 58.35 l 0.05 0 l 1.4 1.75 l 7.5 -7.5 l -42.7 -52.55 l 52.05 0 l 10 -10 l -65.75 0 z"></path></g><g><path d="M 82.225 -47.5 l -7.5 7.5 l 31.25 31.25 l -31.25 31.25 l 40 0 l 10 -10 l -37.6 0 l 27.5 -27.6 l -32.4 -32.4 z"></path><path d="M 109.725 57.5 l 0 -25 l -20 20 l 1.2 1.2 l 8.8 -8.8 l 0 22.6 l 10 -10 z"></path></g><g><path d="M 177.225 22.5 l 7.5 -7.5 l -31.25 -31.25 l 31.25 -31.25 l -40 0 l -10 10 l 37.6 0 l -27.5 27.6 l 32.4 32.4 z"></path><path d="M 169.725 42.5 l 10 -10 l -30 0 l -10 10 l 30 0 z"></path></g></g></g>
</svg>
