<svg xmlns="http://www.w3.org/2000/svg" viewBox="0 0 383.1 121.55" width="383.1" height="121.55" fill="currentColor" stroke="none">
<g transform="translate(191.55 60.775)"><g><g><path d="M -184.04999999999998 -40.800000000000004 l -7.5 7.5 57.5 62.5 7.5 -7.5 -57.5 -62.5 z"></path><path d="M -156.54999999999998 49.199999999999996 l 10 -10 l -30 0 l -10 10 l 30 0 z"></path></g><g><path d="M -76.54999999999998 -1.1750000000000043 l 10 -10 l -29.85 -29.85 l -7.5 7.5 l 22.35 22.35 l -20 0 l -15 15 l 25.6 25.6 l 7.5 -7.5 l -23.1 -23.1 l 30 0 z"></path><g><path d="M -108.44999999999999 59.574999999999996 l 1.2 1.2 l 16.3 -16.3 l 0 -15.05 l 7.5 -7.5 q -11.45 -4.9 -8.7 6.3 l -8.8 8.9 l 0 14.95 l -7.5 7.5 z"></path></g></g><g><path d="M -34.14999999999998 -40.800000000000004 l -10 10 l 0 60 l 10 -10 l 0 -60 z"></path><g><path d="M -56.54999999999998 39.199999999999996 l 22.4 0 l 10 -10.1 l -19.9 0 l -0.1 0.1 l 0 -0.1 l 0.05 0 l 9.95 -9.9 l 0 -5 q -5 5.774 -10 5 l 0 7.55 l -12.4 12.4 z"></path></g></g><g><path d="M 40.85000000000002 -40.775000000000006 l -10 10 l 0 20 l -35 0 l -10 10 l 29.95 29.95 l 7.5 -7.5 l -22.45 -22.45 l 30 0 l 10 -10 l 0 -30 z"></path><g><path d="M 13.200000000000017 19.174999999999976 q -1.65 2.7 2.6 10 l 12.6 0 l -7.5 7.5 l 1.2 1.2 l 18.7 -18.7 l -20 0 q -7 -2.95 -7.6 0 z"></path></g><path d="M 23.350000000000023 -50.77500000000001 l 10 -10 l -30 0 l -10 10 l 30 0 z"></path></g><g><path d="M 58.35000000000002 -40.800000000000004 l -7.5 7.5 57.5 62.5 7.5 -7.5 -57.5 -62.5 z"></path><path d="M 85.85 49.199999999999996 l 10 -10 l -30 0 l -10 10 l 30 0 z"></path></g><g><path d="M 133.35 -40.775000000000006 l -7.5 7.5 l 22.75 22.7 l -9.75 9.8 l 0 30 l 25 0 l 10 -10 l -25 0 l -0.1 -27.55 l 8.55 -8.5 l -24 -24 z"></path><g><path d="M 179.04999999999998 11.725000000000001 l -7.5 7.5 l -11.1 0 q 3.05 5.25 -1.5 10 l 5 0 l 8.8 -8.85 q 0.445 14.232 18.8 18.85 q -12.993 -10.704 -12.45 -27.5 z"></path></g></g></g></g>
</svg>
