<svg xmlns="http://www.w3.org/2000/svg" viewBox="0 0 72.5 172.294907" width="72.5" height="172.294907" fill="currentColor" stroke="none">
<g transform="translate(36.25 86.147453)"><g><g><path d="M -26.25 -49.35 l -10 10 l 0 60 l 10 -10 l 0 -50 l 30 0 l 10 -10 l -40 0 z"></path><g><path d="M 36.25 -41.85 l -1.2 -1.2 l -7.5 7.5 l -13.8 -13.8 q -8.65 2.75 -10 10 l 5 0 l 12.5 12.5 l 15 -15 z"></path></g><g><path d="M -36.25 5.649999999999999 l 0 15 l 12.6 0 l -7.5 7.5 l 1.2 1.2 l 18.7 -18.7 l -15 0 l 0 -10 q -3.85 7.75 -10 5 z"></path></g><path d="M 10 49.35 l 10 -10 l -30 0 l -10 10 l 30 0 z"></path></g></g></g>
</svg>
