<svg xmlns="http://www.w3.org/2000/svg" viewBox="0 0 90 100" width="90" height="100" fill="currentColor" stroke="none">
<g transform="translate(45 50)"><g><g fill="currentColor"><path d="M -10 -50 l -10 10 l 0 35 l 26.3 0 l 8.7 -8.75 l 0 33.75 l 10 -10 l 0 -36.15 l -11.15 11.15 l -23.85 0 l 0 -35 z"></path><g><path d="M -19.95 -37.6 l -0.05 5.05 q 4.6 -6.3 10 -4 l 0 -13.45 l -9.95 10 l -12.65 0 l 7.5 -7.5 l -1.2 -1.2 l -18.7 18.7 l 17.45 0 l 7.6 -7.6 z"></path></g><g><path d="M 45 20 l -15 0 l 10 -10 l -15 0 l 0 -10 q -3.85 7.75 -10 5 l 0 15 l 12.55 0 l -9.95 10 l 17.4 0 l 10 -10 z"></path></g><path d="M 10 50 l 10 -10 l -30 0 l -10 10 l 30 0 z"></path></g></g></g>
</svg>
