<svg xmlns="http://www.w3.org/2000/svg" viewBox="0 0 83.8 172.294907" width="83.8" height="172.294907" fill="currentColor" stroke="none">
<g transform="translate(41.9 86.147453)"><g><g><path d="M -5.100000000000001 18.1 l 7.45 -7.5 27.05 34.4 7.5 -7.5 -27.8 -36 -7.75 7.8 -26.95 -34.3 -7.5 7.5 28 35.6 z"></path><path d="M -31.9 -16.3 q 6.486 1.216 4.75 -5 q -2.924 3.894 -5.95 3.8 l -8.8 8.8 l 0 15 l 10 -10 l 0 -12.6 z"></path><path d="M 31.9 -15 l 10 -10 l -30 0 l -10 10 l 30 0 z"></path><path d="M 11.899999999999999 -35 l 10 -10 l -30 0 l -10 10 l 30 0 z"></path></g></g></g>
</svg>
