<svg xmlns="http://www.w3.org/2000/svg" viewBox="0 0 439.8 115.225" width="439.8" height="115.225" fill="currentColor" stroke="none">
<g transform="translate(219.9 57.6125)"><g><g><path d="M -209.9 -22.387500000000003 l -10 10 l 0 60 l 10 -10 l 0 -60 z"></path><g><path d="M -219.9 32.6125 l 0 15 l 15 0 l 10 -10 l -15 0 l 0 -10 q -3.874 7.753 -10 5 z"></path></g></g><g><path d="M -129.9 -22.362500000000004 l -10 10 l 0 20 l -35 0 l -10 10 l 29.95 29.95 l 7.5 -7.5 l -22.45 -22.45 l 30 0 l 10 -10 l 0 -30 z"></path><g><path d="M -157.55 37.58749999999998 q -1.65 2.7 2.6 10 l 12.6 0 l -7.5 7.5 l 1.2 1.2 l 18.7 -18.7 l -20 0 q -7 -2.95 -7.6 0 z"></path></g><path d="M -147.4 -32.36250000000001 l 10 -10 l -30 0 l -10 10 l 30 0 z"></path></g><g><path d="M -97.5 -22.387500000000003 l -10 10 l 0 60 l 10 -10 l 0 -60 z"></path><g><path d="M -119.9 57.6125 l 22.4 0 l 10 -10.1 l -19.9 0 l -0.1 0.1 l 0 -0.1 l 0.05 0 l 9.95 -9.9 l 0 -5 q -5 5.774 -10 5 l 0 7.55 l -12.4 12.4 z"></path></g></g><g><path d="M -22.5 -22.362500000000004 l -10 10 l 0 20 l -35 0 l -10 10 l 29.95 29.95 l 7.5 -7.5 l -22.45 -22.45 l 30 0 l 10 -10 l 0 -30 z"></path><g><path d="M -50.150000000000006 37.58749999999998 q -1.655 2.716 2.6 10 l 15 0 l 10 -10 l -20 0 q -7.015 -2.931 -7.6 0 z"></path></g><path d="M -40 -32.36250000000001 l 10 -10 l -30 0 l -10 10 l 30 0 z"></path></g><g><path d="M -2.5 -22.387500000000003 l -10 10 l 0 60 l 10 -10 l 0 -60 z"></path><g><path d="M -12.5 32.6125 l 0 15 l 10 -10 l 0 20 l 10 -9.9 l 0 -22.4 l -10 9.95 l 0 -5.15 q -5 6.1 -10 2.5 z"></path></g></g><g><path d="M 27.49999999999997 -22.387500000000003 l -10 10 l 0 60 l 10 -10 l 0 -50 l 30 0 l 10 -10 l -40 0 z"></path><path d="M 52.49999999999997 -32.3875 l 10 -10 l -30 0 l -10 10 l 30 0 z"></path></g><g><path d="M 87.49999999999997 -22.387500000000003 l -10 10 l 0 60 l 10 -10 l 0 -60 z"></path><g><path d="M 87.54999999999998 -20.087500000000006 l 15 0 l 10 -10 l -17.4 0 l -17.65 17.7 l 0 7.3 q 5.4 -4.35 10 -2.75 l 0 -12.25 z"></path></g><g><path d="M 77.49999999999997 32.6125 l 0 15 l 15 0 l 10 -10 l -15 0 l 0 -10 q -3.874 7.753 -10 5 z"></path></g></g><g><path d="M 164.9 17.237499999999997 l 10 -10 l -29.85 -29.85 l -7.5 7.5 l 22.35 22.35 l -20 0 l -15 15 l 25.6 25.6 l 7.5 -7.5 l -23.1 -23.1 l 30 0 z"></path><g><path d="M 130.04999999999998 -37.612500000000004 l -7.5 7.5 l 15 15 q 6.8 -0.5 7.5 -7.5 l -15 -15 z"></path></g><g><path d="M 151.6 44.7875 q 3.28 -1.825 6.4 -4.45 l 7.5 -7.5 l -1.2 -1.2 l -7.5 7.5 q -4.106 -1.688 -4.55 -0.35 q -0.6 1.45 -0.65 6 z"></path></g><path d="M 158.725 -47.612500000000004 l 10 -10 l -30 0 l -10 10 l 30 0 z"></path></g><g><path d="M 204.9 1.4624999999999968 l -10 10 l 0 -33.85 l -10 10 l 0 36.2 l 10 -9.95 l 0 33.75 l 10 -10 l 0 -36.15 z"></path><g><path d="M 194.9 32.6125 l 0 15 l 12.6 0 l -7.5 7.5 l 1.2 1.2 l 18.7 -18.7 l -15 0 l 0 -10 q -3.85 7.75 -10 5 z"></path></g></g></g></g>
</svg>
