<svg xmlns="http://www.w3.org/2000/svg" viewBox="0 0 247.4 110" width="247.4" height="110" fill="currentColor" stroke="none">
<g transform="translate(123.7 55)"><g><g><path d="M -101.30000000000001 -35 l -10 10 l 0 60 l 10 -10 l 0 -60 z"></path><g><path d="M -123.7 45 l 22.4 0 l 10 -10.1 l -19.9 0 l -0.1 0.1 l 0 -0.1 l 0.05 0 l 9.95 -9.9 l 0 -5 q -5 5.774 -10 5 l 0 7.55 l -12.4 12.4 z"></path></g></g><g><path d="M -73.80000000000001 -35 l -7.5 7.5 l 31.25 31.25 l -31.25 31.25 l 40 0 l 10 -10 l -37.6 0 l 27.5 -27.6 l -32.4 -32.4 z"></path><path d="M -46.3 -45 l 10 -10 l -30 0 l -10 10 l 30 0 z"></path></g><g><path d="M 6.700000000000003 8.1 l 7.45 -7.5 27.05 34.4 7.5 -7.5 -27.8 -36 -7.75 7.8 -26.95 -34.3 -7.5 7.5 28 35.6 z"></path><path d="M 16.200000000000003 55 l 10 -10 l -30 0 l -10 10 l 30 0 z"></path></g><g><path d="M 68.7 -35 l -10 10 l 0 60 l 40 0 l 10 -10 l -40 0 l 0 -50 l 30 0 l 10 -10 l -40 0 z"></path><g><path d="M 103.7 -25 l 12.5 12.5 l 7.5 -7.5 l -15 -15 q -8.65 2.75 -10 10 l 5 0 z"></path></g><g><path d="M 103.7 35 l 12.5 12.5 l 7.5 -7.5 l -15 -15 q -8.65 2.75 -10 10 l 5 0 z"></path></g></g></g></g>
</svg>
