<svg xmlns="http://www.w3.org/2000/svg" viewBox="0 0 92.45 172.294907" width="92.45" height="172.294907" fill="currentColor" stroke="none">
<g transform="translate(46.225 86.147453)"><g><g><path d="M -3.674999999999997 -33.2 l -10 10 l 0 60 l 10 -10 l 0 -50 l 30 0 l 10 -10 l -40 0 z"></path><g><path d="M 13.925000000000004 -13.200000000000003 l 22.4 0 l 9.9 -10 l -19.9 0 l 10 -10 l -12.65 0 q 5.504 3.447 -5.3 10 l 5.5 0 l -9.95 10 z"></path></g><g><path d="M -3.674999999999997 26.799999999999997 l 0 -7.3 q -4.546 5.888 -10 3.05 l 0 11.95 l -15.05 0 l -17.5 17.5 l 1.2 1.2 l 8.7 -8.7 l 15 0 l 17.65 -17.7 z"></path></g><path d="M 10 -43.2 l 10 -10 l -30 0 l -10 10 l 30 0 z"></path></g></g></g>
</svg>
