<svg xmlns="http://www.w3.org/2000/svg" viewBox="0 0 237.45 106.4" width="237.45" height="106.4" fill="currentColor" stroke="none">
<g transform="translate(118.725 53.2)"><g><g><path d="M -98.72500000000002 -33.2 l -10 10 l 0 60 l 10 -10 l 0 -60 z"></path><g><path d="M -98.72500000000002 -18.200000000000003 l 0 -15 l -10 10 l 0 -20 l -10 9.9 l 0 22.4 l 10 -9.95 l 0 5.15 q 5 -6.1 10 -2.5 z"></path></g><g><path d="M -108.72500000000002 21.799999999999997 l 0 15 l 15 0 l 10 -10 l -15 0 l 0 -10 q -3.874 7.753 -10 5 z"></path></g></g><g><path d="M -31.175000000000026 -33.2 l -10 10 l 0 60 l 10 -10 l 0 -50 l 30 0 l 10 -10 l -40 0 z"></path><g><path d="M -13.575000000000017 -13.200000000000003 l 22.4 0 l 9.9 -10 l -19.9 0 l 10 -10 l -12.65 0 q 5.504 3.447 -5.3 10 l 5.5 0 l -9.95 10 z"></path></g><g><path d="M -31.175000000000026 26.799999999999997 l 0 -7.3 q -4.546 5.888 -10 3.05 l 0 11.95 l -15.05 0 l -17.5 17.5 l 1.2 1.2 l 8.7 -8.7 l 15 0 l 17.65 -17.7 z"></path></g><path d="M -17.50000000000003 -43.2 l 10 -10 l -30 0 l -10 10 l 30 0 z"></path></g><g><path d="M 38.724999999999994 -33.2 l -10 10 l 0 60 l 10 -10 l 0 -60 z"></path><g><path d="M 28.724999999999994 21.799999999999997 l 0 15 l 10 -10 l 0 20 l 10 -9.9 l 0 -22.4 l -10 9.95 l 0 -5.15 q -5 6.1 -10 2.5 z"></path></g></g><g><path d="M 73.775 -23.200000000000003 l 34.95 0 l 10 -10 l -50 0 l -10 10 l 25 25 l 0 35 l 10 -10 l 0 -30.05 l -19.95 -19.95 z"></path><path d="M 98.725 -43.2 l 10 -10 l -30 0 l -10 10 l 30 0 z"></path></g></g></g>
</svg>
