<svg xmlns="http://www.w3.org/2000/svg" viewBox="0 0 203.8 108.825" width="203.8" height="108.825" fill="currentColor" stroke="none">
<g transform="translate(101.9 54.4125)"><g><g><path d="M -83.69999999999999 -34.38750000000001 l -10 10 l 0 60 l 10 -10 l 0 -60 z"></path><g><path d="M -81.89999999999999 47.41249999999999 l -11.8 -11.8 l 10 -10 l 0 -5 q -5.188 7.964 -10 5 l 0 7.7 l -8.2 8.2 l 13 12.9 l 7 -7 z"></path></g></g><g><path d="M -16.89999999999999 -34.36250000000001 l -10 10 l 0 20 l -35 0 l -10 10 l 29.95 29.95 l 7.5 -7.5 l -22.45 -22.45 l 30 0 l 10 -10 l 0 -30 z"></path><g><path d="M -35.64999999999999 26.88749999999997 q -6.486 -1.216 -4.75 5 q 2.924 -3.894 5.95 -3.8 l 8.8 -8.8 l 0 -15 l -10 10 l 0 12.6 z"></path></g><path d="M -34.39999999999999 -44.36250000000002 l 10 -10 l -30 0 l -10 10 l 30 0 z"></path></g><g><path d="M 11.300000000000011 -34.38750000000001 l -10 10 l 0 60 l 10 -10 l 0 -60 z"></path><g><path d="M 13.100000000000009 47.41249999999999 l -11.8 -11.8 l 10 -10 l 0 -5 q -5.188 7.964 -10 5 l 0 7.7 l -8.2 8.2 l 13 12.9 l 7 -7 z"></path></g></g><g><path d="M 33.000000000000014 -34.41250000000001 l -9.9 9.95 l 47.35 58.35 l 0.05 0 l 1.4 1.75 l 7.5 -7.5 l -42.7 -52.55 l 52.05 0 l 10 -10 l -65.75 0 z"></path><g><path d="M 79.39999999999999 28.137500000000003 q -6.8 0.5 -7.5 7.5 l 15 15 l 15 -15 l -1.2 -1.2 l -7.5 7.5 l -13.8 -13.8 z"></path></g><path d="M 72.49999999999999 -44.41250000000001 l 10 -10 l -30 0 l -10 10 l 30 0 z"></path></g></g></g>
</svg>
