<svg xmlns="http://www.w3.org/2000/svg" viewBox="0 0 727.65 152.475" width="727.65" height="152.475" fill="currentColor" stroke="none">
<g transform="translate(363.825 76.2375)"><g><g><path d="M -353.82500000000005 -38.73750000000001 l -10 10 l 0 60 l 10 -10 l 0 -60 z"></path><g><path d="M -363.82500000000005 16.26249999999999 l 0 15 l 15 0 l 10 -10 l -15 0 l 0 -10 q -3.874 7.753 -10 5 z"></path></g></g><g><path d="M -263.17500000000007 -28.662500000000012 l 10 -10 l -65.75 0 l -9.9 9.95 l 30.45 37.55 l 7.25 -7.3 l 24.15 29.65 l 7.45 -7.4 l -25.2 -31.05 l -7.5 7.45 l -23.1 -28.85 l 52.15 0 z"></path><path d="M -281.00000000000006 -48.66250000000001 l 10 -10 l -30 0 l -10 10 l 30 0 z"></path></g><g><path d="M -228.17500000000007 -38.73750000000001 l -7.5 7.5 57.5 62.5 7.5 -7.5 -57.5 -62.5 z"></path><path d="M -229.27500000000006 -35.687500000000014 q -3.28 1.825 -6.4 4.45 l -7.5 7.5 l 1.2 1.2 l 7.5 -7.5 q 4.106 1.688 4.55 0.35 q 0.6 -1.45 0.65 -6 z"></path><path d="M -180.77500000000006 21.26249999999999 q -1.655 2.716 2.6 10 l 15 0 l 10 -10 l -20 0 q -7.015 -2.931 -7.6 0 z"></path><path d="M -173.17500000000007 -28.73750000000001 l 10 -10 l -30 0 l -10 10 l 30 0 z"></path><path d="M -216.92500000000007 -68.73750000000001 l 20 20 l 7.5 -7.5 l -20 -20 l -7.5 7.5 z"></path></g><g><path d="M -83.77500000000009 -38.73750000000001 l -50 0 l -9.4 9.4 l 23.2 33.05 l 6.2 -6.25 l 0 33.8 l 10 -10 l 0 -36.15 l -1.1 1.1 q -2.967 2.977 -5.95 5.95 l -1.95 2 l -0.65 0.65 l -16.5 -23.5 l 36.2 0 l 10 -10 z"></path><g><path d="M -113.77500000000006 51.26249999999999 l 10 -10 l 0 -20 q -7.3 -5 -10 10 l 0 20 z"></path></g></g><g><path d="M -28.77500000000009 21.26249999999999 l -34.95 0 l -10 10 l 50 0 l 10 -10 l -25 -25 l 0 -35 l -10 10 l 0 30.05 l 19.95 19.95 z"></path><path d="M -33.72500000000008 51.26249999999999 l 10 -10 l -30 0 l -10 10 l 30 0 z"></path></g><g><path d="M -3.7250000000000796 31.23749999999999 l 10 -10 l 0 -20 l 35 0 l 10 -10 l -29.95 -29.95 l -7.5 7.5 l 22.45 22.45 l -30 0 l -10 10 l 0 30 z"></path><path d="M 33.77499999999992 -48.712500000000006 l 10 -10 l -30 0 l -10 10 l 30 0 z"></path><path d="M 13.77499999999992 51.2375 l 0 25 l 20 -20 l -1.2 -1.2 l -8.8 8.8 l 0 -22.6 l -10 10 z"></path></g><g><path d="M 114.32499999999993 4.362499999999988 l 7.45 -7.5 27.05 34.4 7.5 -7.5 -27.8 -36 -7.75 7.8 -26.95 -34.3 -7.5 7.5 28 35.6 z"></path><path d="M 86.32499999999993 -31.23750000000001 l -15.05 0 l -10 10 l 17.45 0 l 8.75 -8.8 q 6.9 0.2 3.8 -6.15 l -4.95 4.95 z"></path><path d="M 146.2249999999999 21.26249999999999 q -1.655 2.716 2.6 10 l 15 0 l 10 -10 l -20 0 q -7.015 -2.931 -7.6 0 z"></path><path d="M 148.92499999999995 -28.73750000000001 l -8.8 8.8 l 1.2 1.2 l 20 -20 l -30 0 l -10 10 l 27.6 0 z"></path></g><g><path d="M 193.82499999999993 -38.73750000000001 l -10 10 l 0 60 l 10 -10 l 0 -50 l 30 0 l 10 -10 l -40 0 z"></path><g><path d="M 193.82499999999993 38.86249999999999 l 0 -17.6 q -7.3 -5 -10 10 l 0 20 l 17.5 -17.5 l -1.2 -1.2 l -6.3 6.3 z"></path></g></g><g><path d="M 283.82499999999993 31.26249999999999 l 10 -10 l 0 -60 l -40 0 l -10 10 l 40 0 l 0 60 z"></path><g><path d="M 293.82499999999993 21.26249999999999 l 0 -7.3 q -4.546 5.888 -10 3.05 l 0 11.95 l -15.05 0 l -17.5 17.5 l 1.2 1.2 l 8.7 -8.7 l 15 0 l 17.65 -17.7 z"></path></g><path d="M 261.32499999999993 -56.23750000000001 l 7.5 7.5 l 7.5 -7.5 l -7.5 -7.5 l -7.5 7.5 z"></path><path d="M 261.32499999999993 65.1625 l 7.5 7.5 l 7.5 -7.5 l -7.5 -7.5 l -7.5 7.5 z"></path></g><g><path d="M 331.7750000000001 -53.73750000000001 l -7.5 7.5 l 21.65 27.5 l 7.45 -7.5 l -21.6 -27.5 z"></path><path d="M 313.82500000000005 -8.737500000000011 l -10 10 l 50 0 l 10 -10 l -50 0 z"></path></g></g></g>
</svg>
