<svg xmlns="http://www.w3.org/2000/svg" viewBox="0 0 60 172.294907" width="60" height="172.294907" fill="currentColor" stroke="none">
<g transform="translate(30 86.147453)"><g><g><path d="M -20 -52.074999999999996 l -10 10 l 0 30 l 30 30 l 7.5 -7.5 l -27.5 -27.5 l 0 -35 z"></path><g><path d="M -30 -42.074999999999996 l 0 5 q 6.25 -9 10 -5 l 0 -7.6 l 11.8 11.7 l 7 -7 l -12.95 -12.95 l -15.85 15.85 z"></path></g><g><path d="M 2.6000000000000014 27.925000000000004 l 17.4 0 l 10 -10 l -15 0 l 10 -10 l -20 0 q -7 -2.95 -7.6 0 q -1.65 2.7 2.6 10 l 12.55 0 l -9.95 10 z"></path></g><path d="M -7.600000000000001 47.925000000000004 l 8.8 -8.8 l -1.2 -1.2 l -20 20 l 30 0 l 10 -10 l -27.6 0 z"></path></g></g></g>
</svg>
