<svg xmlns="http://www.w3.org/2000/svg" viewBox="0 0 112.2 172.294907" width="112.2" height="172.294907" fill="currentColor" stroke="none">
<g transform="translate(56.1 86.147453)"><g><g><path d="M -10.95000000000001 17.5 l 7.45 -7.5 27.05 34.4 7.5 -7.5 -27.8 -36 -7.75 7.8 -26.95 -34.3 -7.5 7.5 28 35.6 z"></path><path d="M -33.95000000000001 -23.1 l -5 5 l -10 -10 l -7.15 7.15 l 11.3 11.2 l 7 -7.1 l 1 -1 q 3.183 1.742 3.85 0 q 0.916 -1.293 0 -6.25 z"></path><path d="M 31.049999999999997 36.9 l 12.65 0 l -7.5 7.5 l 1.2 1.2 l 18.7 -18.7 l -17.45 0 l -8.75 8.8 q -6.9 -0.2 -3.8 6.15 l 4.95 -4.95 z"></path><path d="M 6.04999999999999 -35.6 l 10 -10 l -30 0 l -10 10 l 30 0 z"></path></g></g></g>
</svg>
