<svg xmlns="http://www.w3.org/2000/svg" viewBox="0 0 139.3 123.675" width="139.3" height="123.675" fill="currentColor" stroke="none">
<g transform="translate(69.65 61.8375)"><g><g><path d="M -41.650000000000006 -10.062499999999995 l 7.45 -7.5 27.05 34.4 7.5 -7.5 -27.8 -36 -7.75 7.8 -26.95 -34.3 -7.5 7.5 28 35.6 z"></path><path d="M 4.6499999999999915 28.637500000000003 l -11.8 -11.8 l 5 -5 q -7.681 -1.687 -7.1 0.5 l 0.95 3.35 l -7.05 7.05 l 13 12.9 z"></path><path d="M -67.15 -3.1624999999999943 l 20 20 l 7.5 -7.5 l -20 -20 l -7.5 7.5 z"></path><path d="M -37.150000000000006 26.837500000000006 l -10 10 l 0 25 l 10 -10 l 0 -25 z"></path></g><g><path d="M 69.65 -53.137499999999996 l -10 10 l 0 20 l -35 0 l -10 10 l 29.95 29.95 l 7.5 -7.5 l -22.45 -22.45 l 30 0 l 10 -10 l 0 -30 z"></path><g><path d="M 69.65 -38.1375 l 0 -15 l -12.6 0 l 7.5 -7.5 l -1.2 -1.2 l -18.7 18.7 l 15 0 l 0 10 q 3.85 -7.75 10 -5 z"></path></g><g><path d="M 41.999999999999986 6.812499999999986 q -1.655 2.716 2.6 10 l 15 0 l 10 -10 l -20 0 q -7.015 -2.931 -7.6 0 z"></path></g></g></g></g>
</svg>
