<svg xmlns="http://www.w3.org/2000/svg" viewBox="0 0 59.45 172.294907" width="59.45" height="172.294907" fill="currentColor" stroke="none">
<g transform="translate(29.725 86.147453)"><g><g><path d="M 29.675000000000004 -43.2 l -50 0 l -9.4 9.4 l 23.2 33.05 l 6.2 -6.25 l 0 33.8 l 10 -10 l 0 -36.15 l -1.1 1.1 q -2.967 2.977 -5.95 5.95 l -1.95 2 l -0.65 0.65 l -16.5 -23.5 l 36.2 0 l 10 -10 z"></path><g><path d="M 3.375 43.199999999999996 l 16.3 -16.3 l 0 -22.45 l -10 10 l 0 -5.15 q -5 6.1 -10 2.5 l 0 15 l 10 -10 l 0 17.7 l -7.5 7.5 l 1.2 1.2 z"></path></g></g></g></g>
</svg>
