<svg xmlns="http://www.w3.org/2000/svg" viewBox="0 0 122.5 107.4" width="122.5" height="107.4" fill="currentColor" stroke="none">
<g transform="translate(61.25 53.7)"><g><g><path d="M -51.25 -25 l -10 10 l 0 60 l 10 -10 l 0 -60 z"></path></g><g><path d="M -31.25 -25 l -10 10 l 0 60 l 10 -10 l 0 -50 l 30 0 l 10 -10 l -40 0 z"></path><g><path d="M -11.25 -15 l 10 0 l 17.5 -17.5 l -1.2 -1.2 l -8.7 8.7 l -7.6 0 q 0.83 5.4 -10 10 z"></path></g><g><path d="M -31.25 23.8 q -5 12.14 -10 11.2 l 0 10 l 17.5 -17.5 l -1.2 -1.2 l -6.3 6.3 l 0 -8.8 z"></path></g><path d="M -2.5 -43.7 l 10 -10 l -30 0 l -10 10 l 30 0 z"></path></g><g><path d="M 46.25 -1.1500000000000004 l -10 10 l 0 -33.85 l -10 10 l 0 36.2 l 10 -9.95 l 0 33.75 l 10 -10 l 0 -36.15 z"></path><g><path d="M 26.25 -15 l 0 5 q 6.25 -9 10 -5 l 0 -7.6 l 11.8 11.7 l 7 -7 l -12.95 -12.95 l -15.85 15.85 z"></path></g><g><path d="M 36.25 30 l 0 15 l 12.6 0 l -7.5 7.5 l 1.2 1.2 l 18.7 -18.7 l -15 0 l 0 -10 q -3.85 7.75 -10 5 z"></path></g></g></g></g>
</svg>
