<svg xmlns="http://www.w3.org/2000/svg" viewBox="0 0 55.85 172.294907" width="55.85" height="172.294907" fill="currentColor" stroke="none">
<g transform="translate(27.925 86.147453)"><g><g><path d="M 17.924999999999997 38.1 l 10 -10 l 0 -60 l -10 10 l 0 50 l -30 0 l -10 10 l 40 0 z"></path><g><path d="M 18.275 -19.799999999999997 q 0.375 -0.363 1.15 -1.15 q 6.261 -1.099 8.5 3.8 l 0 -14.75 l -10 10 l -10 -10 l -7.15 7.15 l 11.3 11.2 l 5.85 -5.9 q 0.04 -0.029 0.35 -0.35 z"></path></g><g><path d="M -12.075000000000003 38.1 q -2.55 -4.45 5 -10 l -5 0 l -15.85 15.9 l 13 12.9 l 7 -7 l -11.8 -11.8 l 7.65 0 z"></path></g><path d="M -7.5000000000000036 -49.4 l 7.5 7.5 l 7.5 -7.5 l -7.5 -7.5 l -7.5 7.5 z"></path></g></g></g>
</svg>
