<svg xmlns="http://www.w3.org/2000/svg" viewBox="0 0 91 172.294907" width="91" height="172.294907" fill="currentColor" stroke="none">
<g transform="translate(45.5 86.147453)"><g><g><path d="M -12.950000000000003 -25.6 l -7.5 7.5 l 31.25 31.25 l -31.25 31.25 l 40 0 l 10 -10 l -37.6 0 l 27.5 -27.6 l -32.4 -32.4 z"></path><g><path d="M -20.450000000000003 -18.1 l -15.05 0 l -10 10 l 17.45 0 l 8.75 -8.8 q 6.9 0.2 3.8 -6.15 l -4.95 4.95 z"></path></g><g><path d="M 15 44.4 l 4.55 0 l 8.8 -8.8 l 10 10 l 7.15 -7.15 l -11.3 -11.2 l -7.05 7.15 l -6.3 0 q 3.7 5 -5.85 10 z"></path></g><path d="M 10 -35.6 l 10 -10 l -30 0 l -10 10 l 30 0 z"></path></g></g></g>
</svg>
