<svg xmlns="http://www.w3.org/2000/svg" viewBox="0 0 58.85 172.294907" width="58.85" height="172.294907" fill="currentColor" stroke="none">
<g transform="translate(29.425 86.147453)"><g><g><path d="M 3.0749999999999993 10.35051020408163 l 7.5 -7.5 -32.5 -32.5 -7.5 7.5 32.5 32.5 m -17.5 -10 l -7.5 7.5 32.5 32.5 7.5 -7.5 -32.5 -32.5 z"></path><path d="M -20.775 -22.14948979591837 q 1.328 -4.078 -0.8 -6.7 l 0.8 0.35 q 19.05 9.15 23.7 -6.2 q -7.65 9.4 -17.35 -2.45 l -15 15 q 4.648 1.323 8.65 0 z"></path><path d="M 9.425 39.15051020408163 l -7.5 7.55 q 17.7 8.5 27.5 -7.5 q -11.7 7.3 -18.85 1.15 l 3.7 -3.65 q -1.81 -1.308 -4.55 -2.1 q -1.8 -0.5 -0.3 4.55 z"></path><path d="M 4.324999999999999 -39.64948979591837 l 10 -10 l -30 0 l -10 10 l 30 0 z"></path></g></g></g>
</svg>
