<svg xmlns="http://www.w3.org/2000/svg" viewBox="0 0 167.8 97.5" width="167.8" height="97.5" fill="currentColor" stroke="none">
<g transform="translate(83.9 48.75)"><g><g><path d="M -59.25000000000001 -46.25 l -7.5 7.5 57.5 62.5 7.5 -7.5 -57.5 -62.5 z"></path><path d="M -61.75000000000001 -43.75 l -5 5 l -10 -10 l -7.15 7.15 l 11.3 11.2 l 7 -7.1 l 1 -1 q 3.183 1.742 3.85 0 q 0.916 -1.293 0 -6.25 z"></path><path d="M -49.25000000000001 41.25 l 7.5 7.5 l 7.5 -7.5 l -7.5 -7.5 l -7.5 7.5 z"></path></g><g><path d="M 18.150000000000006 -46.275 l -9.9 9.95 l 47.35 58.35 l 0.05 0 l 1.4 1.75 l 7.5 -7.5 l -42.7 -52.55 l 52.05 0 l 10 -10 l -65.75 0 z"></path></g></g></g>
</svg>
