<svg xmlns="http://www.w3.org/2000/svg" viewBox="0 0 425 110" width="425" height="110" fill="currentColor" stroke="none">
<g transform="translate(212.5 55)"><g><g><path d="M -205 -35 l -7.5 7.5 57.5 62.5 7.5 -7.5 -57.5 -62.5 z"></path><path d="M -177.5 55 l 10 -10 l -30 0 l -10 10 l 30 0 z"></path></g><g><path d="M -77.5 -35.05 l -50 0 l -10 10 l 0 27 l 33.1 33.1 l 7.5 -7.5 l -30.6 -30.6 l 0 -22 l 40 0 l 10 -10 z"></path><g><path d="M -97.5 -35.05 q 6.368 3.408 0 10 l 10 0 l 10 -10 l 0 -15 l -10 10 l 0 5 l -10 0 z"></path></g><g><path d="M -98.1 26.349999999999998 q -6.486 -1.216 -4.75 5 q 2.924 -3.894 5.95 -3.8 l 8.8 -8.8 l 0 -15 l -10 10 l 0 12.6 z"></path></g></g><g><path d="M -57.5 -35 l -10 10 l 0 60 l 10 -10 l 0 -60 z"></path></g><g><path d="M -37.5 -35 l -10 10 l 0 60 l 10 -10 l 0 -50 l 30 0 l 10 -10 l -40 0 z"></path><g><path d="M -37.5 42.6 l 0 -17.6 q -7.3 -5 -10 10 l 0 20 l 17.5 -17.5 l -1.2 -1.2 l -6.3 6.3 z"></path></g><path d="M -12.5 -45 l 10 -10 l -30 0 l -10 10 l 30 0 z"></path></g><g><path d="M 40.5 8.1 l 7.45 -7.5 27.05 34.4 7.5 -7.5 -27.8 -36 -7.75 7.8 -26.95 -34.3 -7.5 7.5 28 35.6 z"></path></g><g><path d="M 132.5 4.625 l 10 -10 l -29.85 -29.85 l -7.5 7.5 l 22.35 22.35 l -20 0 l -15 15 l 25.6 25.6 l 7.5 -7.5 l -23.1 -23.1 l 30 0 z"></path><g><path d="M 129.89999999999998 47.025000000000006 l -11.8 -11.8 l 5 -5 q -7.681 -1.687 -7.1 0.5 l 0.95 3.35 l -7.05 7.05 l 13 12.9 z"></path></g></g><g><path d="M 164.125 -33.8 l 7.35 -7.35 l 20.6 26.15 l 10 0 l 10 -10 l -14.55 0 l -19.6 -25 l -15 15 l 1.2 1.2 z"></path><path d="M 162.5 -5 l -10 10 l 50 0 l 10 -10 l -50 0 z"></path></g></g></g>
</svg>
