<svg xmlns="http://www.w3.org/2000/svg" viewBox="0 0 240.65 110.025" width="240.65" height="110.025" fill="currentColor" stroke="none">
<g transform="translate(120.325 55.0125)"><g><g><path d="M -105.325 -35.0125 l -7.5 7.5 57.5 62.5 7.5 -7.5 -57.5 -62.5 z"></path><path d="M -106.42500000000001 -31.962500000000002 q -3.28 1.825 -6.4 4.45 l -7.5 7.5 l 1.2 1.2 l 7.5 -7.5 q 4.106 1.688 4.55 0.35 q 0.6 -1.45 0.65 -6 z"></path><path d="M -50.875 28.5875 q -1.825 3.28 -4.45 6.4 l -7.5 7.5 l -1.2 -1.2 l 7.5 -7.5 q -1.688 -4.106 -0.35 -4.55 q 1.45 -0.6 6 -0.65 z"></path><path d="M -70.325 -45.0125 l 10 -10 l -30 0 l -10 10 l 30 0 z"></path></g><g><path d="M -30.325000000000003 -35.0125 l -7.5 7.5 l 31.25 31.25 l -31.25 31.25 l 40 0 l 10 -10 l -37.6 0 l 27.5 -27.6 l -32.4 -32.4 z"></path><path d="M -2.825000000000003 -45.0125 l 10 -10 l -30 0 l -10 10 l 30 0 z"></path><path d="M -2.825000000000003 54.9875 l 10 -10 l -30 0 l -10 10 l 30 0 z"></path></g><g><path d="M 110.425 35.012499999999996 l 9.9 -9.95 l -47.35 -58.35 l -0.05 0 l -1.4 -1.75 l -7.5 7.5 l 42.7 52.55 l -52.05 0 l -10 10 l 65.75 0 z"></path><g><path d="M 22.174999999999997 27.512500000000003 l 1.2 1.2 l 7.5 -7.5 l 13.8 13.8 q 8.65 -2.75 10 -10 l -5 0 l -12.5 -12.5 l -15 15 z"></path></g><path d="M 81.24999999999999 55.0125 l 10 -10 l -30 0 l -10 10 l 30 0 z"></path></g></g></g>
</svg>
