<svg xmlns="http://www.w3.org/2000/svg" viewBox="0 0 288.2 97.525" width="288.2" height="97.525" fill="currentColor" stroke="none">
<g transform="translate(144.1 48.7625)"><g><g><path d="M -111.55 -28.737500000000004 l -7.5 7.5 57.5 62.5 7.5 -7.5 -57.5 -62.5 z"></path><path d="M -119.05 -21.237500000000004 l -15.05 0 l -10 10 l 17.45 0 l 8.75 -8.8 q 6.9 0.2 3.8 -6.15 l -4.95 4.95 z"></path><path d="M -57.099999999999994 34.8625 q -1.825 3.28 -4.45 6.4 l -7.5 7.5 l -1.2 -1.2 l 7.5 -7.5 q -1.688 -4.106 -0.35 -4.55 q 1.45 -0.6 6 -0.65 z"></path><path d="M -58.94999999999999 -18.737500000000004 l -8.8 8.8 l 1.2 1.2 l 20 -20 l -30 0 l -10 10 l 27.6 0 z"></path></g><g><path d="M 13.450000000000017 -18.737500000000004 l 10 -10 l -50 0 l -10 10 l 0 35 l 10 -10 l 15 0 l 0 35 l 10 -10 l 0 -35 l -17.35 0 l -7.65 7.6 l 0 -22.6 l 40 0 z"></path></g><g><path d="M 43.45000000000002 -28.737500000000004 l -10 10 l 0 60 l 10 -10 l 0 -60 z"></path><g><path d="M 33.45000000000002 26.262499999999996 l 0 15 l 15 0 l 10 -10 l -15 0 l 0 -10 q -3.874 7.753 -10 5 z"></path></g></g><g><path d="M 78.35 -28.762500000000003 l -9.9 9.95 l 47.35 58.35 l 0.05 0 l 1.4 1.75 l 7.5 -7.5 l -42.7 -52.55 l 52.05 0 l 10 -10 l -65.75 0 z"></path><path d="M 116.275 -38.7625 l 10 -10 l -30 0 l -10 10 l 30 0 z"></path></g></g></g>
</svg>
