<svg xmlns="http://www.w3.org/2000/svg" viewBox="0 0 69.3 172.294907" width="69.3" height="172.294907" fill="currentColor" stroke="none">
<g transform="translate(34.65 86.147453)"><g><g><path d="M -22.85 -28.75 l -7.5 7.5 57.5 62.5 7.5 -7.5 -57.5 -62.5 z"></path><path d="M -34.65 -40.55 l 11.8 11.8 l -5 5 q 7.681 1.687 7.1 -0.5 l -0.95 -3.35 l 7.05 -7.05 l -13 -12.9 z"></path><path d="M 31.6 34.85 q -1.825 3.28 -4.45 6.4 l -7.5 7.5 l -1.2 -1.2 l 7.5 -7.5 q -1.688 -4.106 -0.35 -4.55 q 1.45 -0.6 6 -0.65 z"></path><path d="M 12.149999999999999 -38.75 l 10 -10 l -30 0 l -10 10 l 30 0 z"></path></g></g></g>
</svg>
