<svg xmlns="http://www.w3.org/2000/svg" viewBox="0 0 310.45 100.025" width="310.45" height="100.025" fill="currentColor" stroke="none">
<g transform="translate(155.225 50.0125)"><g><g><path d="M -145.225 -29.987500000000004 l -10 10 l 0 60 l 10 -10 l 0 -60 z"></path></g><g><path d="M -80.225 -29.962500000000006 l -10 10 l 0 20 l -35 0 l -10 10 l 29.95 29.95 l 7.5 -7.5 l -22.45 -22.45 l 30 0 l 10 -10 l 0 -30 z"></path><g><path d="M -98.975 31.287499999999977 q -6.486 -1.216 -4.75 5 q 2.924 -3.894 5.95 -3.8 l 8.8 -8.8 l 0 -15 l -10 10 l 0 12.6 z"></path></g><path d="M -97.725 -39.96250000000001 l 10 -10 l -30 0 l -10 10 l 30 0 z"></path></g><g><path d="M -47.82499999999999 -29.987500000000004 l -10 10 l 0 60 l 10 -10 l 0 -60 z"></path><g><path d="M -70.225 50.012499999999996 l 22.4 0 l 10 -10.1 l -19.9 0 l -0.1 0.1 l 0 -0.1 l 0.05 0 l 9.95 -9.9 l 0 -5 q -5 5.774 -10 5 l 0 7.55 l -12.4 12.4 z"></path></g></g><g><path d="M 27.17500000000001 -29.962500000000006 l -10 10 l 0 20 l -35 0 l -10 10 l 29.95 29.95 l 7.5 -7.5 l -22.45 -22.45 l 30 0 l 10 -10 l 0 -30 z"></path><g><path d="M 8.425000000000011 31.287499999999977 q -6.486 -1.216 -4.75 5 q 2.924 -3.894 5.95 -3.8 l 8.8 -8.8 l 0 -15 l -10 10 l 0 12.6 z"></path></g><path d="M 9.675000000000011 -39.96250000000001 l 10 -10 l -30 0 l -10 10 l 30 0 z"></path></g><g><path d="M 59.57500000000002 -29.987500000000004 l -10 10 l 0 60 l 10 -10 l 0 -60 z"></path><g><path d="M 37.17500000000001 50.012499999999996 l 22.4 0 l 10 -10.1 l -19.9 0 l -0.1 0.1 l 0 -0.1 l 0.05 0 l 9.95 -9.9 l 0 -5 q -5 5.774 -10 5 l 0 7.55 l -12.4 12.4 z"></path></g></g><g><path d="M 89.475 -30.012500000000003 l -9.9 9.95 l 47.35 58.35 l 0.05 0 l 1.4 1.75 l 7.5 -7.5 l -42.7 -52.55 l 52.05 0 l 10 -10 l -65.75 0 z"></path><path d="M 127.4 -40.0125 l 10 -10 l -30 0 l -10 10 l 30 0 z"></path></g></g></g>
</svg>
