<svg xmlns="http://www.w3.org/2000/svg" viewBox="0 0 80 110" width="80" height="110" fill="currentColor" stroke="none">
<g transform="translate(40 55)"><g><g><path d="M -21.8 -35 l -10 10 l 0 60 l 10 -10 l 0 -60 z"></path><g><path d="M -20 46.8 l -11.8 -11.8 l 10 -10 l 0 -5 q -5.188 7.964 -10 5 l 0 7.7 l -8.2 8.2 l 13 12.9 l 7 -7 z"></path></g></g><g><path d="M 0 -35 l -10 10 l 0 60 l 10 -10 l 0 -50 l 30 0 l 10 -10 l -40 0 z"></path><g><path d="M 0 42.6 l 0 -17.6 q -7.3 -5 -10 10 l 0 20 l 17.5 -17.5 l -1.2 -1.2 l -6.3 6.3 z"></path></g><path d="M 25 -45 l 10 -10 l -30 0 l -10 10 l 30 0 z"></path></g></g></g>
</svg>
