<svg xmlns="http://www.w3.org/2000/svg" viewBox="0 0 310.05 111.3" width="310.05" height="111.3" fill="currentColor" stroke="none">
<g transform="translate(155.025 55.65)"><g><g><path d="M -145.025 -35.65 l -10 10 l 0 60 l 10 -10 l 0 -60 z"></path><g><path d="M -155.025 19.35 l 0 15 l 15 0 l 10 -10 l -15 0 l 0 -10 q -3.874 7.753 -10 5 z"></path></g></g><g><path d="M -65.025 -35.625 l -10 10 l 0 20 l -35 0 l -10 10 l 29.95 29.95 l 7.5 -7.5 l -22.45 -22.45 l 30 0 l 10 -10 l 0 -30 z"></path><g><path d="M -92.67500000000001 24.32499999999998 q -1.655 2.716 2.6 10 l 15 0 l 10 -10 l -20 0 q -7.015 -2.931 -7.6 0 z"></path></g><path d="M -82.525 -45.62500000000001 l 10 -10 l -30 0 l -10 10 l 30 0 z"></path></g><g><path d="M -35.025000000000006 -35.65 l -10 10 l 0 60 l 10 -10 l 0 -60 z"></path><g><path d="M -35.025000000000006 -20.65 l 0 -15 l -10 10 l 0 -20 l -10 9.9 l 0 22.4 l 10 -9.95 l 0 5.15 q 5 -6.1 10 -2.5 z"></path></g><g><path d="M -35.025000000000006 24.35 l 15 0 l 10 -10 l -17.45 0 l -7.6 7.6 l 0.05 -5.05 q -4.6 6.3 -10 4 l 0 13.45 l 9.95 -10 z"></path></g></g><g><path d="M 32.525000000000006 -35.65 l -7.5 7.5 l 31.25 31.25 l -31.25 31.25 l 40 0 l 10 -10 l -37.6 0 l 27.5 -27.6 l -32.4 -32.4 z"></path><g><path d="M 25.025000000000006 -28.15 l -15.05 0 l -10 10 l 17.45 0 l 8.75 -8.8 q 6.9 0.2 3.8 -6.15 l -4.95 4.95 z"></path></g><g><path d="M 75.025 24.35 l -15 0 q 2.75 6.15 -5 10 l 10 0 l 0 12.6 l -7.5 7.5 l 1.2 1.2 l 16.3 -16.3 l 0 -15 z"></path></g><path d="M 47.5 -45.65 l 10 -10 l -30 0 l -10 10 l 30 0 z"></path></g><g><path d="M 95.025 -35.65 l -10 10 l 0 60 l 10 -10 l 0 -60 z"></path></g><g><path d="M 120.025 -35.65 l -10 10 l 0 35 l 19.95 0 l -24.95 25 l 40 0 l 10 -10 l -37.6 0 l 24.85 -25 l -22.25 0 l 0 -35 z"></path><path d="M 140.025 -45.65 l 10 -10 l -30 0 l -10 10 l 30 0 z"></path></g></g></g>
</svg>
