<svg xmlns="http://www.w3.org/2000/svg" viewBox="0 0 94.65 172.294907" width="94.65" height="172.294907" fill="currentColor" stroke="none">
<g transform="translate(47.325 86.147453)"><g><g><path d="M -22.675000000000004 -38.75 l -7.5 7.5 57.5 62.5 7.5 -7.5 -57.5 -62.5 z"></path><path d="M -25.175000000000004 -36.25 l -5 5 l -10 -10 l -7.15 7.15 l 11.3 11.2 l 7 -7.1 l 1 -1 q 3.183 1.742 3.85 0 q 0.916 -1.293 0 -6.25 z"></path><path d="M 47.325 21.25 l -15 0 q -7 -2.95 -7.6 0 q -1.65 2.7 2.6 10 l 10 0 l 0 15 l 10 -10 l 0 -15 z"></path><path d="M -11.425000000000004 -68.75 l 20 20 l 7.5 -7.5 l -20 -20 l -7.5 7.5 z"></path><path d="M -0.17500000000000426 41.25 l -10 10 l 0 25 l 10 -10 l 0 -25 z"></path></g></g></g>
</svg>
