<svg xmlns="http://www.w3.org/2000/svg" viewBox="0 0 70.2 172.294907" width="70.2" height="172.294907" fill="currentColor" stroke="none">
<g transform="translate(35.1 86.147453)"><g><g><path d="M -15.100000000000001 -27.424999999999983 l -10 10 l 0 40 l 9.55 -9.55 l 20.65 29.4 l 7.5 -7.5 l -21.6 -30.85 l -6.1 6.1 l 0 -37.6 z"></path><g><path d="M -2.700000000000003 -37.42499999999999 l -22.4 0 l -10 10.1 l 19.9 0 l 0.1 -0.1 l 0 0.1 l -0.05 0 l -9.95 9.9 l 0 5 q 5 -5.774 10 -5 l 0 -7.55 l 12.4 -12.4 z"></path></g><g><path d="M 12.600000000000001 34.925000000000004 q -6.8 0.5 -7.5 7.5 l 15 15 l 15 -15 l -1.2 -1.2 l -7.5 7.5 l -13.8 -13.8 z"></path></g><path d="M 10 -47.42499999999999 l 10 -10 l -30 0 l -10 10 l 30 0 z"></path></g></g></g>
</svg>
