<svg xmlns="http://www.w3.org/2000/svg" viewBox="0 0 621.9 148.675" width="621.9" height="148.675" fill="currentColor" stroke="none">
<g transform="translate(310.95 74.3375)"><g><g><path d="M -288.55 -49.337500000000006 l -10 10 l 0 60 l 10 -10 l 0 -60 z"></path><g><path d="M -310.95 30.662499999999994 l 22.4 0 l 10 -10.1 l -19.9 0 l -0.1 0.1 l 0 -0.1 l 0.05 0 l 9.95 -9.9 l 0 -5 q -5 5.774 -10 5 l 0 7.55 l -12.4 12.4 z"></path></g></g><g><path d="M -213.54999999999998 -49.31250000000001 l -10 10 l 0 20 l -35 0 l -10 10 l 29.95 29.95 l 7.5 -7.5 l -22.45 -22.45 l 30 0 l 10 -10 l 0 -30 z"></path><g><path d="M -241.2 10.637499999999974 q -1.65 2.7 2.6 10 l 12.6 0 l -7.5 7.5 l 1.2 1.2 l 18.7 -18.7 l -20 0 q -7 -2.95 -7.6 0 z"></path></g><path d="M -231.04999999999998 -59.312500000000014 l 10 -10 l -30 0 l -10 10 l 30 0 z"></path></g><g><path d="M -168.04999999999998 -6.237500000000006 l 7.45 -7.5 27.05 34.4 7.5 -7.5 -27.8 -36 -7.75 7.8 -26.95 -34.3 -7.5 7.5 28 35.6 z"></path><path d="M -189.64999999999998 -46.28750000000001 q -3.28 1.825 -6.4 4.45 l -7.5 7.5 l 1.2 1.2 l 7.5 -7.5 q 4.106 1.688 4.55 0.35 q 0.6 -1.45 0.65 -6 z"></path><path d="M -129.1 14.262499999999996 q -1.825 3.28 -4.45 6.4 l -7.5 7.5 l -1.2 -1.2 l 7.5 -7.5 q -1.688 -4.106 -0.35 -4.55 q 1.45 -0.6 6 -0.65 z"></path><path d="M -168.54999999999998 -66.8375 l 7.5 7.5 l 7.5 -7.5 l -7.5 -7.5 l -7.5 7.5 z"></path></g><g><path d="M -106.04999999999998 -49.337500000000006 l -10 10 l 0 36.3 l 10 -10.05 l 0 33.75 l 10 -10 l 0 -36.15 l -10 10 l 0 -23.85 l 30 0 l 10 -10 l -40 0 z"></path></g><g><path d="M -56.04999999999998 20.637499999999996 l 10 -10 l 0 -20 l 35 0 l 10 -10 l -29.95 -29.95 l -7.5 7.5 l 22.45 22.45 l -30 0 l -10 10 l 0 30 z"></path><g><path d="M -37.30000000000001 -40.6125 q 6.486 1.216 4.75 -5 q -2.924 3.894 -5.95 3.8 l -8.8 8.8 l 0 15 l 10 -10 l 0 -12.6 z"></path></g><g><path d="M -56.04999999999998 5.637500000000003 l 0 15 l 12.6 0 l -7.5 7.5 l 1.2 1.2 l 18.7 -18.7 l -15 0 l 0 -10 q -3.85 7.75 -10 5 z"></path></g><path d="M -18.55000000000001 64.3375 l 0 -25 l -20 20 l 1.2 1.2 l 8.8 -8.8 l 0 22.6 l 10 -10 z"></path></g><g><path d="M 48.94999999999999 20.662499999999994 l 10 -10 l 0 -60 l -10 10 l 0 50 l -30 0 l -10 10 l 40 0 z"></path><path d="M 43.94999999999999 -59.337500000000006 l 10 -10 l -30 0 l -10 10 l 30 0 z"></path><path d="M 26.44999999999999 38.162499999999994 l 7.5 7.5 l 7.5 -7.5 l -7.5 -7.5 l -7.5 7.5 z"></path></g><g><path d="M 97.75 -49.337500000000006 l -10 10 l 0 60 l 10 -10 l 0 -60 z"></path><g><path d="M 97.80000000000001 -47.03750000000001 l 15 0 l 10 -10 l -17.4 0 l -17.65 17.7 l 0 7.3 q 5.4 -4.35 10 -2.75 l 0 -12.25 z"></path></g><g><path d="M 97.75 10.662499999999994 l 0 -5 q -6.25 9 -10 5 l 0 7.6 l -11.8 -11.7 l -7 7 l 12.95 12.95 l 15.85 -15.85 z"></path></g></g><g><path d="M 142.7 -49.362500000000004 l -9.9 9.95 l 47.35 58.35 l 0.05 0 l 1.4 1.75 l 7.5 -7.5 l -42.7 -52.55 l 52.05 0 l 10 -10 l -65.75 0 z"></path><g><path d="M 186.05 -29.362500000000004 l 22.4 0 l 17.5 -17.5 l -1.2 -1.2 l -8.7 8.7 l -17.6 0 l 10 -10 l -12.65 0 q 5.5 3.45 -5.3 10 l 5.5 0 l -9.95 10 z"></path></g><g><path d="M 164.10000000000002 50.837500000000006 l 1.2 1.2 l 16.3 -16.3 l 0 -15.05 l 7.5 -7.5 q -11.45 -4.9 -8.7 6.3 l -8.8 8.9 l 0 14.95 l -7.5 7.5 z"></path></g><path d="M 189.375 -59.36250000000001 l 10 -10 l -30 0 l -10 10 l 30 0 z"></path></g><g><path d="M 265.95 -25.487500000000004 l -10 10 l 0 -33.85 l -10 10 l 0 36.2 l 10 -9.95 l 0 33.75 l 10 -10 l 0 -36.15 z"></path><g><path d="M 268.34999999999997 -59.337500000000006 l -22.4 0 l -10 10.1 l 19.9 0 l 0.1 -0.1 l 0 0.1 l -0.05 0 l -9.95 9.9 l 0 5 q 5 -5.774 10 -5 l 0 -7.55 l 12.4 -12.4 z"></path></g><g><path d="M 265.95 28.262499999999996 l 0 -17.6 q -7.3 -5 -10 10 l 0 20 l 17.5 -17.5 l -1.2 -1.2 l -6.3 6.3 z"></path></g></g><g><path d="M 303.45 -25.487500000000004 l -10 10 l 0 -33.85 l -10 10 l 0 36.2 l 10 -9.95 l 0 33.75 l 10 -10 l 0 -36.15 z"></path><g><path d="M 303.45 28.262499999999996 l 0 -17.6 q -7.3 -5 -10 10 l 0 20 l 17.5 -17.5 l -1.2 -1.2 l -6.3 6.3 z"></path></g></g></g></g>
</svg>
