<svg xmlns="http://www.w3.org/2000/svg" viewBox="0 0 286.3 114.925" width="286.3" height="114.925" fill="currentColor" stroke="none">
<g transform="translate(143.15 57.4625)"><g><g><path d="M -133.14999999999998 -37.5375 l -10 10 l 0 60 l 10 -10 l 0 -60 z"></path><g><path d="M -143.14999999999998 17.4625 l 0 15 l 15 0 l 10 -10 l -15 0 l 0 -10 q -3.874 7.753 -10 5 z"></path></g></g><g><path d="M -42.499999999999986 -27.462500000000002 l 10 -10 l -65.75 0 l -9.9 9.95 l 30.45 37.55 l 7.25 -7.3 l 24.15 29.65 l 7.45 -7.4 l -25.2 -31.05 l -7.5 7.45 l -23.1 -28.85 l 52.15 0 z"></path><path d="M -60.32499999999999 -47.4625 l 10 -10 l -30 0 l -10 10 l 30 0 z"></path></g><g><path d="M -7.5 -37.5375 l -7.5 7.5 57.5 62.5 7.5 -7.5 -57.5 -62.5 z"></path><path d="M 7.5 32.4625 l 10 -10 l -30 0 l -10 10 l 30 0 z"></path><path d="M 45.099999999999994 -27.5375 l -8.8 8.8 l 1.2 1.2 l 20 -20 l -30 0 l -10 10 l 27.6 0 z"></path><path d="M 2.5 49.9625 l 7.5 7.5 l 7.5 -7.5 l -7.5 -7.5 l -7.5 7.5 z"></path></g><g><path d="M 133.14999999999998 -27.462500000000002 l 10 -10 l -65.75 0 l -9.9 9.95 l 30.45 37.55 l 7.25 -7.3 l 24.15 29.65 l 7.45 -7.4 l -25.2 -31.05 l -7.5 7.45 l -23.1 -28.85 l 52.15 0 z"></path></g></g></g>
</svg>
