<svg xmlns="http://www.w3.org/2000/svg" viewBox="0 0 217.8 125" width="217.8" height="125" fill="currentColor" stroke="none">
<g transform="translate(108.9 62.5)"><g><g><path d="M -76.60000000000001 5.6 l 7.45 -7.5 27.05 34.4 7.5 -7.5 -27.8 -36 -7.75 7.8 -26.95 -34.3 -7.5 7.5 28 35.6 z"></path><path d="M -108.9 -49.3 l 11.8 11.8 l -5 5 q 7.681 1.687 7.1 -0.5 l -0.95 -3.35 l 7.05 -7.05 l -13 -12.9 z"></path><path d="M -35.80000000000001 23.8 q -4.2 -0.65 -6.3 2.7 q -0.8 1 0 6 l 6.3 -6.3 l 0 19.95 l 10 -10.1 l 0 -22.35 l -10 10.1 z"></path></g><g><path d="M 11.34999999999998 -37.5 l -10 10 l 0 35 l 19.95 0 l -24.95 25 l 40 0 l 10 -10 l -37.6 0 l 24.85 -25 l -22.25 0 l 0 -35 z"></path><g><path d="M 1.6999999999999744 -25.4 q 0.375 -0.363 1.15 -1.15 q 6.261 -1.099 8.5 3.8 l 0 -14.75 l -10 10 l -10 -10 l -7.15 7.15 l 11.3 11.2 l 5.85 -5.9 q 0.04 -0.029 0.35 -0.35 z"></path></g><g><path d="M 46.349999999999994 22.5 l 15.05 0 l 10 -10 l -17.45 0 l -9.95 10 l -7.6 0 q 4.95 4.2 -6.25 10 l 6.25 0 l 9.95 -10 z"></path></g><path d="M 20.299999999999983 -55 l 7.5 7.5 l 7.5 -7.5 l -7.5 -7.5 l -7.5 7.5 z"></path><path d="M 35.39999999999998 52.5 l -8.8 8.8 l 1.2 1.2 l 20 -20 l -30 0 l -10 10 l 27.6 0 z"></path></g><g><path d="M 101.4 -13.65 l -10 10 l 0 -33.85 l -10 10 l 0 36.2 l 10 -9.95 l 0 33.75 l 10 -10 l 0 -36.15 z"></path><g><path d="M 101.4 40.1 l 0 -17.6 q -7.3 -5 -10 10 l 0 20 l 17.5 -17.5 l -1.2 -1.2 l -6.3 6.3 z"></path></g></g></g></g>
</svg>
