<svg xmlns="http://www.w3.org/2000/svg" viewBox="0 0 84.35 172.294907" width="84.35" height="172.294907" fill="currentColor" stroke="none">
<g transform="translate(42.175 86.147453)"><g><g><path d="M 0.375 -33.2 l -10 10 l 0 60 l 10 -10 l 0 -50 l 30 0 l 10 -10 l -40 0 z"></path><g><path d="M 42.175 -11.400000000000002 l -11.8 -11.8 l 10 -10 l -11.15 0 q 3.75 5.2 -5.8 10 l 4.65 0 l -5.9 5.9 l 13 12.9 l 7 -7 z"></path></g><g><path d="M 0.375 26.799999999999997 l 0 -7.3 q -4.546 5.888 -10 3.05 l 0 11.95 l -15.05 0 l -17.5 17.5 l 1.2 1.2 l 8.7 -8.7 l 15 0 l 17.65 -17.7 z"></path></g><path d="M 10 -43.2 l 10 -10 l -30 0 l -10 10 l 30 0 z"></path></g></g></g>
</svg>
