<svg xmlns="http://www.w3.org/2000/svg" viewBox="0 0 326.210003 143.7" width="326.210003" height="143.7" fill="currentColor" stroke="none">
<g transform="translate(163.105002 71.85)"><g><g><path d="M -155.6050017360525 -26.924999999999983 l -7.5 7.5 57.5 62.5 7.5 -7.5 -57.5 -62.5 z"></path><path d="M -120.60500173605249 -36.92499999999998 l 10 -10 l -30 0 l -10 10 l 30 0 z"></path></g><g><path d="M -76.95500173605248 -26.84999999999998 l -10 10 l 0 40 l 9.55 -9.55 l 20.65 29.4 l 7.5 -7.5 l -21.6 -30.85 l -6.1 6.1 l 0 -37.6 z"></path><g><path d="M -76.95500173605248 -46.84999999999999 l -10 10 l 0 20 q 7.3 5 10 -10 l 0 -20 z"></path></g><g><path d="M -57.90500173605248 41.85000000000001 l -15.05 0 l -10 10 l 17.45 0 l 8.75 -8.85 q 1.75 -3.2 4.85 -7.2 q -5.7 -0.35 -6 6.05 z"></path></g><path d="M -75.60500173605249 -64.35 l 7.5 7.5 l 7.5 -7.5 l -7.5 -7.5 l -7.5 7.5 z"></path><path d="M -58.105001736052486 71.85 l 10 -10 l -30 0 l -10 10 l 30 0 z"></path></g><g><path d="M -10.605001736052486 -3.0749999999999833 l -10 10 l 0 -33.85 l -10 10 l 0 36.2 l 10 -9.95 l 0 33.75 l 10 -10 l 0 -36.15 z"></path><g><path d="M -30.605001736052486 -34.524999999999984 l 0 17.6 q 7.3 5 10 -10 l 0 -20 l -17.5 17.5 l 1.2 1.2 l 6.3 -6.3 z"></path></g><g><path d="M -20.605001736052486 27.42500000000002 l 0 15.65 l 10 -10.05 q 10.8 2.6 16.2 18.85 q 0.35 -21.9 -9.85 -27.5 l -6.35 6.35 l 0 -8.1 q -4.8 9.5 -10 4.8 z"></path></g></g><g><path d="M 63.105001736052486 43.07500000000002 l 7.5 -7.5 -26.9 -26.9 7.45 -7.55 -28.05 -28.05 -7.5 7.5 26.9 26.9 -7.5 7.5 28.1 28.1 z"></path><path d="M 45.605001736052486 63.07500000000002 l 10 -10 l -30 0 l -10 10 l 30 0 z"></path></g><g><path d="M 90.60500173605249 -26.924999999999983 l -10 10 l 0 30 l 30 30 l 7.5 -7.5 l -27.5 -27.5 l 0 -35 z"></path><g><path d="M 90.60500173605249 -46.92499999999998 l -10 10 l 0 20 q 7.3 5 10 -10 l 0 -20 z"></path></g><g><path d="M 109.45500173605251 35.57500000000002 q -1.328 4.078 0.8 6.7 l -0.8 -0.35 q -19.05 -9.15 -23.7 6.2 q 7.65 -9.4 17.35 2.45 l 15 -15 q -4.648 -1.323 -8.65 0 z"></path></g></g><g><path d="M 148.1050017360525 -3.0749999999999833 l -10 10 l 0 -33.85 l -10 10 l 0 36.2 l 10 -9.95 l 0 33.75 l 10 -10 l 0 -36.15 z"></path><g><path d="M 138.1050017360525 28.075000000000017 l 0 15 l 12.6 0 l -7.5 7.5 l 1.2 1.2 l 18.7 -18.7 l -15 0 l 0 -10 q -3.85 7.75 -10 5 z"></path></g></g></g></g>
</svg>
