<svg xmlns="http://www.w3.org/2000/svg" viewBox="0 0 75.15 172.294907" width="75.15" height="172.294907" fill="currentColor" stroke="none">
<g transform="translate(37.575 86.147453)"><g><g fill="currentColor"><path d="M -22.574999999999996 -52.5 l -7.5 7.5 l 31.25 31.25 l -31.25 31.25 l 40 0 l 10 -10 l -37.6 0 l 27.5 -27.6 l -32.4 -32.4 z"></path><g><path d="M -23.674999999999997 -49.45 q -3.28 1.825 -6.4 4.45 l -7.5 7.5 l 1.2 1.2 l 7.5 -7.5 q 4.106 1.688 4.55 0.35 q 0.6 -1.45 0.65 -6 z"></path></g><g><path d="M 25.075000000000003 0 l -7.5 7.5 l -11.1 0 q 3.05 5.25 -1.5 10 l 5 0 l 8.8 -8.85 q 0.445 14.232 18.8 18.85 q -12.993 -10.704 -12.45 -27.5 z"></path></g><path d="M 10.000000000000007 -62.5 l 10 -10 l -30 0 l -10 10 l 30 0 z"></path><path d="M -9.999999999999993 47.5 l 0 25 l 20 -20 l -1.2 -1.2 l -8.8 8.8 l 0 -22.6 l -10 10 z"></path></g></g></g>
</svg>
