<svg xmlns="http://www.w3.org/2000/svg" viewBox="0 0 232.6 129.85" width="232.6" height="129.85" fill="currentColor" stroke="none">
<g transform="translate(116.3 64.925)"><g><g><path d="M -88.3 -11.824999999999998 l 7.45 -7.5 27.05 34.4 7.5 -7.5 -27.8 -36 -7.75 7.8 -26.95 -34.3 -7.5 7.5 28 35.6 z"></path></g><g><path d="M -8.799999999999997 -54.925 l -10 10 l 0 30 l 30 30 l 7.5 -7.5 l -27.5 -27.5 l 0 -35 z"></path><g><path d="M -8.799999999999997 -54.925 l 0 0.1 l -0.05 0 l -9.95 9.9 l 0 5 q 5 -5.75 10 -5 l 0 -7.55 l 12.4 -12.45 l -22.4 0 l -17.5 17.5 l 1.2 1.2 l 8.6 -8.6 l 17.6 0 l 0.1 -0.1 z"></path></g><g><path d="M 17.500000000000014 26.225 l -7.5 7.5 l 1.2 1.2 l 16.3 -16.3 l 0 -22.35 l -10 10.1 q -4.2 -0.65 -6.3 2.7 q -0.8 1 0 6 l 6.3 -6.3 l 0 17.45 z"></path></g><path d="M -12 54.925 l 8.8 -8.8 l -1.2 -1.2 l -20 20 l 30 0 l 10 -10 l -27.6 0 z"></path></g><g><path d="M 47.39999999999999 -54.949999999999996 l -9.9 9.95 l 47.35 58.35 l 0.05 0 l 1.4 1.75 l 7.5 -7.5 l -42.7 -52.55 l 52.05 0 l 10 -10 l -65.75 0 z"></path><g><path d="M 93.8 7.600000000000016 q -6.8 0.5 -7.5 7.5 l 15 15 l 15 -15 l -1.2 -1.2 l -7.5 7.5 l -13.8 -13.8 z"></path></g><path d="M 84.50000000000001 50.10000000000001 l -8.8 8.8 l 1.2 1.2 l 20 -20 l -30 0 l -10 10 l 27.6 0 z"></path></g></g></g>
</svg>
