<svg xmlns="http://www.w3.org/2000/svg" viewBox="0 0 74.55 172.294907" width="74.55" height="172.294907" fill="currentColor" stroke="none">
<g transform="translate(37.275 86.147453)"><g><g><path d="M 22.124999999999993 -38.8 l -50 0 l -9.4 9.4 l 23.2 33.05 l 6.2 -6.25 l 0 33.8 l 10 -10 l 0 -36.15 l -1.1 1.1 q -2.967 2.977 -5.95 5.95 l -1.95 2 l -0.65 0.65 l -16.5 -23.5 l 36.2 0 l 10 -10 z"></path><g><path d="M 7.17499999999999 -28.799999999999997 l 5 0 l 7.6 -7.65 l 0 20 l 10 -9.9 l 0 -0.1 l 7.5 -7.5 l -1.2 -1.2 l -6.3 6.3 l 0 -19.95 l -10 10 l -12.6 0 q 3.5 4 0 10 z"></path></g><g><path d="M -7.875000000000011 28.800000000000004 l -7.5 7.55 q 16.8 -0.55 27.5 12.45 q -4.6 -18.35 -18.85 -18.8 l 8.85 -8.8 l 0 -5 q -4.75 4.55 -10 1.5 l 0 11.1 z"></path></g></g></g></g>
</svg>
