<svg xmlns="http://www.w3.org/2000/svg" viewBox="0 0 224.7 98.7" width="224.7" height="98.7" fill="currentColor" stroke="none">
<g transform="translate(112.35 49.35)"><g><g><path d="M -104.85000000000001 -40.65 l -7.5 7.5 57.5 62.5 7.5 -7.5 -57.5 -62.5 z"></path><path d="M -77.35000000000001 49.35 l 10 -10 l -30 0 l -10 10 l 30 0 z"></path></g><g><path d="M 12.649999999999991 -30.65 l 10 -10 l -50 0 l -10 10 l 0 30 l 30 0 l 0 30 l 10 -10 l 0 -30 l -30 0 l 0 -20 l 40 0 z"></path><g><path d="M 8.099999999999994 -30.65 l 4.55 0 l 8.8 -8.8 l 10 10 l 7.15 -7.15 l -11.3 -11.2 l -7.05 7.15 l -6.3 0 q 3.7 5 -5.85 10 z"></path></g><g><path d="M -3.6500000000000057 45.75 l 16.3 -16.3 l 0 -22.45 l -10 10 l 0 -5.15 q -5 6.1 -10 2.5 l 0 15 l 10 -10 l 0 17.7 l -7.5 7.5 l 1.2 1.2 z"></path></g></g><g><path d="M 87.64999999999999 -23.2 l -1.25 -1.15 q -5.45 4.65 -10.85 3.05 q -5.65 -1.7 -5.7 -9.35 l 25 0 l 17.5 -17.5 l -1.2 -1.2 l -8.7 8.7 l -37.6 0 l -10 10 q 14.9 23.2 32.8 7.45 z"></path><path d="M 58.59999999999998 -10.649999999999999 l -10 10 l 50 0 l 10 -10 l -50 0 z"></path></g></g></g>
</svg>
