<svg xmlns="http://www.w3.org/2000/svg" viewBox="0 0 68.3 172.294907" width="68.3" height="172.294907" fill="currentColor" stroke="none">
<g transform="translate(34.15 86.147453)"><g><g><path d="M 25.249999999999993 -55 l -50 0 l -9.4 9.4 l 23.2 33.05 l 6.2 -6.25 l 0 33.8 l 10 -10 l 0 -36.15 l -1.1 1.1 q -2.967 2.977 -5.95 5.95 l -1.95 2 l -0.65 0.65 l -16.5 -23.5 l 36.2 0 l 10 -10 z"></path><g><path d="M 11.649999999999991 -55 q 2.585 3.848 -6.35 10 l 7.65 0 l -6.3 6.35 q 5.6 10.2 27.5 9.85 q -16.25 -5.4 -18.85 -16.2 l 10 -10 l -13.65 0 z"></path></g><g><path d="M -4.750000000000011 35 l 10 -10 l 0 -20 q -7.3 -5 -10 10 l 0 20 z"></path></g><path d="M 9.999999999999993 55 l 10 -10 l -30 0 l -10 10 l 30 0 z"></path></g></g></g>
</svg>
