<svg xmlns="http://www.w3.org/2000/svg" viewBox="0 0 103.85 172.294907" width="103.85" height="172.294907" fill="currentColor" stroke="none">
<g transform="translate(51.925 86.147453)"><g><g><path d="M -15.125000000000007 -7.575000000000005 l 7.45 -7.5 27.05 34.4 7.5 -7.5 -27.8 -36 -7.75 7.8 -26.95 -34.3 -7.5 7.5 28 35.6 z"></path><path d="M -41.925000000000004 -41.97500000000001 q 4.2 0.65 6.3 -2.7 q 0.8 -1 0 -6 l -6.3 6.3 l 0 -19.95 l -10 10.1 l 0 22.35 l 10 -10.1 z"></path><path d="M 26.874999999999993 11.824999999999996 l 12.65 0 l -7.5 7.5 l 1.2 1.2 l 18.7 -18.7 l -17.45 0 l -8.75 8.8 q -6.9 -0.2 -3.8 6.15 l 4.95 -4.95 z"></path><path d="M 19.475 -40.675000000000004 l -8.8 8.8 l 1.2 1.2 l 20 -20 l -30 0 l -10 10 l 27.6 0 z"></path><path d="M -10.625000000000007 29.324999999999996 l -10 10 l 0 25 l 10 -10 l 0 -25 z"></path></g></g></g>
</svg>
