<svg xmlns="http://www.w3.org/2000/svg" viewBox="0 0 351.2 140.025" width="351.2" height="140.025" fill="currentColor" stroke="none">
<g transform="translate(175.6 70.0125)"><g><g><path d="M -142.59999999999997 -1.8874999999999975 l 7.45 -7.5 27.05 34.4 7.5 -7.5 -27.8 -36 -7.75 7.8 -26.95 -34.3 -7.5 7.5 28 35.6 z"></path><path d="M -145.59999999999997 25.012500000000003 l 10 -10 l -30 0 l -10 10 l 30 0 z"></path><path d="M -107.99999999999997 -34.9875 l -8.8 8.8 l 1.2 1.2 l 20 -20 l -30 0 l -10 10 l 27.6 0 z"></path></g><g><path d="M -19.94999999999999 -34.912499999999994 l 10 -10 l -65.75 0 l -9.9 9.95 l 30.45 37.55 l 7.25 -7.3 l 24.15 29.65 l 7.45 -7.4 l -25.2 -31.05 l -7.5 7.45 l -23.1 -28.85 l 52.15 0 z"></path></g><g><path d="M 49.95000000000002 25.012500000000003 l 10 -10 l 0 -60 l -10 10 l 0 50 l -30 0 l -10 10 l 40 0 z"></path><g><path d="M 49.95000000000002 -52.5875 l 0 17.6 q 7.3 5 10 -10 l 0 -20 l -17.5 17.5 l 1.2 1.2 l 6.3 -6.3 z"></path></g><g><path d="M 32.35000000000002 5.012500000000003 l -22.4 0 l -9.9 10 l 19.9 0 l -10 10 l 12.65 0 q -5.504 -3.447 5.3 -10 l -5.5 0 l 9.95 -10 z"></path></g><path d="M 40.00000000000003 60.0125 l 0 -25 l -20 20 l 1.2 1.2 l 8.8 -8.8 l 0 22.6 l 10 -10 z"></path></g><g><path d="M 89.94999999999999 -21.137499999999996 l -10 10 l 0 -33.85 l -10 10 l 0 36.2 l 10 -9.95 l 0 33.75 l 10 -10 l 0 -36.15 z"></path><g><path d="M 79.95000000000002 45.0125 l 10 -10 l 0 -20 q -7.3 -5 -10 10 l 0 20 z"></path></g></g><g><path d="M 165.7 25.0375 l 9.9 -9.95 l -47.35 -58.35 l -0.05 0 l -1.4 -1.75 l -7.5 7.5 l 42.7 52.55 l -52.05 0 l -10 10 l 65.75 0 z"></path><path d="M 130.27499999999998 -62.5125 l 7.5 7.5 l 7.5 -7.5 l -7.5 -7.5 l -7.5 7.5 z"></path><path d="M 130.27499999999998 42.53750000000001 l 7.5 7.5 l 7.5 -7.5 l -7.5 -7.5 l -7.5 7.5 z"></path></g></g></g>
</svg>
