<svg xmlns="http://www.w3.org/2000/svg" viewBox="0 0 197.5 110" width="197.5" height="110" fill="currentColor" stroke="none">
<g transform="translate(98.75 55)"><g><g><path d="M -91.25 -35 l -7.5 7.5 57.5 62.5 7.5 -7.5 -57.5 -62.5 z"></path><path d="M -88.75 17.5 l -10 10 l 0 25 l 10 -10 l 0 -25 z"></path><path d="M -38.65 -25 l -8.8 8.8 l 1.2 1.2 l 20 -20 l -30 0 l -10 10 l 27.6 0 z"></path><path d="M -56.25 -45 l 10 -10 l -30 0 l -10 10 l 30 0 z"></path></g><g><path d="M 38.75 -34.975 l -10 10 l 0 20 l -35 0 l -10 10 l 29.95 29.95 l 7.5 -7.5 l -22.45 -22.45 l 30 0 l 10 -10 l 0 -30 z"></path><g><path d="M 11.099999999999994 24.97499999999998 q -1.655 2.716 2.6 10 l 15 0 l 10 -10 l -20 0 q -7.015 -2.931 -7.6 0 z"></path></g></g><g><path d="M 88.75 35 l 10 -10 l 0 -60 l -10 10 l 0 50 l -30 0 l -10 10 l 40 0 z"></path><path d="M 83.75 55 l 10 -10 l -30 0 l -10 10 l 30 0 z"></path></g></g></g>
</svg>
