<svg xmlns="http://www.w3.org/2000/svg" viewBox="0 0 508.7 140.825" width="508.7" height="140.825" fill="currentColor" stroke="none">
<g transform="translate(254.35 70.4125)"><g><g><path d="M -209.2 -7.312500000000009 l 7.45 -7.5 27.05 34.4 7.5 -7.5 -27.8 -36 -7.75 7.8 -26.95 -34.3 -7.5 7.5 28 35.6 z"></path><path d="M -232.2 -47.91250000000001 l -5 5 l -10 -10 l -7.15 7.15 l 11.3 11.2 l 7 -7.1 l 1 -1 q 3.183 1.742 3.85 0 q 0.916 -1.293 0 -6.25 z"></path><path d="M -224.7 2.0874999999999915 l -10 10 l 0 25 l 10 -10 l 0 -25 z"></path><path d="M -192.2 -60.41250000000001 l 10 -10 l -30 0 l -10 10 l 30 0 z"></path></g><g><path d="M -114.64999999999998 -50.41250000000001 l -10 10 l 0 60 l 10 -10 l 0 -50 l 30 0 l 10 -10 l -40 0 z"></path><g><path d="M -114.64999999999998 9.587499999999991 l 0 -7.3 q -4.546 5.888 -10 3.05 l 0 11.95 l -15.05 0 l -17.5 17.5 l 1.2 1.2 l 8.7 -8.7 l 15 0 l 17.65 -17.7 z"></path></g></g><g><path d="M -45.849999999999966 19.562499999999993 l 10 -10 l 0 -20 l 35 0 l 10 -10 l -29.95 -29.95 l -7.5 7.5 l 22.45 22.45 l -30 0 l -10 10 l 0 30 z"></path><g><path d="M -35.849999999999966 9.5625 l 0 -5 q -6.25 9 -10 5 l 0 7.6 l -11.8 -11.7 l -7 7 l 12.95 12.95 l 15.85 -15.85 z"></path></g><path d="M -37.74999999999997 45.41250000000001 l 0 25 l 20 -20 l -1.2 -1.2 l -8.8 8.8 l 0 -22.6 l -10 10 z"></path></g><g><path d="M 29.150000000000006 -50.41250000000001 l -10 10 l 0 60 l 10 -10 l 0 -60 z"></path><g><path d="M 19.150000000000006 4.5874999999999915 l 0 15 l 15 0 l 10 -10 l -15 0 l 0 -10 q -3.874 7.753 -10 5 z"></path></g></g><g><path d="M 109.15 -50.38750000000001 l -10 10 l 0 20 l -35 0 l -10 10 l 29.95 29.95 l 7.5 -7.5 l -22.45 -22.45 l 30 0 l 10 -10 l 0 -30 z"></path><path d="M 91.65 -60.38750000000002 l 10 -10 l -30 0 l -10 10 l 30 0 z"></path></g><g><path d="M 147.15 -7.312500000000009 l 7.45 -7.5 27.05 34.4 7.5 -7.5 -27.8 -36 -7.75 7.8 -26.95 -34.3 -7.5 7.5 28 35.6 z"></path><path d="M 179.04999999999998 9.587499999999991 q -1.65 2.7 2.6 10 l 12.6 0 l -7.5 7.5 l 1.2 1.2 l 18.7 -18.7 l -20 0 q -7 -2.95 -7.6 0 z"></path><path d="M 139.15 37.08749999999999 l 7.5 7.5 l 7.5 -7.5 l -7.5 -7.5 l -7.5 7.5 z"></path></g><g><path d="M 226.65 -50.337500000000006 l -10 10 l 0 40 l 9.55 -9.55 l 20.65 29.4 l 7.5 -7.5 l -21.6 -30.85 l -6.1 6.1 l 0 -37.6 z"></path></g></g></g>
</svg>
