<svg xmlns="http://www.w3.org/2000/svg" viewBox="0 0 58.05 172.294907" width="58.05" height="172.294907" fill="currentColor" stroke="none">
<g transform="translate(29.025 86.147453)"><g><g><path d="M -4.024999999999999 -45.67500000000001 l -7.5 7.5 l 22.55 22.55 l -14.4 0 l -17.6 17.65 l 0 22.35 l 40 0 l 10 -10 l -40 0 l 0 -20 l 30 0 l 8.5 -8.5 l -31.55 -31.55 z"></path><g><path d="M -1.4250000000000007 -35.67500000000001 q 1.655 -2.716 -2.6 -10 l -15 0 l -10 10 l 20 0 q 7.015 2.931 7.6 0 z"></path></g><g><path d="M 29.025000000000002 14.375 l -15 0 q 2.75 6.15 -5 10 l 10 0 l 0 12.6 l -7.5 7.5 l 1.2 1.2 l 16.3 -16.3 l 0 -15 z"></path></g></g></g></g>
</svg>
