<svg xmlns="http://www.w3.org/2000/svg" viewBox="0 0 65.25 172.294907" width="65.25" height="172.294907" fill="currentColor" stroke="none">
<g transform="translate(32.625 86.147453)"><g><g><path d="M -15.125 -47.24166216650749 l -10 10 l 0 40 l 9.55 -9.55 l 20.65 29.4 l 7.5 -7.5 l -21.6 -30.85 l -6.1 6.1 l 0 -37.6 z"></path><g><path d="M -25.125 -26.041662166507496 q 5 -12.14 10 -11.2 l 0 -10 l -17.5 17.5 l 1.2 1.2 l 6.3 -6.3 l 0 8.8 z"></path></g><g><path d="M 11.424999999999997 13.9583378334925 l 0 -0.05 q -8.1 -2.8 -6.35 8.7 l 6.35 -6.3 q 9.4 17.75 21.2 6.85 q -12.25 2.15 -14.85 -15.5 l -6.35 6.3 z"></path></g><path d="M 10 47.241662166507496 l 10 -10 l -30 0 l -10 10 l 30 0 z"></path></g></g></g>
</svg>
