<svg xmlns="http://www.w3.org/2000/svg" viewBox="0 0 358.3 119.483324" width="358.3" height="119.483324" fill="currentColor" stroke="none">
<g transform="translate(179.15 59.741662)"><g><g><path d="M -171.64999999999998 -34.8166621665075 l -7.5 7.5 57.5 62.5 7.5 -7.5 -57.5 -62.5 z"></path></g><g><path d="M -94.14999999999998 25.108337833492502 l -10 10 l 65.75 0 l 9.9 -9.95 l -30.45 -37.55 l -7.25 7.3 l -24.15 -29.65 l -7.45 7.4 l 25.2 31.05 l 7.5 -7.45 l 23.1 28.85 l -52.15 0 z"></path><path d="M -73.82499999999997 -52.241662166507496 l 7.5 7.5 l 7.5 -7.5 l -7.5 -7.5 l -7.5 7.5 z"></path></g><g><path d="M -0.9999999999999716 -34.741662166507496 l -10 10 l 0 40 l 9.55 -9.55 l 20.65 29.4 l 7.5 -7.5 l -21.6 -30.85 l -6.1 6.1 l 0 -37.6 z"></path><g><path d="M -10.999999999999972 -13.541662166507503 q 5 -12.14 10 -11.2 l 0 -10 l -17.5 17.5 l 1.2 1.2 l 6.3 -6.3 l 0 8.8 z"></path></g><g><path d="M 25.55000000000001 26.458337833492493 l 0 -0.05 q -8.1 -2.8 -6.35 8.7 l 6.35 -6.3 q 9.4 17.75 21.2 6.85 q -12.25 2.15 -14.85 -15.5 l -6.35 6.3 z"></path></g><path d="M 24.12500000000003 59.74166216650749 l 10 -10 l -30 0 l -10 10 l 30 0 z"></path></g><g><path d="M 79.14999999999998 -34.8166621665075 l -10 10 l 0 60 l 10 -10 l 0 -60 z"></path><g><path d="M 56.75 45.1833378334925 l 22.4 0 l 10 -10.1 l -19.9 0 l -0.1 0.1 l 0 -0.1 l 0.05 0 l 9.95 -9.9 l 0 -5 q -5 5.774 -10 5 l 0 7.55 l -12.4 12.4 z"></path></g></g><g><path d="M 117.34999999999997 -34.8166621665075 l -10 10 l 0 60 l 10 -10 l 0 -60 z"></path><g><path d="M 119.14999999999998 46.9833378334925 l -11.8 -11.8 l 10 -10 l 0 -5 q -5.188 7.964 -10 5 l 0 7.7 l -8.2 8.2 l 13 12.9 l 7 -7 z"></path></g></g><g><path d="M 144.14999999999998 -34.8166621665075 l -10 10 l 0 35 l 19.95 0 l -24.95 25 l 40 0 l 10 -10 l -37.6 0 l 24.85 -25 l -22.25 0 l 0 -35 z"></path><path d="M 164.14999999999998 -44.8166621665075 l 10 -10 l -30 0 l -10 10 l 30 0 z"></path></g></g></g>
</svg>
