<svg xmlns="http://www.w3.org/2000/svg" viewBox="0 0 188.05 105.05" width="188.05" height="105.05" fill="currentColor" stroke="none">
<g transform="translate(94.025 52.525)"><g><g><path d="M -71.625 -32.50000000000001 l -10 10 l 0 60 l 10 -10 l 0 -60 z"></path><g><path d="M -94.025 47.49999999999999 l 22.4 0 l 10 -10.1 l -19.9 0 l -0.1 0.1 l 0 -0.1 l 0.05 0 l 9.95 -9.9 l 0 -5 q -5 5.774 -10 5 l 0 7.55 l -12.4 12.4 z"></path></g></g><g><path d="M -41.725 -32.525000000000006 l -9.9 9.95 l 47.35 58.35 l 0.05 0 l 1.4 1.75 l 7.5 -7.5 l -42.7 -52.55 l 52.05 0 l 10 -10 l -65.75 0 z"></path><g><path d="M 12.175000000000011 52.525000000000006 l 7.5 -7.5 l -15 -15 q -6.8 0.5 -7.5 7.5 l 15 15 z"></path></g><path d="M -3.8000000000000114 -42.525000000000006 l 10 -10 l -30 0 l -10 10 l 30 0 z"></path></g><g><path d="M 44.025000000000006 -32.50000000000001 l -10 10 l 0 60 l 10 -10 l 0 -60 z"></path></g><g><path d="M 65.17500000000001 -32.425000000000004 l -10 10 l 0 40 l 9.55 -9.55 l 20.65 29.4 l 7.5 -7.5 l -21.6 -30.85 l -6.1 6.1 l 0 -37.6 z"></path><path d="M 84.025 -42.42500000000001 l 10 -10 l -30 0 l -10 10 l 30 0 z"></path></g></g></g>
</svg>
