<svg xmlns="http://www.w3.org/2000/svg" viewBox="0 0 337.6 171.3" width="337.6" height="171.3" fill="currentColor" stroke="none">
<g transform="translate(168.8 85.65)"><g><g><path d="M -152.5 -44.349999999999994 l -7.5 7.5 57.5 62.5 7.5 -7.5 -57.5 -62.5 z"></path><path d="M -158.8 -35.64999999999999 q 6.486 1.216 4.75 -5 q -2.924 3.894 -5.95 3.8 l -8.8 8.8 l 0 15 l 10 -10 l 0 -12.6 z"></path></g><g><path d="M -35 -34.349999999999994 l 10 -10 l -50 0 l -10 10 l 0 30 l 30 0 l 0 30 l 10 -10 l 0 -30 l -30 0 l 0 -20 l 40 0 z"></path></g><g><path d="M 25 25.650000000000006 l 10 -10 l 0 -50 l 10 -10 l -45 0 l -10 10 l 42.6 0 l -7.6 7.6 l 0 42.4 l -30 0 l -10 10 l 40 0 z"></path><g><path d="M -10 -34.349999999999994 l 15 0 q -2.75 -6.15 5 -10 l -10 0 l 0 -12.6 l 7.5 -7.5 l -1.2 -1.2 l -16.3 16.3 l 0 15 z"></path></g><g><path d="M 5 25.650000000000006 q -6.368 -3.408 0 -10 l -10 0 l -10 10 l 0 15 l 10 -10 l 0 -5 l 10 0 z"></path></g><path d="M 25 -75.65 l 10 -10 l -30 0 l -10 10 l 30 0 z"></path><path d="M 5 60.650000000000006 l 0 25 l 20 -20 l -1.2 -1.2 l -8.8 8.8 l 0 -22.6 l -10 10 z"></path></g><g><path d="M 65 -44.349999999999994 l -10 10 l 0 60 l 10 -10 l 0 -60 z"></path><g><path d="M 55 10.650000000000006 l 0 15 l 15 0 l 10 -10 l -15 0 l 0 -10 q -3.874 7.753 -10 5 z"></path></g></g><g><path d="M 99.89999999999998 -44.37499999999999 l -9.9 9.95 l 47.35 58.35 l 0.05 0 l 1.4 1.75 l 7.5 -7.5 l -42.7 -52.55 l 52.05 0 l 10 -10 l -65.75 0 z"></path><g><path d="M 146.3 18.17500000000002 q -6.8 0.5 -7.5 7.5 l 15 15 l 15 -15 l -1.2 -1.2 l -7.5 7.5 l -13.8 -13.8 z"></path></g><path d="M 139.39999999999998 -54.37499999999999 l 10 -10 l -30 0 l -10 10 l 30 0 z"></path></g></g></g>
</svg>
