<svg xmlns="http://www.w3.org/2000/svg" viewBox="0 0 250 115" width="250" height="115" fill="currentColor" stroke="none">
<g transform="translate(125 57.5)"><g><g><path d="M -117.5 -42.5 l -7.5 7.5 57.5 62.5 7.5 -7.5 -57.5 -62.5 z"></path></g><g><path d="M 0 -32.5 l 10 -10 l -50 0 l -10 10 l 0 30 l 30 0 l 0 30 l 10 -10 l 0 -30 l -30 0 l 0 -20 l 40 0 z"></path><g><path d="M 5 -32.5 l 12.5 12.5 l 7.5 -7.5 l -15 -15 q -8.65 2.75 -10 10 l 5 0 z"></path></g><g><path d="M -10 6.300000000000001 q -5 12.14 -10 11.2 l 0 10 l 17.5 -17.5 l -1.2 -1.2 l -6.3 6.3 l 0 -8.8 z"></path></g><path d="M -20.099999999999994 47.5 l 8.8 -8.8 l -1.2 -1.2 l -20 20 l 30 0 l 10 -10 l -27.6 0 z"></path></g><g><path d="M 55 -18.65 l -10 10 l 0 -33.85 l -10 10 l 0 36.2 l 10 -9.95 l 0 33.75 l 10 -10 l 0 -36.15 z"></path><g><path d="M 45 47.5 l 10 -10 l 0 -20 q -7.3 -5 -10 10 l 0 20 z"></path></g></g><g><path d="M 92.94999999999999 -57.5 l -7.5 7.5 l 21.65 27.5 l 7.45 -7.5 l -21.6 -27.5 z"></path><path d="M 75 -12.5 l -10 10 l 50 0 l 10 -10 l -50 0 z"></path></g></g></g>
</svg>
