<svg xmlns="http://www.w3.org/2000/svg" viewBox="0 0 75.9 172.294907" width="75.9" height="172.294907" fill="currentColor" stroke="none">
<g transform="translate(37.95 86.147453)"><g><g><path d="M 10.399999999999999 22.651527050610824 l 7.5 -7.5 l -31.25 -31.25 l 31.25 -31.25 l -40 0 l -10 10 l 37.6 0 l -27.5 27.6 l 32.4 32.4 z"></path><g><path d="M -22.1 -37.348472949389176 q -2.55 -4.45 5 -10 l -5 0 l -15.85 15.9 l 13 12.9 l 7 -7 l -11.8 -11.8 l 7.65 0 z"></path></g><g><path d="M 16.75 14.001527050610825 l 0 -0.05 q -8.1 -2.8 -6.35 8.7 l 6.35 -6.3 q 9.4 17.75 21.2 6.85 q -12.25 2.15 -14.85 -15.5 l -6.35 6.3 z"></path></g><path d="M 10 47.348472949389176 l 10 -10 l -30 0 l -10 10 l 30 0 z"></path></g></g></g>
</svg>
