<svg xmlns="http://www.w3.org/2000/svg" viewBox="0 0 80 110" width="80" height="110" fill="currentColor" stroke="none">
<g transform="translate(40 55)"><g><g><path d="M -30 -35 l -10 10 l 0 60 l 10 -10 l 0 -60 z"></path></g><g><path d="M -4.950000000000003 -25 l 34.95 0 l 10 -10 l -50 0 l -10 10 l 25 25 l 0 35 l 10 -10 l 0 -30.05 l -19.95 -19.95 z"></path><g><path d="M 15 42.6 l 0 -17.6 q -7.3 -5 -10 10 l 0 20 l 17.5 -17.5 l -1.2 -1.2 l -6.3 6.3 z"></path></g><path d="M 20 -45 l 10 -10 l -30 0 l -10 10 l 30 0 z"></path></g></g></g>
</svg>
