<svg xmlns="http://www.w3.org/2000/svg" viewBox="0 0 395.65 140" width="395.65" height="140" fill="currentColor" stroke="none">
<g transform="translate(197.825 70)"><g><g><path d="M -181.52499999999998 -45.00000000000001 l -7.5 7.5 57.5 62.5 7.5 -7.5 -57.5 -62.5 z"></path><path d="M -187.825 -36.30000000000001 q 6.486 1.216 4.75 -5 q -2.924 3.894 -5.95 3.8 l -8.8 8.8 l 0 15 l 10 -10 l 0 -12.6 z"></path><path d="M -127.07499999999999 18.599999999999994 q -1.825 3.28 -4.45 6.4 l -7.5 7.5 l -1.2 -1.2 l 7.5 -7.5 q -1.688 -4.106 -0.35 -4.55 q 1.45 -0.6 6 -0.65 z"></path><path d="M -128.92499999999998 -35.00000000000001 l -8.8 8.8 l 1.2 1.2 l 20 -20 l -30 0 l -10 10 l 27.6 0 z"></path></g><g><path d="M -91.475 -35.00000000000001 l 34.95 0 l 10 -10 l -50 0 l -10 10 l 25 25 l 0 35 l 10 -10 l 0 -30.05 l -19.95 -19.95 z"></path><path d="M -84.12499999999999 44.99999999999999 l 8.8 -8.8 l -1.2 -1.2 l -20 20 l 30 0 l 10 -10 l -27.6 0 z"></path></g><g><path d="M -1.5249999999999773 24.999999999999993 l 10 -10 l 0 -35 l -19.95 0 l 24.95 -25 l -40 0 l -10 10 l 37.6 0 l -24.85 25 l 22.25 0 l 0 35 z"></path><path d="M -21.524999999999977 44.99999999999999 l 0 25 l 20 -20 l -1.2 -1.2 l -8.8 8.8 l 0 -22.6 l -10 10 z"></path></g><g><path d="M 46.02499999999998 24.999999999999993 l 50 0 l 9.4 -9.4 l -23.2 -33.05 l -6.2 6.25 l 0 -33.8 l -10 10 l 0 36.15 l 1.1 -1.1 q 2.967 -2.977 5.95 -5.95 l 1.95 -2 l 0.65 -0.65 l 16.5 23.5 l -36.2 0 l -10 10 z"></path><g><path d="M 23.475000000000023 17.5 l 1.2 1.2 l 7.5 -7.5 l 13.8 13.8 q 8.65 -2.75 10 -10 l -5 0 l -12.5 -12.5 l -15 15 z"></path></g><path d="M 56.94999999999999 -62.5 l 7.5 7.5 l 7.5 -7.5 l -7.5 -7.5 l -7.5 7.5 z"></path><path d="M 56.94999999999999 42.5 l 7.5 7.5 l 7.5 -7.5 l -7.5 -7.5 l -7.5 7.5 z"></path></g><g><path d="M 137.825 -45.00000000000001 l -10 10 l 0 60 l 10 -10 l 0 -60 z"></path><g><path d="M 115.42500000000001 34.99999999999999 l 22.4 0 l 10 -10.1 l -19.9 0 l -0.1 0.1 l 0 -0.1 l 0.05 0 l 9.95 -9.9 l 0 -5 q -5 5.774 -10 5 l 0 7.55 l -12.4 12.4 z"></path></g></g><g><path d="M 168.97499999999997 -44.925000000000004 l -10 10 l 0 40 l 9.55 -9.55 l 20.65 29.4 l 7.5 -7.5 l -21.6 -30.85 l -6.1 6.1 l 0 -37.6 z"></path><path d="M 187.825 -54.92500000000001 l 10 -10 l -30 0 l -10 10 l 30 0 z"></path></g></g></g>
</svg>
