<svg xmlns="http://www.w3.org/2000/svg" viewBox="0 0 143.8 100" width="143.8" height="100" fill="currentColor" stroke="none">
<g transform="translate(71.9 50)"><g><g><path d="M -64.4 -50 l -7.5 7.5 57.5 62.5 7.5 -7.5 -57.5 -62.5 z"></path><path d="M -8.100000000000009 11.3 q -4.2 -0.65 -6.3 2.7 q -0.8 1 0 6 l 6.3 -6.3 l 0 19.95 l 10 -10.1 l 0 -22.35 l -10 10.1 z"></path><path d="M -39.300000000000004 40 l -8.8 8.8 l 1.2 1.2 l 20 -20 l -30 0 l -10 10 l 27.6 0 z"></path></g><g><path d="M 61.900000000000006 -40 l 10 -10 l -50 0 l -10 10 l 0 30 l 30 0 l 0 30 l 10 -10 l 0 -30 l -30 0 l 0 -20 l 40 0 z"></path></g></g></g>
</svg>
