<svg xmlns="http://www.w3.org/2000/svg" viewBox="0 0 90.05 172.294907" width="90.05" height="172.294907" fill="currentColor" stroke="none">
<g transform="translate(45.025 86.147453)"><g><g><path d="M -9.974999999999994 -28.85 l -10 10 l 0 60 l 10 -10 l 0 -50 l 30 0 l 10 -10 l -40 0 z"></path><g><path d="M 25.025000000000006 -18.85 l 12.5 12.5 l 7.5 -7.5 l -15 -15 q -8.65 2.75 -10 10 l 5 0 z"></path></g><g><path d="M -20.024999999999995 38.85 l -15 0 l -10 10 l 17.4 0 l 17.65 -17.7 l 0 -7.3 q -5.4 4.35 -10 2.75 l 0 12.25 z"></path></g><path d="M 10.000000000000007 -38.85 l 10 -10 l -30 0 l -10 10 l 30 0 z"></path></g></g></g>
</svg>
