<svg xmlns="http://www.w3.org/2000/svg" viewBox="0 0 99.3 172.294907" width="99.3" height="172.294907" fill="currentColor" stroke="none">
<g transform="translate(49.65 86.147453)"><g><g><path d="M -25.000000000000007 -48.75 l -7.5 7.5 57.5 62.5 7.5 -7.5 -57.5 -62.5 z"></path><path d="M -27.500000000000007 -46.25 l -5 5 l -10 -10 l -7.15 7.15 l 11.3 11.2 l 7 -7.1 l 1 -1 q 3.183 1.742 3.85 0 q 0.916 -1.293 0 -6.25 z"></path><path d="M 27.5 18.75 l 5 -5 l 10 10 l 7.15 -7.15 l -11.3 -11.2 l -7 7.1 l -1 1 q -3.183 -1.742 -3.85 0 q -0.916 1.293 0 6.25 z"></path><path d="M 27.599999999999994 -38.75 l -8.8 8.8 l 1.2 1.2 l 20 -20 l -30 0 l -10 10 l 27.6 0 z"></path><path d="M 0.09999999999999432 41.25 l -8.8 8.8 l 1.2 1.2 l 20 -20 l -30 0 l -10 10 l 27.6 0 z"></path></g></g></g>
</svg>
