<svg xmlns="http://www.w3.org/2000/svg" viewBox="0 0 76.8 172.294907" width="76.8" height="172.294907" fill="currentColor" stroke="none">
<g transform="translate(38.4 86.147453)"><g><g><path d="M -23.4 -50 l -7.5 7.5 57.5 62.5 7.5 -7.5 -57.5 -62.5 z"></path><path d="M -24.5 -46.95 q -3.28 1.825 -6.4 4.45 l -7.5 7.5 l 1.2 1.2 l 7.5 -7.5 q 4.106 1.688 4.55 0.35 q 0.6 -1.45 0.65 -6 z"></path><path d="M 38.4 31.799999999999997 l -11.8 -11.8 l 5 -5 q -7.681 -1.687 -7.1 0.5 l 0.95 3.35 l -7.05 7.05 l 13 12.9 z"></path><path d="M 1.7000000000000028 40 l -8.8 8.8 l 1.2 1.2 l 20 -20 l -30 0 l -10 10 l 27.6 0 z"></path></g></g></g>
</svg>
