<svg xmlns="http://www.w3.org/2000/svg" viewBox="0 0 539.5 152.725" width="539.5" height="152.725" fill="currentColor" stroke="none">
<g transform="translate(269.75 76.3625)"><g><g><path d="M -262.25 -38.8625 l -7.5 7.5 57.5 62.5 7.5 -7.5 -57.5 -62.5 z"></path><path d="M -214.85 21.137500000000003 q -1.65 2.7 2.6 10 l 12.6 0 l -7.5 7.5 l 1.2 1.2 l 18.7 -18.7 l -20 0 q -7 -2.95 -7.6 0 z"></path><path d="M -251 -68.8625 l 20 20 l 7.5 -7.5 l -20 -20 l -7.5 7.5 z"></path></g><g><path d="M -162.2 -28.862499999999997 l 34.95 0 l 10 -10 l -50 0 l -10 10 l 25 25 l 0 35 l 10 -10 l 0 -30.05 l -19.95 -19.95 z"></path><path d="M -154.75 -56.3625 l 7.5 7.5 l 7.5 -7.5 l -7.5 -7.5 l -7.5 7.5 z"></path><path d="M -137.25 51.1375 l 10 -10 l -30 0 l -10 10 l 30 0 z"></path></g><g><path d="M -72.25 31.137500000000003 l 10 -10 l 0 -35 l -19.95 0 l 24.95 -25 l -40 0 l -10 10 l 37.6 0 l -24.85 25 l 22.25 0 l 0 35 z"></path><path d="M -92.25 51.1375 l 0 25 l 20 -20 l -1.2 -1.2 l -8.8 8.8 l 0 -22.6 l -10 10 z"></path></g><g><path d="M -37.25 -8.487499999999997 l -10 10 l 29.85 29.85 l 7.5 -7.5 l -22.35 -22.35 l 20 0 l 15 -15 l -25.6 -25.6 l -7.5 7.5 l 23.1 23.1 l -30 0 z"></path><path d="M -12.25 -49.0875 l 10 -10 l -30 0 l -10 10 l 30 0 z"></path><path d="M -32.25 51.362500000000004 l 0 25 l 20 -20 l -1.2 -1.2 l -8.8 8.8 l 0 -22.6 l -10 10 z"></path></g><g><path d="M 27.75 -38.8625 l -7.5 7.5 57.5 62.5 7.5 -7.5 -57.5 -62.5 z"></path><path d="M 26.649999999999977 -35.8125 q -3.28 1.825 -6.4 4.45 l -7.5 7.5 l 1.2 1.2 l 7.5 -7.5 q 4.106 1.688 4.55 0.35 q 0.6 -1.45 0.65 -6 z"></path><path d="M 89.55000000000001 42.9375 l -11.8 -11.8 l 5 -5 q -7.681 -1.687 -7.1 0.5 l 0.95 3.35 l -7.05 7.05 l 13 12.9 z"></path><path d="M 52.85000000000002 51.1375 l -8.8 8.8 l 1.2 1.2 l 20 -20 l -30 0 l -10 10 l 27.6 0 z"></path></g><g><path d="M 119.85000000000002 -38.8625 l -7.5 7.5 l 31.25 31.25 l -31.25 31.25 l 40 0 l 10 -10 l -37.6 0 l 27.5 -27.6 l -32.4 -32.4 z"></path><g><path d="M 120.75 -37.262499999999996 l 11.2 -11.3 l -22.4 0 l -10 10.1 l 19.9 0 l -7.1 7.1 q 10.446 1.157 8.4 -5.9 z"></path></g><g><path d="M 162.35000000000002 21.137500000000003 l -15 0 q 2.75 6.15 -5 10 l 10 0 l 0 12.6 l -7.5 7.5 l 1.2 1.2 l 16.3 -16.3 l 0 -15 z"></path></g></g><g><path d="M 194.75 -38.8625 l -10 10 l 0 60 l 10 -10 l 0 -60 z"></path><g><path d="M 172.35000000000002 41.1375 l 22.4 0 l 10 -10.1 l -19.9 0 l -0.1 0.1 l 0 -0.1 l 0.05 0 l 9.95 -9.9 l 0 -5 q -5 5.774 -10 5 l 0 7.55 l -12.4 12.4 z"></path></g></g><g><path d="M 269.75 -38.8375 l -10 10 l 0 20 l -35 0 l -10 10 l 29.95 29.95 l 7.5 -7.5 l -22.45 -22.45 l 30 0 l 10 -10 l 0 -30 z"></path><g><path d="M 242.10000000000002 21.112499999999983 q -1.655 2.716 2.6 10 l 15 0 l 10 -10 l -20 0 q -7.015 -2.931 -7.6 0 z"></path></g><path d="M 252.25 -48.837500000000006 l 10 -10 l -30 0 l -10 10 l 30 0 z"></path></g></g></g>
</svg>
