<svg xmlns="http://www.w3.org/2000/svg" viewBox="0 0 307.4 140" width="307.4" height="140" fill="currentColor" stroke="none">
<g transform="translate(153.7 70)"><g><g><path d="M -106.19999999999999 25 l 7.5 -7.5 -26.9 -26.9 7.45 -7.55 -28.05 -28.05 -7.5 7.5 26.9 26.9 -7.5 7.5 28.1 28.1 z"></path></g><g><path d="M -36.29999999999998 -5.375 l 10 -10 l -29.85 -29.85 l -7.5 7.5 l 22.35 22.35 l -20 0 l -15 15 l 25.6 25.6 l 7.5 -7.5 l -23.1 -23.1 l 30 0 z"></path><g><path d="M -63.64999999999998 -37.725 l -15.05 0 l -10 10 l 17.45 0 l 8.75 -8.8 q 6.9 0.2 3.8 -6.15 l -4.95 4.95 z"></path></g><g><path d="M -51.59999999999998 23.625 l -11.2 11.3 l 22.4 0 l 10 -10.1 l -19.9 0 l 7.1 -7.1 q -10.446 -1.157 -8.4 5.9 z"></path></g><path d="M -65.09999999999998 54.92500000000001 l 8.8 -8.8 l -1.2 -1.2 l -20 20 l 30 0 l 10 -10 l -27.6 0 z"></path></g><g><path d="M 3.700000000000017 -21.15 l -10 10 l 0 -33.85 l -10 10 l 0 36.2 l 10 -9.95 l 0 33.75 l 10 -10 l 0 -36.15 z"></path><g><path d="M 23.700000000000017 25 l -15 0 l 10 -10 l -15 0 l 0 -10 q -3.85 7.75 -10 5 l 0 15 l 12.55 0 l -9.95 10 l 17.4 0 l 10 -10 z"></path></g></g><g><path d="M 43.70000000000002 -45 l -10 10 l 0 60 l 40 0 l 10 -10 l -40 0 l 0 -60 z"></path><path d="M 51.20000000000002 -62.5 l 7.5 7.5 l 7.5 -7.5 l -7.5 -7.5 l -7.5 7.5 z"></path><path d="M 48.70000000000002 45 l 0 25 l 20 -20 l -1.2 -1.2 l -8.8 8.8 l 0 -22.6 l -10 10 z"></path></g><g><path d="M 126.19999999999999 -47.5 l 12.5 12.5 l -25 0 l -10 10 l 40 0 l 10 -10 l -20 -20 l -7.5 7.5 z"></path><path d="M 103.69999999999999 -15 l -10 10 l 50 0 l 10 -10 l -50 0 z"></path></g></g></g>
</svg>
