<svg xmlns="http://www.w3.org/2000/svg" viewBox="0 0 387.7 114.975" width="387.7" height="114.975" fill="currentColor" stroke="none">
<g transform="translate(193.85 57.4875)"><g><g><path d="M -186.35 -37.512499999999996 l -7.5 7.5 57.5 62.5 7.5 -7.5 -57.5 -62.5 z"></path><path d="M -138.95 22.487500000000004 q -1.655 2.716 2.6 10 l 15 0 l 10 -10 l -20 0 q -7.015 -2.931 -7.6 0 z"></path><path d="M -183.85 14.987500000000004 l -10 10 l 0 25 l 10 -10 l 0 -25 z"></path><path d="M -176.35 49.987500000000004 l 7.5 7.5 l 7.5 -7.5 l -7.5 -7.5 l -7.5 7.5 z"></path></g><g><path d="M -91.35 -37.43749999999999 l -10 10 l 0 40 l 9.55 -9.55 l 20.65 29.4 l 7.5 -7.5 l -21.6 -30.85 l -6.1 6.1 l 0 -37.6 z"></path></g><g><path d="M -43.650000000000006 -37.512499999999996 l -10 10 l 0 60 l 10 -10 l 0 -60 z"></path><g><path d="M -53.650000000000006 17.487500000000004 l 0 15 l 10 -10 l 0 20 l 10 -9.9 l 0 -22.4 l -10 9.95 l 0 -5.15 q -5 6.1 -10 2.5 z"></path></g></g><g><path d="M 31.349999999999994 -37.4875 l -10 10 l 0 20 l -35 0 l -10 10 l 29.95 29.95 l 7.5 -7.5 l -22.45 -22.45 l 30 0 l 10 -10 l 0 -30 z"></path><g><path d="M 3.6999999999999886 22.462499999999984 q -1.65 2.7 2.6 10 l 12.6 0 l -7.5 7.5 l 1.2 1.2 l 18.7 -18.7 l -20 0 q -7 -2.95 -7.6 0 z"></path></g><path d="M 13.849999999999994 -47.487500000000004 l 10 -10 l -30 0 l -10 10 l 30 0 z"></path></g><g><path d="M 69.35 5.587500000000004 l 7.45 -7.5 27.05 34.4 7.5 -7.5 -27.8 -36 -7.75 7.8 -26.95 -34.3 -7.5 7.5 28 35.6 z"></path><path d="M 101.24999999999997 22.487500000000004 q -1.655 2.716 2.6 10 l 15 0 l 10 -10 l -20 0 q -7.015 -2.931 -7.6 0 z"></path><path d="M 43.849999999999994 12.487500000000004 l 20 20 l 7.5 -7.5 l -20 -20 l -7.5 7.5 z"></path><path d="M 61.349999999999994 49.987500000000004 l 7.5 7.5 l 7.5 -7.5 l -7.5 -7.5 l -7.5 7.5 z"></path></g><g><path d="M 193.85 -37.4875 l -10 10 l 0 20 l -35 0 l -10 10 l 29.95 29.95 l 7.5 -7.5 l -22.45 -22.45 l 30 0 l 10 -10 l 0 -30 z"></path><g><path d="M 175.1 23.762499999999985 q -6.486 -1.216 -4.75 5 q 2.924 -3.894 5.95 -3.8 l 8.8 -8.8 l 0 -15 l -10 10 l 0 12.6 z"></path></g></g></g></g>
</svg>
