<svg xmlns="http://www.w3.org/2000/svg" viewBox="0 0 71.95 172.294907" width="71.95" height="172.294907" fill="currentColor" stroke="none">
<g transform="translate(35.975 86.147453)"><g><g><path d="M -24.175 -30.6 l -7.5 7.5 l 31.25 31.25 l -31.25 31.25 l 40 0 l 10 -10 l -37.6 0 l 27.5 -27.6 l -32.4 -32.4 z"></path><g><path d="M -35.975 -42.4 l 11.8 11.8 l -5 5 q 7.681 1.687 7.1 -0.5 l -0.95 -3.35 l 7.05 -7.05 l -13 -12.9 z"></path></g><g><path d="M 23.475 21.9 l -7.5 7.5 l -11.1 0 q 3.05 5.25 -1.5 10 l 5 0 l 8.8 -8.85 q 0.445 14.232 18.8 18.85 q -12.993 -10.704 -12.45 -27.5 z"></path></g></g></g></g>
</svg>
