<svg xmlns="http://www.w3.org/2000/svg" viewBox="0 0 424.3 105.025" width="424.3" height="105.025" fill="currentColor" stroke="none">
<g transform="translate(212.15 52.5125)"><g><g><path d="M -204.65 -37.487500000000004 l -7.5 7.5 57.5 62.5 7.5 -7.5 -57.5 -62.5 z"></path></g><g><path d="M -97.15 2.1374999999999957 l 10 -10 l -29.85 -29.85 l -7.5 7.5 l 22.35 22.35 l -20 0 l -15 15 l 25.6 25.6 l 7.5 -7.5 l -23.1 -23.1 l 30 0 z"></path></g><g><path d="M -44 -40.587500000000006 l -1.2 -1.1 q -22.3 -0.55 -21.95 24.2 l 40 0 l 10 -10 l -40 0 q -0.1 -10.25 13.15 -13.1 z"></path><path d="M -67.15 -7.487500000000004 l -10 10 l 50 0 l 10 -10 l -50 0 z"></path></g><g><path d="M 0.3499999999999943 -37.487500000000004 l -7.5 7.5 57.5 62.5 7.5 -7.5 -57.5 -62.5 z"></path><path d="M 27.849999999999994 52.512499999999996 l 10 -10 l -30 0 l -10 10 l 30 0 z"></path></g><g><path d="M 87.85 -37.5125 l -7.5 7.5 l 22.55 22.55 l -14.4 0 l -17.6 17.65 l 0 22.35 l 40 0 l 10 -10 l -40 0 l 0 -20 l 30 0 l 8.5 -8.5 l -31.55 -31.55 z"></path><g><path d="M 67.85 -27.512500000000003 l 15 0 q 7 2.95 7.6 0 q 1.65 -2.7 -2.6 -10 l -10 0 l 0 -15 l -10 10 l 0 15 z"></path></g><g><path d="M 98.50000000000003 42.53750000000001 l 22.4 0 l 17.5 -17.5 l -1.2 -1.2 l -8.7 8.7 l -17.6 0 l 10 -10 l -12.65 0 q 5.5 3.45 -5.3 10 l 5.5 0 l -9.95 10 z"></path></g></g><g><path d="M 154.65 -27.487500000000004 q 24.3 9.1 15 21.3 l 1.25 1.15 q 15.85 -14.1 3.75 -22.45 l 20 0 l 17.5 -17.5 l -1.2 -1.2 l -8.7 8.7 l -37.6 0 l -10 10 z"></path><path d="M 158.4 -7.487500000000004 l -10 10 l 50 0 l 10 -10 l -50 0 z"></path></g></g></g>
</svg>
