<svg xmlns="http://www.w3.org/2000/svg" viewBox="0 0 650.35 135.225" width="650.35" height="135.225" fill="currentColor" stroke="none">
<g transform="translate(325.175 67.6125)"><g><g><path d="M -302.77500000000003 -47.387499999999996 l -10 10 l 0 60 l 10 -10 l 0 -60 z"></path><g><path d="M -325.175 32.612500000000004 l 22.4 0 l 10 -10.1 l -19.9 0 l -0.1 0.1 l 0 -0.1 l 0.05 0 l 9.95 -9.9 l 0 -5 q -5 5.774 -10 5 l 0 7.55 l -12.4 12.4 z"></path></g></g><g><path d="M -242.775 -7.762499999999996 l 10 -10 l -29.85 -29.85 l -7.5 7.5 l 22.35 22.35 l -20 0 l -15 15 l 25.6 25.6 l 7.5 -7.5 l -23.1 -23.1 l 30 0 z"></path><path d="M -247.775 -57.6125 l 10 -10 l -30 0 l -10 10 l 30 0 z"></path></g><g><path d="M -207.775 -47.387499999999996 l -7.5 7.5 57.5 62.5 7.5 -7.5 -57.5 -62.5 z"></path><path d="M -208.875 -44.33749999999999 q -3.28 1.825 -6.4 4.45 l -7.5 7.5 l 1.2 1.2 l 7.5 -7.5 q 4.106 1.688 4.55 0.35 q 0.6 -1.45 0.65 -6 z"></path><path d="M -151.475 13.912500000000005 q -4.2 -0.65 -6.3 2.7 q -0.8 1 0 6 l 6.3 -6.3 l 0 19.95 l 10 -10.1 l 0 -22.35 l -10 10.1 z"></path><path d="M -185.275 32.612500000000004 l -10 10 l 0 25 l 10 -10 l 0 -25 z"></path></g><g><path d="M -81.475 -37.387499999999996 l 10 -10 l -50 0 l -10 10 l 0 35 l 10 -10 l 15 0 l 0 35 l 10 -10 l 0 -35 l -17.35 0 l -7.65 7.6 l 0 -22.6 l 40 0 z"></path><path d="M -109.07499999999999 42.612500000000004 l 8.8 -8.8 l -1.2 -1.2 l -20 20 l 30 0 l 10 -10 l -27.6 0 z"></path></g><g><path d="M -51.47500000000002 -47.387499999999996 l -10 10 l 0 60 l 10 -10 l 0 -60 z"></path><g><path d="M -51.42500000000001 -45.0875 l 15 0 l 10 -10 l -17.4 0 l -17.65 17.7 l 0 7.3 q 5.4 -4.35 10 -2.75 l 0 -12.25 z"></path></g><g><path d="M -61.47500000000002 7.612500000000004 l 0 15 l 10 -10 l 0 20 l 10 -9.9 l 0 -22.4 l -10 9.95 l 0 -5.15 q -5 6.1 -10 2.5 z"></path></g></g><g><path d="M -6.525000000000034 -47.412499999999994 l -9.9 9.95 l 47.35 58.35 l 0.05 0 l 1.4 1.75 l 7.5 -7.5 l -42.7 -52.55 l 52.05 0 l 10 -10 l -65.75 0 z"></path><g><path d="M 33.474999999999966 19.587500000000016 q 3.28 -1.825 6.4 -4.45 l 7.5 -7.5 l -1.2 -1.2 l -7.5 7.5 q -4.106 -1.688 -4.55 -0.35 q -0.6 1.45 -0.65 6 z"></path></g><path d="M 31.399999999999977 -57.412499999999994 l 10 -10 l -30 0 l -10 10 l 30 0 z"></path></g><g><path d="M 106.02500000000003 -4.287499999999996 l 7.45 -7.5 27.05 34.4 7.5 -7.5 -27.8 -36 -7.75 7.8 -26.95 -34.3 -7.5 7.5 28 35.6 z"></path><path d="M 79.22500000000002 -38.6875 q 4.2 0.65 6.3 -2.7 q 0.8 -1 0 -6 l -6.3 6.3 l 0 -19.95 l -10 10.1 l 0 22.35 l 10 -10.1 z"></path><path d="M 143.02500000000003 20.112500000000004 l 5 -5 l 10 10 l 7.15 -7.15 l -11.3 -11.2 l -7 7.1 l -1 1 q -3.183 -1.742 -3.85 0 q -0.916 1.293 0 6.25 z"></path><path d="M 90.52500000000003 5.112500000000004 l -10 10 l 0 25 l 10 -10 l 0 -25 z"></path><path d="M 140.62500000000006 -37.387499999999996 l -8.8 8.8 l 1.2 1.2 l 20 -20 l -30 0 l -10 10 l 27.6 0 z"></path><path d="M 123.02500000000003 -57.387499999999996 l 10 -10 l -30 0 l -10 10 l 30 0 z"></path></g><g><path d="M 190.22500000000008 -37.387499999999996 l 34.95 0 l 10 -10 l -50 0 l -10 10 l 25 25 l 0 35 l 10 -10 l 0 -30.05 l -19.95 -19.95 z"></path><g><path d="M 200.175 42.612500000000004 l 10 -10 l 0 -20 q -7.3 -5 -10 10 l 0 20 z"></path></g></g><g><path d="M 255.175 -47.387499999999996 l -10 10 l 0 60 l 10 -10 l 0 -60 z"></path><g><path d="M 245.175 7.612500000000004 l 0 15 l 15 0 l 10 -10 l -15 0 l 0 -10 q -3.874 7.753 -10 5 z"></path></g></g><g><path d="M 290.175 -47.387499999999996 l -10 10 l 0 30 l 30 30 l 7.5 -7.5 l -27.5 -27.5 l 0 -35 z"></path><g><path d="M 311.27500000000003 19.562500000000004 q 3.28 -1.825 6.4 -4.45 l 7.5 -7.5 l -1.2 -1.2 l -7.5 7.5 q -4.106 -1.688 -4.55 -0.35 q -0.6 1.45 -0.65 6 z"></path></g><path d="M 312.675 -57.387499999999996 l 10 -10 l -30 0 l -10 10 l 30 0 z"></path></g></g></g>
</svg>
