<svg xmlns="http://www.w3.org/2000/svg" viewBox="0 0 67.05 172.294907" width="67.05" height="172.294907" fill="currentColor" stroke="none">
<g transform="translate(33.525 86.147453)"><g><g><path d="M 25.874999999999993 -40 l -50 0 l -9.4 9.4 l 23.2 33.05 l 6.2 -6.25 l 0 33.8 l 10 -10 l 0 -36.15 l -1.1 1.1 q -2.967 2.977 -5.95 5.95 l -1.95 2 l -0.65 0.65 l -16.5 -23.5 l 36.2 0 l 10 -10 z"></path><g><path d="M 10.92499999999999 -30 l 5 0 l 7.6 -7.6 l 0 19.95 l 10 -9.9 l 0 -22.45 l -10 10 l -12.6 0 q 3.5 4 0 10 z"></path></g><g><path d="M -4.125000000000011 50 l 10 -10 l 0 -20 q -7.3 -5 -10 10 l 0 20 z"></path></g></g></g></g>
</svg>
