<svg xmlns="http://www.w3.org/2000/svg" viewBox="0 0 40 172.294907" width="40" height="172.294907" fill="currentColor" stroke="none">
<g transform="translate(20 86.147453)"><g><g><path d="M 8.849999999999994 19.5 l 10 -10 l 0 -40 l -9.55 9.55 l -20.65 -29.4 l -7.5 7.5 l 21.6 30.85 l 6.1 -6.1 l 0 37.6 z"></path><g><path d="M 18.849999999999994 9.5 l 0 -5 q -6.25 9 -10 5 l 0 7.6 l -11.8 -11.7 l -7 7 l 12.95 12.95 l 15.85 -15.85 z"></path></g><path d="M 10 -60.349999999999994 l 10 -10 l -30 0 l -10 10 l 30 0 z"></path><path d="M -10 45.349999999999994 l 0 25 l 20 -20 l -1.2 -1.2 l -8.8 8.8 l 0 -22.6 l -10 10 z"></path></g></g></g>
</svg>
