<svg xmlns="http://www.w3.org/2000/svg" viewBox="0 0 218.25 100.025" width="218.25" height="100.025" fill="currentColor" stroke="none">
<g transform="translate(109.125 50.0125)"><g><g><path d="M -72.87499999999999 0.012500000000002842 l 7.5 -7.5 -32.5 -32.5 -7.5 7.5 32.5 32.5 m -17.5 -10 l -7.5 7.5 32.5 32.5 7.5 -7.5 -32.5 -32.5 z"></path><path d="M -79.12499999999999 50.0125 l 10 -10 l -30 0 l -10 10 l 30 0 z"></path></g><g><path d="M -37.97499999999998 -40.012499999999996 l -9.9 9.95 l 47.35 58.35 l 0.05 0 l 1.4 1.75 l 7.5 -7.5 l -42.7 -52.55 l 52.05 0 l 10 -10 l -65.75 0 z"></path><g><path d="M 12.77500000000002 -30.012499999999996 l 5 0 l 7.6 -7.6 l 0 19.95 l 10 -9.9 l 0 -22.45 l -10 10 l -12.6 0 q 3.5 4 0 10 z"></path></g><g><path d="M 7.2250000000000085 41.187500000000014 l -7.5 7.5 l 1.2 1.2 l 16.3 -16.3 l 0 -22.35 l -10 10.1 q -4.2 -0.65 -6.3 2.7 q -0.8 1 0 6 l 6.3 -6.3 l 0 17.45 z"></path></g></g><g><path d="M 89.12500000000001 -49.9875 l -7.5 7.5 l 12.5 12.5 l -25 0 l -17.5 17.5 l 1.2 1.2 l 8.7 -8.7 l 37.6 0 l 10 -10 l -20 -20 z"></path><path d="M 55.375000000000014 -9.987499999999997 l -10 10 l 50 0 l 10 -10 l -50 0 z"></path></g></g></g>
</svg>
