<svg xmlns="http://www.w3.org/2000/svg" viewBox="0 0 545.9 110" width="545.9" height="110" fill="currentColor" stroke="none">
<g transform="translate(272.95 55)"><g><g><path d="M -254.75000000000006 -35 l -10 10 l 0 60 l 10 -10 l 0 -60 z"></path><g><path d="M -252.95000000000005 46.8 l -11.8 -11.8 l 10 -10 l 0 -5 q -5.188 7.964 -10 5 l 0 7.7 l -8.2 8.2 l 13 12.9 l 7 -7 z"></path></g></g><g><path d="M -187.95000000000005 -34.975 l -10 10 l 0 20 l -35 0 l -10 10 l 29.95 29.95 l 7.5 -7.5 l -22.45 -22.45 l 30 0 l 10 -10 l 0 -30 z"></path><g><path d="M -213.90000000000003 33.37499999999998 l -11.2 11.3 l 22.4 0 l 10 -10.1 l -19.9 0 l 7.1 -7.1 q -10.446 -1.157 -8.4 5.9 z"></path></g><path d="M -205.45000000000005 -44.97500000000001 l 10 -10 l -30 0 l -10 10 l 30 0 z"></path></g><g><path d="M -141.15000000000006 8.1 l 7.45 -7.5 27.05 34.4 7.5 -7.5 -27.8 -36 -7.75 7.8 -26.95 -34.3 -7.5 7.5 28 35.6 z"></path><path d="M -167.95000000000005 -26.3 q 4.2 0.65 6.3 -2.7 q 0.8 -1 0 -6 l -6.3 6.3 l 0 -19.95 l -10 10.1 l 0 22.35 l 10 -10.1 z"></path><path d="M -124.15000000000006 -45 l 10 -10 l -30 0 l -10 10 l 30 0 z"></path></g><g><path d="M -46.60000000000008 -35 l -10 10 l 0 60 l 10 -10 l 0 -50 l 30 0 l 10 -10 l -40 0 z"></path><g><path d="M -46.60000000000008 25 l 0 -7.3 q -4.546 5.888 -10 3.05 l 0 11.95 l -15.05 0 l -17.5 17.5 l 1.2 1.2 l 8.7 -8.7 l 15 0 l 17.65 -17.7 z"></path></g></g><g><path d="M 43.39999999999992 35 l 10 -10 l 0 -60 l -10 10 l 0 50 l -30 0 l -10 10 l 40 0 z"></path><path d="M 38.39999999999992 55 l 10 -10 l -30 0 l -10 10 l 30 0 z"></path></g><g><path d="M 85.7999999999999 -35 l -10 10 l 0 60 l 10 -10 l 0 -60 z"></path><g><path d="M 63.39999999999992 45 l 22.4 0 l 10 -10.1 l -19.9 0 l -0.1 0.1 l 0 -0.1 l 0.05 0 l 9.95 -9.9 l 0 -5 q -5 5.774 -10 5 l 0 7.55 l -12.4 12.4 z"></path></g></g><g><path d="M 160.7999999999999 -34.975 l -10 10 l 0 20 l -35 0 l -10 10 l 29.95 29.95 l 7.5 -7.5 l -22.45 -22.45 l 30 0 l 10 -10 l 0 -30 z"></path><path d="M 143.2999999999999 -44.97500000000001 l 10 -10 l -30 0 l -10 10 l 30 0 z"></path></g><g><path d="M 197.94999999999987 -35 l -10 10 l 0 60 l 10 -10 l 0 -60 z"></path><g><path d="M 188.2999999999999 -22.9 q 0.375 -0.363 1.15 -1.15 q 6.261 -1.099 8.5 3.8 l 0 -14.75 l -10 10 l -10 -10 l -7.15 7.15 l 11.3 11.2 l 5.85 -5.9 q 0.04 -0.029 0.35 -0.35 z"></path></g><g><path d="M 175.5499999999999 45 l 22.4 0 l 10 -10.1 l -19.9 0 l -0.1 0.1 l 0 -0.1 l 0.05 0 l 9.95 -9.9 l 0 -5 q -5 5.774 -10 5 l 0 7.55 l -12.4 12.4 z"></path></g></g><g><path d="M 272.94999999999993 -34.975 l -10 10 l 0 20 l -35 0 l -10 10 l 29.95 29.95 l 7.5 -7.5 l -22.45 -22.45 l 30 0 l 10 -10 l 0 -30 z"></path><path d="M 255.44999999999993 -44.97500000000001 l 10 -10 l -30 0 l -10 10 l 30 0 z"></path></g></g></g>
</svg>
