<svg xmlns="http://www.w3.org/2000/svg" viewBox="0 0 238.9 115.025" width="238.9" height="115.025" fill="currentColor" stroke="none">
<g transform="translate(119.45 57.5125)"><g><g><path d="M -97.05000000000001 -37.487500000000004 l -10 10 l 0 60 l 10 -10 l 0 -60 z"></path><g><path d="M -119.45000000000002 42.512499999999996 l 22.4 0 l 10 -10.1 l -19.9 0 l -0.1 0.1 l 0 -0.1 l 0.05 0 l 9.95 -9.9 l 0 -5 q -5 5.774 -10 5 l 0 7.55 l -12.4 12.4 z"></path></g></g><g><path d="M -67.15 -37.5125 l -9.9 9.95 l 47.35 58.35 l 0.05 0 l 1.4 1.75 l 7.5 -7.5 l -42.7 -52.55 l 52.05 0 l 10 -10 l -65.75 0 z"></path><g><path d="M -20.75 25.03750000000001 q -6.8 0.5 -7.5 7.5 l 15 15 l 15 -15 l -1.2 -1.2 l -7.5 7.5 l -13.8 -13.8 z"></path></g><path d="M -27.650000000000006 -47.5125 l 10 -10 l -30 0 l -10 10 l 30 0 z"></path></g><g><path d="M 64.25 32.512499999999996 l 7.5 -7.5 -26.9 -26.9 7.45 -7.55 -28.05 -28.05 -7.5 7.5 26.9 26.9 -7.5 7.5 28.1 28.1 z"></path><path d="M 21.75 15.012499999999996 l -10 10 l 0 25 l 10 -10 l 0 -25 z"></path><path d="M 29.25 50.012499999999996 l 7.5 7.5 l 7.5 -7.5 l -7.5 -7.5 l -7.5 7.5 z"></path></g><g><path d="M 91.75 -37.4125 l -10 10 l 0 40 l 9.55 -9.55 l 20.65 29.4 l 7.5 -7.5 l -21.6 -30.85 l -6.1 6.1 l 0 -37.6 z"></path></g></g></g>
</svg>
