<svg xmlns="http://www.w3.org/2000/svg" viewBox="0 0 584.9 136.4" width="584.9" height="136.4" fill="currentColor" stroke="none">
<g transform="translate(292.45 68.2)"><g><g><path d="M -282.45 -43.2 l -10 10 l 0 60 l 10 -10 l 0 -60 z"></path></g><g><path d="M -206.8 -33.125 l 10 -10 l -65.75 0 l -9.9 9.95 l 30.45 37.55 l 7.25 -7.3 l 24.15 29.65 l 7.45 -7.4 l -25.2 -31.05 l -7.5 7.45 l -23.1 -28.85 l 52.15 0 z"></path><g><path d="M -204.3 18.024999999999995 q -6.486 -1.216 -4.75 5 q 2.924 -3.894 5.95 -3.8 l 8.8 -8.8 l 0 -15 l -10 10 l 0 12.6 z"></path></g><path d="M -223.375 -53.125 l 10 -10 l -30 0 l -10 10 l 30 0 z"></path></g><g><path d="M -166.1 -43.2 l -10 10 l 0 60 l 10 -10 l 0 -60 z"></path><g><path d="M -164.3 38.599999999999994 l -11.8 -11.8 l 10 -10 l 0 -5 q -5.188 7.964 -10 5 l 0 7.7 l -8.2 8.2 l 13 12.9 l 7 -7 z"></path></g></g><g><path d="M -88.65000000000003 -33.125 l 10 -10 l -65.75 0 l -9.9 9.95 l 30.45 37.55 l 7.25 -7.3 l 24.15 29.65 l 7.45 -7.4 l -25.2 -31.05 l -7.5 7.45 l -23.1 -28.85 l 52.15 0 z"></path><g><path d="M -84.95000000000002 19.224999999999994 q -6.8 0.5 -7.5 7.5 l 15 15 l 15 -15 l -1.2 -1.2 l -7.5 7.5 l -13.8 -13.8 z"></path></g><path d="M -98.37500000000003 -53.125 l 10 -10 l -30 0 l -10 10 l 30 0 z"></path></g><g><path d="M -44.94999999999999 -43.2 l -7.5 7.5 57.5 62.5 7.5 -7.5 -57.5 -62.5 z"></path><path d="M 9.5 20.4 q -1.825 3.28 -4.45 6.4 l -7.5 7.5 l -1.2 -1.2 l 7.5 -7.5 q -1.688 -4.106 -0.35 -4.55 q 1.45 -0.6 6 -0.65 z"></path><path d="M -27.44999999999999 -60.7 l 7.5 7.5 l 7.5 -7.5 l -7.5 -7.5 l -7.5 7.5 z"></path></g><g><path d="M 32.55000000000001 -43.2 l -10 10 l 0 36.3 l 10 -10.05 l 0 33.75 l 10 -10 l 0 -36.15 l -10 10 l 0 -23.85 l 30 0 l 10 -10 l -40 0 z"></path><path d="M 39.94999999999999 46.8 l 8.8 -8.8 l -1.2 -1.2 l -20 20 l 30 0 l 10 -10 l -27.6 0 z"></path></g><g><path d="M 132.45 26.799999999999997 l 10 -10 l 0 -60 l -40 0 l -10 10 l 40 0 l 0 60 z"></path><g><path d="M 114.84999999999997 -53.2 l -22.4 0 l -9.9 10 l 19.9 0 l -10 10 l 12.65 0 q -5.504 -3.447 5.3 -10 l -5.5 0 l 9.95 -10 z"></path></g><g><path d="M 142.45 16.799999999999997 l 0 -7.3 q -4.546 5.888 -10 3.05 l 0 11.95 l -15.05 0 l -17.5 17.5 l 1.2 1.2 l 8.7 -8.7 l 15 0 l 17.65 -17.7 z"></path></g><path d="M 105 60.7 l 7.5 7.5 l 7.5 -7.5 l -7.5 -7.5 l -7.5 7.5 z"></path></g><g><path d="M 181.3 26.724999999999994 l 10 -10 l 0 -40 l -9.55 9.55 l -20.65 -29.4 l -7.5 7.5 l 21.6 30.85 l 6.1 -6.1 l 0 37.6 z"></path><path d="M 182.45 -53.125 l 10 -10 l -30 0 l -10 10 l 30 0 z"></path><path d="M 164.95 44.224999999999994 l 7.5 7.5 l 7.5 -7.5 l -7.5 -7.5 l -7.5 7.5 z"></path></g><g><path d="M 212.45 -43.2 l -10 10 l 0 60 l 10 -10 l 0 -60 z"></path><g><path d="M 202.45 11.799999999999997 l 0 15 l 15 0 l 10 -10 l -15 0 l 0 -10 q -3.874 7.753 -10 5 z"></path></g></g><g><path d="M 292.45 -43.175000000000004 l -10 10 l 0 20 l -35 0 l -10 10 l 29.95 29.95 l 7.5 -7.5 l -22.45 -22.45 l 30 0 l 10 -10 l 0 -30 z"></path><g><path d="M 273.7 18.074999999999978 q -6.486 -1.216 -4.75 5 q 2.924 -3.894 5.95 -3.8 l 8.8 -8.8 l 0 -15 l -10 10 l 0 12.6 z"></path></g><path d="M 274.95 -53.17500000000001 l 10 -10 l -30 0 l -10 10 l 30 0 z"></path></g></g></g>
</svg>
