<svg xmlns="http://www.w3.org/2000/svg" viewBox="0 0 451.85 139.925" width="451.85" height="139.925" fill="currentColor" stroke="none">
<g transform="translate(225.925 69.9625)"><g><g><path d="M -189.125 -1.9375000000000018 l 7.45 -7.5 27.05 34.4 7.5 -7.5 -27.8 -36 -7.75 7.8 -26.95 -34.3 -7.5 7.5 28 35.6 z"></path><path d="M -215.92499999999998 -36.337500000000006 q 4.2 0.65 6.3 -2.7 q 0.8 -1 0 -6 l -6.3 6.3 l 0 -19.95 l -10 10.1 l 0 22.35 l 10 -10.1 z"></path><path d="M -147.125 17.4625 l 12.65 0 l -7.5 7.5 l 1.2 1.2 l 18.7 -18.7 l -17.45 0 l -8.75 8.8 q -6.9 -0.2 -3.8 6.15 l 4.95 -4.95 z"></path><path d="M -154.52499999999998 -35.0375 l -8.8 8.8 l 1.2 1.2 l 20 -20 l -30 0 l -10 10 l 27.6 0 z"></path><path d="M -184.625 34.9625 l -10 10 l 0 25 l 10 -10 l 0 -25 z"></path></g><g><path d="M -102.07499999999997 -44.9625 l -10 10 l 0 40 l 9.55 -9.55 l 20.65 29.4 l 7.5 -7.5 l -21.6 -30.85 l -6.1 6.1 l 0 -37.6 z"></path><g><path d="M -63.87499999999997 24.48749999999999 l -17.6 0 l 7.1 -7.1 q -10.45 -1.15 -8.4 5.9 l -11.2 11.3 l 22.4 0 l 17.5 -17.5 l -1.2 -1.2 l -8.6 8.6 z"></path></g><path d="M -90.57499999999996 -62.462500000000006 l 7.5 7.5 l 7.5 -7.5 l -7.5 -7.5 l -7.5 7.5 z"></path><path d="M -73.07499999999996 54.58749999999997 l 10 -10 l -30 0 l -10 10 l 30 0 z"></path></g><g><path d="M -16.075000000000017 -1.9375000000000018 l 7.45 -7.5 27.05 34.4 7.5 -7.5 -27.8 -36 -7.75 7.8 -26.95 -34.3 -7.5 7.5 28 35.6 z"></path></g><g><path d="M 50.974999999999994 -35.0375 l 34.95 0 l 10 -10 l -50 0 l -10 10 l 25 25 l 0 35 l 10 -10 l 0 -30.05 l -19.95 -19.95 z"></path><g><path d="M 64.62499999999997 41.3625 l 16.3 -16.3 l 0 -22.45 l -10 10 l 0 -5.15 q -5 6.1 -10 2.5 l 0 15 l 10 -10 l 0 17.7 l -7.5 7.5 l 1.2 1.2 z"></path></g><path d="M 75.92499999999998 61.362500000000004 l 10 -10 l -30 0 l -10 10 l 30 0 z"></path></g><g><path d="M 115.92499999999998 -45.0375 l -10 10 l 0 60 l 10 -10 l 0 -50 l 30 0 l 10 -10 l -40 0 z"></path><path d="M 123.42499999999998 42.4625 l 7.5 7.5 l 7.5 -7.5 l -7.5 -7.5 l -7.5 7.5 z"></path></g><g><path d="M 198.42499999999998 -47.5375 l 12.5 12.5 l -25 0 l -10 10 l 40 0 l 10 -10 l -20 -20 l -7.5 7.5 z"></path><path d="M 175.92499999999998 -15.037500000000001 l -10 10 l 50 0 l 10 -10 l -50 0 z"></path></g></g></g>
</svg>
