<svg xmlns="http://www.w3.org/2000/svg" viewBox="0 0 346.95 109.975" width="346.95" height="109.975" fill="currentColor" stroke="none">
<g transform="translate(173.475 54.9875)"><g><g><path d="M -163.475 -35.012499999999996 l -10 10 l 0 60 l 10 -10 l 0 -60 z"></path><g><path d="M -173.475 19.987500000000004 l 0 15 l 10 -10 l 0 20 l 10 -9.9 l 0 -22.4 l -10 9.95 l 0 -5.15 q -5 6.1 -10 2.5 z"></path></g></g><g><path d="M -77.825 -24.937499999999996 l 10 -10 l -65.75 0 l -9.9 9.95 l 30.45 37.55 l 7.25 -7.3 l 24.15 29.65 l 7.45 -7.4 l -25.2 -31.05 l -7.5 7.45 l -23.1 -28.85 l 52.15 0 z"></path><path d="M -95.64999999999999 -44.93749999999999 l 10 -10 l -30 0 l -10 10 l 30 0 z"></path></g><g><path d="M 5.974999999999994 34.987500000000004 l 7.5 -7.5 -26.9 -26.9 7.45 -7.55 -28.05 -28.05 -7.5 7.5 26.9 26.9 -7.5 7.5 28.1 28.1 z"></path><path d="M -34.025000000000006 -29.012499999999996 q 0.8 -1 0 -6 l -6.3 6.3 l 0 -19.95 l -17.5 17.5 l 1.2 1.2 l 6.3 -6.3 l 0 20.05 l 10 -10.1 q 4.2 0.65 6.3 -2.7 z"></path></g><g><path d="M 33.474999999999994 -35.012499999999996 l -10 10 l 0 60 l 10 -10 l 0 -50 l 30 0 l 10 -10 l -40 0 z"></path><g><path d="M 33.474999999999994 42.587500000000006 l 0 -17.6 q -7.3 -5 -10 10 l 0 20 l 17.5 -17.5 l -1.2 -1.2 l -6.3 6.3 z"></path></g></g><g><path d="M 93.475 -35.012499999999996 l -10 10 l 0 60 l 10 -10 l 0 -60 z"></path><g><path d="M 83.475 19.987500000000004 l 0 15 l 15 0 l 10 -10 l -15 0 l 0 -10 q -3.874 7.753 -10 5 z"></path></g></g><g><path d="M 173.475 -34.9875 l -10 10 l 0 20 l -35 0 l -10 10 l 29.95 29.95 l 7.5 -7.5 l -22.45 -22.45 l 30 0 l 10 -10 l 0 -30 z"></path><path d="M 155.975 -44.987500000000004 l 10 -10 l -30 0 l -10 10 l 30 0 z"></path></g></g></g>
</svg>
