<svg xmlns="http://www.w3.org/2000/svg" viewBox="0 0 420.6 118.775" width="420.6" height="118.775" fill="currentColor" stroke="none">
<g transform="translate(210.3 59.3875)"><g><g><path d="M -200.29999999999998 -30.612499999999997 l -10 10 l 0 60 l 10 -10 l 0 -60 z"></path><g><path d="M -210.29999999999998 24.387500000000003 l 0 15 l 15 0 l 10 -10 l -15 0 l 0 -10 q -3.874 7.753 -10 5 z"></path></g></g><g><path d="M -165.39999999999998 -30.637499999999996 l -9.9 9.95 l 47.35 58.35 l 0.05 0 l 1.4 1.75 l 7.5 -7.5 l -42.7 -52.55 l 52.05 0 l 10 -10 l -65.75 0 z"></path><path d="M -127.47499999999998 -40.637499999999996 l 10 -10 l -30 0 l -10 10 l 30 0 z"></path></g><g><path d="M -61.64999999999998 12.487500000000002 l 7.45 -7.5 27.05 34.4 7.5 -7.5 -27.8 -36 -7.75 7.8 -26.95 -34.3 -7.5 7.5 28 35.6 z"></path><path d="M -80.99999999999997 -29.4625 l 15.05 0 l 10 -10 l -17.45 0 l -8.75 8.85 q -1.75 3.2 -4.85 7.2 q 5.7 0.35 6 -6.05 z"></path><path d="M -44.64999999999998 -40.6125 l 10 -10 l -30 0 l -10 10 l 30 0 z"></path></g><g><path d="M 0.35000000000002274 -30.612499999999997 l -10 10 l 0 60 l 10 -10 l 0 -50 l 30 0 l 10 -10 l -40 0 z"></path><g><path d="M 0.35000000000002274 46.987500000000004 l 0 -17.6 q -7.3 -5 -10 10 l 0 20 l 17.5 -17.5 l -1.2 -1.2 l -6.3 6.3 z"></path></g></g><g><path d="M 64.49999999999997 -29.412499999999994 l 7.35 -7.35 l 20.6 26.15 l 14.95 -15 l -1.2 -1.2 l -7.35 7.35 l -20.55 -26.15 l -15 15 l 1.2 1.2 z"></path><path d="M 60.349999999999994 -0.6124999999999972 l -10 10 l 50 0 l 10 -10 l -50 0 z"></path></g><g fill="currentColor"><path d="M 130.35 -30.612499999999997 l -10 10 l 0 60 l 10 -10 l 0 -60 z"></path><g><path d="M 120.35 24.387500000000003 l 0 15 l 10 -10 l 0 20 l 10 -9.9 l 0 -22.4 l -10 9.95 l 0 -5.15 q -5 6.1 -10 2.5 z"></path></g></g><g fill="currentColor"><path d="M 205.35 -30.5875 l -10 10 l 0 20 l -35 0 l -10 10 l 29.95 29.95 l 7.5 -7.5 l -22.45 -22.45 l 30 0 l 10 -10 l 0 -30 z"></path><g><path d="M 205.35 -14.937500000000007 l 0 -15.65 l -10 10.05 q -10.8 -2.6 -16.2 -18.85 q -0.35 21.9 9.85 27.5 l 6.35 -6.35 l 0 8.1 q 4.8 -9.5 10 -4.8 z"></path></g><g><path d="M 187.79999999999998 31.862499999999983 q -6.8 0.5 -7.5 7.5 l 15 15 l 15 -15 l -1.2 -1.2 l -7.5 7.5 l -13.8 -13.8 z"></path></g><path d="M 190.32500000000002 -49.3875 l 10 -10 l -30 0 l -10 10 l 30 0 z"></path></g></g></g>
</svg>
