<svg xmlns="http://www.w3.org/2000/svg" viewBox="0 0 163 99.6" width="163" height="99.6" fill="currentColor" stroke="none">
<g transform="translate(81.5 49.8)"><g><g><path d="M -71.5 -29.82499999999999 l -10 10 l 0 60 l 10 -10 l 0 -60 z"></path></g><g><path d="M -44 -29.749999999999986 l -10 10 l 0 40 l 9.55 -9.55 l 20.65 29.4 l 7.5 -7.5 l -21.6 -30.85 l -6.1 6.1 l 0 -37.6 z"></path><g><path d="M -54 -8.549999999999994 q 5 -12.14 10 -11.2 l 0 -10 l -17.5 17.5 l 1.2 1.2 l 6.3 -6.3 l 0 8.8 z"></path></g><g><path d="M -24.700000000000003 38.5 l -11.2 11.3 l 22.4 0 l 10 -10.1 l -19.9 0 l 7.1 -7.1 q -10.446 -1.157 -8.4 5.9 z"></path></g><path d="M -22.5 -39.74999999999999 l 10 -10 l -30 0 l -10 10 l 30 0 z"></path></g><g><path d="M 16.5 -29.82499999999999 l -10 10 l 0 60 l 10 -10 l 0 -60 z"></path></g><g><path d="M 81.5 -29.79999999999999 l -10 10 l 0 20 l -35 0 l -10 10 l 29.95 29.95 l 7.5 -7.5 l -22.45 -22.45 l 30 0 l 10 -10 l 0 -30 z"></path><g><path d="M 53.849999999999994 30.14999999999999 q -1.65 2.7 2.6 10 l 12.6 0 l -7.5 7.5 l 1.2 1.2 l 18.7 -18.7 l -20 0 q -7 -2.95 -7.6 0 z"></path></g><path d="M 64 -39.8 l 10 -10 l -30 0 l -10 10 l 30 0 z"></path></g></g></g>
</svg>
