<svg xmlns="http://www.w3.org/2000/svg" viewBox="0 0 80 99.65" width="80" height="99.65" fill="currentColor" stroke="none">
<g transform="translate(40 49.825)"><g><g fill="currentColor"><path d="M 15 -49.82499999999999 l -10 10 l 0 20 l -35 0 l -10 10 l 29.95 29.95 l 7.5 -7.5 l -22.45 -22.45 l 30 0 l 10 -10 l 0 -30 z"></path><path d="M -10.95 18.52499999999999 l -11.2 11.3 l 22.4 0 l 10 -10.1 l -19.9 0 l 7.1 -7.1 q -10.446 -1.157 -8.4 5.9 z"></path><path d="M -2.5 49.824999999999996 l 10 -10 l -30 0 l -10 10 l 30 0 z"></path><path d="M 25 -14.849999999999987 l 7.5 7.5 l 7.5 -7.5 l -7.5 -7.5 l -7.5 7.5 z"></path></g></g></g>
</svg>
