<svg xmlns="http://www.w3.org/2000/svg" viewBox="0 0 37.15 172.294907" width="37.15" height="172.294907" fill="currentColor" stroke="none">
<g transform="translate(18.575 86.147453)"><g><g><path d="M 8.575000000000003 -40 l -10 10 l 0 60 l 10 -10 l 0 -60 z"></path><g><path d="M -1.0749999999999957 -27.9 q 0.375 -0.363 1.15 -1.15 q 6.261 -1.099 8.5 3.8 l 0 -14.75 l -10 10 l -10 -10 l -7.15 7.15 l 11.3 11.2 l 5.85 -5.9 q 0.04 -0.029 0.35 -0.35 z"></path></g><g><path d="M -13.824999999999996 40 l 22.4 0 l 10 -10.1 l -19.9 0 l -0.1 0.1 l 0 -0.1 l 0.05 0 l 9.95 -9.9 l 0 -5 q -5 5.774 -10 5 l 0 7.55 l -12.4 12.4 z"></path></g></g></g></g>
</svg>
