<svg xmlns="http://www.w3.org/2000/svg" viewBox="0 0 48.25 172.294907" width="48.25" height="172.294907" fill="currentColor" stroke="none">
<g transform="translate(24.125 86.147453)"><g><g><path d="M -9.124999999999998 -17.55 l 0 25 l -8.45 8.45 l 26.7 26.65 l 7.5 -7.5 l -25.5 -25.5 l 9.75 -9.7 l 0 -27.4 l -10 10 z"></path><g><path d="M 0.8750000000000036 -27.549999999999997 l -15 0 l 0 -15 l -10 10 l 0 15 l 15 0 l 0 10 q 3.85 -7.75 10 -5 l 0 -15 z"></path></g><g><path d="M 10.224999999999998 39.5 q 3.28 -1.825 6.4 -4.45 l 7.5 -7.5 l -1.2 -1.2 l -7.5 7.5 q -4.106 -1.688 -4.55 -0.35 q -0.6 1.45 -0.65 6 z"></path></g></g></g></g>
</svg>
