<svg xmlns="http://www.w3.org/2000/svg" viewBox="0 0 650.5 131.4" width="650.5" height="131.4" fill="currentColor" stroke="none">
<g transform="translate(325.25 65.7)"><g><g><path d="M -317.75 -40.7 l -7.5 7.5 57.5 62.5 7.5 -7.5 -57.5 -62.5 z"></path></g><g><path d="M -240.25 -40.7 l -10 10 l 0 35 l 26.3 0 l 8.7 -8.75 l 0 33.75 l 10 -10 l 0 -36.15 l -11.15 11.15 l -23.85 0 l 0 -35 z"></path><g><path d="M -232.75 -45.800000000000004 l -1.2 -1.2 l -16.3 16.3 l 0 7.75 q 5 -9.444 10 -6.55 l 0 -8.8 l 7.5 -7.5 z"></path></g><g><path d="M -211.55 45.699999999999996 l 16.3 -16.3 l 0 -22.45 l -10 10 l 0 -5.15 q -5 6.1 -10 2.5 l 0 15 l 10 -10 l 0 17.7 l -7.5 7.5 l 1.2 1.2 z"></path></g><path d="M -212.75 65.7 l 10 -10 l -30 0 l -10 10 l 30 0 z"></path></g><g><path d="M -175.25 -40.7 l -10 10 l 0 60 l 40 0 l 10 -10 l -40 0 l 0 -60 z"></path><path d="M -167.75 -58.2 l 7.5 7.5 l 7.5 -7.5 l -7.5 -7.5 l -7.5 7.5 z"></path><path d="M -152.65 49.3 l -8.8 8.8 l 1.2 1.2 l 20 -20 l -30 0 l -10 10 l 27.6 0 z"></path></g><g><path d="M -81.5 -50.7 l -7.5 7.5 l 12.5 12.5 l -25 0 l -17.5 17.5 l 1.2 1.2 l 8.7 -8.7 l 37.6 0 l 10 -10 l -20 -20 z"></path><path d="M -115.25 -10.700000000000003 l -10 10 l 50 0 l 10 -10 l -50 0 z"></path></g><g><path d="M -29.100000000000023 -40.7 l -10 10 l 0 60 l 10 -10 l 0 -60 z"></path><g><path d="M -51.5 39.3 l 22.4 0 l 10 -10.1 l -19.9 0 l -0.1 0.1 l 0 -0.1 l 0.05 0 l 9.95 -9.9 l 0 -5 q -5 5.774 -10 5 l 0 7.55 l -12.4 12.4 z"></path></g></g><g><path d="M -1.6000000000000227 -40.7 l -7.5 7.5 l 31.25 31.25 l -31.25 31.25 l 40 0 l 10 -10 l -37.6 0 l 27.5 -27.6 l -32.4 -32.4 z"></path><path d="M 25.899999999999977 -50.7 l 10 -10 l -30 0 l -10 10 l 30 0 z"></path></g><g><path d="M 78.89999999999998 2.399999999999997 l 7.45 -7.5 27.05 34.4 7.5 -7.5 -27.8 -36 -7.75 7.8 -26.95 -34.3 -7.5 7.5 28 35.6 z"></path><path d="M 117.84999999999997 22.9 q -1.825 3.28 -4.45 6.4 l -7.5 7.5 l -1.2 -1.2 l 7.5 -7.5 q -1.688 -4.106 -0.35 -4.55 q 1.45 -0.6 6 -0.65 z"></path><path d="M 70.89999999999998 46.8 l 7.5 7.5 l 7.5 -7.5 l -7.5 -7.5 l -7.5 7.5 z"></path></g><g><path d="M 185.89999999999998 -40.675000000000004 l -10 10 l 0 20 l -35 0 l -10 10 l 29.95 29.95 l 7.5 -7.5 l -22.45 -22.45 l 30 0 l 10 -10 l 0 -30 z"></path><g><path d="M 165.89999999999998 -38.32500000000001 q 9.8 -16 27.5 -7.5 l -7.5 7.55 l 0 11.1 q -5.25 -3.05 -10 1.5 l 0 -5 l 8.85 -8.8 q -7.15 -6.15 -18.85 1.15 z"></path></g><g><path d="M 167.14999999999998 20.574999999999978 q -6.486 -1.216 -4.75 5 q 2.924 -3.894 5.95 -3.8 l 8.8 -8.8 l 0 -15 l -10 10 l 0 12.6 z"></path></g></g><g><path d="M 213.39999999999998 -40.7 l -10 10 l 0 60 l 10 -10 l 0 -60 z"></path><g><path d="M 203.39999999999998 14.299999999999997 l 0 15 l 10 -10 l 0 20 l 10 -9.9 l 0 -22.4 l -10 9.95 l 0 -5.15 q -5 6.1 -10 2.5 z"></path></g></g><g><path d="M 299.05000000000007 -30.625000000000004 l 10 -10 l -65.75 0 l -9.9 9.95 l 30.45 37.55 l 7.25 -7.3 l 24.15 29.65 l 7.45 -7.4 l -25.2 -31.05 l -7.5 7.45 l -23.1 -28.85 l 52.15 0 z"></path><g><path d="M 302.75 21.724999999999994 q -6.8 0.5 -7.5 7.5 l 15 15 l 15 -15 l -1.2 -1.2 l -7.5 7.5 l -13.8 -13.8 z"></path></g><path d="M 289.32500000000005 -50.625 l 10 -10 l -30 0 l -10 10 l 30 0 z"></path></g></g></g>
</svg>
