<svg xmlns="http://www.w3.org/2000/svg" viewBox="0 0 60.05 172.294907" width="60.05" height="172.294907" fill="currentColor" stroke="none">
<g transform="translate(30.025 86.147453)"><g><g><path d="M 20.025 -38.85 l 10 -10 l -50 0 l -10 10 l 0 35 l 10 -10 l 15 0 l 0 35 l 10 -10 l 0 -35 l -17.35 0 l -7.65 7.6 l 0 -22.6 l 40 0 z"></path><g><path d="M -5.024999999999999 18.85 l -15 0 l -10 10 l 17.4 0 l 17.65 -17.7 l 0 -7.3 q -5.4 4.35 -10 2.75 l 0 12.25 z"></path></g><path d="M 10 48.85 l 10 -10 l -30 0 l -10 10 l 30 0 z"></path></g></g></g>
</svg>
