<svg xmlns="http://www.w3.org/2000/svg" viewBox="0 0 312.15 146.4" width="312.15" height="146.4" fill="currentColor" stroke="none">
<g transform="translate(156.075 73.2)"><g><g><path d="M -146.07500000000002 -48.2 l -10 10 l 0 60 l 10 -10 l 0 -60 z"></path><g><path d="M -156.07500000000002 6.799999999999997 l 0 15 l 10 -10 l 0 20 l 10 -9.9 l 0 -22.4 l -10 9.95 l 0 -5.15 q -5 6.1 -10 2.5 z"></path></g></g><g><path d="M -116.07500000000002 -48.2 l -10 10 l 0 60 l 10 -10 l 0 -50 l 30 0 l 10 -10 l -40 0 z"></path><g><path d="M -116.07500000000002 29.4 l 0 -17.6 q -7.3 -5 -10 10 l 0 20 l 17.5 -17.5 l -1.2 -1.2 l -6.3 6.3 z"></path></g><path d="M -91.07500000000002 -58.2 l 10 -10 l -30 0 l -10 10 l 30 0 z"></path></g><g><path d="M -20.92500000000001 -5.100000000000003 l 7.45 -7.5 27.05 34.4 7.5 -7.5 -27.8 -36 -7.75 7.8 -26.95 -34.3 -7.5 7.5 28 35.6 z"></path><path d="M -43.92500000000001 -45.7 l -5 5 l -10 -10 l -7.15 7.15 l 11.3 11.2 l 7 -7.1 l 1 -1 q 3.183 1.742 3.85 0 q 0.916 -1.293 0 -6.25 z"></path><path d="M -23.92500000000001 21.799999999999997 l 10 -10 l -30 0 l -10 10 l 30 0 z"></path><path d="M 16.07499999999999 -38.2 l 10 -10 l -30 0 l -10 10 l 30 0 z"></path><path d="M -21.42500000000001 -65.7 l 7.5 7.5 l 7.5 -7.5 l -7.5 -7.5 l -7.5 7.5 z"></path></g><g><path d="M 46.07499999999999 -48.2 l -10 10 l 0 60 l 40 0 l 10 -10 l -40 0 l 0 -60 z"></path><g><path d="M 58.57499999999999 52 l 1.2 1.2 l 16.3 -16.3 l 0 -15.1 l 10 -10 l -18.3 0 q 4.75 2.3 -1.7 10 l 7.6 0 l 0.25 -0.2 l -7.85 7.85 l 0 15.05 l -7.5 7.5 z"></path></g><path d="M 53.57499999999999 -65.7 l 7.5 7.5 l 7.5 -7.5 l -7.5 -7.5 l -7.5 7.5 z"></path><path d="M 71.07499999999999 73.2 l 10 -10 l -30 0 l -10 10 l 30 0 z"></path></g><g><path d="M 141.025 11.799999999999997 l -34.95 0 l -10 10 l 50 0 l 10 -10 l -25 -25 l 0 -35 l -10 10 l 0 30.05 l 19.95 19.95 z"></path><path d="M 118.57500000000002 -65.7 l 7.5 7.5 l 7.5 -7.5 l -7.5 -7.5 l -7.5 7.5 z"></path><path d="M 116.07500000000002 41.8 l 0 25 l 20 -20 l -1.2 -1.2 l -8.8 8.8 l 0 -22.6 l -10 10 z"></path></g></g></g>
</svg>
