<svg xmlns="http://www.w3.org/2000/svg" viewBox="0 0 130 119.975" width="130" height="119.975" fill="currentColor" stroke="none">
<g transform="translate(65 59.9875)"><g><g><path d="M -57.5 -39.98749999999999 l -7.5 7.5 57.5 62.5 7.5 -7.5 -57.5 -62.5 z"></path><path d="M -65 22.51250000000001 l 0 25 l 20 -20 l -1.2 -1.2 l -8.8 8.8 l 0 -22.6 l -10 10 z"></path><path d="M -22.5 -49.98749999999999 l 10 -10 l -30 0 l -10 10 l 30 0 z"></path></g><g><path d="M 65 -39.96249999999999 l -10 10 l 0 20 l -35 0 l -10 10 l 29.95 29.95 l 7.5 -7.5 l -22.45 -22.45 l 30 0 l 10 -10 l 0 -30 z"></path><path d="M 29.900000000000006 49.98749999999999 l 8.8 -8.8 l -1.2 -1.2 l -20 20 l 30 0 l 10 -10 l -27.6 0 z"></path></g></g></g>
</svg>
