<svg xmlns="http://www.w3.org/2000/svg" viewBox="0 0 60 120" width="60" height="120" fill="currentColor" stroke="none">
<g transform="translate(30 60)"><g><g fill="currentColor"><path d="M 20 -30 l 10 -10 l -50 0 l -10 10 l 0 30 l 30 0 l 0 30 l 10 -10 l 0 -30 l -30 0 l 0 -20 l 40 0 z"></path><g><path d="M 0 15 l 0 15 l 15 0 l 10 -10 l -15 0 l 0 -10 q -3.874 7.753 -10 5 z"></path></g><path d="M 10 -50 l 10 -10 l -30 0 l -10 10 l 30 0 z"></path><path d="M 7.600000000000001 50 l -8.8 8.8 l 1.2 1.2 l 20 -20 l -30 0 l -10 10 l 27.6 0 z"></path></g></g></g>
</svg>
