<svg xmlns="http://www.w3.org/2000/svg" viewBox="0 0 405.2 105.825" width="405.2" height="105.825" fill="currentColor" stroke="none">
<g transform="translate(202.6 52.9125)"><g><g><path d="M -150.10000000000002 22.9125 l 7.5 -7.5 -26.9 -26.9 7.45 -7.55 -28.05 -28.05 -7.5 7.5 26.9 26.9 -7.5 7.5 28.1 28.1 z"></path><path d="M -192.60000000000002 5.412500000000001 l -10 10 l 0 25 l 10 -10 l 0 -25 z"></path><path d="M -185.10000000000002 40.4125 l 7.5 7.5 l 7.5 -7.5 l -7.5 -7.5 l -7.5 7.5 z"></path></g><g><path d="M -77.60000000000002 -47.0625 l -10 10 l 0 20 l -35 0 l -10 10 l 29.95 29.95 l 7.5 -7.5 l -22.45 -22.45 l 30 0 l 10 -10 l 0 -30 z"></path><g><path d="M -87.60000000000002 -37.06250000000001 l 0 5 q 6.25 -9 10 -5 l 0 -7.6 l 11.8 11.7 l 7 -7 l -12.95 -12.95 l -15.85 15.85 z"></path></g><g><path d="M -105.25000000000003 12.887499999999982 q -1.65 2.7 2.6 10 l 12.6 0 l -7.5 7.5 l 1.2 1.2 l 18.7 -18.7 l -20 0 q -7 -2.95 -7.6 0 z"></path></g></g><g><path d="M -6.25 -23.237499999999997 l -10 10 l 0 -33.85 l -10 10 l 0 36.2 l 10 -9.95 l 0 33.75 l 10 -10 l 0 -36.15 z"></path><g><path d="M -26.25 -25.8875 q 5 -12.14 10 -11.2 l 0 -10 l -17.5 17.5 l 1.2 1.2 l 6.3 -6.3 l 0 8.8 z"></path></g><g><path d="M -6.25 12.912500000000001 l 0 -7.3 q -4.546 5.888 -10 3.05 l 0 11.95 l -15.05 0 l -17.5 17.5 l 1.2 1.2 l 8.7 -8.7 l 15 0 l 17.65 -17.7 z"></path></g></g><g><path d="M 48.75 -23.237499999999997 l -10 10 l 0 -33.85 l -10 10 l 0 36.2 l 10 -9.95 l 0 33.75 l 10 -10 l 0 -36.15 z"></path><g><path d="M 28.75 -37.0875 l -15 0 l -10 10 l 17.45 0 l 7.6 -7.6 l -0.05 5.05 q 4.6 -6.3 10 -4 l 0 -13.45 l -9.95 10 z"></path></g><g><path d="M 48.75 30.512500000000003 l 0 -17.6 q -7.3 -5 -10 10 l 0 20 l 17.5 -17.5 l -1.2 -1.2 l -6.3 6.3 z"></path></g></g><g><path d="M 73.75 -47.0875 l -7.5 7.5 57.5 62.5 7.5 -7.5 -57.5 -62.5 z"></path></g><g><path d="M 161.25 -47.0875 l -10 10 l 0 50 l -10 10 l 45 0 l 10 -10 l -42.6 0 l 7.6 -7.6 l 0 -52.4 z"></path><g><path d="M 175.8 22.9125 l 10.45 0 l 16.35 -16.35 q -8.942 -4.256 -7.9 -14.9 q -8.313 8.782 -0.75 21.25 l -13.35 0 q 4.7 5.2 -4.8 10 z"></path></g><path d="M 164.325 42.9125 l 8.8 -8.8 l -1.2 -1.2 l -20 20 l 30 0 l 10 -10 l -27.6 0 z"></path></g></g></g>
</svg>
