<svg xmlns="http://www.w3.org/2000/svg" viewBox="0 0 81.5 172.294907" width="81.5" height="172.294907" fill="currentColor" stroke="none">
<g transform="translate(40.75 86.147453)"><g><g><path d="M 34.9 -33.125 l -65.75 0 l -9.9 9.95 l 25.7 25.7 l -7.5 7.5 l 26.9 26.9 l 7.5 -7.5 l -25.7 -25.7 l 7.45 -7.55 l -19.3 -19.3 l 50.6 0 l 10 -10 z"></path><g><path d="M 24.9 -33.12500000000001 q 2.55 4.45 -5 10 l 5 0 l 15.85 -15.9 l -13 -12.9 l -7 7 l 11.8 11.8 l -7.65 0 z"></path></g><g><path d="M 11.849999999999987 29.425000000000004 q -6.8 0.5 -7.5 7.5 l 15 15 l 15 -15 l -1.2 -1.2 l -7.5 7.5 l -13.8 -13.8 z"></path></g></g></g></g>
</svg>
