<svg xmlns="http://www.w3.org/2000/svg" viewBox="0 0 81.2 172.294907" width="81.2" height="172.294907" fill="currentColor" stroke="none">
<g transform="translate(40.6 86.147453)"><g><g><path d="M -16.9 -36.25 l -10 10 l 17.5 17.5 l -15 0 l -16.2 16.15 l 26.35 26.35 l 7.5 -7.5 l -25 -25 l 32.35 0 l 7.5 -7.5 l -20 -20 l 35 0 l 10 -10 l -50 0 z"></path><g><path d="M 39.400000000000006 -29.95 l -6.3 6.3 l 0 -12.6 l -15 0 q 2.75 6.15 -5 10 l 10 0 l 0 15 l 17.5 -17.5 l -1.2 -1.2 z"></path></g><g><path d="M -11.75 31.25 l 5 -5 l 10 10 l 7.15 -7.15 l -11.3 -11.2 l -7 7.1 l -1 1 q -3.183 -1.742 -3.85 0 q -0.916 1.293 0 6.25 z"></path></g></g></g></g>
</svg>
