<svg xmlns="http://www.w3.org/2000/svg" viewBox="0 0 505.85 119.925" width="505.85" height="119.925" fill="currentColor" stroke="none">
<g transform="translate(252.925 59.9625)"><g><g><path d="M -245.42500000000004 -39.9625 l -7.5 7.5 57.5 62.5 7.5 -7.5 -57.5 -62.5 z"></path><path d="M -217.92500000000004 50.0375 l 10 -10 l -30 0 l -10 10 l 30 0 z"></path></g><g><path d="M -154.22500000000005 -39.9625 l -10 10 l 17.5 17.5 l -15 0 l -16.2 16.15 l 26.35 26.35 l 7.5 -7.5 l -25 -25 l 32.35 0 l 7.5 -7.5 l -20 -20 l 35 0 l 10 -10 l -50 0 z"></path><g><path d="M -97.92500000000004 -33.662499999999994 l -6.3 6.3 l 0 -12.6 l -15 0 q 2.75 6.15 -5 10 l 10 0 l 0 15 l 17.5 -17.5 l -1.2 -1.2 z"></path></g><g><path d="M -149.07500000000005 27.5375 l 5 -5 l 10 10 l 7.15 -7.15 l -11.3 -11.2 l -7 7.1 l -1 1 q -3.183 -1.742 -3.85 0 q -0.916 1.293 0 6.25 z"></path></g></g><g><path d="M -79.22500000000005 -39.9625 l -7.5 7.5 57.5 62.5 7.5 -7.5 -57.5 -62.5 z"></path><path d="M -78.07500000000005 -32.4625 q 1.328 -4.078 -0.8 -6.7 l 0.8 0.35 q 19.05 9.15 23.7 -6.2 q -7.65 9.4 -17.35 -2.45 l -15 15 q 4.648 1.323 8.65 0 z"></path><path d="M -44.22500000000005 -49.9625 l 10 -10 l -30 0 l -10 10 l 30 0 z"></path></g><g><path d="M 28.27499999999995 -0.3374999999999986 l 10 -10 l -29.85 -29.85 l -7.5 7.5 l 22.35 22.35 l -20 0 l -15 15 l 25.6 25.6 l 7.5 -7.5 l -23.1 -23.1 l 30 0 z"></path></g><g><path d="M 75.975 29.9625 l 10 -10 l 0 -40 l -9.55 9.55 l -20.65 -29.4 l -7.5 7.5 l 21.6 30.85 l 6.1 -6.1 l 0 37.6 z"></path><g><path d="M 75.975 29.9625 l 0 -0.1 l 0.05 0 l 9.95 -9.9 l 0 -5 q -5 5.75 -10 5 l 0 7.55 l -12.4 12.45 l 22.4 0 l 17.5 -17.5 l -1.2 -1.2 l -8.6 8.6 l -17.6 0 l -0.1 0.1 z"></path></g><path d="M 85.87499999999997 59.9625 l 10 -10 l -30 0 l -10 10 l 30 0 z"></path></g><g><path d="M 141.475 3.137500000000001 l 7.45 -7.5 27.05 34.4 7.5 -7.5 -27.8 -36 -7.75 7.8 -26.95 -34.3 -7.5 7.5 28 35.6 z"></path><path d="M 115.975 10.037500000000001 l 20 20 l 7.5 -7.5 l -20 -20 l -7.5 7.5 z"></path><path d="M 133.475 47.5375 l 7.5 7.5 l 7.5 -7.5 l -7.5 -7.5 l -7.5 7.5 z"></path></g><g><path d="M 252.87500000000003 -39.9625 l -50 0 l -9.4 9.4 l 23.2 33.05 l 6.2 -6.25 l 0 33.8 l 10 -10 l 0 -36.15 l -1.1 1.1 q -2.967 2.977 -5.95 5.95 l -1.95 2 l -0.65 0.65 l -16.5 -23.5 l 36.2 0 l 10 -10 z"></path><g><path d="M 222.87500000000003 50.0375 l 10 -10 l 0 -20 q -7.3 -5 -10 10 l 0 20 z"></path></g></g></g></g>
</svg>
