<svg xmlns="http://www.w3.org/2000/svg" viewBox="0 0 48.7 172.294907" width="48.7" height="172.294907" fill="currentColor" stroke="none">
<g transform="translate(24.35 86.179264)"><g><g><path d="M 16.85 -20.6833378334925 l -10 10 l 0 -33.85 l -10 10 l 0 36.2 l 10 -9.95 l 0 33.75 l 10 -10 l 0 -36.15 z"></path><g><path d="M 6.849999999999998 -28.883337833492504 l 0 -15.65 l -10 10 q -9.4 -17.75 -21.2 -6.85 q 12.25 -2.15 14.85 15.5 l 6.35 -6.3 l 0 8.1 q 4.8 -9.5 10 -4.8 z"></path></g><g><path d="M 16.85 33.0666621665075 l 0 -17.6 q -7.3 -5 -10 10 l 0 20 l 17.5 -17.5 l -1.2 -1.2 l -6.3 6.3 z"></path></g></g></g></g>
</svg>
