<svg xmlns="http://www.w3.org/2000/svg" viewBox="0 0 351.9 131.4" width="351.9" height="131.4" fill="currentColor" stroke="none">
<g transform="translate(175.95 65.7)"><g><g><path d="M -147.95000000000002 2.399999999999997 l 7.45 -7.5 27.05 34.4 7.5 -7.5 -27.8 -36 -7.75 7.8 -26.95 -34.3 -7.5 7.5 28 35.6 z"></path><path d="M -163.45000000000002 11.799999999999997 l -10 10 l 0 25 l 10 -10 l 0 -25 z"></path><path d="M -130.95000000000002 -50.7 l 10 -10 l -30 0 l -10 10 l 30 0 z"></path></g><g><path d="M -85.95000000000002 -40.7 l -10 10 l 0 30 l 30 30 l 7.5 -7.5 l -27.5 -27.5 l 0 -35 z"></path><g><path d="M -59.60000000000002 20.65 l 0 -0.05 q -8.1 -2.8 -6.35 8.7 l 6.35 -6.3 q 9.4 17.75 21.2 6.85 q -12.25 2.15 -14.85 -15.5 l -6.35 6.3 z"></path></g></g><g><path d="M -20.900000000000006 -40.7 l -7.5 7.5 57.5 62.5 7.5 -7.5 -57.5 -62.5 z"></path></g><g><path d="M 106.00000000000003 -40.7 l -50 0 l -9.4 9.4 l 23.2 33.05 l 6.2 -6.25 l 0 33.8 l 10 -10 l 0 -36.15 l -1.1 1.1 q -2.967 2.977 -5.95 5.95 l -1.95 2 l -0.65 0.65 l -16.5 -23.5 l 36.2 0 l 10 -10 z"></path><g><path d="M 83.65 -20.700000000000003 l 22.4 0 l 9.9 -10 l -19.9 0 l 10 -10 l -12.65 0 q 5.504 3.447 -5.3 10 l 5.5 0 l -9.95 10 z"></path></g><g><path d="M 79.69999999999999 45.699999999999996 l 16.3 -16.3 l 0 -22.45 l -10 10 l 0 -5.15 q -5 6.1 -10 2.5 l 0 15 l 10 -10 l 0 17.7 l -7.5 7.5 l 1.2 1.2 z"></path></g><path d="M 91.275 65.7 l 10 -10 l -30 0 l -10 10 l 30 0 z"></path></g><g><path d="M 135.95000000000002 -40.7 l -10 10 l 0 60 l 10 -10 l 0 -50 l 30 0 l 10 -10 l -40 0 z"></path><path d="M 143.45000000000002 -58.2 l 7.5 7.5 l 7.5 -7.5 l -7.5 -7.5 l -7.5 7.5 z"></path><path d="M 160.95000000000002 49.3 l 10 -10 l -30 0 l -10 10 l 30 0 z"></path></g></g></g>
</svg>
