<svg xmlns="http://www.w3.org/2000/svg" viewBox="0 0 62.444442 172.294907" width="62.444442" height="172.294907" fill="currentColor" stroke="none">
<g transform="translate(31.22449 86.147453)"><g><g><path d="M -19.42448979591837 -20.6 l -7.5 7.5 l 31.25 31.25 l -31.25 31.25 l 40 0 l 10 -10 l -37.6 0 l 27.5 -27.6 l -32.4 -32.4 z"></path><g><path d="M -31.22448979591837 -32.4 l 11.8 11.8 l -5 5 q 7.681 1.687 7.1 -0.5 l -0.95 -3.35 l 7.05 -7.05 l -13 -12.9 z"></path></g><g><path d="M 20.77551020408163 59.4 q 16 -9.8 7.5 -27.5 l -7.55 7.5 l -11.1 0 q 3.05 5.25 -1.5 10 l 5 0 l 8.8 -8.85 q 6.15 7.15 -1.15 18.85 z"></path></g><path d="M 9.99773131505663 -49.4 l 10 -10 l -30 0 l -10 10 l 30 0 z"></path></g></g></g>
</svg>
