<svg xmlns="http://www.w3.org/2000/svg" viewBox="0 0 236.394442 127.6" width="236.394442" height="127.6" fill="currentColor" stroke="none">
<g transform="translate(118.19949 63.8)"><g><g><path d="M -110.69948979591838 -25.000000000000007 l -7.5 7.5 57.5 62.5 7.5 -7.5 -57.5 -62.5 z"></path><path d="M -108.19948979591838 27.499999999999993 l -10 10 l 0 25 l 10 -10 l 0 -25 z"></path></g><g><path d="M -33.19948979591838 -25.000000000000007 l -10 10 l 0 36.3 l 10 -10.05 l 0 33.75 l 10 -10 l 0 -36.15 l -10 10 l 0 -23.85 l 30 0 l 10 -10 l -40 0 z"></path></g><g><path d="M 43.950510204081624 -25.000000000000007 l -10 10 l 0 60 l 10 -10 l 0 -60 z"></path><g><path d="M 34.30051020408162 -12.900000000000006 q 0.375 -0.363 1.15 -1.15 q 6.261 -1.099 8.5 3.8 l 0 -14.75 l -10 10 l -10 -10 l -7.15 7.15 l 11.3 11.2 l 5.85 -5.9 q 0.04 -0.029 0.35 -0.35 z"></path></g><g><path d="M 45.750510204081635 56.79999999999999 l -11.8 -11.8 l 10 -10 l 0 -5 q -5.188 7.964 -10 5 l 0 7.7 l -8.2 8.2 l 13 12.9 l 7 -7 z"></path></g></g><g><path d="M 67.55051020408168 -25.000000000000007 l -7.5 7.5 l 31.25 31.25 l -31.25 31.25 l 40 0 l 10 -10 l -37.6 0 l 27.5 -27.6 l -32.4 -32.4 z"></path><g><path d="M 55.750510204081664 -36.800000000000004 l 11.8 11.8 l -5 5 q 7.681 1.687 7.1 -0.5 l -0.95 -3.35 l 7.05 -7.05 l -13 -12.9 z"></path></g><g><path d="M 107.75051020408166 54.99999999999999 q 16 -9.8 7.5 -27.5 l -7.55 7.5 l -11.1 0 q 3.05 5.25 -1.5 10 l 5 0 l 8.8 -8.85 q 6.15 7.15 -1.15 18.85 z"></path></g><path d="M 96.97273131505666 -53.800000000000004 l 10 -10 l -30 0 l -10 10 l 30 0 z"></path></g></g></g>
</svg>
