<svg xmlns="http://www.w3.org/2000/svg" viewBox="0 0 62.5 172.294907" width="62.5" height="172.294907" fill="currentColor" stroke="none">
<g transform="translate(31.25 86.147453)"><g><g><path d="M -13.75 -43.2 l -10 10 l 0 35 l 26.3 0 l 8.7 -8.75 l 0 33.75 l 10 -10 l 0 -36.15 l -11.15 11.15 l -23.85 0 l 0 -35 z"></path><g><path d="M -23.75 -22.000000000000004 q 5 -12.14 10 -11.2 l 0 -10 l -17.5 17.5 l 1.2 1.2 l 6.3 -6.3 l 0 8.8 z"></path></g><g><path d="M 14.950000000000003 43.199999999999996 l 16.3 -16.3 l 0 -22.45 l -10 10 l 0 -5.15 q -5 6.1 -10 2.5 l 0 15 l 10 -10 l 0 17.7 l -7.5 7.5 l 1.2 1.2 z"></path></g></g></g></g>
</svg>
