<svg xmlns="http://www.w3.org/2000/svg" viewBox="0 0 557.8 122.55" width="557.8" height="122.55" fill="currentColor" stroke="none">
<g transform="translate(278.9 61.275)"><g><g><path d="M -233.89999999999998 3.6499999999999986 l 7.5 -7.5 -32.5 -32.5 -7.5 7.5 32.5 32.5 m -17.5 -10 l -7.5 7.5 32.5 32.5 7.5 -7.5 -32.5 -32.5 z"></path><path d="M -228.99999999999997 23.65 q -1.655 2.716 2.6 10 l 15 0 l 10 -10 l -20 0 q -7.015 -2.931 -7.6 0 z"></path><path d="M -268.9 16.15 l -10 10 l 0 25 l 10 -10 l 0 -25 z"></path><path d="M -232.64999999999998 -46.35 l 10 -10 l -30 0 l -10 10 l 30 0 z"></path></g><g><path d="M -171.39999999999998 -36.35 l -10 10 l 0 50 l -10 10 l 45 0 l 10 -10 l -42.6 0 l 7.6 -7.6 l 0 -42.4 l 30 0 l 10 -10 l -40 0 z"></path><g><path d="M -144.04999999999998 23.65 q 0.465 4.718 -7.9 10 l 5.55 0 l 17.6 -17.6 l 0 -15 l -10 10 l 0 12.6 l -5.25 0 z"></path></g></g><g><path d="M -58.849999999999994 23.65 l -34.95 0 l -10 10 l 50 0 l 10 -10 l -25 -25 l 0 -35 l -10 10 l 0 30.05 l 19.95 19.95 z"></path><g><path d="M -98.79999999999998 23.65 l -12.5 -12.5 l -7.5 7.5 l 15 15 q 8.65 -2.75 10 -10 l -5 0 z"></path></g><path d="M -71.29999999999998 53.65 l 10 -10 l -30 0 l -10 10 l 30 0 z"></path></g><g><path d="M -6.100000000000023 33.574999999999996 l 10 -10 l 0 -40 l -9.55 9.55 l -20.65 -29.4 l -7.5 7.5 l 21.6 30.85 l 6.1 -6.1 l 0 37.6 z"></path><g><path d="M 3.849999999999966 21.174999999999997 l 0.05 -5.05 q -4.6 6.3 -10 4 l 0 13.45 l 9.95 -10 l 12.65 0 l -7.5 7.5 l 1.2 1.2 l 18.7 -18.7 l -17.45 0 l -7.6 7.6 z"></path></g><path d="M -9.950000000000045 -53.775 l 7.5 7.5 l 7.5 -7.5 l -7.5 -7.5 l -7.5 7.5 z"></path><path d="M -9.950000000000045 51.074999999999996 l 7.5 7.5 l 7.5 -7.5 l -7.5 -7.5 l -7.5 7.5 z"></path></g><g><path d="M 102.5499999999999 17.45 l -24.95 -24.95 l 28.8 -28.85 l -45 0 l -10 10 l 42.6 0 l -25.05 25.2 l 24.8 24.8 l -37.35 0 l -10 10 l 40 0 l 16.15 -16.2 z"></path><g><path d="M 66.39999999999992 23.65 l -10 0 l -17.5 17.5 l 1.2 1.2 l 8.7 -8.7 l 7.6 0 q -0.83 -5.4 10 -10 z"></path></g></g><g><path d="M 123.89999999999992 -36.35 l -7.5 7.5 57.5 62.5 7.5 -7.5 -57.5 -62.5 z"></path><path d="M 116.39999999999992 13.649999999999999 l 20 20 l 7.5 -7.5 l -20 -20 l -7.5 7.5 z"></path><path d="M 158.89999999999992 -46.35 l 10 -10 l -30 0 l -10 10 l 30 0 z"></path></g><g><path d="M 201.39999999999992 -36.35 l -10 10 l 0 30 l 30 30 l 7.5 -7.5 l -27.5 -27.5 l 0 -35 z"></path></g><g><path d="M 267.7499999999999 33.574999999999996 l 10 -10 l 0 -40 l -9.55 9.55 l -20.65 -29.4 l -7.5 7.5 l 21.6 30.85 l 6.1 -6.1 l 0 37.6 z"></path><g><path d="M 267.69999999999993 31.275 l -15 0 l -10 10 l 17.4 0 l 17.65 -17.7 l 0 -7.3 q -5.4 4.35 -10 2.75 l 0 12.25 z"></path></g><path d="M 268.9 61.275 l 10 -10 l -30 0 l -10 10 l 30 0 z"></path></g></g></g>
</svg>
