<svg xmlns="http://www.w3.org/2000/svg" viewBox="0 0 64.65 172.294907" width="64.65" height="172.294907" fill="currentColor" stroke="none">
<g transform="translate(32.325 86.147453)"><g><g><path d="M -16.02499999999999 -25 l -7.5 7.5 l 31.25 31.25 l -31.25 31.25 l 40 0 l 10 -10 l -37.6 0 l 27.5 -27.6 l -32.4 -32.4 z"></path><g><path d="M -22.324999999999992 -16.3 q 6.486 1.216 4.75 -5 q -2.924 3.894 -5.95 3.8 l -8.8 8.8 l 0 15 l 10 -10 l 0 -12.6 z"></path></g><g><path d="M 16.47500000000001 35 q 2.55 4.45 -5 10 l 5 0 l 15.85 -15.9 l -13 -12.9 l -7 7 l 11.8 11.8 l -7.65 0 z"></path></g><path d="M 10.000000000000014 -35 l 10 -10 l -30 0 l -10 10 l 30 0 z"></path></g></g></g>
</svg>
