<svg xmlns="http://www.w3.org/2000/svg" viewBox="0 0 374.4 150.025" width="374.4" height="150.025" fill="currentColor" stroke="none">
<g transform="translate(187.2 75.0125)"><g><g><path d="M -139.7 14.987499999999997 l 7.5 -7.5 -26.9 -26.9 7.45 -7.55 -28.05 -28.05 -7.5 7.5 26.9 26.9 -7.5 7.5 28.1 28.1 z"></path></g><g><path d="M -72.19999999999999 -45.0125 l 10 -10 l -50 0 l -10 10 l 0 30 l 30 0 l 0 30 l 10 -10 l 0 -30 l -30 0 l 0 -20 l 40 0 z"></path><g><path d="M -82.54999999999998 2.8874999999999957 q -0.375 0.363 -1.15 1.15 q -6.261 1.099 -8.5 -3.8 l 0 14.75 l 10 -10 l 10 10 l 7.15 -7.15 l -11.3 -11.2 l -5.85 5.9 q -0.04 0.029 -0.35 0.35 z"></path></g><path d="M -82.19999999999999 34.9875 l 10 -10 l -30 0 l -10 10 l 30 0 z"></path></g><g><path d="M -42.30000000000001 -55.0375 l -9.9 9.95 l 47.35 58.35 l 0.05 0 l 1.4 1.75 l 7.5 -7.5 l -42.7 -52.55 l 52.05 0 l 10 -10 l -65.75 0 z"></path><g><path d="M 11.599999999999994 30.01250000000001 l 7.5 -7.5 l -15 -15 q -6.8 0.5 -7.5 7.5 l 15 15 z"></path></g><path d="M -24.375 50.0125 l 0 25 l 20 -20 l -1.2 -1.2 l -8.8 8.8 l 0 -22.6 l -10 10 z"></path></g><g><path d="M 77.19999999999999 -65.0125 l -7.5 7.5 l 12.5 12.5 l -25 0 l -17.5 17.5 l 1.2 1.2 l 8.7 -8.7 l 37.6 0 l 10 -10 l -20 -20 z"></path><path d="M 43.45000000000002 -25.012500000000003 l -10 10 l 50 0 l 10 -10 l -50 0 z"></path></g><g><path d="M 117.19999999999999 -55.0125 l -10 10 l 0 60 l 10 -10 l 0 -60 z"></path></g><g><path d="M 177.2 -45.0125 l 10 -10 l -50 0 l -10 10 l 0 30 l 30 0 l 0 30 l 10 -10 l 0 -30 l -30 0 l 0 -20 l 40 0 z"></path><path d="M 167.2 -65.0125 l 10 -10 l -30 0 l -10 10 l 30 0 z"></path></g></g></g>
</svg>
