<svg xmlns="http://www.w3.org/2000/svg" viewBox="0 0 62.4 172.294907" width="62.4" height="172.294907" fill="currentColor" stroke="none">
<g transform="translate(31.2 86.147453)"><g><g fill="currentColor"><path d="M -8.799999999999997 -62.5 l -10 10 l 0 60 l 10 -10 l 0 -50 l 30 0 l 10 -10 l -40 0 z"></path><g><path d="M -31.199999999999996 17.5 l 22.4 0 l 10 -10.1 l -19.9 0 l -0.1 0.1 l 0 -0.1 l 0.05 0 l 9.95 -9.9 l 0 -5 q -5 5.774 -10 5 l 0 7.55 l -12.4 12.4 z"></path></g><path d="M -9.999999999999996 37.5 l 0 25 l 20 -20 l -1.2 -1.2 l -8.8 8.8 l 0 -22.6 l -10 10 z"></path></g></g></g>
</svg>
