<svg xmlns="http://www.w3.org/2000/svg" viewBox="0 0 87.5 172.294907" width="87.5" height="172.294907" fill="currentColor" stroke="none">
<g transform="translate(43.75 86.147453)"><g><g><path d="M 8.75 15 l 7.5 -7.5 -32.5 -32.5 -7.5 7.5 32.5 32.5 m -17.5 -10 l -7.5 7.5 32.5 32.5 7.5 -7.5 -32.5 -32.5 z"></path><path d="M 13.649999999999999 35 q -1.655 2.716 2.6 10 l 15 0 l 10 -10 l -20 0 q -7.015 -2.931 -7.6 0 z"></path><path d="M -13.75 45 l 10 -10 l -30 0 l -10 10 l 30 0 z"></path><path d="M 31.349999999999994 -15 l -8.8 8.8 l 1.2 1.2 l 20 -20 l -30 0 l -10 10 l 27.6 0 z"></path><path d="M 10 -35 l 10 -10 l -30 0 l -10 10 l 30 0 z"></path></g></g></g>
</svg>
