<svg xmlns="http://www.w3.org/2000/svg" viewBox="0 0 78.8 172.294907" width="78.8" height="172.294907" fill="currentColor" stroke="none">
<g transform="translate(39.4 86.147453)"><g><g><path d="M -2.6000000000000014 8.1 l 7.45 -7.5 27.05 34.4 7.5 -7.5 -27.8 -36 -7.75 7.8 -26.95 -34.3 -7.5 7.5 28 35.6 z"></path><path d="M -29.4 -26.3 q 6.486 1.216 4.75 -5 q -2.924 3.894 -5.95 3.8 l -8.8 8.8 l 0 15 l 10 -10 l 0 -12.6 z"></path><path d="M -3.1000000000000014 -52.5 l 7.5 7.5 l 7.5 -7.5 l -7.5 -7.5 l -7.5 7.5 z"></path><path d="M -10.600000000000001 52.5 l 7.5 7.5 l 7.5 -7.5 l -7.5 -7.5 l -7.5 7.5 z"></path></g></g></g>
</svg>
