<svg xmlns="http://www.w3.org/2000/svg" viewBox="0 0 73.8 172.294907" width="73.8" height="172.294907" fill="currentColor" stroke="none">
<g transform="translate(36.9 86.147453)"><g><g><path d="M -20.599999999999994 -35 l -7.5 7.5 57.5 62.5 7.5 -7.5 -57.5 -62.5 z"></path><path d="M -26.899999999999995 -26.3 q 6.486 1.216 4.75 -5 q -2.924 3.894 -5.95 3.8 l -8.8 8.8 l 0 15 l 10 -10 l 0 -12.6 z"></path><path d="M 33.85000000000001 28.6 q -1.825 3.28 -4.45 6.4 l -7.5 7.5 l -1.2 -1.2 l 7.5 -7.5 q -1.688 -4.106 -0.35 -4.55 q 1.45 -0.6 6 -0.65 z"></path><path d="M -3.0999999999999943 -52.5 l 7.5 7.5 l 7.5 -7.5 l -7.5 -7.5 l -7.5 7.5 z"></path><path d="M -10.599999999999994 52.5 l 7.5 7.5 l 7.5 -7.5 l -7.5 -7.5 l -7.5 7.5 z"></path></g></g></g>
</svg>
