<svg xmlns="http://www.w3.org/2000/svg" viewBox="0 0 28.95 172.294907" width="28.95" height="172.294907" fill="currentColor" stroke="none">
<g transform="translate(14.475 86.147453)"><g><g><path d="M 12.674999999999999 -44.400000000000006 l -10 10 l 0 60 l 10 -10 l 0 -60 z"></path><g><path d="M 3.0250000000000004 -32.300000000000004 q 0.375 -0.363 1.15 -1.15 q 6.261 -1.099 8.5 3.8 l 0 -14.75 l -10 10 l -10 -10 l -7.15 7.15 l 11.3 11.2 l 5.85 -5.9 q 0.04 -0.029 0.35 -0.35 z"></path></g><g><path d="M 14.475 37.39999999999999 l -11.8 -11.8 l 10 -10 l 0 -5 q -5.188 7.964 -10 5 l 0 7.7 l -8.2 8.2 l 13 12.9 l 7 -7 z"></path></g></g></g></g>
</svg>
