<svg xmlns="http://www.w3.org/2000/svg" viewBox="0 0 292.8 123.725" width="292.8" height="123.725" fill="currentColor" stroke="none">
<g transform="translate(146.4 61.8625)"><g><g><path d="M -136.4 -33.137499999999996 l -10 10 l 0 60 l 10 -10 l 0 -60 z"></path><g><path d="M -146.4 21.862500000000004 l 0 15 l 15 0 l 10 -10 l -15 0 l 0 -10 q -3.874 7.753 -10 5 z"></path></g></g><g><path d="M -101.5 -33.162499999999994 l -9.9 9.95 l 47.35 58.35 l 0.05 0 l 1.4 1.75 l 7.5 -7.5 l -42.7 -52.55 l 52.05 0 l 10 -10 l -65.75 0 z"></path><g><path d="M -55.75 -23.162499999999994 l 10 0 l 17.5 -17.5 l -1.2 -1.2 l -8.7 8.7 l -7.6 0 q 0.83 5.4 -10 10 z"></path></g><g><path d="M -65.2 26.887500000000017 q -1.655 2.716 2.6 10 l 15 0 l 10 -10 l -20 0 q -7.015 -2.931 -7.6 0 z"></path></g><path d="M -59.825 -51.8625 l 10 -10 l -30 0 l -10 10 l 30 0 z"></path></g><g><path d="M 26.900000000000006 9.962500000000004 l 7.45 -7.5 27.05 34.4 7.5 -7.5 -27.8 -36 -7.75 7.8 -26.95 -34.3 -7.5 7.5 28 35.6 z"></path><path d="M 3.9000000000000057 -30.637499999999996 l -5 5 l -10 -10 l -7.15 7.15 l 11.3 11.2 l 7 -7.1 l 1 -1 q 3.183 1.742 3.85 0 q 0.916 -1.293 0 -6.25 z"></path><path d="M 58.80000000000001 26.862500000000004 q -1.655 2.716 2.6 10 l 15 0 l 10 -10 l -20 0 q -7.015 -2.931 -7.6 0 z"></path><path d="M 18.900000000000006 54.362500000000004 l 7.5 7.5 l 7.5 -7.5 l -7.5 -7.5 l -7.5 7.5 z"></path></g><g><path d="M 103.9 -33.137499999999996 l -7.5 7.5 l 31.25 31.25 l -31.25 31.25 l 40 0 l 10 -10 l -37.6 0 l 27.5 -27.6 l -32.4 -32.4 z"></path></g></g></g>
</svg>
