<svg xmlns="http://www.w3.org/2000/svg" viewBox="0 0 203.8 110.025" width="203.8" height="110.025" fill="currentColor" stroke="none">
<g transform="translate(101.9 55.0125)"><g><g><path d="M -91.9 -34.987500000000004 l -10 10 l 0 60 l 10 -10 l 0 -60 z"></path><g><path d="M -101.9 20.012499999999996 l 0 15 l 15 0 l 10 -10 l -15 0 l 0 -10 q -3.874 7.753 -10 5 z"></path></g></g><g><path d="M -57 -35.0125 l -9.9 9.95 l 47.35 58.35 l 0.05 0 l 1.4 1.75 l 7.5 -7.5 l -42.7 -52.55 l 52.05 0 l 10 -10 l -65.75 0 z"></path><g><path d="M -10.599999999999994 27.53750000000001 q -6.8 0.5 -7.5 7.5 l 15 15 l 15 -15 l -1.2 -1.2 l -7.5 7.5 l -13.8 -13.8 z"></path></g><path d="M -17.5 -45.0125 l 10 -10 l -30 0 l -10 10 l 30 0 z"></path></g><g><path d="M 40.099999999999994 -34.987500000000004 l -10 10 l 0 60 l 10 -10 l 0 -60 z"></path><g><path d="M 41.900000000000006 46.81249999999999 l -11.8 -11.8 l 10 -10 l 0 -5 q -5.188 7.964 -10 5 l 0 7.7 l -8.2 8.2 l 13 12.9 l 7 -7 z"></path></g></g><g><path d="M 61.900000000000006 -34.987500000000004 l -10 10 l 0 60 l 10 -10 l 0 -50 l 30 0 l 10 -10 l -40 0 z"></path><g><path d="M 61.900000000000006 42.6125 l 0 -17.6 q -7.3 -5 -10 10 l 0 20 l 17.5 -17.5 l -1.2 -1.2 l -6.3 6.3 z"></path></g><path d="M 86.9 -44.987500000000004 l 10 -10 l -30 0 l -10 10 l 30 0 z"></path></g></g></g>
</svg>
