<svg xmlns="http://www.w3.org/2000/svg" viewBox="0 0 80 172.294907" width="80" height="172.294907" fill="currentColor" stroke="none">
<g transform="translate(40 86.147453)"><g><g><path d="M 20 25 l 7.5 -7.5 -26.9 -26.9 7.45 -7.55 -28.05 -28.05 -7.5 7.5 26.9 26.9 -7.5 7.5 28.1 28.1 z"></path><path d="M 40 15 l -15 0 q -7 -2.95 -7.6 0 q -1.65 2.7 2.6 10 l 10 0 l 0 15 l 10 -10 l 0 -15 z"></path><path d="M -10 25 l 10 -10 l -30 0 l -10 10 l 30 0 z"></path><path d="M -7.5 -62.5 l 7.5 7.5 l 7.5 -7.5 l -7.5 -7.5 l -7.5 7.5 z"></path><path d="M -2.5 35 l -10 10 l 0 25 l 10 -10 l 0 -25 z"></path></g></g></g>
</svg>
