<svg xmlns="http://www.w3.org/2000/svg" viewBox="0 0 252.2 100" width="252.2" height="100" fill="currentColor" stroke="none">
<g transform="translate(126.1 50)"><g><g><path d="M -80.95000000000002 13.1 l 7.45 -7.5 27.05 34.4 7.5 -7.5 -27.8 -36 -7.75 7.8 -26.95 -34.3 -7.5 7.5 28 35.6 z"></path><path d="M -103.95000000000002 -27.5 l -5 5 l -10 -10 l -7.15 7.15 l 11.3 11.2 l 7 -7.1 l 1 -1 q 3.183 1.742 3.85 0 q 0.916 -1.293 0 -6.25 z"></path><path d="M -83.95000000000002 40 l 10 -10 l -30 0 l -10 10 l 30 0 z"></path><path d="M -63.95000000000001 -40 l 10 -10 l -30 0 l -10 10 l 30 0 z"></path></g><g><path d="M 21.049999999999997 -20 l 10 -10 l -50 0 l -10 10 l 0 35 l 10 -10 l 15 0 l 0 35 l 10 -10 l 0 -35 l -17.35 0 l -7.65 7.6 l 0 -22.6 l 40 0 z"></path></g><g><path d="M 51.05 -30 l -10 10 l 0 60 l 10 -10 l 0 -60 z"></path><g><path d="M 51.09999999999998 -27.700000000000003 l 15 0 l 10 -10 l -17.4 0 l -17.65 17.7 l 0 7.3 q 5.4 -4.35 10 -2.75 l 0 -12.25 z"></path></g><g><path d="M 41.05 25 l 0 15 l 10 -10 l 0 20 l 10 -9.9 l 0 -22.4 l -10 9.95 l 0 -5.15 q -5 6.1 -10 2.5 z"></path></g></g><g><path d="M 97.25000000000001 -29.924999999999997 l -10 10 l 0 40 l 9.55 -9.55 l 20.65 29.4 l 7.5 -7.5 l -21.6 -30.85 l -6.1 6.1 l 0 -37.6 z"></path><g><path d="M 116.3 38.77499999999999 l -15.05 0 l -10 10 l 17.45 0 l 8.75 -8.85 q 1.75 -3.2 4.85 -7.2 q -5.7 -0.35 -6 6.05 z"></path></g><path d="M 116.10000000000001 -39.925000000000004 l 10 -10 l -30 0 l -10 10 l 30 0 z"></path></g></g></g>
</svg>
