<svg xmlns="http://www.w3.org/2000/svg" viewBox="0 0 30 172.294907" width="30" height="172.294907" fill="currentColor" stroke="none">
<g transform="translate(15 86.147453)"><g><g><path d="M 15 -5.875000000000002 l -10 10 l 0 -33.85 l -10 10 l 0 36.2 l 10 -9.95 l 0 33.75 l 10 -10 l 0 -36.15 z"></path><g><path d="M 1.3000000000000007 -46.125 l -16.3 16.3 l 0 22.45 l 10 -10 l 0 5.15 q 5 -6.1 10 -2.5 l 0 -15 l -10 10 l 0 -17.7 l 7.5 -7.5 l -1.2 -1.2 z"></path></g><g><path d="M 15 30.275 l 0 -5 q -6.25 9 -10 5 l 0 7.6 l -11.8 -11.7 l -7 7 l 12.95 12.95 l 15.85 -15.85 z"></path></g></g></g></g>
</svg>
