<svg xmlns="http://www.w3.org/2000/svg" viewBox="0 0 89.65 172.294907" width="89.65" height="172.294907" fill="currentColor" stroke="none">
<g transform="translate(44.825 86.147453)"><g><g><path d="M -29.825000000000003 -50 l -7.5 7.5 57.5 62.5 7.5 -7.5 -57.5 -62.5 z"></path><path d="M -30.925000000000004 -46.95 q -3.28 1.825 -6.4 4.45 l -7.5 7.5 l 1.2 1.2 l 7.5 -7.5 q 4.106 1.688 4.55 0.35 q 0.6 -1.45 0.65 -6 z"></path><path d="M 22.674999999999997 17.5 l 5 -5 l 10 10 l 7.15 -7.15 l -11.3 -11.2 l -7 7.1 l -1 1 q -3.183 -1.742 -3.85 0 q -0.916 1.293 0 6.25 z"></path><path d="M -4.725000000000001 40 l -8.8 8.8 l 1.2 1.2 l 20 -20 l -30 0 l -10 10 l 27.6 0 z"></path></g></g></g>
</svg>
