<svg xmlns="http://www.w3.org/2000/svg" viewBox="0 0 37.15 172.294907" width="37.15" height="172.294907" fill="currentColor" stroke="none">
<g transform="translate(18.575 86.147453)"><g><g><path d="M 18.575000000000003 -14.074999999999998 l -10 10 l 0 -33.85 l -10 10 l 0 36.2 l 10 -9.95 l 0 33.75 l 10 -10 l 0 -36.15 z"></path><g><path d="M -1.0749999999999957 -25.824999999999996 q 0.375 -0.363 1.15 -1.15 q 6.261 -1.099 8.5 3.8 l 0 -14.75 l -10 10 l -10 -10 l -7.15 7.15 l 11.3 11.2 l 5.85 -5.9 q 0.04 -0.029 0.35 -0.35 z"></path></g><g><path d="M 18.575000000000003 22.075000000000003 l 0 -5 q -6.25 9 -10 5 l 0 7.6 l -11.8 -11.7 l -7 7 l 12.95 12.95 l 15.85 -15.85 z"></path></g></g></g></g>
</svg>
