<svg xmlns="http://www.w3.org/2000/svg" viewBox="0 0 338.15 109.925" width="338.15" height="109.925" fill="currentColor" stroke="none">
<g transform="translate(169.075 54.9625)"><g><g><path d="M -141.075 8.062499999999998 l 7.45 -7.5 27.05 34.4 7.5 -7.5 -27.8 -36 -7.75 7.8 -26.95 -34.3 -7.5 7.5 28 35.6 z"></path><path d="M -109.17499999999998 24.9625 q -1.655 2.716 2.6 10 l 15 0 l 10 -10 l -20 0 q -7.015 -2.931 -7.6 0 z"></path><path d="M -166.575 27.4625 l 0 25 l 20 -20 l -1.2 -1.2 l -8.8 8.8 l 0 -22.6 l -10 10 z"></path><path d="M -104.07499999999999 -25.0375 l 10 -10 l -30 0 l -10 10 l 30 0 z"></path></g><g><path d="M -61.57499999999999 -35.0375 l -10 10 l 0 60 l 10 -10 l 0 -50 l 30 0 l 10 -10 l -40 0 z"></path><g><path d="M -61.57499999999999 42.5625 l 0 -17.6 q -7.3 -5 -10 10 l 0 20 l 17.5 -17.5 l -1.2 -1.2 l -6.3 6.3 z"></path></g></g><g><path d="M 13.425000000000011 -3.7375000000000007 l 1.25 1.15 q 15.871 -14.121 3.75 -22.45 l 20 0 l 10 -10 l -40 0 l -10 10 q 24.307 9.097 15 21.3 z"></path><path d="M -1.5749999999999886 -5.037500000000001 l -10 10 l 50 0 l 10 -10 l -50 0 z"></path></g><g><path d="M 68.42500000000001 -35.0375 l -10 10 l 0 60 l 10 -10 l 0 -60 z"></path><g><path d="M 58.42500000000001 19.9625 l 0 15 l 15 0 l 10 -10 l -15 0 l 0 -10 q -3.874 7.753 -10 5 z"></path></g></g><g><path d="M 159.075 -24.962500000000002 l 10 -10 l -65.75 0 l -9.9 9.95 l 30.45 37.55 l 7.25 -7.3 l 24.15 29.65 l 7.45 -7.4 l -25.2 -31.05 l -7.5 7.45 l -23.1 -28.85 l 52.15 0 z"></path><g><path d="M 159.72500000000002 28.487499999999997 q -1.825 3.28 -4.45 6.4 l -7.5 7.5 l -1.2 -1.2 l 7.5 -7.5 q -1.688 -4.106 -0.35 -4.55 q 1.45 -0.6 6 -0.65 z"></path></g><path d="M 141.25 -44.9625 l 10 -10 l -30 0 l -10 10 l 30 0 z"></path></g></g></g>
</svg>
