<svg xmlns="http://www.w3.org/2000/svg" viewBox="0 0 124.45 106.3" width="124.45" height="106.3" fill="currentColor" stroke="none">
<g transform="translate(62.225 53.15)"><g><g><path d="M -14.724999999999994 16.849999999999994 l 7.5 -7.5 -26.9 -26.9 7.45 -7.55 -28.05 -28.05 -7.5 7.5 26.9 26.9 -7.5 7.5 28.1 28.1 z"></path></g><g><path d="M 62.175 -53.150000000000006 l -50 0 l -9.4 9.4 l 23.2 33.05 l 6.2 -6.25 l 0 33.8 l 10 -10 l 0 -36.15 l -1.1 1.1 q -2.967 2.977 -5.95 5.95 l -1.95 2 l -0.65 0.65 l -16.5 -23.5 l 36.2 0 l 10 -10 z"></path><g><path d="M 24.674999999999997 21.949999999999996 l 1.2 1.2 l 16.3 -16.3 l 0 -7.75 q -5 9.444 -10 6.55 l 0 8.8 l -7.5 7.5 z"></path></g><path d="M 24.900000000000006 43.150000000000006 l 8.8 -8.8 l -1.2 -1.2 l -20 20 l 30 0 l 10 -10 l -27.6 0 z"></path></g></g></g>
</svg>
