<svg xmlns="http://www.w3.org/2000/svg" viewBox="0 0 177.4 100" width="177.4" height="100" fill="currentColor" stroke="none">
<g transform="translate(88.7 50)"><g><g><path d="M -78.7 -30 l -10 10 l 0 60 l 10 -10 l 0 -60 z"></path><g><path d="M -88.7 25 l 0 15 l 15 0 l 10 -10 l -15 0 l 0 -10 q -3.874 7.753 -10 5 z"></path></g></g><g><path d="M -43.7 -30 l -10 10 l 0 60 l 10 -10 l 0 -50 l 30 0 l 10 -10 l -40 0 z"></path><path d="M -18.700000000000003 -40 l 10 -10 l -30 0 l -10 10 l 30 0 z"></path></g><g><path d="M 28.700000000000003 -30 l -10 10 l 0 60 l 10 -10 l 0 -60 z"></path><g><path d="M 6.299999999999997 50 l 22.4 0 l 10 -10.1 l -19.9 0 l -0.1 0.1 l 0 -0.1 l 0.05 0 l 9.95 -9.9 l 0 -5 q -5 5.774 -10 5 l 0 7.55 l -12.4 12.4 z"></path></g></g><g><path d="M 59.85000000000001 -29.924999999999997 l -10 10 l 0 40 l 9.55 -9.55 l 20.65 29.4 l 7.5 -7.5 l -21.6 -30.85 l -6.1 6.1 l 0 -37.6 z"></path><path d="M 78.7 -39.925000000000004 l 10 -10 l -30 0 l -10 10 l 30 0 z"></path></g></g></g>
</svg>
