<svg xmlns="http://www.w3.org/2000/svg" viewBox="0 0 51.2 172.294907" width="51.2" height="172.294907" fill="currentColor" stroke="none">
<g transform="translate(25.6 86.147453)"><g><g><path d="M 10.600000000000001 -11.100000000000003 l -10 10 l 0 -33.85 l -10 10 l 0 36.2 l 10 -9.95 l 0 33.75 l 10 -10 l 0 -36.15 z"></path><g><path d="M 0.5999999999999979 -19.300000000000004 l 0 -15.65 l -10 10.05 q -10.8 -2.6 -16.2 -18.85 q -0.35 21.9 9.85 27.5 l 6.35 -6.35 l 0 8.1 q 4.8 -9.5 10 -4.8 z"></path></g><g><path d="M 0.5999999999999979 20.049999999999997 l 0 15 l 12.6 0 l -7.5 7.5 l 1.2 1.2 l 18.7 -18.7 l -15 0 l 0 -10 q -3.85 7.75 -10 5 z"></path></g></g></g></g>
</svg>
