<svg xmlns="http://www.w3.org/2000/svg" viewBox="0 0 86.5 172.294907" width="86.5" height="172.294907" fill="currentColor" stroke="none">
<g transform="translate(43.25 86.147453)"><g><g><path d="M 22.39999999999999 -16.175 l 10 -10 l -65.75 0 l -9.9 9.95 l 30.45 37.55 l 7.25 -7.3 l 24.15 29.65 l 7.45 -7.4 l -25.2 -31.05 l -7.5 7.45 l -23.1 -28.85 l 52.15 0 z"></path><g><path d="M 21.099999999999994 41.175 l 5 -5 l 10 10 l 7.15 -7.15 l -11.3 -11.2 l -7 7.1 l -1 1 q -3.183 -1.742 -3.85 0 q -0.916 1.293 0 6.25 z"></path></g><path d="M 10 -36.175 l 10 -10 l -30 0 l -10 10 l 30 0 z"></path></g></g></g>
</svg>
