<svg xmlns="http://www.w3.org/2000/svg" viewBox="0 0 437.85 119.9" width="437.85" height="119.9" fill="currentColor" stroke="none">
<g transform="translate(218.925 59.95)"><g><g><path d="M -207.12499999999997 -40.02499999999999 l -10 10 l 0 60 l 10 -10 l 0 -60 z"></path><g><path d="M -218.92499999999998 -51.82499999999999 l 11.8 11.8 l -10 10 l 0 5 q 5.188 -7.964 10 -5 l 0 -7.7 l 8.2 -8.2 l -13 -12.9 l -7 7 z"></path></g><g><path d="M -217.12499999999997 14.975000000000009 l 0 15 l 15 0 l 10 -10 l -15 0 l 0 -10 q -3.874 7.753 -10 5 z"></path></g></g><g><path d="M -116.475 -29.949999999999992 l 10 -10 l -65.75 0 l -9.9 9.95 l 30.45 37.55 l 7.25 -7.3 l 24.15 29.65 l 7.45 -7.4 l -25.2 -31.05 l -7.5 7.45 l -23.1 -28.85 l 52.15 0 z"></path><g><path d="M -117.77499999999999 27.400000000000006 l 5 -5 l 10 10 l 7.15 -7.15 l -11.3 -11.2 l -7 7.1 l -1 1 q -3.183 -1.742 -3.85 0 q -0.916 1.293 0 6.25 z"></path></g><path d="M -128.875 -49.94999999999999 l 10 -10 l -30 0 l -10 10 l 30 0 z"></path></g><g><path d="M -78.12499999999997 -40.02499999999999 l -7.5 7.5 57.5 62.5 7.5 -7.5 -57.5 -62.5 z"></path></g><g><path d="M 44.37500000000003 -39.99999999999999 l -10 10 l 0 20 l -35 0 l -10 10 l 29.95 29.95 l 7.5 -7.5 l -22.45 -22.45 l 30 0 l 10 -10 l 0 -30 z"></path><g><path d="M 56.775000000000006 -50 l -22.4 0 l -10 10.1 l 19.9 0 l 0.1 -0.1 l 0 0.1 l -0.05 0 l -9.95 9.9 l 0 5 q 5 -5.774 10 -5 l 0 -7.55 l 12.4 -12.4 z"></path></g><g><path d="M 26.825000000000017 22.44999999999999 l 15.05 0 l 10 -10 l -17.45 0 l -8.75 8.8 q -6.9 -0.2 -3.8 6.15 l 4.95 -4.95 z"></path></g><path d="M 15.475000000000023 49.94999999999999 l 8.8 -8.8 l -1.2 -1.2 l -20 20 l 30 0 l 10 -10 l -27.6 0 z"></path></g><g><path d="M 91.42499999999998 -40.02499999999999 l -7.5 7.5 57.5 62.5 7.5 -7.5 -57.5 -62.5 z"></path><path d="M 88.92499999999998 -37.52499999999999 l -5 5 l -10 -10 l -7.15 7.15 l 11.3 11.2 l 7 -7.1 l 1 -1 q 3.183 1.742 3.85 0 q 0.916 -1.293 0 -6.25 z"></path><path d="M 101.42499999999998 47.47500000000001 l 7.5 7.5 l 7.5 -7.5 l -7.5 -7.5 l -7.5 7.5 z"></path></g><g><path d="M 173.975 -30.02499999999999 l 34.95 0 l 10 -10 l -50 0 l -10 10 l 25 25 l 0 35 l 10 -10 l 0 -30.05 l -19.95 -19.95 z"></path><g><path d="M 183.92499999999998 49.97500000000001 l 10 -10 l 0 -20 q -7.3 -5 -10 10 l 0 20 z"></path></g></g></g></g>
</svg>
