<svg xmlns="http://www.w3.org/2000/svg" viewBox="0 0 92.5 172.294907" width="92.5" height="172.294907" fill="currentColor" stroke="none">
<g transform="translate(46.25 86.147453)"><g><g><path d="M -0.75 9.35 l 7.45 -7.5 27.05 34.4 7.5 -7.5 -27.8 -36 -7.75 7.8 -26.95 -34.3 -7.5 7.5 28 35.6 z"></path><path d="M -18.65 -23.75 q 1.65 -2.7 -2.6 -10 l -12.6 0 l 7.5 -7.5 l -1.2 -1.2 l -18.7 18.7 l 20 0 q 7 2.95 7.6 0 z"></path><path d="M -16.25 18.75 l -10 10 l 0 25 l 10 -10 l 0 -25 z"></path><path d="M 33.849999999999994 -23.75 l -8.8 8.8 l 1.2 1.2 l 20 -20 l -30 0 l -10 10 l 27.6 0 z"></path><path d="M 16.25 -43.75 l 10 -10 l -30 0 l -10 10 l 30 0 z"></path></g></g></g>
</svg>
