<svg xmlns="http://www.w3.org/2000/svg" viewBox="0 0 544.95 128.7" width="544.95" height="128.7" fill="currentColor" stroke="none">
<g transform="translate(272.475 64.35)"><g><g><path d="M -264.975 -35.64999999999999 l -7.5 7.5 57.5 62.5 7.5 -7.5 -57.5 -62.5 z"></path></g><g><path d="M -147.47500000000002 -25.64999999999999 l 10 -10 l -50 0 l -10 10 l 0 30 l 30 0 l 0 30 l 10 -10 l 0 -30 l -30 0 l 0 -20 l 40 0 z"></path><g><path d="M -159.87500000000003 -15.649999999999991 l 22.4 0 l 9.9 -10 l -19.9 0 l 10 -10 l -12.65 0 q 5.504 3.447 -5.3 10 l 5.5 0 l -9.95 10 z"></path></g><g><path d="M -179.87500000000003 44.35000000000001 l 22.4 0 l 10 -10.1 l -19.9 0 l -0.1 0.1 l 0 -0.1 l 0.05 0 l 9.95 -9.9 l 0 -5 q -5 5.774 -10 5 l 0 7.55 l -12.4 12.4 z"></path></g><path d="M -152.52500000000003 64.35000000000001 l 10 -10 l -30 0 l -10 10 l 30 0 z"></path></g><g><path d="M -97.57500000000002 -11.799999999999992 l -10 10 l 0 -33.85 l -10 10 l 0 36.2 l 10 -9.95 l 0 33.75 l 10 -10 l 0 -36.15 z"></path><g><path d="M -107.57500000000002 19.35000000000001 l 0 15 l 15 0 l 10 -10 l -15 0 l 0 -10 q -3.874 7.753 -10 5 z"></path></g></g><g><path d="M -52.57500000000002 -25.64999999999999 q -0.1 -10.25 13.15 -13.1 l -1.2 -1.1 q -22.3 -0.55 -21.95 24.2 l 37.6 0 l -7.5 7.5 l 1.2 1.2 l 18.7 -18.7 l -40 0 z"></path><path d="M -62.57500000000002 -5.6499999999999915 l -10 10 l 50 0 l 10 -10 l -50 0 z"></path></g><g><path d="M 42.924999999999955 7.450000000000008 l 7.45 -7.5 27.05 34.4 7.5 -7.5 -27.8 -36 -7.75 7.8 -26.95 -34.3 -7.5 7.5 28 35.6 z"></path><path d="M 25.024999999999977 -25.64999999999999 q 1.65 -2.7 -2.6 -10 l -12.6 0 l 7.5 -7.5 l -1.2 -1.2 l -18.7 18.7 l 20 0 q 7 2.95 7.6 0 z"></path><path d="M 27.424999999999955 16.85000000000001 l -10 10 l 0 25 l 10 -10 l 0 -25 z"></path><path d="M 77.52499999999998 -25.64999999999999 l -8.8 8.8 l 1.2 1.2 l 20 -20 l -30 0 l -10 10 l 27.6 0 z"></path><path d="M 59.924999999999955 -45.64999999999999 l 10 -10 l -30 0 l -10 10 l 30 0 z"></path></g><g><path d="M 149.92499999999995 -25.64999999999999 l 10 -10 l -50 0 l -10 10 l 0 35 l 10 -10 l 15 0 l 0 35 l 10 -10 l 0 -35 l -17.35 0 l -7.65 7.6 l 0 -22.6 l 40 0 z"></path></g><g><path d="M 179.92499999999995 -35.64999999999999 l -10 10 l 0 60 l 10 -10 l 0 -60 z"></path><g><path d="M 179.97499999999997 -33.349999999999994 l 15 0 l 10 -10 l -17.4 0 l -17.65 17.7 l 0 7.3 q 5.4 -4.35 10 -2.75 l 0 -12.25 z"></path></g></g><g><path d="M 224.97499999999997 -35.64999999999999 l -10 10 l 0 60 l 10 -10 l 0 -50 l 30 0 l 10 -10 l -40 0 z"></path><g><path d="M 244.97500000000002 -25.64999999999999 l 10 0 l 17.5 -17.5 l -1.2 -1.2 l -8.7 8.7 l -7.6 0 q 0.83 5.4 -10 10 z"></path></g><g><path d="M 214.97499999999997 54.35000000000001 l 10 -10 l 0 -20 q -7.3 -5 -10 10 l 0 20 z"></path></g><path d="M 253.72500000000002 -54.349999999999994 l 10 -10 l -30 0 l -10 10 l 30 0 z"></path></g></g></g>
</svg>
