<svg xmlns="http://www.w3.org/2000/svg" viewBox="0 0 75.5 172.294907" width="75.5" height="172.294907" fill="currentColor" stroke="none">
<g transform="translate(37.75 86.147453)"><g><g><path d="M 10.250000000000007 24.775 l 10 -10 l 0 -40 l -9.55 9.55 l -20.65 -29.4 l -7.5 7.5 l 21.6 30.85 l 6.1 -6.1 l 0 37.6 z"></path><g><path d="M -27.949999999999996 -44.675 l 17.6 0 l -7.1 7.1 q 10.45 1.15 8.4 -5.9 l 11.2 -11.3 l -22.4 0 l -17.5 17.5 l 1.2 1.2 l 8.6 -8.6 z"></path></g><g><path d="M 10.250000000000007 24.775 l 0 -0.1 l 0.05 0 l 9.95 -9.9 l 0 -5 q -5 5.75 -10 5 l 0 7.55 l -12.4 12.45 l 22.4 0 l 17.5 -17.5 l -1.2 -1.2 l -8.6 8.6 l -17.6 0 l -0.1 0.1 z"></path></g><path d="M 10.000000000000007 54.775 l 10 -10 l -30 0 l -10 10 l 30 0 z"></path></g></g></g>
</svg>
