<svg xmlns="http://www.w3.org/2000/svg" viewBox="0 0 308 119.925" width="308" height="119.925" fill="currentColor" stroke="none">
<g transform="translate(154 59.9625)"><g><g><path d="M -106.5 30.0375 l 7.5 -7.5 -26.9 -26.9 7.45 -7.55 -28.05 -28.05 -7.5 7.5 26.9 26.9 -7.5 7.5 28.1 28.1 z"></path><path d="M -145.35 -38.8125 l 15.05 0 l 10 -10 l -17.45 0 l -8.75 8.85 q -1.75 3.2 -4.85 7.2 q 5.7 0.35 6 -6.05 z"></path><path d="M -102.05 23.637500000000003 q -1.825 3.28 -4.45 6.4 l -7.5 7.5 l -1.2 -1.2 l 7.5 -7.5 q -1.688 -4.106 -0.35 -4.55 q 1.45 -0.6 6 -0.65 z"></path><path d="M -98.9 -29.9625 l -8.8 8.8 l 1.2 1.2 l 20 -20 l -30 0 l -10 10 l 27.6 0 z"></path></g><g><path d="M -69 -39.9625 l -7.5 7.5 l 31.25 31.25 l -31.25 31.25 l 40 0 l 10 -10 l -37.6 0 l 27.5 -27.6 l -32.4 -32.4 z"></path></g><g><path d="M 31.5 29.9625 l 10 -10 l 0 -40 l -9.55 9.55 l -20.65 -29.4 l -7.5 7.5 l 21.6 30.85 l 6.1 -6.1 l 0 37.6 z"></path><g><path d="M -6.699999999999989 -39.4875 l 17.6 0 l -7.1 7.1 q 10.45 1.15 8.4 -5.9 l 11.2 -11.3 l -22.4 0 l -17.5 17.5 l 1.2 1.2 l 8.6 -8.6 z"></path></g><g><path d="M 31.5 29.9625 l 0 -0.1 l 0.05 0 l 9.95 -9.9 l 0 -5 q -5 5.75 -10 5 l 0 7.55 l -12.4 12.45 l 22.4 0 l 17.5 -17.5 l -1.2 -1.2 l -8.6 8.6 l -17.6 0 l -0.1 0.1 z"></path></g><path d="M 31.25 59.9625 l 10 -10 l -30 0 l -10 10 l 30 0 z"></path></g><g><path d="M 79 -39.9625 l -10 10 l 0 60 l 10 -10 l 0 -60 z"></path><g><path d="M 69 15.037500000000001 l 0 15 l 15 0 l 10 -10 l -15 0 l 0 -10 q -3.874 7.753 -10 5 z"></path></g></g><g><path d="M 111.5 -39.9625 l -7.5 7.5 l 31.25 31.25 l -31.25 31.25 l 40 0 l 10 -10 l -37.6 0 l 27.5 -27.6 l -32.4 -32.4 z"></path><path d="M 139 -49.9625 l 10 -10 l -30 0 l -10 10 l 30 0 z"></path></g></g></g>
</svg>
