<svg xmlns="http://www.w3.org/2000/svg" viewBox="0 0 150.65 117.425" width="150.65" height="117.425" fill="currentColor" stroke="none">
<g transform="translate(75.325 58.7125)"><g><g><path d="M -65.325 -31.2875 l -10 10 l 0 60 l 10 -10 l 0 -60 z"></path></g><g><path d="M 10.324999999999989 -21.212500000000002 l 10 -10 l -65.75 0 l -9.9 9.95 l 30.45 37.55 l 7.25 -7.3 l 24.15 29.65 l 7.45 -7.4 l -25.2 -31.05 l -7.5 7.45 l -23.1 -28.85 l 52.15 0 z"></path><g><path d="M 18.02499999999999 -11.212499999999999 q 16 -9.8 7.5 -27.5 l -7.55 7.5 l -11.1 0 q 3.05 5.25 -1.5 10 l 5 0 l 8.8 -8.85 q 6.15 7.15 -1.15 18.85 z"></path></g><g><path d="M 14.024999999999991 31.137499999999996 q -6.8 0.5 -7.5 7.5 l 15 15 l 15 -15 l -1.2 -1.2 l -7.5 7.5 l -13.8 -13.8 z"></path></g><path d="M 0.5999999999999943 -48.7125 l 10 -10 l -30 0 l -10 10 l 30 0 z"></path></g><g><path d="M 66.52499999999999 -7.437500000000002 l -10 10 l 0 -33.85 l -10 10 l 0 36.2 l 10 -9.95 l 0 33.75 l 10 -10 l 0 -36.15 z"></path><g><path d="M 46.52499999999999 -21.2875 l 0 5 q 6.25 -9 10 -5 l 0 -7.6 l 11.8 11.7 l 7 -7 l -12.95 -12.95 l -15.85 15.85 z"></path></g><g><path d="M 66.52499999999999 46.3125 l 0 -17.6 q -7.3 -5 -10 10 l 0 20 l 17.5 -17.5 l -1.2 -1.2 l -6.3 6.3 z"></path></g></g></g></g>
</svg>
