<svg xmlns="http://www.w3.org/2000/svg" viewBox="0 0 445.1 109.95" width="445.1" height="109.95" fill="currentColor" stroke="none">
<g transform="translate(222.55 54.975)"><g><g><path d="M -206.25000000000006 -34.949999999999996 l -7.5 7.5 57.5 62.5 7.5 -7.5 -57.5 -62.5 z"></path><path d="M -212.55000000000004 -26.249999999999996 q 4.2 0.65 6.3 -2.7 q 0.8 -1 0 -6 l -6.3 6.3 l 0 -19.95 l -10 10.1 l 0 22.35 l 10 -10.1 z"></path><path d="M -151.80000000000004 28.650000000000006 q -1.825 3.28 -4.45 6.4 l -7.5 7.5 l -1.2 -1.2 l 7.5 -7.5 q -1.688 -4.106 -0.35 -4.55 q 1.45 -0.6 6 -0.65 z"></path><path d="M -153.65000000000003 -24.949999999999996 l -8.8 8.8 l 1.2 1.2 l 20 -20 l -30 0 l -10 10 l 27.6 0 z"></path><path d="M -171.25000000000006 -44.949999999999996 l 10 -10 l -30 0 l -10 10 l 30 0 z"></path></g><g><path d="M -76.25000000000003 -34.925 l -10 10 l 0 20 l -35 0 l -10 10 l 29.95 29.95 l 7.5 -7.5 l -22.45 -22.45 l 30 0 l 10 -10 l 0 -30 z"></path><g><path d="M -103.90000000000005 25.024999999999984 q -1.655 2.716 2.6 10 l 15 0 l 10 -10 l -20 0 q -7.015 -2.931 -7.6 0 z"></path></g></g><g><path d="M -33.75000000000003 24.975000000000005 l -10 10 l 65.75 0 l 9.9 -9.95 l -30.45 -37.55 l -7.25 7.3 l -24.15 -29.65 l -7.45 7.4 l 25.2 31.05 l 7.5 -7.45 l 23.1 28.85 l -52.15 0 z"></path><g><path d="M -66.25000000000003 27.475 l 1.2 1.2 l 7.5 -7.5 l 13.8 13.8 q 8.65 -2.75 10 -10 l -5 0 l -12.5 -12.5 l -15 15 z"></path></g><path d="M -7.17500000000004 54.975 l 10 -10 l -30 0 l -10 10 l 30 0 z"></path></g><g><path d="M 51.900000000000006 -34.949999999999996 l -10 10 l 0 60 l 10 -10 l 0 -60 z"></path><g><path d="M 41.900000000000006 20.050000000000004 l 0 15 l 15 0 l 10 -10 l -15 0 l 0 -10 q -3.874 7.753 -10 5 z"></path></g></g><g><path d="M 86.79999999999998 -34.974999999999994 l -9.9 9.95 l 47.35 58.35 l 0.05 0 l 1.4 1.75 l 7.5 -7.5 l -42.7 -52.55 l 52.05 0 l 10 -10 l -65.75 0 z"></path><path d="M 124.725 -44.974999999999994 l 10 -10 l -30 0 l -10 10 l 30 0 z"></path></g><g fill="currentColor"><path d="M 207.55000000000004 -46.24999999999999 l -1.25 -1.15 q -15.871 14.121 -3.75 22.45 l -20 0 l -10 10 l 40 0 l 10 -10 q -24.307 -9.097 -15 -21.3 z"></path><path d="M 172.55000000000004 -4.949999999999996 l -10 10 l 50 0 l 10 -10 l -50 0 z"></path></g></g></g>
</svg>
