<svg xmlns="http://www.w3.org/2000/svg" viewBox="0 0 142.15 112.5" width="142.15" height="112.5" fill="currentColor" stroke="none">
<g transform="translate(71.075 56.25)"><g><g><path d="M -6.424999999999997 38.75 l 7.5 -7.5 -26.9 -26.9 7.45 -7.55 -28.05 -28.05 -7.5 7.5 26.9 26.9 -7.5 7.5 28.1 28.1 z"></path><path d="M -48.925000000000004 -28.75 l -5 5 l -10 -10 l -7.15 7.15 l 11.3 11.2 l 7 -7.1 l 1 -1 q 3.183 1.742 3.85 0 q 0.916 -1.293 0 -6.25 z"></path><path d="M -7.575000000000003 37.6 l -15.05 0 l -10 10 l 17.45 0 l 8.75 -8.85 q 1.75 -3.2 4.85 -7.2 q -5.7 -0.35 -6 6.05 z"></path><path d="M -48.925000000000004 21.25 l -10 10 l 0 25 l 10 -10 l 0 -25 z"></path><path d="M -33.925000000000004 -48.75 l 7.5 7.5 l 7.5 -7.5 l -7.5 -7.5 l -7.5 7.5 z"></path></g><g><path d="M 61.075 -21.25 l 10 -10 l -50 0 l -10 10 l 0 30 l 30 0 l 0 30 l 10 -10 l 0 -30 l -30 0 l 0 -20 l 40 0 z"></path></g></g></g>
</svg>
