<svg xmlns="http://www.w3.org/2000/svg" viewBox="0 0 90.1 172.294907" width="90.1" height="172.294907" fill="currentColor" stroke="none">
<g transform="translate(45.05 86.147453)"><g><g><path d="M -28.75 -29.325000000000003 l -7.5 7.5 57.5 62.5 7.5 -7.5 -57.5 -62.5 z"></path><path d="M -35.05 -20.625000000000004 q 4.2 0.65 6.3 -2.7 q 0.8 -1 0 -6 l -6.3 6.3 l 0 -19.95 l -10 10.1 l 0 22.35 l 10 -10.1 z"></path><path d="M 21.25 34.675 q -0.8 1 0 6 l 6.3 -6.3 l 0 19.95 l 17.5 -17.5 l -1.2 -1.2 l -6.3 6.3 l 0 -20.05 l -10 10.1 q -4.2 -0.65 -6.3 2.7 z"></path><path d="M 23.85000000000001 -19.325000000000003 l -8.8 8.8 l 1.2 1.2 l 20 -20 l -30 0 l -10 10 l 27.6 0 z"></path><path d="M -11.25 -46.825 l 7.5 7.5 l 7.5 -7.5 l -7.5 -7.5 l -7.5 7.5 z"></path></g></g></g>
</svg>
