<svg xmlns="http://www.w3.org/2000/svg" viewBox="0 0 611.55 132.525" width="611.55" height="132.525" fill="currentColor" stroke="none">
<g transform="translate(305.775 66.2625)"><g><g><path d="M -298.275 -41.2625 l -7.5 7.5 57.5 62.5 7.5 -7.5 -57.5 -62.5 z"></path><path d="M -305.775 8.737499999999997 l 20 20 l 7.5 -7.5 l -20 -20 l -7.5 7.5 z"></path><path d="M -280.775 -58.7625 l 7.5 7.5 l 7.5 -7.5 l -7.5 -7.5 l -7.5 7.5 z"></path></g><g><path d="M -190.77499999999998 -1.6375000000000028 l 10 -10 l -29.85 -29.85 l -7.5 7.5 l 22.35 22.35 l -20 0 l -15 15 l 25.6 25.6 l 7.5 -7.5 l -23.1 -23.1 l 30 0 z"></path></g><g><path d="M -82.52499999999998 28.762499999999996 l 9.9 -9.95 l -47.35 -58.35 l -0.05 0 l -1.4 -1.75 l -7.5 7.5 l 42.7 52.55 l -52.05 0 l -10 10 l 65.75 0 z"></path><g><path d="M -122.52499999999998 -38.23750000000001 q -3.28 1.825 -6.4 4.45 l -7.5 7.5 l 1.2 1.2 l 7.5 -7.5 q 4.106 1.688 4.55 0.35 q 0.6 -1.45 0.65 -6 z"></path></g><g><path d="M -170.77499999999998 21.262500000000003 l 1.2 1.2 l 7.5 -7.5 l 13.8 13.8 q 8.65 -2.75 10 -10 l -5 0 l -12.5 -12.5 l -15 15 z"></path></g><path d="M -111.69999999999999 -51.28750000000001 l 10 -10 l -30 0 l -10 10 l 30 0 z"></path><path d="M -129.2 46.2625 l 7.5 7.5 l 7.5 -7.5 l -7.5 -7.5 l -7.5 7.5 z"></path></g><g><path d="M -62.57499999999999 28.737499999999997 l 50 0 l 9.4 -9.4 l -23.2 -33.05 l -6.2 6.25 l 0 -33.8 l -10 10 l 0 36.15 l 1.1 -1.1 q 2.967 -2.977 5.95 -5.95 l 1.95 -2 l 0.65 -0.65 l 16.5 23.5 l -36.2 0 l -10 10 z"></path><path d="M -22.899999999999977 -51.262499999999996 l 10 -10 l -30 0 l -10 10 l 30 0 z"></path><path d="M -40.39999999999998 46.237500000000004 l 7.5 7.5 l 7.5 -7.5 l -7.5 -7.5 l -7.5 7.5 z"></path></g><g><path d="M 54.32499999999999 28.737499999999997 l 7.5 -7.5 -26.9 -26.9 7.45 -7.55 -28.05 -28.05 -7.5 7.5 26.9 26.9 -7.5 7.5 28.1 28.1 z"></path></g><g><path d="M 131.22500000000002 -41.2625 l -50 0 l -9.4 9.4 l 23.2 33.05 l 6.2 -6.25 l 0 33.8 l 10 -10 l 0 -36.15 l -1.1 1.1 q -2.967 2.977 -5.95 5.95 l -1.95 2 l -0.65 0.65 l -16.5 -23.5 l 36.2 0 l 10 -10 z"></path><g><path d="M 116.27500000000003 -31.262500000000003 l 5 0 l 7.6 -7.65 l 0 20 l 10 -9.9 l 0 -0.1 l 7.5 -7.5 l -1.2 -1.2 l -6.3 6.3 l 0 -19.95 l -10 10 l -12.6 0 q 3.5 4 0 10 z"></path></g><g><path d="M 104.92500000000001 45.137499999999996 l 16.3 -16.3 l 0 -22.45 l -10 10 l 0 -5.15 q -5 6.1 -10 2.5 l 0 15 l 10 -10 l 0 17.7 l -7.5 7.5 l 1.2 1.2 z"></path></g><path d="M 119.10000000000002 65.1375 l 10 -10 l -30 0 l -10 10 l 30 0 z"></path></g><g><path d="M 166.27500000000003 -41.2875 l -9.9 9.95 l 47.35 58.35 l 0.05 0 l 1.4 1.75 l 7.5 -7.5 l -42.7 -52.55 l 52.05 0 l 10 -10 l -65.75 0 z"></path><path d="M 180.45000000000005 46.26250000000001 l 20 20 l 7.5 -7.5 l -20 -20 l -7.5 7.5 z"></path></g><g><path d="M 281.07500000000005 -23.812500000000004 l -1.25 -1.15 q -5.45 4.65 -10.85 3.05 q -5.65 -1.7 -5.7 -9.35 l 25 0 l 17.5 -17.5 l -1.2 -1.2 l -8.7 8.7 l -37.6 0 l -10 10 q 14.9 23.2 32.8 7.45 z"></path><path d="M 252.0250000000001 -11.262500000000003 l -10 10 l 50 0 l 10 -10 l -50 0 z"></path></g></g></g>
</svg>
