<svg xmlns="http://www.w3.org/2000/svg" viewBox="0 0 339.45 134.975" width="339.45" height="134.975" fill="currentColor" stroke="none">
<g transform="translate(169.725 67.4875)"><g><g><path d="M -162.22500000000002 -42.5125 l -7.5 7.5 57.5 62.5 7.5 -7.5 -57.5 -62.5 z"></path></g><g><path d="M -79.67500000000003 -32.5125 l 34.95 0 l 10 -10 l -50 0 l -10 10 l 25 25 l 0 35 l 10 -10 l 0 -30.05 l -19.95 -19.95 z"></path><g><path d="M -59.72500000000002 35.0875 l 0 -17.6 q -7.3 -5 -10 10 l 0 20 l 17.5 -17.5 l -1.2 -1.2 l -6.3 6.3 z"></path></g><path d="M -54.72500000000002 67.4875 l 10 -10 l -30 0 l -10 10 l 30 0 z"></path></g><g><path d="M 30.274999999999977 -42.487500000000004 l -10 10 l 0 20 l -35 0 l -10 10 l 29.95 29.95 l 7.5 -7.5 l -22.45 -22.45 l 30 0 l 10 -10 l 0 -30 z"></path><path d="M -4.725000000000023 -59.98750000000001 l 7.5 7.5 l 7.5 -7.5 l -7.5 -7.5 l -7.5 7.5 z"></path><path d="M 10.374999999999972 47.46249999999998 l -8.8 8.8 l 1.2 1.2 l 20 -20 l -30 0 l -10 10 l 27.6 0 z"></path></g><g><path d="M 92.77499999999998 27.487499999999997 l 7.5 -7.5 -26.9 -26.9 7.45 -7.55 -28.05 -28.05 -7.5 7.5 26.9 26.9 -7.5 7.5 28.1 28.1 z"></path><path d="M 50.27499999999998 9.987499999999997 l -10 10 l 0 25 l 10 -10 l 0 -25 z"></path><path d="M 57.77499999999998 44.9875 l 7.5 7.5 l 7.5 -7.5 l -7.5 -7.5 l -7.5 7.5 z"></path></g><g><path d="M 169.675 -42.5125 l -50 0 l -9.4 9.4 l 23.2 33.05 l 6.2 -6.25 l 0 33.8 l 10 -10 l 0 -36.15 l -1.1 1.1 q -2.967 2.977 -5.95 5.95 l -1.95 2 l -0.65 0.65 l -16.5 -23.5 l 36.2 0 l 10 -10 z"></path></g></g></g>
</svg>
