<svg xmlns="http://www.w3.org/2000/svg" viewBox="0 0 77.4 172.294907" width="77.4" height="172.294907" fill="currentColor" stroke="none">
<g transform="translate(38.7 86.147453)"><g><g><path d="M -16.300000000000004 -50 l -10 10 l 0 60 l 10 -10 l 0 -50 l 30 0 l 10 -10 l -40 0 z"></path><g><path d="M 18.699999999999996 -40 l 12.5 12.5 l 7.5 -7.5 l -15 -15 q -8.65 2.75 -10 10 l 5 0 z"></path></g><g><path d="M -38.7 30 l 22.4 0 l 10 -10.1 l -19.9 0 l -0.1 0.1 l 0 -0.1 l 0.05 0 l 9.95 -9.9 l 0 -5 q -5 5.774 -10 5 l 0 7.55 l -12.4 12.4 z"></path></g><path d="M 10 50 l 10 -10 l -30 0 l -10 10 l 30 0 z"></path></g></g></g>
</svg>
