<svg xmlns="http://www.w3.org/2000/svg" viewBox="0 0 83.9 172.294907" width="83.9" height="172.294907" fill="currentColor" stroke="none">
<g transform="translate(41.95 86.147453)"><g><g><path d="M -5.6499999999999915 -32.925 l -10 10 l 0 60 l 10 -10 l 0 -50 l 30 0 l 10 -10 l -40 0 z"></path><g><path d="M 19.35000000000001 -22.924999999999997 l 5 0 l 7.6 -7.6 l 0 19.95 l 10 -9.9 l 0 -22.45 l -10 10 l -12.6 0 q 3.5 4 0 10 z"></path></g><g><path d="M -41.94999999999999 37.475 l 1.2 1.2 l 7.5 -7.5 l 11.75 11.75 l 15.85 -15.85 l 0 -5 q -6.25 9 -10 5 l 0 7.6 l -11.8 -11.7 l -14.5 14.5 z"></path></g></g></g></g>
</svg>
