<svg xmlns="http://www.w3.org/2000/svg" viewBox="0 0 175.65 101.8" width="175.65" height="101.8" fill="currentColor" stroke="none">
<g transform="translate(87.825 50.9)"><g><g><path d="M -77.82499999999999 -30.675000000000004 l -10 10 l 0 60 l 10 -10 l 0 -60 z"></path></g><g><path d="M -2.174999999999997 -20.600000000000005 l 10 -10 l -65.75 0 l -9.9 9.95 l 30.45 37.55 l 7.25 -7.3 l 24.15 29.65 l 7.45 -7.4 l -25.2 -31.05 l -7.5 7.45 l -23.1 -28.85 l 52.15 0 z"></path><path d="M -19.999999999999986 -40.6 l 10 -10 l -30 0 l -10 10 l 30 0 z"></path></g><g><path d="M 27.825000000000003 -30.675000000000004 l -10 10 l 0 60 l 10 -10 l 0 -60 z"></path></g><g><path d="M 77.82499999999999 8.949999999999996 l 10 -10 l -29.85 -29.85 l -7.5 7.5 l 22.35 22.35 l -20 0 l -15 15 l 25.6 25.6 l 7.5 -7.5 l -23.1 -23.1 l 30 0 z"></path><g><path d="M 87.125 50.9 q 0.35 -21.9 -9.85 -27.5 l -6.3 6.35 l -2 2 q -8.054 -2.82 -4.35 6.65 l 6.3 -6.35 q 10.8 2.6 16.2 18.85 z"></path></g><path d="M 72.82499999999999 -40.900000000000006 l 10 -10 l -30 0 l -10 10 l 30 0 z"></path></g></g></g>
</svg>
