<svg xmlns="http://www.w3.org/2000/svg" viewBox="0 0 455 125.025" width="455" height="125.025" fill="currentColor" stroke="none">
<g transform="translate(227.5 62.5125)"><g><g><path d="M -220.00000000000003 -42.5125 l -7.5 7.5 57.5 62.5 7.5 -7.5 -57.5 -62.5 z"></path><path d="M -192.50000000000003 47.4875 l 10 -10 l -30 0 l -10 10 l 30 0 z"></path></g><g><path d="M -112.50000000000003 -42.5125 l -10 10 l 0 20 l -20 0 l -10 10 l 0 30 l 30 0 l 10 -10 l -30 0 l 0 -20 l 20 0 l 10 -10 l 0 -30 z"></path><g><path d="M -122.15000000000003 -30.4125 q 0.375 -0.363 1.15 -1.15 q 6.261 -1.099 8.5 3.8 l 0 -14.75 l -10 10 l -10 -10 l -7.15 7.15 l 11.3 11.2 l 5.85 -5.9 q 0.04 -0.029 0.35 -0.35 z"></path></g><g><path d="M -134.90000000000003 37.4875 l 22.4 0 l 9.9 -10 l -19.9 0 l 10 -10 l -12.65 0 q 5.504 3.447 -5.3 10 l 5.5 0 l -9.95 10 z"></path></g></g><g><path d="M -72.60000000000002 -18.6625 l -10 10 l 0 -33.85 l -10 10 l 0 36.2 l 10 -9.95 l 0 33.75 l 10 -10 l 0 -36.15 z"></path><g><path d="M -82.60000000000002 25.0875 l -7.5 7.55 q 16.8 -0.55 27.5 12.45 q -4.6 -18.35 -18.85 -18.8 l 8.85 -8.8 l 0 -5 q -4.75 4.55 -10 1.5 l 0 11.1 z"></path></g></g><g><path d="M -42.70000000000002 -42.5375 l -9.9 9.95 l 47.35 58.35 l 0.05 0 l 1.4 1.75 l 7.5 -7.5 l -42.7 -52.55 l 52.05 0 l 10 -10 l -65.75 0 z"></path><g><path d="M 3.6999999999999886 20.01250000000001 q -6.8 0.5 -7.5 7.5 l 15 15 l 15 -15 l -1.2 -1.2 l -7.5 7.5 l -13.8 -13.8 z"></path></g><path d="M -3.200000000000017 62.5125 l 10 -10 l -30 0 l -10 10 l 30 0 z"></path></g><g><path d="M 42.45000000000002 -32.5125 q 24.3 9.1 15 21.3 l 1.25 1.15 q 15.85 -14.1 3.75 -22.45 l 20 0 l 17.5 -17.5 l -1.2 -1.2 l -8.7 8.7 l -37.6 0 l -10 10 z"></path><path d="M 46.20000000000002 -12.512500000000003 l -10 10 l 50 0 l 10 -10 l -50 0 z"></path></g><g><path d="M 119.95000000000002 -42.5125 l -10 10 l 0 60 l 10 -10 l 0 -60 z"></path><g><path d="M 109.95000000000002 12.487499999999997 l 0 15 l 15 0 l 10 -10 l -15 0 l 0 -10 q -3.874 7.753 -10 5 z"></path></g></g><g><path d="M 187.50000000000003 -42.5125 l -10 10 l 0 60 l 10 -10 l 0 -50 l 30 0 l 10 -10 l -40 0 z"></path><g><path d="M 187.50000000000003 17.487499999999997 l 0 -7.3 q -4.546 5.888 -10 3.05 l 0 11.95 l -15.05 0 l -17.5 17.5 l 1.2 1.2 l 8.7 -8.7 l 15 0 l 17.65 -17.7 z"></path></g><path d="M 196.22500000000005 -52.5125 l 10 -10 l -30 0 l -10 10 l 30 0 z"></path></g></g></g>
</svg>
