<svg xmlns="http://www.w3.org/2000/svg" viewBox="0 0 67.65 172.294907" width="67.65" height="172.294907" fill="currentColor" stroke="none">
<g transform="translate(33.825 86.147453)"><g><g fill="currentColor"><path d="M -26.324999999999996 -58.074999999999996 l -7.5 7.5 l 31.25 31.25 l -31.25 31.25 l 40 0 l 10 -10 l -37.6 0 l 27.5 -27.6 l -32.4 -32.4 z"></path><g><path d="M -25.174999999999997 -56.925 l 15.05 0 l 10 -10 l -17.45 0 l -8.75 8.85 q -1.75 3.2 -4.85 7.2 q 5.7 0.35 6 -6.05 z"></path></g><g><path d="M 21.325000000000003 -5.574999999999996 l -7.5 7.5 l -11.1 0 q 3.05 5.25 -1.5 10 l 5 0 l 8.8 -8.85 q 0.445 14.232 18.8 18.85 q -12.993 -10.704 -12.45 -27.5 z"></path></g><path d="M 10.000000000000007 56.925000000000004 l 0 -25 l -20 20 l 1.2 1.2 l 8.8 -8.8 l 0 22.6 l 10 -10 z"></path></g></g></g>
</svg>
