<svg xmlns="http://www.w3.org/2000/svg" viewBox="0 0 85 172.294907" width="85" height="172.294907" fill="currentColor" stroke="none">
<g transform="translate(42.5 86.147453)"><g><g fill="currentColor"><path d="M -27.450000000000003 -35 l 34.95 0 l 10 -10 l -50 0 l -10 10 l 25 25 l 0 35 l 10 -10 l 0 -30.05 l -19.95 -19.95 z"></path><path d="M 2.5 -45 l 15 0 l 0 15 l -10 10 l 0 -15 l -10 0 q 7.753 -3.874 5 -10 z"></path><path d="M -7.850000000000001 12.899999999999999 q -0.375 0.363 -1.15 1.15 q -6.261 1.099 -8.5 -3.8 l 0 14.75 l 10 -10 l 10 10 l 7.15 -7.15 l -11.3 -11.2 l -5.85 5.9 q -0.04 0.029 -0.35 0.35 z"></path><path d="M -2.5 45 l 10 -10 l -30 0 l -10 10 l 30 0 z"></path><path d="M 27.5 -10 l 7.5 7.5 l 7.5 -7.5 l -7.5 -7.5 l -7.5 7.5 z"></path></g></g></g>
</svg>
