<svg xmlns="http://www.w3.org/2000/svg" viewBox="0 0 60.959368 172.294907" width="60.959368" height="172.294907" fill="currentColor" stroke="none">
<g transform="translate(30.498047 86.147453)"><g><g><path d="M -15.448046875000003 -25 l 34.95 0 l 10 -10 l -50 0 l -10 10 l 25 25 l 0 35 l 10 -10 l 0 -30.05 l -19.95 -19.95 z"></path><g><path d="M 13.851953124999994 -35 l 15.65 0 l -10 10 q 17.75 9.4 6.85 21.2 q 2.15 -12.25 -15.5 -14.85 l 6.3 -6.35 l -8.1 0 q 9.5 -4.8 4.8 -10 z"></path></g><g><path d="M 4.501953125 13.8 q -5 12.14 -10 11.2 l 0 10 l 17.5 -17.5 l -1.2 -1.2 l -6.3 6.3 l 0 -8.8 z"></path></g></g></g></g>
</svg>
