<svg xmlns="http://www.w3.org/2000/svg" viewBox="0 0 534.896094 149.925" width="534.896094" height="149.925" fill="currentColor" stroke="none">
<g transform="translate(267.448047 74.9625)"><g><g><path d="M -211.14804687500003 20.037499999999994 l 7.5 -7.5 -26.9 -26.9 7.45 -7.55 -28.05 -28.05 -7.5 7.5 26.9 26.9 -7.5 7.5 28.1 28.1 z"></path><path d="M -257.44804687500005 -41.2625 q 4.2 0.65 6.3 -2.7 q 0.8 -1 0 -6 l -6.3 6.3 l 0 -19.95 l -10 10.1 l 0 22.35 l 10 -10.1 z"></path><path d="M -213.74804687500006 10.037499999999994 q -1.655 2.716 2.6 10 l 15 0 l 10 -10 l -20 0 q -7.015 -2.931 -7.6 0 z"></path><path d="M -203.54804687500004 -39.962500000000006 l -8.8 8.8 l 1.2 1.2 l 20 -20 l -30 0 l -10 10 l 27.6 0 z"></path><path d="M -238.64804687500003 -67.4625 l 7.5 7.5 l 7.5 -7.5 l -7.5 -7.5 l -7.5 7.5 z"></path></g><g><path d="M -121.14804687500003 -49.93750000000001 l -10 10 l 0 20 l -35 0 l -10 10 l 29.95 29.95 l 7.5 -7.5 l -22.45 -22.45 l 30 0 l 10 -10 l 0 -30 z"></path><g><path d="M -148.79804687500007 10.012499999999974 q -1.65 2.7 2.6 10 l 12.6 0 l -7.5 7.5 l 1.2 1.2 l 18.7 -18.7 l -20 0 q -7 -2.95 -7.6 0 z"></path></g><path d="M -156.14804687500003 -67.43750000000001 l 7.5 7.5 l 7.5 -7.5 l -7.5 -7.5 l -7.5 7.5 z"></path></g><g><path d="M -83.44804687500005 19.96249999999999 l 10 -10 l 0 -40 l -9.55 9.55 l -20.65 -29.4 l -7.5 7.5 l 21.6 30.85 l 6.1 -6.1 l 0 37.6 z"></path><g><path d="M -83.44804687500005 19.96249999999999 l 0 -0.1 l 0.05 0 l 9.95 -9.9 l 0 -5 q -5 5.75 -10 5 l 0 7.55 l -12.4 12.45 l 22.4 0 l 17.5 -17.5 l -1.2 -1.2 l -8.6 8.6 l -17.6 0 l -0.1 0.1 z"></path></g><path d="M -73.54804687500001 64.96249999999999 l 0 -25 l -20 20 l 1.2 1.2 l 8.8 -8.8 l 0 22.6 l 10 -10 z"></path></g><g><path d="M -45.948046875000045 20.012499999999996 l 10 -10 l 0 -20 l 35 0 l 10 -10 l -29.95 -29.95 l -7.5 7.5 l 22.45 22.45 l -30 0 l -10 10 l 0 30 z"></path><path d="M -25.948046875000045 37.5125 l 7.5 7.5 l 7.5 -7.5 l -7.5 -7.5 l -7.5 7.5 z"></path></g><g><path d="M 26.551953124999955 -49.962500000000006 l -7.5 7.5 57.5 62.5 7.5 -7.5 -57.5 -62.5 z"></path><path d="M 54.051953124999955 40.037499999999994 l 10 -10 l -30 0 l -10 10 l 30 0 z"></path></g><g><path d="M 109.10195312499997 -39.962500000000006 l 34.95 0 l 10 -10 l -50 0 l -10 10 l 25 25 l 0 35 l 10 -10 l 0 -30.05 l -19.95 -19.95 z"></path><g><path d="M 138.40195312499998 -49.962500000000006 l 15.65 0 l -10 10 q 17.75 9.4 6.85 21.2 q 2.15 -12.25 -15.5 -14.85 l 6.3 -6.35 l -8.1 0 q 9.5 -4.8 4.8 -10 z"></path></g><g><path d="M 129.05195312499995 -1.162500000000005 q -5 12.14 -10 11.2 l 0 10 l 17.5 -17.5 l -1.2 -1.2 l -6.3 6.3 l 0 -8.8 z"></path></g></g><g><path d="M 187.44804687499987 -26.112500000000004 l -10 10 l 0 -33.85 l -10 10 l 0 36.2 l 10 -9.95 l 0 33.75 l 10 -10 l 0 -36.15 z"></path><g><path d="M 177.44804687499987 20.037499999999994 l 0 -0.1 l 0.05 0 l 9.95 -9.9 l 0 -5 q -5 5.75 -10 5 l 0 7.55 l -12.4 12.45 l 19.9 0 l -7.4 7.4 l 1.2 1.2 l 8.6 -8.6 l 0.1 0 l 10 -10.1 l -19.9 0 l -0.1 0.1 z"></path></g></g><g><path d="M 227.44804687499993 -39.962500000000006 q -0.1 -10.25 13.15 -13.1 l -1.2 -1.1 q -22.3 -0.55 -21.95 24.2 l 37.6 0 l -7.5 7.5 l 1.2 1.2 l 18.7 -18.7 l -40 0 z"></path><path d="M 217.44804687499993 -19.962500000000006 l -10 10 l 50 0 l 10 -10 l -50 0 z"></path></g></g></g>
</svg>
