<svg xmlns="http://www.w3.org/2000/svg" viewBox="0 0 330.65 132.5" width="330.65" height="132.5" fill="currentColor" stroke="none">
<g transform="translate(165.325 66.25)"><g><g><path d="M -150.325 -28.75 l -7.5 7.5 57.5 62.5 7.5 -7.5 -57.5 -62.5 z"></path><path d="M -102.92499999999998 31.25 q -1.655 2.716 2.6 10 l 15 0 l 10 -10 l -20 0 q -7.015 -2.931 -7.6 0 z"></path><path d="M -135.325 41.25 l 10 -10 l -30 0 l -10 10 l 30 0 z"></path><path d="M -97.725 -18.75 l -8.8 8.8 l 1.2 1.2 l 20 -20 l -30 0 l -10 10 l 27.6 0 z"></path><path d="M -139.075 -58.75 l 20 20 l 7.5 -7.5 l -20 -20 l -7.5 7.5 z"></path></g><g><path d="M -55.32499999999999 -28.75 l -10 10 l 0 36.3 l 10 -10.05 l 0 33.75 l 10 -10 l 0 -36.15 l -10 10 l 0 -23.85 l 30 0 l 10 -10 l -40 0 z"></path><g><path d="M -45.32499999999999 48.85 l 0 -17.6 q -7.3 -5 -10 10 l 0 20 l 17.5 -17.5 l -1.2 -1.2 l -6.3 6.3 z"></path></g></g><g><path d="M 29.67500000000001 41.25 l 10 -10 l 0 -35 l -19.95 0 l 24.95 -25 l -40 0 l -10 10 l 37.6 0 l -24.85 25 l 22.25 0 l 0 35 z"></path><path d="M 12.175000000000011 58.75 l 7.5 7.5 l 7.5 -7.5 l -7.5 -7.5 l -7.5 7.5 z"></path></g><g><path d="M 64.67500000000001 -28.75 l -10 10 l 0 60 l 10 -10 l 0 -60 z"></path><g><path d="M 54.67500000000001 26.25 l 0 15 l 15 0 l 10 -10 l -15 0 l 0 -10 q -3.874 7.753 -10 5 z"></path></g></g><g><path d="M 99.57499999999999 -28.775 l -9.9 9.95 l 47.35 58.35 l 0.05 0 l 1.4 1.75 l 7.5 -7.5 l -42.7 -52.55 l 52.05 0 l 10 -10 l -65.75 0 z"></path><path d="M 137.5 -38.775 l 10 -10 l -30 0 l -10 10 l 30 0 z"></path></g></g></g>
</svg>
