<svg xmlns="http://www.w3.org/2000/svg" viewBox="0 0 78.1 172.294907" width="78.1" height="172.294907" fill="currentColor" stroke="none">
<g transform="translate(39.05 86.147453)"><g><g><path d="M -11.899999999999999 -25.6 l -10 10 l 0 35 l 19.95 0 l -24.95 25 l 40 0 l 10 -10 l -37.6 0 l 24.85 -25 l -22.25 0 l 0 -35 z"></path><g><path d="M -21.549999999999997 -13.5 q 0.375 -0.363 1.15 -1.15 q 6.261 -1.099 8.5 3.8 l 0 -14.75 l -10 10 l -10 -10 l -7.15 7.15 l 11.3 11.2 l 5.85 -5.9 q 0.04 -0.029 0.35 -0.35 z"></path></g><g><path d="M 8.549999999999997 44.4 l 4.55 0 l 8.8 -8.8 l 10 10 l 7.15 -7.15 l -11.3 -11.2 l -7.05 7.15 l -6.3 0 q 3.7 5 -5.85 10 z"></path></g><path d="M 10 -35.6 l 10 -10 l -30 0 l -10 10 l 30 0 z"></path></g></g></g>
</svg>
