<svg xmlns="http://www.w3.org/2000/svg" viewBox="0 0 87.85 172.294907" width="87.85" height="172.294907" fill="currentColor" stroke="none">
<g transform="translate(43.925 86.147453)"><g><g><path d="M -23.624999999999993 -20.15 l -7.5 7.5 l 31.25 31.25 l -31.25 31.25 l 40 0 l 10 -10 l -37.6 0 l 27.5 -27.6 l -32.4 -32.4 z"></path><g><path d="M -22.724999999999994 -18.549999999999997 l 11.2 -11.3 l -22.4 0 l -10 10.1 l 19.9 0 l -7.1 7.1 q 10.446 1.157 8.4 -5.9 z"></path></g><g><path d="M 18.875000000000007 39.85 l 15.05 0 l 10 -10 l -17.45 0 l -9.95 10 l -7.6 0 q 4.95 4.2 -6.25 10 l 6.25 0 l 9.95 -10 z"></path></g><path d="M 10.000000000000007 -39.85 l 10 -10 l -30 0 l -10 10 l 30 0 z"></path></g></g></g>
</svg>
