<svg xmlns="http://www.w3.org/2000/svg" viewBox="0 0 62.8 172.294907" width="62.8" height="172.294907" fill="currentColor" stroke="none">
<g transform="translate(31.4 86.147453)"><g><g fill="currentColor"><path d="M -11.099999999999998 -47.65 l -7.5 7.5 l 31.25 31.25 l -31.25 31.25 l 40 0 l 10 -10 l -37.6 0 l 27.5 -27.6 l -32.4 -32.4 z"></path><g><path d="M -10.2 -46.05 l 11.2 -11.3 l -22.4 0 l -10 10.1 l 19.9 0 l -7.1 7.1 q 10.446 1.157 8.4 -5.9 z"></path></g><g><path d="M 16.400000000000002 12.350000000000001 l 15 0 l 0 15 l -10 10 l 0 -15 l -10 0 q 7.753 -3.874 5 -10 z"></path></g><path d="M 10.000000000000004 57.35 l 10 -10 l -30 0 l -10 10 l 30 0 z"></path></g></g></g>
</svg>
