<svg xmlns="http://www.w3.org/2000/svg" viewBox="0 0 165.35 121.4" width="165.35" height="121.4" fill="currentColor" stroke="none">
<g transform="translate(82.675 60.7)"><g><g fill="currentColor"><path d="M -62.374999999999986 -44.300000000000004 l -7.5 7.5 l 31.25 31.25 l -31.25 31.25 l 40 0 l 10 -10 l -37.6 0 l 27.5 -27.6 l -32.4 -32.4 z"></path><g><path d="M -61.47499999999999 -42.7 l 11.2 -11.3 l -22.4 0 l -10 10.1 l 19.9 0 l -7.1 7.1 q 10.446 1.157 8.4 -5.9 z"></path></g><g><path d="M -34.874999999999986 15.699999999999996 l 15 0 l 0 15 l -10 10 l 0 -15 l -10 0 q 7.753 -3.874 5 -10 z"></path></g><path d="M -41.274999999999984 60.699999999999996 l 10 -10 l -30 0 l -10 10 l 30 0 z"></path></g><g fill="currentColor"><path d="M 20.125000000000014 -20.450000000000003 l -10 10 l 0 -33.85 l -10 10 l 0 36.2 l 10 -9.95 l 0 33.75 l 10 -10 l 0 -36.15 z"></path><g><path d="M 6.425000000000011 -60.7 l -16.3 16.3 l 0 22.45 l 10 -10 l 0 5.15 q 5 -6.1 10 -2.5 l 0 -15 l -10 10 l 0 -17.7 l 7.5 -7.5 l -1.2 -1.2 z"></path></g><g><path d="M -2.2749999999999773 35.699999999999996 l 22.4 0 l 10 -10.1 l -19.9 0 l -0.1 0.1 l 0 -0.1 l 0.05 0 l 9.95 -9.9 l 0 -5 q -5 5.774 -10 5 l 0 7.55 l -12.4 12.4 z"></path></g></g><g fill="currentColor"><path d="M 82.67500000000001 -20.450000000000003 l -10 10 l 0 -33.85 l -10 10 l 0 36.2 l 10 -9.95 l 0 33.75 l 10 -10 l 0 -36.15 z"></path><g><path d="M 82.67500000000001 15.699999999999996 l 0 -7.3 q -4.546 5.888 -10 3.05 l 0 11.95 l -15.05 0 l -17.5 17.5 l 1.2 1.2 l 8.7 -8.7 l 15 0 l 17.65 -17.7 z"></path></g></g></g></g>
</svg>
