<svg xmlns="http://www.w3.org/2000/svg" viewBox="0 0 108.8 105.05" width="108.8" height="105.05" fill="currentColor" stroke="none">
<g transform="translate(54.4 52.525)"><g><g><path d="M -44.400000000000006 -32.50000000000001 l -10 10 l 0 60 l 10 -10 l 0 -60 z"></path><g><path d="M -54.400000000000006 22.499999999999993 l 0 15 l 10 -10 l 0 20 l 10 -9.9 l 0 -22.4 l -10 9.95 l 0 -5.15 q -5 6.1 -10 2.5 z"></path></g></g><g><path d="M -14.5 -32.525000000000006 l -9.9 9.95 l 47.35 58.35 l 0.05 0 l 1.4 1.75 l 7.5 -7.5 l -42.7 -52.55 l 52.05 0 l 10 -10 l -65.75 0 z"></path><g><path d="M 31.900000000000006 30.025000000000006 q -6.8 0.5 -7.5 7.5 l 15 15 l 15 -15 l -1.2 -1.2 l -7.5 7.5 l -13.8 -13.8 z"></path></g><path d="M 25 -42.525000000000006 l 10 -10 l -30 0 l -10 10 l 30 0 z"></path></g></g></g>
</svg>
