<svg xmlns="http://www.w3.org/2000/svg" viewBox="0 0 272.9 124.7" width="272.9" height="124.7" fill="currentColor" stroke="none">
<g transform="translate(136.45 62.35)"><g><g><path d="M -108.44999999999999 10.450000000000001 l 7.45 -7.5 27.05 34.4 7.5 -7.5 -27.8 -36 -7.75 7.8 -26.95 -34.3 -7.5 7.5 28 35.6 z"></path><path d="M -76.54999999999998 27.35 q -1.655 2.716 2.6 10 l 15 0 l 10 -10 l -20 0 q -7.015 -2.931 -7.6 0 z"></path><path d="M -123.94999999999999 19.85 l -10 10 l 0 25 l 10 -10 l 0 -25 z"></path><path d="M -116.44999999999999 54.85 l 7.5 7.5 l 7.5 -7.5 l -7.5 -7.5 l -7.5 7.5 z"></path></g><g><path d="M 16.05000000000001 -32.625 l -10 10 l 0 20 l -35 0 l -10 10 l 29.95 29.95 l 7.5 -7.5 l -22.45 -22.45 l 30 0 l 10 -10 l 0 -30 z"></path><g><path d="M -2.6999999999999886 28.624999999999982 q -6.486 -1.216 -4.75 5 q 2.924 -3.894 5.95 -3.8 l 8.8 -8.8 l 0 -15 l -10 10 l 0 12.6 z"></path></g></g><g><path d="M 46.05000000000001 -32.65 l -10 10 l 0 60 l 10 -10 l 0 -60 z"></path><g><path d="M 46.05000000000001 -17.65 l 0 -15 l -10 10 l 0 -20 l -10 9.9 l 0 22.4 l 10 -9.95 l 0 5.15 q 5 -6.1 10 -2.5 z"></path></g><g><path d="M 36.05000000000001 22.35 l 0 15 l 10 -10 l 0 20 l 10 -9.9 l 0 -22.4 l -10 9.95 l 0 -5.15 q -5 6.1 -10 2.5 z"></path></g></g><g><path d="M 86.35000000000002 -32.65 l -7.5 7.5 l 31.25 31.25 l -31.25 31.25 l 40 0 l 10 -10 l -37.6 0 l 27.5 -27.6 l -32.4 -32.4 z"></path><g><path d="M 87.25000000000003 -31.049999999999997 l 11.2 -11.3 l -22.4 0 l -10 10.1 l 19.9 0 l -7.1 7.1 q 10.446 1.157 8.4 -5.9 z"></path></g><g><path d="M 121.19999999999999 27.35 q 0.465 4.718 -7.9 10 l 5.55 0 l 17.6 -17.6 l 0 -15 l -10 10 l 0 12.6 l -5.25 0 z"></path></g><path d="M 111.25000000000003 -52.35 l 10 -10 l -30 0 l -10 10 l 30 0 z"></path></g></g></g>
</svg>
