<svg xmlns="http://www.w3.org/2000/svg" viewBox="0 0 265.95 110" width="265.95" height="110" fill="currentColor" stroke="none">
<g transform="translate(132.975 55)"><g><g><path d="M -80.475 5 l 7.5 -7.5 -32.5 -32.5 -7.5 7.5 32.5 32.5 m -17.5 -10 l -7.5 7.5 32.5 32.5 7.5 -7.5 -32.5 -32.5 z"></path><path d="M -75.57499999999999 25 q -1.655 2.716 2.6 10 l 15 0 l 10 -10 l -20 0 q -7.015 -2.931 -7.6 0 z"></path><path d="M -102.975 35 l 10 -10 l -30 0 l -10 10 l 30 0 z"></path><path d="M -79.225 -45 l 10 -10 l -30 0 l -10 10 l 30 0 z"></path></g><g><path d="M -27.974999999999994 -35 l -10 10 l 0 60 l 10 -10 l 0 -50 l 30 0 l 10 -10 l -40 0 z"></path><g><path d="M -2.5250000000000057 -25 l 4.55 0 l 8.8 -8.8 l 10 10 l 7.15 -7.15 l -11.3 -11.2 l -7.05 7.15 l -6.3 0 q 3.7 5 -5.85 10 z"></path></g><g><path d="M -27.974999999999994 42.6 l 0 -17.6 q -7.3 -5 -10 10 l 0 20 l 17.5 -17.5 l -1.2 -1.2 l -6.3 6.3 z"></path></g></g><g><path d="M 47.974999999999994 -35 l -10 10 l 0 60 l 10 -10 l 0 -60 z"></path><g><path d="M 37.974999999999994 20 l 0 15 l 15 0 l 10 -10 l -15 0 l 0 -10 q -3.874 7.753 -10 5 z"></path></g></g><g><path d="M 88.025 -25 l 34.95 0 l 10 -10 l -50 0 l -10 10 l 25 25 l 0 35 l 10 -10 l 0 -30.05 l -19.95 -19.95 z"></path><g><path d="M 97.975 55 l 10 -10 l 0 -20 q -7.3 -5 -10 10 l 0 20 z"></path></g><path d="M 112.975 -45 l 10 -10 l -30 0 l -10 10 l 30 0 z"></path></g></g></g>
</svg>
