<svg xmlns="http://www.w3.org/2000/svg" viewBox="0 0 263.8 112.225" width="263.8" height="112.225" fill="currentColor" stroke="none">
<g transform="translate(131.9 56.1125)"><g><g><path d="M -120.09999999999998 -30.2875 l -10 10 l 0 60 l 10 -10 l 0 -60 z"></path><g><path d="M -131.89999999999998 -42.0875 l 11.8 11.8 l -10 10 l 0 5 q 5.188 -7.964 10 -5 l 0 -7.7 l 8.2 -8.2 l -13 -12.9 l -7 7 z"></path></g><g><path d="M -130.09999999999997 24.7125 l 0 15 l 10 -10 l 0 20 l 10 -9.9 l 0 -22.4 l -10 9.95 l 0 -5.15 q -5 6.1 -10 2.5 z"></path></g></g><g><path d="M -45.09999999999998 -30.262500000000003 l -10 10 l 0 20 l -35 0 l -10 10 l 29.95 29.95 l 7.5 -7.5 l -22.45 -22.45 l 30 0 l 10 -10 l 0 -30 z"></path><g><path d="M -55.09999999999998 -20.26250000000001 l 0 5 q 6.25 -9 10 -5 l 0 -7.6 l 11.8 11.7 l 7 -7 l -12.95 -12.95 l -15.85 15.85 z"></path></g><g><path d="M -63.84999999999998 30.98749999999998 q -6.486 -1.216 -4.75 5 q 2.924 -3.894 5.95 -3.8 l 8.8 -8.8 l 0 -15 l -10 10 l 0 12.6 z"></path></g><path d="M -53.199999999999974 -46.11250000000001 l 10 -10 l -30 0 l -10 10 l 30 0 z"></path></g><g><path d="M 26.25000000000003 -6.437500000000002 l -10 10 l 0 -33.85 l -10 10 l 0 36.2 l 10 -9.95 l 0 33.75 l 10 -10 l 0 -36.15 z"></path><g><path d="M 26.25000000000003 29.7125 l 0 -7.3 q -4.546 5.888 -10 3.05 l 0 11.95 l -15.05 0 l -17.5 17.5 l 1.2 1.2 l 8.7 -8.7 l 15 0 l 17.65 -17.7 z"></path></g></g><g><path d="M 46.25000000000003 -30.2875 l -10 10 l 0 60 l 10 -10 l 0 -60 z"></path></g><g><path d="M 121.9 -20.212500000000002 l 10 -10 l -65.75 0 l -9.9 9.95 l 30.45 37.55 l 7.25 -7.3 l 24.15 29.65 l 7.45 -7.4 l -25.2 -31.05 l -7.5 7.45 l -23.1 -28.85 l 52.15 0 z"></path><path d="M 104.07500000000002 -40.2125 l 10 -10 l -30 0 l -10 10 l 30 0 z"></path></g></g></g>
</svg>
