<svg xmlns="http://www.w3.org/2000/svg" viewBox="0 0 105.65 108.725" width="105.65" height="108.725" fill="currentColor" stroke="none">
<g transform="translate(52.825 54.3625)"><g><g><path d="M -34.625 -34.43750000000001 l -10 10 l 0 60 l 10 -10 l 0 -60 z"></path><g><path d="M -32.825 47.36249999999999 l -11.8 -11.8 l 10 -10 l 0 -5 q -5.188 7.964 -10 5 l 0 7.7 l -8.2 8.2 l 13 12.9 l 7 -7 z"></path></g></g><g><path d="M 42.825 -24.362500000000008 l 10 -10 l -65.75 0 l -9.9 9.95 l 30.45 37.55 l 7.25 -7.3 l 24.15 29.65 l 7.45 -7.4 l -25.2 -31.05 l -7.5 7.45 l -23.1 -28.85 l 52.15 0 z"></path><path d="M 25 -44.362500000000004 l 10 -10 l -30 0 l -10 10 l 30 0 z"></path></g></g></g>
</svg>
