<svg xmlns="http://www.w3.org/2000/svg" viewBox="0 0 78.8 172.294907" width="78.8" height="172.294907" fill="currentColor" stroke="none">
<g transform="translate(39.4 86.147453)"><g><g><path d="M -2.6000000000000014 20.6 l 7.45 -7.5 27.05 34.4 7.5 -7.5 -27.8 -36 -7.75 7.8 -26.95 -34.3 -7.5 7.5 28 35.6 z"></path><path d="M -29.4 -13.8 q 4.2 0.65 6.3 -2.7 q 0.8 -1 0 -6 l -6.3 6.3 l 0 -19.95 l -10 10.1 l 0 22.35 l 10 -10.1 z"></path><path d="M 36.9 -15 l 0 -25 l -20 20 l 1.2 1.2 l 8.8 -8.8 l 0 22.6 l 10 -10 z"></path><path d="M -3.1000000000000014 -40 l 7.5 7.5 l 7.5 -7.5 l -7.5 -7.5 l -7.5 7.5 z"></path></g></g></g>
</svg>
