<svg xmlns="http://www.w3.org/2000/svg" viewBox="0 0 87.85 172.294907" width="87.85" height="172.294907" fill="currentColor" stroke="none">
<g transform="translate(43.925 86.147453)"><g><g><path d="M -23.625000000000007 -30.15 l -7.5 7.5 l 31.25 31.25 l -31.25 31.25 l 40 0 l 10 -10 l -37.6 0 l 27.5 -27.6 l -32.4 -32.4 z"></path><g><path d="M -22.72500000000001 -28.549999999999997 l 11.2 -11.3 l -22.4 0 l -10 10.1 l 19.9 0 l -7.1 7.1 q 10.446 1.157 8.4 -5.9 z"></path></g><g><path d="M 18.874999999999993 29.85 l 12.65 0 l -7.5 7.5 l 1.2 1.2 l 18.7 -18.7 l -17.45 0 l -9.95 10 l -7.6 0 q 4.95 4.2 -6.25 10 l 6.25 0 l 9.95 -10 z"></path></g></g></g></g>
</svg>
