<svg xmlns="http://www.w3.org/2000/svg" viewBox="0 0 318.7 121.325" width="318.7" height="121.325" fill="currentColor" stroke="none">
<g transform="translate(159.35 60.6625)"><g><g><path d="M -126.85 -0.6624999999999872 l 7.5 -7.5 -32.5 -32.5 -7.5 7.5 32.5 32.5 m -17.5 -10 l -7.5 7.5 32.5 32.5 7.5 -7.5 -32.5 -32.5 z"></path><path d="M -121.94999999999999 19.337500000000013 q -1.65 2.7 2.6 10 l 12.6 0 l -7.5 7.5 l 1.2 1.2 l 18.7 -18.7 l -20 0 q -7 -2.95 -7.6 0 z"></path><path d="M -125.6 -50.66249999999999 l 10 -10 l -30 0 l -10 10 l 30 0 z"></path></g><g><path d="M -29.349999999999994 -40.63749999999999 l -10 10 l 0 20 l -35 0 l -10 10 l 29.95 29.95 l 7.5 -7.5 l -22.45 -22.45 l 30 0 l 10 -10 l 0 -30 z"></path><g><path d="M -29.349999999999994 -40.637499999999996 l 0 0.1 l -0.05 0 l -9.95 9.9 l 0 5 q 5 -5.75 10 -5 l 0 -7.55 l 12.4 -12.45 l -22.4 0 l -17.5 17.5 l 1.2 1.2 l 8.6 -8.6 l 17.6 0 l 0.1 -0.1 z"></path></g><g><path d="M -71.89999999999999 59.462499999999984 l 1.2 1.2 l 16.3 -16.3 l 0 -15.05 l 7.5 -7.5 q -11.45 -4.9 -8.7 6.3 l -8.8 8.9 l 0 14.95 l -7.5 7.5 z"></path></g></g><g><path d="M 40.55000000000001 29.337500000000013 l 7.5 -7.5 -26.9 -26.9 7.45 -7.55 -28.05 -28.05 -7.5 7.5 26.9 26.9 -7.5 7.5 28.1 28.1 z"></path><path d="M 23.05000000000001 49.33750000000001 l 10 -10 l -30 0 l -10 10 l 30 0 z"></path></g><g><path d="M 113.04999999999998 -40.63749999999999 l -10 10 l 0 20 l -35 0 l -10 10 l 29.95 29.95 l 7.5 -7.5 l -22.45 -22.45 l 30 0 l 10 -10 l 0 -30 z"></path><g><path d="M 113.04999999999998 -24.987499999999997 l 0 -15.65 l -10 10 q -9.4 -17.75 -21.2 -6.85 q 12.25 -2.15 14.85 15.5 l 6.35 -6.3 l 0 8.1 q 4.8 -9.5 10 -4.8 z"></path></g><g><path d="M 87.10000000000002 27.71249999999999 l -11.2 11.3 l 22.4 0 l 10 -10.1 l -19.9 0 l 7.1 -7.1 q -10.446 -1.157 -8.4 5.9 z"></path></g></g><g><path d="M 159.35 -16.812499999999986 l -10 10 l 0 -33.85 l -10 10 l 0 36.2 l 10 -9.95 l 0 33.75 l 10 -10 l 0 -36.15 z"></path><g><path d="M 123.04999999999998 29.73750000000001 l 1.2 1.2 l 7.5 -7.5 l 11.75 11.75 l 15.85 -15.85 l 0 -5 q -6.25 9 -10 5 l 0 7.6 l -11.8 -11.7 l -14.5 14.5 z"></path></g></g></g></g>
</svg>
