<svg xmlns="http://www.w3.org/2000/svg" viewBox="0 0 459.2 168.45" width="459.2" height="168.45" fill="currentColor" stroke="none">
<g transform="translate(229.6 84.225)"><g><g><path d="M -213.3 -37.92499999999998 l -7.5 7.5 57.5 62.5 7.5 -7.5 -57.5 -62.5 z"></path><path d="M -219.6 -29.224999999999984 q 4.2 0.65 6.3 -2.7 q 0.8 -1 0 -6 l -6.3 6.3 l 0 -19.95 l -10 10.1 l 0 22.35 l 10 -10.1 z"></path><path d="M -165.9 22.075000000000017 q -1.65 2.7 2.6 10 l 12.6 0 l -7.5 7.5 l 1.2 1.2 l 18.7 -18.7 l -20 0 q -7 -2.95 -7.6 0 z"></path><path d="M -160.7 -27.924999999999983 l -8.8 8.8 l 1.2 1.2 l 20 -20 l -30 0 l -10 10 l 27.6 0 z"></path><path d="M -203.3 49.57500000000002 l 7.5 7.5 l 7.5 -7.5 l -7.5 -7.5 l -7.5 7.5 z"></path></g><g><path d="M -68.9 -37.92499999999998 l -50 0 l -9.4 9.4 l 23.2 33.05 l 6.2 -6.25 l 0 33.8 l 10 -10 l 0 -36.15 l -1.1 1.1 q -2.967 2.977 -5.95 5.95 l -1.95 2 l -0.65 0.65 l -16.5 -23.5 l 36.2 0 l 10 -10 z"></path><g><path d="M -95.20000000000002 48.475000000000016 l 16.3 -16.3 l 0 -22.45 l -10 10 l 0 -5.15 q -5 6.1 -10 2.5 l 0 15 l 10 -10 l 0 17.7 l -7.5 7.5 l 1.2 1.2 z"></path></g></g><g><path d="M -33.849999999999994 -37.92499999999998 l -7.5 7.5 57.5 62.5 7.5 -7.5 -57.5 -62.5 z"></path><path d="M -31.25000000000003 -27.924999999999983 q 1.655 -2.716 -2.6 -10 l -15 0 l -10 10 l 20 0 q 7.015 2.931 7.6 0 z"></path><path d="M 13.549999999999983 22.075000000000017 q -1.655 2.716 2.6 10 l 15 0 l 10 -10 l -20 0 q -7.015 -2.931 -7.6 0 z"></path><path d="M -31.349999999999994 14.575000000000017 l -10 10 l 0 25 l 10 -10 l 0 -25 z"></path></g><g><path d="M 106.15 -37.899999999999984 l -10 10 l 0 20 l -35 0 l -10 10 l 29.95 29.95 l 7.5 -7.5 l -22.45 -22.45 l 30 0 l 10 -10 l 0 -30 z"></path><path d="M 88.65 -47.89999999999999 l 10 -10 l -30 0 l -10 10 l 30 0 z"></path><path d="M 88.65 52.05 l 10 -10 l -30 0 l -10 10 l 30 0 z"></path></g><g><path d="M 172.1 32.07500000000002 l 10 -10 l 0 -50 l 10 -10 l -45 0 l -10 10 l 42.6 0 l -7.6 7.6 l 0 42.4 l -30 0 l -10 10 l 40 0 z"></path><g><path d="M 137.1 -27.924999999999983 l 15 0 q -2.75 -6.15 5 -10 l -10 0 l 0 -12.6 l 7.5 -7.5 l -1.2 -1.2 l -16.3 16.3 l 0 15 z"></path></g><g><path d="M 146.65 22.075000000000017 l -4.55 0 l -8.8 8.8 l -10 -10 l -7.15 7.15 l 11.3 11.2 l 7.05 -7.15 l 6.3 0 q -3.7 -5 5.85 -10 z"></path></g><path d="M 146.62499999999997 -76.725 l 7.5 7.5 l 7.5 -7.5 l -7.5 -7.5 l -7.5 7.5 z"></path><path d="M 144.12499999999997 59.224999999999994 l 0 25 l 20 -20 l -1.2 -1.2 l -8.8 8.8 l 0 -22.6 l -10 10 z"></path></g><g><path d="M 222.1 -14.074999999999983 l -10 10 l 0 -33.85 l -10 10 l 0 36.2 l 10 -9.95 l 0 33.75 l 10 -10 l 0 -36.15 z"></path><g><path d="M 222.1 39.67500000000002 l 0 -17.6 q -7.3 -5 -10 10 l 0 20 l 17.5 -17.5 l -1.2 -1.2 l -6.3 6.3 z"></path></g></g></g></g>
</svg>
