<svg xmlns="http://www.w3.org/2000/svg" viewBox="0 0 68.95 172.294907" width="68.95" height="172.294907" fill="currentColor" stroke="none">
<g transform="translate(34.475 86.145185)"><g><g><path d="M -15.625 -30.350510204081637 l -7.5 7.5 l 31.25 31.25 l -31.25 31.25 l 40 0 l 10 -10 l -37.6 0 l 27.5 -27.6 l -32.4 -32.4 z"></path><g><path d="M -14.475000000000001 -29.150510204081634 l 7.5 -7.55 q -17.7 -8.5 -27.5 7.5 q 11.7 -7.3 18.85 -1.15 l -3.7 3.65 q 1.81 1.308 4.55 2.1 q 1.8 0.5 0.3 -4.55 z"></path></g><g><path d="M 19.225 29.649489795918363 q 0.465 4.718 -7.9 10 l 5.55 0 l 17.6 -17.6 l 0 -15 l -10 10 l 0 12.6 l -5.25 0 z"></path></g></g></g></g>
</svg>
