<svg xmlns="http://www.w3.org/2000/svg" viewBox="0 0 265.6 124.95" width="265.6" height="124.95" fill="currentColor" stroke="none">
<g transform="translate(132.8 62.475)"><g><g><path d="M -125.30000000000001 -37.499999999999986 l -7.5 7.5 57.5 62.5 7.5 -7.5 -57.5 -62.5 z"></path><path d="M -97.80000000000001 52.500000000000014 l 10 -10 l -30 0 l -10 10 l 30 0 z"></path></g><g><path d="M -17.80000000000001 2.125000000000014 l 10 -10 l -29.85 -29.85 l -7.5 7.5 l 22.35 22.35 l -20 0 l -15 15 l 25.6 25.6 l 7.5 -7.5 l -23.1 -23.1 l 30 0 z"></path><g><path d="M -57.650000000000006 -27.724999999999987 l 15 0 q 7 2.95 7.6 0 q 1.65 -2.7 -2.6 -10 l -10 0 l 0 -15 l -10 10 l 0 15 z"></path></g><g><path d="M -24.700000000000017 25.225000000000016 q -6.8 0.5 -7.5 7.5 l 15 15 l 15 -15 l -1.2 -1.2 l -7.5 7.5 l -13.8 -13.8 z"></path></g></g><g><path d="M 62.79999999999998 -37.47499999999999 l -10 10 l 0 20 l -35 0 l -10 10 l 29.95 29.95 l 7.5 -7.5 l -22.45 -22.45 l 30 0 l 10 -10 l 0 -30 z"></path><path d="M 27.799999999999983 -54.974999999999994 l 7.5 7.5 l 7.5 -7.5 l -7.5 -7.5 l -7.5 7.5 z"></path><path d="M 27.69999999999999 52.474999999999994 l 8.8 -8.8 l -1.2 -1.2 l -20 20 l 30 0 l 10 -10 l -27.6 0 z"></path></g><g><path d="M 92.79999999999998 -27.499999999999986 q -0.1 -10.25 13.15 -13.1 l -1.2 -1.1 q -22.3 -0.55 -21.95 24.2 l 37.6 0 l -7.5 7.5 l 1.2 1.2 l 18.7 -18.7 l -40 0 z"></path><path d="M 82.79999999999998 -7.499999999999986 l -10 10 l 50 0 l 10 -10 l -50 0 z"></path></g></g></g>
</svg>
