<svg xmlns="http://www.w3.org/2000/svg" viewBox="0 0 77.5 172.294907" width="77.5" height="172.294907" fill="currentColor" stroke="none">
<g transform="translate(38.75 86.147453)"><g><g><path d="M -18.75 -31.25 l -10 10 l 0 50 l -10 10 l 45 0 l 10 -10 l -42.6 0 l 7.6 -7.6 l 0 -42.4 l 30 0 l 10 -10 l -40 0 z"></path><g><path d="M -1.1499999999999986 -11.25 l 22.4 0 l 9.9 -10 l -19.9 0 l 10 -10 l -12.65 0 q 5.504 3.447 -5.3 10 l 5.5 0 l -9.95 10 z"></path></g><g><path d="M 38.75 36.25 l -1.2 -1.2 l -7.5 7.5 l -13.8 -13.8 q -8.65 2.75 -10 10 l 5 0 l 12.5 12.5 l 15 -15 z"></path></g><path d="M 10 -41.25 l 10 -10 l -30 0 l -10 10 l 30 0 z"></path></g></g></g>
</svg>
