<svg xmlns="http://www.w3.org/2000/svg" viewBox="0 0 59.9 172.294907" width="59.9" height="172.294907" fill="currentColor" stroke="none">
<g transform="translate(29.95 86.147453)"><g><g><path d="M -19.95 -35 l -10 10 l 0 60 l 10 -10 l 0 -50 l 30 0 l 10 -10 l -40 0 z"></path><g><path d="M -2.349999999999998 -15 l 22.4 0 l 9.9 -10 l -19.9 0 l 10 -10 l -12.65 0 q 5.504 3.447 -5.3 10 l 5.5 0 l -9.95 10 z"></path></g><g><path d="M -19.95 42.6 l 0 -17.6 q -7.3 -5 -10 10 l 0 20 l 17.5 -17.5 l -1.2 -1.2 l -6.3 6.3 z"></path></g><path d="M 10.000000000000004 -45 l 10 -10 l -30 0 l -10 10 l 30 0 z"></path></g></g></g>
</svg>
