<svg xmlns="http://www.w3.org/2000/svg" viewBox="0 0 452.7 117.425" width="452.7" height="117.425" fill="currentColor" stroke="none">
<g transform="translate(226.35 58.7125)"><g><g><path d="M -216.35 -38.71249999999999 l -10 10 l 0 60 l 10 -10 l 0 -60 z"></path><g><path d="M -226.35 16.28750000000001 l 0 15 l 15 0 l 10 -10 l -15 0 l 0 -10 q -3.874 7.753 -10 5 z"></path></g></g><g><path d="M -181.35 -38.71249999999999 l -10 10 l 0 36.3 l 10 -10.05 l 0 33.75 l 10 -10 l 0 -36.15 l -10 10 l 0 -23.85 l 30 0 l 10 -10 l -40 0 z"></path><g><path d="M -171.35 38.88750000000001 l 0 -17.6 q -7.3 -5 -10 10 l 0 20 l 17.5 -17.5 l -1.2 -1.2 l -6.3 6.3 z"></path></g><path d="M -156.35 -48.71249999999999 l 10 -10 l -30 0 l -10 10 l 30 0 z"></path></g><g><path d="M -121.35 -38.71249999999999 l -10 10 l 0 60 l 10 -10 l 0 -60 z"></path><g><path d="M -131.35 16.28750000000001 l 0 15 l 15 0 l 10 -10 l -15 0 l 0 -10 q -3.874 7.753 -10 5 z"></path></g></g><g><path d="M -81.29999999999998 -28.71249999999999 l 34.95 0 l 10 -10 l -50 0 l -10 10 l 25 25 l 0 35 l 10 -10 l 0 -30.05 l -19.95 -19.95 z"></path><path d="M -56.349999999999994 -48.71249999999999 l 10 -10 l -30 0 l -10 10 l 30 0 z"></path></g><g><path d="M -18.849999999999994 -38.71249999999999 l -7.5 7.5 57.5 62.5 7.5 -7.5 -57.5 -62.5 z"></path></g><g><path d="M 73.65 -38.63749999999999 l -10 10 l 0 40 l 9.55 -9.55 l 20.65 29.4 l 7.5 -7.5 l -21.6 -30.85 l -6.1 6.1 l 0 -37.6 z"></path><g><path d="M 73.65 -38.637499999999996 l -15 0 l 0 -15 l -10 10 l 0 15 l 15 0 l 0 10 q 3.85 -7.75 10 -5 l 0 -15 z"></path></g><g><path d="M 98.30000000000004 24.8125 q -1.825 3.28 -4.45 6.4 l -7.5 7.5 l -1.2 -1.2 l 7.5 -7.5 q -1.688 -4.106 -0.35 -4.55 q 1.45 -0.6 6 -0.65 z"></path></g><path d="M 85.00000000000003 58.7125 l 10 -10 l -30 0 l -10 10 l 30 0 z"></path></g><g><path d="M 156.35 -14.862499999999992 l -10 10 l 0 -33.85 l -10 10 l 0 36.2 l 10 -9.95 l 0 33.75 l 10 -10 l 0 -36.15 z"></path><g><path d="M 136.35 -28.71249999999999 l -15 0 l -10 10 l 17.45 0 l 7.6 -7.6 l -0.05 5.05 q 4.6 -6.3 10 -4 l 0 -13.45 l -9.95 10 z"></path></g><g><path d="M 146.35 51.28750000000001 l 10 -10 l 0 -20 q -7.3 -5 -10 10 l 0 20 z"></path></g></g><g><path d="M 210.1 -36.21249999999999 l -1.2 -1.2 l -6.3 6.3 l 0 -27.6 l -10 10 l 0 30 l 17.5 -17.5 z"></path><path d="M 176.35 -8.712499999999991 l -10 10 l 50 0 l 10 -10 l -50 0 z"></path></g></g></g>
</svg>
