<svg xmlns="http://www.w3.org/2000/svg" viewBox="0 0 416.85 140.05" width="416.85" height="140.05" fill="currentColor" stroke="none">
<g transform="translate(208.425 70.025)"><g><g><path d="M -200.92499999999998 -45.00000000000001 l -7.5 7.5 57.5 62.5 7.5 -7.5 -57.5 -62.5 z"></path><path d="M -173.42499999999998 44.99999999999999 l 10 -10 l -30 0 l -10 10 l 30 0 z"></path></g><g><path d="M -109.725 -45.00000000000001 l -10 10 l 17.5 17.5 l -15 0 l -16.2 16.15 l 26.35 26.35 l 7.5 -7.5 l -25 -25 l 32.35 0 l 7.5 -7.5 l -20 -20 l 35 0 l 10 -10 l -50 0 z"></path><g><path d="M -37.224999999999994 -37.50000000000001 l -1.2 -1.2 l -7.5 7.5 l -13.8 -13.8 q -8.65 2.75 -10 10 l 5 0 l 12.5 12.5 l 15 -15 z"></path></g><g><path d="M -100.725 16.349999999999994 l 0 -0.05 q -8.1 -2.8 -6.35 8.7 l 6.35 -6.3 q 9.4 17.75 21.2 6.85 q -12.25 2.15 -14.85 -15.5 l -6.35 6.3 z"></path></g></g><g><path d="M -17.325000000000017 -45.025000000000006 l -9.9 9.95 l 47.35 58.35 l 0.05 0 l 1.4 1.75 l 7.5 -7.5 l -42.7 -52.55 l 52.05 0 l 10 -10 l -65.75 0 z"></path><g><path d="M 36.57499999999999 40.025000000000006 l 7.5 -7.5 l -15 -15 q -6.8 0.5 -7.5 7.5 l 15 15 z"></path></g><path d="M 3.0999999999999943 -62.525000000000006 l 7.5 7.5 l 7.5 -7.5 l -7.5 -7.5 l -7.5 7.5 z"></path><path d="M 18.19999999999999 60.025 l -8.8 8.8 l 1.2 1.2 l 20 -20 l -30 0 l -10 10 l 27.6 0 z"></path></g><g><path d="M 70.04999999999998 -43.800000000000004 l 7.35 -7.35 l 20.6 26.15 l 10 0 l 10 -10 l -14.55 0 l -19.6 -25 l -15 15 l 1.2 1.2 z"></path><path d="M 68.42499999999998 -15.000000000000007 l -10 10 l 50 0 l 10 -10 l -50 0 z"></path></g><g><path d="M 146.62499999999997 -45.00000000000001 l -10 10 l 0 60 l 10 -10 l 0 -60 z"></path><g><path d="M 148.42499999999998 36.79999999999999 l -11.8 -11.8 l 10 -10 l 0 -5 q -5.188 7.964 -10 5 l 0 7.7 l -8.2 8.2 l 13 12.9 l 7 -7 z"></path></g></g><g><path d="M 168.42499999999998 -45.00000000000001 l -10 10 l 0 60 l 10 -10 l 0 -50 l 30 0 l 10 -10 l -40 0 z"></path><g><path d="M 208.42499999999998 -45.00000000000001 l -15 0 q 2.75 6.15 -5 10 l 10 0 l 0 12.6 l -7.5 7.5 l 1.2 1.2 l 16.3 -16.3 l 0 -15 z"></path></g><g><path d="M 168.42499999999998 3.7999999999999936 q -5 12.14 -10 11.2 l 0 10 l 17.5 -17.5 l -1.2 -1.2 l -6.3 6.3 l 0 -8.8 z"></path></g><path d="M 193.42499999999998 -55.00000000000001 l 10 -10 l -30 0 l -10 10 l 30 0 z"></path></g></g></g>
</svg>
