<svg xmlns="http://www.w3.org/2000/svg" viewBox="0 0 409.95 114.975" width="409.95" height="114.975" fill="currentColor" stroke="none">
<g transform="translate(204.975 57.4875)"><g><g><path d="M -182.57499999999996 -32.48749999999999 l -10 10 l 0 60 l 10 -10 l 0 -60 z"></path><g><path d="M -204.97499999999997 47.51250000000001 l 22.4 0 l 10 -10.1 l -19.9 0 l -0.1 0.1 l 0 -0.1 l 0.05 0 l 9.95 -9.9 l 0 -5 q -5 5.774 -10 5 l 0 7.55 l -12.4 12.4 z"></path></g></g><g><path d="M -120.02499999999998 -32.48749999999999 l -10 10 l 0 60 l 10 -10 l 0 -50 l 30 0 l 10 -10 l -40 0 z"></path><g><path d="M -120.02499999999998 27.51250000000001 l 0 -7.3 q -4.546 5.888 -10 3.05 l 0 11.95 l -15.05 0 l -17.5 17.5 l 1.2 1.2 l 8.7 -8.7 l 15 0 l 17.65 -17.7 z"></path></g><path d="M -111.29999999999995 -42.48749999999999 l 10 -10 l -30 0 l -10 10 l 30 0 z"></path></g><g><path d="M -62.52499999999998 -32.48749999999999 l -7.5 7.5 57.5 62.5 7.5 -7.5 -57.5 -62.5 z"></path></g><g><path d="M 14.975000000000023 27.51250000000001 l -10 10 l 50 0 l 10 -10 l 0 -30 l -30 0 l 0 -30 l -10 10 l 0 30 l 30 0 l 0 20 l -40 0 z"></path><path d="M 27.475000000000023 -49.98749999999999 l 7.5 7.5 l 7.5 -7.5 l -7.5 -7.5 l -7.5 7.5 z"></path></g><g><path d="M 129.97499999999997 -32.46249999999999 l -10 10 l 0 20 l -35 0 l -10 10 l 29.95 29.95 l 7.5 -7.5 l -22.45 -22.45 l 30 0 l 10 -10 l 0 -30 z"></path><g><path d="M 129.97499999999997 -16.8125 l 0 -15.65 l -10 10 q -9.4 -17.75 -21.2 -6.85 q 12.25 -2.15 14.85 15.5 l 6.35 -6.3 l 0 8.1 q 4.8 -9.5 10 -4.8 z"></path></g><g><path d="M 102.32499999999999 27.48749999999999 q -1.655 2.716 2.6 10 l 15 0 l 10 -10 l -20 0 q -7.015 -2.931 -7.6 0 z"></path></g><path d="M 112.47499999999997 57.48749999999999 l 10 -10 l -30 0 l -10 10 l 30 0 z"></path></g><g><path d="M 159.97500000000002 -8.63749999999999 l -10 10 l 0 -33.85 l -10 10 l 0 36.2 l 10 -9.95 l 0 33.75 l 10 -10 l 0 -36.15 z"></path><g><path d="M 159.925 25.11250000000001 l 0.05 -5.05 q -4.6 6.3 -10 4 l 0 13.45 l 9.95 -10 l 12.65 0 l -7.5 7.5 l 1.2 1.2 l 18.7 -18.7 l -17.45 0 l -7.6 7.6 z"></path></g></g><g><path d="M 204.97499999999997 -32.48749999999999 l -10 10 l 0 60 l 10 -10 l 0 -60 z"></path></g></g></g>
</svg>
