<svg xmlns="http://www.w3.org/2000/svg" viewBox="0 0 275 140" width="275" height="140" fill="currentColor" stroke="none">
<g transform="translate(137.5 70)"><g><g><path d="M -85 25 l 7.5 -7.5 -26.9 -26.9 7.45 -7.55 -28.05 -28.05 -7.5 7.5 26.9 26.9 -7.5 7.5 28.1 28.1 z"></path><path d="M -127.5 7.5 l -10 10 l 0 25 l 10 -10 l 0 -25 z"></path><path d="M -120 42.5 l 7.5 7.5 l 7.5 -7.5 l -7.5 -7.5 l -7.5 7.5 z"></path></g><g><path d="M -57.5 -45 l -10 10 l 0 36.3 l 10 -10.05 l 0 33.75 l 10 -10 l 0 -36.15 l -10 10 l 0 -23.85 l 30 0 l 10 -10 l -40 0 z"></path><g><path d="M -47.5 32.6 l 0 -17.6 q -7.3 -5 -10 10 l 0 20 l 17.5 -17.5 l -1.2 -1.2 l -6.3 6.3 z"></path></g></g><g><path d="M 0 -45 l -7.5 7.5 57.5 62.5 7.5 -7.5 -57.5 -62.5 z"></path><path d="M 22.5 35 l -10 10 l 0 25 l 10 -10 l 0 -25 z"></path></g><g><path d="M 102.5 25 l 10 -10 l 0 -35 l -19.95 0 l 24.95 -25 l -40 0 l -10 10 l 37.6 0 l -24.85 25 l 22.25 0 l 0 35 z"></path><path d="M 85 -62.5 l 7.5 7.5 l 7.5 -7.5 l -7.5 -7.5 l -7.5 7.5 z"></path></g><g><path d="M 137.5 -45 l -10 10 l 0 60 l 10 -10 l 0 -60 z"></path></g></g></g>
</svg>
