<svg xmlns="http://www.w3.org/2000/svg" viewBox="0 0 148.8 119.975" width="148.8" height="119.975" fill="currentColor" stroke="none">
<g transform="translate(74.4 59.9875)"><g><g><path d="M -39.400000000000006 -20.012499999999996 l -10 10 l 0 60 l 10 -10 l 0 -60 z"></path><g><path d="M -49.400000000000006 -10.012499999999996 l -15 0 l -10 10 l 17.45 0 l 7.6 -7.6 l -0.05 5.05 q 4.6 -6.3 10 -4 l 0 -13.45 l -9.95 10 z"></path></g><g><path d="M -49.400000000000006 34.987500000000004 l 0 15 l 10 -10 l 0 20 l 10 -9.9 l 0 -22.4 l -10 9.95 l 0 -5.15 q -5 6.1 -10 2.5 z"></path></g></g><g><path d="M 35.599999999999994 -19.987499999999997 l -10 10 l 0 20 l -35 0 l -10 10 l 29.95 29.95 l 7.5 -7.5 l -22.45 -22.45 l 30 0 l 10 -10 l 0 -30 z"></path><g><path d="M 35.599999999999994 -39.987500000000004 l -10 10 l 0 20 q 7.3 5 10 -10 l 0 -20 z"></path></g><g><path d="M 16.849999999999994 41.26249999999999 q -6.486 -1.216 -4.75 5 q 2.924 -3.894 5.95 -3.8 l 8.8 -8.8 l 0 -15 l -10 10 l 0 12.6 z"></path></g><path d="M 18.099999999999994 -49.987500000000004 l 10 -10 l -30 0 l -10 10 l 30 0 z"></path></g><g><path d="M 74.4 3.837500000000004 l -10 10 l 0 -33.85 l -10 10 l 0 36.2 l 10 -9.95 l 0 33.75 l 10 -10 l 0 -36.15 z"></path><g><path d="M 74.4 39.987500000000004 l 0 -5 q -6.25 9 -10 5 l 0 7.6 l -11.8 -11.7 l -7 7 l 12.95 12.95 l 15.85 -15.85 z"></path></g></g></g></g>
</svg>
