<svg xmlns="http://www.w3.org/2000/svg" viewBox="0 0 450.3 109.95" width="450.3" height="109.95" fill="currentColor" stroke="none">
<g transform="translate(225.15 54.975)"><g><g><path d="M -217.64999999999998 -34.949999999999996 l -7.5 7.5 57.5 62.5 7.5 -7.5 -57.5 -62.5 z"></path><path d="M -225.14999999999998 27.550000000000004 l 0 25 l 20 -20 l -1.2 -1.2 l -8.8 8.8 l 0 -22.6 l -10 10 z"></path><path d="M -187.64999999999998 -27.449999999999996 l 20 20 l 7.5 -7.5 l -20 -20 l -7.5 7.5 z"></path></g><g><path d="M -135.14999999999998 -34.949999999999996 l -10 10 l 0 35 l 19.95 0 l -24.95 25 l 40 0 l 10 -10 l -37.6 0 l 24.85 -25 l -22.25 0 l 0 -35 z"></path></g><g><path d="M -80.14999999999998 -34.949999999999996 l -10 10 l 0 60 l 10 -10 l 0 -60 z"></path><g><path d="M -90.14999999999998 20.050000000000004 l 0 15 l 15 0 l 10 -10 l -15 0 l 0 -10 q -3.874 7.753 -10 5 z"></path></g></g><g><path d="M -45.25 -34.974999999999994 l -9.9 9.95 l 47.35 58.35 l 0.05 0 l 1.4 1.75 l 7.5 -7.5 l -42.7 -52.55 l 52.05 0 l 10 -10 l -65.75 0 z"></path><g><path d="M 1.1500000000000057 27.575000000000017 q -6.8 0.5 -7.5 7.5 l 15 15 l 15 -15 l -1.2 -1.2 l -7.5 7.5 l -13.8 -13.8 z"></path></g><path d="M -5.75 -44.974999999999994 l 10 -10 l -30 0 l -10 10 l 30 0 z"></path></g><g><path d="M 41.14999999999998 -34.949999999999996 l -7.5 7.5 57.5 62.5 7.5 -7.5 -57.5 -62.5 z"></path></g><g><path d="M 118.64999999999998 -34.87499999999999 l -10 10 l 0 40 l 9.55 -9.55 l 20.65 29.4 l 7.5 -7.5 l -21.6 -30.85 l -6.1 6.1 l 0 -37.6 z"></path><g><path d="M 145.14999999999998 26.274999999999995 q -6.486 -1.216 -4.75 5 q 2.924 -3.894 5.95 -3.8 l 8.8 -8.8 l 0 -15 l -10 10 l 0 12.6 z"></path></g><path d="M 141.89999999999998 54.974999999999994 l 10 -10 l -30 0 l -10 10 l 30 0 z"></path></g><g><path d="M 185.14999999999998 -24.949999999999996 q -0.1 -10.25 13.15 -13.1 l -1.2 -1.1 q -22.3 -0.55 -21.95 24.2 l 37.6 0 l -7.5 7.5 l 1.2 1.2 l 18.7 -18.7 l -40 0 z"></path><path d="M 175.14999999999998 -4.949999999999996 l -10 10 l 50 0 l 10 -10 l -50 0 z"></path></g></g></g>
</svg>
