<svg xmlns="http://www.w3.org/2000/svg" viewBox="0 0 92.4 110" width="92.4" height="110" fill="currentColor" stroke="none">
<g transform="translate(46.2 55)"><g><g><path d="M -23.800000000000004 -35 l -10 10 l 0 60 l 10 -10 l 0 -60 z"></path><g><path d="M -46.2 45 l 22.4 0 l 10 -10.1 l -19.9 0 l -0.1 0.1 l 0 -0.1 l 0.05 0 l 9.95 -9.9 l 0 -5 q -5 5.774 -10 5 l 0 7.55 l -12.4 12.4 z"></path></g></g><g><path d="M 6.199999999999996 -35 l -10 10 l 0 60 l 10 -10 l 0 -50 l 30 0 l 10 -10 l -40 0 z"></path><g><path d="M 6.199999999999996 42.6 l 0 -17.6 q -7.3 -5 -10 10 l 0 20 l 17.5 -17.5 l -1.2 -1.2 l -6.3 6.3 z"></path></g><path d="M 31.200000000000003 -45 l 10 -10 l -30 0 l -10 10 l 30 0 z"></path></g></g></g>
</svg>
