<svg xmlns="http://www.w3.org/2000/svg" viewBox="0 0 59.85 172.294907" width="59.85" height="172.294907" fill="currentColor" stroke="none">
<g transform="translate(29.925 86.147453)"><g><g><path d="M -19.925 5.224999999999994 l -10 10 l 29.85 29.85 l 7.5 -7.5 l -22.35 -22.35 l 20 0 l 15 -15 l -25.6 -25.6 l -7.5 7.5 l 23.1 23.1 l -30 0 z"></path><g><path d="M -4.625 -23.775000000000006 l 11.2 -11.3 l -22.4 0 l -10 10.1 l 19.9 0 l -7.1 7.1 q 10.446 1.157 8.4 -5.9 z"></path></g><g><path d="M 7.425000000000001 37.574999999999996 q -6.8 0.5 -7.5 7.5 l 15 15 l 15 -15 l -1.2 -1.2 l -7.5 7.5 l -13.8 -13.8 z"></path></g><path d="M -7.5 -52.575 l 7.5 7.5 l 7.5 -7.5 l -7.5 -7.5 l -7.5 7.5 z"></path></g></g></g>
</svg>
