<svg xmlns="http://www.w3.org/2000/svg" viewBox="0 0 414.35 149.925" width="414.35" height="149.925" fill="currentColor" stroke="none">
<g transform="translate(207.175 74.9625)"><g><g><path d="M -192.17499999999998 -40.03750000000001 l -7.5 7.5 57.5 62.5 7.5 -7.5 -57.5 -62.5 z"></path><path d="M -193.27499999999998 -36.98750000000001 q -3.28 1.825 -6.4 4.45 l -7.5 7.5 l 1.2 1.2 l 7.5 -7.5 q 4.106 1.688 4.55 0.35 q 0.6 -1.45 0.65 -6 z"></path><path d="M -169.67499999999998 39.96249999999999 l -10 10 l 0 25 l 10 -10 l 0 -25 z"></path></g><g><path d="M -114.67499999999998 -9.662500000000009 l -10 10 l 29.85 29.85 l 7.5 -7.5 l -22.35 -22.35 l 20 0 l 15 -15 l -25.6 -25.6 l -7.5 7.5 l 23.1 23.1 l -30 0 z"></path><g><path d="M -99.37499999999999 -38.66250000000001 l 11.2 -11.3 l -22.4 0 l -10 10.1 l 19.9 0 l -7.1 7.1 q 10.446 1.157 8.4 -5.9 z"></path></g><g><path d="M -87.32499999999999 22.687499999999993 q -6.8 0.5 -7.5 7.5 l 15 15 l 15 -15 l -1.2 -1.2 l -7.5 7.5 l -13.8 -13.8 z"></path></g><path d="M -102.24999999999999 -67.4625 l 7.5 7.5 l 7.5 -7.5 l -7.5 -7.5 l -7.5 7.5 z"></path></g><g><path d="M -43.025000000000006 -40.03750000000001 l -10 10 l 0 60 l 10 -10 l 0 -60 z"></path><g><path d="M -54.82499999999999 -51.837500000000006 l 11.8 11.8 l -10 10 l 0 5 q 5.188 -7.964 10 -5 l 0 -7.7 l 8.2 -8.2 l -13 -12.9 l -7 7 z"></path></g><g><path d="M -53.025000000000006 14.962499999999991 l 0 15 l 15 0 l 10 -10 l -15 0 l 0 -10 q -3.874 7.753 -10 5 z"></path></g></g><g><path d="M 0.17499999999998295 -40.03750000000001 l -10 10 l 0 60 l 10 -10 l 0 -60 z"></path><g><path d="M 1.9749999999999943 41.76249999999999 l -11.8 -11.8 l 10 -10 l 0 -5 q -5.188 7.964 -10 5 l 0 7.7 l -8.2 8.2 l 13 12.9 l 7 -7 z"></path></g></g><g><path d="M 66.975 -40.01250000000001 l -10 10 l 0 20 l -35 0 l -10 10 l 29.95 29.95 l 7.5 -7.5 l -22.45 -22.45 l 30 0 l 10 -10 l 0 -30 z"></path><g><path d="M 48.224999999999994 21.237499999999972 q -6.486 -1.216 -4.75 5 q 2.924 -3.894 5.95 -3.8 l 8.8 -8.8 l 0 -15 l -10 10 l 0 12.6 z"></path></g><path d="M 49.474999999999994 -50.01250000000002 l 10 -10 l -30 0 l -10 10 l 30 0 z"></path></g><g><path d="M 84.475 -40.03750000000001 l -7.5 7.5 57.5 62.5 7.5 -7.5 -57.5 -62.5 z"></path><path d="M 131.87499999999997 19.96249999999999 q -1.65 2.7 2.6 10 l 12.6 0 l -7.5 7.5 l 1.2 1.2 l 18.7 -18.7 l -20 0 q -7 -2.95 -7.6 0 z"></path><path d="M 94.475 47.46249999999999 l 7.5 7.5 l 7.5 -7.5 l -7.5 -7.5 l -7.5 7.5 z"></path></g><g><path d="M 179.475 -39.962500000000006 l -10 10 l 0 40 l 9.55 -9.55 l 20.65 29.4 l 7.5 -7.5 l -21.6 -30.85 l -6.1 6.1 l 0 -37.6 z"></path></g></g></g>
</svg>
