<svg xmlns="http://www.w3.org/2000/svg" viewBox="0 0 726.05 162.625" width="726.05" height="162.625" fill="currentColor" stroke="none">
<g transform="translate(363.025 81.3125)"><g><g><path d="M -335.025 -13.2125 l 7.45 -7.5 27.05 34.4 7.5 -7.5 -27.8 -36 -7.75 7.8 -26.95 -34.3 -7.5 7.5 28 35.6 z"></path><path d="M -360.525 6.1875 l 0 25 l 20 -20 l -1.2 -1.2 l -8.8 8.8 l 0 -22.6 l -10 10 z"></path><path d="M -335.525 -73.8125 l 7.5 7.5 l 7.5 -7.5 l -7.5 -7.5 l -7.5 7.5 z"></path></g><g><path d="M -273.125 -56.3375 l -9.9 9.95 l 47.35 58.35 l 0.05 0 l 1.4 1.75 l 7.5 -7.5 l -42.7 -52.55 l 52.05 0 l 10 -10 l -65.75 0 z"></path><g><path d="M -226.72499999999997 6.212500000000013 q -6.8 0.5 -7.5 7.5 l 15 15 l 15 -15 l -1.2 -1.2 l -7.5 7.5 l -13.8 -13.8 z"></path></g></g><g><path d="M -166.52499999999998 13.612499999999997 l 10 -10 l 0 -40 l -9.55 9.55 l -20.65 -29.4 l -7.5 7.5 l 21.6 30.85 l 6.1 -6.1 l 0 37.6 z"></path><path d="M -185.37499999999997 33.6125 l 0 25 l 20 -20 l -1.2 -1.2 l -8.8 8.8 l 0 -22.6 l -10 10 z"></path></g><g><path d="M -106.52499999999998 -16.3125 l 7.5 -7.5 -32.5 -32.5 -7.5 7.5 32.5 32.5 m -17.5 -10 l -7.5 7.5 32.5 32.5 7.5 -7.5 -32.5 -32.5 z"></path><path d="M -132.62499999999997 -53.2625 q -3.28 1.825 -6.4 4.45 l -7.5 7.5 l 1.2 1.2 l 7.5 -7.5 q 4.106 1.688 4.55 0.35 q 0.6 -1.45 0.65 -6 z"></path><path d="M -101.625 3.6875 q -1.65 2.7 2.6 10 l 12.6 0 l -7.5 7.5 l 1.2 1.2 l 18.7 -18.7 l -20 0 q -7 -2.95 -7.6 0 z"></path><path d="M -105.27499999999998 -66.3125 l 10 -10 l -30 0 l -10 10 l 30 0 z"></path></g><g><path d="M -24.024999999999977 -16.6875 l 10 -10 l -29.85 -29.85 l -7.5 7.5 l 22.35 22.35 l -20 0 l -15 15 l 25.6 25.6 l 7.5 -7.5 l -23.1 -23.1 l 30 0 z"></path></g><g><path d="M 69.32500000000005 13.712499999999999 l 9.9 -9.95 l -47.35 -58.35 l -0.05 0 l -1.4 -1.75 l -7.5 7.5 l 42.7 52.55 l -52.05 0 l -10 10 l 65.75 0 z"></path><g><path d="M 11.225000000000023 13.712500000000006 q -0.465 -4.718 7.9 -10 l -5.55 0 l -17.6 17.6 l 0 15 l 10 -10 l 0 -12.6 l 5.25 0 z"></path></g><path d="M 27.600000000000023 56.3125 l 0 25 l 20 -20 l -1.2 -1.2 l -8.8 8.8 l 0 -22.6 l -10 10 z"></path></g><g><path d="M 99.22500000000002 -56.3125 l -10 10 l 0 60 l 10 -10 l 0 -60 z"></path></g><g><path d="M 174.875 -46.2375 l 10 -10 l -65.75 0 l -9.9 9.95 l 30.45 37.55 l 7.25 -7.3 l 24.15 29.65 l 7.45 -7.4 l -25.2 -31.05 l -7.5 7.45 l -23.1 -28.85 l 52.15 0 z"></path><g><path d="M 178.57499999999993 6.112499999999997 q -6.8 0.5 -7.5 7.5 l 15 15 l 15 -15 l -1.2 -1.2 l -7.5 7.5 l -13.8 -13.8 z"></path></g><path d="M 165.14999999999998 -66.2375 l 10 -10 l -30 0 l -10 10 l 30 0 z"></path></g><g><path d="M 218.57499999999993 -56.3125 l -7.5 7.5 57.5 62.5 7.5 -7.5 -57.5 -62.5 z"></path><path d="M 265.9749999999999 3.6875 q -1.655 2.716 2.6 10 l 15 0 l 10 -10 l -20 0 q -7.015 -2.931 -7.6 0 z"></path><path d="M 211.07499999999993 -6.3125 l 20 20 l 7.5 -7.5 l -20 -20 l -7.5 7.5 z"></path><path d="M 228.57499999999993 31.1875 l 7.5 7.5 l 7.5 -7.5 l -7.5 -7.5 l -7.5 7.5 z"></path></g><g><path d="M 362.9749999999999 -56.3125 l -50 0 l -9.4 9.4 l 23.2 33.05 l 6.2 -6.25 l 0 33.8 l 10 -10 l 0 -36.15 l -1.1 1.1 q -2.967 2.977 -5.95 5.95 l -1.95 2 l -0.65 0.65 l -16.5 -23.5 l 36.2 0 l 10 -10 z"></path></g></g></g>
</svg>
