<svg xmlns="http://www.w3.org/2000/svg" viewBox="0 0 397.6 125" width="397.6" height="125" fill="currentColor" stroke="none">
<g transform="translate(198.8 62.5)"><g><g><path d="M -162 0.5750000000000011 l 7.45 -7.5 27.05 34.4 7.5 -7.5 -27.8 -36 -7.75 7.8 -26.95 -34.3 -7.5 7.5 28 35.6 z"></path><path d="M -188.8 -33.825 q 6.486 1.216 4.75 -5 q -2.924 3.894 -5.95 3.8 l -8.8 8.8 l 0 15 l 10 -10 l 0 -12.6 z"></path></g><g><path d="M -100.10000000000001 -42.55 l -9.9 9.95 l 47.35 58.35 l 0.05 0 l 1.4 1.75 l 7.5 -7.5 l -42.7 -52.55 l 52.05 0 l 10 -10 l -65.75 0 z"></path><g><path d="M -53.69999999999999 20.000000000000014 q -6.8 0.5 -7.5 7.5 l 15 15 l 15 -15 l -1.2 -1.2 l -7.5 7.5 l -13.8 -13.8 z"></path></g><path d="M -60.60000000000002 62.50000000000001 l 10 -10 l -30 0 l -10 10 l 30 0 z"></path></g><g><path d="M -13.699999999999989 -42.525 l -7.5 7.5 57.5 62.5 7.5 -7.5 -57.5 -62.5 z"></path></g><g><path d="M 103.80000000000001 -32.525 l 10 -10 l -50 0 l -10 10 l 0 35 l 10 -10 l 15 0 l 0 35 l 10 -10 l 0 -35 l -17.35 0 l -7.65 7.6 l 0 -22.6 l 40 0 z"></path><g><path d="M 88.75 15.075000000000003 l 0.05 -5.05 q -4.6 6.3 -10 4 l 0 13.45 l 9.95 -10 l 12.65 0 l -7.5 7.5 l 1.2 1.2 l 18.7 -18.7 l -17.45 0 l -7.6 7.6 z"></path></g><path d="M 93.80000000000001 47.475 l 10 -10 l -30 0 l -10 10 l 30 0 z"></path></g><g><path d="M 133.8 -42.525 l -10 10 l 0 60 l 10 -10 l 0 -60 z"></path></g><g><path d="M 198.8 -42.5 l -10 10 l 0 20 l -35 0 l -10 10 l 29.95 29.95 l 7.5 -7.5 l -22.45 -22.45 l 30 0 l 10 -10 l 0 -30 z"></path><g><path d="M 176.25 24.94999999999998 l 5 -5 l 10 10 l 7.15 -7.15 l -11.3 -11.2 l -7 7.1 l -1 1 q -3.183 -1.742 -3.85 0 q -0.916 1.293 0 6.25 z"></path></g><path d="M 181.3 -52.50000000000001 l 10 -10 l -30 0 l -10 10 l 30 0 z"></path></g></g></g>
</svg>
