<svg xmlns="http://www.w3.org/2000/svg" viewBox="0 0 619.15 140" width="619.15" height="140" fill="currentColor" stroke="none">
<g transform="translate(309.575 70)"><g><g><path d="M -293.2749999999999 -45 l -7.5 7.5 57.5 62.5 7.5 -7.5 -57.5 -62.5 z"></path><path d="M -299.57499999999993 -36.3 q 4.2 0.65 6.3 -2.7 q 0.8 -1 0 -6 l -6.3 6.3 l 0 -19.95 l -10 10.1 l 0 22.35 l 10 -10.1 z"></path><path d="M -290.7749999999999 7.5 l -10 10 l 0 25 l 10 -10 l 0 -25 z"></path><path d="M -240.67499999999993 -35 l -8.8 8.8 l 1.2 1.2 l 20 -20 l -30 0 l -10 10 l 27.6 0 z"></path></g><g><path d="M -208.27499999999992 -45 l -10 10 l 0 60 l 10 -10 l 0 -50 l 30 0 l 10 -10 l -40 0 z"></path><g><path d="M -208.27499999999992 32.6 l 0 -17.6 q -7.3 -5 -10 10 l 0 20 l 17.5 -17.5 l -1.2 -1.2 l -6.3 6.3 z"></path></g><path d="M -183.27499999999992 -55 l 10 -10 l -30 0 l -10 10 l 30 0 z"></path><path d="M -183.27499999999992 65 l 10 -10 l -30 0 l -10 10 l 30 0 z"></path></g><g><path d="M -150.77499999999992 -45 l -7.5 7.5 57.5 62.5 7.5 -7.5 -57.5 -62.5 z"></path><path d="M -101.67499999999995 23.4 l -11.2 11.3 l 22.4 0 l 10 -10.1 l -19.9 0 l 7.1 -7.1 q -10.446 -1.157 -8.4 5.9 z"></path><path d="M -98.17499999999995 -35 l -8.8 8.8 l 1.2 1.2 l 20 -20 l -30 0 l -10 10 l 27.6 0 z"></path><path d="M -125.67499999999995 45 l -8.8 8.8 l 1.2 1.2 l 20 -20 l -30 0 l -10 10 l 27.6 0 z"></path></g><g><path d="M -62.97499999999991 -45 l -7.5 7.5 l 31.25 31.25 l -31.25 31.25 l 40 0 l 10 -10 l -37.6 0 l 27.5 -27.6 l -32.4 -32.4 z"></path></g><g><path d="M 22.075000000000102 -45 l -7.5 7.5 57.5 62.5 7.5 -7.5 -57.5 -62.5 z"></path><path d="M 14.575000000000102 -37.5 l -15.05 0 l -10 10 l 17.45 0 l 8.75 -8.8 q 6.9 0.2 3.8 -6.15 l -4.95 4.95 z"></path><path d="M 76.52500000000009 18.6 q -1.825 3.28 -4.45 6.4 l -7.5 7.5 l -1.2 -1.2 l 7.5 -7.5 q -1.688 -4.106 -0.35 -4.55 q 1.45 -0.6 6 -0.65 z"></path><path d="M 74.67500000000013 -35 l -8.8 8.8 l 1.2 1.2 l 20 -20 l -30 0 l -10 10 l 27.6 0 z"></path></g><g><path d="M 117.0750000000001 -45 l -10 10 l 0 50 l -10 10 l 45 0 l 10 -10 l -42.6 0 l 7.6 -7.6 l 0 -42.4 l 30 0 l 10 -10 l -40 0 z"></path><path d="M 119.47500000000008 45 l 8.8 -8.8 l -1.2 -1.2 l -20 20 l 30 0 l 10 -10 l -27.6 0 z"></path></g><g><path d="M 229.57500000000005 25 l 10 -10 l 0 -60 l -10 10 l 0 50 l -30 0 l -10 10 l 40 0 z"></path><g><path d="M 167.0750000000001 17.5 l 1.2 1.2 l 7.5 -7.5 l 13.8 13.8 q 8.65 -2.75 10 -10 l -5 0 l -12.5 -12.5 l -15 15 z"></path></g><path d="M 195.8250000000001 -62.5 l 7.5 7.5 l 7.5 -7.5 l -7.5 -7.5 l -7.5 7.5 z"></path><path d="M 193.3250000000001 45 l 0 25 l 20 -20 l -1.2 -1.2 l -8.8 8.8 l 0 -22.6 l -10 10 z"></path></g><g><path d="M 261.19999999999993 -43.8 l 7.35 -7.35 l 20.6 26.15 l 10 0 l 10 -10 l -14.55 0 l -19.6 -25 l -15 15 l 1.2 1.2 z"></path><path d="M 259.57499999999993 -15 l -10 10 l 50 0 l 10 -10 l -50 0 z"></path></g></g></g>
</svg>
