<svg xmlns="http://www.w3.org/2000/svg" viewBox="0 0 84.5 172.294907" width="84.5" height="172.294907" fill="currentColor" stroke="none">
<g transform="translate(42.25 86.147453)"><g><g><path d="M -32.349999999999994 -36.275000000000006 l -9.9 9.95 l 47.35 58.35 l 0.05 0 l 1.4 1.75 l 7.5 -7.5 l -42.7 -52.55 l 52.05 0 l 10 -10 l -65.75 0 z"></path><g><path d="M 19.750000000000007 -36.275000000000006 q 2.585 3.848 -6.35 10 l 7.65 0 l -6.3 6.35 q 5.6 10.2 27.5 9.85 q -16.25 -5.4 -18.85 -16.2 l 10 -10 l -13.65 0 z"></path></g><g><path d="M 9.050000000000004 31.275000000000006 l 5 -5 l 10 10 l 7.15 -7.15 l -11.3 -11.2 l -7 7.1 l -1 1 q -3.183 -1.742 -3.85 0 q -0.916 1.293 0 6.25 z"></path></g></g></g></g>
</svg>
