<svg xmlns="http://www.w3.org/2000/svg" viewBox="0 0 90.65 172.294907" width="90.65" height="172.294907" fill="currentColor" stroke="none">
<g transform="translate(45.325 86.147453)"><g><g><path d="M 20.32499999999999 -28.675 l 10 -10 l -65.75 0 l -9.9 9.95 l 30.45 37.55 l 7.25 -7.3 l 24.15 29.65 l 7.45 -7.4 l -25.2 -31.05 l -7.5 7.45 l -23.1 -28.85 l 52.15 0 z"></path><g><path d="M 25.325000000000003 -28.674999999999997 l 12.5 12.5 l 7.5 -7.5 l -15 -15 q -8.65 2.75 -10 10 l 5 0 z"></path></g><g><path d="M 20.974999999999994 24.775 q -1.825 3.28 -4.45 6.4 l -7.5 7.5 l -1.2 -1.2 l 7.5 -7.5 q -1.688 -4.106 -0.35 -4.55 q 1.45 -0.6 6 -0.65 z"></path></g></g></g></g>
</svg>
