<svg xmlns="http://www.w3.org/2000/svg" viewBox="0 0 65.1 172.294907" width="65.1" height="172.294907" fill="currentColor" stroke="none">
<g transform="translate(32.55 86.147453)"><g><g><path d="M 17.550000000000004 25 l 7.5 -7.5 l -31.25 -31.25 l 31.25 -31.25 l -40 0 l -10 10 l 37.6 0 l -27.5 27.6 l 32.4 32.4 z"></path><g><path d="M -17.299999999999997 -35 q -0.465 -4.718 7.9 -10 l -5.55 0 l -17.6 17.6 l 0 15 l 10 -10 l 0 -12.6 l 5.25 0 z"></path></g><g><path d="M 18.650000000000006 21.95 q 3.28 -1.825 6.4 -4.45 l 7.5 -7.5 l -1.2 -1.2 l -7.5 7.5 q -4.106 -1.688 -4.55 -0.35 q -0.6 1.45 -0.65 6 z"></path></g><path d="M -7.5 -62.5 l 7.5 7.5 l 7.5 -7.5 l -7.5 -7.5 l -7.5 7.5 z"></path><path d="M -10 45 l 0 25 l 20 -20 l -1.2 -1.2 l -8.8 8.8 l 0 -22.6 l -10 10 z"></path></g></g></g>
</svg>
