<svg xmlns="http://www.w3.org/2000/svg" viewBox="0 0 69.75 172.294907" width="69.75" height="172.294907" fill="currentColor" stroke="none">
<g transform="translate(34.875 86.147453)"><g><g><path d="M -7.725000000000001 -25 l -10 10 l 0 35 l 19.95 0 l -24.95 25 l 40 0 l 10 -10 l -37.6 0 l 24.85 -25 l -22.25 0 l 0 -35 z"></path><g><path d="M -17.375 -12.899999999999999 q 0.375 -0.363 1.15 -1.15 q 6.261 -1.099 8.5 3.8 l 0 -14.75 l -10 10 l -10 -10 l -7.15 7.15 l 11.3 11.2 l 5.85 -5.9 q 0.04 -0.029 0.35 -0.35 z"></path></g><g><path d="M 19.625 35 q 0.465 4.718 -7.9 10 l 5.55 0 l 17.6 -17.6 l 0 -15 l -10 10 l 0 12.6 l -5.25 0 z"></path></g><path d="M 10 -35 l 10 -10 l -30 0 l -10 10 l 30 0 z"></path></g></g></g>
</svg>
