<svg xmlns="http://www.w3.org/2000/svg" viewBox="0 0 77.6 172.294907" width="77.6" height="172.294907" fill="currentColor" stroke="none">
<g transform="translate(38.8 86.147453)"><g><g><path d="M -3.799999999999997 -35 l -10 10 l 0 35 l 19.95 0 l -24.95 25 l 40 0 l 10 -10 l -37.6 0 l 24.85 -25 l -22.25 0 l 0 -35 z"></path><g><path d="M -13.799999999999997 -25 l -15 0 l -10 10 l 17.45 0 l 7.6 -7.6 l -0.05 5.05 q 4.6 -6.3 10 -4 l 0 -13.45 l -9.95 10 z"></path></g><g><path d="M 23.550000000000004 25 q 0.465 4.718 -7.9 10 l 5.55 0 l 17.6 -17.6 l 0 -15 l -10 10 l 0 12.6 l -5.25 0 z"></path></g></g></g></g>
</svg>
