<svg xmlns="http://www.w3.org/2000/svg" viewBox="0 0 728.05 167.525" width="728.05" height="167.525" fill="currentColor" stroke="none">
<g transform="translate(364.025 83.7625)"><g><g><path d="M -339.3750000000001 -46.2625 l -7.5 7.5 57.5 62.5 7.5 -7.5 -57.5 -62.5 z"></path><path d="M -341.8750000000001 -43.7625 l -5 5 l -10 -10 l -7.15 7.15 l 11.3 11.2 l 7 -7.1 l 1 -1 q 3.183 1.742 3.85 0 q 0.916 -1.293 0 -6.25 z"></path><path d="M -336.8750000000001 6.237499999999997 l -10 10 l 0 25 l 10 -10 l 0 -25 z"></path><path d="M -284.3750000000001 -36.2625 l 10 -10 l -30 0 l -10 10 l 30 0 z"></path></g><g><path d="M -254.37500000000009 -46.2625 l -10 10 l 0 36.3 l 10 -10.05 l 0 33.75 l 10 -10 l 0 -36.15 l -10 10 l 0 -23.85 l 30 0 l 10 -10 l -40 0 z"></path><g><path d="M -244.37500000000009 31.3375 l 0 -17.6 q -7.3 -5 -10 10 l 0 20 l 17.5 -17.5 l -1.2 -1.2 l -6.3 6.3 z"></path></g></g><g><path d="M -194.37500000000009 -46.2625 l -10 10 l 0 60 l 10 -10 l 0 -60 z"></path><g><path d="M -194.3250000000001 -43.962500000000006 l 15 0 l 10 -10 l -17.4 0 l -17.65 17.7 l 0 7.3 q 5.4 -4.35 10 -2.75 l 0 -12.25 z"></path></g></g><g><path d="M -148.17500000000007 -46.1875 l -10 10 l 0 40 l 9.55 -9.55 l 20.65 29.4 l 7.5 -7.5 l -21.6 -30.85 l -6.1 6.1 l 0 -37.6 z"></path><path d="M -129.32500000000007 -56.18750000000001 l 10 -10 l -30 0 l -10 10 l 30 0 z"></path></g><g><path d="M -101.8250000000001 -46.2625 l -7.5 7.5 57.5 62.5 7.5 -7.5 -57.5 -62.5 z"></path><path d="M -74.3250000000001 43.7375 l 10 -10 l -30 0 l -10 10 l 30 0 z"></path></g><g><path d="M 25.074999999999932 -46.2625 l -50 0 l -9.4 9.4 l 23.2 33.05 l 6.2 -6.25 l 0 33.8 l 10 -10 l 0 -36.15 l -1.1 1.1 q -2.967 2.977 -5.95 5.95 l -1.95 2 l -0.65 0.65 l -16.5 -23.5 l 36.2 0 l 10 -10 z"></path><g><path d="M 6.874999999999943 35.537499999999994 l -11.8 -11.8 l 10 -10 l 0 -5 q -5.188 7.964 -10 5 l 0 7.7 l -8.2 8.2 l 13 12.9 l 7 -7 z"></path></g></g><g><path d="M 45.02499999999992 -46.2875 l -9.9 9.95 l 47.35 58.35 l 0.05 0 l 1.4 1.75 l 7.5 -7.5 l -42.7 -52.55 l 52.05 0 l 10 -10 l -65.75 0 z"></path><g><path d="M 98.92499999999995 38.76250000000001 l 7.5 -7.5 l -15 -15 q -6.8 0.5 -7.5 7.5 l 15 15 z"></path></g><path d="M 62.94999999999993 58.7625 l 0 25 l 20 -20 l -1.2 -1.2 l -8.8 8.8 l 0 -22.6 l -10 10 z"></path></g><g><path d="M 164.52499999999998 -56.2625 l -7.5 7.5 l 12.5 12.5 l -25 0 l -17.5 17.5 l 1.2 1.2 l 8.7 -8.7 l 37.6 0 l 10 -10 l -20 -20 z"></path><path d="M 130.77499999999998 -16.262500000000003 l -10 10 l 50 0 l 10 -10 l -50 0 z"></path></g><g><path d="M 247.57499999999993 -3.162500000000003 l 7.45 -7.5 27.05 34.4 7.5 -7.5 -27.8 -36 -7.75 7.8 -26.95 -34.3 -7.5 7.5 28 35.6 z"></path><path d="M 219.57499999999993 -38.7625 l -15.05 0 l -10 10 l 17.45 0 l 8.75 -8.8 q 6.9 0.2 3.8 -6.15 l -4.95 4.95 z"></path><path d="M 282.17499999999995 -36.2625 l -8.8 8.8 l 1.2 1.2 l 20 -20 l -30 0 l -10 10 l 27.6 0 z"></path><path d="M 240.82499999999993 -76.2625 l 20 20 l 7.5 -7.5 l -20 -20 l -7.5 7.5 z"></path></g><g><path d="M 363.975 -46.2625 l -50 0 l -9.4 9.4 l 23.2 33.05 l 6.2 -6.25 l 0 33.8 l 10 -10 l 0 -36.15 l -1.1 1.1 q -2.967 2.977 -5.95 5.95 l -1.95 2 l -0.65 0.65 l -16.5 -23.5 l 36.2 0 l 10 -10 z"></path><path d="M 326.80000000000007 -63.7625 l 7.5 7.5 l 7.5 -7.5 l -7.5 -7.5 l -7.5 7.5 z"></path></g></g></g>
</svg>
