<svg xmlns="http://www.w3.org/2000/svg" viewBox="0 0 68.14898 172.294907" width="68.14898" height="172.294907" fill="currentColor" stroke="none">
<g transform="translate(34.072221 86.147453)"><g><g><path d="M 15.927778889024992 -21.25 l 10 -10 l -50 0 l -10 10 l 0 35 l 10 -10 l 15 0 l 0 35 l 10 -10 l 0 -35 l -17.35 0 l -7.65 7.6 l 0 -22.6 l 40 0 z"></path><g><path d="M 23.627778889024995 -11.25 q 16 -9.8 7.5 -27.5 l -7.55 7.5 l -11.1 0 q 3.05 5.25 -1.5 10 l 5 0 l 8.8 -8.85 q 6.15 7.15 -1.15 18.85 z"></path></g><g><path d="M 0.9277788890249923 17.55 q -5 12.14 -10 11.2 l 0 10 l 17.5 -17.5 l -1.2 -1.2 l -6.3 6.3 l 0 -8.8 z"></path></g></g></g></g>
</svg>
