<svg xmlns="http://www.w3.org/2000/svg" viewBox="0 0 310.2 142.425" width="310.2" height="142.425" fill="currentColor" stroke="none">
<g transform="translate(155.1 71.2125)"><g><g><path d="M -140.1 -33.712500000000006 l -7.5 7.5 57.5 62.5 7.5 -7.5 -57.5 -62.5 z"></path><path d="M -141.2 -30.662500000000005 q -3.28 1.825 -6.4 4.45 l -7.5 7.5 l 1.2 1.2 l 7.5 -7.5 q 4.106 1.688 4.55 0.35 q 0.6 -1.45 0.65 -6 z"></path><path d="M -92.69999999999999 26.287499999999994 q -1.655 2.716 2.6 10 l 15 0 l 10 -10 l -20 0 q -7.015 -2.931 -7.6 0 z"></path><path d="M -87.5 -23.712500000000006 l -8.8 8.8 l 1.2 1.2 l 20 -20 l -30 0 l -10 10 l 27.6 0 z"></path><path d="M -128.85 -63.712500000000006 l 20 20 l 7.5 -7.5 l -20 -20 l -7.5 7.5 z"></path></g><g><path d="M -43.849999999999994 -33.712500000000006 l -10 10 l 0 30 l 30 30 l 7.5 -7.5 l -27.5 -27.5 l 0 -35 z"></path><path d="M -25.099999999999994 -43.712500000000006 l 10 -10 l -30 0 l -10 10 l 30 0 z"></path><path d="M -25.099999999999994 56.287499999999994 l 10 -10 l -30 0 l -10 10 l 30 0 z"></path></g><g><path d="M 22.599999999999994 36.21249999999999 l 10 -10 l 0 -40 l -9.55 9.55 l -20.65 -29.4 l -7.5 7.5 l 21.6 30.85 l 6.1 -6.1 l 0 37.6 z"></path><g><path d="M 22.599999999999994 36.21249999999999 l 0 -0.1 l 0.05 0 l 9.95 -9.9 l 0 -5 q -5 5.75 -10 5 l 0 7.55 l -12.4 12.45 l 22.4 0 l 17.5 -17.5 l -1.2 -1.2 l -8.6 8.6 l -17.6 0 l -0.1 0.1 z"></path></g><path d="M 15 -51.1375 l 7.5 7.5 l 7.5 -7.5 l -7.5 -7.5 l -7.5 7.5 z"></path><path d="M 15 63.71249999999999 l 7.5 7.5 l 7.5 -7.5 l -7.5 -7.5 l -7.5 7.5 z"></path></g><g><path d="M 70.1 -33.712500000000006 l -10 10 l 0 60 l 10 -10 l 0 -60 z"></path><g><path d="M 60.099999999999994 21.287499999999994 l 0 15 l 15 0 l 10 -10 l -15 0 l 0 -10 q -3.874 7.753 -10 5 z"></path></g></g><g><path d="M 110.15 -23.712500000000006 l 34.95 0 l 10 -10 l -50 0 l -10 10 l 25 25 l 0 35 l 10 -10 l 0 -30.05 l -19.95 -19.95 z"></path><path d="M 135.1 -43.712500000000006 l 10 -10 l -30 0 l -10 10 l 30 0 z"></path></g></g></g>
</svg>
