<svg xmlns="http://www.w3.org/2000/svg" viewBox="0 0 89.65 172.294907" width="89.65" height="172.294907" fill="currentColor" stroke="none">
<g transform="translate(44.825 86.147453)"><g><g><path d="M -29.825000000000003 -26.25 l -7.5 7.5 57.5 62.5 7.5 -7.5 -57.5 -62.5 z"></path><path d="M -41.625 -38.05 l 11.8 11.8 l -5 5 q 7.681 1.687 7.1 -0.5 l -0.95 -3.35 l 7.05 -7.05 l -13 -12.9 z"></path><path d="M 22.674999999999997 41.25 l 5 -5 l 10 10 l 7.15 -7.15 l -11.3 -11.2 l -7 7.1 l -1 1 q -3.183 -1.742 -3.85 0 q -0.916 1.293 0 6.25 z"></path><path d="M -14.825000000000003 43.75 l 10 -10 l -30 0 l -10 10 l 30 0 z"></path><path d="M 5.174999999999997 -36.25 l 10 -10 l -30 0 l -10 10 l 30 0 z"></path></g></g></g>
</svg>
