<svg xmlns="http://www.w3.org/2000/svg" viewBox="0 0 534.5 134.925" width="534.5" height="134.925" fill="currentColor" stroke="none">
<g transform="translate(267.25 67.4625)"><g><g><path d="M -234.7 -47.462500000000006 l -7.5 7.5 57.5 62.5 7.5 -7.5 -57.5 -62.5 z"></path><path d="M -242.2 -39.962500000000006 l -15.05 0 l -10 10 l 17.45 0 l 8.75 -8.8 q 6.9 0.2 3.8 -6.15 l -4.95 4.95 z"></path><path d="M -182.1 -37.462500000000006 l -8.8 8.8 l 1.2 1.2 l 20 -20 l -30 0 l -10 10 l 27.6 0 z"></path><path d="M -199.7 -57.462500000000006 l 10 -10 l -30 0 l -10 10 l 30 0 z"></path></g><g><path d="M -94.05000000000001 -37.3875 l 10 -10 l -65.75 0 l -9.9 9.95 l 30.45 37.55 l 7.25 -7.3 l 24.15 29.65 l 7.45 -7.4 l -25.2 -31.05 l -7.5 7.45 l -23.1 -28.85 l 52.15 0 z"></path></g><g><path d="M -64.05000000000001 -47.462500000000006 l -10 10 l 0 60 l 10 -10 l 0 -60 z"></path><g><path d="M -74.05000000000001 7.537499999999994 l 0 15 l 10 -10 l 0 20 l 10 -9.9 l 0 -22.4 l -10 9.95 l 0 -5.15 q -5 6.1 -10 2.5 z"></path></g></g><g><path d="M 10.949999999999989 -47.43750000000001 l -10 10 l 0 20 l -35 0 l -10 10 l 29.95 29.95 l 7.5 -7.5 l -22.45 -22.45 l 30 0 l 10 -10 l 0 -30 z"></path><path d="M -6.550000000000011 -57.437500000000014 l 10 -10 l -30 0 l -10 10 l 30 0 z"></path></g><g><path d="M 48.94999999999999 -4.362500000000006 l 7.45 -7.5 27.05 34.4 7.5 -7.5 -27.8 -36 -7.75 7.8 -26.95 -34.3 -7.5 7.5 28 35.6 z"></path><path d="M 33.44999999999999 5.037499999999994 l -10 10 l 0 25 l 10 -10 l 0 -25 z"></path><path d="M 83.55000000000001 -37.462500000000006 l -8.8 8.8 l 1.2 1.2 l 20 -20 l -30 0 l -10 10 l 27.6 0 z"></path></g><g><path d="M 115.84999999999997 -47.487500000000004 l -9.9 9.95 l 47.35 58.35 l 0.05 0 l 1.4 1.75 l 7.5 -7.5 l -42.7 -52.55 l 52.05 0 l 10 -10 l -65.75 0 z"></path></g><g><path d="M 201.60000000000002 12.462499999999995 l -10 10 l 65.75 0 l 9.9 -9.95 l -30.45 -37.55 l -7.25 7.3 l -24.15 -29.65 l -7.45 7.4 l 25.2 31.05 l 7.5 -7.45 l 23.1 28.85 l -52.15 0 z"></path><path d="M 219.425 42.46249999999999 l 0 25 l 20 -20 l -1.2 -1.2 l -8.8 8.8 l 0 -22.6 l -10 10 z"></path></g></g></g>
</svg>
