<svg xmlns="http://www.w3.org/2000/svg" viewBox="0 0 453.261572 110" width="453.261572" height="110" fill="currentColor" stroke="none">
<g transform="translate(226.630786 55)"><g><g><path d="M -181.48078613281245 8.1 l 7.45 -7.5 27.05 34.4 7.5 -7.5 -27.8 -36 -7.75 7.8 -26.95 -34.3 -7.5 7.5 28 35.6 z"></path><path d="M -204.48078613281245 -32.5 l -5 5 l -10 -10 l -7.15 7.15 l 11.3 11.2 l 7 -7.1 l 1 -1 q 3.183 1.742 3.85 0 q 0.916 -1.293 0 -6.25 z"></path></g><g><path d="M -89.48078613281245 4.625 l 10 -10 l -29.85 -29.85 l -7.5 7.5 l 22.35 22.35 l -20 0 l -15 15 l 25.6 25.6 l 7.5 -7.5 l -23.1 -23.1 l 30 0 z"></path></g><g><path d="M -59.480786132812455 -35 l -10 10 l 0 60 l 10 -10 l 0 -60 z"></path><g><path d="M -69.48078613281245 20 l 0 15 l 15 0 l 10 -10 l -15 0 l 0 -10 q -3.874 7.753 -10 5 z"></path></g></g><g><path d="M -24.480786132812455 -35 l -10 10 l 0 60 l 10 -10 l 0 -50 l 30 0 l 10 -10 l -40 0 z"></path><g><path d="M -24.480786132812455 42.6 l 0 -17.6 q -7.3 -5 -10 10 l 0 20 l 17.5 -17.5 l -1.2 -1.2 l -6.3 6.3 z"></path></g><path d="M 0.5192138671875455 -45 l 10 -10 l -30 0 l -10 10 l 30 0 z"></path></g><g><path d="M 35.51921386718752 -35 l -10 10 l 0 60 l 10 -10 l 0 -60 z"></path><g><path d="M 25.519213867187545 20 l 0 15 l 15 0 l 10 -10 l -15 0 l 0 -10 q -3.874 7.753 -10 5 z"></path></g></g><g><path d="M 110.51921386718752 -25 l 10 -10 l -50 0 l -10 10 l 0 30 l 30 0 l 0 30 l 10 -10 l 0 -30 l -30 0 l 0 -20 l 40 0 z"></path><path d="M 100.51921386718752 -45 l 10 -10 l -30 0 l -10 10 l 30 0 z"></path></g><g><path d="M 152.9192138671875 -35 l -10 10 l 0 60 l 10 -10 l 0 -60 z"></path><g><path d="M 130.51921386718752 45 l 22.4 0 l 10 -10.1 l -19.9 0 l -0.1 0.1 l 0 -0.1 l 0.05 0 l 9.95 -9.9 l 0 -5 q -5 5.774 -10 5 l 0 7.55 l -12.4 12.4 z"></path></g></g><g><path d="M 182.9192138671875 -35 l -10 10 l 0 30 l 30 30 l 7.5 -7.5 l -27.5 -27.5 l 0 -35 z"></path><g><path d="M 226.61921386718748 46.35 q 0.35 -21.9 -9.85 -27.5 l -6.3 6.35 l -2 2 q -8.054 -2.82 -4.35 6.65 l 6.3 -6.35 q 10.8 2.6 16.2 18.85 z"></path></g><path d="M 209.76921386718752 -45 l 10 -10 l -30 0 l -10 10 l 30 0 z"></path></g></g></g>
</svg>
