<svg xmlns="http://www.w3.org/2000/svg" viewBox="0 0 83.79898 172.294907" width="83.79898" height="172.294907" fill="currentColor" stroke="none">
<g transform="translate(41.89949 86.147453)"><g><g><path d="M -23.750510204081632 -1.3249999999999993 l -10 10 l 65.75 0 l 9.9 -9.95 l -30.45 -37.55 l -7.25 7.3 l -24.15 -29.65 l -7.45 7.4 l 25.2 31.05 l 7.5 -7.45 l 23.1 28.85 l -52.15 0 z"></path><g><path d="M -31.450510204081638 -11.325000000000003 q -16 9.8 -7.5 27.5 l 7.55 -7.5 l 11.1 0 q -3.05 -5.25 1.5 -10 l -5 0 l -8.8 8.85 q -6.15 -7.15 1.15 -18.85 z"></path></g><path d="M -10 36.175 l 0 25 l 20 -20 l -1.2 -1.2 l -8.8 8.8 l 0 -22.6 l -10 10 z"></path></g></g></g>
</svg>
