<svg xmlns="http://www.w3.org/2000/svg" viewBox="0 0 70.05 172.294907" width="70.05" height="172.294907" fill="currentColor" stroke="none">
<g transform="translate(35.025 86.147453)"><g><g><path d="M -17.525 -25 l -10 10 l 0 30 l 30 30 l 7.5 -7.5 l -27.5 -27.5 l 0 -35 z"></path><g><path d="M -27.525 -3.8000000000000007 q 5 -12.14 10 -11.2 l 0 -10 l -17.5 17.5 l 1.2 1.2 l 6.3 -6.3 l 0 8.8 z"></path></g><g><path d="M 9.975000000000001 37.5 l 15.05 0 l 10 -10 l -17.45 0 l -8.75 8.8 q -6.9 -0.2 -3.8 6.15 l 4.95 -4.95 z"></path></g><path d="M 10 -35 l 10 -10 l -30 0 l -10 10 l 30 0 z"></path></g></g></g>
</svg>
