<svg xmlns="http://www.w3.org/2000/svg" viewBox="0 0 70 172.294907" width="70" height="172.294907" fill="currentColor" stroke="none">
<g transform="translate(35 86.147453)"><g><g><path d="M -10 -43.2 l -10 10 l 0 35 l 26.3 0 l 8.7 -8.75 l 0 33.75 l 10 -10 l 0 -36.15 l -11.15 11.15 l -23.85 0 l 0 -35 z"></path><g><path d="M -10 -28.200000000000003 l 0 -15 l -15 0 l -10 10 l 15 0 l 0 10 q 3.874 -7.753 10 -5 z"></path></g><g><path d="M 18.700000000000003 43.199999999999996 l 16.3 -16.3 l 0 -22.45 l -10 10 l 0 -5.15 q -5 6.1 -10 2.5 l 0 15 l 10 -10 l 0 17.7 l -7.5 7.5 l 1.2 1.2 z"></path></g></g></g></g>
</svg>
