<svg xmlns="http://www.w3.org/2000/svg" viewBox="0 0 594.05 150" width="594.05" height="150" fill="currentColor" stroke="none">
<g transform="translate(297.025 75)"><g><g><path d="M -269.025 -6.875000000000016 l 7.45 -7.5 27.05 34.4 7.5 -7.5 -27.8 -36 -7.75 7.8 -26.95 -34.3 -7.5 7.5 28 35.6 z"></path><path d="M -288.375 -42.475000000000016 q 1.328 -4.078 -0.8 -6.7 l 0.8 0.35 q 19.05 9.15 23.7 -6.2 q -7.65 9.4 -17.35 -2.45 l -15 15 q 4.648 1.323 8.65 0 z"></path><path d="M -252.02499999999998 -59.975000000000016 l 10 -10 l -30 0 l -10 10 l 30 0 z"></path></g><g><path d="M -207.02499999999998 -49.975000000000016 l -10 10 l 0 36.3 l 10 -10.05 l 0 33.75 l 10 -10 l 0 -36.15 l -10 10 l 0 -23.85 l 30 0 l 10 -10 l -40 0 z"></path><g><path d="M -197.02499999999998 27.624999999999986 l 0 -17.6 q -7.3 -5 -10 10 l 0 20 l 17.5 -17.5 l -1.2 -1.2 l -6.3 6.3 z"></path></g></g><g><path d="M -144.62499999999997 19.999999999999986 l 10 -10 l 0 -20 l 35 0 l 10 -10 l -29.95 -29.95 l -7.5 7.5 l 22.45 22.45 l -30 0 l -10 10 l 0 30 z"></path><g><path d="M -157.02499999999998 29.999999999999993 l 22.4 0 l 10 -10.1 l -19.9 0 l -0.1 0.1 l 0 -0.1 l 0.05 0 l 9.95 -9.9 l 0 -5 q -5 5.774 -10 5 l 0 7.55 l -12.4 12.4 z"></path></g><path d="M -113.32499999999996 65 l 0 -25 l -20 20 l 1.2 1.2 l 8.8 -8.8 l 0 22.6 l 10 -10 z"></path></g><g><path d="M 11.175000000000011 20.049999999999983 l 9.9 -9.95 l -47.35 -58.35 l -0.05 0 l -1.4 -1.75 l -7.5 7.5 l 42.7 52.55 l -52.05 0 l -10 10 l 65.75 0 z"></path><g><path d="M -54.57499999999999 20.04999999999999 l -15.05 0 l -10 10 l 17.45 0 l 9.95 -10 l 7.6 0 q -4.95 -4.2 6.25 -10 l -6.25 0 l -9.95 10 z"></path></g><path d="M -36.77499999999998 47.54999999999999 l 7.5 7.5 l 7.5 -7.5 l -7.5 -7.5 l -7.5 7.5 z"></path></g><g><path d="M 49.27499999999998 -49.975000000000016 l -10 10 l 0 60 l 10 -10 l 0 -60 z"></path><g><path d="M 51.07499999999999 31.82499999999998 l -11.8 -11.8 l 10 -10 l 0 -5 q -5.188 7.964 -10 5 l 0 7.7 l -8.2 8.2 l 13 12.9 l 7 -7 z"></path></g></g><g><path d="M 116.07499999999999 -49.95000000000002 l -10 10 l 0 20 l -35 0 l -10 10 l 29.95 29.95 l 7.5 -7.5 l -22.45 -22.45 l 30 0 l 10 -10 l 0 -30 z"></path><path d="M 98.57499999999999 -59.950000000000024 l 10 -10 l -30 0 l -10 10 l 30 0 z"></path></g><g><path d="M 133.575 -49.975000000000016 l -7.5 7.5 57.5 62.5 7.5 -7.5 -57.5 -62.5 z"></path><path d="M 186.075 17.524999999999984 l 5 -5 l 10 10 l 7.15 -7.15 l -11.3 -11.2 l -7 7.1 l -1 1 q -3.183 -1.742 -3.85 0 q -0.916 1.293 0 6.25 z"></path><path d="M 186.175 -39.975000000000016 l -8.8 8.8 l 1.2 1.2 l 20 -20 l -30 0 l -10 10 l 27.6 0 z"></path></g><g><path d="M 228.1249999999999 -50.000000000000014 l -9.9 9.95 l 47.35 58.35 l 0.05 0 l 1.4 1.75 l 7.5 -7.5 l -42.7 -52.55 l 52.05 0 l 10 -10 l -65.75 0 z"></path><g><path d="M 274.525 12.549999999999997 q -6.8 0.5 -7.5 7.5 l 15 15 l 15 -15 l -1.2 -1.2 l -7.5 7.5 l -13.8 -13.8 z"></path></g><path d="M 250.125 -67.50000000000001 l 7.5 7.5 l 7.5 -7.5 l -7.5 -7.5 l -7.5 7.5 z"></path><path d="M 267.625 55.04999999999999 l 10 -10 l -30 0 l -10 10 l 30 0 z"></path></g></g></g>
</svg>
