<svg xmlns="http://www.w3.org/2000/svg" viewBox="0 0 546.15 126.325" width="546.15" height="126.325" fill="currentColor" stroke="none">
<g transform="translate(273.075 63.1625)"><g><g><path d="M -250.67500000000004 -38.16249999999999 l -10 10 l 0 60 l 10 -10 l 0 -60 z"></path><g><path d="M -273.07500000000005 41.83750000000001 l 22.4 0 l 10 -10.1 l -19.9 0 l -0.1 0.1 l 0 -0.1 l 0.05 0 l 9.95 -9.9 l 0 -5 q -5 5.774 -10 5 l 0 7.55 l -12.4 12.4 z"></path></g></g><g><path d="M -215.62500000000006 -28.162499999999987 l 34.95 0 l 10 -10 l -50 0 l -10 10 l 25 25 l 0 35 l 10 -10 l 0 -30.05 l -19.95 -19.95 z"></path><g><path d="M -205.67500000000004 51.83750000000001 l 10 -10 l 0 -20 q -7.3 -5 -10 10 l 0 20 z"></path></g><path d="M -190.67500000000004 -48.16249999999999 l 10 -10 l -30 0 l -10 10 l 30 0 z"></path></g><g><path d="M -132.67500000000004 4.937500000000012 l 7.45 -7.5 27.05 34.4 7.5 -7.5 -27.8 -36 -7.75 7.8 -26.95 -34.3 -7.5 7.5 28 35.6 z"></path><path d="M -100.77500000000003 21.837500000000013 q -1.65 2.7 2.6 10 l 12.6 0 l -7.5 7.5 l 1.2 1.2 l 18.7 -18.7 l -20 0 q -7 -2.95 -7.6 0 z"></path></g><g><path d="M -55.67500000000007 -38.16249999999999 l -7.5 7.5 l 31.25 31.25 l -31.25 31.25 l 40 0 l 10 -10 l -37.6 0 l 27.5 -27.6 l -32.4 -32.4 z"></path></g><g><path d="M 36.82499999999993 31.837500000000013 l 10 -10 l 0 -36.3 l -10 10.05 l 0 -33.75 l -10 10 l 0 36.15 l 10 -10 l 0 23.85 l -30 0 l -10 10 l 40 0 z"></path><path d="M 14.324999999999932 -55.66249999999999 l 7.5 7.5 l 7.5 -7.5 l -7.5 -7.5 l -7.5 7.5 z"></path><path d="M 14.324999999999932 49.33750000000001 l 7.5 7.5 l 7.5 -7.5 l -7.5 -7.5 l -7.5 7.5 z"></path></g><g><path d="M 63.07499999999993 -28.162499999999987 q 24.3 9.1 15 21.3 l 1.25 1.15 q 15.85 -14.1 3.75 -22.45 l 20 0 l 17.5 -17.5 l -1.2 -1.2 l -8.7 8.7 l -37.6 0 l -10 10 z"></path><path d="M 66.82499999999993 -8.162499999999987 l -10 10 l 50 0 l 10 -10 l -50 0 z"></path></g><g><path d="M 175.57499999999993 1.8375000000000128 l 7.5 -7.5 -32.5 -32.5 -7.5 7.5 32.5 32.5 m -17.5 -10 l -7.5 7.5 32.5 32.5 7.5 -7.5 -32.5 -32.5 z"></path><path d="M 180.4749999999999 21.837500000000013 q -1.655 2.716 2.6 10 l 15 0 l 10 -10 l -20 0 q -7.015 -2.931 -7.6 0 z"></path><path d="M 140.57499999999993 14.337500000000013 l -10 10 l 0 25 l 10 -10 l 0 -25 z"></path><path d="M 176.82499999999993 -48.16249999999999 l 10 -10 l -30 0 l -10 10 l 30 0 z"></path></g><g><path d="M 273.07499999999993 -38.13749999999999 l -10 10 l 0 20 l -35 0 l -10 10 l 29.95 29.95 l 7.5 -7.5 l -22.45 -22.45 l 30 0 l 10 -10 l 0 -30 z"></path><g><path d="M 230.52499999999992 61.962499999999984 l 1.2 1.2 l 16.3 -16.3 l 0 -15.05 l 7.5 -7.5 q -11.45 -4.9 -8.7 6.3 l -8.8 8.9 l 0 14.95 l -7.5 7.5 z"></path></g></g></g></g>
</svg>
