<svg xmlns="http://www.w3.org/2000/svg" viewBox="0 0 67.4 172.294907" width="67.4" height="172.294907" fill="currentColor" stroke="none">
<g transform="translate(33.7 86.147453)"><g><g><path d="M 21.299999999999997 -45.649999999999984 l -10 10 l 0 20 l -35 0 l -10 10 l 29.95 29.95 l 7.5 -7.5 l -22.45 -22.45 l 30 0 l 10 -10 l 0 -30 z"></path><g><path d="M 21.299999999999997 -45.64999999999999 l 0 0.1 l -0.05 0 l -9.95 9.9 l 0 5 q 5 -5.75 10 -5 l 0 -7.55 l 12.4 -12.45 l -22.4 0 l -17.5 17.5 l 1.2 1.2 l 8.6 -8.6 l 17.6 0 l 0.1 -0.1 z"></path></g><g><path d="M -21.250000000000004 54.44999999999999 l 1.2 1.2 l 16.3 -16.3 l 0 -15.05 l 7.5 -7.5 q -11.45 -4.9 -8.7 6.3 l -8.8 8.9 l 0 14.95 l -7.5 7.5 z"></path></g></g></g></g>
</svg>
