<svg xmlns="http://www.w3.org/2000/svg" viewBox="0 0 658.75 126.35" width="658.75" height="126.35" fill="currentColor" stroke="none">
<g transform="translate(329.375 63.175)"><g><g><path d="M -319.37499999999994 -38.149999999999984 l -10 10 l 0 60 l 10 -10 l 0 -60 z"></path></g><g><path d="M -254.37499999999994 -38.124999999999986 l -10 10 l 0 20 l -35 0 l -10 10 l 29.95 29.95 l 7.5 -7.5 l -22.45 -22.45 l 30 0 l 10 -10 l 0 -30 z"></path><g><path d="M -280.32499999999993 30.224999999999994 l -11.2 11.3 l 22.4 0 l 10 -10.1 l -19.9 0 l 7.1 -7.1 q -10.446 -1.157 -8.4 5.9 z"></path></g><path d="M -271.87499999999994 -48.12499999999999 l 10 -10 l -30 0 l -10 10 l 30 0 z"></path></g><g><path d="M -211.82499999999993 -38.149999999999984 l -7.5 7.5 57.5 62.5 7.5 -7.5 -57.5 -62.5 z"></path><path d="M -219.32499999999993 -30.649999999999984 l -15.05 0 l -10 10 l 17.45 0 l 8.75 -8.8 q 6.9 0.2 3.8 -6.15 l -4.95 4.95 z"></path><path d="M -159.22499999999994 -28.149999999999984 l -8.8 8.8 l 1.2 1.2 l 20 -20 l -30 0 l -10 10 l 27.6 0 z"></path><path d="M -194.32499999999993 -55.649999999999984 l 7.5 7.5 l 7.5 -7.5 l -7.5 -7.5 l -7.5 7.5 z"></path></g><g><path d="M -81.82499999999996 -38.124999999999986 l -10 10 l 0 20 l -35 0 l -10 10 l 29.95 29.95 l 7.5 -7.5 l -22.45 -22.45 l 30 0 l 10 -10 l 0 -30 z"></path><g><path d="M -124.37499999999997 61.97499999999999 l 1.2 1.2 l 16.3 -16.3 l 0 -15.05 l 7.5 -7.5 q -11.45 -4.9 -8.7 6.3 l -8.8 8.9 l 0 14.95 l -7.5 7.5 z"></path></g></g><g><path d="M -53.02499999999998 31.825000000000017 l 10 -10 l 0 -20 l 35 0 l 10 -10 l -29.95 -29.95 l -7.5 7.5 l 22.45 22.45 l -30 0 l -10 10 l 0 30 z"></path><g><path d="M -43.02499999999998 21.825000000000024 l 0 -5 q -6.25 9 -10 5 l 0 7.6 l -11.8 -11.7 l -7 7 l 12.95 12.95 l 15.85 -15.85 z"></path></g><path d="M -42.424999999999955 55.17500000000003 l 7.5 7.5 l 7.5 -7.5 l -7.5 -7.5 l -7.5 7.5 z"></path></g><g><path d="M 92.72500000000002 31.875000000000014 l 9.9 -9.95 l -47.35 -58.35 l -0.05 0 l -1.4 -1.75 l -7.5 7.5 l 42.7 52.55 l -52.05 0 l -10 10 l 65.75 0 z"></path><g><path d="M 31.975000000000023 21.87500000000002 l -12.5 -12.5 l -7.5 7.5 l 15 15 q 8.65 -2.75 10 -10 l -5 0 z"></path></g><path d="M 49.80000000000001 -55.67499999999999 l 7.5 7.5 l 7.5 -7.5 l -7.5 -7.5 l -7.5 7.5 z"></path><path d="M 49.80000000000001 49.37500000000002 l 7.5 7.5 l 7.5 -7.5 l -7.5 -7.5 l -7.5 7.5 z"></path></g><g><path d="M 124.42500000000001 -38.149999999999984 l -10 10 l 0 60 l 10 -10 l 0 -60 z"></path><g><path d="M 112.625 -49.94999999999998 l 11.8 11.8 l -10 10 l 0 5 q 5.188 -7.964 10 -5 l 0 -7.7 l 8.2 -8.2 l -13 -12.9 l -7 7 z"></path></g><g><path d="M 114.42500000000001 16.850000000000016 l 0 15 l 10 -10 l 0 20 l 10 -9.9 l 0 -22.4 l -10 9.95 l 0 -5.15 q -5 6.1 -10 2.5 z"></path></g></g><g><path d="M 154.425 -38.149999999999984 l -10 10 l 0 60 l 10 -10 l 0 -50 l 30 0 l 10 -10 l -40 0 z"></path><g><path d="M 154.425 10.650000000000016 q -5 12.14 -10 11.2 l 0 10 l 17.5 -17.5 l -1.2 -1.2 l -6.3 6.3 l 0 -8.8 z"></path></g><path d="M 179.425 -48.149999999999984 l 10 -10 l -30 0 l -10 10 l 30 0 z"></path></g><g><path d="M 226.825 -38.149999999999984 l -10 10 l 0 60 l 10 -10 l 0 -60 z"></path><g><path d="M 204.425 41.850000000000016 l 22.4 0 l 10 -10.1 l -19.9 0 l -0.1 0.1 l 0 -0.1 l 0.05 0 l 9.95 -9.9 l 0 -5 q -5 5.774 -10 5 l 0 7.55 l -12.4 12.4 z"></path></g></g><g><path d="M 289.37499999999994 -38.149999999999984 l -10 10 l 0 60 l 10 -10 l 0 -50 l 30 0 l 10 -10 l -40 0 z"></path><g><path d="M 289.37499999999994 21.850000000000016 l 0 -7.3 q -4.546 5.888 -10 3.05 l 0 11.95 l -15.05 0 l -17.5 17.5 l 1.2 1.2 l 8.7 -8.7 l 15 0 l 17.65 -17.7 z"></path></g><path d="M 298.09999999999997 -48.149999999999984 l 10 -10 l -30 0 l -10 10 l 30 0 z"></path></g></g></g>
</svg>
