<svg xmlns="http://www.w3.org/2000/svg" viewBox="0 0 357.05 152.65" width="357.05" height="152.65" fill="currentColor" stroke="none">
<g transform="translate(178.525 76.325)"><g><g><path d="M -141.72500000000002 1.8000000000000025 l 7.45 -7.5 27.05 34.4 7.5 -7.5 -27.8 -36 -7.75 7.8 -26.95 -34.3 -7.5 7.5 28 35.6 z"></path><path d="M -168.525 -32.599999999999994 q 4.2 0.65 6.3 -2.7 q 0.8 -1 0 -6 l -6.3 6.3 l 0 -19.95 l -10 10.1 l 0 22.35 l 10 -10.1 z"></path><path d="M -109.82500000000002 18.700000000000003 q -1.655 2.716 2.6 10 l 15 0 l 10 -10 l -20 0 q -7.015 -2.931 -7.6 0 z"></path></g><g><path d="M -22.224999999999994 -31.299999999999997 l 10 -10 l -50 0 l -10 10 l 0 30 l 30 0 l 0 30 l 10 -10 l 0 -30 l -30 0 l 0 -20 l 40 0 z"></path></g><g><path d="M 71.12500000000003 28.725 l 9.9 -9.95 l -47.35 -58.35 l -0.05 0 l -1.4 -1.75 l -7.5 7.5 l 42.7 52.55 l -52.05 0 l -10 10 l 65.75 0 z"></path><g><path d="M 24.724999999999994 -33.825 q 6.8 -0.5 7.5 -7.5 l -15 -15 l -15 15 l 1.2 1.2 l 7.5 -7.5 l 13.8 13.8 z"></path></g><g><path d="M 13.025000000000006 28.72500000000001 q -0.465 -4.718 7.9 -10 l -5.55 0 l -17.6 17.6 l 0 15 l 10 -10 l 0 -12.6 l 5.25 0 z"></path></g><path d="M 49.400000000000006 -66.325 l 10 -10 l -30 0 l -10 10 l 30 0 z"></path><path d="M 31.900000000000006 68.825 l 7.5 7.5 l 7.5 -7.5 l -7.5 -7.5 l -7.5 7.5 z"></path></g><g><path d="M 111.025 -17.449999999999996 l -10 10 l 0 -33.85 l -10 10 l 0 36.2 l 10 -9.95 l 0 33.75 l 10 -10 l 0 -36.15 z"></path><g><path d="M 111.025 36.300000000000004 l 0 -17.6 q -7.3 -5 -10 10 l 0 20 l 17.5 -17.5 l -1.2 -1.2 l -6.3 6.3 z"></path></g></g><g><path d="M 168.525 28.700000000000003 l 10 -10 l 0 -60 l -10 10 l 0 50 l -30 0 l -10 10 l 40 0 z"></path><g><path d="M 148.42499999999998 11.200000000000003 l -1.2 -1.2 l -18.7 18.7 l 10 0 q -0.85 -5.4 10 -10 l -7.6 0 l 7.5 -7.5 z"></path></g><path d="M 163.525 48.7 l 10 -10 l -30 0 l -10 10 l 30 0 z"></path></g></g></g>
</svg>
