<svg xmlns="http://www.w3.org/2000/svg" viewBox="0 0 197.4 100.225" width="197.4" height="100.225" fill="currentColor" stroke="none">
<g transform="translate(98.7 50.1125)"><g><g><path d="M -78.7 -29.887499999999996 l -10 10 l 0 60 l 10 -10 l 0 -60 z"></path><g><path d="M -78.7 -14.887499999999996 l 0 -15 l -10 10 l 0 -20 l -10 9.9 l 0 22.4 l 10 -9.95 l 0 5.15 q 5 -6.1 10 -2.5 z"></path></g><g><path d="M -88.7 25.112500000000004 l 0 15 l 10 -10 l 0 20 l 10 -9.9 l 0 -22.4 l -10 9.95 l 0 -5.15 q -5 6.1 -10 2.5 z"></path></g></g><g><path d="M -18.700000000000003 9.737500000000004 l 10 -10 l -29.85 -29.85 l -7.5 7.5 l 22.35 22.35 l -20 0 l -15 15 l 25.6 25.6 l 7.5 -7.5 l -23.1 -23.1 l 30 0 z"></path><path d="M -23.700000000000003 -40.1125 l 10 -10 l -30 0 l -10 10 l 30 0 z"></path></g><g><path d="M 23.700000000000003 -29.887499999999996 l -10 10 l 0 60 l 10 -10 l 0 -60 z"></path><g><path d="M 1.2999999999999972 50.112500000000004 l 22.4 0 l 10 -10.1 l -19.9 0 l -0.1 0.1 l 0 -0.1 l 0.05 0 l 9.95 -9.9 l 0 -5 q -5 5.774 -10 5 l 0 7.55 l -12.4 12.4 z"></path></g></g><g><path d="M 98.7 -29.862499999999997 l -10 10 l 0 20 l -35 0 l -10 10 l 29.95 29.95 l 7.5 -7.5 l -22.45 -22.45 l 30 0 l 10 -10 l 0 -30 z"></path><path d="M 81.2 -39.862500000000004 l 10 -10 l -30 0 l -10 10 l 30 0 z"></path></g></g></g>
</svg>
