<svg xmlns="http://www.w3.org/2000/svg" viewBox="0 0 327.65 139.95" width="327.65" height="139.95" fill="currentColor" stroke="none">
<g transform="translate(163.825 69.975)"><g><g><path d="M -135.825 -1.8999999999999861 l 7.45 -7.5 27.05 34.4 7.5 -7.5 -27.8 -36 -7.75 7.8 -26.95 -34.3 -7.5 7.5 28 35.6 z"></path><path d="M -126.32499999999999 45.000000000000014 l 10 -10 l -30 0 l -10 10 l 30 0 z"></path></g><g><path d="M -68.77499999999999 -34.999999999999986 l 34.95 0 l 10 -10 l -50 0 l -10 10 l 25 25 l 0 35 l 10 -10 l 0 -30.05 l -19.95 -19.95 z"></path><g><path d="M -38.82499999999999 -34.999999999999986 l 5 0 l 7.6 -7.6 l 0 19.95 l 10 -9.9 l 0 -22.45 l -10 10 l -12.6 0 q 3.5 4 0 10 z"></path></g><g><path d="M -48.82499999999999 32.600000000000016 l 0 -17.6 q -7.3 -5 -10 10 l 0 20 l 17.5 -17.5 l -1.2 -1.2 l -6.3 6.3 z"></path></g></g><g><path d="M 48.775000000000006 -44.97499999999999 l -10 10 l 0 20 l -35 0 l -10 10 l 29.95 29.95 l 7.5 -7.5 l -22.45 -22.45 l 30 0 l 10 -10 l 0 -30 z"></path><path d="M 13.775000000000006 -62.474999999999994 l 7.5 7.5 l 7.5 -7.5 l -7.5 -7.5 l -7.5 7.5 z"></path><path d="M 11.275000000000006 44.974999999999994 l 0 25 l 20 -20 l -1.2 -1.2 l -8.8 8.8 l 0 -22.6 l -10 10 z"></path></g><g><path d="M 68.775 -44.999999999999986 l -10 10 l 0 60 l 10 -10 l 0 -60 z"></path><g><path d="M 68.82500000000002 -42.69999999999999 l 15 0 l 10 -10 l -17.4 0 l -17.65 17.7 l 0 7.3 q 5.4 -4.35 10 -2.75 l 0 -12.25 z"></path></g></g><g><path d="M 153.825 -34.999999999999986 l 10 -10 l -50 0 l -10 10 l 0 35 l 10 -10 l 15 0 l 0 35 l 10 -10 l 0 -35 l -17.35 0 l -7.65 7.6 l 0 -22.6 l 40 0 z"></path><path d="M 143.825 -54.999999999999986 l 10 -10 l -30 0 l -10 10 l 30 0 z"></path></g></g></g>
</svg>
