<svg xmlns="http://www.w3.org/2000/svg" viewBox="0 0 96.8 90" width="96.8" height="90" fill="currentColor" stroke="none">
<g transform="translate(48.4 45)"><g><g><path d="M -36.599999999999994 -25 l -10 10 l 0 60 l 10 -10 l 0 -60 z"></path><g><path d="M -48.4 -36.8 l 11.8 11.8 l -10 10 l 0 5 q 5.188 -7.964 10 -5 l 0 -7.7 l 8.2 -8.2 l -13 -12.9 l -7 7 z"></path></g><g><path d="M -46.599999999999994 30 l 0 15 l 15 0 l 10 -10 l -15 0 l 0 -10 q -3.874 7.753 -10 5 z"></path></g></g><g><path d="M 38.4 -15 l 10 -10 l -50 0 l -10 10 l 0 35 l 10 -10 l 15 0 l 0 35 l 10 -10 l 0 -35 l -17.35 0 l -7.65 7.6 l 0 -22.6 l 40 0 z"></path><path d="M 28.4 -35 l 10 -10 l -30 0 l -10 10 l 30 0 z"></path></g></g></g>
</svg>
