<svg xmlns="http://www.w3.org/2000/svg" viewBox="0 0 630.1 126.4" width="630.1" height="126.4" fill="currentColor" stroke="none">
<g transform="translate(315.05 63.2)"><g><g><path d="M -307.55000000000007 -43.2 l -7.5 7.5 57.5 62.5 7.5 -7.5 -57.5 -62.5 z"></path></g><g><path d="M -182.50000000000006 -33.2 l 10 -10 l -50 0 l -10 10 l 0 35 l 10 -10 l 15 0 l 0 35 l 10 -10 l 0 -35 l -17.35 0 l -7.65 7.6 l 0 -22.6 l 40 0 z"></path><g><path d="M -197.50000000000006 16.799999999999997 l 0 -7.3 q -4.546 5.888 -10 3.05 l 0 11.95 l -15.05 0 l -17.5 17.5 l 1.2 1.2 l 8.7 -8.7 l 15 0 l 17.65 -17.7 z"></path></g><path d="M -196.27500000000006 63.2 l 10 -10 l -30 0 l -10 10 l 30 0 z"></path></g><g><path d="M -146.20000000000005 -43.2 l -7.5 7.5 57.5 62.5 7.5 -7.5 -57.5 -62.5 z"></path><path d="M -152.50000000000006 -34.5 q 6.486 1.216 4.75 -5 q -2.924 3.894 -5.95 3.8 l -8.8 8.8 l 0 15 l 10 -10 l 0 -12.6 z"></path><path d="M -143.70000000000005 9.299999999999997 l -10 10 l 0 25 l 10 -10 l 0 -25 z"></path></g><g><path d="M -68.70000000000005 -43.2 l -10 10 l 0 30 l 30 30 l 7.5 -7.5 l -27.5 -27.5 l 0 -35 z"></path></g><g><path d="M -31.150000000000034 26.799999999999997 l 50 0 l 9.4 -9.4 l -23.2 -33.05 l -6.2 6.25 l 0 -33.8 l -10 10 l 0 36.15 l 1.1 -1.1 q 2.967 -2.977 5.95 -5.95 l 1.95 -2 l 0.65 -0.65 l 16.5 23.5 l -36.2 0 l -10 10 z"></path><path d="M 8.524999999999977 -53.199999999999996 l 10 -10 l -30 0 l -10 10 l 30 0 z"></path><path d="M -8.975000000000023 44.300000000000004 l 7.5 7.5 l 7.5 -7.5 l -7.5 -7.5 l -7.5 7.5 z"></path></g><g><path d="M 48.24999999999994 -43.2 l -10 10 l 0 60 l 10 -10 l 0 -60 z"></path><g><path d="M 38.24999999999994 11.799999999999997 l 0 15 l 15 0 l 10 -10 l -15 0 l 0 -10 q -3.874 7.753 -10 5 z"></path></g></g><g><path d="M 100.39999999999992 -43.125 l -10 10 l 0 40 l 9.55 -9.55 l 20.65 29.4 l 7.5 -7.5 l -21.6 -30.85 l -6.1 6.1 l 0 -37.6 z"></path><g><path d="M 90.74999999999994 -31.025000000000006 q 0.375 -0.363 1.15 -1.15 q 6.261 -1.099 8.5 3.8 l 0 -14.75 l -10 10 l -10 -10 l -7.15 7.15 l 11.3 11.2 l 5.85 -5.9 q 0.04 -0.029 0.35 -0.35 z"></path></g><g><path d="M 128.09999999999997 19.224999999999987 q -6.8 0.5 -7.5 7.5 l 15 15 l 15 -15 l -1.2 -1.2 l -7.5 7.5 l -13.8 -13.8 z"></path></g><path d="M 121.92499999999995 -53.12500000000001 l 10 -10 l -30 0 l -10 10 l 30 0 z"></path></g><g><path d="M 213.10000000000002 -3.200000000000003 l 7.5 -7.5 -32.5 -32.5 -7.5 7.5 32.5 32.5 m -17.5 -10 l -7.5 7.5 32.5 32.5 7.5 -7.5 -32.5 -32.5 z"></path><path d="M 217.9999999999999 16.799999999999997 q -1.655 2.716 2.6 10 l 15 0 l 10 -10 l -20 0 q -7.015 -2.931 -7.6 0 z"></path><path d="M 190.59999999999997 26.799999999999997 l 10 -10 l -30 0 l -10 10 l 30 0 z"></path><path d="M 214.35000000000002 -53.2 l 10 -10 l -30 0 l -10 10 l 30 0 z"></path></g><g><path d="M 315 -43.2 l -50 0 l -9.4 9.4 l 23.2 33.05 l 6.2 -6.25 l 0 33.8 l 10 -10 l 0 -36.15 l -1.1 1.1 q -2.967 2.977 -5.95 5.95 l -1.95 2 l -0.65 0.65 l -16.5 -23.5 l 36.2 0 l 10 -10 z"></path><g><path d="M 285 11.799999999999997 l 0 15 l 12.6 0 l -7.5 7.5 l 1.2 1.2 l 18.7 -18.7 l -15 0 l 0 -10 q -3.85 7.75 -10 5 z"></path></g></g></g></g>
</svg>
