<svg xmlns="http://www.w3.org/2000/svg" viewBox="0 0 319.4 116.225" width="319.4" height="116.225" fill="currentColor" stroke="none">
<g transform="translate(159.7 58.1125)"><g><g><path d="M -152.2 -49.4125 l -7.5 7.5 57.5 62.5 7.5 -7.5 -57.5 -62.5 z"></path><path d="M -124.69999999999999 40.5875 l 10 -10 l -30 0 l -10 10 l 30 0 z"></path></g><g><path d="M -29.69999999999999 -49.3875 l -10 10 l 0 20 l -35 0 l -10 10 l 29.95 29.95 l 7.5 -7.5 l -22.45 -22.45 l 30 0 l 10 -10 l 0 -30 z"></path><g><path d="M -29.69999999999999 -34.38750000000001 l 0 -15 l -15 0 l -17.5 17.5 l 1.2 1.2 l 8.7 -8.7 l 12.6 0 l 0 10 q 3.85 -7.75 10 -5 z"></path></g><g><path d="M -52.249999999999986 18.06249999999998 l 5 -5 l 10 10 l 7.15 -7.15 l -11.3 -11.2 l -7 7.1 l -1 1 q -3.183 -1.742 -3.85 0 q -0.916 1.293 0 6.25 z"></path></g></g><g><path d="M 0.30000000000001137 -25.5625 l -10 10 l 0 -33.85 l -10 10 l 0 36.2 l 10 -9.95 l 0 33.75 l 10 -10 l 0 -36.15 z"></path><g><path d="M -9.699999999999989 40.5875 l 10 -10 l 0 -20 q -7.3 -5 -10 10 l 0 20 z"></path></g></g><g><path d="M 20.19999999999999 -49.4375 l -9.9 9.95 l 47.35 58.35 l 0.05 0 l 1.4 1.75 l 7.5 -7.5 l -42.7 -52.55 l 52.05 0 l 10 -10 l -65.75 0 z"></path><path d="M 34.375 38.11250000000001 l 20 20 l 7.5 -7.5 l -20 -20 l -7.5 7.5 z"></path></g><g><path d="M 102.19999999999999 -39.4125 q 24.3 9.1 15 21.3 l 1.25 1.15 q 15.85 -14.1 3.75 -22.45 l 20 0 l 17.5 -17.5 l -1.2 -1.2 l -8.7 8.7 l -37.6 0 l -10 10 z"></path><path d="M 105.94999999999999 -19.4125 l -10 10 l 50 0 l 10 -10 l -50 0 z"></path></g></g></g>
</svg>
