<svg xmlns="http://www.w3.org/2000/svg" viewBox="0 0 75 98.65" width="75" height="98.65" fill="currentColor" stroke="none">
<g transform="translate(37.5 49.325)"><g><g><path d="M -27.5 -29.349999999999987 l -10 10 l 0 60 l 10 -10 l 0 -60 z"></path></g><g><path d="M 37.5 -29.32499999999999 l -10 10 l 0 20 l -35 0 l -10 10 l 29.95 29.95 l 7.5 -7.5 l -22.45 -22.45 l 30 0 l 10 -10 l 0 -30 z"></path><g><path d="M 9.850000000000001 30.624999999999993 q -1.65 2.7 2.6 10 l 12.6 0 l -7.5 7.5 l 1.2 1.2 l 18.7 -18.7 l -20 0 q -7 -2.95 -7.6 0 z"></path></g><path d="M 20 -39.324999999999996 l 10 -10 l -30 0 l -10 10 l 30 0 z"></path></g></g></g>
</svg>
