<svg xmlns="http://www.w3.org/2000/svg" viewBox="0 0 71.7 172.294907" width="71.7" height="172.294907" fill="currentColor" stroke="none">
<g transform="translate(35.85 86.147453)"><g><g><path d="M -4.649999999999999 -29.295315958492488 l -10 10 l 0 40 l 9.55 -9.55 l 20.65 29.4 l 7.5 -7.5 l -21.6 -30.85 l -6.1 6.1 l 0 -37.6 z"></path><g><path d="M -4.649999999999999 -13.645315958492496 l 0 -15.65 l -10 10 q -9.4 -17.75 -21.2 -6.85 q 12.25 -2.15 14.85 15.5 l 6.35 -6.3 l 0 8.1 q 4.8 -9.5 10 -4.8 z"></path></g><g><path d="M 14.650000000000006 38.9546840415075 l -11.2 11.3 l 22.4 0 l 10 -10.1 l -19.9 0 l 7.1 -7.1 q -10.446 -1.157 -8.4 5.9 z"></path></g><path d="M 10 -40.254684041507495 l 10 -10 l -30 0 l -10 10 l 30 0 z"></path></g></g></g>
</svg>
