<svg xmlns="http://www.w3.org/2000/svg" viewBox="0 0 150 115" width="150" height="115" fill="currentColor" stroke="none">
<g transform="translate(75 57.5)"><g><g><path d="M -60 -32.5 l -7.5 7.5 57.5 62.5 7.5 -7.5 -57.5 -62.5 z"></path><path d="M -45 37.5 l 10 -10 l -30 0 l -10 10 l 30 0 z"></path><path d="M -7.400000000000006 -22.5 l -8.8 8.8 l 1.2 1.2 l 20 -20 l -30 0 l -10 10 l 27.6 0 z"></path><path d="M -25 -42.5 l 10 -10 l -30 0 l -10 10 l 30 0 z"></path></g><g><path d="M 30.049999999999997 -22.5 l 34.95 0 l 10 -10 l -50 0 l -10 10 l 25 25 l 0 35 l 10 -10 l 0 -30.05 l -19.95 -19.95 z"></path><path d="M 37.5 -50 l 7.5 7.5 l 7.5 -7.5 l -7.5 -7.5 l -7.5 7.5 z"></path><path d="M 55 57.5 l 10 -10 l -30 0 l -10 10 l 30 0 z"></path></g></g></g>
</svg>
