<svg xmlns="http://www.w3.org/2000/svg" viewBox="0 0 385.05 115" width="385.05" height="115" fill="currentColor" stroke="none">
<g transform="translate(192.525 57.5)"><g><g><path d="M -182.525 -37.5 l -10 10 l 0 60 l 10 -10 l 0 -60 z"></path><g><path d="M -192.525 17.5 l 0 15 l 15 0 l 10 -10 l -15 0 l 0 -10 q -3.874 7.753 -10 5 z"></path></g></g><g><path d="M -147.525 -37.5 l -10 10 l 0 60 l 10 -10 l 0 -50 l 30 0 l 10 -10 l -40 0 z"></path><g><path d="M -122.525 -37.5 l 15 0 l 0 15 l -10 10 l 0 -15 l -10 0 q 7.753 -3.874 5 -10 z"></path></g><g><path d="M -157.525 16.85 l 0 15.65 l 10 -10.05 q 10.8 2.6 16.2 18.85 q 0.35 -21.9 -9.85 -27.5 l -6.35 6.35 l 0 -8.1 q -4.8 9.5 -10 4.8 z"></path></g><path d="M -122.525 -47.5 l 10 -10 l -30 0 l -10 10 l 30 0 z"></path></g><g><path d="M -77.525 -13.65 l -10 10 l 0 -33.85 l -10 10 l 0 36.2 l 10 -9.95 l 0 33.75 l 10 -10 l 0 -36.15 z"></path><g><path d="M -87.525 52.5 l 10 -10 l 0 -20 q -7.3 -5 -10 10 l 0 20 z"></path></g></g><g><path d="M -57.525000000000006 -37.5 l -10 10 l 0 60 l 10 -10 l 0 -60 z"></path></g><g><path d="M -4.974999999999994 -37.5 l -10 10 l 0 60 l 10 -10 l 0 -50 l 30 0 l 10 -10 l -40 0 z"></path><g><path d="M 12.625 -17.5 l 22.4 0 l 17.5 -17.5 l -1.2 -1.2 l -8.7 8.7 l -17.6 0 l 10 -10 l -12.65 0 q 5.5 3.45 -5.3 10 l 5.5 0 l -9.95 10 z"></path></g><g><path d="M -4.974999999999994 22.5 l 0 -7.3 q -4.546 5.888 -10 3.05 l 0 11.95 l -15.05 0 l -17.5 17.5 l 1.2 1.2 l 8.7 -8.7 l 15 0 l 17.65 -17.7 z"></path></g><path d="M 12.5 -47.5 l 10 -10 l -30 0 l -10 10 l 30 0 z"></path></g><g><path d="M 70.025 -37.5 l -7.5 7.5 57.5 62.5 7.5 -7.5 -57.5 -62.5 z"></path><path d="M 62.525000000000006 12.5 l 20 20 l 7.5 -7.5 l -20 -20 l -7.5 7.5 z"></path><path d="M 80.025 50 l 7.5 7.5 l 7.5 -7.5 l -7.5 -7.5 l -7.5 7.5 z"></path></g><g><path d="M 192.525 -37.475 l -10 10 l 0 20 l -35 0 l -10 10 l 29.95 29.95 l 7.5 -7.5 l -22.45 -22.45 l 30 0 l 10 -10 l 0 -30 z"></path></g></g></g>
</svg>
