<svg xmlns="http://www.w3.org/2000/svg" viewBox="0 0 45 172.294907" width="45" height="172.294907" fill="currentColor" stroke="none">
<g transform="translate(22.5 86.147453)"><g><g><path d="M -12.5 -54.574999999999996 l -10 10 l 0 30 l 30 30 l 7.5 -7.5 l -27.5 -27.5 l 0 -35 z"></path><g><path d="M -22.5 -44.574999999999996 l 0 5 q 6.25 -9 10 -5 l 0 -7.6 l 11.8 11.7 l 7 -7 l -12.95 -12.95 l -15.85 15.85 z"></path></g><g><path d="M 8.600000000000001 12.375000000000004 q 3.28 -1.825 6.4 -4.45 l 7.5 -7.5 l -1.2 -1.2 l -7.5 7.5 q -4.106 -1.688 -4.55 -0.35 q -0.6 1.45 -0.65 6 z"></path></g><path d="M -10 35.425 l 0 25 l 20 -20 l -1.2 -1.2 l -8.8 8.8 l 0 -22.6 l -10 10 z"></path></g></g></g>
</svg>
