<svg xmlns="http://www.w3.org/2000/svg" viewBox="0 0 82.5 172.294907" width="82.5" height="172.294907" fill="currentColor" stroke="none">
<g transform="translate(41.25 86.147453)"><g><g><path d="M -33.75 -16.25 l -7.5 7.5 57.5 62.5 7.5 -7.5 -57.5 -62.5 z"></path><path d="M -32.6 -15.100000000000001 l 15.05 0 l 10 -10 l -17.45 0 l -8.75 8.85 q -1.75 3.2 -4.85 7.2 q 5.7 0.35 6 -6.05 z"></path><path d="M 13.649999999999999 43.75 q -1.655 2.716 2.6 10 l 15 0 l 10 -10 l -20 0 q -7.015 -2.931 -7.6 0 z"></path><path d="M 18.85 -6.25 l -8.8 8.8 l 1.2 1.2 l 20 -20 l -30 0 l -10 10 l 27.6 0 z"></path><path d="M -22.5 -46.25 l 20 20 l 7.5 -7.5 l -20 -20 l -7.5 7.5 z"></path></g></g></g>
</svg>
