<svg xmlns="http://www.w3.org/2000/svg" viewBox="0 0 50.6 172.294907" width="50.6" height="172.294907" fill="currentColor" stroke="none">
<g transform="translate(25.3 86.147453)"><g><g><path d="M 14.7 4.025000000000006 l 10 -10 l -29.85 -29.85 l -7.5 7.5 l 22.35 22.35 l -20 0 l -15 15 l 25.6 25.6 l 7.5 -7.5 l -23.1 -23.1 l 30 0 z"></path><g><path d="M -16.95 -47.625 l 11.8 11.8 l -5 5 q 7.681 1.687 7.1 -0.5 l -0.95 -3.35 l 7.05 -7.05 l -13 -12.9 z"></path></g><g><path d="M -2.3000000000000007 24.625000000000007 q -1.655 2.716 2.6 10 l 15 0 l 10 -10 l -20 0 q -7.015 -2.931 -7.6 0 z"></path></g><path d="M 9.999999999999996 54.625 l 10 -10 l -30 0 l -10 10 l 30 0 z"></path></g></g></g>
</svg>
