<svg xmlns="http://www.w3.org/2000/svg" viewBox="0 0 479.6 130.05" width="479.6" height="130.05" fill="currentColor" stroke="none">
<g transform="translate(239.8 65.025)"><g><g><path d="M -232.3 -40.00000000000001 l -7.5 7.5 57.5 62.5 7.5 -7.5 -57.5 -62.5 z"></path></g><g><path d="M -105.40000000000003 -40.00000000000001 l -50 0 l -9.4 9.4 l 23.2 33.05 l 6.2 -6.25 l 0 33.8 l 10 -10 l 0 -36.15 l -1.1 1.1 q -2.967 2.977 -5.95 5.95 l -1.95 2 l -0.65 0.65 l -16.5 -23.5 l 36.2 0 l 10 -10 z"></path><g><path d="M -119.00000000000001 -40.00000000000001 q 2.585 3.848 -6.35 10 l 7.65 0 l -6.3 6.35 q 5.6 10.2 27.5 9.85 q -16.25 -5.4 -18.85 -16.2 l 10 -10 l -13.65 0 z"></path></g><g><path d="M -105.40000000000003 29.999999999999993 l -15 0 l 10 -10 l -15 0 l 0 -10 q -3.85 7.75 -10 5 l 0 15 l 12.55 0 l -9.95 10 l 17.4 0 l 10 -10 z"></path></g></g><g><path d="M -76.60000000000002 -40.025000000000006 l -9.9 9.95 l 47.35 58.35 l 0.05 0 l 1.4 1.75 l 7.5 -7.5 l -42.7 -52.55 l 52.05 0 l 10 -10 l -65.75 0 z"></path><g><path d="M -30.200000000000017 22.525000000000006 q -6.8 0.5 -7.5 7.5 l 15 15 l 15 -15 l -1.2 -1.2 l -7.5 7.5 l -13.8 -13.8 z"></path></g><path d="M -54.60000000000002 -57.525000000000006 l 7.5 7.5 l 7.5 -7.5 l -7.5 -7.5 l -7.5 7.5 z"></path><path d="M -37.10000000000002 65.025 l 10 -10 l -30 0 l -10 10 l 30 0 z"></path></g><g><path d="M 34.80000000000001 -42.50000000000001 l 12.5 12.5 l -25 0 l -10 10 l 40 0 l 10 -10 l -20 -20 l -7.5 7.5 z"></path><path d="M 12.299999999999983 -10.000000000000007 l -10 10 l 50 0 l 10 -10 l -50 0 z"></path></g><g><path d="M 79.80000000000001 -40.00000000000001 l -7.5 7.5 57.5 62.5 7.5 -7.5 -57.5 -62.5 z"></path><path d="M 107.30000000000001 49.99999999999999 l 10 -10 l -30 0 l -10 10 l 30 0 z"></path></g><g><path d="M 202.3 -39.97500000000001 l -10 10 l 0 20 l -35 0 l -10 10 l 29.95 29.95 l 7.5 -7.5 l -22.45 -22.45 l 30 0 l 10 -10 l 0 -30 z"></path><g><path d="M 202.3 -24.975000000000016 l 0 -15 l -12.6 0 l 7.5 -7.5 l -1.2 -1.2 l -18.7 18.7 l 15 0 l 0 10 q 3.85 -7.75 10 -5 z"></path></g><g><path d="M 184.75 22.474999999999973 l 15.05 0 l 10 -10 l -17.45 0 l -8.75 8.8 q -6.9 -0.2 -3.8 6.15 l 4.95 -4.95 z"></path></g></g><g><path d="M 239.8 -16.150000000000006 l -10 10 l 0 -33.85 l -10 10 l 0 36.2 l 10 -9.95 l 0 33.75 l 10 -10 l 0 -36.15 z"></path><g><path d="M 229.8 49.99999999999999 l 10 -10 l 0 -20 q -7.3 -5 -10 10 l 0 20 z"></path></g></g></g></g>
</svg>
