<svg xmlns="http://www.w3.org/2000/svg" viewBox="0 0 67.5 172.294907" width="67.5" height="172.294907" fill="currentColor" stroke="none">
<g transform="translate(33.75 86.147453)"><g><g><path d="M -18.700000000000003 -20.65 l 34.95 0 l 10 -10 l -50 0 l -10 10 l 25 25 l 0 35 l 10 -10 l 0 -30.05 l -19.95 -19.95 z"></path><g><path d="M 6.25 -20.65 l 10 0 l 17.5 -17.5 l -1.2 -1.2 l -8.7 8.7 l -7.6 0 q 0.83 5.4 -10 10 z"></path></g><g><path d="M 1.25 29.35 l 15 0 l 10 -10 l -17.45 0 l -7.6 7.6 l 0.05 -5.05 q -4.6 6.3 -10 4 l 0 13.45 l 9.95 -10 z"></path></g></g></g></g>
</svg>
