<svg xmlns="http://www.w3.org/2000/svg" viewBox="0 0 306.35 130.05" width="306.35" height="130.05" fill="currentColor" stroke="none">
<g transform="translate(153.175 65.025)"><g><g><path d="M -145.675 -40.00000000000001 l -7.5 7.5 57.5 62.5 7.5 -7.5 -57.5 -62.5 z"></path></g><g><path d="M -63.17500000000001 -30.050000000000008 l 0 25 l -8.45 8.45 l 26.7 26.65 l 7.5 -7.5 l -25.5 -25.5 l 9.75 -9.7 l 0 -27.4 l -10 10 z"></path><g><path d="M -53.17500000000001 -40.050000000000004 l -15 0 l 0 -15 l -10 10 l 0 15 l 15 0 l 0 10 q 3.85 -7.75 10 -5 l 0 -15 z"></path></g><g><path d="M -40.47500000000001 23.64999999999999 q -1.825 3.28 -4.45 6.4 l -7.5 7.5 l -1.2 -1.2 l 7.5 -7.5 q -1.688 -4.106 -0.35 -4.55 q 1.45 -0.6 6 -0.65 z"></path></g><path d="M -65.30000000000001 55.04999999999999 l 7.5 7.5 l 7.5 -7.5 l -7.5 -7.5 l -7.5 7.5 z"></path></g><g><path d="M -5.625 -16.150000000000006 l -10 10 l 0 -33.85 l -10 10 l 0 36.2 l 10 -9.95 l 0 33.75 l 10 -10 l 0 -36.15 z"></path><g><path d="M -27.424999999999997 -51.800000000000004 l 11.8 11.8 l -10 10 l 0 5 q 5.188 -7.964 10 -5 l 0 -7.7 l 8.2 -8.2 l -13 -12.9 l -7 7 z"></path></g><g><path d="M -15.625 49.99999999999999 l 10 -10 l 0 -20 q -7.3 -5 -10 10 l 0 20 z"></path></g></g><g><path d="M 14.274999999999977 -40.025000000000006 l -9.9 9.95 l 47.35 58.35 l 0.05 0 l 1.4 1.75 l 7.5 -7.5 l -42.7 -52.55 l 52.05 0 l 10 -10 l -65.75 0 z"></path><g><path d="M 60.67499999999998 22.525000000000006 q -6.8 0.5 -7.5 7.5 l 15 15 l 15 -15 l -1.2 -1.2 l -7.5 7.5 l -13.8 -13.8 z"></path></g><path d="M 36.27499999999998 -57.525000000000006 l 7.5 7.5 l 7.5 -7.5 l -7.5 -7.5 l -7.5 7.5 z"></path><path d="M 53.77499999999998 65.025 l 10 -10 l -30 0 l -10 10 l 30 0 z"></path></g><g><path d="M 136.925 -37.50000000000001 l -1.2 -1.2 l -6.3 6.3 l 0 -27.6 l -10 10 l 0 30 l 17.5 -17.5 z"></path><path d="M 103.17500000000001 -10.000000000000007 l -10 10 l 50 0 l 10 -10 l -50 0 z"></path></g></g></g>
</svg>
