<svg xmlns="http://www.w3.org/2000/svg" viewBox="0 0 548.2 155.05" width="548.2" height="155.05" fill="currentColor" stroke="none">
<g transform="translate(274.1 77.525)"><g><g><path d="M -246.10000000000002 -9.400000000000007 l 7.45 -7.5 27.05 34.4 7.5 -7.5 -27.8 -36 -7.75 7.8 -26.95 -34.3 -7.5 7.5 28 35.6 z"></path><path d="M -236.60000000000002 37.49999999999999 l 10 -10 l -30 0 l -10 10 l 30 0 z"></path></g><g><path d="M -128.45000000000005 -42.42500000000001 l 10 -10 l -65.75 0 l -9.9 9.95 l 30.45 37.55 l 7.25 -7.3 l 24.15 29.65 l 7.45 -7.4 l -25.2 -31.05 l -7.5 7.45 l -23.1 -28.85 l 52.15 0 z"></path><g><path d="M -140.85000000000002 -32.425000000000004 l 22.4 0 l 17.5 -17.5 l -1.2 -1.2 l -8.7 8.7 l -17.6 0 l 10 -10 l -12.65 0 q 5.5 3.45 -5.3 10 l 5.5 0 l -9.95 10 z"></path></g><g><path d="M -129.65000000000003 27.42499999999999 l 17.4 0 l 10 -10 l -15 0 l 10 -10 l -20 0 q -7 -2.95 -7.6 0 q -1.65 2.7 2.6 10 l 12.55 0 l -9.95 10 z"></path></g></g><g><path d="M -81.05000000000001 -52.525000000000006 l -9.9 9.95 l 47.35 58.35 l 0.05 0 l 1.4 1.75 l 7.5 -7.5 l -42.7 -52.55 l 52.05 0 l 10 -10 l -65.75 0 z"></path><g><path d="M -34.650000000000006 10.025000000000006 q -6.8 0.5 -7.5 7.5 l 15 15 l 15 -15 l -1.2 -1.2 l -7.5 7.5 l -13.8 -13.8 z"></path></g><path d="M -59.05000000000001 -70.025 l 7.5 7.5 l 7.5 -7.5 l -7.5 -7.5 l -7.5 7.5 z"></path><path d="M -61.55000000000001 52.525 l 0 25 l 20 -20 l -1.2 -1.2 l -8.8 8.8 l 0 -22.6 l -10 10 z"></path></g><g><path d="M 36.900000000000034 -35.05000000000001 l -1.25 -1.15 q -5.45 4.65 -10.85 3.05 q -5.65 -1.7 -5.7 -9.35 l 25 0 l 17.5 -17.5 l -1.2 -1.2 l -8.7 8.7 l -37.6 0 l -10 10 q 14.9 23.2 32.8 7.45 z"></path><path d="M 7.850000000000023 -22.500000000000007 l -10 10 l 50 0 l 10 -10 l -50 0 z"></path></g><g><path d="M 86.60000000000002 -52.50000000000001 l -7.5 7.5 57.5 62.5 7.5 -7.5 -57.5 -62.5 z"></path><path d="M 101.60000000000002 17.499999999999993 l 10 -10 l -30 0 l -10 10 l 30 0 z"></path><path d="M 116.60000000000002 -45.00000000000001 l 20 20 l 7.5 -7.5 l -20 -20 l -7.5 7.5 z"></path></g><g><path d="M 164.10000000000002 -52.50000000000001 l -10 10 l 0 60 l 10 -10 l 0 -50 l 30 0 l 10 -10 l -40 0 z"></path></g><g><path d="M 254.10000000000002 17.499999999999993 l 10 -10 l 0 -50 l 10 -10 l -45 0 l -10 10 l 42.6 0 l -7.6 7.6 l 0 42.4 l -30 0 l -10 10 l 40 0 z"></path><path d="M 236.60000000000002 34.99999999999999 l 7.5 7.5 l 7.5 -7.5 l -7.5 -7.5 l -7.5 7.5 z"></path></g></g></g>
</svg>
