<svg xmlns="http://www.w3.org/2000/svg" viewBox="0 0 59.9 172.294907" width="59.9" height="172.294907" fill="currentColor" stroke="none">
<g transform="translate(29.95 86.147453)"><g><g><path d="M -14.95 -36.15 l -10 10 l 0 35 l 19.95 0 l -24.95 25 l 40 0 l 10 -10 l -37.6 0 l 24.85 -25 l -22.25 0 l 0 -35 z"></path><g><path d="M -14.899999999999999 -33.85 l 15 0 l 10 -10 l -17.4 0 l -17.65 17.7 l 0 7.3 q 5.4 -4.35 10 -2.75 l 0 -12.25 z"></path></g><g><path d="M -2.349999999999998 43.85 l 22.4 0 l 9.9 -10 l -19.9 0 l 10 -10 l -12.65 0 q 5.504 3.447 -5.3 10 l 5.5 0 l -9.95 10 z"></path></g></g></g></g>
</svg>
