<svg xmlns="http://www.w3.org/2000/svg" viewBox="0 0 42.55 172.294907" width="42.55" height="172.294907" fill="currentColor" stroke="none">
<g transform="translate(21.275 86.121116)"><g><g><path d="M -1.274999999999995 -3.4166621665075017 l -10 10 l 0 -33.85 l -10 10 l 0 36.2 l 10 -9.95 l 0 33.75 l 10 -10 l 0 -36.15 z"></path><g><path d="M -21.274999999999995 -17.2666621665075 l 0 7.3 q 4.546 -5.888 10 -3.05 l 0 -11.95 l 15.05 0 l 17.5 -17.5 l -1.2 -1.2 l -8.7 8.7 l -15 0 l -17.65 17.7 z"></path></g><g><path d="M -11.274999999999995 27.0833378334925 l 0 15.65 l 10 -10 q 9.4 17.75 21.2 6.85 q -12.25 2.15 -14.85 -15.5 l -6.35 6.3 l 0 -8.1 q -4.8 9.5 -10 4.8 z"></path></g></g></g></g>
</svg>
