<svg xmlns="http://www.w3.org/2000/svg" viewBox="0 0 117.4 119.975" width="117.4" height="119.975" fill="currentColor" stroke="none">
<g transform="translate(58.7 59.9875)"><g><g><path d="M -48.7 -20.012499999999996 l -10 10 l 0 60 l 10 -10 l 0 -60 z"></path></g><g><path d="M 16.299999999999997 -19.987499999999997 l -10 10 l 0 20 l -35 0 l -10 10 l 29.95 29.95 l 7.5 -7.5 l -22.45 -22.45 l 30 0 l 10 -10 l 0 -30 z"></path><g><path d="M 6.299999999999997 -27.587500000000006 l 0 17.6 q 7.3 5 10 -10 l 0 -20 l -17.5 17.5 l 1.2 1.2 l 6.3 -6.3 z"></path></g><g><path d="M -9.650000000000006 48.36249999999998 l -11.2 11.3 l 22.4 0 l 10 -10.1 l -19.9 0 l 7.1 -7.1 q -10.446 -1.157 -8.4 5.9 z"></path></g><path d="M -1.2000000000000028 -49.987500000000004 l 10 -10 l -30 0 l -10 10 l 30 0 z"></path></g><g><path d="M 48.7 3.837500000000004 l -10 10 l 0 -33.85 l -10 10 l 0 36.2 l 10 -9.95 l 0 33.75 l 10 -10 l 0 -36.15 z"></path><g><path d="M 26.299999999999997 59.987500000000004 l 22.4 0 l 10 -10.1 l -19.9 0 l -0.1 0.1 l 0 -0.1 l 0.05 0 l 9.95 -9.9 l 0 -5 q -5 5.774 -10 5 l 0 7.55 l -12.4 12.4 z"></path></g></g></g></g>
</svg>
