<svg xmlns="http://www.w3.org/2000/svg" viewBox="0 0 66.95 172.294907" width="66.95" height="172.294907" fill="currentColor" stroke="none">
<g transform="translate(33.475 86.147453)"><g><g><path d="M 25.924999999999997 -30.65 l -50 0 l -9.4 9.4 l 23.2 33.05 l 6.2 -6.25 l 0 33.8 l 10 -10 l 0 -36.15 l -1.1 1.1 q -2.967 2.977 -5.95 5.95 l -1.95 2 l -0.65 0.65 l -16.5 -23.5 l 36.2 0 l 10 -10 z"></path><g><path d="M 5.974999999999994 -20.65 l 10 0 l 17.5 -17.5 l -1.2 -1.2 l -8.7 8.7 l -7.6 0 q 0.83 5.4 -10 10 z"></path></g><g><path d="M 5.924999999999997 46.95 l 0 -17.6 q -7.3 -5 -10 10 l 0 20 l 17.5 -17.5 l -1.2 -1.2 l -6.3 6.3 z"></path></g><path d="M 9.999999999999993 -49.35 l 10 -10 l -30 0 l -10 10 l 30 0 z"></path></g></g></g>
</svg>
