<svg xmlns="http://www.w3.org/2000/svg" viewBox="0 0 257.6 118.7" width="257.6" height="118.7" fill="currentColor" stroke="none">
<g transform="translate(128.8 59.35)"><g><g><path d="M -110.59999999999998 -30.650000000000006 l -10 10 l 0 60 l 10 -10 l 0 -60 z"></path><g><path d="M -108.79999999999998 51.14999999999999 l -11.8 -11.8 l 10 -10 l 0 -5 q -5.188 7.964 -10 5 l 0 7.7 l -8.2 8.2 l 13 12.9 l 7 -7 z"></path></g></g><g><path d="M -88.89999999999998 -30.675000000000004 l -9.9 9.95 l 47.35 58.35 l 0.05 0 l 1.4 1.75 l 7.5 -7.5 l -42.7 -52.55 l 52.05 0 l 10 -10 l -65.75 0 z"></path><g><path d="M -34.999999999999986 54.37500000000001 l 7.5 -7.5 l -15 -15 q -6.8 0.5 -7.5 7.5 l 15 15 z"></path></g><path d="M -50.97499999999998 -40.675000000000004 l 10 -10 l -30 0 l -10 10 l 30 0 z"></path></g><g><path d="M -3.1499999999999773 -30.650000000000006 l -10 10 l 0 60 l 10 -10 l 0 -60 z"></path><g><path d="M -13.149999999999977 24.349999999999994 l 0 15 l 10 -10 l 0 20 l 10 -9.9 l 0 -22.4 l -10 9.95 l 0 -5.15 q -5 6.1 -10 2.5 z"></path></g></g><g><path d="M 76.25 -30.650000000000006 l -50 0 l -9.4 9.4 l 23.2 33.05 l 6.2 -6.25 l 0 33.8 l 10 -10 l 0 -36.15 l -1.1 1.1 q -2.967 2.977 -5.95 5.95 l -1.95 2 l -0.65 0.65 l -16.5 -23.5 l 36.2 0 l 10 -10 z"></path><g><path d="M 56.29999999999998 -20.650000000000006 l 10 0 l 17.5 -17.5 l -1.2 -1.2 l -8.7 8.7 l -7.6 0 q 0.83 5.4 -10 10 z"></path></g><g><path d="M 56.25 46.949999999999996 l 0 -17.6 q -7.3 -5 -10 10 l 0 20 l 17.5 -17.5 l -1.2 -1.2 l -6.3 6.3 z"></path></g><path d="M 60.32499999999999 -49.35000000000001 l 10 -10 l -30 0 l -10 10 l 30 0 z"></path></g><g><path d="M 113.79999999999998 -6.800000000000006 l -10 10 l 0 -33.85 l -10 10 l 0 36.2 l 10 -9.95 l 0 33.75 l 10 -10 l 0 -36.15 z"></path><g><path d="M 111.29999999999998 -35.75000000000001 l -1.2 -1.2 l -16.3 16.3 l 0 7.75 q 5 -9.444 10 -6.55 l 0 -8.8 l 7.5 -7.5 z"></path></g><g><path d="M 103.79999999999998 24.349999999999994 l 0 15 l 15 0 l 10 -10 l -15 0 l 0 -10 q -3.874 7.753 -10 5 z"></path></g></g></g></g>
</svg>
