<svg xmlns="http://www.w3.org/2000/svg" viewBox="0 0 81.3 172.294907" width="81.3" height="172.294907" fill="currentColor" stroke="none">
<g transform="translate(40.65 86.147453)"><g><g><path d="M 15.650000000000006 47.5 l 7.5 -7.5 -26.9 -26.9 7.45 -7.55 -28.05 -28.05 -7.5 7.5 26.9 26.9 -7.5 7.5 28.1 28.1 z"></path><path d="M -30.649999999999995 -13.8 q 6.486 1.216 4.75 -5 q -2.924 3.894 -5.95 3.8 l -8.8 8.8 l 0 15 l 10 -10 l 0 -12.6 z"></path><path d="M 13.050000000000004 37.5 q -1.655 2.716 2.6 10 l 15 0 l 10 -10 l -20 0 q -7.015 -2.931 -7.6 0 z"></path><path d="M -11.849999999999994 -40 l 7.5 7.5 l 7.5 -7.5 l -7.5 -7.5 l -7.5 7.5 z"></path></g></g></g>
</svg>
