<svg xmlns="http://www.w3.org/2000/svg" viewBox="0 0 57.65 172.294907" width="57.65" height="172.294907" fill="currentColor" stroke="none">
<g transform="translate(28.825 86.147453)"><g><g><path d="M 11.175000000000004 -35 l -10 10 l 0 20 l -20 0 l -10 10 l 0 30 l 30 0 l 10 -10 l -30 0 l 0 -20 l 20 0 l 10 -10 l 0 -30 z"></path><g><path d="M 23.575000000000003 -45 l -22.4 0 l -10 10.1 l 19.9 0 l 0.1 -0.1 l 0 0.1 l -0.05 0 l -9.95 9.9 l 0 5 q 5 -5.774 10 -5 l 0 -7.55 l 12.4 -12.4 z"></path></g><g><path d="M 16.325000000000003 17.5 l -7.5 7.5 l -11.1 0 q 3.05 5.25 -1.5 10 l 5 0 l 8.8 -8.85 q 0.445 14.232 18.8 18.85 q -12.993 -10.704 -12.45 -27.5 z"></path></g></g></g></g>
</svg>
