<svg xmlns="http://www.w3.org/2000/svg" viewBox="0 0 399.4 119.975" width="399.4" height="119.975" fill="currentColor" stroke="none">
<g transform="translate(199.7 59.9875)"><g><g><path d="M -192.2 -40.012499999999996 l -7.5 7.5 57.5 62.5 7.5 -7.5 -57.5 -62.5 z"></path><path d="M -164.7 49.987500000000004 l 10 -10 l -30 0 l -10 10 l 30 0 z"></path></g><g><path d="M -114.79999999999998 -40.037499999999994 l -9.9 9.95 l 47.35 58.35 l 0.05 0 l 1.4 1.75 l 7.5 -7.5 l -42.7 -52.55 l 52.05 0 l 10 -10 l -65.75 0 z"></path><g><path d="M -64.04999999999998 -30.037499999999994 l 5 0 l 7.6 -7.6 l 0 19.95 l 10 -9.9 l 0 -22.45 l -10 10 l -12.6 0 q 3.5 4 0 10 z"></path></g><g><path d="M -60.89999999999998 45.01250000000002 l 7.5 -7.5 l -15 -15 q -6.8 0.5 -7.5 7.5 l 15 15 z"></path></g></g><g><path d="M -23.94999999999999 -40.012499999999996 l -7.5 7.5 l 31.25 31.25 l -31.25 31.25 l 40 0 l 10 -10 l -37.6 0 l 27.5 -27.6 l -32.4 -32.4 z"></path><path d="M 1.1500000000000057 49.987500000000004 l -8.8 8.8 l 1.2 1.2 l 20 -20 l -30 0 l -10 10 l 27.6 0 z"></path></g><g><path d="M 72.30000000000001 -50.012499999999996 l -7.5 7.5 l 12.5 12.5 l -25 0 l -17.5 17.5 l 1.2 1.2 l 8.7 -8.7 l 37.6 0 l 10 -10 l -20 -20 z"></path><path d="M 38.55000000000001 -10.012499999999996 l -10 10 l 50 0 l 10 -10 l -50 0 z"></path></g><g><path d="M 124.69999999999999 -40.012499999999996 l -10 10 l 0 60 l 10 -10 l 0 -60 z"></path><g><path d="M 102.30000000000001 39.987500000000004 l 22.4 0 l 10 -10.1 l -19.9 0 l -0.1 0.1 l 0 -0.1 l 0.05 0 l 9.95 -9.9 l 0 -5 q -5 5.774 -10 5 l 0 7.55 l -12.4 12.4 z"></path></g></g><g><path d="M 199.7 -39.9875 l -10 10 l 0 20 l -35 0 l -10 10 l 29.95 29.95 l 7.5 -7.5 l -22.45 -22.45 l 30 0 l 10 -10 l 0 -30 z"></path><path d="M 182.2 -49.987500000000004 l 10 -10 l -30 0 l -10 10 l 30 0 z"></path></g></g></g>
</svg>
