<svg xmlns="http://www.w3.org/2000/svg" viewBox="0 0 486.35 110" width="486.35" height="110" fill="currentColor" stroke="none">
<g transform="translate(243.175 55)"><g><g><path d="M -195.67500000000004 35 l 7.5 -7.5 -26.9 -26.9 7.45 -7.55 -28.05 -28.05 -7.5 7.5 26.9 26.9 -7.5 7.5 28.1 28.1 z"></path><path d="M -213.17500000000004 55 l 10 -10 l -30 0 l -10 10 l 30 0 z"></path></g><g><path d="M -128.17500000000004 -25 l 10 -10 l -50 0 l -10 10 l 0 35 l 10 -10 l 15 0 l 0 35 l 10 -10 l 0 -35 l -17.35 0 l -7.65 7.6 l 0 -22.6 l 40 0 z"></path><g><path d="M -118.17500000000004 -35 l 15.05 0 l 10 -10 l -17.45 0 l -9.95 10 l -7.6 0 q 4.95 4.2 -6.25 10 l 6.25 0 l 9.95 -10 z"></path></g><g><path d="M -143.17500000000004 42.6 l 0 -17.6 q -7.3 -5 -10 10 l 0 20 l 17.5 -17.5 l -1.2 -1.2 l -6.3 6.3 z"></path></g></g><g><path d="M -75.62500000000003 -35 l -7.5 7.5 57.5 62.5 7.5 -7.5 -57.5 -62.5 z"></path><path d="M -48.12500000000003 55 l 10 -10 l -30 0 l -10 10 l 30 0 z"></path></g><g><path d="M 1.8749999999999716 -35 l -10 10 l 0 60 l 40 0 l 10 -10 l -40 0 l 0 -60 z"></path><g><path d="M 1.8749999999999716 -55 l -10 10 l 0 20 q 7.3 5 10 -10 l 0 -20 z"></path></g><g><path d="M 41.87499999999997 25 l 15.05 0 l 10 -10 l -17.45 0 l -9.95 10 l -7.6 0 q 4.95 4.2 -6.25 10 l 6.25 0 l 9.95 -10 z"></path></g></g><g><path d="M 113.17499999999998 5 l 7.5 -7.5 -32.5 -32.5 -7.5 7.5 32.5 32.5 m -17.5 -10 l -7.5 7.5 32.5 32.5 7.5 -7.5 -32.5 -32.5 z"></path><path d="M 106.92499999999998 55 l 10 -10 l -30 0 l -10 10 l 30 0 z"></path></g><g><path d="M 163.17499999999998 -35 l -10 10 l 0 30 l 17.7 0 l -6.35 6.4 l 23.65 23.6 l 7.45 -7.5 l -22.5 -22.5 l 10.05 -10 l -20 0 l 0 -30 z"></path><g><path d="M 163.17499999999998 -20 l 0 -15 l -15 0 l -10 10 l 15 0 l 0 10 q 3.874 -7.753 10 -5 z"></path></g><g><path d="M 185.57500000000002 25 q -1.655 2.716 2.6 10 l 15 0 l 10 -10 l -20 0 q -7.015 -2.931 -7.6 0 z"></path></g></g><g><path d="M 243.17500000000004 -11.15 l -10 10 l 0 -33.85 l -10 10 l 0 36.2 l 10 -9.95 l 0 33.75 l 10 -10 l 0 -36.15 z"></path><g><path d="M 233.17500000000004 55 l 10 -10 l 0 -20 q -7.3 -5 -10 10 l 0 20 z"></path></g></g></g></g>
</svg>
