<svg xmlns="http://www.w3.org/2000/svg" viewBox="0 0 175 110" width="175" height="110" fill="currentColor" stroke="none">
<g transform="translate(87.5 55)"><g><g><path d="M -77.5 -35 l -10 10 l 0 60 l 10 -10 l 0 -60 z"></path></g><g><path d="M -52.45 -25 l 34.95 0 l 10 -10 l -50 0 l -10 10 l 25 25 l 0 35 l 10 -10 l 0 -30.05 l -19.95 -19.95 z"></path><g><path d="M -42.5 55 l 10 -10 l 0 -20 q -7.3 -5 -10 10 l 0 20 z"></path></g><path d="M -27.5 -45 l 10 -10 l -30 0 l -10 10 l 30 0 z"></path></g><g><path d="M 12.5 -35 l -10 10 l 0 60 l 10 -10 l 0 -60 z"></path><g><path d="M 2.5 20 l 0 15 l 10 -10 l 0 20 l 10 -9.9 l 0 -22.4 l -10 9.95 l 0 -5.15 q -5 6.1 -10 2.5 z"></path></g></g><g><path d="M 87.5 -34.975 l -10 10 l 0 20 l -35 0 l -10 10 l 29.95 29.95 l 7.5 -7.5 l -22.45 -22.45 l 30 0 l 10 -10 l 0 -30 z"></path><g><path d="M 68.75 26.27499999999998 q -6.486 -1.216 -4.75 5 q 2.924 -3.894 5.95 -3.8 l 8.8 -8.8 l 0 -15 l -10 10 l 0 12.6 z"></path></g><path d="M 70 -44.97500000000001 l 10 -10 l -30 0 l -10 10 l 30 0 z"></path></g></g></g>
</svg>
