<svg xmlns="http://www.w3.org/2000/svg" viewBox="0 0 90 100" width="90" height="100" fill="currentColor" stroke="none">
<g transform="translate(45 50)"><g><g><path d="M -35 -30 l -10 10 l 0 60 l 10 -10 l 0 -60 z"></path><g><path d="M -45 25 l 0 15 l 10 -10 l 0 20 l 10 -9.9 l 0 -22.4 l -10 9.95 l 0 -5.15 q -5 6.1 -10 2.5 z"></path></g></g><g><path d="M 0.04999999999999716 -20 l 34.95 0 l 10 -10 l -50 0 l -10 10 l 25 25 l 0 35 l 10 -10 l 0 -30.05 l -19.95 -19.95 z"></path><path d="M 25 -40 l 10 -10 l -30 0 l -10 10 l 30 0 z"></path></g></g></g>
</svg>
