<svg xmlns="http://www.w3.org/2000/svg" viewBox="0 0 246.85 143.775" width="246.85" height="143.775" fill="currentColor" stroke="none">
<g transform="translate(123.425 71.8875)"><g><g><path d="M -90.87500000000001 -43.1125 l -7.5 7.5 57.5 62.5 7.5 -7.5 -57.5 -62.5 z"></path><path d="M -98.37500000000001 -35.6125 l -15.05 0 l -10 10 l 17.45 0 l 8.75 -8.8 q 6.9 0.2 3.8 -6.15 l -4.95 4.95 z"></path><path d="M -40.875000000000014 26.887500000000003 l 7.5 -7.5 q -11.45 -4.9 -8.7 6.3 l -8.8 8.9 l 0 17.35 l 10 -10 l 0 -15.05 z"></path><path d="M -68.37500000000001 36.8875 l -10 10 l 0 25 l 10 -10 l 0 -25 z"></path></g><g><path d="M -13.375000000000014 -43.1125 l -10 10 l 0 60 l 10 -10 l 0 -50 l 30 0 l 10 -10 l -40 0 z"></path><g><path d="M -13.375000000000014 34.487500000000004 l 0 -17.6 q -7.3 -5 -10 10 l 0 20 l 17.5 -17.5 l -1.2 -1.2 l -6.3 6.3 z"></path></g><path d="M 11.625 66.8875 l 10 -10 l -30 0 l -10 10 l 30 0 z"></path></g><g><path d="M 48.42500000000001 -43.1125 l -10 10 l 0 60 l 10 -10 l 0 -60 z"></path><g><path d="M 36.625 -54.912499999999994 l 11.8 11.8 l -10 10 l 0 5 q 5.188 -7.964 10 -5 l 0 -7.7 l 8.2 -8.2 l -13 -12.9 l -7 7 z"></path></g><g><path d="M 38.42500000000001 11.887500000000003 l 0 15 l 10 -10 l 0 20 l 10 -9.9 l 0 -22.4 l -10 9.95 l 0 -5.15 q -5 6.1 -10 2.5 z"></path></g></g><g><path d="M 123.42500000000001 -43.0875 l -10 10 l 0 20 l -35 0 l -10 10 l 29.95 29.95 l 7.5 -7.5 l -22.45 -22.45 l 30 0 l 10 -10 l 0 -30 z"></path><g><path d="M 123.42500000000001 -27.437500000000007 l 0 -15.65 l -10 10.05 q -10.8 -2.6 -16.2 -18.85 q -0.35 21.9 9.85 27.5 l 6.35 -6.35 l 0 8.1 q 4.8 -9.5 10 -4.8 z"></path></g><g><path d="M 100.875 24.362499999999983 l 5 -5 l 10 10 l 7.15 -7.15 l -11.3 -11.2 l -7 7.1 l -1 1 q -3.183 -1.742 -3.85 0 q -0.916 1.293 0 6.25 z"></path></g><path d="M 105.92500000000001 -61.8875 l 10 -10 l -30 0 l -10 10 l 30 0 z"></path></g></g></g>
</svg>
