<svg xmlns="http://www.w3.org/2000/svg" viewBox="0 0 329.4 135.05" width="329.4" height="135.05" fill="currentColor" stroke="none">
<g transform="translate(164.7 67.525)"><g><g><path d="M -157.2 -42.50000000000001 l -7.5 7.5 57.5 62.5 7.5 -7.5 -57.5 -62.5 z"></path><path d="M -129.7 47.49999999999999 l 10 -10 l -30 0 l -10 10 l 30 0 z"></path></g><g><path d="M -34.69999999999999 -42.47500000000001 l -10 10 l 0 20 l -35 0 l -10 10 l 29.95 29.95 l 7.5 -7.5 l -22.45 -22.45 l 30 0 l 10 -10 l 0 -30 z"></path><g><path d="M -44.349999999999994 -30.375000000000014 q 0.375 -0.363 1.15 -1.15 q 6.261 -1.099 8.5 3.8 l 0 -14.75 l -10 10 l -10 -10 l -7.15 7.15 l 11.3 11.2 l 5.85 -5.9 q 0.04 -0.029 0.35 -0.35 z"></path></g><g><path d="M -53.44999999999999 18.774999999999974 q -6.486 -1.216 -4.75 5 q 2.924 -3.894 5.95 -3.8 l 8.8 -8.8 l 0 -15 l -10 10 l 0 12.6 z"></path></g></g><g><path d="M -4.699999999999989 -18.650000000000006 l -10 10 l 0 -33.85 l -10 10 l 0 36.2 l 10 -9.95 l 0 33.75 l 10 -10 l 0 -36.15 z"></path><g><path d="M -11 43.89999999999999 l 16.3 -16.3 l 0 -22.45 l -10 10 l 0 -5.15 q -5 6.1 -10 2.5 l 0 15 l 10 -10 l 0 17.7 l -7.5 7.5 l 1.2 1.2 z"></path></g></g><g><path d="M 25.19999999999999 -42.525000000000006 l -9.9 9.95 l 47.35 58.35 l 0.05 0 l 1.4 1.75 l 7.5 -7.5 l -42.7 -52.55 l 52.05 0 l 10 -10 l -65.75 0 z"></path><g><path d="M 79.1 42.525000000000006 l 7.5 -7.5 l -15 -15 q -6.8 0.5 -7.5 7.5 l 15 15 z"></path></g><path d="M 45.625 -60.025000000000006 l 7.5 7.5 l 7.5 -7.5 l -7.5 -7.5 l -7.5 7.5 z"></path><path d="M 45.625 60.025 l 7.5 7.5 l 7.5 -7.5 l -7.5 -7.5 l -7.5 7.5 z"></path></g><g><path d="M 107.19999999999999 -32.50000000000001 q 24.3 9.1 15 21.3 l 1.25 1.15 q 15.85 -14.1 3.75 -22.45 l 20 0 l 17.5 -17.5 l -1.2 -1.2 l -8.7 8.7 l -37.6 0 l -10 10 z"></path><path d="M 110.94999999999999 -12.500000000000007 l -10 10 l 50 0 l 10 -10 l -50 0 z"></path></g></g></g>
</svg>
