<svg xmlns="http://www.w3.org/2000/svg" viewBox="0 0 247.75 104.925" width="247.75" height="104.925" fill="currentColor" stroke="none">
<g transform="translate(123.875 52.4625)"><g><g><path d="M -91.325 -32.46249999999999 l -7.5 7.5 57.5 62.5 7.5 -7.5 -57.5 -62.5 z"></path><path d="M -98.825 -24.96249999999999 l -15.05 0 l -10 10 l 17.45 0 l 8.75 -8.8 q 6.9 0.2 3.8 -6.15 l -4.95 4.95 z"></path></g><g><path d="M -6.325000000000017 -32.38749999999999 l -10 10 l 0 40 l 9.55 -9.55 l 20.65 29.4 l 7.5 -7.5 l -21.6 -30.85 l -6.1 6.1 l 0 -37.6 z"></path><g><path d="M -16.325000000000017 -11.187499999999996 q 5 -12.14 10 -11.2 l 0 -10 l -17.5 17.5 l 1.2 1.2 l 6.3 -6.3 l 0 8.8 z"></path></g><g><path d="M 33.875 27.4625 l -15 0 q -7 -2.95 -7.6 0 q -1.65 2.7 2.6 10 l 10 0 l 0 15 l 10 -10 l 0 -15 z"></path></g></g><g><path d="M 53.875 -32.46249999999999 l -10 10 l 0 60 l 10 -10 l 0 -60 z"></path><g><path d="M 43.875 22.53750000000001 l 0 15 l 10 -10 l 0 20 l 10 -9.9 l 0 -22.4 l -10 9.95 l 0 -5.15 q -5 6.1 -10 2.5 z"></path></g></g><g><path d="M 81.375 -32.46249999999999 l -7.5 7.5 l 31.25 31.25 l -31.25 31.25 l 40 0 l 10 -10 l -37.6 0 l 27.5 -27.6 l -32.4 -32.4 z"></path><path d="M 108.875 -42.46249999999999 l 10 -10 l -30 0 l -10 10 l 30 0 z"></path></g></g></g>
</svg>
