<svg xmlns="http://www.w3.org/2000/svg" viewBox="0 0 639.95 144.65" width="639.95" height="144.65" fill="currentColor" stroke="none">
<g transform="translate(319.975 72.325)"><g><g><path d="M -312.475 -52.29999999999999 l -7.5 7.5 57.5 62.5 7.5 -7.5 -57.5 -62.5 z"></path><path d="M -258.02500000000003 11.300000000000011 q -1.825 3.28 -4.45 6.4 l -7.5 7.5 l -1.2 -1.2 l 7.5 -7.5 q -1.688 -4.106 -0.35 -4.55 q 1.45 -0.6 6 -0.65 z"></path></g><g><path d="M -235.07500000000002 -52.32499999999999 l -9.9 9.95 l 47.35 58.35 l 0.05 0 l 1.4 1.75 l 7.5 -7.5 l -42.7 -52.55 l 52.05 0 l 10 -10 l -65.75 0 z"></path><g><path d="M -188.675 10.225000000000023 q -6.8 0.5 -7.5 7.5 l 15 15 l 15 -15 l -1.2 -1.2 l -7.5 7.5 l -13.8 -13.8 z"></path></g></g><g><path d="M -146.175 -52.22499999999999 l -10 10 l 0 40 l 9.55 -9.55 l 20.65 29.4 l 7.5 -7.5 l -21.6 -30.85 l -6.1 6.1 l 0 -37.6 z"></path><g><path d="M -107.97500000000002 17.225 l -17.6 0 l 7.1 -7.1 q -10.45 -1.15 -8.4 5.9 l -11.2 11.3 l 22.4 0 l 17.5 -17.5 l -1.2 -1.2 l -8.6 8.6 z"></path></g><path d="M -137.175 47.32499999999998 l 0 25 l 20 -20 l -1.2 -1.2 l -8.8 8.8 l 0 -22.6 l -10 10 z"></path></g><g><path d="M -68.17500000000001 -52.29999999999999 l -10 10 l 0 50 l -10 10 l 45 0 l 10 -10 l -42.6 0 l 7.6 -7.6 l 0 -42.4 l 30 0 l 10 -10 l -40 0 z"></path><g><path d="M -28.17500000000001 -52.29999999999999 l -15 0 q 2.75 6.15 -5 10 l 10 0 l 0 12.6 l -7.5 7.5 l 1.2 1.2 l 16.3 -16.3 l 0 -15 z"></path></g><g><path d="M -53.17500000000001 17.70000000000001 l 10 0 l 17.5 -17.5 l -1.2 -1.2 l -8.7 8.7 l -7.6 0 q 0.83 5.4 -10 10 z"></path></g><path d="M -66.92500000000001 37.70000000000001 l 0 25 l 20 -20 l -1.2 -1.2 l -8.8 8.8 l 0 -22.6 l -10 10 z"></path></g><g><path d="M -8.175000000000011 -52.29999999999999 l -7.5 7.5 57.5 62.5 7.5 -7.5 -57.5 -62.5 z"></path><path d="M -5.675000000000011 0.20000000000000995 l -10 10 l 0 25 l 10 -10 l 0 -25 z"></path><path d="M 1.8249999999999886 35.20000000000001 l 7.5 7.5 l 7.5 -7.5 l -7.5 -7.5 l -7.5 7.5 z"></path></g><g><path d="M 114.32499999999999 -52.27499999999999 l -10 10 l 0 20 l -35 0 l -10 10 l 29.95 29.95 l 7.5 -7.5 l -22.45 -22.45 l 30 0 l 10 -10 l 0 -30 z"></path><g><path d="M 88.375 16.07499999999999 l -11.2 11.3 l 22.4 0 l 10 -10.1 l -19.9 0 l 7.1 -7.1 q -10.446 -1.157 -8.4 5.9 z"></path></g></g><g><path d="M 134.325 -52.29999999999999 l -10 10 l 0 60 l 10 -10 l 0 -60 z"></path></g><g><path d="M 154.22499999999997 -52.32499999999999 l -9.9 9.95 l 47.35 58.35 l 0.05 0 l 1.4 1.75 l 7.5 -7.5 l -42.7 -52.55 l 52.05 0 l 10 -10 l -65.75 0 z"></path><path d="M 192.14999999999998 -62.32499999999999 l 10 -10 l -30 0 l -10 10 l 30 0 z"></path></g><g><path d="M 239.97500000000002 -52.29999999999999 l -10 10 l 0 60 l 10 -10 l 0 -60 z"></path><g><path d="M 229.97500000000002 2.70000000000001 l 0 15 l 10 -10 l 0 20 l 10 -9.9 l 0 -22.4 l -10 9.95 l 0 -5.15 q -5 6.1 -10 2.5 z"></path></g></g><g><path d="M 309.975 -42.29999999999999 l 10 -10 l -50 0 l -10 10 l 0 30 l 30 0 l 0 30 l 10 -10 l 0 -30 l -30 0 l 0 -20 l 40 0 z"></path><path d="M 299.975 -62.29999999999999 l 10 -10 l -30 0 l -10 10 l 30 0 z"></path></g></g></g>
</svg>
