<svg xmlns="http://www.w3.org/2000/svg" viewBox="0 0 47.6 172.294907" width="47.6" height="172.294907" fill="currentColor" stroke="none">
<g transform="translate(23.8 86.147453)"><g><g><path d="M 16.199999999999996 -30.6 l -10 10 l 0 20 l -20 0 l -10 10 l 0 30 l 30 0 l 10 -10 l -30 0 l 0 -20 l 20 0 l 10 -10 l 0 -30 z"></path><g><path d="M 16.199999999999996 -14.950000000000003 l 0 -15.65 l -10 10.05 q -10.8 -2.6 -16.2 -18.85 q -0.35 21.9 9.85 27.5 l 6.35 -6.35 l 0 8.1 q 4.8 -9.5 10 -4.8 z"></path></g><g><path d="M 8.549999999999997 29.4 q 0.465 4.718 -7.9 10 l 5.55 0 l 17.6 -17.6 l 0 -15 l -10 10 l 0 12.6 l -5.25 0 z"></path></g></g></g></g>
</svg>
