<svg xmlns="http://www.w3.org/2000/svg" viewBox="0 0 290.15 95" width="290.15" height="95" fill="currentColor" stroke="none">
<g transform="translate(145.075 47.5)"><g><g><path d="M -108.82499999999999 -7.5 l 7.5 -7.5 -32.5 -32.5 -7.5 7.5 32.5 32.5 m -17.5 -10 l -7.5 7.5 32.5 32.5 7.5 -7.5 -32.5 -32.5 z"></path><path d="M -115.07499999999999 42.5 l 10 -10 l -30 0 l -10 10 l 30 0 z"></path></g><g><path d="M -73.82499999999999 -47.5 l -10 10 l 0 60 l 40 0 l 10 -10 l -40 0 l 0 -50 l 30 0 l 10 -10 l -40 0 z"></path><g><path d="M -54.27499999999999 22.5 l 10.45 0 l 16.35 -16.35 q -8.942 -4.256 -7.9 -14.9 q -8.313 8.782 -0.75 21.25 l -13.35 0 q 4.7 5.2 -4.8 10 z"></path></g></g><g><path d="M 10.525000000000006 -4.4 l 7.45 -7.5 27.05 34.4 7.5 -7.5 -27.8 -36 -7.75 7.8 -26.95 -34.3 -7.5 7.5 28 35.6 z"></path><path d="M -14.974999999999994 2.5 l 20 20 l 7.5 -7.5 l -20 -20 l -7.5 7.5 z"></path><path d="M 2.5250000000000057 40 l 7.5 7.5 l 7.5 -7.5 l -7.5 -7.5 l -7.5 7.5 z"></path></g><g><path d="M 105.07499999999999 -47.5 l -10 10 l 0 60 l 10 -10 l 0 -50 l 30 0 l 10 -10 l -40 0 z"></path><g><path d="M 105.07499999999999 12.5 l 0 -7.3 q -4.546 5.888 -10 3.05 l 0 11.95 l -15.05 0 l -17.5 17.5 l 1.2 1.2 l 8.7 -8.7 l 15 0 l 17.65 -17.7 z"></path></g></g></g></g>
</svg>
