<svg xmlns="http://www.w3.org/2000/svg" viewBox="0 0 421.3 105" width="421.3" height="105" fill="currentColor" stroke="none">
<g transform="translate(210.65 52.5)"><g><g><path d="M -198.85 -32.5 l -10 10 l 0 60 l 10 -10 l 0 -60 z"></path><g><path d="M -210.65 -44.3 l 11.8 11.8 l -10 10 l 0 5 q 5.188 -7.964 10 -5 l 0 -7.7 l 8.2 -8.2 l -13 -12.9 l -7 7 z"></path></g><g><path d="M -208.85 22.5 l 0 15 l 15 0 l 10 -10 l -15 0 l 0 -10 q -3.874 7.753 -10 5 z"></path></g></g><g><path d="M -118.85000000000001 -32.475 l -10 10 l 0 20 l -35 0 l -10 10 l 29.95 29.95 l 7.5 -7.5 l -22.45 -22.45 l 30 0 l 10 -10 l 0 -30 z"></path><path d="M -136.35000000000002 -42.47500000000001 l 10 -10 l -30 0 l -10 10 l 30 0 z"></path></g><g><path d="M -98.85000000000001 -32.5 l -10 10 l 0 60 l 10 -10 l 0 -60 z"></path><g><path d="M -98.80000000000001 -30.200000000000003 l 15 0 l 10 -10 l -17.4 0 l -17.65 17.7 l 0 7.3 q 5.4 -4.35 10 -2.75 l 0 -12.25 z"></path></g><g><path d="M -108.85000000000001 22.5 l 0 15 l 10 -10 l 0 20 l 10 -9.9 l 0 -22.4 l -10 9.95 l 0 -5.15 q -5 6.1 -10 2.5 z"></path></g></g><g><path d="M 1.8499999999999943 -22.425 l 10 -10 l -65.75 0 l -9.9 9.95 l 30.45 37.55 l 7.25 -7.3 l 24.15 29.65 l 7.45 -7.4 l -25.2 -31.05 l -7.5 7.45 l -23.1 -28.85 l 52.15 0 z"></path><path d="M -15.974999999999994 -42.425 l 10 -10 l -30 0 l -10 10 l 30 0 z"></path></g><g><path d="M 31.849999999999994 -32.5 l -10 10 l 0 60 l 10 -10 l 0 -60 z"></path><g><path d="M 21.849999999999994 22.5 l 0 15 l 10 -10 l 0 20 l 10 -9.9 l 0 -22.4 l -10 9.95 l 0 -5.15 q -5 6.1 -10 2.5 z"></path></g></g><g><path d="M 68.15 -32.5 l -7.5 7.5 l 31.25 31.25 l -31.25 31.25 l 40 0 l 10 -10 l -37.6 0 l 27.5 -27.6 l -32.4 -32.4 z"></path><g><path d="M 61.849999999999994 -23.8 q 6.486 1.216 4.75 -5 q -2.924 3.894 -5.95 3.8 l -8.8 8.8 l 0 15 l 10 -10 l 0 -12.6 z"></path></g><g><path d="M 95.65 27.5 l 15 0 l 0 15 l -10 10 l 0 -15 l -10 0 q 7.753 -3.874 5 -10 z"></path></g><path d="M 91.25000000000003 -42.5 l 10 -10 l -30 0 l -10 10 l 30 0 z"></path></g><g><path d="M 130.65 -32.5 l -10 10 l 0 60 l 10 -10 l 0 -60 z"></path><g><path d="M 120.65 22.5 l 0 15 l 15 0 l 10 -10 l -15 0 l 0 -10 q -3.874 7.753 -10 5 z"></path></g></g><g><path d="M 210.65 -32.475 l -10 10 l 0 20 l -35 0 l -10 10 l 29.95 29.95 l 7.5 -7.5 l -22.45 -22.45 l 30 0 l 10 -10 l 0 -30 z"></path><g><path d="M 188.1 34.97499999999998 l 5 -5 l 10 10 l 7.15 -7.15 l -11.3 -11.2 l -7 7.1 l -1 1 q -3.183 -1.742 -3.85 0 q -0.916 1.293 0 6.25 z"></path></g><path d="M 193.15 -42.47500000000001 l 10 -10 l -30 0 l -10 10 l 30 0 z"></path></g></g></g>
</svg>
