<svg xmlns="http://www.w3.org/2000/svg" viewBox="0 0 70 172.294907" width="70" height="172.294907" fill="currentColor" stroke="none">
<g transform="translate(35 86.147453)"><g><g><path d="M 0 -38.85 l -10 10 l 0 35 l 26.3 0 l 8.7 -8.75 l 0 33.75 l 10 -10 l 0 -36.15 l -11.15 11.15 l -23.85 0 l 0 -35 z"></path><g><path d="M -9.95 -26.450000000000003 l -0.05 5.05 q 4.6 -6.3 10 -4 l 0 -13.45 l -9.95 10 l -12.65 0 l 7.5 -7.5 l -1.2 -1.2 l -18.7 18.7 l 17.45 0 l 7.6 -7.6 z"></path></g><g><path d="M 24.950000000000003 28.85 l -15 0 l -10 10 l 17.4 0 l 17.65 -17.7 l 0 -7.3 q -5.4 4.35 -10 2.75 l 0 12.25 z"></path></g></g></g></g>
</svg>
