<svg xmlns="http://www.w3.org/2000/svg" viewBox="0 0 411.6 114.975" width="411.6" height="114.975" fill="currentColor" stroke="none">
<g transform="translate(205.8 57.4875)"><g><g><path d="M -187.6 -37.512499999999996 l -10 10 l 0 60 l 10 -10 l 0 -60 z"></path><g><path d="M -185.79999999999998 44.2875 l -11.8 -11.8 l 10 -10 l 0 -5 q -5.188 7.964 -10 5 l 0 7.7 l -8.2 8.2 l 13 12.9 l 7 -7 z"></path></g></g><g><path d="M -120.79999999999998 -37.4875 l -10 10 l 0 20 l -35 0 l -10 10 l 29.95 29.95 l 7.5 -7.5 l -22.45 -22.45 l 30 0 l 10 -10 l 0 -30 z"></path><g><path d="M -148.45 22.462499999999984 q -1.65 2.7 2.6 10 l 12.6 0 l -7.5 7.5 l 1.2 1.2 l 18.7 -18.7 l -20 0 q -7 -2.95 -7.6 0 z"></path></g><path d="M -138.29999999999998 -47.487500000000004 l 10 -10 l -30 0 l -10 10 l 30 0 z"></path></g><g><path d="M -65.65 5.587500000000004 l 7.45 -7.5 27.05 34.4 7.5 -7.5 -27.8 -36 -7.75 7.8 -26.95 -34.3 -7.5 7.5 28 35.6 z"></path><path d="M -88.64999999999999 -35.012499999999996 l -5 5 l -10 -10 l -7.15 7.15 l 11.3 11.2 l 7 -7.1 l 1 -1 q 3.183 1.742 3.85 0 q 0.916 -1.293 0 -6.25 z"></path><path d="M -81.14999999999999 14.987500000000004 l -10 10 l 0 25 l 10 -10 l 0 -25 z"></path><path d="M -28.650000000000006 -27.512499999999996 l 10 -10 l -30 0 l -10 10 l 30 0 z"></path></g><g><path d="M 50.75000000000003 -37.512499999999996 l -50 0 l -9.4 9.4 l 23.2 33.05 l 6.2 -6.25 l 0 33.8 l 10 -10 l 0 -36.15 l -1.1 1.1 q -2.967 2.977 -5.95 5.95 l -1.95 2 l -0.65 0.65 l -16.5 -23.5 l 36.2 0 l 10 -10 z"></path><g><path d="M 30.75 40.087500000000006 l 0 -17.6 q -7.3 -5 -10 10 l 0 20 l 17.5 -17.5 l -1.2 -1.2 l -6.3 6.3 z"></path></g></g><g><path d="M 70.79999999999998 22.487500000000004 l -10 10 l 50 0 l 10 -10 l 0 -35 l -10 10 l -15 0 l 0 -35 l -10 10 l 0 35 l 17.35 0 l 7.65 -7.6 l 0 22.6 l -40 0 z"></path><path d="M 83.29999999999998 49.987500000000004 l 7.5 7.5 l 7.5 -7.5 l -7.5 -7.5 l -7.5 7.5 z"></path></g><g><path d="M 140.79999999999998 -37.512499999999996 l -10 10 l 0 60 l 10 -10 l 0 -60 z"></path><g><path d="M 130.79999999999998 17.487500000000004 l 0 15 l 15 0 l 10 -10 l -15 0 l 0 -10 q -3.874 7.753 -10 5 z"></path></g></g><g><path d="M 176.94999999999996 -37.43749999999999 l -10 10 l 0 40 l 9.55 -9.55 l 20.65 29.4 l 7.5 -7.5 l -21.6 -30.85 l -6.1 6.1 l 0 -37.6 z"></path><path d="M 195.79999999999998 -47.4375 l 10 -10 l -30 0 l -10 10 l 30 0 z"></path></g></g></g>
</svg>
