<svg xmlns="http://www.w3.org/2000/svg" viewBox="0 0 569.15 136.375" width="569.15" height="136.375" fill="currentColor" stroke="none">
<g transform="translate(284.575 68.1875)"><g><g><path d="M -277.07500000000005 -48.21249999999999 l -7.5 7.5 57.5 62.5 7.5 -7.5 -57.5 -62.5 z"></path><path d="M -229.67500000000004 11.787500000000009 q -1.655 2.716 2.6 10 l 15 0 l 10 -10 l -20 0 q -7.015 -2.931 -7.6 0 z"></path><path d="M -274.57500000000005 4.2875000000000085 l -10 10 l 0 25 l 10 -10 l 0 -25 z"></path><path d="M -267.07500000000005 39.28750000000001 l 7.5 7.5 l 7.5 -7.5 l -7.5 -7.5 l -7.5 7.5 z"></path></g><g><path d="M -132.67500000000007 -48.21249999999999 l -50 0 l -9.4 9.4 l 23.2 33.05 l 6.2 -6.25 l 0 33.8 l 10 -10 l 0 -36.15 l -1.1 1.1 q -2.967 2.977 -5.95 5.95 l -1.95 2 l -0.65 0.65 l -16.5 -23.5 l 36.2 0 l 10 -10 z"></path><g><path d="M -162.67500000000007 41.78750000000001 l 10 -10 l 0 -20 q -7.3 -5 -10 10 l 0 20 z"></path></g></g><g><path d="M -77.47500000000005 -5.112499999999992 l 7.45 -7.5 27.05 34.4 7.5 -7.5 -27.8 -36 -7.75 7.8 -26.95 -34.3 -7.5 7.5 28 35.6 z"></path><path d="M -100.47500000000005 -45.71249999999999 l -5 5 l -10 -10 l -7.15 7.15 l 11.3 11.2 l 7 -7.1 l 1 -1 q 3.183 1.742 3.85 0 q 0.916 -1.293 0 -6.25 z"></path><path d="M -45.575000000000045 11.787500000000009 q -1.655 2.716 2.6 10 l 15 0 l 10 -10 l -20 0 q -7.015 -2.931 -7.6 0 z"></path><path d="M -92.97500000000005 4.2875000000000085 l -10 10 l 0 25 l 10 -10 l 0 -25 z"></path></g><g><path d="M 34.57499999999999 -48.21249999999999 l -10 10 l 0 60 l 10 -10 l 0 -50 l 30 0 l 10 -10 l -40 0 z"></path><g><path d="M 34.57499999999999 11.787500000000009 l 0 -7.3 q -4.546 5.888 -10 3.05 l 0 11.95 l -15.05 0 l -17.5 17.5 l 1.2 1.2 l 8.7 -8.7 l 15 0 l 17.65 -17.7 z"></path></g><path d="M 25.69999999999999 58.187500000000014 l 8.8 -8.8 l -1.2 -1.2 l -20 20 l 30 0 l 10 -10 l -27.6 0 z"></path></g><g><path d="M 132.075 21.78750000000001 l 7.5 -7.5 -26.9 -26.9 7.45 -7.55 -28.05 -28.05 -7.5 7.5 26.9 26.9 -7.5 7.5 28.1 28.1 z"></path><path d="M 136.52499999999998 15.38750000000001 q -1.825 3.28 -4.45 6.4 l -7.5 7.5 l -1.2 -1.2 l 7.5 -7.5 q -1.688 -4.106 -0.35 -4.55 q 1.45 -0.6 6 -0.65 z"></path><path d="M 97.07499999999999 39.28750000000001 l 7.5 7.5 l 7.5 -7.5 l -7.5 -7.5 l -7.5 7.5 z"></path></g><g><path d="M 159.575 -48.21249999999999 l -10 10 l 0 60 l 10 -10 l 0 -50 l 30 0 l 10 -10 l -40 0 z"></path></g><g><path d="M 219.575 -48.21249999999999 l -10 10 l 0 60 l 10 -10 l 0 -60 z"></path></g><g><path d="M 284.57500000000005 -48.18749999999999 l -10 10 l 0 20 l -35 0 l -10 10 l 29.95 29.95 l 7.5 -7.5 l -22.45 -22.45 l 30 0 l 10 -10 l 0 -30 z"></path><g><path d="M 258.625 20.162499999999987 l -11.2 11.3 l 22.4 0 l 10 -10.1 l -19.9 0 l 7.1 -7.1 q -10.446 -1.157 -8.4 5.9 z"></path></g><path d="M 267.07500000000005 -58.1875 l 10 -10 l -30 0 l -10 10 l 30 0 z"></path></g></g></g>
</svg>
