<svg xmlns="http://www.w3.org/2000/svg" viewBox="0 0 69.9 172.294907" width="69.9" height="172.294907" fill="currentColor" stroke="none">
<g transform="translate(34.95 86.147453)"><g><g><path d="M -12.550000000000004 -35.65 l -10 10 l 0 60 l 10 -10 l 0 -50 l 30 0 l 10 -10 l -40 0 z"></path><g><path d="M 7.449999999999996 -25.65 l 10 0 l 17.5 -17.5 l -1.2 -1.2 l -8.7 8.7 l -7.6 0 q 0.83 5.4 -10 10 z"></path></g><g><path d="M -34.95 44.35 l 22.4 0 l 10 -10.1 l -19.9 0 l -0.1 0.1 l 0 -0.1 l 0.05 0 l 9.95 -9.9 l 0 -5 q -5 5.774 -10 5 l 0 7.55 l -12.4 12.4 z"></path></g></g></g></g>
</svg>
