<svg xmlns="http://www.w3.org/2000/svg" viewBox="0 0 51.2 172.294907" width="51.2" height="172.294907" fill="currentColor" stroke="none">
<g transform="translate(25.6 86.160475)"><g><g><path d="M 15.600000000000001 -19.4833378334925 l -10 10 l 0 -33.85 l -10 10 l 0 36.2 l 10 -9.95 l 0 33.75 l 10 -10 l 0 -36.15 z"></path><g><path d="M 5.599999999999998 -27.6833378334925 l 0 -15.65 l -10 10 q -9.4 -17.75 -21.2 -6.85 q 12.25 -2.15 14.85 15.5 l 6.35 -6.3 l 0 8.1 q 4.8 -9.5 10 -4.8 z"></path></g><g><path d="M 5.599999999999998 24.2666621665075 l -7.5 7.55 q 16.8 -0.55 27.5 12.45 q -4.6 -18.35 -18.85 -18.8 l 8.85 -8.8 l 0 -5 q -4.75 4.55 -10 1.5 l 0 11.1 z"></path></g></g></g></g>
</svg>
