<svg xmlns="http://www.w3.org/2000/svg" viewBox="0 0 54.85 172.294907" width="54.85" height="172.294907" fill="currentColor" stroke="none">
<g transform="translate(27.425 86.147453)"><g><g><path d="M 17.425 -2.875 l 10 -10 l -29.85 -29.85 l -7.5 7.5 l 22.35 22.35 l -20 0 l -15 15 l 25.6 25.6 l 7.5 -7.5 l -23.1 -23.1 l 30 0 z"></path><g><path d="M 0.1750000000000007 -32.725 q 1.655 -2.716 -2.6 -10 l -15 0 l -10 10 l 20 0 q 7.015 2.931 7.6 0 z"></path></g><g><path d="M 23.025000000000002 17.725 l -15 0 q -7 -2.95 -7.6 0 q -1.65 2.7 2.6 10 l 10 0 l 0 15 l 10 -10 l 0 -15 z"></path></g></g></g></g>
</svg>
