<svg xmlns="http://www.w3.org/2000/svg" viewBox="0 0 64.2 143.8" width="64.2" height="143.8" fill="currentColor" stroke="none">
<g transform="translate(32.1 71.9)"><g><g fill="currentColor"><path d="M -20.3 -53.10000000000001 l -7.5 7.5 l 31.25 31.25 l -31.25 31.25 l 40 0 l 10 -10 l -37.6 0 l 27.5 -27.6 l -32.4 -32.4 z"></path><g><path d="M -32.1 -64.9 l 11.8 11.8 l -5 5 q 7.681 1.687 7.1 -0.5 l -0.95 -3.35 l 7.05 -7.05 l -13 -12.9 z"></path></g><g><path d="M -0.1999999999999993 26.89999999999999 l 22.4 0 l 9.9 -10 l -19.9 0 l 10 -10 l -12.65 0 q 5.504 3.447 -5.3 10 l 5.5 0 l -9.95 10 z"></path></g><path d="M 10 61.89999999999999 l 0 -25 l -20 20 l 1.2 1.2 l 8.8 -8.8 l 0 22.6 l 10 -10 z"></path></g></g></g>
</svg>
