<svg xmlns="http://www.w3.org/2000/svg" viewBox="0 0 71.2 172.294907" width="71.2" height="172.294907" fill="currentColor" stroke="none">
<g transform="translate(35.605806 86.147453)"><g><g><path d="M -15.605805561052506 -24.4 l -10 10 l 0 35 l 26.3 0 l 8.7 -8.75 l 0 33.75 l 10 -10 l 0 -36.15 l -11.15 11.15 l -23.85 0 l 0 -35 z"></path><g><path d="M -3.2058055610525074 -34.4 l -22.4 0 l -10 10.1 l 19.9 0 l 0.1 -0.1 l 0 0.1 l -0.05 0 l -9.95 9.9 l 0 5 q 5 -5.774 10 -5 l 0 -7.55 l 12.4 -12.4 z"></path></g><g><path d="M 9.394194438947494 29.950000000000003 l 0 15.65 l 10 -10.05 q 10.8 2.6 16.2 18.85 q 0.35 -21.9 -9.85 -27.5 l -6.35 6.35 l 0 -8.1 q -4.8 9.5 -10 4.8 z"></path></g><path d="M 9.994194438947495 -44.4 l 10 -10 l -30 0 l -10 10 l 30 0 z"></path></g></g></g>
</svg>
