<svg xmlns="http://www.w3.org/2000/svg" viewBox="0 0 101.2 118.8" width="101.2" height="118.8" fill="currentColor" stroke="none">
<g transform="translate(50.605425 59.4)"><g><g><path d="M -32.4054250485525 -29.400000000000006 l -10 10 l 0 60 l 10 -10 l 0 -60 z"></path><g><path d="M -30.605425048552505 52.39999999999999 l -11.8 -11.8 l 10 -10 l 0 -5 q -5.188 7.964 -10 5 l 0 7.7 l -8.2 8.2 l 13 12.9 l 7 -7 z"></path></g></g><g><path d="M -0.6054250485525046 -29.400000000000006 l -10 10 l 0 35 l 26.3 0 l 8.7 -8.75 l 0 33.75 l 10 -10 l 0 -36.15 l -11.15 11.15 l -23.85 0 l 0 -35 z"></path><g><path d="M 11.794574951447487 -39.400000000000006 l -22.4 0 l -10 10.1 l 19.9 0 l 0.1 -0.1 l 0 0.1 l -0.05 0 l -9.95 9.9 l 0 5 q 5 -5.774 10 -5 l 0 -7.55 l 12.4 -12.4 z"></path></g><g><path d="M 24.394574951447495 24.949999999999996 l 0 15.65 l 10 -10.05 q 10.8 2.6 16.2 18.85 q 0.35 -21.9 -9.85 -27.5 l -6.35 6.35 l 0 -8.1 q -4.8 9.5 -10 4.8 z"></path></g><path d="M 24.99457495144749 -49.400000000000006 l 10 -10 l -30 0 l -10 10 l 30 0 z"></path></g></g></g>
</svg>
