<svg xmlns="http://www.w3.org/2000/svg" viewBox="0 0 55 172.294907" width="55" height="172.294907" fill="currentColor" stroke="none">
<g transform="translate(27.5 86.147453)"><g><g><path d="M 27.5 -24.974999999999987 l -10 10 l 0 20 l -35 0 l -10 10 l 29.95 29.95 l 7.5 -7.5 l -22.45 -22.45 l 30 0 l 10 -10 l 0 -30 z"></path><g><path d="M 17.549999999999997 -12.574999999999996 l -0.05 5.05 q 4.6 -6.3 10 -4 l 0 -13.45 l -9.95 10 l -12.65 0 l 7.5 -7.5 l -1.2 -1.2 l -18.7 18.7 l 17.45 0 l 7.6 -7.6 z"></path></g><g><path d="M 8.75 36.27499999999999 q -6.486 -1.216 -4.75 5 q 2.924 -3.894 5.95 -3.8 l 8.8 -8.8 l 0 -15 l -10 10 l 0 12.6 z"></path></g><path d="M 10 -34.974999999999994 l 10 -10 l -30 0 l -10 10 l 30 0 z"></path></g></g></g>
</svg>
