<svg xmlns="http://www.w3.org/2000/svg" viewBox="0 0 105 90.45" width="105" height="90.45" fill="currentColor" stroke="none">
<g transform="translate(52.5 45.225)"><g><g><path d="M -32.5 -24.999999999999993 l -10 10 l 0 60 l 10 -10 l 0 -60 z"></path><g><path d="M -32.5 -9.999999999999993 l 0 -15 l -10 10 l 0 -20 l -10 9.9 l 0 22.4 l 10 -9.95 l 0 5.15 q 5 -6.1 10 -2.5 z"></path></g><g><path d="M -32.5 35.00000000000001 l 15 0 l 10 -10 l -17.45 0 l -7.6 7.6 l 0.05 -5.05 q -4.6 6.3 -10 4 l 0 13.45 l 9.95 -10 z"></path></g></g><g><path d="M 42.5 14.625000000000007 l 10 -10 l -29.85 -29.85 l -7.5 7.5 l 22.35 22.35 l -20 0 l -15 15 l 25.6 25.6 l 7.5 -7.5 l -23.1 -23.1 l 30 0 z"></path><path d="M 37.5 -35.224999999999994 l 10 -10 l -30 0 l -10 10 l 30 0 z"></path></g></g></g>
</svg>
