<svg xmlns="http://www.w3.org/2000/svg" viewBox="0 0 60.65 172.294907" width="60.65" height="172.294907" fill="currentColor" stroke="none">
<g transform="translate(30.325 86.147453)"><g><g><path d="M 29.674999999999997 -49.8796840415075 l -50 0 l -10 10 l 0 27 l 33.1 33.1 l 7.5 -7.5 l -30.6 -30.6 l 0 -22 l 40 0 l 10 -10 z"></path><g><path d="M 29.674999999999997 -49.8796840415075 l -15 0 q 2.75 6.15 -5 10 l 10 0 l 0 12.6 l -7.5 7.5 l 1.2 1.2 l 16.3 -16.3 l 0 -15 z"></path></g><g><path d="M 9.125 11.570315958492493 l 0 -0.05 q -8.1 -2.8 -6.35 8.7 l 6.35 -6.3 q 9.4 17.75 21.2 6.85 q -12.25 2.15 -14.85 -15.5 l -6.35 6.3 z"></path></g><path d="M -7.5000000000000036 42.3796840415075 l 7.5 7.5 l 7.5 -7.5 l -7.5 -7.5 l -7.5 7.5 z"></path></g></g></g>
</svg>
