<svg xmlns="http://www.w3.org/2000/svg" viewBox="0 0 646.4 156.3" width="646.4" height="156.3" fill="currentColor" stroke="none">
<g transform="translate(323.2 78.15)"><g><g><path d="M -275.70000000000005 16.825000000000017 l 7.5 -7.5 -26.9 -26.9 7.45 -7.55 -28.05 -28.05 -7.5 7.5 26.9 26.9 -7.5 7.5 28.1 28.1 z"></path><path d="M -293.20000000000005 36.82500000000002 l 10 -10 l -30 0 l -10 10 l 30 0 z"></path></g><g><path d="M -248.30000000000004 -53.19999999999998 l -9.9 9.95 l 47.35 58.35 l 0.05 0 l 1.4 1.75 l 7.5 -7.5 l -42.7 -52.55 l 52.05 0 l 10 -10 l -65.75 0 z"></path><g><path d="M -182.55000000000004 -53.19999999999998 l 12.65 0 l -7.5 7.5 l 1.2 1.2 l 18.7 -18.7 l -17.45 0 l -9.95 10 l -7.6 0 q 4.95 4.2 -6.25 10 l 6.25 0 l 9.95 -10 z"></path></g><g><path d="M -203.10000000000005 28.00000000000003 l -7.5 7.5 l 1.2 1.2 l 16.3 -16.3 l 0 -22.35 l -10 10.1 q -4.2 -0.65 -6.3 2.7 q -0.8 1 0 6 l 6.3 -6.3 l 0 17.45 z"></path></g></g><g><path d="M -92.50000000000003 -53.149999999999984 l -10 10 l 0 20 l -35 0 l -10 10 l 29.95 29.95 l 7.5 -7.5 l -22.45 -22.45 l 30 0 l 10 -10 l 0 -30 z"></path><path d="M -130.00000000000003 36.8 l 0 25 l 20 -20 l -1.2 -1.2 l -8.8 8.8 l 0 -22.6 l -10 10 z"></path></g><g><path d="M -54.55000000000007 -68.17499999999998 l -7.5 7.5 l 21.65 27.5 l 7.45 -7.5 l -21.6 -27.5 z"></path><path d="M -72.50000000000003 -23.174999999999983 l -10 10 l 50 0 l 10 -10 l -50 0 z"></path></g><g><path d="M 15.5 -10.074999999999983 l 7.45 -7.5 27.05 34.4 7.5 -7.5 -27.8 -36 -7.75 7.8 -26.95 -34.3 -7.5 7.5 28 35.6 z"></path><path d="M 0 -0.674999999999983 l -10 10 l 0 25 l 10 -10 l 0 -25 z"></path></g><g><path d="M 117.5 -43.17499999999998 l 10 -10 l -50 0 l -10 10 l 0 35 l 10 -10 l 15 0 l 0 35 l 10 -10 l 0 -35 l -17.35 0 l -7.65 7.6 l 0 -22.6 l 40 0 z"></path></g><g><path d="M 147.5 -53.17499999999998 l -10 10 l 0 60 l 10 -10 l 0 -60 z"></path><g><path d="M 147.55 -50.874999999999986 l 15 0 l 10 -10 l -17.4 0 l -17.65 17.7 l 0 7.3 q 5.4 -4.35 10 -2.75 l 0 -12.25 z"></path></g></g><g><path d="M 248.20000000000005 -43.09999999999998 l 10 -10 l -65.75 0 l -9.9 9.95 l 30.45 37.55 l 7.25 -7.3 l 24.15 29.65 l 7.45 -7.4 l -25.2 -31.05 l -7.5 7.45 l -23.1 -28.85 l 52.15 0 z"></path><path d="M 230.375 -63.09999999999998 l 10 -10 l -30 0 l -10 10 l 30 0 z"></path></g><g fill="currentColor"><path d="M 323.20000000000005 -53.149999999999984 l -10 10 l 0 20 l -35 0 l -10 10 l 29.95 29.95 l 7.5 -7.5 l -22.45 -22.45 l 30 0 l 10 -10 l 0 -30 z"></path><g><path d="M 280.6500000000001 46.94999999999999 l 1.2 1.2 l 16.3 -16.3 l 0 -15.05 l 7.5 -7.5 q -11.45 -4.9 -8.7 6.3 l -8.8 8.9 l 0 14.95 l -7.5 7.5 z"></path></g><path d="M 288.20000000000005 -70.64999999999999 l 7.5 7.5 l 7.5 -7.5 l -7.5 -7.5 l -7.5 7.5 z"></path><path d="M 288.1 68.14999999999999 l 8.8 -8.8 l -1.2 -1.2 l -20 20 l 30 0 l 10 -10 l -27.6 0 z"></path></g></g></g>
</svg>
