<svg xmlns="http://www.w3.org/2000/svg" viewBox="0 0 85.05 172.294907" width="85.05" height="172.294907" fill="currentColor" stroke="none">
<g transform="translate(42.525 86.147453)"><g><g><path d="M -27.47500000000001 -20 l 34.95 0 l 10 -10 l -50 0 l -10 10 l 25 25 l 0 35 l 10 -10 l 0 -30.05 l -19.95 -19.95 z"></path><g><path d="M 17.474999999999994 -30 l 12.65 0 l -7.5 7.5 l 1.2 1.2 l 18.7 -18.7 l -17.45 0 l -9.95 10 l -7.6 0 q 4.95 4.2 -6.25 10 l 6.25 0 l 9.95 -10 z"></path></g><g><path d="M -17.52500000000001 60 l 10 -10 l 0 -20 q -7.3 -5 -10 10 l 0 20 z"></path></g><path d="M 9.999999999999993 -50 l 10 -10 l -30 0 l -10 10 l 30 0 z"></path></g></g></g>
</svg>
