<svg xmlns="http://www.w3.org/2000/svg" viewBox="0 0 58.8 115" width="58.8" height="115" fill="currentColor" stroke="none">
<g transform="translate(29.4 57.5)"><g><g fill="currentColor"><path d="M -13.099999999999998 -57.5 l -7.5 7.5 l 31.25 31.25 l -31.25 31.25 l 40 0 l 10 -10 l -37.6 0 l 27.5 -27.6 l -32.4 -32.4 z"></path><g><path d="M -19.4 -48.8 q 6.486 1.216 4.75 -5 q -2.924 3.894 -5.95 3.8 l -8.8 8.8 l 0 15 l 10 -10 l 0 -12.6 z"></path></g><g><path d="M 9.400000000000002 2.5 q 6.368 3.408 0 10 l 10 0 l 10 -10 l 0 -15 l -10 10 l 0 5 l -10 0 z"></path></g><path d="M -9.999999999999996 32.5 l 0 25 l 20 -20 l -1.2 -1.2 l -8.8 8.8 l 0 -22.6 l -10 10 z"></path></g></g></g>
</svg>
