<svg xmlns="http://www.w3.org/2000/svg" viewBox="0 0 291.85 108.8" width="291.85" height="108.8" fill="currentColor" stroke="none">
<g transform="translate(145.925 54.4)"><g><g><path d="M -127.72499999999998 -34.400000000000006 l -10 10 l 0 60 l 10 -10 l 0 -60 z"></path><g><path d="M -125.92499999999998 47.39999999999999 l -11.8 -11.8 l 10 -10 l 0 -5 q -5.188 7.964 -10 5 l 0 7.7 l -8.2 8.2 l 13 12.9 l 7 -7 z"></path></g></g><g><path d="M -60.92499999999998 -34.37500000000001 l -10 10 l 0 20 l -35 0 l -10 10 l 29.95 29.95 l 7.5 -7.5 l -22.45 -22.45 l 30 0 l 10 -10 l 0 -30 z"></path><g><path d="M -88.57499999999999 25.574999999999974 q -1.655 2.716 2.6 10 l 15 0 l 10 -10 l -20 0 q -7.015 -2.931 -7.6 0 z"></path></g><path d="M -78.42499999999998 -44.375000000000014 l 10 -10 l -30 0 l -10 10 l 30 0 z"></path></g><g><path d="M -32.72499999999998 -34.400000000000006 l -10 10 l 0 60 l 10 -10 l 0 -60 z"></path><g><path d="M -30.924999999999983 47.39999999999999 l -11.8 -11.8 l 10 -10 l 0 -5 q -5.188 7.964 -10 5 l 0 7.7 l -8.2 8.2 l 13 12.9 l 7 -7 z"></path></g></g><g><path d="M 38.47500000000002 -34.400000000000006 l -50 0 l -9.4 9.4 l 23.2 33.05 l 6.2 -6.25 l 0 33.8 l 10 -10 l 0 -36.15 l -1.1 1.1 q -2.967 2.977 -5.95 5.95 l -1.95 2 l -0.65 0.65 l -16.5 -23.5 l 36.2 0 l 10 -10 z"></path><path d="M 18.80000000000001 -44.400000000000006 l 10 -10 l -30 0 l -10 10 l 30 0 z"></path></g><g><path d="M 70.92500000000001 -34.400000000000006 l -10 10 l 0 60 l 10 -10 l 0 -60 z"></path><g><path d="M 48.525000000000006 45.599999999999994 l 22.4 0 l 10 -10.1 l -19.9 0 l -0.1 0.1 l 0 -0.1 l 0.05 0 l 9.95 -9.9 l 0 -5 q -5 5.774 -10 5 l 0 7.55 l -12.4 12.4 z"></path></g></g><g><path d="M 145.92499999999998 -34.37500000000001 l -10 10 l 0 20 l -35 0 l -10 10 l 29.95 29.95 l 7.5 -7.5 l -22.45 -22.45 l 30 0 l 10 -10 l 0 -30 z"></path><g><path d="M 123.37500000000003 33.074999999999974 l 5 -5 l 10 10 l 7.15 -7.15 l -11.3 -11.2 l -7 7.1 l -1 1 q -3.183 -1.742 -3.85 0 q -0.916 1.293 0 6.25 z"></path></g><path d="M 128.42499999999998 -44.375000000000014 l 10 -10 l -30 0 l -10 10 l 30 0 z"></path></g></g></g>
</svg>
