<svg xmlns="http://www.w3.org/2000/svg" viewBox="0 0 140 99.675" width="140" height="99.675" fill="currentColor" stroke="none">
<g transform="translate(70 49.8375)"><g><g><path d="M -42 13.262500000000008 l 7.45 -7.5 27.05 34.4 7.5 -7.5 -27.8 -36 -7.75 7.8 -26.95 -34.3 -7.5 7.5 28 35.6 z"></path><path d="M -61.35 -28.687499999999993 l 15.05 0 l 10 -10 l -17.45 0 l -8.75 8.85 q -1.75 3.2 -4.85 7.2 q 5.7 0.35 6 -6.05 z"></path><path d="M -3.049999999999997 33.76250000000001 q -1.825 3.28 -4.45 6.4 l -7.5 7.5 l -1.2 -1.2 l 7.5 -7.5 q -1.688 -4.106 -0.35 -4.55 q 1.45 -0.6 6 -0.65 z"></path><path d="M -5 -19.83749999999999 l 10 -10 l -30 0 l -10 10 l 30 0 z"></path><path d="M -25 -39.83749999999999 l 10 -10 l -30 0 l -10 10 l 30 0 z"></path></g><g><path d="M 70 -29.812499999999993 l -10 10 l 0 20 l -35 0 l -10 10 l 29.95 29.95 l 7.5 -7.5 l -22.45 -22.45 l 30 0 l 10 -10 l 0 -30 z"></path><g><path d="M 44.05 38.53749999999999 l -11.2 11.3 l 22.4 0 l 10 -10.1 l -19.9 0 l 7.1 -7.1 q -10.446 -1.157 -8.4 5.9 z"></path></g></g></g></g>
</svg>
