<svg xmlns="http://www.w3.org/2000/svg" viewBox="0 0 58.8 172.294907" width="58.8" height="172.294907" fill="currentColor" stroke="none">
<g transform="translate(29.4 86.147453)"><g><g><path d="M -13.099999999999998 -35.650000000000006 l -7.5 7.5 l 31.25 31.25 l -31.25 31.25 l 40 0 l 10 -10 l -37.6 0 l 27.5 -27.6 l -32.4 -32.4 z"></path><g><path d="M -19.4 -26.950000000000006 q 6.486 1.216 4.75 -5 q -2.924 3.894 -5.95 3.8 l -8.8 8.8 l 0 15 l 10 -10 l 0 -12.6 z"></path></g><g><path d="M 29.400000000000002 24.349999999999994 l -15 0 q 2.75 6.15 -5 10 l 10 0 l 0 12.6 l -7.5 7.5 l 1.2 1.2 l 16.3 -16.3 l 0 -15 z"></path></g><path d="M 10.000000000000004 -45.650000000000006 l 10 -10 l -30 0 l -10 10 l 30 0 z"></path></g></g></g>
</svg>
