<svg xmlns="http://www.w3.org/2000/svg"
 viewBox="0 0 1370 52" width="1370" height="52"
 fill="#fff" color="#fff" stroke="none">
<g><svg x="0" y="0" width="27" height="52" viewBox="0 0 90 172.294907" preserveAspectRatio="xMidYMid meet" color="#fff" fill="#fff" stroke="none"><g transform="translate(45 86.147453)"><g><g><path d="M -30 -47.5 l -7.5 7.5 57.5 62.5 7.5 -7.5 -57.5 -62.5 z"></path><path d="M 17.4 12.5 q -1.655 2.716 2.6 10 l 15 0 l 10 -10 l -20 0 q -7.015 -2.931 -7.6 0 z"></path><path d="M -15 22.5 l 10 -10 l -30 0 l -10 10 l 30 0 z"></path><path d="M -20 40 l 7.5 7.5 l 7.5 -7.5 l -7.5 -7.5 l -7.5 7.5 z"></path></g></g></g></svg><svg x="30" y="0" width="12" height="52" viewBox="0 0 40 172.294907" preserveAspectRatio="xMidYMid meet" color="#fff" fill="#fff" stroke="none"><g transform="translate(20 86.147453)"><g><g><path d="M 0 -16.15 l -10 10 l 0 -33.85 l -10 10 l 0 36.2 l 10 -9.95 l 0 33.75 l 10 -10 l 0 -36.15 z"></path><g><path d="M 20 30 l -15 0 l 10 -10 l -15 0 l 0 -10 q -3.85 7.75 -10 5 l 0 15 l 12.55 0 l -9.95 10 l 17.4 0 l 10 -10 z"></path></g></g></g></g></svg><svg x="45" y="0" width="30" height="52" viewBox="0 0 99.65 172.294907" preserveAspectRatio="xMidYMid meet" color="#fff" fill="#fff" stroke="none"><g transform="translate(49.825 86.147453)"><g><g><path d="M -25.174999999999997 -33.75 l -7.5 7.5 57.5 62.5 7.5 -7.5 -57.5 -62.5 z"></path><path d="M -27.674999999999997 -31.25 l -5 5 l -10 -10 l -7.15 7.15 l 11.3 11.2 l 7 -7.1 l 1 -1 q 3.183 1.742 3.85 0 q 0.916 -1.293 0 -6.25 z"></path><path d="M 22.225 26.25 q -1.655 2.716 2.6 10 l 15 0 l 10 -10 l -20 0 q -7.015 -2.931 -7.6 0 z"></path><path d="M -32.675 16.25 l 20 20 l 7.5 -7.5 l -20 -20 l -7.5 7.5 z"></path></g></g></g></svg><svg x="78" y="0" width="12" height="52" viewBox="0 0 40 172.294907" preserveAspectRatio="xMidYMid meet" color="#fff" fill="#fff" stroke="none"><g transform="translate(20 86.147453)"><g><g><path d="M -8.85 -24.92499999999999 l -10 10 l 0 40 l 9.55 -9.55 l 20.65 29.4 l 7.5 -7.5 l -21.6 -30.85 l -6.1 6.1 l 0 -37.6 z"></path><path d="M 10 -34.925 l 10 -10 l -30 0 l -10 10 l 30 0 z"></path></g></g></g></svg><svg x="93" y="0" width="18" height="52" viewBox="0 0 60 172.294907" preserveAspectRatio="xMidYMid meet" color="#fff" fill="#fff" stroke="none"><g transform="translate(30 86.147453)"><g><g><path d="M 2.5 -17.5 l 12.5 12.5 l -25 0 l -10 10 l 40 0 l 10 -10 l -20 -20 l -7.5 7.5 z"></path><path d="M -20 15 l -10 10 l 50 0 l 10 -10 l -50 0 z"></path></g></g></g></svg><svg x="114" y="0" width="18" height="52" viewBox="0 0 60 172.294907" preserveAspectRatio="xMidYMid meet" color="#fff" fill="#fff" stroke="none"><g transform="translate(30 86.147453)"><g><g><path d="M 10 22.5 l 10 -10 l 0 -50 l 10 -10 l -45 0 l -10 10 l 42.6 0 l -7.6 7.6 l 0 42.4 l -30 0 l -10 10 l 40 0 z"></path><path d="M -7.5 40 l 7.5 7.5 l 7.5 -7.5 l -7.5 -7.5 l -7.5 7.5 z"></path></g></g></g></svg><svg x="135" y="0" width="26" height="52" viewBox="0 0 87.15 172.294907" preserveAspectRatio="xMidYMid meet" color="#fff" fill="#fff" stroke="none"><g transform="translate(43.575 86.147453)"><g><g><path d="M 1.5749999999999957 9.35 l 7.45 -7.5 27.05 34.4 7.5 -7.5 -27.8 -36 -7.75 7.8 -26.95 -34.3 -7.5 7.5 28 35.6 z"></path><path d="M -21.425000000000004 -31.25 l -5 5 l -10 -10 l -7.15 7.15 l 11.3 11.2 l 7 -7.1 l 1 -1 q 3.183 1.742 3.85 0 q 0.916 -1.293 0 -6.25 z"></path><path d="M -13.925000000000004 18.75 l -10 10 l 0 25 l 10 -10 l 0 -25 z"></path><path d="M 18.574999999999996 -43.75 l 10 -10 l -30 0 l -10 10 l 30 0 z"></path></g></g></g></svg><svg x="164" y="0" width="16" height="52" viewBox="0 0 52.5 172.294907" preserveAspectRatio="xMidYMid meet" color="#fff" fill="#fff" stroke="none"><g transform="translate(26.25 86.147453)"><g><g><path d="M 18.75 -21.15 l -10 10 l 0 -33.85 l -10 10 l 0 36.2 l 10 -9.95 l 0 33.75 l 10 -10 l 0 -36.15 z"></path><g><path d="M -1.25 -35 l -15 0 l -10 10 l 17.45 0 l 7.6 -7.6 l -0.05 5.05 q 4.6 -6.3 10 -4 l 0 -13.45 l -9.95 10 z"></path></g><g><path d="M 18.75 32.6 l 0 -17.6 q -7.3 -5 -10 10 l 0 20 l 17.5 -17.5 l -1.2 -1.2 l -6.3 6.3 z"></path></g></g></g></g></svg><svg x="183" y="0" width="11" height="52" viewBox="0 0 35 172.294907" preserveAspectRatio="xMidYMid meet" color="#fff" fill="#fff" stroke="none"><g transform="translate(17.5 86.147453)"><g><g><path d="M 10 -11.15 l -10 10 l 0 -33.85 l -10 10 l 0 36.2 l 10 -9.95 l 0 33.75 l 10 -10 l 0 -36.15 z"></path><g><path d="M -10 -42.6 l 0 17.6 q 7.3 5 10 -10 l 0 -20 l -17.5 17.5 l 1.2 1.2 l 6.3 -6.3 z"></path></g><g><path d="M 10 42.6 l 0 -17.6 q -7.3 -5 -10 10 l 0 20 l 17.5 -17.5 l -1.2 -1.2 l -6.3 6.3 z"></path></g></g></g></g></svg><svg x="197" y="0" width="11" height="52" viewBox="0 0 35.05 172.294907" preserveAspectRatio="xMidYMid meet" color="#fff" fill="#fff" stroke="none"><g transform="translate(17.525 86.147453)"><g><g><path d="M -7.524999999999999 -36.15 l -10 10 l 0 60 l 10 -10 l 0 -60 z"></path><g><path d="M -7.474999999999998 -33.85 l 15 0 l 10 -10 l -17.4 0 l -17.65 17.7 l 0 7.3 q 5.4 -4.35 10 -2.75 l 0 -12.25 z"></path></g><g><path d="M -17.525 18.85 l 0 15 l 10 -10 l 0 20 l 10 -9.9 l 0 -22.4 l -10 9.95 l 0 -5.15 q -5 6.1 -10 2.5 z"></path></g></g></g></g></svg><svg x="211" y="0" width="20" height="52" viewBox="0 0 65 172.294907" preserveAspectRatio="xMidYMid meet" color="#fff" fill="#fff" stroke="none"><g transform="translate(32.5 86.147453)"><g><g><path d="M -25 -45 l -7.5 7.5 57.5 62.5 7.5 -7.5 -57.5 -62.5 z"></path><path d="M 2.5 45 l 10 -10 l -30 0 l -10 10 l 30 0 z"></path></g></g></g></svg><svg x="234" y="0" width="15" height="52" viewBox="0 0 50 172.294907" preserveAspectRatio="xMidYMid meet" color="#fff" fill="#fff" stroke="none"><g transform="translate(25 86.147453)"><g><g><path d="M -15 -45 l -10 10 l 0 60 l 10 -10 l 0 -50 l 30 0 l 10 -10 l -40 0 z"></path><path d="M -7.5 -62.5 l 7.5 7.5 l 7.5 -7.5 l -7.5 -7.5 l -7.5 7.5 z"></path><path d="M -10 45 l 0 25 l 20 -20 l -1.2 -1.2 l -8.8 8.8 l 0 -22.6 l -10 10 z"></path></g></g></g></svg><svg x="252" y="0" width="18" height="52" viewBox="0 0 60 172.294907" preserveAspectRatio="xMidYMid meet" color="#fff" fill="#fff" stroke="none"><g transform="translate(30 86.147453)"><g><g fill="currentColor"><path d="M -14.950000000000003 -57.5 l 34.95 0 l 10 -10 l -50 0 l -10 10 l 25 25 l 0 35 l 10 -10 l 0 -30.05 l -19.95 -19.95 z"></path><g><path d="M -5.0000000000000036 22.5 l 10 -10 l 0 -20 q -7.3 -5 -10 10 l 0 20 z"></path></g><path d="M -10 42.5 l 0 25 l 20 -20 l -1.2 -1.2 l -8.8 8.8 l 0 -22.6 l -10 10 z"></path></g></g></g></svg><svg x="273" y="0" width="25" height="52" viewBox="0 0 82.15 172.294907" preserveAspectRatio="xMidYMid meet" color="#fff" fill="#fff" stroke="none"><g transform="translate(41.075 86.147453)"><g><g><path d="M -16.425000000000004 -33.75 l -7.5 7.5 57.5 62.5 7.5 -7.5 -57.5 -62.5 z"></path><path d="M -18.925000000000004 -31.25 l -5 5 l -10 -10 l -7.15 7.15 l 11.3 11.2 l 7 -7.1 l 1 -1 q 3.183 1.742 3.85 0 q 0.916 -1.293 0 -6.25 z"></path><path d="M -23.925000000000004 16.25 l 20 20 l 7.5 -7.5 l -20 -20 l -7.5 7.5 z"></path></g></g></g></svg><svg x="301" y="0" width="12" height="52" viewBox="0 0 40 172.294907" preserveAspectRatio="xMidYMid meet" color="#fff" fill="#fff" stroke="none"><g transform="translate(20 86.147453)"><g><g><path d="M 0 -16.15 l -10 10 l 0 -33.85 l -10 10 l 0 36.2 l 10 -9.95 l 0 33.75 l 10 -10 l 0 -36.15 z"></path><g><path d="M 20 30 l -15 0 l 10 -10 l -15 0 l 0 -10 q -3.85 7.75 -10 5 l 0 15 l 12.55 0 l -9.95 10 l 17.4 0 l 10 -10 z"></path></g></g></g></g></svg><svg x="316" y="0" width="27" height="52" viewBox="0 0 90 172.294907" preserveAspectRatio="xMidYMid meet" color="#fff" fill="#fff" stroke="none"><g transform="translate(45 86.147453)"><g><g><path d="M -30 -47.5 l -7.5 7.5 57.5 62.5 7.5 -7.5 -57.5 -62.5 z"></path><path d="M 17.4 12.5 q -1.655 2.716 2.6 10 l 15 0 l 10 -10 l -20 0 q -7.015 -2.931 -7.6 0 z"></path><path d="M -15 22.5 l 10 -10 l -30 0 l -10 10 l 30 0 z"></path><path d="M -20 40 l 7.5 7.5 l 7.5 -7.5 l -7.5 -7.5 l -7.5 7.5 z"></path></g></g></g></svg><svg x="346" y="0" width="25" height="52" viewBox="0 0 82.15 172.294907" preserveAspectRatio="xMidYMid meet" color="#fff" fill="#fff" stroke="none"><g transform="translate(41.075 86.147453)"><g><g><path d="M -16.425000000000004 -33.75 l -7.5 7.5 57.5 62.5 7.5 -7.5 -57.5 -62.5 z"></path><path d="M -18.925000000000004 -31.25 l -5 5 l -10 -10 l -7.15 7.15 l 11.3 11.2 l 7 -7.1 l 1 -1 q 3.183 1.742 3.85 0 q 0.916 -1.293 0 -6.25 z"></path><path d="M -23.925000000000004 16.25 l 20 20 l 7.5 -7.5 l -20 -20 l -7.5 7.5 z"></path></g></g></g></svg><svg x="374" y="0" width="18" height="52" viewBox="0 0 60 172.294907" preserveAspectRatio="xMidYMid meet" color="#fff" fill="#fff" stroke="none"><g transform="translate(30 86.147453)"><g><g fill="currentColor"><path d="M -14.950000000000003 -57.5 l 34.95 0 l 10 -10 l -50 0 l -10 10 l 25 25 l 0 35 l 10 -10 l 0 -30.05 l -19.95 -19.95 z"></path><g><path d="M -5.0000000000000036 22.5 l 10 -10 l 0 -20 q -7.3 -5 -10 10 l 0 20 z"></path></g><path d="M -10 42.5 l 0 25 l 20 -20 l -1.2 -1.2 l -8.8 8.8 l 0 -22.6 l -10 10 z"></path></g></g></g></svg><svg x="395" y="0" width="15" height="52" viewBox="0 0 50 172.294907" preserveAspectRatio="xMidYMid meet" color="#fff" fill="#fff" stroke="none"><g transform="translate(25 86.147453)"><g><g><path d="M -15 -45 l -10 10 l 0 60 l 10 -10 l 0 -50 l 30 0 l 10 -10 l -40 0 z"></path><path d="M -7.5 -62.5 l 7.5 7.5 l 7.5 -7.5 l -7.5 -7.5 l -7.5 7.5 z"></path><path d="M -10 45 l 0 25 l 20 -20 l -1.2 -1.2 l -8.8 8.8 l 0 -22.6 l -10 10 z"></path></g></g></g></svg><svg x="413" y="0" width="20" height="52" viewBox="0 0 65 172.294907" preserveAspectRatio="xMidYMid meet" color="#fff" fill="#fff" stroke="none"><g transform="translate(32.5 86.147453)"><g><g><path d="M -25 -45 l -7.5 7.5 57.5 62.5 7.5 -7.5 -57.5 -62.5 z"></path><path d="M 2.5 45 l 10 -10 l -30 0 l -10 10 l 30 0 z"></path></g></g></g></svg><svg x="436" y="0" width="11" height="52" viewBox="0 0 35.05 172.294907" preserveAspectRatio="xMidYMid meet" color="#fff" fill="#fff" stroke="none"><g transform="translate(17.525 86.147453)"><g><g><path d="M -7.524999999999999 -36.15 l -10 10 l 0 60 l 10 -10 l 0 -60 z"></path><g><path d="M -7.474999999999998 -33.85 l 15 0 l 10 -10 l -17.4 0 l -17.65 17.7 l 0 7.3 q 5.4 -4.35 10 -2.75 l 0 -12.25 z"></path></g><g><path d="M -17.525 18.85 l 0 15 l 10 -10 l 0 20 l 10 -9.9 l 0 -22.4 l -10 9.95 l 0 -5.15 q -5 6.1 -10 2.5 z"></path></g></g></g></g></svg><svg x="450" y="0" width="11" height="52" viewBox="0 0 35 172.294907" preserveAspectRatio="xMidYMid meet" color="#fff" fill="#fff" stroke="none"><g transform="translate(17.5 86.147453)"><g><g><path d="M 10 -11.15 l -10 10 l 0 -33.85 l -10 10 l 0 36.2 l 10 -9.95 l 0 33.75 l 10 -10 l 0 -36.15 z"></path><g><path d="M -10 -42.6 l 0 17.6 q 7.3 5 10 -10 l 0 -20 l -17.5 17.5 l 1.2 1.2 l 6.3 -6.3 z"></path></g><g><path d="M 10 42.6 l 0 -17.6 q -7.3 -5 -10 10 l 0 20 l 17.5 -17.5 l -1.2 -1.2 l -6.3 6.3 z"></path></g></g></g></g></svg><svg x="464" y="0" width="16" height="52" viewBox="0 0 52.5 172.294907" preserveAspectRatio="xMidYMid meet" color="#fff" fill="#fff" stroke="none"><g transform="translate(26.25 86.147453)"><g><g><path d="M 18.75 -21.15 l -10 10 l 0 -33.85 l -10 10 l 0 36.2 l 10 -9.95 l 0 33.75 l 10 -10 l 0 -36.15 z"></path><g><path d="M -1.25 -35 l -15 0 l -10 10 l 17.45 0 l 7.6 -7.6 l -0.05 5.05 q 4.6 -6.3 10 -4 l 0 -13.45 l -9.95 10 z"></path></g><g><path d="M 18.75 32.6 l 0 -17.6 q -7.3 -5 -10 10 l 0 20 l 17.5 -17.5 l -1.2 -1.2 l -6.3 6.3 z"></path></g></g></g></g></svg><svg x="483" y="0" width="26" height="52" viewBox="0 0 87.15 172.294907" preserveAspectRatio="xMidYMid meet" color="#fff" fill="#fff" stroke="none"><g transform="translate(43.575 86.147453)"><g><g><path d="M 1.5749999999999957 9.35 l 7.45 -7.5 27.05 34.4 7.5 -7.5 -27.8 -36 -7.75 7.8 -26.95 -34.3 -7.5 7.5 28 35.6 z"></path><path d="M -21.425000000000004 -31.25 l -5 5 l -10 -10 l -7.15 7.15 l 11.3 11.2 l 7 -7.1 l 1 -1 q 3.183 1.742 3.85 0 q 0.916 -1.293 0 -6.25 z"></path><path d="M -13.925000000000004 18.75 l -10 10 l 0 25 l 10 -10 l 0 -25 z"></path><path d="M 18.574999999999996 -43.75 l 10 -10 l -30 0 l -10 10 l 30 0 z"></path></g></g></g></svg><svg x="512" y="0" width="18" height="52" viewBox="0 0 60 172.294907" preserveAspectRatio="xMidYMid meet" color="#fff" fill="#fff" stroke="none"><g transform="translate(30 86.147453)"><g><g><path d="M 10 22.5 l 10 -10 l 0 -50 l 10 -10 l -45 0 l -10 10 l 42.6 0 l -7.6 7.6 l 0 42.4 l -30 0 l -10 10 l 40 0 z"></path><path d="M -7.5 40 l 7.5 7.5 l 7.5 -7.5 l -7.5 -7.5 l -7.5 7.5 z"></path></g></g></g></svg><svg x="533" y="0" width="18" height="52" viewBox="0 0 60 172.294907" preserveAspectRatio="xMidYMid meet" color="#fff" fill="#fff" stroke="none"><g transform="translate(30 86.147453)"><g><g><path d="M 2.5 -17.5 l 12.5 12.5 l -25 0 l -10 10 l 40 0 l 10 -10 l -20 -20 l -7.5 7.5 z"></path><path d="M -20 15 l -10 10 l 50 0 l 10 -10 l -50 0 z"></path></g></g></g></svg><svg x="554" y="0" width="12" height="52" viewBox="0 0 40 172.294907" preserveAspectRatio="xMidYMid meet" color="#fff" fill="#fff" stroke="none"><g transform="translate(20 86.147453)"><g><g><path d="M -8.85 -24.92499999999999 l -10 10 l 0 40 l 9.55 -9.55 l 20.65 29.4 l 7.5 -7.5 l -21.6 -30.85 l -6.1 6.1 l 0 -37.6 z"></path><path d="M 10 -34.925 l 10 -10 l -30 0 l -10 10 l 30 0 z"></path></g></g></g></svg><svg x="569" y="0" width="30" height="52" viewBox="0 0 99.65 172.294907" preserveAspectRatio="xMidYMid meet" color="#fff" fill="#fff" stroke="none"><g transform="translate(49.825 86.147453)"><g><g><path d="M -25.174999999999997 -33.75 l -7.5 7.5 57.5 62.5 7.5 -7.5 -57.5 -62.5 z"></path><path d="M -27.674999999999997 -31.25 l -5 5 l -10 -10 l -7.15 7.15 l 11.3 11.2 l 7 -7.1 l 1 -1 q 3.183 1.742 3.85 0 q 0.916 -1.293 0 -6.25 z"></path><path d="M 22.225 26.25 q -1.655 2.716 2.6 10 l 15 0 l 10 -10 l -20 0 q -7.015 -2.931 -7.6 0 z"></path><path d="M -32.675 16.25 l 20 20 l 7.5 -7.5 l -20 -20 l -7.5 7.5 z"></path></g></g></g></svg><svg x="602" y="0" width="30" height="52" viewBox="0 0 99.65 172.294907" preserveAspectRatio="xMidYMid meet" color="#fff" fill="#fff" stroke="none"><g transform="translate(49.825 86.147453)"><g><g><path d="M -25.174999999999997 -33.75 l -7.5 7.5 57.5 62.5 7.5 -7.5 -57.5 -62.5 z"></path><path d="M -27.674999999999997 -31.25 l -5 5 l -10 -10 l -7.15 7.15 l 11.3 11.2 l 7 -7.1 l 1 -1 q 3.183 1.742 3.85 0 q 0.916 -1.293 0 -6.25 z"></path><path d="M 22.225 26.25 q -1.655 2.716 2.6 10 l 15 0 l 10 -10 l -20 0 q -7.015 -2.931 -7.6 0 z"></path><path d="M -32.675 16.25 l 20 20 l 7.5 -7.5 l -20 -20 l -7.5 7.5 z"></path></g></g></g></svg><svg x="635" y="0" width="12" height="52" viewBox="0 0 40 172.294907" preserveAspectRatio="xMidYMid meet" color="#fff" fill="#fff" stroke="none"><g transform="translate(20 86.147453)"><g><g><path d="M -8.85 -24.92499999999999 l -10 10 l 0 40 l 9.55 -9.55 l 20.65 29.4 l 7.5 -7.5 l -21.6 -30.85 l -6.1 6.1 l 0 -37.6 z"></path><path d="M 10 -34.925 l 10 -10 l -30 0 l -10 10 l 30 0 z"></path></g></g></g></svg><svg x="650" y="0" width="18" height="52" viewBox="0 0 60 172.294907" preserveAspectRatio="xMidYMid meet" color="#fff" fill="#fff" stroke="none"><g transform="translate(30 86.147453)"><g><g><path d="M 2.5 -17.5 l 12.5 12.5 l -25 0 l -10 10 l 40 0 l 10 -10 l -20 -20 l -7.5 7.5 z"></path><path d="M -20 15 l -10 10 l 50 0 l 10 -10 l -50 0 z"></path></g></g></g></svg><svg x="671" y="0" width="18" height="52" viewBox="0 0 60 172.294907" preserveAspectRatio="xMidYMid meet" color="#fff" fill="#fff" stroke="none"><g transform="translate(30 86.147453)"><g><g><path d="M 10 22.5 l 10 -10 l 0 -50 l 10 -10 l -45 0 l -10 10 l 42.6 0 l -7.6 7.6 l 0 42.4 l -30 0 l -10 10 l 40 0 z"></path><path d="M -7.5 40 l 7.5 7.5 l 7.5 -7.5 l -7.5 -7.5 l -7.5 7.5 z"></path></g></g></g></svg><svg x="692" y="0" width="26" height="52" viewBox="0 0 87.15 172.294907" preserveAspectRatio="xMidYMid meet" color="#fff" fill="#fff" stroke="none"><g transform="translate(43.575 86.147453)"><g><g><path d="M 1.5749999999999957 9.35 l 7.45 -7.5 27.05 34.4 7.5 -7.5 -27.8 -36 -7.75 7.8 -26.95 -34.3 -7.5 7.5 28 35.6 z"></path><path d="M -21.425000000000004 -31.25 l -5 5 l -10 -10 l -7.15 7.15 l 11.3 11.2 l 7 -7.1 l 1 -1 q 3.183 1.742 3.85 0 q 0.916 -1.293 0 -6.25 z"></path><path d="M -13.925000000000004 18.75 l -10 10 l 0 25 l 10 -10 l 0 -25 z"></path><path d="M 18.574999999999996 -43.75 l 10 -10 l -30 0 l -10 10 l 30 0 z"></path></g></g></g></svg><svg x="721" y="0" width="16" height="52" viewBox="0 0 52.5 172.294907" preserveAspectRatio="xMidYMid meet" color="#fff" fill="#fff" stroke="none"><g transform="translate(26.25 86.147453)"><g><g><path d="M 18.75 -21.15 l -10 10 l 0 -33.85 l -10 10 l 0 36.2 l 10 -9.95 l 0 33.75 l 10 -10 l 0 -36.15 z"></path><g><path d="M -1.25 -35 l -15 0 l -10 10 l 17.45 0 l 7.6 -7.6 l -0.05 5.05 q 4.6 -6.3 10 -4 l 0 -13.45 l -9.95 10 z"></path></g><g><path d="M 18.75 32.6 l 0 -17.6 q -7.3 -5 -10 10 l 0 20 l 17.5 -17.5 l -1.2 -1.2 l -6.3 6.3 z"></path></g></g></g></g></svg><svg x="740" y="0" width="11" height="52" viewBox="0 0 35 172.294907" preserveAspectRatio="xMidYMid meet" color="#fff" fill="#fff" stroke="none"><g transform="translate(17.5 86.147453)"><g><g><path d="M 10 -11.15 l -10 10 l 0 -33.85 l -10 10 l 0 36.2 l 10 -9.95 l 0 33.75 l 10 -10 l 0 -36.15 z"></path><g><path d="M -10 -42.6 l 0 17.6 q 7.3 5 10 -10 l 0 -20 l -17.5 17.5 l 1.2 1.2 l 6.3 -6.3 z"></path></g><g><path d="M 10 42.6 l 0 -17.6 q -7.3 -5 -10 10 l 0 20 l 17.5 -17.5 l -1.2 -1.2 l -6.3 6.3 z"></path></g></g></g></g></svg><svg x="754" y="0" width="11" height="52" viewBox="0 0 35.05 172.294907" preserveAspectRatio="xMidYMid meet" color="#fff" fill="#fff" stroke="none"><g transform="translate(17.525 86.147453)"><g><g><path d="M -7.524999999999999 -36.15 l -10 10 l 0 60 l 10 -10 l 0 -60 z"></path><g><path d="M -7.474999999999998 -33.85 l 15 0 l 10 -10 l -17.4 0 l -17.65 17.7 l 0 7.3 q 5.4 -4.35 10 -2.75 l 0 -12.25 z"></path></g><g><path d="M -17.525 18.85 l 0 15 l 10 -10 l 0 20 l 10 -9.9 l 0 -22.4 l -10 9.95 l 0 -5.15 q -5 6.1 -10 2.5 z"></path></g></g></g></g></svg><svg x="768" y="0" width="20" height="52" viewBox="0 0 65 172.294907" preserveAspectRatio="xMidYMid meet" color="#fff" fill="#fff" stroke="none"><g transform="translate(32.5 86.147453)"><g><g><path d="M -25 -45 l -7.5 7.5 57.5 62.5 7.5 -7.5 -57.5 -62.5 z"></path><path d="M 2.5 45 l 10 -10 l -30 0 l -10 10 l 30 0 z"></path></g></g></g></svg><svg x="791" y="0" width="15" height="52" viewBox="0 0 50 172.294907" preserveAspectRatio="xMidYMid meet" color="#fff" fill="#fff" stroke="none"><g transform="translate(25 86.147453)"><g><g><path d="M -15 -45 l -10 10 l 0 60 l 10 -10 l 0 -50 l 30 0 l 10 -10 l -40 0 z"></path><path d="M -7.5 -62.5 l 7.5 7.5 l 7.5 -7.5 l -7.5 -7.5 l -7.5 7.5 z"></path><path d="M -10 45 l 0 25 l 20 -20 l -1.2 -1.2 l -8.8 8.8 l 0 -22.6 l -10 10 z"></path></g></g></g></svg><svg x="809" y="0" width="18" height="52" viewBox="0 0 60 172.294907" preserveAspectRatio="xMidYMid meet" color="#fff" fill="#fff" stroke="none"><g transform="translate(30 86.147453)"><g><g fill="currentColor"><path d="M -14.950000000000003 -57.5 l 34.95 0 l 10 -10 l -50 0 l -10 10 l 25 25 l 0 35 l 10 -10 l 0 -30.05 l -19.95 -19.95 z"></path><g><path d="M -5.0000000000000036 22.5 l 10 -10 l 0 -20 q -7.3 -5 -10 10 l 0 20 z"></path></g><path d="M -10 42.5 l 0 25 l 20 -20 l -1.2 -1.2 l -8.8 8.8 l 0 -22.6 l -10 10 z"></path></g></g></g></svg><svg x="830" y="0" width="25" height="52" viewBox="0 0 82.15 172.294907" preserveAspectRatio="xMidYMid meet" color="#fff" fill="#fff" stroke="none"><g transform="translate(41.075 86.147453)"><g><g><path d="M -16.425000000000004 -33.75 l -7.5 7.5 57.5 62.5 7.5 -7.5 -57.5 -62.5 z"></path><path d="M -18.925000000000004 -31.25 l -5 5 l -10 -10 l -7.15 7.15 l 11.3 11.2 l 7 -7.1 l 1 -1 q 3.183 1.742 3.85 0 q 0.916 -1.293 0 -6.25 z"></path><path d="M -23.925000000000004 16.25 l 20 20 l 7.5 -7.5 l -20 -20 l -7.5 7.5 z"></path></g></g></g></svg><svg x="858" y="0" width="27" height="52" viewBox="0 0 90 172.294907" preserveAspectRatio="xMidYMid meet" color="#fff" fill="#fff" stroke="none"><g transform="translate(45 86.147453)"><g><g><path d="M -30 -47.5 l -7.5 7.5 57.5 62.5 7.5 -7.5 -57.5 -62.5 z"></path><path d="M 17.4 12.5 q -1.655 2.716 2.6 10 l 15 0 l 10 -10 l -20 0 q -7.015 -2.931 -7.6 0 z"></path><path d="M -15 22.5 l 10 -10 l -30 0 l -10 10 l 30 0 z"></path><path d="M -20 40 l 7.5 7.5 l 7.5 -7.5 l -7.5 -7.5 l -7.5 7.5 z"></path></g></g></g></svg><svg x="888" y="0" width="12" height="52" viewBox="0 0 40 172.294907" preserveAspectRatio="xMidYMid meet" color="#fff" fill="#fff" stroke="none"><g transform="translate(20 86.147453)"><g><g><path d="M 0 -16.15 l -10 10 l 0 -33.85 l -10 10 l 0 36.2 l 10 -9.95 l 0 33.75 l 10 -10 l 0 -36.15 z"></path><g><path d="M 20 30 l -15 0 l 10 -10 l -15 0 l 0 -10 q -3.85 7.75 -10 5 l 0 15 l 12.55 0 l -9.95 10 l 17.4 0 l 10 -10 z"></path></g></g></g></g></svg><svg x="903" y="0" width="12" height="52" viewBox="0 0 40 172.294907" preserveAspectRatio="xMidYMid meet" color="#fff" fill="#fff" stroke="none"><g transform="translate(20 86.147453)"><g><g><path d="M -8.85 -24.92499999999999 l -10 10 l 0 40 l 9.55 -9.55 l 20.65 29.4 l 7.5 -7.5 l -21.6 -30.85 l -6.1 6.1 l 0 -37.6 z"></path><path d="M 10 -34.925 l 10 -10 l -30 0 l -10 10 l 30 0 z"></path></g></g></g></svg><svg x="918" y="0" width="30" height="52" viewBox="0 0 99.65 172.294907" preserveAspectRatio="xMidYMid meet" color="#fff" fill="#fff" stroke="none"><g transform="translate(49.825 86.147453)"><g><g><path d="M -25.174999999999997 -33.75 l -7.5 7.5 57.5 62.5 7.5 -7.5 -57.5 -62.5 z"></path><path d="M -27.674999999999997 -31.25 l -5 5 l -10 -10 l -7.15 7.15 l 11.3 11.2 l 7 -7.1 l 1 -1 q 3.183 1.742 3.85 0 q 0.916 -1.293 0 -6.25 z"></path><path d="M 22.225 26.25 q -1.655 2.716 2.6 10 l 15 0 l 10 -10 l -20 0 q -7.015 -2.931 -7.6 0 z"></path><path d="M -32.675 16.25 l 20 20 l 7.5 -7.5 l -20 -20 l -7.5 7.5 z"></path></g></g></g></svg><svg x="951" y="0" width="12" height="52" viewBox="0 0 40 172.294907" preserveAspectRatio="xMidYMid meet" color="#fff" fill="#fff" stroke="none"><g transform="translate(20 86.147453)"><g><g><path d="M 0 -16.15 l -10 10 l 0 -33.85 l -10 10 l 0 36.2 l 10 -9.95 l 0 33.75 l 10 -10 l 0 -36.15 z"></path><g><path d="M 20 30 l -15 0 l 10 -10 l -15 0 l 0 -10 q -3.85 7.75 -10 5 l 0 15 l 12.55 0 l -9.95 10 l 17.4 0 l 10 -10 z"></path></g></g></g></g></svg><svg x="966" y="0" width="27" height="52" viewBox="0 0 90 172.294907" preserveAspectRatio="xMidYMid meet" color="#fff" fill="#fff" stroke="none"><g transform="translate(45 86.147453)"><g><g><path d="M -30 -47.5 l -7.5 7.5 57.5 62.5 7.5 -7.5 -57.5 -62.5 z"></path><path d="M 17.4 12.5 q -1.655 2.716 2.6 10 l 15 0 l 10 -10 l -20 0 q -7.015 -2.931 -7.6 0 z"></path><path d="M -15 22.5 l 10 -10 l -30 0 l -10 10 l 30 0 z"></path><path d="M -20 40 l 7.5 7.5 l 7.5 -7.5 l -7.5 -7.5 l -7.5 7.5 z"></path></g></g></g></svg><svg x="996" y="0" width="25" height="52" viewBox="0 0 82.15 172.294907" preserveAspectRatio="xMidYMid meet" color="#fff" fill="#fff" stroke="none"><g transform="translate(41.075 86.147453)"><g><g><path d="M -16.425000000000004 -33.75 l -7.5 7.5 57.5 62.5 7.5 -7.5 -57.5 -62.5 z"></path><path d="M -18.925000000000004 -31.25 l -5 5 l -10 -10 l -7.15 7.15 l 11.3 11.2 l 7 -7.1 l 1 -1 q 3.183 1.742 3.85 0 q 0.916 -1.293 0 -6.25 z"></path><path d="M -23.925000000000004 16.25 l 20 20 l 7.5 -7.5 l -20 -20 l -7.5 7.5 z"></path></g></g></g></svg><svg x="1024" y="0" width="18" height="52" viewBox="0 0 60 172.294907" preserveAspectRatio="xMidYMid meet" color="#fff" fill="#fff" stroke="none"><g transform="translate(30 86.147453)"><g><g fill="currentColor"><path d="M -14.950000000000003 -57.5 l 34.95 0 l 10 -10 l -50 0 l -10 10 l 25 25 l 0 35 l 10 -10 l 0 -30.05 l -19.95 -19.95 z"></path><g><path d="M -5.0000000000000036 22.5 l 10 -10 l 0 -20 q -7.3 -5 -10 10 l 0 20 z"></path></g><path d="M -10 42.5 l 0 25 l 20 -20 l -1.2 -1.2 l -8.8 8.8 l 0 -22.6 l -10 10 z"></path></g></g></g></svg><svg x="1045" y="0" width="15" height="52" viewBox="0 0 50 172.294907" preserveAspectRatio="xMidYMid meet" color="#fff" fill="#fff" stroke="none"><g transform="translate(25 86.147453)"><g><g><path d="M -15 -45 l -10 10 l 0 60 l 10 -10 l 0 -50 l 30 0 l 10 -10 l -40 0 z"></path><path d="M -7.5 -62.5 l 7.5 7.5 l 7.5 -7.5 l -7.5 -7.5 l -7.5 7.5 z"></path><path d="M -10 45 l 0 25 l 20 -20 l -1.2 -1.2 l -8.8 8.8 l 0 -22.6 l -10 10 z"></path></g></g></g></svg><svg x="1063" y="0" width="20" height="52" viewBox="0 0 65 172.294907" preserveAspectRatio="xMidYMid meet" color="#fff" fill="#fff" stroke="none"><g transform="translate(32.5 86.147453)"><g><g><path d="M -25 -45 l -7.5 7.5 57.5 62.5 7.5 -7.5 -57.5 -62.5 z"></path><path d="M 2.5 45 l 10 -10 l -30 0 l -10 10 l 30 0 z"></path></g></g></g></svg><svg x="1086" y="0" width="11" height="52" viewBox="0 0 35.05 172.294907" preserveAspectRatio="xMidYMid meet" color="#fff" fill="#fff" stroke="none"><g transform="translate(17.525 86.147453)"><g><g><path d="M -7.524999999999999 -36.15 l -10 10 l 0 60 l 10 -10 l 0 -60 z"></path><g><path d="M -7.474999999999998 -33.85 l 15 0 l 10 -10 l -17.4 0 l -17.65 17.7 l 0 7.3 q 5.4 -4.35 10 -2.75 l 0 -12.25 z"></path></g><g><path d="M -17.525 18.85 l 0 15 l 10 -10 l 0 20 l 10 -9.9 l 0 -22.4 l -10 9.95 l 0 -5.15 q -5 6.1 -10 2.5 z"></path></g></g></g></g></svg><svg x="1100" y="0" width="11" height="52" viewBox="0 0 35 172.294907" preserveAspectRatio="xMidYMid meet" color="#fff" fill="#fff" stroke="none"><g transform="translate(17.5 86.147453)"><g><g><path d="M 10 -11.15 l -10 10 l 0 -33.85 l -10 10 l 0 36.2 l 10 -9.95 l 0 33.75 l 10 -10 l 0 -36.15 z"></path><g><path d="M -10 -42.6 l 0 17.6 q 7.3 5 10 -10 l 0 -20 l -17.5 17.5 l 1.2 1.2 l 6.3 -6.3 z"></path></g><g><path d="M 10 42.6 l 0 -17.6 q -7.3 -5 -10 10 l 0 20 l 17.5 -17.5 l -1.2 -1.2 l -6.3 6.3 z"></path></g></g></g></g></svg><svg x="1114" y="0" width="16" height="52" viewBox="0 0 52.5 172.294907" preserveAspectRatio="xMidYMid meet" color="#fff" fill="#fff" stroke="none"><g transform="translate(26.25 86.147453)"><g><g><path d="M 18.75 -21.15 l -10 10 l 0 -33.85 l -10 10 l 0 36.2 l 10 -9.95 l 0 33.75 l 10 -10 l 0 -36.15 z"></path><g><path d="M -1.25 -35 l -15 0 l -10 10 l 17.45 0 l 7.6 -7.6 l -0.05 5.05 q 4.6 -6.3 10 -4 l 0 -13.45 l -9.95 10 z"></path></g><g><path d="M 18.75 32.6 l 0 -17.6 q -7.3 -5 -10 10 l 0 20 l 17.5 -17.5 l -1.2 -1.2 l -6.3 6.3 z"></path></g></g></g></g></svg><svg x="1133" y="0" width="26" height="52" viewBox="0 0 87.15 172.294907" preserveAspectRatio="xMidYMid meet" color="#fff" fill="#fff" stroke="none"><g transform="translate(43.575 86.147453)"><g><g><path d="M 1.5749999999999957 9.35 l 7.45 -7.5 27.05 34.4 7.5 -7.5 -27.8 -36 -7.75 7.8 -26.95 -34.3 -7.5 7.5 28 35.6 z"></path><path d="M -21.425000000000004 -31.25 l -5 5 l -10 -10 l -7.15 7.15 l 11.3 11.2 l 7 -7.1 l 1 -1 q 3.183 1.742 3.85 0 q 0.916 -1.293 0 -6.25 z"></path><path d="M -13.925000000000004 18.75 l -10 10 l 0 25 l 10 -10 l 0 -25 z"></path><path d="M 18.574999999999996 -43.75 l 10 -10 l -30 0 l -10 10 l 30 0 z"></path></g></g></g></svg><svg x="1162" y="0" width="18" height="52" viewBox="0 0 60 172.294907" preserveAspectRatio="xMidYMid meet" color="#fff" fill="#fff" stroke="none"><g transform="translate(30 86.147453)"><g><g><path d="M 10 22.5 l 10 -10 l 0 -50 l 10 -10 l -45 0 l -10 10 l 42.6 0 l -7.6 7.6 l 0 42.4 l -30 0 l -10 10 l 40 0 z"></path><path d="M -7.5 40 l 7.5 7.5 l 7.5 -7.5 l -7.5 -7.5 l -7.5 7.5 z"></path></g></g></g></svg><svg x="1183" y="0" width="18" height="52" viewBox="0 0 60 172.294907" preserveAspectRatio="xMidYMid meet" color="#fff" fill="#fff" stroke="none"><g transform="translate(30 86.147453)"><g><g><path d="M 2.5 -17.5 l 12.5 12.5 l -25 0 l -10 10 l 40 0 l 10 -10 l -20 -20 l -7.5 7.5 z"></path><path d="M -20 15 l -10 10 l 50 0 l 10 -10 l -50 0 z"></path></g></g></g></svg><svg x="1204" y="0" width="18" height="52" viewBox="0 0 60 172.294907" preserveAspectRatio="xMidYMid meet" color="#fff" fill="#fff" stroke="none"><g transform="translate(30 86.147453)"><g><g><path d="M 2.5 -17.5 l 12.5 12.5 l -25 0 l -10 10 l 40 0 l 10 -10 l -20 -20 l -7.5 7.5 z"></path><path d="M -20 15 l -10 10 l 50 0 l 10 -10 l -50 0 z"></path></g></g></g></svg><svg x="1225" y="0" width="18" height="52" viewBox="0 0 60 172.294907" preserveAspectRatio="xMidYMid meet" color="#fff" fill="#fff" stroke="none"><g transform="translate(30 86.147453)"><g><g><path d="M 10 22.5 l 10 -10 l 0 -50 l 10 -10 l -45 0 l -10 10 l 42.6 0 l -7.6 7.6 l 0 42.4 l -30 0 l -10 10 l 40 0 z"></path><path d="M -7.5 40 l 7.5 7.5 l 7.5 -7.5 l -7.5 -7.5 l -7.5 7.5 z"></path></g></g></g></svg><svg x="1246" y="0" width="26" height="52" viewBox="0 0 87.15 172.294907" preserveAspectRatio="xMidYMid meet" color="#fff" fill="#fff" stroke="none"><g transform="translate(43.575 86.147453)"><g><g><path d="M 1.5749999999999957 9.35 l 7.45 -7.5 27.05 34.4 7.5 -7.5 -27.8 -36 -7.75 7.8 -26.95 -34.3 -7.5 7.5 28 35.6 z"></path><path d="M -21.425000000000004 -31.25 l -5 5 l -10 -10 l -7.15 7.15 l 11.3 11.2 l 7 -7.1 l 1 -1 q 3.183 1.742 3.85 0 q 0.916 -1.293 0 -6.25 z"></path><path d="M -13.925000000000004 18.75 l -10 10 l 0 25 l 10 -10 l 0 -25 z"></path><path d="M 18.574999999999996 -43.75 l 10 -10 l -30 0 l -10 10 l 30 0 z"></path></g></g></g></svg><svg x="1275" y="0" width="16" height="52" viewBox="0 0 52.5 172.294907" preserveAspectRatio="xMidYMid meet" color="#fff" fill="#fff" stroke="none"><g transform="translate(26.25 86.147453)"><g><g><path d="M 18.75 -21.15 l -10 10 l 0 -33.85 l -10 10 l 0 36.2 l 10 -9.95 l 0 33.75 l 10 -10 l 0 -36.15 z"></path><g><path d="M -1.25 -35 l -15 0 l -10 10 l 17.45 0 l 7.6 -7.6 l -0.05 5.05 q 4.6 -6.3 10 -4 l 0 -13.45 l -9.95 10 z"></path></g><g><path d="M 18.75 32.6 l 0 -17.6 q -7.3 -5 -10 10 l 0 20 l 17.5 -17.5 l -1.2 -1.2 l -6.3 6.3 z"></path></g></g></g></g></svg><svg x="1294" y="0" width="11" height="52" viewBox="0 0 35 172.294907" preserveAspectRatio="xMidYMid meet" color="#fff" fill="#fff" stroke="none"><g transform="translate(17.5 86.147453)"><g><g><path d="M 10 -11.15 l -10 10 l 0 -33.85 l -10 10 l 0 36.2 l 10 -9.95 l 0 33.75 l 10 -10 l 0 -36.15 z"></path><g><path d="M -10 -42.6 l 0 17.6 q 7.3 5 10 -10 l 0 -20 l -17.5 17.5 l 1.2 1.2 l 6.3 -6.3 z"></path></g><g><path d="M 10 42.6 l 0 -17.6 q -7.3 -5 -10 10 l 0 20 l 17.5 -17.5 l -1.2 -1.2 l -6.3 6.3 z"></path></g></g></g></g></svg><svg x="1308" y="0" width="11" height="52" viewBox="0 0 35.05 172.294907" preserveAspectRatio="xMidYMid meet" color="#fff" fill="#fff" stroke="none"><g transform="translate(17.525 86.147453)"><g><g><path d="M -7.524999999999999 -36.15 l -10 10 l 0 60 l 10 -10 l 0 -60 z"></path><g><path d="M -7.474999999999998 -33.85 l 15 0 l 10 -10 l -17.4 0 l -17.65 17.7 l 0 7.3 q 5.4 -4.35 10 -2.75 l 0 -12.25 z"></path></g><g><path d="M -17.525 18.85 l 0 15 l 10 -10 l 0 20 l 10 -9.9 l 0 -22.4 l -10 9.95 l 0 -5.15 q -5 6.1 -10 2.5 z"></path></g></g></g></g></svg><svg x="1322" y="0" width="20" height="52" viewBox="0 0 65 172.294907" preserveAspectRatio="xMidYMid meet" color="#fff" fill="#fff" stroke="none"><g transform="translate(32.5 86.147453)"><g><g><path d="M -25 -45 l -7.5 7.5 57.5 62.5 7.5 -7.5 -57.5 -62.5 z"></path><path d="M 2.5 45 l 10 -10 l -30 0 l -10 10 l 30 0 z"></path></g></g></g></svg><svg x="1345" y="0" width="15" height="52" viewBox="0 0 50 172.294907" preserveAspectRatio="xMidYMid meet" color="#fff" fill="#fff" stroke="none"><g transform="translate(25 86.147453)"><g><g><path d="M -15 -45 l -10 10 l 0 60 l 10 -10 l 0 -50 l 30 0 l 10 -10 l -40 0 z"></path><path d="M -7.5 -62.5 l 7.5 7.5 l 7.5 -7.5 l -7.5 -7.5 l -7.5 7.5 z"></path><path d="M -10 45 l 0 25 l 20 -20 l -1.2 -1.2 l -8.8 8.8 l 0 -22.6 l -10 10 z"></path></g></g></g></svg></g>
</svg>
