<svg xmlns="http://www.w3.org/2000/svg" viewBox="0 0 281.35 124.95" width="281.35" height="124.95" fill="currentColor" stroke="none">
<g transform="translate(140.675 62.475)"><g><g><path d="M -108.12500000000001 -37.499999999999986 l -7.5 7.5 57.5 62.5 7.5 -7.5 -57.5 -62.5 z"></path><path d="M -115.62500000000001 -29.999999999999986 l -15.05 0 l -10 10 l 17.45 0 l 8.75 -8.8 q 6.9 0.2 3.8 -6.15 l -4.95 4.95 z"></path><path d="M -53.125000000000014 -27.499999999999986 l 10 -10 l -30 0 l -10 10 l 30 0 z"></path></g><g><path d="M 21.875 -37.47499999999999 l -10 10 l 0 20 l -35 0 l -10 10 l 29.95 29.95 l 7.5 -7.5 l -22.45 -22.45 l 30 0 l 10 -10 l 0 -30 z"></path><g><path d="M -5.775000000000034 22.474999999999994 q -1.655 2.716 2.6 10 l 15 0 l 10 -10 l -20 0 q -7.015 -2.931 -7.6 0 z"></path></g><path d="M -13.125000000000014 -54.974999999999994 l 7.5 7.5 l 7.5 -7.5 l -7.5 -7.5 l -7.5 7.5 z"></path><path d="M 1.974999999999966 52.474999999999994 l -8.8 8.8 l 1.2 1.2 l 20 -20 l -30 0 l -10 10 l 27.6 0 z"></path></g><g><path d="M 50.07499999999999 -37.499999999999986 l -10 10 l 0 60 l 10 -10 l 0 -60 z"></path><g><path d="M 51.875 44.30000000000001 l -11.8 -11.8 l 10 -10 l 0 -5 q -5.188 7.964 -10 5 l 0 7.7 l -8.2 8.2 l 13 12.9 l 7 -7 z"></path></g></g><g><path d="M 71.77500000000003 -37.524999999999984 l -9.9 9.95 l 47.35 58.35 l 0.05 0 l 1.4 1.75 l 7.5 -7.5 l -42.7 -52.55 l 52.05 0 l 10 -10 l -65.75 0 z"></path><g><path d="M 118.17500000000001 25.025000000000027 q -6.8 0.5 -7.5 7.5 l 15 15 l 15 -15 l -1.2 -1.2 l -7.5 7.5 l -13.8 -13.8 z"></path></g><path d="M 111.27500000000003 -47.524999999999984 l 10 -10 l -30 0 l -10 10 l 30 0 z"></path></g></g></g>
</svg>
