<svg xmlns="http://www.w3.org/2000/svg" viewBox="0 0 537.3 140" width="537.3" height="140" fill="currentColor" stroke="none">
<g transform="translate(268.65 70)"><g><g><path d="M -196.10000000000002 25 l 7.5 -7.5 -26.9 -26.9 7.45 -7.55 -28.05 -28.05 -7.5 7.5 26.9 26.9 -7.5 7.5 28.1 28.1 z"></path><path d="M -243.60000000000002 -37.5 l -15.05 0 l -10 10 l 17.45 0 l 8.75 -8.8 q 6.9 0.2 3.8 -6.15 l -4.95 4.95 z"></path><path d="M -198.70000000000005 15 q -1.65 2.7 2.6 10 l 12.6 0 l -7.5 7.5 l 1.2 1.2 l 18.7 -18.7 l -20 0 q -7 -2.95 -7.6 0 z"></path><path d="M -188.50000000000003 -35 l -8.8 8.8 l 1.2 1.2 l 20 -20 l -30 0 l -10 10 l 27.6 0 z"></path><path d="M -223.60000000000002 -62.5 l 7.5 7.5 l 7.5 -7.5 l -7.5 -7.5 l -7.5 7.5 z"></path></g><g><path d="M -151.20000000000005 -45.025 l -9.9 9.95 l 47.35 58.35 l 0.05 0 l 1.4 1.75 l 7.5 -7.5 l -42.7 -52.55 l 52.05 0 l 10 -10 l -65.75 0 z"></path><g><path d="M -104.80000000000001 17.525000000000013 q -6.8 0.5 -7.5 7.5 l 15 15 l 15 -15 l -1.2 -1.2 l -7.5 7.5 l -13.8 -13.8 z"></path></g></g><g><path d="M -27.350000000000023 15 l -34.95 0 l -10 10 l 50 0 l 10 -10 l -25 -25 l 0 -35 l -10 10 l 0 30.05 l 19.95 19.95 z"></path><path d="M -49.80000000000001 -62.5 l 7.5 7.5 l 7.5 -7.5 l -7.5 -7.5 l -7.5 7.5 z"></path><path d="M -52.30000000000001 45 l 0 25 l 20 -20 l -1.2 -1.2 l -8.8 8.8 l 0 -22.6 l -10 10 z"></path></g><g><path d="M -2.250000000000057 25 l 50 0 l 9.4 -9.4 l -23.2 -33.05 l -6.2 6.25 l 0 -33.8 l -10 10 l 0 36.15 l 1.1 -1.1 q 2.967 -2.977 5.95 -5.95 l 1.95 -2 l 0.65 -0.65 l 16.5 23.5 l -36.2 0 l -10 10 z"></path><path d="M 37.424999999999955 -54.99999999999999 l 10 -10 l -30 0 l -10 10 l 30 0 z"></path><path d="M 19.924999999999955 42.50000000000001 l 7.5 7.5 l 7.5 -7.5 l -7.5 -7.5 l -7.5 7.5 z"></path></g><g><path d="M 123.44999999999999 25 l 7.5 -7.5 -26.9 -26.9 7.45 -7.55 -28.05 -28.05 -7.5 7.5 26.9 26.9 -7.5 7.5 28.1 28.1 z"></path><path d="M 77.14999999999998 -36.3 q 4.2 0.65 6.3 -2.7 q 0.8 -1 0 -6 l -6.3 6.3 l 0 -19.95 l -10 10.1 l 0 22.35 l 10 -10.1 z"></path><path d="M 70.94999999999999 5 l 20 20 l 7.5 -7.5 l -20 -20 l -7.5 7.5 z"></path><path d="M 131.05 -35 l -8.8 8.8 l 1.2 1.2 l 20 -20 l -30 0 l -10 10 l 27.6 0 z"></path></g><g><path d="M 163.45 -45 l -10 10 l 0 36.3 l 10 -10.05 l 0 33.75 l 10 -10 l 0 -36.15 l -10 10 l 0 -23.85 l 30 0 l 10 -10 l -40 0 z"></path><g><path d="M 173.45 32.6 l 0 -17.6 q -7.3 -5 -10 10 l 0 20 l 17.5 -17.5 l -1.2 -1.2 l -6.3 6.3 z"></path></g></g><g><path d="M 241.15000000000003 24.924999999999997 l 10 -10 l 0 -40 l -9.55 9.55 l -20.65 -29.4 l -7.5 7.5 l 21.6 30.85 l 6.1 -6.1 l 0 37.6 z"></path><g><path d="M 241.15000000000003 24.924999999999997 l 0 -0.1 l 0.05 0 l 9.95 -9.9 l 0 -5 q -5 5.75 -10 5 l 0 7.55 l -12.4 12.45 l 22.4 0 l 17.5 -17.5 l -1.2 -1.2 l -8.6 8.6 l -17.6 0 l -0.1 0.1 z"></path></g><path d="M 233.55 -62.425 l 7.5 7.5 l 7.5 -7.5 l -7.5 -7.5 l -7.5 7.5 z"></path><path d="M 233.55 52.425 l 7.5 7.5 l 7.5 -7.5 l -7.5 -7.5 l -7.5 7.5 z"></path></g></g></g>
</svg>
