<svg xmlns="http://www.w3.org/2000/svg" viewBox="0 0 170 100" width="170" height="100" fill="currentColor" stroke="none">
<g transform="translate(85 50)"><g><g><path d="M -75 -30 l -10 10 l 0 60 l 10 -10 l 0 -60 z"></path></g><g><path d="M -55 -30 l -10 10 l 0 36.3 l 10 -10.05 l 0 33.75 l 10 -10 l 0 -36.15 l -10 10 l 0 -23.85 l 30 0 l 10 -10 l -40 0 z"></path><path d="M -30 -40 l 10 -10 l -30 0 l -10 10 l 30 0 z"></path></g><g><path d="M 5 -30 l -10 10 l 0 60 l 10 -10 l 0 -60 z"></path><g><path d="M -5 25 l 0 15 l 10 -10 l 0 20 l 10 -9.9 l 0 -22.4 l -10 9.95 l 0 -5.15 q -5 6.1 -10 2.5 z"></path></g></g><g><path d="M 75 -20 l 10 -10 l -50 0 l -10 10 l 0 35 l 10 -10 l 15 0 l 0 35 l 10 -10 l 0 -35 l -17.35 0 l -7.65 7.6 l 0 -22.6 l 40 0 z"></path><g><path d="M 37.599999999999994 50 l 22.4 0 l 10 -10.1 l -19.9 0 l -0.1 0.1 l 0 -0.1 l 0.05 0 l 9.95 -9.9 l 0 -5 q -5 5.774 -10 5 l 0 7.55 l -12.4 12.4 z"></path></g><path d="M 65 -40 l 10 -10 l -30 0 l -10 10 l 30 0 z"></path></g></g></g>
</svg>
