<svg xmlns="http://www.w3.org/2000/svg" viewBox="0 0 81.5 172.294907" width="81.5" height="172.294907" fill="currentColor" stroke="none">
<g transform="translate(40.75 86.147453)"><g><g><path d="M -30.849999999999998 -41.30000000000001 l -9.9 9.95 l 47.35 58.35 l 0.05 0 l 1.4 1.75 l 7.5 -7.5 l -42.7 -52.55 l 52.05 0 l 10 -10 l -65.75 0 z"></path><g><path d="M 24.900000000000006 -41.30000000000001 q 2.55 4.45 -5 10 l 5 0 l 15.85 -15.9 l -13 -12.9 l -7 7 l 11.8 11.8 l -7.65 0 z"></path></g><g><path d="M -9.449999999999996 58.9 l 1.2 1.2 l 16.3 -16.3 l 0 -15.05 l 7.5 -7.5 q -11.45 -4.9 -8.7 6.3 l -8.8 8.9 l 0 14.95 l -7.5 7.5 z"></path></g></g></g></g>
</svg>
