<svg xmlns="http://www.w3.org/2000/svg" viewBox="0 0 573.9 160.125" width="573.9" height="160.125" fill="currentColor" stroke="none">
<g transform="translate(286.95 80.0625)"><g><g><path d="M -239.45000000000005 27.4375 l 7.5 -7.5 -26.9 -26.9 7.45 -7.55 -28.05 -28.05 -7.5 7.5 26.9 26.9 -7.5 7.5 28.1 28.1 z"></path></g><g><path d="M -169.55000000000004 -2.9375 l 10 -10 l -29.85 -29.85 l -7.5 7.5 l 22.35 22.35 l -20 0 l -15 15 l 25.6 25.6 l 7.5 -7.5 l -23.1 -23.1 l 30 0 z"></path><g><path d="M -196.90000000000003 -35.2875 l -15.05 0 l -10 10 l 17.45 0 l 8.75 -8.8 q 6.9 0.2 3.8 -6.15 l -4.95 4.95 z"></path></g><g><path d="M -185.10000000000002 26.512500000000003 l -15.05 0 l -10 10 l 17.45 0 l 8.75 -8.85 q 1.75 -3.2 4.85 -7.2 q -5.7 -0.35 -6 6.05 z"></path></g><path d="M -198.35000000000002 56.51250000000002 l 8.8 -8.8 l -1.2 -1.2 l -20 20 l 30 0 l 10 -10 l -27.6 0 z"></path></g><g><path d="M -139.65000000000003 -42.5875 l -9.9 9.95 l 47.35 58.35 l 0.05 0 l 1.4 1.75 l 7.5 -7.5 l -42.7 -52.55 l 52.05 0 l 10 -10 l -65.75 0 z"></path><g><path d="M -93.25000000000003 19.962500000000013 q -6.8 0.5 -7.5 7.5 l 15 15 l 15 -15 l -1.2 -1.2 l -7.5 7.5 l -13.8 -13.8 z"></path></g><path d="M -100.15000000000003 62.462500000000006 l 10 -10 l -30 0 l -10 10 l 30 0 z"></path></g><g><path d="M -32.80000000000004 -57.5625 l -7.5 7.5 l 21.65 27.5 l 7.45 -7.5 l -21.6 -27.5 z"></path><path d="M -50.75000000000003 -12.5625 l -10 10 l 50 0 l 10 -10 l -50 0 z"></path></g><g><path d="M 24.25 -42.5625 l -7.5 7.5 57.5 62.5 7.5 -7.5 -57.5 -62.5 z"></path><path d="M 71.64999999999998 17.4375 q -1.655 2.716 2.6 10 l 15 0 l 10 -10 l -20 0 q -7.015 -2.931 -7.6 0 z"></path><path d="M 39.25 27.4375 l 10 -10 l -30 0 l -10 10 l 30 0 z"></path><path d="M 76.85000000000002 -32.5625 l -8.8 8.8 l 1.2 1.2 l 20 -20 l -30 0 l -10 10 l 27.6 0 z"></path><path d="M 35.5 -72.5625 l 20 20 l 7.5 -7.5 l -20 -20 l -7.5 7.5 z"></path></g><g><path d="M 124.30000000000001 -32.5625 l 34.95 0 l 10 -10 l -50 0 l -10 10 l 25 25 l 0 35 l 10 -10 l 0 -30.05 l -19.95 -19.95 z"></path></g><g><path d="M 206.95000000000005 27.362499999999997 l 10 -10 l 0 -40 l -9.55 9.55 l -20.65 -29.4 l -7.5 7.5 l 21.6 30.85 l 6.1 -6.1 l 0 37.6 z"></path><g><path d="M 206.90000000000003 25.0625 l -15 0 l -10 10 l 17.4 0 l 17.65 -17.7 l 0 -7.3 q -5.4 4.35 -10 2.75 l 0 12.25 z"></path></g><path d="M 188.10000000000002 55.0625 l 0 25 l 20 -20 l -1.2 -1.2 l -8.8 8.8 l 0 -22.6 l -10 10 z"></path></g><g><path d="M 236.95000000000005 -42.5625 l -10 10 l 0 60 l 10 -10 l 0 -60 z"></path></g><g><path d="M 258.20000000000005 -42.5625 l -10 10 l 0 30 l 30 30 l 7.5 -7.5 l -27.5 -27.5 l 0 -35 z"></path><path d="M 276.95000000000005 -52.5625 l 10 -10 l -30 0 l -10 10 l 30 0 z"></path></g></g></g>
</svg>
