<svg xmlns="http://www.w3.org/2000/svg" viewBox="0 0 398.15 114.925" width="398.15" height="114.925" fill="currentColor" stroke="none">
<g transform="translate(199.075 57.4625)"><g><g><path d="M -151.575 32.4625 l 7.5 -7.5 -26.9 -26.9 7.45 -7.55 -28.05 -28.05 -7.5 7.5 26.9 26.9 -7.5 7.5 28.1 28.1 z"></path><path d="M -190.42499999999998 -36.3875 l 15.05 0 l 10 -10 l -17.45 0 l -8.75 8.85 q -1.75 3.2 -4.85 7.2 q 5.7 0.35 6 -6.05 z"></path><path d="M -143.975 -27.5375 l -8.8 8.8 l 1.2 1.2 l 20 -20 l -30 0 l -10 10 l 27.6 0 z"></path></g><g><path d="M -106.52499999999999 -27.5375 l 34.95 0 l 10 -10 l -50 0 l -10 10 l 25 25 l 0 35 l 10 -10 l 0 -30.05 l -19.95 -19.95 z"></path></g><g><path d="M -41.57499999999999 -37.5375 l -10 10 l 0 60 l 10 -10 l 0 -60 z"></path><g><path d="M -51.57499999999999 17.4625 l 0 15 l 15 0 l 10 -10 l -15 0 l 0 -10 q -3.874 7.753 -10 5 z"></path></g></g><g><path d="M 49.07499999999999 -27.462500000000002 l 10 -10 l -65.75 0 l -9.9 9.95 l 30.45 37.55 l 7.25 -7.3 l 24.15 29.65 l 7.45 -7.4 l -25.2 -31.05 l -7.5 7.45 l -23.1 -28.85 l 52.15 0 z"></path><path d="M 31.25 -47.4625 l 10 -10 l -30 0 l -10 10 l 30 0 z"></path></g><g><path d="M 97.07499999999999 5.562499999999998 l 7.45 -7.5 27.05 34.4 7.5 -7.5 -27.8 -36 -7.75 7.8 -26.95 -34.3 -7.5 7.5 28 35.6 z"></path><path d="M 71.57499999999999 12.462499999999999 l 20 20 l 7.5 -7.5 l -20 -20 l -7.5 7.5 z"></path><path d="M 89.07499999999999 49.9625 l 7.5 7.5 l 7.5 -7.5 l -7.5 -7.5 l -7.5 7.5 z"></path></g><g><path d="M 164.075 -37.5375 l -10 10 l 0 35 l 19.95 0 l -24.95 25 l 40 0 l 10 -10 l -37.6 0 l 24.85 -25 l -22.25 0 l 0 -35 z"></path></g></g></g>
</svg>
