<svg xmlns="http://www.w3.org/2000/svg" viewBox="0 0 66.2 172.294907" width="66.2" height="172.294907" fill="currentColor" stroke="none">
<g transform="translate(33.1 86.160475)"><g><g><path d="M -1.9000000000000057 -34.5333378334925 l -10 10 l 0 35 l 19.95 0 l -24.95 25 l 40 0 l 10 -10 l -37.6 0 l 24.85 -25 l -22.25 0 l 0 -35 z"></path><g><path d="M -1.9000000000000057 -18.883337833492504 l 0 -15.65 l -10 10 q -9.4 -17.75 -21.2 -6.85 q 12.25 -2.15 14.85 15.5 l 6.35 -6.3 l 0 8.1 q 4.8 -9.5 10 -4.8 z"></path></g><g><path d="M 13.099999999999994 25.466662166507497 q 6.368 3.408 0 10 l 10 0 l 10 -10 l 0 -15 l -10 10 l 0 5 l -10 0 z"></path></g></g></g></g>
</svg>
