<svg xmlns="http://www.w3.org/2000/svg" viewBox="0 0 464.15 154.925" width="464.15" height="154.925" fill="currentColor" stroke="none">
<g transform="translate(232.075 77.4625)"><g><g><path d="M -224.57500000000005 -52.53750000000001 l -7.5 7.5 57.5 62.5 7.5 -7.5 -57.5 -62.5 z"></path></g><g><path d="M -129.37500000000006 17.38749999999999 l 10 -10 l 0 -40 l -9.55 9.55 l -20.65 -29.4 l -7.5 7.5 l 21.6 30.85 l 6.1 -6.1 l 0 37.6 z"></path><g><path d="M -119.37500000000006 -3.8125000000000107 q -5 12.14 -10 11.2 l 0 10 l 17.5 -17.5 l -1.2 -1.2 l -6.3 6.3 l 0 -8.8 z"></path></g><path d="M -141.97500000000005 -69.9625 l 7.5 7.5 l 7.5 -7.5 l -7.5 -7.5 l -7.5 7.5 z"></path></g><g><path d="M -84.37500000000006 -52.53750000000001 l -10 10 l 0 30 l 30 30 l 7.5 -7.5 l -27.5 -27.5 l 0 -35 z"></path><g><path d="M -94.37500000000006 -31.33750000000001 q 5 -12.14 10 -11.2 l 0 -10 l -17.5 17.5 l 1.2 1.2 l 6.3 -6.3 l 0 8.8 z"></path></g><g><path d="M -56.87500000000006 9.962499999999991 q -6.8 0.5 -7.5 7.5 l 15 15 l 15 -15 l -1.2 -1.2 l -7.5 7.5 l -13.8 -13.8 z"></path></g><path d="M -78.12500000000006 52.46249999999999 l 0 25 l 20 -20 l -1.2 -1.2 l -8.8 8.8 l 0 -22.6 l -10 10 z"></path></g><g><path d="M -14.375000000000057 -52.53750000000001 l -10 10 l 0 60 l 10 -10 l 0 -60 z"></path></g><g><path d="M 10.624999999999943 -52.53750000000001 l -7.5 7.5 57.5 62.5 7.5 -7.5 -57.5 -62.5 z"></path><path d="M 9.524999999999949 -49.48750000000001 q -3.28 1.825 -6.4 4.45 l -7.5 7.5 l 1.2 1.2 l 7.5 -7.5 q 4.106 1.688 4.55 0.35 q 0.6 -1.45 0.65 -6 z"></path><path d="M 65.07499999999993 11.062499999999993 q -1.825 3.28 -4.45 6.4 l -7.5 7.5 l -1.2 -1.2 l 7.5 -7.5 q -1.688 -4.106 -0.35 -4.55 q 1.45 -0.6 6 -0.65 z"></path><path d="M 25.624999999999943 17.46249999999999 l 10 -10 l -30 0 l -10 10 l 30 0 z"></path><path d="M 45.62499999999994 -62.53750000000001 l 10 -10 l -30 0 l -10 10 l 30 0 z"></path></g><g><path d="M 96.97499999999997 -52.53750000000001 l -7.5 7.5 l 31.25 31.25 l -31.25 31.25 l 40 0 l 10 -10 l -37.6 0 l 27.5 -27.6 l -32.4 -32.4 z"></path><g><path d="M 98.12499999999994 -51.337500000000006 l 7.5 -7.55 q -17.7 -8.5 -27.5 7.5 q 11.7 -7.3 18.85 -1.15 l -3.7 3.65 q 1.81 1.308 4.55 2.1 q 1.8 0.5 0.3 -4.55 z"></path></g><g><path d="M 131.825 7.4624999999999915 q 0.465 4.718 -7.9 10 l 5.55 0 l 17.6 -17.6 l 0 -15 l -10 10 l 0 12.6 l -5.25 0 z"></path></g></g><g><path d="M 167.07500000000005 -52.53750000000001 l -10 10 l 0 60 l 10 -10 l 0 -60 z"></path></g><g><path d="M 232.07500000000005 -52.51250000000001 l -10 10 l 0 20 l -35 0 l -10 10 l 29.95 29.95 l 7.5 -7.5 l -22.45 -22.45 l 30 0 l 10 -10 l 0 -30 z"></path><g><path d="M 209.52500000000003 14.937499999999972 l 5 -5 l 10 10 l 7.15 -7.15 l -11.3 -11.2 l -7 7.1 l -1 1 q -3.183 -1.742 -3.85 0 q -0.916 1.293 0 6.25 z"></path></g><path d="M 214.57500000000005 -62.51250000000002 l 10 -10 l -30 0 l -10 10 l 30 0 z"></path></g></g></g>
</svg>
