<svg xmlns="http://www.w3.org/2000/svg" viewBox="0 0 392.6 126.3" width="392.6" height="126.3" fill="currentColor" stroke="none">
<g transform="translate(196.3 63.15)"><g><g><path d="M -168.3 17.449999999999996 l 7.45 -7.5 27.05 34.4 7.5 -7.5 -27.8 -36 -7.75 7.8 -26.95 -34.3 -7.5 7.5 28 35.6 z"></path><path d="M -183.8 26.849999999999994 l -10 10 l 0 25 l 10 -10 l 0 -25 z"></path><path d="M -175.05 -55.650000000000006 l 20 20 l 7.5 -7.5 l -20 -20 l -7.5 7.5 z"></path></g><g><path d="M -73.75000000000001 -25.650000000000006 l -10 10 l 0 60 l 10 -10 l 0 -50 l 30 0 l 10 -10 l -40 0 z"></path><g><path d="M -56.150000000000006 -5.650000000000006 l 22.4 0 l 17.5 -17.5 l -1.2 -1.2 l -8.7 8.7 l -17.6 0 l 10 -10 l -12.65 0 q 5.5 3.45 -5.3 10 l 5.5 0 l -9.95 10 z"></path></g><g><path d="M -73.75000000000001 34.349999999999994 l 0 -7.3 q -4.546 5.888 -10 3.05 l 0 11.95 l -15.05 0 l -17.5 17.5 l 1.2 1.2 l 8.7 -8.7 l 15 0 l 17.65 -17.7 z"></path></g></g><g><path d="M 11.949999999999989 -25.650000000000006 l -10 10 l 0 60 l 10 -10 l 0 -60 z"></path><g><path d="M 13.75 56.14999999999999 l -11.8 -11.8 l 10 -10 l 0 -5 q -5.188 7.964 -10 5 l 0 7.7 l -8.2 8.2 l 13 12.9 l 7 -7 z"></path></g></g><g><path d="M 66.30000000000001 -25.650000000000006 l -10 10 l 0 60 l 10 -10 l 0 -50 l 30 0 l 10 -10 l -40 0 z"></path><g><path d="M 66.30000000000001 34.349999999999994 l 0 -7.3 q -4.546 5.888 -10 3.05 l 0 11.95 l -15.05 0 l -17.5 17.5 l 1.2 1.2 l 8.7 -8.7 l 15 0 l 17.65 -17.7 z"></path></g><path d="M 75.02500000000003 -35.650000000000006 l 10 -10 l -30 0 l -10 10 l 30 0 z"></path></g><g><path d="M 134.5 -25.650000000000006 l -10 10 l 0 60 l 10 -10 l 0 -60 z"></path><g><path d="M 136.3 56.14999999999999 l -11.8 -11.8 l 10 -10 l 0 -5 q -5.188 7.964 -10 5 l 0 7.7 l -8.2 8.2 l 13 12.9 l 7 -7 z"></path></g></g><g><path d="M 156.3 -25.650000000000006 l -10 10 l 0 60 l 10 -10 l 0 -50 l 30 0 l 10 -10 l -40 0 z"></path><g><path d="M 156.3 23.149999999999995 q -5 12.14 -10 11.2 l 0 10 l 17.5 -17.5 l -1.2 -1.2 l -6.3 6.3 l 0 -8.8 z"></path></g><path d="M 181.3 -35.650000000000006 l 10 -10 l -30 0 l -10 10 l 30 0 z"></path></g></g></g>
</svg>
