<svg xmlns="http://www.w3.org/2000/svg" viewBox="0 0 70.55 172.294907" width="70.55" height="172.294907" fill="currentColor" stroke="none">
<g transform="translate(35.275 86.147453)"><g><g><path d="M 17.125000000000007 -5.375 l 10 -10 l -29.85 -29.85 l -7.5 7.5 l 22.35 22.35 l -20 0 l -15 15 l 25.6 25.6 l 7.5 -7.5 l -23.1 -23.1 l 30 0 z"></path><g><path d="M -10.224999999999994 -37.725 l -15.05 0 l -10 10 l 17.45 0 l 8.75 -8.8 q 6.9 0.2 3.8 -6.15 l -4.95 4.95 z"></path></g><g><path d="M 10.225000000000009 17.725 l 15.05 0 l 10 -10 l -17.45 0 l -8.75 8.8 q -6.9 -0.2 -3.8 6.15 l 4.95 -4.95 z"></path></g><path d="M 10.000000000000007 45.225 l 10 -10 l -30 0 l -10 10 l 30 0 z"></path></g></g></g>
</svg>
