<svg xmlns="http://www.w3.org/2000/svg" viewBox="0 0 276.8 105.05" width="276.8" height="105.05" fill="currentColor" stroke="none">
<g transform="translate(138.4 52.525)"><g><g><path d="M -128.4 -32.50000000000001 l -10 10 l 0 60 l 10 -10 l 0 -60 z"></path></g><g><path d="M -108.5 -32.525000000000006 l -9.9 9.95 l 47.35 58.35 l 0.05 0 l 1.4 1.75 l 7.5 -7.5 l -42.7 -52.55 l 52.05 0 l 10 -10 l -65.75 0 z"></path><g><path d="M -62.099999999999994 30.025000000000006 q -6.8 0.5 -7.5 7.5 l 15 15 l 15 -15 l -1.2 -1.2 l -7.5 7.5 l -13.8 -13.8 z"></path></g><path d="M -69 -42.525000000000006 l 10 -10 l -30 0 l -10 10 l 30 0 z"></path></g><g><path d="M -19.599999999999994 -32.50000000000001 l -10 10 l 0 60 l 10 -10 l 0 -60 z"></path><g><path d="M -29.599999999999994 22.499999999999993 l 0 15 l 10 -10 l 0 20 l 10 -9.9 l 0 -22.4 l -10 9.95 l 0 -5.15 q -5 6.1 -10 2.5 z"></path></g></g><g><path d="M 27.55000000000001 -32.50000000000001 l -10 10 l 0 35 l 26.3 0 l 8.7 -8.75 l 0 33.75 l 10 -10 l 0 -36.15 l -11.15 11.15 l -23.85 0 l 0 -35 z"></path><g><path d="M 17.900000000000006 -20.400000000000006 q 0.375 -0.363 1.15 -1.15 q 6.261 -1.099 8.5 3.8 l 0 -14.75 l -10 10 l -10 -10 l -7.15 7.15 l 11.3 11.2 l 5.85 -5.9 q 0.04 -0.029 0.35 -0.35 z"></path></g><g><path d="M 52.55000000000001 21.849999999999994 l 0 15.65 l 10 -10 q 9.4 17.75 21.2 6.85 q -12.25 2.15 -14.85 -15.5 l -6.35 6.3 l 0 -8.1 q -4.8 9.5 -10 4.8 z"></path></g><path d="M 52.07500000000002 -42.50000000000001 l 10 -10 l -30 0 l -10 10 l 30 0 z"></path></g><g><path d="M 121.24999999999997 -8.650000000000007 l -10 10 l 0 -33.85 l -10 10 l 0 36.2 l 10 -9.95 l 0 33.75 l 10 -10 l 0 -36.15 z"></path><g><path d="M 101.25 -40.10000000000001 l 0 17.6 q 7.3 5 10 -10 l 0 -20 l -17.5 17.5 l 1.2 1.2 l 6.3 -6.3 z"></path></g><g><path d="M 120.9 25.39999999999999 q -0.375 0.363 -1.15 1.15 q -6.261 1.099 -8.5 -3.8 l 0 14.75 l 10 -10 l 10 10 l 7.15 -7.15 l -11.3 -11.2 l -5.85 5.9 q -0.04 0.029 -0.35 0.35 z"></path></g></g></g></g>
</svg>
