<svg xmlns="http://www.w3.org/2000/svg" viewBox="0 0 78.75 172.294907" width="78.75" height="172.294907" fill="currentColor" stroke="none">
<g transform="translate(39.375 86.147453)"><g><g><path d="M -19.074999999999996 -20.75 l -7.5 7.5 l 31.25 31.25 l -31.25 31.25 l 40 0 l 10 -10 l -37.6 0 l 27.5 -27.6 l -32.4 -32.4 z"></path><g><path d="M -18.174999999999997 -19.15 l 11.2 -11.3 l -22.4 0 l -10 10.1 l 19.9 0 l -7.1 7.1 q 10.446 1.157 8.4 -5.9 z"></path></g><g><path d="M 8.875000000000007 49.25 l 4.55 0 l 8.8 -8.8 l 10 10 l 7.15 -7.15 l -11.3 -11.2 l -7.05 7.15 l -6.3 0 q 3.7 5 -5.85 10 z"></path></g><path d="M 10.000000000000007 -40.45 l 10 -10 l -30 0 l -10 10 l 30 0 z"></path></g></g></g>
</svg>
