<svg xmlns="http://www.w3.org/2000/svg" viewBox="0 0 62.15 172.294907" width="62.15" height="172.294907" fill="currentColor" stroke="none">
<g transform="translate(31.075 86.147453)"><g><g><path d="M -3.924999999999997 -37.5 l -10 10 l 0 35 l 19.95 0 l -24.95 25 l 40 0 l 10 -10 l -37.6 0 l 24.85 -25 l -22.25 0 l 0 -35 z"></path><g><path d="M -13.574999999999996 -25.4 q 0.375 -0.363 1.15 -1.15 q 6.261 -1.099 8.5 3.8 l 0 -14.75 l -10 10 l -10 -10 l -7.15 7.15 l 11.3 11.2 l 5.85 -5.9 q 0.04 -0.029 0.35 -0.35 z"></path></g><g><path d="M 11.075000000000003 22.5 q 6.368 3.408 0 10 l 10 0 l 10 -10 l 0 -15 l -10 10 l 0 5 l -10 0 z"></path></g><path d="M 10.000000000000007 -47.5 l 10 -10 l -30 0 l -10 10 l 30 0 z"></path><path d="M -7.4999999999999964 50 l 7.5 7.5 l 7.5 -7.5 l -7.5 -7.5 l -7.5 7.5 z"></path></g></g></g>
</svg>
