<svg xmlns="http://www.w3.org/2000/svg" viewBox="0 0 570.7 124.7" width="570.7" height="124.7" fill="currentColor" stroke="none">
<g transform="translate(285.35 62.35)"><g><g><path d="M -256.54999999999995 -32.65 l -10 10 l 0 60 l 10 -10 l 0 -60 z"></path><g><path d="M -256.49999999999994 -30.35 l 15 0 l 10 -10 l -17.4 0 l -17.65 17.7 l 0 7.3 q 5.4 -4.35 10 -2.75 l 0 -12.25 z"></path></g><g><path d="M -256.54999999999995 27.35 l 0 -5 q -6.25 9 -10 5 l 0 7.6 l -11.8 -11.7 l -7 7 l 12.95 12.95 l 15.85 -15.85 z"></path></g></g><g><path d="M -201.2 -32.65 l -7.5 7.5 l 31.25 31.25 l -31.25 31.25 l 40 0 l 10 -10 l -37.6 0 l 27.5 -27.6 l -32.4 -32.4 z"></path><g><path d="M -200.29999999999995 -31.049999999999997 l 11.2 -11.3 l -22.4 0 l -10 10.1 l 19.9 0 l -7.1 7.1 q 10.446 1.157 8.4 -5.9 z"></path></g><g><path d="M -173.24999999999997 37.35 l 4.55 0 l 8.8 -8.8 l 10 10 l 7.15 -7.15 l -11.3 -11.2 l -7.05 7.15 l -6.3 0 q 3.7 5 -5.85 10 z"></path></g><path d="M -172.12499999999997 -52.35 l 10 -10 l -30 0 l -10 10 l 30 0 z"></path></g><g><path d="M -112.74999999999994 -8.799999999999999 l -10 10 l 0 -33.85 l -10 10 l 0 36.2 l 10 -9.95 l 0 33.75 l 10 -10 l 0 -36.15 z"></path><g><path d="M -122.74999999999994 57.35 l 10 -10 l 0 -20 q -7.3 -5 -10 10 l 0 20 z"></path></g></g><g><path d="M -86.44999999999993 -32.65 l -7.5 7.5 57.5 62.5 7.5 -7.5 -57.5 -62.5 z"></path><path d="M -92.74999999999994 -23.95 q 4.2 0.65 6.3 -2.7 q 0.8 -1 0 -6 l -6.3 6.3 l 0 -19.95 l -10 10.1 l 0 22.35 l 10 -10.1 z"></path></g><g><path d="M 8.200000000000045 -32.65 l -10 10 l 0 35 l 19.95 0 l -24.95 25 l 40 0 l 10 -10 l -37.6 0 l 24.85 -25 l -22.25 0 l 0 -35 z"></path><g><path d="M -1.4499999999999318 -20.549999999999997 q 0.375 -0.363 1.15 -1.15 q 6.261 -1.099 8.5 3.8 l 0 -14.75 l -10 10 l -10 -10 l -7.15 7.15 l 11.3 11.2 l 5.85 -5.9 q 0.04 -0.029 0.35 -0.35 z"></path></g><g><path d="M 23.200000000000045 27.35 q 6.368 3.408 0 10 l 10 0 l 10 -10 l 0 -15 l -10 10 l 0 5 l -10 0 z"></path></g><path d="M 22.125000000000057 -42.65 l 10 -10 l -30 0 l -10 10 l 30 0 z"></path><path d="M 4.625000000000057 54.85 l 7.5 7.5 l 7.5 -7.5 l -7.5 -7.5 l -7.5 7.5 z"></path></g><g><path d="M 71.40000000000003 -32.65 l -10 10 l 0 60 l 10 -10 l 0 -60 z"></path><g><path d="M 73.20000000000005 49.15 l -11.8 -11.8 l 10 -10 l 0 -5 q -5.188 7.964 -10 5 l 0 7.7 l -8.2 8.2 l 13 12.9 l 7 -7 z"></path></g></g><g><path d="M 138.20000000000005 -32.625 l -10 10 l 0 20 l -35 0 l -10 10 l 29.95 29.95 l 7.5 -7.5 l -22.45 -22.45 l 30 0 l 10 -10 l 0 -30 z"></path><g><path d="M 112.25000000000006 35.72499999999998 l -11.2 11.3 l 22.4 0 l 10 -10.1 l -19.9 0 l 7.1 -7.1 q -10.446 -1.157 -8.4 5.9 z"></path></g><path d="M 120.70000000000005 -42.62500000000001 l 10 -10 l -30 0 l -10 10 l 30 0 z"></path></g><g><path d="M 212.85000000000002 37.35 l 7.5 -7.5 -26.9 -26.9 7.45 -7.55 -28.05 -28.05 -7.5 7.5 26.9 26.9 -7.5 7.5 28.1 28.1 z"></path><path d="M 170.35000000000002 -30.15 l -5 5 l -10 -10 l -7.15 7.15 l 11.3 11.2 l 7 -7.1 l 1 -1 q 3.183 1.742 3.85 0 q 0.916 -1.293 0 -6.25 z"></path><path d="M 177.85000000000002 54.85 l 7.5 7.5 l 7.5 -7.5 l -7.5 -7.5 l -7.5 7.5 z"></path></g><g><path d="M 285.34999999999997 -32.625 l -10 10 l 0 20 l -35 0 l -10 10 l 29.95 29.95 l 7.5 -7.5 l -22.45 -22.45 l 30 0 l 10 -10 l 0 -30 z"></path><g><path d="M 257.7 27.32499999999998 q -1.65 2.7 2.6 10 l 12.6 0 l -7.5 7.5 l 1.2 1.2 l 18.7 -18.7 l -20 0 q -7 -2.95 -7.6 0 z"></path></g></g></g></g>
</svg>
