<svg xmlns="http://www.w3.org/2000/svg" viewBox="0 0 100.7 172.294907" width="100.7" height="172.294907" fill="currentColor" stroke="none">
<g transform="translate(50.35 86.129091)"><g><g><path d="M 15.29999999999999 -22.254684041507506 l 10 -10 l -65.75 0 l -9.9 9.95 l 30.45 37.55 l 7.25 -7.3 l 24.15 29.65 l 7.45 -7.4 l -25.2 -31.05 l -7.5 7.45 l -23.1 -28.85 l 52.15 0 z"></path><g><path d="M 25.300000000000004 -32.2546840415075 l 15.05 0 l 10 -10 l -17.45 0 l -9.95 10 l -7.6 0 q 4.95 4.2 -6.25 10 l 6.25 0 l 9.95 -10 z"></path></g><g><path d="M 17.849999999999987 28.945315958492493 l 0 -0.05 q -8.1 -2.8 -6.35 8.7 l 6.35 -6.3 q 9.4 17.75 21.2 6.85 q -12.25 2.15 -14.85 -15.5 l -6.35 6.3 z"></path></g></g></g></g>
</svg>
