<svg xmlns="http://www.w3.org/2000/svg" viewBox="0 0 627.45 124.95" width="627.45" height="124.95" fill="currentColor" stroke="none">
<g transform="translate(313.725 62.475)"><g><g><path d="M -306.2250000000001 -42.449999999999996 l -7.5 7.5 57.5 62.5 7.5 -7.5 -57.5 -62.5 z"></path></g><g><path d="M -173.0750000000001 -32.375 l 10 -10 l -65.75 0 l -9.9 9.95 l 30.45 37.55 l 7.25 -7.3 l 24.15 29.65 l 7.45 -7.4 l -25.2 -31.05 l -7.5 7.45 l -23.1 -28.85 l 52.15 0 z"></path><g><path d="M -178.0750000000001 -32.37499999999999 l 5 0 l 7.6 -7.6 l 0 19.95 l 10 -9.9 l 0 -22.45 l -10 10 l -12.6 0 q 3.5 4 0 10 z"></path></g><g><path d="M -174.2750000000001 37.475 l 17.4 0 l 10 -10 l -15 0 l 10 -10 l -20 0 q -7 -2.95 -7.6 0 q -1.65 2.7 2.6 10 l 12.55 0 l -9.95 10 z"></path></g><path d="M -200.3000000000001 54.975 l 7.5 7.5 l 7.5 -7.5 l -7.5 -7.5 l -7.5 7.5 z"></path></g><g><path d="M -126.87500000000009 -42.449999999999996 l -10 10 l 0 60 l 10 -10 l 0 -50 l 30 0 l 10 -10 l -40 0 z"></path><path d="M -104.27500000000009 47.550000000000004 l -8.8 8.8 l 1.2 1.2 l 20 -20 l -30 0 l -10 10 l 27.6 0 z"></path></g><g><path d="M -37.8250000000001 -24.999999999999996 l -1.25 -1.15 q -5.45 4.65 -10.85 3.05 q -5.65 -1.7 -5.7 -9.35 l 25 0 l 17.5 -17.5 l -1.2 -1.2 l -8.7 8.7 l -37.6 0 l -10 10 q 14.9 23.2 32.8 7.45 z"></path><path d="M -66.87500000000009 -12.449999999999996 l -10 10 l 50 0 l 10 -10 l -50 0 z"></path></g><g><path d="M 6.874999999999943 -42.449999999999996 l -10 10 l 0 60 l 10 -10 l 0 -60 z"></path></g><g><path d="M 26.77499999999992 -42.474999999999994 l -9.9 9.95 l 47.35 58.35 l 0.05 0 l 1.4 1.75 l 7.5 -7.5 l -42.7 -52.55 l 52.05 0 l 10 -10 l -65.75 0 z"></path><g><path d="M 80.67499999999995 42.57500000000002 l 7.5 -7.5 l -15 -15 q -6.8 0.5 -7.5 7.5 l 15 15 z"></path></g><path d="M 64.69999999999993 -52.474999999999994 l 10 -10 l -30 0 l -10 10 l 30 0 z"></path></g><g><path d="M 112.52499999999998 -42.449999999999996 l -10 10 l 0 60 l 10 -10 l 0 -60 z"></path></g><g><path d="M 172.52499999999998 -32.449999999999996 l 10 -10 l -50 0 l -10 10 l 0 35 l 10 -10 l 15 0 l 0 35 l 10 -10 l 0 -35 l -17.35 0 l -7.65 7.6 l 0 -22.6 l 40 0 z"></path><path d="M 162.52499999999998 -52.449999999999996 l 10 -10 l -30 0 l -10 10 l 30 0 z"></path></g><g><path d="M 214.925 -42.449999999999996 l -10 10 l 0 60 l 10 -10 l 0 -60 z"></path><g><path d="M 192.52499999999998 37.550000000000004 l 22.4 0 l 10 -10.1 l -19.9 0 l -0.1 0.1 l 0 -0.1 l 0.05 0 l 9.95 -9.9 l 0 -5 q -5 5.774 -10 5 l 0 7.55 l -12.4 12.4 z"></path></g></g><g><path d="M 244.8250000000001 -42.474999999999994 l -9.9 9.95 l 47.35 58.35 l 0.05 0 l 1.4 1.75 l 7.5 -7.5 l -42.7 -52.55 l 52.05 0 l 10 -10 l -65.75 0 z"></path><g><path d="M 291.2250000000001 20.075000000000017 q -6.8 0.5 -7.5 7.5 l 15 15 l 15 -15 l -1.2 -1.2 l -7.5 7.5 l -13.8 -13.8 z"></path></g><path d="M 284.3250000000001 -52.474999999999994 l 10 -10 l -30 0 l -10 10 l 30 0 z"></path></g></g></g>
</svg>
