<svg xmlns="http://www.w3.org/2000/svg" viewBox="0 0 60.2 172.294907" width="60.2" height="172.294907" fill="currentColor" stroke="none">
<g transform="translate(30.1 86.147453)"><g><g><path d="M -20.099999999999994 -51.77499999999999 l -10 10 l 0 40 l 9.55 -9.55 l 20.65 29.4 l 7.5 -7.5 l -21.6 -30.85 l -6.1 6.1 l 0 -37.6 z"></path><g><path d="M -12.599999999999998 -56.875 l -1.2 -1.2 l -16.3 16.3 l 0 7.75 q 5 -9.444 10 -6.55 l 0 -8.8 l 7.5 -7.5 z"></path></g><g><path d="M 2.6999999999999993 28.074999999999996 l 17.4 0 l 10 -10 l -15 0 l 10 -10 l -20 0 q -7 -2.95 -7.6 0 q -1.65 2.7 2.6 10 l 12.55 0 l -9.95 10 z"></path></g><path d="M -7.600000000000001 48.075 l 8.8 -8.8 l -1.2 -1.2 l -20 20 l 30 0 l 10 -10 l -27.6 0 z"></path></g></g></g>
</svg>
