<svg xmlns="http://www.w3.org/2000/svg" viewBox="0 0 190.2 121.2" width="190.2" height="121.2" fill="currentColor" stroke="none">
<g transform="translate(95.1 60.6)"><g><g><path d="M -47.599999999999994 15.625000000000007 l 7.5 -7.5 -26.9 -26.9 7.45 -7.55 -28.05 -28.05 -7.5 7.5 26.9 26.9 -7.5 7.5 28.1 28.1 z"></path></g><g><path d="M -20.099999999999994 -54.29999999999999 l -10 10 l 0 40 l 9.55 -9.55 l 20.65 29.4 l 7.5 -7.5 l -21.6 -30.85 l -6.1 6.1 l 0 -37.6 z"></path><g><path d="M -12.599999999999994 -59.4 l -1.2 -1.2 l -16.3 16.3 l 0 7.75 q 5 -9.444 10 -6.55 l 0 -8.8 l 7.5 -7.5 z"></path></g><g><path d="M 2.700000000000003 25.549999999999997 l 17.4 0 l 10 -10 l -15 0 l 10 -10 l -20 0 q -7 -2.95 -7.6 0 q -1.65 2.7 2.6 10 l 12.55 0 l -9.95 10 z"></path></g><path d="M -7.599999999999994 45.550000000000004 l 8.8 -8.8 l -1.2 -1.2 l -20 20 l 30 0 l 10 -10 l -27.6 0 z"></path></g><g><path d="M 95.1 -54.349999999999994 l -10 10 l 0 20 l -35 0 l -10 10 l 29.95 29.95 l 7.5 -7.5 l -22.45 -22.45 l 30 0 l 10 -10 l 0 -30 z"></path><path d="M 77.6 50.59999999999999 l 0 -25 l -20 20 l 1.2 1.2 l 8.8 -8.8 l 0 22.6 l 10 -10 z"></path></g></g></g>
</svg>
