<svg xmlns="http://www.w3.org/2000/svg" viewBox="0 0 51.8 172.294907" width="51.8" height="172.294907" fill="currentColor" stroke="none">
<g transform="translate(25.9 86.147453)"><g><g><path d="M 15.899999999999999 26.85 l 10 -10 l 0 -36.3 l -10 10.05 l 0 -33.75 l -10 10 l 0 36.15 l 10 -10 l 0 23.85 l -30 0 l -10 10 l 40 0 z"></path><g><path d="M 15.899999999999999 -28.15 l 0 -15 l -12.6 0 l 7.5 -7.5 l -1.2 -1.2 l -18.7 18.7 l 15 0 l 0 10 q 3.85 -7.75 10 -5 z"></path></g><g><path d="M -25.9 5.050000000000001 l 11.8 11.8 l -10 10 l 11.15 0 q -3.75 -5.2 5.8 -10 l -4.65 0 l 5.9 -5.9 l -13 -12.9 l -7 7 z"></path></g><path d="M -7.5 44.35 l 7.5 7.5 l 7.5 -7.5 l -7.5 -7.5 l -7.5 7.5 z"></path></g></g></g>
</svg>
