<svg xmlns="http://www.w3.org/2000/svg" viewBox="0 0 483.15 143.7" width="483.15" height="143.7" fill="currentColor" stroke="none">
<g transform="translate(241.575 71.85)"><g><g><path d="M -231.57500000000002 -43.14999999999999 l -10 10 l 0 60 l 10 -10 l 0 -60 z"></path><g><path d="M -241.57500000000002 11.850000000000009 l 0 15 l 10 -10 l 0 20 l 10 -9.9 l 0 -22.4 l -10 9.95 l 0 -5.15 q -5 6.1 -10 2.5 z"></path></g></g><g><path d="M -196.52500000000003 -33.14999999999999 l 34.95 0 l 10 -10 l -50 0 l -10 10 l 25 25 l 0 35 l 10 -10 l 0 -30.05 l -19.95 -19.95 z"></path><g><path d="M -171.57500000000002 -33.14999999999999 l 10 0 l 17.5 -17.5 l -1.2 -1.2 l -8.7 8.7 l -7.6 0 q 0.83 5.4 -10 10 z"></path></g><g><path d="M -176.57500000000002 5.650000000000009 q -5 12.14 -10 11.2 l 0 10 l 17.5 -17.5 l -1.2 -1.2 l -6.3 6.3 l 0 -8.8 z"></path></g><path d="M -167.82500000000002 -61.849999999999994 l 10 -10 l -30 0 l -10 10 l 30 0 z"></path></g><g><path d="M -91.525 -19.29999999999999 l -10 10 l 0 -33.85 l -10 10 l 0 36.2 l 10 -9.95 l 0 33.75 l 10 -10 l 0 -36.15 z"></path><g><path d="M -111.525 -33.14999999999999 l 0 5 q 6.25 -9 10 -5 l 0 -7.6 l 11.8 11.7 l 7 -7 l -12.95 -12.95 l -15.85 15.85 z"></path></g><g><path d="M -91.525 16.85000000000001 l 0 -7.3 q -4.546 5.888 -10 3.05 l 0 11.95 l -15.05 0 l -17.5 17.5 l 1.2 1.2 l 8.7 -8.7 l 15 0 l 17.65 -17.7 z"></path></g></g><g><path d="M -45.224999999999994 -19.29999999999999 l -10 10 l 0 -33.85 l -10 10 l 0 36.2 l 10 -9.95 l 0 33.75 l 10 -10 l 0 -36.15 z"></path><g><path d="M -65.225 -21.949999999999992 q 5 -12.14 10 -11.2 l 0 -10 l -17.5 17.5 l 1.2 1.2 l 6.3 -6.3 l 0 8.8 z"></path></g><g><path d="M -55.224999999999994 11.850000000000009 l 0 15 l 15 0 l 10 -10 l -15 0 l 0 -10 q -3.874 7.753 -10 5 z"></path></g></g><g><path d="M 12.775000000000006 -0.04999999999999183 l 7.45 -7.5 27.05 34.4 7.5 -7.5 -27.8 -36 -7.75 7.8 -26.95 -34.3 -7.5 7.5 28 35.6 z"></path><path d="M 9.775000000000006 26.85000000000001 l 10 -10 l -30 0 l -10 10 l 30 0 z"></path><path d="M 29.775000000000006 -53.14999999999999 l 10 -10 l -30 0 l -10 10 l 30 0 z"></path></g><g><path d="M 119.775 -43.12499999999999 l -10 10 l 0 20 l -35 0 l -10 10 l 29.95 29.95 l 7.5 -7.5 l -22.45 -22.45 l 30 0 l 10 -10 l 0 -30 z"></path><g><path d="M 93.82500000000002 25.224999999999987 l -11.2 11.3 l 22.4 0 l 10 -10.1 l -19.9 0 l 7.1 -7.1 q -10.446 -1.157 -8.4 5.9 z"></path></g></g><g><path d="M 171.57500000000002 26.85000000000001 l 10 -10 l 0 -36.3 l -10 10.05 l 0 -33.75 l -10 10 l 0 36.15 l 10 -10 l 0 23.85 l -30 0 l -10 10 l 40 0 z"></path><g><path d="M 171.57500000000002 -28.14999999999999 l 0 -15 l -12.6 0 l 7.5 -7.5 l -1.2 -1.2 l -18.7 18.7 l 15 0 l 0 10 q 3.85 -7.75 10 -5 z"></path></g><g><path d="M 129.775 5.050000000000008 l 11.8 11.8 l -10 10 l 11.15 0 q -3.75 -5.2 5.8 -10 l -4.65 0 l 5.9 -5.9 l -13 -12.9 l -7 7 z"></path></g><path d="M 148.17500000000004 44.35000000000001 l 7.5 7.5 l 7.5 -7.5 l -7.5 -7.5 l -7.5 7.5 z"></path></g><g><path d="M 234.07500000000002 26.85000000000001 l 7.5 -7.5 l -31.25 -31.25 l 31.25 -31.25 l -40 0 l -10 10 l 37.6 0 l -27.5 27.6 l 32.4 32.4 z"></path><path d="M 209.07500000000002 -60.64999999999999 l 7.5 7.5 l 7.5 -7.5 l -7.5 -7.5 l -7.5 7.5 z"></path><path d="M 206.57500000000002 46.85000000000001 l 0 25 l 20 -20 l -1.2 -1.2 l -8.8 8.8 l 0 -22.6 l -10 10 z"></path></g></g></g>
</svg>
