<svg xmlns="http://www.w3.org/2000/svg" viewBox="0 0 250.65 119.925" width="250.65" height="119.925" fill="currentColor" stroke="none">
<g transform="translate(125.325 59.9625)"><g><g><path d="M -107.12499999999999 -40.0375 l -10 10 l 0 60 l 10 -10 l 0 -60 z"></path><g><path d="M -105.32499999999999 41.762499999999996 l -11.8 -11.8 l 10 -10 l 0 -5 q -5.188 7.964 -10 5 l 0 7.7 l -8.2 8.2 l 13 12.9 l 7 -7 z"></path></g></g><g><path d="M -29.674999999999983 -29.962500000000002 l 10 -10 l -65.75 0 l -9.9 9.95 l 30.45 37.55 l 7.25 -7.3 l 24.15 29.65 l 7.45 -7.4 l -25.2 -31.05 l -7.5 7.45 l -23.1 -28.85 l 52.15 0 z"></path><path d="M -47.499999999999986 -49.9625 l 10 -10 l -30 0 l -10 10 l 30 0 z"></path></g><g><path d="M 23.32499999999999 3.0624999999999982 l 7.45 -7.5 27.05 34.4 7.5 -7.5 -27.8 -36 -7.75 7.8 -26.95 -34.3 -7.5 7.5 28 35.6 z"></path><path d="M 20.32499999999999 29.9625 l 10 -10 l -30 0 l -10 10 l 30 0 z"></path></g><g><path d="M 90.32499999999999 -40.0375 l -10 10 l 0 35 l 19.95 0 l -24.95 25 l 40 0 l 10 -10 l -37.6 0 l 24.85 -25 l -22.25 0 l 0 -35 z"></path><path d="M 92.725 49.9625 l 8.8 -8.8 l -1.2 -1.2 l -20 20 l 30 0 l 10 -10 l -27.6 0 z"></path></g></g></g>
</svg>
