<svg xmlns="http://www.w3.org/2000/svg" viewBox="0 0 248.75 140" width="248.75" height="140" fill="currentColor" stroke="none">
<g transform="translate(124.375 70)"><g><g><path d="M -91.875 -5 l 7.5 -7.5 -32.5 -32.5 -7.5 7.5 32.5 32.5 m -17.5 -10 l -7.5 7.5 32.5 32.5 7.5 -7.5 -32.5 -32.5 z"></path></g><g><path d="M -56.875 -45 l -10 10 l 0 60 l 10 -10 l 0 -50 l 30 0 l 10 -10 l -40 0 z"></path><g><path d="M -36.875 -35 l 10 0 l 17.5 -17.5 l -1.2 -1.2 l -8.7 8.7 l -7.6 0 q 0.83 5.4 -10 10 z"></path></g><g><path d="M -56.875 32.6 l 0 -17.6 q -7.3 -5 -10 10 l 0 20 l 17.5 -17.5 l -1.2 -1.2 l -6.3 6.3 z"></path></g><path d="M -45.625 62.5 l 7.5 7.5 l 7.5 -7.5 l -7.5 -7.5 l -7.5 7.5 z"></path></g><g><path d="M 10.625 -45 l -10 10 l 0 60 l 10 -10 l 0 -50 l 30 0 l 10 -10 l -40 0 z"></path><path d="M 18.125 -62.5 l 7.5 7.5 l 7.5 -7.5 l -7.5 -7.5 l -7.5 7.5 z"></path><path d="M 35.625 45 l 10 -10 l -30 0 l -10 10 l 30 0 z"></path></g><g><path d="M 66.875 -35 q 24.3 9.1 15 21.3 l 1.25 1.15 q 15.85 -14.1 3.75 -22.45 l 20 0 l 17.5 -17.5 l -1.2 -1.2 l -8.7 8.7 l -37.6 0 l -10 10 z"></path><path d="M 70.625 -15 l -10 10 l 50 0 l 10 -10 l -50 0 z"></path></g></g></g>
</svg>
