<svg xmlns="http://www.w3.org/2000/svg" viewBox="0 0 47.7 172.294907" width="47.7" height="172.294907" fill="currentColor" stroke="none">
<g transform="translate(23.85 86.147453)"><g><g><path d="M -3.8500000000000014 -24.34999999999998 l -10 10 l 0 40 l 9.55 -9.55 l 20.65 29.4 l 7.5 -7.5 l -21.6 -30.85 l -6.1 6.1 l 0 -37.6 z"></path><g><path d="M 8.549999999999997 -34.34999999999999 l -22.4 0 l -10 10.1 l 19.9 0 l 0.1 -0.1 l 0 0.1 l -0.05 0 l -9.95 9.9 l 0 5 q 5 -5.774 10 -5 l 0 -7.55 l 12.4 -12.4 z"></path></g><g><path d="M 15.199999999999996 44.35000000000001 l -15.05 0 l -10 10 l 17.45 0 l 8.75 -8.85 q 1.75 -3.2 4.85 -7.2 q -5.7 -0.35 -6 6.05 z"></path></g><path d="M 10 -44.34999999999999 l 10 -10 l -30 0 l -10 10 l 30 0 z"></path></g></g></g>
</svg>
