<svg xmlns="http://www.w3.org/2000/svg" viewBox="0 0 87.15 172.294907" width="87.15" height="172.294907" fill="currentColor" stroke="none">
<g transform="translate(43.575 86.147453)"><g><g><path d="M 16.424999999999997 25 l 10 -10 l 0 -35 l -26.3 0 l -8.7 8.75 l 0 -33.75 l -10 10 l 0 36.15 l 11.15 -11.15 l 23.85 0 l 0 35 z"></path><g><path d="M -18.525000000000002 -32.6 l -0.05 5.05 q 4.6 -6.3 10 -4 l 0 -13.45 l -9.95 10 l -12.65 0 l 7.5 -7.5 l -1.2 -1.2 l -18.7 18.7 l 17.45 0 l 7.6 -7.6 z"></path></g><g><path d="M 26.075000000000003 12.899999999999999 q -0.375 0.363 -1.15 1.15 q -6.261 1.099 -8.5 -3.8 l 0 14.75 l 10 -10 l 10 10 l 7.15 -7.15 l -11.3 -11.2 l -5.85 5.9 q -0.04 0.029 -0.35 0.35 z"></path></g><path d="M 10 45 l 10 -10 l -30 0 l -10 10 l 30 0 z"></path></g></g></g>
</svg>
