<svg xmlns="http://www.w3.org/2000/svg" viewBox="0 0 58.2 172.294907" width="58.2" height="172.294907" fill="currentColor" stroke="none">
<g transform="translate(29.1 86.147453)"><g><g><path d="M 10.899999999999999 56.900000000000006 l 10 -10 l 0 -60 l -10 10 l 0 50 l -30 0 l -10 10 l 40 0 z"></path><g><path d="M 9.100000000000001 -24.89999999999999 l 11.8 11.8 l -10 10 l 0 5 q 5.188 -7.964 10 -5 l 0 -7.7 l 8.2 -8.2 l -13 -12.9 l -7 7 z"></path></g><g><path d="M -1.6000000000000014 16.700000000000003 l -1.2 -1.2 l -16.3 16.3 l 0 15.1 l -10 10 l 18.3 0 q -4.75 -2.3 1.7 -10 l -7.6 0 l -0.25 0.2 l 7.85 -7.85 l 0 -15.05 l 7.5 -7.5 z"></path></g><path d="M -7.5 -49.400000000000006 l 7.5 7.5 l 7.5 -7.5 l -7.5 -7.5 l -7.5 7.5 z"></path></g></g></g>
</svg>
