<svg xmlns="http://www.w3.org/2000/svg" viewBox="0 0 63.8 172.294907" width="63.8" height="172.294907" fill="currentColor" stroke="none">
<g transform="translate(31.9 86.147453)"><g><g><path d="M 24.400000000000002 31.25 l 7.5 -7.5 -26.9 -26.9 7.45 -7.55 -28.05 -28.05 -7.5 7.5 26.9 26.9 -7.5 7.5 28.1 28.1 z"></path><path d="M -21.9 -30.05 q 6.486 1.216 4.75 -5 q -2.924 3.894 -5.95 3.8 l -8.8 8.8 l 0 15 l 10 -10 l 0 -12.6 z"></path><path d="M 28.850000000000005 24.85 q -1.825 3.28 -4.45 6.4 l -7.5 7.5 l -1.2 -1.2 l 7.5 -7.5 q -1.688 -4.106 -0.35 -4.55 q 1.45 -0.6 6 -0.65 z"></path></g></g></g>
</svg>
