<svg xmlns="http://www.w3.org/2000/svg" viewBox="0 0 81.35 172.294907" width="81.35" height="172.294907" fill="currentColor" stroke="none">
<g transform="translate(40.675 86.147453)"><g><g><path d="M 30.77499999999999 47.525 l 9.9 -9.95 l -47.35 -58.35 l -0.05 0 l -1.4 -1.75 l -7.5 7.5 l 42.7 52.55 l -52.05 0 l -10 10 l 65.75 0 z"></path><g><path d="M -15.625000000000007 -15.025000000000006 l -15.05 0 l -10 10 l 17.45 0 l 8.75 -8.8 q 6.9 0.2 3.8 -6.15 l -4.95 4.95 z"></path></g><g><path d="M -7.4750000000000085 7.325000000000003 l -1.2 -1.2 l -16.3 16.3 l 0 15.1 l -10 10 l 18.3 0 q -4.75 -2.3 1.7 -10 l -7.6 0 l -0.25 0.2 l 7.85 -7.85 l 0 -15.05 l 7.5 -7.5 z"></path></g><path d="M -7.5 -40.025000000000006 l 7.5 7.5 l 7.5 -7.5 l -7.5 -7.5 l -7.5 7.5 z"></path></g></g></g>
</svg>
