<svg xmlns="http://www.w3.org/2000/svg" viewBox="0 0 317.45 110" width="317.45" height="110" fill="currentColor" stroke="none">
<g transform="translate(158.725 55)"><g><g><path d="M -148.72500000000002 -35 l -10 10 l 0 60 l 10 -10 l 0 -60 z"></path></g><g><path d="M -123.67500000000003 -25 l 34.95 0 l 10 -10 l -50 0 l -10 10 l 25 25 l 0 35 l 10 -10 l 0 -30.05 l -19.95 -19.95 z"></path><g><path d="M -103.72500000000002 42.6 l 0 -17.6 q -7.3 -5 -10 10 l 0 20 l 17.5 -17.5 l -1.2 -1.2 l -6.3 6.3 z"></path></g><path d="M -98.72500000000002 -45 l 10 -10 l -30 0 l -10 10 l 30 0 z"></path></g><g><path d="M -58.72500000000002 -35 l -10 10 l 0 60 l 10 -10 l 0 -60 z"></path><g><path d="M -58.675000000000026 -32.7 l 15 0 l 10 -10 l -17.4 0 l -17.65 17.7 l 0 7.3 q 5.4 -4.35 10 -2.75 l 0 -12.25 z"></path></g><g><path d="M -68.72500000000002 20 l 0 15 l 10 -10 l 0 20 l 10 -9.9 l 0 -22.4 l -10 9.95 l 0 -5.15 q -5 6.1 -10 2.5 z"></path></g></g><g><path d="M -16.17500000000001 -35 l -7.5 7.5 l 31.25 31.25 l -31.25 31.25 l 40 0 l 10 -10 l -37.6 0 l 27.5 -27.6 l -32.4 -32.4 z"></path><path d="M 11.324999999999989 -45 l 10 -10 l -30 0 l -10 10 l 30 0 z"></path></g><g><path d="M 58.724999999999994 -35 l -10 10 l 0 60 l 10 -10 l 0 -60 z"></path><g><path d="M 36.32499999999999 45 l 22.4 0 l 10 -10.1 l -19.9 0 l -0.1 0.1 l 0 -0.1 l 0.05 0 l 9.95 -9.9 l 0 -5 q -5 5.774 -10 5 l 0 7.55 l -12.4 12.4 z"></path></g></g><g><path d="M 96.92499999999998 -35 l -10 10 l 0 60 l 10 -10 l 0 -60 z"></path><g><path d="M 98.72500000000002 46.8 l -11.8 -11.8 l 10 -10 l 0 -5 q -5.188 7.964 -10 5 l 0 7.7 l -8.2 8.2 l 13 12.9 l 7 -7 z"></path></g></g><g><path d="M 116.22500000000002 -35 l -7.5 7.5 l 31.25 31.25 l -31.25 31.25 l 40 0 l 10 -10 l -37.6 0 l 27.5 -27.6 l -32.4 -32.4 z"></path><path d="M 143.72500000000002 -45 l 10 -10 l -30 0 l -10 10 l 30 0 z"></path></g></g></g>
</svg>
