<svg xmlns="http://www.w3.org/2000/svg" viewBox="0 0 182.4 110" width="182.4" height="110" fill="currentColor" stroke="none">
<g transform="translate(91.2 55)"><g><g><path d="M -68.79999999999998 -35 l -10 10 l 0 60 l 10 -10 l 0 -60 z"></path><g><path d="M -91.19999999999999 45 l 22.4 0 l 10 -10.1 l -19.9 0 l -0.1 0.1 l 0 -0.1 l 0.05 0 l 9.95 -9.9 l 0 -5 q -5 5.774 -10 5 l 0 7.55 l -12.4 12.4 z"></path></g></g><g><path d="M -33.79999999999999 -35 l -10 10 l 0 35 l 19.95 0 l -24.95 25 l 40 0 l 10 -10 l -37.6 0 l 24.85 -25 l -22.25 0 l 0 -35 z"></path><path d="M -13.799999999999983 -45 l 10 -10 l -30 0 l -10 10 l 30 0 z"></path></g><g><path d="M 21.200000000000017 -35 l -10 10 l 0 60 l 10 -10 l 0 -60 z"></path></g><g><path d="M 46.25 -25 l 34.95 0 l 10 -10 l -50 0 l -10 10 l 25 25 l 0 35 l 10 -10 l 0 -30.05 l -19.95 -19.95 z"></path><g><path d="M 66.20000000000002 42.6 l 0 -17.6 q -7.3 -5 -10 10 l 0 20 l 17.5 -17.5 l -1.2 -1.2 l -6.3 6.3 z"></path></g><path d="M 71.20000000000002 -45 l 10 -10 l -30 0 l -10 10 l 30 0 z"></path></g></g></g>
</svg>
