<svg xmlns="http://www.w3.org/2000/svg" viewBox="0 0 57.6 172.294907" width="57.6" height="172.294907" fill="currentColor" stroke="none">
<g transform="translate(28.8 86.147453)"><g><g><path d="M 18.8 13.700000000000003 l 10 -10 l 0 -36.3 l -10 10.05 l 0 -33.75 l -10 10 l 0 36.15 l 10 -10 l 0 23.85 l -30 0 l -10 10 l 40 0 z"></path><g><path d="M -13.55 13.700000000000003 q -0.465 -4.718 7.9 -10 l -5.55 0 l -17.6 17.6 l 0 15 l 10 -10 l 0 -12.6 l 5.25 0 z"></path></g><path d="M -7.5 -73.8 l 7.5 7.5 l 7.5 -7.5 l -7.5 -7.5 l -7.5 7.5 z"></path><path d="M -10 56.3 l 0 25 l 20 -20 l -1.2 -1.2 l -8.8 8.8 l 0 -22.6 l -10 10 z"></path></g></g></g>
</svg>
