<svg xmlns="http://www.w3.org/2000/svg" viewBox="0 0 482.45 162.6" width="482.45" height="162.6" fill="currentColor" stroke="none">
<g transform="translate(241.225 81.3)"><g><g><path d="M -224.925 -56.3 l -7.5 7.5 57.5 62.5 7.5 -7.5 -57.5 -62.5 z"></path><path d="M -231.22500000000002 -47.599999999999994 q 4.2 0.65 6.3 -2.7 q 0.8 -1 0 -6 l -6.3 6.3 l 0 -19.95 l -10 10.1 l 0 22.35 l 10 -10.1 z"></path><path d="M -177.52500000000003 3.700000000000003 q -1.655 2.716 2.6 10 l 15 0 l 10 -10 l -20 0 q -7.015 -2.931 -7.6 0 z"></path></g><g><path d="M -99.92500000000001 -16.674999999999997 l 10 -10 l -29.85 -29.85 l -7.5 7.5 l 22.35 22.35 l -20 0 l -15 15 l 25.6 25.6 l 7.5 -7.5 l -23.1 -23.1 l 30 0 z"></path><path d="M -122.52500000000002 33.925000000000004 l 8.8 -8.8 l -1.2 -1.2 l -20 20 l 30 0 l 10 -10 l -27.6 0 z"></path></g><g><path d="M -32.32499999999999 13.700000000000003 l 10 -10 l 0 -36.3 l -10 10.05 l 0 -33.75 l -10 10 l 0 36.15 l 10 -10 l 0 23.85 l -30 0 l -10 10 l 40 0 z"></path><g><path d="M -64.67500000000001 13.700000000000003 q -0.465 -4.718 7.9 -10 l -5.55 0 l -17.6 17.6 l 0 15 l 10 -10 l 0 -12.6 l 5.25 0 z"></path></g><path d="M -58.625 -73.8 l 7.5 7.5 l 7.5 -7.5 l -7.5 -7.5 l -7.5 7.5 z"></path><path d="M -61.125 56.3 l 0 25 l 20 -20 l -1.2 -1.2 l -8.8 8.8 l 0 -22.6 l -10 10 z"></path></g><g><path d="M -2.3249999999999886 -56.3 l -10 10 l 0 60 l 10 -10 l 0 -60 z"></path><g><path d="M -12.324999999999989 -1.2999999999999972 l 0 15 l 15 0 l 10 -10 l -15 0 l 0 -10 q -3.874 7.753 -10 5 z"></path></g></g><g><path d="M 32.67500000000001 -56.3 l -10 10 l 0 60 l 10 -10 l 0 -50 l 30 0 l 10 -10 l -40 0 z"></path><g><path d="M 32.67500000000001 21.300000000000004 l 0 -17.6 q -7.3 -5 -10 10 l 0 20 l 17.5 -17.5 l -1.2 -1.2 l -6.3 6.3 z"></path></g><path d="M 57.67500000000001 -66.3 l 10 -10 l -30 0 l -10 10 l 30 0 z"></path></g><g><path d="M 92.67500000000001 -56.3 l -10 10 l 0 60 l 10 -10 l 0 -60 z"></path><g><path d="M 92.72500000000002 -54 l 15 0 l 10 -10 l -17.4 0 l -17.65 17.7 l 0 7.3 q 5.4 -4.35 10 -2.75 l 0 -12.25 z"></path></g></g><g><path d="M 145.22500000000002 -56.3 l -10 10 l 0 35 l 19.95 0 l -24.95 25 l 40 0 l 10 -10 l -37.6 0 l 24.85 -25 l -22.25 0 l 0 -35 z"></path><g><path d="M 135.22500000000002 -35.099999999999994 q 5 -12.14 10 -11.2 l 0 -10 l -17.5 17.5 l 1.2 1.2 l 6.3 -6.3 l 0 8.8 z"></path></g><g><path d="M 165.675 13.700000000000003 l 4.55 0 l 8.8 -8.8 l 10 10 l 7.15 -7.15 l -11.3 -11.2 l -7.05 7.15 l -6.3 0 q 3.7 5 -5.85 10 z"></path></g><path d="M 171.95 -66.3 l 10 -10 l -30 0 l -10 10 l 30 0 z"></path></g><g><path d="M 226.175 -32.449999999999996 l -10 10 l 0 -33.85 l -10 10 l 0 36.2 l 10 -9.95 l 0 33.75 l 10 -10 l 0 -36.15 z"></path><g><path d="M 216.22500000000002 -54 l 15 0 l 10 -10 l -17.4 0 l -17.65 17.7 l 0 7.3 q 5.4 -4.35 10 -2.75 l 0 -12.25 z"></path></g><g><path d="M 226.175 21.300000000000004 l 0 -17.6 q -7.3 -5 -10 10 l 0 20 l 17.5 -17.5 l -1.2 -1.2 l -6.3 6.3 z"></path></g></g></g></g>
</svg>
