<svg xmlns="http://www.w3.org/2000/svg" viewBox="0 0 67.4 172.294907" width="67.4" height="172.294907" fill="currentColor" stroke="none">
<g transform="translate(33.7 86.147453)"><g><g><path d="M 21.29999999999999 -37.47499999999999 l -10 10 l 0 20 l -35 0 l -10 10 l 29.95 29.95 l 7.5 -7.5 l -22.45 -22.45 l 30 0 l 10 -10 l 0 -30 z"></path><g><path d="M 33.699999999999996 -47.474999999999994 l -22.4 0 l -10 10.1 l 19.9 0 l 0.1 -0.1 l 0 0.1 l -0.05 0 l -9.95 9.9 l 0 5 q 5 -5.774 10 -5 l 0 -7.55 l 12.4 -12.4 z"></path></g><g><path d="M 16.249999999999993 22.474999999999994 l -15 0 q -7 -2.95 -7.6 0 q -1.65 2.7 2.6 10 l 10 0 l 0 15 l 10 -10 l 0 -15 z"></path></g></g></g></g>
</svg>
