<svg xmlns="http://www.w3.org/2000/svg" viewBox="0 0 57.5 172.294907" width="57.5" height="172.294907" fill="currentColor" stroke="none">
<g transform="translate(28.75 86.147453)"><g><g><path d="M -21.25 -20.574999999999996 l -7.5 7.5 l 31.25 31.25 l -31.25 31.25 l 40 0 l 10 -10 l -37.6 0 l 27.5 -27.6 l -32.4 -32.4 z"></path><g><path d="M -20.1 -19.424999999999997 l 15.05 0 l 10 -10 l -17.45 0 l -8.75 8.85 q -1.75 3.2 -4.85 7.2 q 5.7 0.35 6 -6.05 z"></path></g><g><path d="M 1.25 49.425000000000004 l 10 0 l 17.5 -17.5 l -1.2 -1.2 l -8.7 8.7 l -7.6 0 q 0.83 5.4 -10 10 z"></path></g><path d="M 10 -39.425 l 10 -10 l -30 0 l -10 10 l 30 0 z"></path></g></g></g>
</svg>
