<svg xmlns="http://www.w3.org/2000/svg" viewBox="0 0 81.84898 172.294907" width="81.84898" height="172.294907" fill="currentColor" stroke="none">
<g transform="translate(40.92449 86.147453)"><g><g><path d="M -17.22448979591838 -41.175 l -10 10 l 17.5 17.5 l -15 0 l -16.2 16.15 l 26.35 26.35 l 7.5 -7.5 l -25 -25 l 32.35 0 l 7.5 -7.5 l -20 -20 l 35 0 l 10 -10 l -50 0 z"></path><g><path d="M 30.47551020408163 -21.174999999999997 q 16 -9.8 7.5 -27.5 l -7.55 7.5 l -11.1 0 q 3.05 5.25 -1.5 10 l 5 0 l 8.8 -8.85 q 6.15 7.15 -1.15 18.85 z"></path></g><g><path d="M -8.274489795918385 39.975 l -7.5 7.5 l 1.2 1.2 l 16.3 -16.3 l 0 -22.35 l -10 10.1 q -4.2 -0.65 -6.3 2.7 q -0.8 1 0 6 l 6.3 -6.3 l 0 17.45 z"></path></g></g></g></g>
</svg>
