<svg xmlns="http://www.w3.org/2000/svg" viewBox="0 0 75.4 172.294907" width="75.4" height="172.294907" fill="currentColor" stroke="none">
<g transform="translate(37.7 86.147453)"><g><g><path d="M 21.699999999999996 -51.425000000000004 l -50 0 l -9.4 9.4 l 23.2 33.05 l 6.2 -6.25 l 0 33.8 l 10 -10 l 0 -36.15 l -1.1 1.1 q -2.967 2.977 -5.95 5.95 l -1.95 2 l -0.65 0.65 l -16.5 -23.5 l 36.2 0 l 10 -10 z"></path><g><path d="M 7.199999999999996 -41.425000000000004 l 4.55 0 l 8.8 -8.8 l 10 10 l 7.15 -7.15 l -11.3 -11.2 l -7.05 7.15 l -6.3 0 q 3.7 5 -5.85 10 z"></path></g><g><path d="M 1.6999999999999957 26.174999999999997 l 0 -17.6 q -7.3 -5 -10 10 l 0 20 l 17.5 -17.5 l -1.2 -1.2 l -6.3 6.3 z"></path></g><path d="M 9.999999999999993 58.574999999999996 l 10 -10 l -30 0 l -10 10 l 30 0 z"></path></g></g></g>
</svg>
