<svg xmlns="http://www.w3.org/2000/svg" viewBox="0 0 272.4 120" width="272.4" height="120" fill="currentColor" stroke="none">
<g transform="translate(136.2 60)"><g><g><path d="M -128.7 -40 l -7.5 7.5 57.5 62.5 7.5 -7.5 -57.5 -62.5 z"></path><path d="M -101.19999999999999 50 l 10 -10 l -30 0 l -10 10 l 30 0 z"></path></g><g><path d="M -6.199999999999989 -39.975 l -10 10 l 0 20 l -35 0 l -10 10 l 29.95 29.95 l 7.5 -7.5 l -22.45 -22.45 l 30 0 l 10 -10 l 0 -30 z"></path><g><path d="M 6.200000000000017 -49.97500000000001 l -22.4 0 l -10 10.1 l 19.9 0 l 0.1 -0.1 l 0 0.1 l -0.05 0 l -9.95 9.9 l 0 5 q 5 -5.774 10 -5 l 0 -7.55 l 12.4 -12.4 z"></path></g><g><path d="M -24.89999999999999 21.32499999999998 l 0 -0.05 q -8.1 -2.8 -6.35 8.7 l 6.35 -6.3 q 9.4 17.75 21.2 6.85 q -12.25 2.15 -14.85 -15.5 l -6.35 6.3 z"></path></g></g><g><path d="M 26.200000000000017 -40 l -10 10 l 0 60 l 10 -10 l 0 -50 l 30 0 l 10 -10 l -40 0 z"></path><path d="M 33.60000000000002 50 l 8.8 -8.8 l -1.2 -1.2 l -20 20 l 30 0 l 10 -10 l -27.6 0 z"></path></g><g><path d="M 119.94999999999999 -37.5 l -1.2 -1.2 l -6.3 6.3 l 0 -27.6 l -10 10 l 0 30 l 17.5 -17.5 z"></path><path d="M 86.20000000000002 -10 l -10 10 l 50 0 l 10 -10 l -50 0 z"></path></g></g></g>
</svg>
