<svg xmlns="http://www.w3.org/2000/svg" viewBox="0 0 147.3 106.275" width="147.3" height="106.275" fill="currentColor" stroke="none">
<g transform="translate(73.65 53.1375)"><g><g><path d="M -51.25000000000001 -26.862499999999997 l -10 10 l 0 60 l 10 -10 l 0 -60 z"></path><g><path d="M -73.65 53.1375 l 22.4 0 l 10 -10.1 l -19.9 0 l -0.1 0.1 l 0 -0.1 l 0.05 0 l 9.95 -9.9 l 0 -5 q -5 5.774 -10 5 l 0 7.55 l -12.4 12.4 z"></path></g></g><g><path d="M 23.75 -26.8375 l -10 10 l 0 20 l -35 0 l -10 10 l 29.95 29.95 l 7.5 -7.5 l -22.45 -22.45 l 30 0 l 10 -10 l 0 -30 z"></path><g><path d="M 31.25 -31.937500000000007 l -1.2 -1.2 l -16.3 16.3 l 0 7.75 q 5 -9.444 10 -6.55 l 0 -8.8 l 7.5 -7.5 z"></path></g><g><path d="M -3.9000000000000057 33.11249999999998 q -1.655 2.716 2.6 10 l 15 0 l 10 -10 l -20 0 q -7.015 -2.931 -7.6 0 z"></path></g><path d="M 10 -43.13750000000001 l 10 -10 l -30 0 l -10 10 l 30 0 z"></path></g><g><path d="M 63.650000000000006 -3.0124999999999975 l -10 10 l 0 -33.85 l -10 10 l 0 36.2 l 10 -9.95 l 0 33.75 l 10 -10 l 0 -36.15 z"></path><g><path d="M 41.25 53.1375 l 22.4 0 l 10 -10.1 l -19.9 0 l -0.1 0.1 l 0 -0.1 l 0.05 0 l 9.95 -9.9 l 0 -5 q -5 5.774 -10 5 l 0 7.55 l -12.4 12.4 z"></path></g></g></g></g>
</svg>
