<svg xmlns="http://www.w3.org/2000/svg" viewBox="0 0 42.55 172.294907" width="42.55" height="172.294907" fill="currentColor" stroke="none">
<g transform="translate(21.275 86.147453)"><g><g><path d="M -1.274999999999995 -2.9499999999999975 l -10 10 l 0 -33.85 l -10 10 l 0 36.2 l 10 -9.95 l 0 33.75 l 10 -10 l 0 -36.15 z"></path><g><path d="M -21.274999999999995 -16.799999999999997 l 0 7.3 q 4.546 -5.888 10 -3.05 l 0 -11.95 l 15.05 0 l 17.5 -17.5 l -1.2 -1.2 l -8.7 8.7 l -15 0 l -17.65 17.7 z"></path></g><g><path d="M -1.6249999999999964 31.1 q -0.375 0.363 -1.15 1.15 q -6.261 1.099 -8.5 -3.8 l 0 14.75 l 10 -10 l 10 10 l 7.15 -7.15 l -11.3 -11.2 l -5.85 5.9 q -0.04 0.029 -0.35 0.35 z"></path></g></g></g></g>
</svg>
