<svg xmlns="http://www.w3.org/2000/svg" viewBox="0 0 240.65 121.4" width="240.65" height="121.4" fill="currentColor" stroke="none">
<g transform="translate(120.325 60.7)"><g><g><path d="M -92.32499999999999 2.4249999999999954 l 7.45 -7.5 27.05 34.4 7.5 -7.5 -27.8 -36 -7.75 7.8 -26.95 -34.3 -7.5 7.5 28 35.6 z"></path><path d="M -107.82499999999999 11.824999999999996 l -10 10 l 0 25 l 10 -10 l 0 -25 z"></path><path d="M -100.32499999999999 46.824999999999996 l 7.5 7.5 l 7.5 -7.5 l -7.5 -7.5 l -7.5 7.5 z"></path></g><g><path d="M 14.675000000000011 -40.650000000000006 l -10 10 l 0 20 l -35 0 l -10 10 l 29.95 29.95 l 7.5 -7.5 l -22.45 -22.45 l 30 0 l 10 -10 l 0 -30 z"></path><g><path d="M -4.074999999999989 20.599999999999977 q -6.486 -1.216 -4.75 5 q 2.924 -3.894 5.95 -3.8 l 8.8 -8.8 l 0 -15 l -10 10 l 0 12.6 z"></path></g></g><g><path d="M 34.67500000000001 -40.675000000000004 l -10 10 l 0 60 l 10 -10 l 0 -60 z"></path></g><g><path d="M 54.57499999999999 -40.7 l -9.9 9.95 l 47.35 58.35 l 0.05 0 l 1.4 1.75 l 7.5 -7.5 l -42.7 -52.55 l 52.05 0 l 10 -10 l -65.75 0 z"></path><g><path d="M 75.975 59.50000000000001 l 1.2 1.2 l 16.3 -16.3 l 0 -15.05 l 7.5 -7.5 q -11.45 -4.9 -8.7 6.3 l -8.8 8.9 l 0 14.95 l -7.5 7.5 z"></path></g><path d="M 92.5 -50.7 l 10 -10 l -30 0 l -10 10 l 30 0 z"></path></g></g></g>
</svg>
