<svg xmlns="http://www.w3.org/2000/svg" viewBox="0 0 87.5 172.294907" width="87.5" height="172.294907" fill="currentColor" stroke="none">
<g transform="translate(43.75 86.147453)"><g><g><path d="M -15.75 3.775000000000004 l 7.45 -7.5 27.05 34.4 7.5 -7.5 -27.8 -36 -7.75 7.8 -26.95 -34.3 -7.5 7.5 28 35.6 z"></path><path d="M -35.1 -38.175 l 15.05 0 l 10 -10 l -17.45 0 l -8.75 8.85 q -1.75 3.2 -4.85 7.2 q 5.7 0.35 6 -6.05 z"></path><path d="M 16.15 20.675000000000004 q -1.655 2.716 2.6 10 l 15 0 l 10 -10 l -20 0 q -7.015 -2.931 -7.6 0 z"></path><path d="M -31.25 13.175000000000004 l -10 10 l 0 25 l 10 -10 l 0 -25 z"></path><path d="M 21.25 -29.324999999999996 l 10 -10 l -30 0 l -10 10 l 30 0 z"></path></g></g></g>
</svg>
