<svg xmlns="http://www.w3.org/2000/svg" viewBox="0 0 68.45 172.294907" width="68.45" height="172.294907" fill="currentColor" stroke="none">
<g transform="translate(34.225 86.147453)"><g><g><path d="M 16.72500000000001 13.100000000000001 l 10 -10 l 0 -35 l -19.95 0 l 24.95 -25 l -40 0 l -10 10 l 37.6 0 l -24.85 25 l 22.25 0 l 0 35 z"></path><g><path d="M -3.7249999999999908 -56.9 l -4.55 0 l -8.8 8.8 l -10 -10 l -7.15 7.15 l 11.3 11.2 l 7.05 -7.15 l 6.3 0 q -3.7 -5 5.85 -10 z"></path></g><g><path d="M 26.72500000000001 -8.099999999999998 q -5 12.14 -10 11.2 l 0 10 l 17.5 -17.5 l -1.2 -1.2 l -6.3 6.3 l 0 -8.8 z"></path></g><path d="M 10.000000000000007 48.1 l 0 -25 l -20 20 l 1.2 1.2 l 8.8 -8.8 l 0 22.6 l 10 -10 z"></path></g></g></g>
</svg>
