<svg xmlns="http://www.w3.org/2000/svg" viewBox="0 0 86.35 172.294907" width="86.35" height="172.294907" fill="currentColor" stroke="none">
<g transform="translate(43.175 86.147453)"><g><g><path d="M -3.825000000000003 16.85 l 7.45 -7.5 27.05 34.4 7.5 -7.5 -27.8 -36 -7.75 7.8 -26.95 -34.3 -7.5 7.5 28 35.6 z"></path><path d="M -24.325000000000003 -26.25 l -7.05 7.05 q 4.298 1.674 7.9 -0.9 q 1.089 -2.895 0.3 -4.95 l 7.5 -7.55 q -16.8 0.55 -27.5 -12.45 q 4.6 18.35 18.85 18.8 z"></path><path d="M 35.125 37.35 q -1.825 3.28 -4.45 6.4 l -7.5 7.5 l -1.2 -1.2 l 7.5 -7.5 q -1.688 -4.106 -0.35 -4.55 q 1.45 -0.6 6 -0.65 z"></path><path d="M 30.77499999999999 -16.25 l -8.8 8.8 l 1.2 1.2 l 20 -20 l -30 0 l -10 10 l 27.6 0 z"></path><path d="M -4.325000000000003 -43.75 l 7.5 7.5 l 7.5 -7.5 l -7.5 -7.5 l -7.5 7.5 z"></path></g></g></g>
</svg>
