<svg xmlns="http://www.w3.org/2000/svg" viewBox="0 0 663.14898 130" width="663.14898" height="130" fill="currentColor" stroke="none">
<g transform="translate(331.57449 65)"><g><g><path d="M -324.07448979591834 -50 l -7.5 7.5 57.5 62.5 7.5 -7.5 -57.5 -62.5 z"></path><path d="M -296.57448979591834 40 l 10 -10 l -30 0 l -10 10 l 30 0 z"></path></g><g><path d="M -241.52448979591833 -40 l 34.95 0 l 10 -10 l -50 0 l -10 10 l 25 25 l 0 35 l 10 -10 l 0 -30.05 l -19.95 -19.95 z"></path><g><path d="M -201.57448979591834 -40 l 12.5 12.5 l 7.5 -7.5 l -15 -15 q -8.65 2.75 -10 10 l 5 0 z"></path></g><g><path d="M -221.57448979591834 -1.1999999999999993 q -5 12.14 -10 11.2 l 0 10 l 17.5 -17.5 l -1.2 -1.2 l -6.3 6.3 l 0 -8.8 z"></path></g></g><g><path d="M -151.57448979591834 -26.15 l -10 10 l 0 -33.85 l -10 10 l 0 36.2 l 10 -9.95 l 0 33.75 l 10 -10 l 0 -36.15 z"></path><g><path d="M -161.57448979591834 5 l 0 15 l 15 0 l 10 -10 l -15 0 l 0 -10 q -3.874 7.753 -10 5 z"></path></g></g><g><path d="M -119.07448979591834 -50 l -7.5 7.5 l 31.25 31.25 l -31.25 31.25 l 40 0 l 10 -10 l -37.6 0 l 27.5 -27.6 l -32.4 -32.4 z"></path><path d="M -111.57448979591834 40 l 0 25 l 20 -20 l -1.2 -1.2 l -8.8 8.8 l 0 -22.6 l -10 10 z"></path></g><g><path d="M -54.94948979591834 -48.8 l 7.35 -7.35 l 20.6 26.15 l 10 0 l 10 -10 l -14.55 0 l -19.6 -25 l -15 15 l 1.2 1.2 z"></path><path d="M -56.57448979591834 -20 l -10 10 l 50 0 l 10 -10 l -50 0 z"></path></g><g><path d="M 10.925510204081661 -50 l -7.5 7.5 57.5 62.5 7.5 -7.5 -57.5 -62.5 z"></path><path d="M 65.37551020408165 13.600000000000001 q -1.825 3.28 -4.45 6.4 l -7.5 7.5 l -1.2 -1.2 l 7.5 -7.5 q -1.688 -4.106 -0.35 -4.55 q 1.45 -0.6 6 -0.65 z"></path><path d="M 20.92551020408166 37.5 l 7.5 7.5 l 7.5 -7.5 l -7.5 -7.5 l -7.5 7.5 z"></path></g><g><path d="M 128.42551020408166 -40 l 10 -10 l -50 0 l -10 10 l 0 35 l 10 -10 l 15 0 l 0 35 l 10 -10 l 0 -35 l -17.35 0 l -7.65 7.6 l 0 -22.6 l 40 0 z"></path></g><g><path d="M 155.92551020408166 -50 l -7.5 7.5 57.5 62.5 7.5 -7.5 -57.5 -62.5 z"></path><path d="M 165.92551020408166 37.5 l 7.5 7.5 l 7.5 -7.5 l -7.5 -7.5 l -7.5 7.5 z"></path></g><g><path d="M 233.42551020408166 -50 l -10 10 l 0 60 l 10 -10 l 0 -50 l 30 0 l 10 -10 l -40 0 z"></path><g><path d="M 271.1255102040817 -30 q 16 -9.8 7.5 -27.5 l -7.55 7.5 l -11.1 0 q 3.05 5.25 -1.5 10 l 5 0 l 8.8 -8.85 q 6.15 7.15 -1.15 18.85 z"></path></g><g><path d="M 233.42551020408166 -1.1999999999999993 q -5 12.14 -10 11.2 l 0 10 l 17.5 -17.5 l -1.2 -1.2 l -6.3 6.3 l 0 -8.8 z"></path></g></g><g><path d="M 311.57448979591834 -26.15 l -10 10 l 0 -33.85 l -10 10 l 0 36.2 l 10 -9.95 l 0 33.75 l 10 -10 l 0 -36.15 z"></path><g><path d="M 331.57448979591834 20 l -15 0 l 10 -10 l -15 0 l 0 -10 q -3.85 7.75 -10 5 l 0 15 l 12.55 0 l -9.95 10 l 17.4 0 l 10 -10 z"></path></g></g></g></g>
</svg>
