<svg xmlns="http://www.w3.org/2000/svg" viewBox="0 0 129 115" width="129" height="115" fill="currentColor" stroke="none">
<g transform="translate(64.5 57.5)"><g><g><path d="M -57 -57.5 l -7.5 7.5 57.5 62.5 7.5 -7.5 -57.5 -62.5 z"></path><path d="M -0.7000000000000028 3.8000000000000007 q -4.2 -0.65 -6.3 2.7 q -0.8 1 0 6 l 6.3 -6.3 l 0 19.95 l 10 -10.1 l 0 -22.35 l -10 10.1 z"></path><path d="M -4.399999999999999 -47.5 l -8.8 8.8 l 1.2 1.2 l 20 -20 l -30 0 l -10 10 l 27.6 0 z"></path><path d="M -34.5 22.5 l -10 10 l 0 25 l 10 -10 l 0 -25 z"></path></g><g><path d="M 29.30000000000001 -57.425 l -10 10 l 0 40 l 9.55 -9.55 l 20.65 29.4 l 7.5 -7.5 l -21.6 -30.85 l -6.1 6.1 l 0 -37.6 z"></path><g><path d="M 50.60000000000001 9.37499999999999 q 3.28 -1.825 6.4 -4.45 l 7.5 -7.5 l -1.2 -1.2 l -7.5 7.5 q -4.106 -1.688 -4.55 -0.35 q -0.6 1.45 -0.65 6 z"></path></g></g></g></g>
</svg>
