<svg xmlns="http://www.w3.org/2000/svg" viewBox="0 0 93.15 172.294907" width="93.15" height="172.294907" fill="currentColor" stroke="none">
<g transform="translate(46.575 86.147453)"><g><g><path d="M 19.07499999999999 -29.925 l 10 -10 l -65.75 0 l -9.9 9.95 l 30.45 37.55 l 7.25 -7.3 l 24.15 29.65 l 7.45 -7.4 l -25.2 -31.05 l -7.5 7.45 l -23.1 -28.85 l 52.15 0 z"></path><g><path d="M 6.674999999999997 -19.924999999999997 l 22.4 0 l 17.5 -17.5 l -1.2 -1.2 l -8.7 8.7 l -17.6 0 l 10 -10 l -12.65 0 q 5.5 3.45 -5.3 10 l 5.5 0 l -9.95 10 z"></path></g><g><path d="M 17.874999999999986 39.925 l 17.4 0 l 10 -10 l -15 0 l 10 -10 l -20 0 q -7 -2.95 -7.6 0 q -1.65 2.7 2.6 10 l 12.55 0 l -9.95 10 z"></path></g></g></g></g>
</svg>
