<svg xmlns="http://www.w3.org/2000/svg" viewBox="0 0 111.85 104.85" width="111.85" height="104.85" fill="currentColor" stroke="none">
<g transform="translate(55.925 52.425)"><g><g><path d="M -45.925 -32.5 l -10 10 l 0 60 l 10 -10 l 0 -60 z"></path></g><g><path d="M 29.724999999999994 -22.425 l 10 -10 l -65.75 0 l -9.9 9.95 l 30.45 37.55 l 7.25 -7.3 l 24.15 29.65 l 7.45 -7.4 l -25.2 -31.05 l -7.5 7.45 l -23.1 -28.85 l 52.15 0 z"></path><g><path d="M 33.425 29.924999999999997 q -6.8 0.5 -7.5 7.5 l 15 15 l 15 -15 l -1.2 -1.2 l -7.5 7.5 l -13.8 -13.8 z"></path></g><path d="M 20 -42.425 l 10 -10 l -30 0 l -10 10 l 30 0 z"></path></g></g></g>
</svg>
