<svg xmlns="http://www.w3.org/2000/svg" viewBox="0 0 657.7 140" width="657.7" height="140" fill="currentColor" stroke="none">
<g transform="translate(328.85 70)"><g><g><path d="M -317.04999999999995 -45 l -7.5 7.5 57.5 62.5 7.5 -7.5 -57.5 -62.5 z"></path><path d="M -328.84999999999997 -56.8 l 11.8 11.8 l -5 5 q 7.681 1.687 7.1 -0.5 l -0.95 -3.35 l 7.05 -7.05 l -13 -12.9 z"></path></g><g><path d="M -209.54999999999995 -5.375 l 10 -10 l -29.85 -29.85 l -7.5 7.5 l 22.35 22.35 l -20 0 l -15 15 l 25.6 25.6 l 7.5 -7.5 l -23.1 -23.1 l 30 0 z"></path><g><path d="M -221.34999999999997 35.225 l 17.4 0 l 10 -10 l -15 0 l 10 -10 l -20 0 q -7 -2.95 -7.6 0 q -1.65 2.7 2.6 10 l 12.55 0 l -9.95 10 z"></path></g></g><g><path d="M -176.45 -45 l -7.5 7.5 57.5 62.5 7.5 -7.5 -57.5 -62.5 z"></path></g><g><path d="M -88.94999999999999 -44.925 l -10 10 l 0 40 l 9.55 -9.55 l 20.65 29.4 l 7.5 -7.5 l -21.6 -30.85 l -6.1 6.1 l 0 -37.6 z"></path><g><path d="M -108.94999999999999 -42.575 q 9.8 -16 27.5 -7.5 l -7.5 7.55 l 0 11.1 q -5.25 -3.05 -10 1.5 l 0 -5 l 8.85 -8.8 q -7.15 -6.15 -18.85 1.15 z"></path></g><g><path d="M -62.44999999999999 36.07499999999999 l -7.5 7.5 l 1.2 1.2 l 16.3 -16.3 l 0 -22.35 l -10 10.1 q -4.2 -0.65 -6.3 2.7 q -0.8 1 0 6 l 6.3 -6.3 l 0 17.45 z"></path></g><path d="M -70.69999999999999 64.77499999999999 l 10 -10 l -30 0 l -10 10 l 30 0 z"></path></g><g><path d="M -32.44999999999999 -45 l -10 10 l 0 60 l 10 -10 l 0 -50 l 30 0 l 10 -10 l -40 0 z"></path><path d="M -27.44999999999999 45 l 0 25 l 20 -20 l -1.2 -1.2 l -8.8 8.8 l 0 -22.6 l -10 10 z"></path></g><g><path d="M 61.30000000000001 -42.5 l -1.2 -1.2 l -6.3 6.3 l 0 -27.6 l -10 10 l 0 30 l 17.5 -17.5 z"></path><path d="M 27.55000000000001 -15 l -10 10 l 50 0 l 10 -10 l -50 0 z"></path></g><g><path d="M 103.85000000000002 -45 l -7.5 7.5 57.5 62.5 7.5 -7.5 -57.5 -62.5 z"></path><path d="M 97.55000000000001 -36.3 q 4.2 0.65 6.3 -2.7 q 0.8 -1 0 -6 l -6.3 6.3 l 0 -19.95 l -10 10.1 l 0 22.35 l 10 -10.1 z"></path><path d="M 158.3 18.6 q -1.825 3.28 -4.45 6.4 l -7.5 7.5 l -1.2 -1.2 l 7.5 -7.5 q -1.688 -4.106 -0.35 -4.55 q 1.45 -0.6 6 -0.65 z"></path><path d="M 156.45000000000005 -35 l -8.8 8.8 l 1.2 1.2 l 20 -20 l -30 0 l -10 10 l 27.6 0 z"></path><path d="M 121.35000000000002 -62.5 l 7.5 7.5 l 7.5 -7.5 l -7.5 -7.5 l -7.5 7.5 z"></path></g><g><path d="M 233.84999999999997 -44.975 l -10 10 l 0 20 l -35 0 l -10 10 l 29.95 29.95 l 7.5 -7.5 l -22.45 -22.45 l 30 0 l 10 -10 l 0 -30 z"></path><g><path d="M 191.3 55.12499999999997 l 1.2 1.2 l 16.3 -16.3 l 0 -15.05 l 7.5 -7.5 q -11.45 -4.9 -8.7 6.3 l -8.8 8.9 l 0 14.95 l -7.5 7.5 z"></path></g></g><g><path d="M 253.84999999999997 -45 l -10 10 l 0 60 l 10 -10 l 0 -60 z"></path><g><path d="M 243.84999999999997 10 l 0 15 l 15 0 l 10 -10 l -15 0 l 0 -10 q -3.874 7.753 -10 5 z"></path></g></g><g><path d="M 293.84999999999997 -45 l -10 10 l 0 35 l 19.95 0 l -24.95 25 l 40 0 l 10 -10 l -37.6 0 l 24.85 -25 l -22.25 0 l 0 -35 z"></path><path d="M 313.84999999999997 -55 l 10 -10 l -30 0 l -10 10 l 30 0 z"></path></g></g></g>
</svg>
