<svg xmlns="http://www.w3.org/2000/svg" viewBox="0 0 95 172.294907" width="95" height="172.294907" fill="currentColor" stroke="none">
<g transform="translate(47.5 86.147453)"><g><g><path d="M -12.500000000000007 -35 l -10 10 l 0 35 l 26.3 0 l 8.7 -8.75 l 0 33.75 l 10 -10 l 0 -36.15 l -11.15 11.15 l -23.85 0 l 0 -35 z"></path><g><path d="M -22.450000000000006 -22.6 l -0.05 5.05 q 4.6 -6.3 10 -4 l 0 -13.45 l -9.95 10 l -12.65 0 l 7.5 -7.5 l -1.2 -1.2 l -18.7 18.7 l 17.45 0 l 7.6 -7.6 z"></path></g><g><path d="M 22.449999999999996 22.6 l 0.05 -5.05 q -4.6 6.3 -10 4 l 0 13.45 l 9.95 -10 l 12.65 0 l -7.5 7.5 l 1.2 1.2 l 18.7 -18.7 l -17.45 0 l -7.6 7.6 z"></path></g></g></g></g>
</svg>
