<svg xmlns="http://www.w3.org/2000/svg" viewBox="0 0 83.15 172.294907" width="83.15" height="172.294907" fill="currentColor" stroke="none">
<g transform="translate(41.575 86.147453)"><g><g><path d="M -31.675 -31.925000000000004 l -9.9 9.95 l 47.35 58.35 l 0.05 0 l 1.4 1.75 l 7.5 -7.5 l -42.7 -52.55 l 52.05 0 l 10 -10 l -65.75 0 z"></path><g><path d="M 14.075000000000003 -21.925000000000004 l 10 0 l 17.5 -17.5 l -1.2 -1.2 l -8.7 8.7 l -7.6 0 q 0.83 5.4 -10 10 z"></path></g><g><path d="M 9.725000000000001 35.62500000000001 l 5 -5 l 10 10 l 7.15 -7.15 l -11.3 -11.2 l -7 7.1 l -1 1 q -3.183 -1.742 -3.85 0 q -0.916 1.293 0 6.25 z"></path></g></g></g></g>
</svg>
