<svg xmlns="http://www.w3.org/2000/svg" viewBox="0 0 60 172.294907" width="60" height="172.294907" fill="currentColor" stroke="none">
<g transform="translate(30 86.147453)"><g><g><path d="M -14.950000000000003 -21.547221110975002 l 34.95 0 l 10 -10 l -50 0 l -10 10 l 25 25 l 0 35 l 10 -10 l 0 -30.05 l -19.95 -19.95 z"></path><g><path d="M 10 -31.547221110975002 q 6.368 3.408 0 10 l 10 0 l 10 -10 l 0 -15 l -10 10 l 0 5 l -10 0 z"></path></g><g><path d="M 15 36.102778889025 q -9.8 16 -27.5 7.5 l 7.5 -7.55 l 0 -11.1 q 5.25 3.05 10 -1.5 l 0 5 l -8.85 8.8 q 7.15 6.15 18.85 -1.15 z"></path></g></g></g></g>
</svg>
