<svg xmlns="http://www.w3.org/2000/svg" viewBox="0 0 466.15 109.975" width="466.15" height="109.975" fill="currentColor" stroke="none">
<g transform="translate(233.075 54.9875)"><g><g><path d="M -225.575 -34.98749999999999 l -7.5 7.5 57.5 62.5 7.5 -7.5 -57.5 -62.5 z"></path></g><g><path d="M -143.02499999999998 -24.98749999999999 l 34.95 0 l 10 -10 l -50 0 l -10 10 l 25 25 l 0 35 l 10 -10 l 0 -30.05 l -19.95 -19.95 z"></path><g><path d="M -118.07499999999999 -34.98749999999999 q 6.368 3.408 0 10 l 10 0 l 10 -10 l 0 -15 l -10 10 l 0 5 l -10 0 z"></path></g><g><path d="M -113.07499999999999 32.66250000000001 q -9.8 16 -27.5 7.5 l 7.5 -7.55 l 0 -11.1 q 5.25 3.05 10 -1.5 l 0 5 l -8.85 8.8 q 7.15 6.15 18.85 -1.15 z"></path></g></g><g><path d="M -33.07499999999999 -34.96249999999999 l -10 10 l 0 20 l -35 0 l -10 10 l 29.95 29.95 l 7.5 -7.5 l -22.45 -22.45 l 30 0 l 10 -10 l 0 -30 z"></path><path d="M -50.57499999999999 54.98749999999999 l 10 -10 l -30 0 l -10 10 l 30 0 z"></path></g><g><path d="M 20.67500000000001 -44.98749999999999 l -7.5 7.5 l 12.5 12.5 l -25 0 l -17.5 17.5 l 1.2 1.2 l 8.7 -8.7 l 37.6 0 l 10 -10 l -20 -20 z"></path><path d="M -13.074999999999989 -4.98749999999999 l -10 10 l 50 0 l 10 -10 l -50 0 z"></path></g><g><path d="M 60.67500000000001 -34.98749999999999 l -10 10 l 0 60 l 10 -10 l 0 -60 z"></path><g><path d="M 50.67500000000001 20.01250000000001 l 0 15 l 10 -10 l 0 20 l 10 -9.9 l 0 -22.4 l -10 9.95 l 0 -5.15 q -5 6.1 -10 2.5 z"></path></g></g><g><path d="M 90.67500000000001 -34.98749999999999 l -10 10 l 0 60 l 10 -10 l 0 -50 l 30 0 l 10 -10 l -40 0 z"></path><g><path d="M 80.67500000000001 19.36250000000001 l 0 15.65 l 10 -10 q 9.4 17.75 21.2 6.85 q -12.25 2.15 -14.85 -15.5 l -6.35 6.3 l 0 -8.1 q -4.8 9.5 -10 4.8 z"></path></g><path d="M 115.67500000000001 -44.98749999999999 l 10 -10 l -30 0 l -10 10 l 30 0 z"></path></g><g><path d="M 163.075 -34.98749999999999 l -10 10 l 0 60 l 10 -10 l 0 -60 z"></path><g><path d="M 140.675 45.01250000000001 l 22.4 0 l 10 -10.1 l -19.9 0 l -0.1 0.1 l 0 -0.1 l 0.05 0 l 9.95 -9.9 l 0 -5 q -5 5.774 -10 5 l 0 7.55 l -12.4 12.4 z"></path></g></g><g><path d="M 190.575 -34.98749999999999 l -7.5 7.5 l 31.25 31.25 l -31.25 31.25 l 40 0 l 10 -10 l -37.6 0 l 27.5 -27.6 l -32.4 -32.4 z"></path><path d="M 218.075 -44.98749999999999 l 10 -10 l -30 0 l -10 10 l 30 0 z"></path></g></g></g>
</svg>
