<svg xmlns="http://www.w3.org/2000/svg" viewBox="0 0 98.8 172.294907" width="98.8" height="172.294907" fill="currentColor" stroke="none">
<g transform="translate(49.4 86.147453)"><g><g><path d="M -25.599999999999994 -22.5 l -7.5 7.5 57.5 62.5 7.5 -7.5 -57.5 -62.5 z"></path><path d="M -25.599999999999994 -16.5 q 0.8 -1 0 -6 l -6.3 6.3 l 0 -19.95 l -17.5 17.5 l 1.2 1.2 l 6.3 -6.3 l 0 20.05 l 10 -10.1 q 4.2 0.65 6.3 -2.7 z"></path><path d="M 21.799999999999997 37.5 q -1.655 2.716 2.6 10 l 15 0 l 10 -10 l -20 0 q -7.015 -2.931 -7.6 0 z"></path><path d="M -33.099999999999994 27.5 l 20 20 l 7.5 -7.5 l -20 -20 l -7.5 7.5 z"></path><path d="M -8.099999999999994 -40 l 7.5 7.5 l 7.5 -7.5 l -7.5 -7.5 l -7.5 7.5 z"></path></g></g></g>
</svg>
