<svg xmlns="http://www.w3.org/2000/svg" viewBox="0 0 588.9 135" width="588.9" height="135" fill="currentColor" stroke="none">
<g transform="translate(294.45 67.5)"><g><g><path d="M -266.45 -4.4 l 7.45 -7.5 27.05 34.4 7.5 -7.5 -27.8 -36 -7.75 7.8 -26.95 -34.3 -7.5 7.5 28 35.6 z"></path></g><g><path d="M -204.54999999999998 -47.525 l -9.9 9.95 l 47.35 58.35 l 0.05 0 l 1.4 1.75 l 7.5 -7.5 l -42.7 -52.55 l 52.05 0 l 10 -10 l -65.75 0 z"></path><g><path d="M -164.54999999999998 19.475000000000012 q 3.28 -1.825 6.4 -4.45 l 7.5 -7.5 l -1.2 -1.2 l -7.5 7.5 q -4.106 -1.688 -4.55 -0.35 q -0.6 1.45 -0.65 6 z"></path></g><path d="M -184.225 42.52500000000001 l 8.8 -8.8 l -1.2 -1.2 l -20 20 l 30 0 l 10 -10 l -27.6 0 z"></path></g><g><path d="M -118.79999999999998 -47.5 l -10 10 l 0 60 l 10 -10 l 0 -50 l 30 0 l 10 -10 l -40 0 z"></path><path d="M -93.79999999999998 57.5 l 0 -25 l -20 20 l 1.2 1.2 l 8.8 -8.8 l 0 22.6 l 10 -10 z"></path></g><g><path d="M -32 -4.4 l 7.45 -7.5 27.05 34.4 7.5 -7.5 -27.8 -36 -7.75 7.8 -26.95 -34.3 -7.5 7.5 28 35.6 z"></path><path d="M -58.80000000000001 -38.8 q 4.2 0.65 6.3 -2.7 q 0.8 -1 0 -6 l -6.3 6.3 l 0 -19.95 l -10 10.1 l 0 22.35 l 10 -10.1 z"></path><path d="M -57.5 2.5 l 20 20 l 7.5 -7.5 l -20 -20 l -7.5 7.5 z"></path><path d="M 2.6000000000000227 -37.5 l -8.8 8.8 l 1.2 1.2 l 20 -20 l -30 0 l -10 10 l 27.6 0 z"></path><path d="M -15 -57.5 l 10 -10 l -30 0 l -10 10 l 30 0 z"></path></g><g><path d="M 34.89999999999998 -47.525 l -9.9 9.95 l 47.35 58.35 l 0.05 0 l 1.4 1.75 l 7.5 -7.5 l -42.7 -52.55 l 52.05 0 l 10 -10 l -65.75 0 z"></path><g><path d="M 88.80000000000001 37.52500000000001 l 7.5 -7.5 l -15 -15 q -6.8 0.5 -7.5 7.5 l 15 15 z"></path></g></g><g><path d="M 176.40000000000003 22.525 l 9.9 -9.95 l -47.35 -58.35 l -0.05 0 l -1.4 -1.75 l -7.5 7.5 l 42.7 52.55 l -52.05 0 l -10 10 l 65.75 0 z"></path><g><path d="M 110.65000000000003 22.525000000000006 l 15 0 q -2.75 -6.15 5 -10 l -10 0 l 0 -12.6 l 7.5 -7.5 l -1.2 -1.2 l -16.3 16.3 l 0 15 z"></path></g><path d="M 140.97500000000002 40.025000000000006 l 7.5 7.5 l 7.5 -7.5 l -7.5 -7.5 l -7.5 7.5 z"></path></g><g><path d="M 228.8 12.425 l -10 10 l 65.75 0 l 9.9 -9.95 l -30.45 -37.55 l -7.25 7.3 l -24.15 -29.65 l -7.45 7.4 l 25.2 31.05 l 7.5 -7.45 l 23.1 28.85 l -52.15 0 z"></path><g><path d="M 196.30000000000007 14.924999999999997 l 1.2 1.2 l 7.5 -7.5 l 13.8 13.8 q 8.65 -2.75 10 -10 l -5 0 l -12.5 -12.5 l -15 15 z"></path></g><path d="M 255.37500000000006 42.425 l 10 -10 l -30 0 l -10 10 l 30 0 z"></path></g></g></g>
</svg>
