<svg xmlns="http://www.w3.org/2000/svg" viewBox="0 0 62.5 172.294907" width="62.5" height="172.294907" fill="currentColor" stroke="none">
<g transform="translate(31.25 86.147453)"><g><g><path d="M -3.75 -45.7 l -10 10 l 0 35 l 19.95 0 l -24.95 25 l 40 0 l 10 -10 l -37.6 0 l 24.85 -25 l -22.25 0 l 0 -35 z"></path><g><path d="M -3.75 -45.7 l 0 0.1 l -0.05 0 l -9.95 9.9 l 0 5 q 5 -5.75 10 -5 l 0 -7.55 l 12.4 -12.45 l -22.4 0 l -17.5 17.5 l 1.2 1.2 l 8.6 -8.6 l 17.6 0 l 0.1 -0.1 z"></path></g><g><path d="M 3.75 54.5 l 1.2 1.2 l 16.3 -16.3 l 0 -15.1 l 10 -10 l -18.3 0 q 4.75 2.3 -1.7 10 l 7.6 0 l 0.25 -0.2 l -7.85 7.85 l 0 15.05 l -7.5 7.5 z"></path></g></g></g></g>
</svg>
