<svg xmlns="http://www.w3.org/2000/svg" viewBox="0 0 80 95.85" width="80" height="95.85" fill="currentColor" stroke="none">
<g transform="translate(40 47.925)"><g><g><path d="M -30 -27.924999999999997 l -10 10 l 0 60 l 10 -10 l 0 -60 z"></path></g><g><path d="M -4.950000000000003 -17.924999999999997 l 34.95 0 l 10 -10 l -50 0 l -10 10 l 25 25 l 0 35 l 10 -10 l 0 -30.05 l -19.95 -19.95 z"></path><g><path d="M 15 32.075 l 0 -5 q -6.25 9 -10 5 l 0 7.6 l -11.8 -11.7 l -7 7 l 12.95 12.95 l 15.85 -15.85 z"></path></g><path d="M 20 -37.925 l 10 -10 l -30 0 l -10 10 l 30 0 z"></path></g></g></g>
</svg>
