<svg xmlns="http://www.w3.org/2000/svg" viewBox="0 0 421.15 110" width="421.15" height="110" fill="currentColor" stroke="none">
<g transform="translate(210.575 55)"><g><g><path d="M -188.17499999999998 -35 l -10 10 l 0 60 l 10 -10 l 0 -60 z"></path><g><path d="M -210.575 45 l 22.4 0 l 10 -10.1 l -19.9 0 l -0.1 0.1 l 0 -0.1 l 0.05 0 l 9.95 -9.9 l 0 -5 q -5 5.774 -10 5 l 0 7.55 l -12.4 12.4 z"></path></g></g><g><path d="M -113.17499999999998 -34.975 l -10 10 l 0 20 l -35 0 l -10 10 l 29.95 29.95 l 7.5 -7.5 l -22.45 -22.45 l 30 0 l 10 -10 l 0 -30 z"></path><g><path d="M -139.125 33.37499999999998 l -11.2 11.3 l 22.4 0 l 10 -10.1 l -19.9 0 l 7.1 -7.1 q -10.446 -1.157 -8.4 5.9 z"></path></g><path d="M -130.67499999999998 -44.97500000000001 l 10 -10 l -30 0 l -10 10 l 30 0 z"></path></g><g><path d="M -93.17499999999998 -35 l -10 10 l 0 60 l 10 -10 l 0 -60 z"></path><g><path d="M -103.17499999999998 20 l 0 15 l 15 0 l 10 -10 l -15 0 l 0 -10 q -3.874 7.753 -10 5 z"></path></g></g><g><path d="M -60.67499999999998 -35 l -7.5 7.5 l 31.25 31.25 l -31.25 31.25 l 40 0 l 10 -10 l -37.6 0 l 27.5 -27.6 l -32.4 -32.4 z"></path><path d="M -33.17499999999998 -45 l 10 -10 l -30 0 l -10 10 l 30 0 z"></path></g><g><path d="M 1.825000000000017 -35 l -10 10 l 0 60 l 10 -10 l 0 -60 z"></path><g><path d="M -8.174999999999983 20 l 0 15 l 10 -10 l 0 20 l 10 -9.9 l 0 -22.4 l -10 9.95 l 0 -5.15 q -5 6.1 -10 2.5 z"></path></g></g><g><path d="M 31.825000000000017 -35 l -10 10 l 0 60 l 10 -10 l 0 -50 l 30 0 l 10 -10 l -40 0 z"></path><g><path d="M 31.825000000000017 42.6 l 0 -17.6 q -7.3 -5 -10 10 l 0 20 l 17.5 -17.5 l -1.2 -1.2 l -6.3 6.3 z"></path></g><path d="M 56.82499999999999 -45 l 10 -10 l -30 0 l -10 10 l 30 0 z"></path></g><g><path d="M 118.07499999999999 5 l 7.5 -7.5 -32.5 -32.5 -7.5 7.5 32.5 32.5 m -17.5 -10 l -7.5 7.5 32.5 32.5 7.5 -7.5 -32.5 -32.5 z"></path><path d="M 111.82499999999999 55 l 10 -10 l -30 0 l -10 10 l 30 0 z"></path></g><g><path d="M 203.075 -35.05 l -50 0 l -10 10 l 0 27 l 33.1 33.1 l 7.5 -7.5 l -30.6 -30.6 l 0 -22 l 40 0 l 10 -10 z"></path><g><path d="M 183.075 -25.049999999999997 l 10 0 l 17.5 -17.5 l -1.2 -1.2 l -8.7 8.7 l -7.6 0 q 0.83 5.4 -10 10 z"></path></g><g><path d="M 178.77499999999998 45.05 l 17.4 0 l 10 -10 l -15 0 l 10 -10 l -20 0 q -7 -2.95 -7.6 0 q -1.65 2.7 2.6 10 l 12.55 0 l -9.95 10 z"></path></g></g></g></g>
</svg>
