<svg xmlns="http://www.w3.org/2000/svg" viewBox="0 0 60 172.294907" width="60" height="172.294907" fill="currentColor" stroke="none">
<g transform="translate(30 86.147453)"><g><g><path d="M -14.950000000000003 -17.5 l 34.95 0 l 10 -10 l -50 0 l -10 10 l 25 25 l 0 35 l 10 -10 l 0 -30.05 l -19.95 -19.95 z"></path><g><path d="M 10 -27.5 q 6.368 3.408 0 10 l 10 0 l 10 -10 l 0 -15 l -10 10 l 0 5 l -10 0 z"></path></g><g><path d="M -5.0000000000000036 62.5 l 10 -10 l 0 -20 q -7.3 -5 -10 10 l 0 20 z"></path></g><path d="M 10 -52.5 l 10 -10 l -30 0 l -10 10 l 30 0 z"></path></g></g></g>
</svg>
