<svg xmlns="http://www.w3.org/2000/svg" viewBox="0 0 190.05 125" width="190.05" height="125" fill="currentColor" stroke="none">
<g transform="translate(95.025 62.5)"><g><g><path d="M -85.025 -27.5 l -10 10 l 0 60 l 10 -10 l 0 -60 z"></path><g><path d="M -84.97500000000001 -25.200000000000003 l 15 0 l 10 -10 l -17.4 0 l -17.65 17.7 l 0 7.3 q 5.4 -4.35 10 -2.75 l 0 -12.25 z"></path></g><g><path d="M -95.025 27.5 l 0 15 l 10 -10 l 0 20 l 10 -9.9 l 0 -22.4 l -10 9.95 l 0 -5.15 q -5 6.1 -10 2.5 z"></path></g></g><g><path d="M -34.92500000000001 -17.5 l 34.95 0 l 10 -10 l -50 0 l -10 10 l 25 25 l 0 35 l 10 -10 l 0 -30.05 l -19.95 -19.95 z"></path><g><path d="M -9.975000000000009 -27.5 q 6.368 3.408 0 10 l 10 0 l 10 -10 l 0 -15 l -10 10 l 0 5 l -10 0 z"></path></g><g><path d="M -24.97500000000001 62.5 l 10 -10 l 0 -20 q -7.3 -5 -10 10 l 0 20 z"></path></g><path d="M -9.975000000000009 -52.5 l 10 -10 l -30 0 l -10 10 l 30 0 z"></path></g><g><path d="M 30.02499999999999 -27.5 l -10 10 l 0 60 l 10 -10 l 0 -60 z"></path></g><g><path d="M 95.025 -27.475 l -10 10 l 0 20 l -35 0 l -10 10 l 29.95 29.95 l 7.5 -7.5 l -22.45 -22.45 l 30 0 l 10 -10 l 0 -30 z"></path><g><path d="M 76.275 33.77499999999998 q -6.486 -1.216 -4.75 5 q 2.924 -3.894 5.95 -3.8 l 8.8 -8.8 l 0 -15 l -10 10 l 0 12.6 z"></path></g><path d="M 77.525 -37.47500000000001 l 10 -10 l -30 0 l -10 10 l 30 0 z"></path></g></g></g>
</svg>
