<svg xmlns="http://www.w3.org/2000/svg" viewBox="0 0 652.55 140.05" width="652.55" height="140.05" fill="currentColor" stroke="none">
<g transform="translate(326.275 70.025)"><g><g><path d="M -314.475 -45.00000000000001 l -7.5 7.5 57.5 62.5 7.5 -7.5 -57.5 -62.5 z"></path><path d="M -326.27500000000003 -56.800000000000004 l 11.8 11.8 l -5 5 q 7.681 1.687 7.1 -0.5 l -0.95 -3.35 l 7.05 -7.05 l -13 -12.9 z"></path><path d="M -279.475 -55.00000000000001 l 10 -10 l -30 0 l -10 10 l 30 0 z"></path></g><g><path d="M -181.32500000000005 -34.92500000000001 l 10 -10 l -65.75 0 l -9.9 9.95 l 30.45 37.55 l 7.25 -7.3 l 24.15 29.65 l 7.45 -7.4 l -25.2 -31.05 l -7.5 7.45 l -23.1 -28.85 l 52.15 0 z"></path><g><path d="M -177.62500000000006 17.42499999999999 q -6.8 0.5 -7.5 7.5 l 15 15 l 15 -15 l -1.2 -1.2 l -7.5 7.5 l -13.8 -13.8 z"></path></g><path d="M -191.05000000000007 -54.925000000000004 l 10 -10 l -30 0 l -10 10 l 30 0 z"></path></g><g><path d="M -135.12500000000006 -45.00000000000001 l -10 10 l 0 60 l 10 -10 l 0 -60 z"></path><g><path d="M -135.07500000000005 -42.70000000000001 l 15 0 l 10 -10 l -17.4 0 l -17.65 17.7 l 0 7.3 q 5.4 -4.35 10 -2.75 l 0 -12.25 z"></path></g></g><g><path d="M -85.02500000000003 -35.00000000000001 l 34.95 0 l 10 -10 l -50 0 l -10 10 l 25 25 l 0 35 l 10 -10 l 0 -30.05 l -19.95 -19.95 z"></path><g><path d="M -65.07500000000005 32.599999999999994 l 0 -17.6 q -7.3 -5 -10 10 l 0 20 l 17.5 -17.5 l -1.2 -1.2 l -6.3 6.3 z"></path></g><path d="M -60.075000000000045 -55.00000000000001 l 10 -10 l -30 0 l -10 10 l 30 0 z"></path></g><g><path d="M -2.0750000000000455 -1.9000000000000075 l 7.45 -7.5 27.05 34.4 7.5 -7.5 -27.8 -36 -7.75 7.8 -26.95 -34.3 -7.5 7.5 28 35.6 z"></path><path d="M -17.575000000000045 7.499999999999993 l -10 10 l 0 25 l 10 -10 l 0 -25 z"></path></g><g><path d="M 99.92499999999995 -35.00000000000001 l 10 -10 l -50 0 l -10 10 l 0 30 l 30 0 l 0 30 l 10 -10 l 0 -30 l -30 0 l 0 -20 l 40 0 z"></path></g><g><path d="M 129.82499999999993 -45.025000000000006 l -9.9 9.95 l 47.35 58.35 l 0.05 0 l 1.4 1.75 l 7.5 -7.5 l -42.7 -52.55 l 52.05 0 l 10 -10 l -65.75 0 z"></path><g><path d="M 166.12499999999994 15.025000000000006 q -1.655 2.716 2.6 10 l 15 0 l 10 -10 l -20 0 q -7.015 -2.931 -7.6 0 z"></path></g><path d="M 150.24999999999994 -62.525000000000006 l 7.5 7.5 l 7.5 -7.5 l -7.5 -7.5 l -7.5 7.5 z"></path><path d="M 147.74999999999994 45.025000000000006 l 0 25 l 20 -20 l -1.2 -1.2 l -8.8 8.8 l 0 -22.6 l -10 10 z"></path></g><g><path d="M 215.575 -45.00000000000001 l -10 10 l 0 60 l 10 -10 l 0 -60 z"></path><g><path d="M 215.62499999999994 -42.70000000000001 l 15 0 l 10 -10 l -17.4 0 l -17.65 17.7 l 0 7.3 q 5.4 -4.35 10 -2.75 l 0 -12.25 z"></path></g><g><path d="M 205.575 9.999999999999993 l 0 15 l 10 -10 l 0 20 l 10 -9.9 l 0 -22.4 l -10 9.95 l 0 -5.15 q -5 6.1 -10 2.5 z"></path></g></g><g><path d="M 316.27500000000003 -34.92500000000001 l 10 -10 l -65.75 0 l -9.9 9.95 l 30.45 37.55 l 7.25 -7.3 l 24.15 29.65 l 7.45 -7.4 l -25.2 -31.05 l -7.5 7.45 l -23.1 -28.85 l 52.15 0 z"></path><path d="M 298.45 -54.925000000000004 l 10 -10 l -30 0 l -10 10 l 30 0 z"></path></g></g></g>
</svg>
