<svg xmlns="http://www.w3.org/2000/svg" viewBox="0 0 452.561498 127.2" width="452.561498" height="127.2" fill="currentColor" stroke="none">
<g transform="translate(226.280786 63.6)"><g><g><path d="M -214.48078613281248 -37.775 l -10 10 l 0 60 l 10 -10 l 0 -60 z"></path><g><path d="M -226.2807861328125 -49.574999999999996 l 11.8 11.8 l -10 10 l 0 5 q 5.188 -7.964 10 -5 l 0 -7.7 l 8.2 -8.2 l -13 -12.9 l -7 7 z"></path></g><g><path d="M -224.48078613281248 17.225 l 0 15 l 10 -10 l 0 20 l 10 -9.9 l 0 -22.4 l -10 9.95 l 0 -5.15 q -5 6.1 -10 2.5 z"></path></g></g><g><path d="M -184.58078613281248 -37.8 l -9.9 9.95 l 47.35 58.35 l 0.05 0 l 1.4 1.75 l 7.5 -7.5 l -42.7 -52.55 l 52.05 0 l 10 -10 l -65.75 0 z"></path><g><path d="M -163.1807861328125 62.40000000000001 l 1.2 1.2 l 16.3 -16.3 l 0 -15.05 l 7.5 -7.5 q -11.45 -4.9 -8.7 6.3 l -8.8 8.9 l 0 14.95 l -7.5 7.5 z"></path></g><path d="M -146.6557861328125 -47.8 l 10 -10 l -30 0 l -10 10 l 30 0 z"></path></g><g><path d="M -52.530786132812494 32.225 l 7.5 -7.5 -26.9 -26.9 7.45 -7.55 -28.05 -28.05 -7.5 7.5 26.9 26.9 -7.5 7.5 28.1 28.1 z"></path><path d="M -98.8307861328125 -29.075 q 4.2 0.65 6.3 -2.7 q 0.8 -1 0 -6 l -6.3 6.3 l 0 -19.95 l -10 10.1 l 0 22.35 l 10 -10.1 z"></path><path d="M -48.080786132812506 25.825000000000003 q -1.825 3.28 -4.45 6.4 l -7.5 7.5 l -1.2 -1.2 l 7.5 -7.5 q -1.688 -4.106 -0.35 -4.55 q 1.45 -0.6 6 -0.65 z"></path><path d="M -44.9307861328125 -27.775 l -8.8 8.8 l 1.2 1.2 l 20 -20 l -30 0 l -10 10 l 27.6 0 z"></path><path d="M -87.5307861328125 49.725 l 7.5 7.5 l 7.5 -7.5 l -7.5 -7.5 l -7.5 7.5 z"></path></g><g><path d="M -12.630786132812517 -37.8 l -9.9 9.95 l 47.35 58.35 l 0.05 0 l 1.4 1.75 l 7.5 -7.5 l -42.7 -52.55 l 52.05 0 l 10 -10 l -65.75 0 z"></path><g><path d="M 33.76921386718746 24.750000000000014 q -6.8 0.5 -7.5 7.5 l 15 15 l 15 -15 l -1.2 -1.2 l -7.5 7.5 l -13.8 -13.8 z"></path></g></g><g><path d="M 86.26921386718752 -37.775 l -10 10 l 0 60 l 10 -10 l 0 -60 z"></path><g><path d="M 86.26921386718752 -22.775 l 0 -15 l -10 10 l 0 -20 l -10 9.9 l 0 22.4 l 10 -9.95 l 0 5.15 q 5 -6.1 10 -2.5 z"></path></g></g><g><path d="M 151.26921386718752 -37.75 l -10 10 l 0 20 l -35 0 l -10 10 l 29.95 29.95 l 7.5 -7.5 l -22.45 -22.45 l 30 0 l 10 -10 l 0 -30 z"></path><g><path d="M 141.26921386718752 -27.750000000000007 l 0 5 q 6.25 -9 10 -5 l 0 -7.6 l 11.8 11.7 l 7 -7 l -12.95 -12.95 l -15.85 15.85 z"></path></g><g><path d="M 146.2192138671875 22.19999999999998 l -15 0 q -7 -2.95 -7.6 0 q -1.65 2.7 2.6 10 l 10 0 l 0 15 l 10 -10 l 0 -15 z"></path></g><path d="M 143.1692138671875 -53.60000000000001 l 10 -10 l -30 0 l -10 10 l 30 0 z"></path></g><g><path d="M 210.06921386718753 -13.924999999999999 l -10 10 l 0 -33.85 l -10 10 l 0 36.2 l 10 -9.95 l 0 33.75 l 10 -10 l 0 -36.15 z"></path><g><path d="M 212.4692138671875 -47.775 l -22.4 0 l -10 10.1 l 19.9 0 l 0.1 -0.1 l 0 0.1 l -0.05 0 l -9.95 9.9 l 0 5 q 5 -5.774 10 -5 l 0 -7.55 l 12.4 -12.4 z"></path></g><g><path d="M 200.06921386718753 16.575000000000003 l 0 15.65 l 10 -10.05 q 10.8 2.6 16.2 18.85 q 0.35 -21.9 -9.85 -27.5 l -6.35 6.35 l 0 -8.1 q -4.8 9.5 -10 4.8 z"></path></g></g></g></g>
</svg>
