<svg xmlns="http://www.w3.org/2000/svg" viewBox="0 0 546.2 132.5" width="546.2" height="132.5" fill="currentColor" stroke="none">
<g transform="translate(273.1 66.25)"><g><g><path d="M -265.6 -41.25 l -7.5 7.5 57.5 62.5 7.5 -7.5 -57.5 -62.5 z"></path><path d="M -238.10000000000002 48.75 l 10 -10 l -30 0 l -10 10 l 30 0 z"></path></g><g><path d="M -188.20000000000002 -41.275 l -9.9 9.95 l 47.35 58.35 l 0.05 0 l 1.4 1.75 l 7.5 -7.5 l -42.7 -52.55 l 52.05 0 l 10 -10 l -65.75 0 z"></path><g><path d="M -127.45000000000002 -31.275 l 12.5 12.5 l 7.5 -7.5 l -15 -15 q -8.65 2.75 -10 10 l 5 0 z"></path></g><g><path d="M -148.20000000000002 25.725000000000012 q 3.28 -1.825 6.4 -4.45 l 7.5 -7.5 l -1.2 -1.2 l -7.5 7.5 q -4.106 -1.688 -4.55 -0.35 q -0.6 1.45 -0.65 6 z"></path></g></g><g><path d="M -77.45000000000002 -17.4 l -10 10 l 0 -33.85 l -10 10 l 0 36.2 l 10 -9.95 l 0 33.75 l 10 -10 l 0 -36.15 z"></path><g><path d="M -87.45000000000002 13.75 l 0 15 l 15 0 l 17.5 -17.5 l -1.2 -1.2 l -8.7 8.7 l -12.6 0 l 0 -10 q -3.85 7.75 -10 5 z"></path></g></g><g><path d="M -34.95000000000002 -41.25 l -10 10 l 0 60 l 40 0 l 10 -10 l -40 0 l 0 -60 z"></path><path d="M -33.70000000000002 46.25 l 20 20 l 7.5 -7.5 l -20 -20 l -7.5 7.5 z"></path></g><g><path d="M 47.549999999999955 -1.25 l 7.5 -7.5 -32.5 -32.5 -7.5 7.5 32.5 32.5 m -17.5 -10 l -7.5 7.5 32.5 32.5 7.5 -7.5 -32.5 -32.5 z"></path></g><g><path d="M 124.94999999999993 -1.625 l 10 -10 l -29.85 -29.85 l -7.5 7.5 l 22.35 22.35 l -20 0 l -15 15 l 25.6 25.6 l 7.5 -7.5 l -23.1 -23.1 l 30 0 z"></path><g><path d="M 97.59999999999991 -33.975 l -15.05 0 l -10 10 l 17.45 0 l 8.75 -8.8 q 6.9 0.2 3.8 -6.15 l -4.95 4.95 z"></path></g><g><path d="M 118.04999999999995 21.475 l 15.05 0 l 10 -10 l -17.45 0 l -8.75 8.8 q -6.9 -0.2 -3.8 6.15 l 4.95 -4.95 z"></path></g><path d="M 117.82499999999993 48.975 l 10 -10 l -30 0 l -10 10 l 30 0 z"></path></g><g><path d="M 163.09999999999997 -41.25 l -10 10 l 0 60 l 10 -10 l 0 -50 l 30 0 l 10 -10 l -40 0 z"></path><path d="M 170.59999999999997 -58.75 l 7.5 7.5 l 7.5 -7.5 l -7.5 -7.5 l -7.5 7.5 z"></path><path d="M 170.59999999999997 46.25 l 7.5 7.5 l 7.5 -7.5 l -7.5 -7.5 l -7.5 7.5 z"></path></g><g><path d="M 256.85 -38.75 l -1.2 -1.2 l -6.3 6.3 l 0 -27.6 l -10 10 l 0 30 l 17.5 -17.5 z"></path><path d="M 223.09999999999997 -11.25 l -10 10 l 50 0 l 10 -10 l -50 0 z"></path></g></g></g>
</svg>
