<svg xmlns="http://www.w3.org/2000/svg" viewBox="0 0 59.95 172.294907" width="59.95" height="172.294907" fill="currentColor" stroke="none">
<g transform="translate(29.975 86.147453)"><g><g><path d="M 25.025 -34.97499999999999 l -10 10 l 0 20 l -35 0 l -10 10 l 29.95 29.95 l 7.5 -7.5 l -22.45 -22.45 l 30 0 l 10 -10 l 0 -30 z"></path><g><path d="M 25.025 -34.974999999999994 l -15 0 l 0 -15 l -10 10 l 0 15 l 15 0 l 0 10 q 3.85 -7.75 10 -5 l 0 -15 z"></path></g><g><path d="M 7.475000000000001 27.474999999999994 q -6.8 0.5 -7.5 7.5 l 15 15 l 15 -15 l -1.2 -1.2 l -7.5 7.5 l -13.8 -13.8 z"></path></g></g></g></g>
</svg>
