<svg xmlns="http://www.w3.org/2000/svg" viewBox="0 0 59.3 172.294907" width="59.3" height="172.294907" fill="currentColor" stroke="none">
<g transform="translate(29.65 86.147453)"><g><g><path d="M 14.649999999999995 34.4 l 7.5 -7.5 l -31.25 -31.25 l 31.25 -31.25 l -40 0 l -10 10 l 37.6 0 l -27.5 27.6 l 32.4 32.4 z"></path><g><path d="M -29.650000000000002 -47.4 l 11.8 11.8 l -10 10 l 11.15 0 q -3.75 -5.2 5.8 -10 l -4.65 0 l 5.9 -5.9 l -13 -12.9 l -7 7 z"></path></g><g><path d="M 15.750000000000004 31.349999999999998 q 3.28 -1.825 6.4 -4.45 l 7.5 -7.5 l -1.2 -1.2 l -7.5 7.5 q -4.106 -1.688 -4.55 -0.35 q -0.6 1.45 -0.65 6 z"></path></g><path d="M 9.999999999999996 54.4 l 10 -10 l -30 0 l -10 10 l 30 0 z"></path></g></g></g>
</svg>
