<svg xmlns="http://www.w3.org/2000/svg" viewBox="0 0 269.35 127.5" width="269.35" height="127.5" fill="currentColor" stroke="none">
<g transform="translate(134.675 63.75)"><g><g><path d="M -102.12500000000001 -26.25 l -7.5 7.5 57.5 62.5 7.5 -7.5 -57.5 -62.5 z"></path><path d="M -109.62500000000001 -18.75 l -15.05 0 l -10 10 l 17.45 0 l 8.75 -8.8 q 6.9 0.2 3.8 -6.15 l -4.95 4.95 z"></path><path d="M -54.72500000000002 33.75 q -1.655 2.716 2.6 10 l 15 0 l 10 -10 l -20 0 q -7.015 -2.931 -7.6 0 z"></path><path d="M -49.525000000000006 -16.25 l -8.8 8.8 l 1.2 1.2 l 20 -20 l -30 0 l -10 10 l 27.6 0 z"></path><path d="M -90.87500000000001 -56.25 l 20 20 l 7.5 -7.5 l -20 -20 l -7.5 7.5 z"></path></g><g><path d="M -7.125000000000014 -26.25 l -10 10 l 0 30 l 30 30 l 7.5 -7.5 l -27.5 -27.5 l 0 -35 z"></path></g><g><path d="M 74.67500000000001 43.75 l 7.5 -7.5 l -31.25 -31.25 l 31.25 -31.25 l -40 0 l -10 10 l 37.6 0 l -27.5 27.6 l 32.4 32.4 z"></path><g><path d="M 30.375 -38.05 l 11.8 11.8 l -10 10 l 11.15 0 q -3.75 -5.2 5.8 -10 l -4.65 0 l 5.9 -5.9 l -13 -12.9 l -7 7 z"></path></g><g><path d="M 75.77499999999998 40.7 q 3.28 -1.825 6.4 -4.45 l 7.5 -7.5 l -1.2 -1.2 l -7.5 7.5 q -4.106 -1.688 -4.55 -0.35 q -0.6 1.45 -0.65 6 z"></path></g><path d="M 70.02499999999998 63.75 l 10 -10 l -30 0 l -10 10 l 30 0 z"></path></g><g><path d="M 119.67500000000001 -2.4000000000000004 l -10 10 l 0 -33.85 l -10 10 l 0 36.2 l 10 -9.95 l 0 33.75 l 10 -10 l 0 -36.15 z"></path><g><path d="M 109.67500000000001 28.75 l 0 15 l 15 0 l 10 -10 l -15 0 l 0 -10 q -3.874 7.753 -10 5 z"></path></g></g></g></g>
</svg>
