<svg xmlns="http://www.w3.org/2000/svg" viewBox="0 0 55.95 172.294907" width="55.95" height="172.294907" fill="currentColor" stroke="none">
<g transform="translate(27.975 86.147453)"><g><g><path d="M 12.025000000000002 -41.25 l -10 10 l 0 20 l -20 0 l -10 10 l 0 30 l 30 0 l 10 -10 l -30 0 l 0 -20 l 20 0 l 10 -10 l 0 -30 z"></path><g><path d="M 12.025000000000002 -26.25 l 0 -15 l -12.6 0 l 7.5 -7.5 l -1.2 -1.2 l -18.7 18.7 l 15 0 l 0 10 q 3.85 -7.75 10 -5 z"></path></g><g><path d="M -2.5249999999999986 28.75 l 4.55 0 l 8.8 -8.8 l 10 10 l 7.15 -7.15 l -11.3 -11.2 l -7.05 7.15 l -6.3 0 q 3.7 5 -5.85 10 z"></path></g><path d="M 10.000000000000004 49.95 l 10 -10 l -30 0 l -10 10 l 30 0 z"></path></g></g></g>
</svg>
