<svg xmlns="http://www.w3.org/2000/svg" viewBox="0 0 610.75 152.5" width="610.75" height="152.5" fill="currentColor" stroke="none">
<g transform="translate(305.375 76.25)"><g><g><path d="M -277.375 4.35 l 7.45 -7.5 27.05 34.4 7.5 -7.5 -27.8 -36 -7.75 7.8 -26.95 -34.3 -7.5 7.5 28 35.6 z"></path></g><g><path d="M -175.375 -28.75 l 10 -10 l -50 0 l -10 10 l 0 35 l 10 -10 l 15 0 l 0 35 l 10 -10 l 0 -35 l -17.35 0 l -7.65 7.6 l 0 -22.6 l 40 0 z"></path><g><path d="M -200.375 16.25 l 0 15 l 12.6 0 l -7.5 7.5 l 1.2 1.2 l 18.7 -18.7 l -15 0 l 0 -10 q -3.85 7.75 -10 5 z"></path></g><path d="M -202.975 59.95 l 8.8 -8.8 l -1.2 -1.2 l -20 20 l 30 0 l 10 -10 l -27.6 0 z"></path></g><g><path d="M -145.375 -38.75 l -10 10 l 0 60 l 10 -10 l 0 -50 l 30 0 l 10 -10 l -40 0 z"></path><path d="M -120.375 66.25 l 0 -25 l -20 20 l 1.2 1.2 l 8.8 -8.8 l 0 22.6 l 10 -10 z"></path></g><g><path d="M -83.75 -37.55 l 7.35 -7.35 l 20.6 26.15 l 10 0 l 10 -10 l -14.55 0 l -19.6 -25 l -15 15 l 1.2 1.2 z"></path><path d="M -85.375 -8.75 l -10 10 l 50 0 l 10 -10 l -50 0 z"></path></g><g><path d="M -5.375 -38.75 l -10 10 l 0 60 l 10 -10 l 0 -60 z"></path><g><path d="M -5.375 -23.75 l 0 -15 l -10 10 l 0 -20 l -10 9.9 l 0 22.4 l 10 -9.95 l 0 5.15 q 5 -6.1 10 -2.5 z"></path></g><g><path d="M -5.375 21.25 l 15 0 l 10 -10 l -17.45 0 l -7.6 7.6 l 0.05 -5.05 q -4.6 6.3 -10 4 l 0 13.45 l 9.95 -10 z"></path></g></g><g><path d="M 39.52499999999998 -38.775 l -9.9 9.95 l 47.35 58.35 l 0.05 0 l 1.4 1.75 l 7.5 -7.5 l -42.7 -52.55 l 52.05 0 l 10 -10 l -65.75 0 z"></path><g><path d="M 85.27499999999998 -28.775 l 10 0 l 17.5 -17.5 l -1.2 -1.2 l -8.7 8.7 l -7.6 0 q 0.83 5.4 -10 10 z"></path></g><g><path d="M 98.42500000000001 21.275000000000013 l -15 0 q -7 -2.95 -7.6 0 q -1.65 2.7 2.6 10 l 10 0 l 0 15 l 10 -10 l 0 -15 z"></path></g><path d="M 81.19999999999999 -57.475 l 10 -10 l -30 0 l -10 10 l 30 0 z"></path></g><g><path d="M 151.575 -14.9 l -10 10 l 0 -33.85 l -10 10 l 0 36.2 l 10 -9.95 l 0 33.75 l 10 -10 l 0 -36.15 z"></path><g><path d="M 131.575 -46.35 l 0 17.6 q 7.3 5 10 -10 l 0 -20 l -17.5 17.5 l 1.2 1.2 l 6.3 -6.3 z"></path></g><g><path d="M 151.575 21.25 l 0 -5 q -6.25 9 -10 5 l 0 7.6 l -11.8 -11.7 l -7 7 l 12.95 12.95 l 15.85 -15.85 z"></path></g></g><g><path d="M 198.375 4.35 l 7.45 -7.5 27.05 34.4 7.5 -7.5 -27.8 -36 -7.75 7.8 -26.95 -34.3 -7.5 7.5 28 35.6 z"></path><path d="M 171.575 -30.05 q 4.2 0.65 6.3 -2.7 q 0.8 -1 0 -6 l -6.3 6.3 l 0 -19.95 l -10 10.1 l 0 22.35 l 10 -10.1 z"></path><path d="M 172.875 11.25 l 20 20 l 7.5 -7.5 l -20 -20 l -7.5 7.5 z"></path><path d="M 232.97500000000002 -28.75 l -8.8 8.8 l 1.2 1.2 l 20 -20 l -30 0 l -10 10 l 27.6 0 z"></path><path d="M 191.625 -68.75 l 20 20 l 7.5 -7.5 l -20 -20 l -7.5 7.5 z"></path></g><g><path d="M 265.375 -38.75 l -10 10 l 0 60 l 10 -10 l 0 -50 l 30 0 l 10 -10 l -40 0 z"></path></g></g></g>
</svg>
