<svg xmlns="http://www.w3.org/2000/svg" viewBox="0 0 414.2 117.5" width="414.2" height="117.5" fill="currentColor" stroke="none">
<g transform="translate(207.1 58.75)"><g><g><path d="M -179.09999999999997 -5.65 l 7.45 -7.5 27.05 34.4 7.5 -7.5 -27.8 -36 -7.75 7.8 -26.95 -34.3 -7.5 7.5 28 35.6 z"></path></g><g><path d="M -117.19999999999996 -48.775 l -9.9 9.95 l 47.35 58.35 l 0.05 0 l 1.4 1.75 l 7.5 -7.5 l -42.7 -52.55 l 52.05 0 l 10 -10 l -65.75 0 z"></path><g><path d="M -77.19999999999996 18.225000000000012 q 3.28 -1.825 6.4 -4.45 l 7.5 -7.5 l -1.2 -1.2 l -7.5 7.5 q -4.106 -1.688 -4.55 -0.35 q -0.6 1.45 -0.65 6 z"></path></g></g><g><path d="M -35.19999999999996 -38.75 q 24.3 9.1 15 21.3 l 1.25 1.15 q 15.85 -14.1 3.75 -22.45 l 20 0 l 17.5 -17.5 l -1.2 -1.2 l -8.7 8.7 l -37.6 0 l -10 10 z"></path><path d="M -31.44999999999996 -18.75 l -10 10 l 50 0 l 10 -10 l -50 0 z"></path></g><path d="M 33.50000000000003 -21.25 l 6.95 6.95 l -7.5 7.45 l 6.85 6.9 l -7.5 7.5 l 1.2 1.2 l 15 -15 l -6.85 -6.85 l 7.45 -7.55 l -6.9 -6.9 l 7.5 -7.5 l -1.2 -1.2 l -15 15 z"></path><g><path d="M 89.69999999999999 -48.75 l -10 10 l 0 23.85 l -10 10 l 0 26.15 l 10 -10 l 0 -23.75 l 10 -10 l 0 -26.25 z"></path><path d="M 59.69999999999999 -48.75 l 15 0 l -10 10 l 15 0 l 0 10 q 3.85 -7.75 10 -5 l 0 -15 l -12.55 0 l 9.95 -10 l -17.4 0 l -10 10 z"></path><path d="M 60.94999999999999 38.75 l 20 20 l 7.5 -7.5 l -20 -20 l -7.5 7.5 z"></path><path d="M 99.69999999999999 -21.25 l 0 25 l 20 -20 l -1.2 -1.2 l -8.8 8.8 l 0 -22.6 l -10 10 z"></path></g><g><path d="M 139.7 -48.75 l -10 10 l 0 60 l 10 -10 l 0 -50 l 30 0 l 10 -10 l -40 0 z"></path><g><path d="M 129.7 21.25 l 15 0 l 0 15 l 10 -10 l 0 -15 l -15 0 l 0 -10 q -3.85 7.75 -10 5 l 0 15 z"></path></g></g><path d="M 190.89999999999998 -21.25 l 6.95 6.95 l -7.5 7.45 l 6.85 6.9 l -7.5 7.5 l 1.2 1.2 l 15 -15 l -6.85 -6.85 l 7.45 -7.55 l -6.9 -6.9 l 7.5 -7.5 l -1.2 -1.2 l -15 15 z"></path></g></g>
</svg>
