<svg xmlns="http://www.w3.org/2000/svg" viewBox="0 0 708.6 140.05" width="708.6" height="140.05" fill="currentColor" stroke="none">
<g transform="translate(354.3 70.025)"><g><g><path d="M -344.29999999999995 -45 l -10 10 l 0 60 l 10 -10 l 0 -60 z"></path><g><path d="M -354.29999999999995 10 l 0 15 l 15 0 l 10 -10 l -15 0 l 0 -10 q -3.874 7.753 -10 5 z"></path></g></g><g><path d="M -304.24999999999994 -35 l 34.95 0 l 10 -10 l -50 0 l -10 10 l 25 25 l 0 35 l 10 -10 l 0 -30.05 l -19.95 -19.95 z"></path><g><path d="M -284.29999999999995 32.6 l 0 -17.6 q -7.3 -5 -10 10 l 0 20 l 17.5 -17.5 l -1.2 -1.2 l -6.3 6.3 z"></path></g><path d="M -279.29999999999995 -55 l 10 -10 l -30 0 l -10 10 l 30 0 z"></path></g><g><path d="M -221.29999999999995 -1.9000000000000004 l 7.45 -7.5 27.05 34.4 7.5 -7.5 -27.8 -36 -7.75 7.8 -26.95 -34.3 -7.5 7.5 28 35.6 z"></path><path d="M -240.64999999999995 -43.85 l 15.05 0 l 10 -10 l -17.45 0 l -8.75 8.85 q -1.75 3.2 -4.85 7.2 q 5.7 0.35 6 -6.05 z"></path><path d="M -189.39999999999995 15 q -1.65 2.7 2.6 10 l 12.6 0 l -7.5 7.5 l 1.2 1.2 l 18.7 -18.7 l -20 0 q -7 -2.95 -7.6 0 z"></path></g><g><path d="M -96.79999999999995 -44.975 l -10 10 l 0 20 l -35 0 l -10 10 l 29.95 29.95 l 7.5 -7.5 l -22.45 -22.45 l 30 0 l 10 -10 l 0 -30 z"></path><g><path d="M -139.35 55.12499999999997 l 1.2 1.2 l 16.3 -16.3 l 0 -15.05 l 7.5 -7.5 q -11.45 -4.9 -8.7 6.3 l -8.8 8.9 l 0 14.95 l -7.5 7.5 z"></path></g></g><g><path d="M -40.94999999999993 25 l 10 -10 l 0 -60 l -10 10 l 0 50 l -30 0 l -10 10 l 40 0 z"></path><g><path d="M -70.94999999999993 25 q -2.55 -4.45 5 -10 l -5 0 l -15.85 15.9 l 13 12.9 l 7 -7 l -11.8 -11.8 l 7.65 0 z"></path></g><path d="M -66.37499999999994 61.3 l 7.5 7.5 l 7.5 -7.5 l -7.5 -7.5 l -7.5 7.5 z"></path></g><g><path d="M 1.4500000000000455 -45 l -10 10 l 0 60 l 10 -10 l 0 -60 z"></path><g><path d="M 1.5000000000000568 -42.7 l 15 0 l 10 -10 l -17.4 0 l -17.65 17.7 l 0 7.3 q 5.4 -4.35 10 -2.75 l 0 -12.25 z"></path></g><g><path d="M -20.949999999999932 35 l 22.4 0 l 10 -10.1 l -19.9 0 l -0.1 0.1 l 0 -0.1 l 0.05 0 l 9.95 -9.9 l 0 -5 q -5 5.774 -10 5 l 0 7.55 l -12.4 12.4 z"></path></g></g><g><path d="M 91.50000000000006 -44.975 l -10 10 l 0 20 l -35 0 l -10 10 l 29.95 29.95 l 7.5 -7.5 l -22.45 -22.45 l 30 0 l 10 -10 l 0 -30 z"></path><g><path d="M 81.85000000000008 -32.87500000000001 q 0.375 -0.363 1.15 -1.15 q 6.261 -1.099 8.5 3.8 l 0 -14.75 l -10 10 l -10 -10 l -7.15 7.15 l 11.3 11.2 l 5.85 -5.9 q 0.04 -0.029 0.35 -0.35 z"></path></g><g><path d="M 72.75000000000006 16.27499999999998 q -6.486 -1.216 -4.75 5 q 2.924 -3.894 5.95 -3.8 l 8.8 -8.8 l 0 -15 l -10 10 l 0 12.6 z"></path></g><path d="M 74.00000000000006 -54.97500000000001 l 10 -10 l -30 0 l -10 10 l 30 0 z"></path></g><g><path d="M 146.65000000000003 -1.9000000000000004 l 7.45 -7.5 27.05 34.4 7.5 -7.5 -27.8 -36 -7.75 7.8 -26.95 -34.3 -7.5 7.5 28 35.6 z"></path><path d="M 123.65000000000003 -42.5 l -5 5 l -10 -10 l -7.15 7.15 l 11.3 11.2 l 7 -7.1 l 1 -1 q 3.183 1.742 3.85 0 q 0.916 -1.293 0 -6.25 z"></path><path d="M 143.65000000000003 25 l 10 -10 l -30 0 l -10 10 l 30 0 z"></path><path d="M 163.6500000000001 -55 l 10 -10 l -30 0 l -10 10 l 30 0 z"></path></g><g><path d="M 253.64999999999998 -44.975 l -10 10 l 0 20 l -35 0 l -10 10 l 29.95 29.95 l 7.5 -7.5 l -22.45 -22.45 l 30 0 l 10 -10 l 0 -30 z"></path><g><path d="M 227.69999999999993 23.37499999999998 l -11.2 11.3 l 22.4 0 l 10 -10.1 l -19.9 0 l 7.1 -7.1 q -10.446 -1.157 -8.4 5.9 z"></path></g><path d="M 236.14999999999998 -54.97500000000001 l 10 -10 l -30 0 l -10 10 l 30 0 z"></path><path d="M 236.14999999999998 54.67499999999998 l 10 -10 l -30 0 l -10 10 l 30 0 z"></path></g><g><path d="M 344.4 25.025 l 9.9 -9.95 l -47.35 -58.35 l -0.05 0 l -1.4 -1.75 l -7.5 7.5 l 42.7 52.55 l -52.05 0 l -10 10 l 65.75 0 z"></path><g><path d="M 283.65 15.025000000000006 l -12.5 -12.5 l -7.5 7.5 l 15 15 q 8.65 -2.75 10 -10 l -5 0 z"></path></g><path d="M 301.475 -62.525000000000006 l 7.5 7.5 l 7.5 -7.5 l -7.5 -7.5 l -7.5 7.5 z"></path><path d="M 298.975 45.025000000000006 l 0 25 l 20 -20 l -1.2 -1.2 l -8.8 8.8 l 0 -22.6 l -10 10 z"></path></g></g></g>
</svg>
