<svg xmlns="http://www.w3.org/2000/svg" viewBox="0 0 89.45 108.8" width="89.45" height="108.8" fill="currentColor" stroke="none">
<g transform="translate(44.725 54.4)"><g><g><path d="M -26.52500000000001 -34.400000000000006 l -10 10 l 0 60 l 10 -10 l 0 -60 z"></path><g><path d="M -24.72500000000001 47.39999999999999 l -11.8 -11.8 l 10 -10 l 0 -5 q -5.188 7.964 -10 5 l 0 7.7 l -8.2 8.2 l 13 12.9 l 7 -7 z"></path></g></g><g><path d="M 44.675 -34.400000000000006 l -50 0 l -9.4 9.4 l 23.2 33.05 l 6.2 -6.25 l 0 33.8 l 10 -10 l 0 -36.15 l -1.1 1.1 q -2.967 2.977 -5.95 5.95 l -1.95 2 l -0.65 0.65 l -16.5 -23.5 l 36.2 0 l 10 -10 z"></path><path d="M 25 -44.400000000000006 l 10 -10 l -30 0 l -10 10 l 30 0 z"></path></g></g></g>
</svg>
