<svg xmlns="http://www.w3.org/2000/svg" viewBox="0 0 137.6 96.35" width="137.6" height="96.35" fill="currentColor" stroke="none">
<g transform="translate(68.8 48.175)"><g><g><path d="M -40.8 1.275000000000004 l 7.45 -7.5 27.05 34.4 7.5 -7.5 -27.8 -36 -7.75 7.8 -26.95 -34.3 -7.5 7.5 28 35.6 z"></path><path d="M -31.299999999999997 48.175000000000004 l 10 -10 l -30 0 l -10 10 l 30 0 z"></path></g><g><path d="M 26.200000000000003 -41.824999999999996 l -10 10 l 0 35 l 19.95 0 l -24.95 25 l 40 0 l 10 -10 l -37.6 0 l 24.85 -25 l -22.25 0 l 0 -35 z"></path><g><path d="M 26.200000000000003 -39.525 l 0 13.35 q -5.2 -4.7 -10 4.8 l 0 -10.45 l 16.35 -16.35 q 11.35 3.25 12.3 12.55 q 0.1 0.8 0.1 1.7 q 0 0.6 -0.05 1.2 q -3.4 -6.7 -18.7 -6.8 z"></path></g><g><path d="M 52.5 46.925000000000004 l 16.3 -16.3 l 0 -22.45 l -10 10 l -12.6 0 q 3.5 4 0 10 l 5 0 l 7.6 -7.65 l 0 17.7 l -7.5 7.5 l 1.2 1.2 z"></path></g></g></g></g>
</svg>
