<svg xmlns="http://www.w3.org/2000/svg" viewBox="0 0 209.35 106.4" width="209.35" height="106.4" fill="currentColor" stroke="none">
<g transform="translate(104.675 53.2)"><g><g><path d="M -94.675 -33.2 l -10 10 l 0 60 l 10 -10 l 0 -60 z"></path></g><g><path d="M -42.125 -33.2 l -10 10 l 0 60 l 10 -10 l 0 -50 l 30 0 l 10 -10 l -40 0 z"></path><g><path d="M -42.125 26.799999999999997 l 0 -7.3 q -4.546 5.888 -10 3.05 l 0 11.95 l -15.05 0 l -17.5 17.5 l 1.2 1.2 l 8.7 -8.7 l 15 0 l 17.65 -17.7 z"></path></g><path d="M -33.39999999999999 -43.2 l 10 -10 l -30 0 l -10 10 l 30 0 z"></path></g><g><path d="M 19.674999999999997 -33.2 l -10 10 l 0 60 l 10 -10 l 0 -60 z"></path><g><path d="M 7.875 -45 l 11.8 11.8 l -10 10 l 0 5 q 5.188 -7.964 10 -5 l 0 -7.7 l 8.2 -8.2 l -13 -12.9 l -7 7 z"></path></g><g><path d="M 9.674999999999997 21.799999999999997 l 0 15 l 15 0 l 10 -10 l -15 0 l 0 -10 q -3.874 7.753 -10 5 z"></path></g></g><g><path d="M 94.675 -23.200000000000003 l 10 -10 l -50 0 l -10 10 l 0 30 l 30 0 l 0 30 l 10 -10 l 0 -30 l -30 0 l 0 -20 l 40 0 z"></path><path d="M 84.675 -43.2 l 10 -10 l -30 0 l -10 10 l 30 0 z"></path></g></g></g>
</svg>
