<svg xmlns="http://www.w3.org/2000/svg" viewBox="0 0 56.2 172.294907" width="56.2" height="172.294907" fill="currentColor" stroke="none">
<g transform="translate(28.1 86.147453)"><g><g><path d="M 8.100000000000001 -11.750000000000002 l -10 10 l 0 -33.85 l -10 10 l 0 36.2 l 10 -9.95 l 0 33.75 l 10 -10 l 0 -36.15 z"></path><g><path d="M -1.9000000000000021 -19.950000000000003 l 0 -15.65 l -10 10.05 q -10.8 -2.6 -16.2 -18.85 q -0.35 21.9 9.85 27.5 l 6.35 -6.35 l 0 8.1 q 4.8 -9.5 10 -4.8 z"></path></g><g><path d="M 28.1 34.4 l -15 0 l 10 -10 l -15 0 l 0 -10 q -3.85 7.75 -10 5 l 0 15 l 12.55 0 l -9.95 10 l 17.4 0 l 10 -10 z"></path></g></g></g></g>
</svg>
