<svg xmlns="http://www.w3.org/2000/svg" viewBox="0 0 568.9 115.225" width="568.9" height="115.225" fill="currentColor" stroke="none">
<g transform="translate(284.45 57.6125)"><g><g><path d="M -274.45 -37.387499999999996 l -10 10 l 0 60 l 10 -10 l 0 -60 z"></path><g><path d="M -284.45 17.612500000000004 l 0 15 l 10 -10 l 0 20 l 10 -9.9 l 0 -22.4 l -10 9.95 l 0 -5.15 q -5 6.1 -10 2.5 z"></path></g></g><g><path d="M -244.54999999999998 -37.412499999999994 l -9.9 9.95 l 47.35 58.35 l 0.05 0 l 1.4 1.75 l 7.5 -7.5 l -42.7 -52.55 l 52.05 0 l 10 -10 l -65.75 0 z"></path><path d="M -206.625 -47.412499999999994 l 10 -10 l -30 0 l -10 10 l 30 0 z"></path></g><g><path d="M -158.79999999999998 -37.387499999999996 l -10 10 l 0 60 l 10 -10 l 0 -60 z"></path></g><g><path d="M -108.79999999999998 2.2375000000000043 l 10 -10 l -29.85 -29.85 l -7.5 7.5 l 22.35 22.35 l -20 0 l -15 15 l 25.6 25.6 l 7.5 -7.5 l -23.1 -23.1 l 30 0 z"></path><path d="M -113.79999999999998 -47.6125 l 10 -10 l -30 0 l -10 10 l 30 0 z"></path></g><g><path d="M -41.29999999999998 32.612500000000004 l 7.5 -7.5 -26.9 -26.9 7.45 -7.55 -28.05 -28.05 -7.5 7.5 26.9 26.9 -7.5 7.5 28.1 28.1 z"></path><path d="M -58.79999999999998 52.612500000000004 l 10 -10 l -30 0 l -10 10 l 30 0 z"></path></g><g><path d="M 18.55000000000001 2.2375000000000043 l 10 -10 l -29.85 -29.85 l -7.5 7.5 l 22.35 22.35 l -20 0 l -15 15 l 25.6 25.6 l 7.5 -7.5 l -23.1 -23.1 l 30 0 z"></path><g><path d="M -16.30000000000001 -52.6125 l -7.5 7.5 l 15 15 q 6.8 -0.5 7.5 -7.5 l -15 -15 z"></path></g><g><path d="M 24.150000000000034 22.837500000000006 l -15 0 q -7 -2.95 -7.6 0 q -1.65 2.7 2.6 10 l 10 0 l 0 15 l 10 -10 l 0 -15 z"></path></g></g><g><path d="M 74.75 -13.537499999999996 l -10 10 l 0 -33.85 l -10 10 l 0 36.2 l 10 -9.95 l 0 33.75 l 10 -10 l 0 -36.15 z"></path><g><path d="M 64.75 -21.737499999999997 l 0 -15.65 l -10 10.05 q -10.8 -2.6 -16.2 -18.85 q -0.35 21.9 9.85 27.5 l 6.35 -6.35 l 0 8.1 q 4.8 -9.5 10 -4.8 z"></path></g><g><path d="M 94.75 32.612500000000004 l -15 0 l 10 -10 l -15 0 l 0 -10 q -3.85 7.75 -10 5 l 0 15 l 12.55 0 l -9.95 10 l 17.4 0 l 10 -10 z"></path></g></g><g><path d="M 149.89999999999998 5.712500000000004 l 7.45 -7.5 27.05 34.4 7.5 -7.5 -27.8 -36 -7.75 7.8 -26.95 -34.3 -7.5 7.5 28 35.6 z"></path><path d="M 126.89999999999998 -34.887499999999996 l -5 5 l -10 -10 l -7.15 7.15 l 11.3 11.2 l 7 -7.1 l 1 -1 q 3.183 1.742 3.85 0 q 0.916 -1.293 0 -6.25 z"></path><path d="M 141.89999999999998 50.112500000000004 l 7.5 7.5 l 7.5 -7.5 l -7.5 -7.5 l -7.5 7.5 z"></path></g><g><path d="M 244.45 -37.387499999999996 l -10 10 l 0 60 l 10 -10 l 0 -50 l 30 0 l 10 -10 l -40 0 z"></path><g><path d="M 244.45 22.612500000000004 l 0 -7.3 q -4.546 5.888 -10 3.05 l 0 11.95 l -15.05 0 l -17.5 17.5 l 1.2 1.2 l 8.7 -8.7 l 15 0 l 17.65 -17.7 z"></path></g></g></g></g>
</svg>
