<svg xmlns="http://www.w3.org/2000/svg" viewBox="0 0 590.7 149.7" width="590.7" height="149.7" fill="currentColor" stroke="none">
<g transform="translate(295.35 74.85)"><g><g><path d="M -262.79999999999995 -49.85000000000001 l -7.5 7.5 57.5 62.5 7.5 -7.5 -57.5 -62.5 z"></path><path d="M -270.29999999999995 -42.35000000000001 l -15.05 0 l -10 10 l 17.45 0 l 8.75 -8.8 q 6.9 0.2 3.8 -6.15 l -4.95 4.95 z"></path><path d="M -210.19999999999996 -39.85000000000001 l -8.8 8.8 l 1.2 1.2 l 20 -20 l -30 0 l -10 10 l 27.6 0 z"></path></g><g><path d="M -122.14999999999998 -39.775000000000006 l 10 -10 l -65.75 0 l -9.9 9.95 l 30.45 37.55 l 7.25 -7.3 l 24.15 29.65 l 7.45 -7.4 l -25.2 -31.05 l -7.5 7.45 l -23.1 -28.85 l 52.15 0 z"></path><g><path d="M -118.44999999999999 12.574999999999989 q -6.8 0.5 -7.5 7.5 l 15 15 l 15 -15 l -1.2 -1.2 l -7.5 7.5 l -13.8 -13.8 z"></path></g></g><g><path d="M -67.14999999999998 20.124999999999993 l 10 -10 l 0 -20 l 35 0 l 10 -10 l -29.95 -29.95 l -7.5 7.5 l 22.45 22.45 l -30 0 l -10 10 l 0 30 z"></path><g><path d="M -57.14999999999998 10.125 l 0 -5 q -6.25 9 -10 5 l 0 7.6 l -11.8 -11.7 l -7 7 l 12.95 12.95 l 15.85 -15.85 z"></path></g><path d="M -56.55000000000001 -67.325 l 7.5 7.5 l 7.5 -7.5 l -7.5 -7.5 l -7.5 7.5 z"></path><path d="M -39.05000000000001 45.97500000000001 l 10 -10 l -30 0 l -10 10 l 30 0 z"></path></g><g><path d="M 65.40000000000003 20.14999999999999 l 7.5 -7.5 -26.9 -26.9 7.45 -7.55 -28.05 -28.05 -7.5 7.5 26.9 26.9 -7.5 7.5 28.1 28.1 z"></path><path d="M 19.05000000000001 -41.20000000000001 l 0 0.05 q 8.1 2.8 6.35 -8.7 l -6.35 6.3 q -9.4 -17.75 -21.2 -6.85 q 12.25 -2.15 14.85 15.5 l 6.35 -6.3 z"></path><path d="M 62.80000000000001 10.149999999999991 q -1.65 2.7 2.6 10 l 12.6 0 l -7.5 7.5 l 1.2 1.2 l 18.7 -18.7 l -20 0 q -7 -2.95 -7.6 0 z"></path><path d="M 37.900000000000034 -67.35000000000001 l 7.5 7.5 l 7.5 -7.5 l -7.5 -7.5 l -7.5 7.5 z"></path></g><g><path d="M 110.40000000000003 -49.775000000000006 l -10 10 l 0 40 l 9.55 -9.55 l 20.65 29.4 l 7.5 -7.5 l -21.6 -30.85 l -6.1 6.1 l 0 -37.6 z"></path></g><g><path d="M 163.15000000000003 20.14999999999999 l 50 0 l 9.4 -9.4 l -23.2 -33.05 l -6.2 6.25 l 0 -33.8 l -10 10 l 0 36.15 l 1.1 -1.1 q 2.967 -2.977 5.95 -5.95 l 1.95 -2 l 0.65 -0.65 l 16.5 23.5 l -36.2 0 l -10 10 z"></path><g><path d="M 168.10000000000002 10.149999999999999 l -12.5 -12.5 l -7.5 7.5 l 15 15 q 8.65 -2.75 10 -10 l -5 0 z"></path></g><path d="M 177.82500000000005 37.65 l 7.5 7.5 l 7.5 -7.5 l -7.5 -7.5 l -7.5 7.5 z"></path></g><g><path d="M 275.0499999999999 20.14999999999999 l 7.5 -7.5 l -31.25 -31.25 l 31.25 -31.25 l -40 0 l -10 10 l 37.6 0 l -27.5 27.6 l 32.4 32.4 z"></path><g><path d="M 274.15000000000003 18.54999999999999 l -11.2 11.3 l 22.4 0 l 10 -10.1 l -19.9 0 l 7.1 -7.1 q -10.446 -1.157 -8.4 5.9 z"></path></g><path d="M 273.95 64.85 l 0 -25 l -20 20 l 1.2 1.2 l 8.8 -8.8 l 0 22.6 l 10 -10 z"></path></g></g></g>
</svg>
