<svg xmlns="http://www.w3.org/2000/svg" viewBox="0 0 78.15 172.294907" width="78.15" height="172.294907" fill="currentColor" stroke="none">
<g transform="translate(39.075 86.147453)"><g><g><path d="M -26.575 29.925 l -10 10 l 65.75 0 l 9.9 -9.95 l -30.45 -37.55 l -7.25 7.3 l -24.15 -29.65 l -7.45 7.4 l 25.2 31.05 l 7.5 -7.45 l 23.1 28.85 l -52.15 0 z"></path><g><path d="M -29.075 -21.224999999999998 q 6.486 1.216 4.75 -5 q -2.924 3.894 -5.95 3.8 l -8.8 8.8 l 0 15 l 10 -10 l 0 -12.6 z"></path></g><g><path d="M -16.575000000000003 39.925 q -6.368 -3.408 0 -10 l -10 0 l -10 10 l 0 15 l 10 -10 l 0 -5 l 10 0 z"></path></g><path d="M -7.5 -47.425 l 7.5 7.5 l 7.5 -7.5 l -7.5 -7.5 l -7.5 7.5 z"></path></g></g></g>
</svg>
