<svg xmlns="http://www.w3.org/2000/svg" viewBox="0 0 85.65 172.294907" width="85.65" height="172.294907" fill="currentColor" stroke="none">
<g transform="translate(42.825 86.147453)"><g><g><path d="M 32.824999999999996 -42.525 l -65.75 0 l -9.9 9.95 l 25.7 25.7 l -7.5 7.5 l 26.9 26.9 l 7.5 -7.5 l -25.7 -25.7 l 7.45 -7.55 l -19.3 -19.3 l 50.6 0 l 10 -10 z"></path><g><path d="M 32.824999999999996 -22.525000000000006 l 0.1 0 l 9.9 -10 l -19.9 0 l 10 -10 l -12.65 0 q 5.5 3.45 -5.3 10 l 5.5 0 l -9.95 10 l 19.9 0 l -7.5 7.5 l 1.2 1.2 l 8.7 -8.7 z"></path></g><g><path d="M 17.274999999999984 42.525000000000006 l 7.5 -7.5 l -15 -15 q -6.8 0.5 -7.5 7.5 l 15 15 z"></path></g></g></g></g>
</svg>
