<svg xmlns="http://www.w3.org/2000/svg" viewBox="0 0 91.6 172.294907" width="91.6" height="172.294907" fill="currentColor" stroke="none">
<g transform="translate(45.8 86.147453)"><g><g><path d="M -35.900000000000006 -56.37500000000001 l -9.9 9.95 l 47.35 58.35 l 0.05 0 l 1.4 1.75 l 7.5 -7.5 l -42.7 -52.55 l 52.05 0 l 10 -10 l -65.75 0 z"></path><g><path d="M 15.300000000000004 -46.37500000000001 l 4.55 0 l 8.8 -8.8 l 10 10 l 7.15 -7.15 l -11.3 -11.2 l -7.05 7.15 l -6.3 0 q 3.7 5 -5.85 10 z"></path></g><g><path d="M 9.299999999999997 24.825000000000003 l -7.5 7.5 l 1.2 1.2 l 16.3 -16.3 l 0 -22.35 l -10 10.1 q -4.2 -0.65 -6.3 2.7 q -0.8 1 0 6 l 6.3 -6.3 l 0 17.45 z"></path></g><path d="M -7.6000000000000085 53.525000000000006 l 8.8 -8.8 l -1.2 -1.2 l -20 20 l 30 0 l 10 -10 l -27.6 0 z"></path></g></g></g>
</svg>
