<svg xmlns="http://www.w3.org/2000/svg" viewBox="0 0 308.95 114.925" width="308.95" height="114.925" fill="currentColor" stroke="none">
<g transform="translate(154.475 57.4625)"><g><g><path d="M -146.975 -42.5375 l -7.5 7.5 57.5 62.5 7.5 -7.5 -57.5 -62.5 z"></path></g><g><path d="M -54.474999999999994 -42.4625 l -10 10 l 0 40 l 9.55 -9.55 l 20.65 29.4 l 7.5 -7.5 l -21.6 -30.85 l -6.1 6.1 l 0 -37.6 z"></path><g><path d="M -54.474999999999994 -42.462500000000006 l -15 0 l 0 -15 l -10 10 l 0 15 l 15 0 l 0 10 q 3.85 -7.75 10 -5 l 0 -15 z"></path></g><g><path d="M -26.775000000000006 19.88749999999999 q -7.6 -3.25 -8.6 0 q -0.313 1.95 1.3 6.2 l -1.3 0.15 q -20.55 3.2 -16.1 -6.3 q -12.35 14.35 9.75 14.95 l 14.95 -15 z"></path></g><path d="M -43.125 54.88749999999999 l 10 -10 l -30 0 l -10 10 l 30 0 z"></path></g><g><path d="M 13.224999999999994 -18.6875 l -10 10 l 0 -33.85 l -10 10 l 0 36.2 l 10 -9.95 l 0 33.75 l 10 -10 l 0 -36.15 z"></path><g><path d="M 15.625 -52.5375 l -22.4 0 l -10 10.1 l 19.9 0 l 0.1 -0.1 l 0 0.1 l -0.05 0 l -9.95 9.9 l 0 5 q 5 -5.774 10 -5 l 0 -7.55 l 12.4 -12.4 z"></path></g><g><path d="M 13.224999999999994 35.0625 l 0 -17.6 q -7.3 -5 -10 10 l 0 20 l 17.5 -17.5 l -1.2 -1.2 l -6.3 6.3 z"></path></g></g><g><path d="M 38.224999999999994 -42.5375 l -7.5 7.5 l 31.25 31.25 l -31.25 31.25 l 40 0 l 10 -10 l -37.6 0 l 27.5 -27.6 l -32.4 -32.4 z"></path><path d="M 48.125 47.4625 l 8.8 -8.8 l -1.2 -1.2 l -20 20 l 30 0 l 10 -10 l -27.6 0 z"></path></g><g><path d="M 129.775 -25.087500000000002 l -1.25 -1.15 q -5.45 4.65 -10.85 3.05 q -5.65 -1.7 -5.7 -9.35 l 25 0 l 17.5 -17.5 l -1.2 -1.2 l -8.7 8.7 l -37.6 0 l -10 10 q 14.9 23.2 32.8 7.45 z"></path><path d="M 100.725 -12.537500000000001 l -10 10 l 50 0 l 10 -10 l -50 0 z"></path></g></g></g>
</svg>
