<svg xmlns="http://www.w3.org/2000/svg" viewBox="0 0 65.95 172.294907" width="65.95" height="172.294907" fill="currentColor" stroke="none">
<g transform="translate(32.975 86.147453)"><g><g><path d="M 22.97500000000001 14.899999999999999 l 10 -10 l 0 -60 l -40 0 l -10 10 l 40 0 l 0 60 z"></path><g><path d="M -2.4749999999999908 -55.1 l -4.55 0 l -8.8 8.8 l -10 -10 l -7.15 7.15 l 11.3 11.2 l 7.05 -7.15 l 6.3 0 q -3.7 -5 5.85 -10 z"></path></g><g><path d="M 32.975 4.899999999999999 l 0 -7.3 q -4.546 5.888 -10 3.05 l 0 11.95 l -15.05 0 l -17.5 17.5 l 1.2 1.2 l 8.7 -8.7 l 15 0 l 17.65 -17.7 z"></path></g><path d="M -7.499999999999993 48.800000000000004 l 7.5 7.5 l 7.5 -7.5 l -7.5 -7.5 l -7.5 7.5 z"></path></g></g></g>
</svg>
