<svg xmlns="http://www.w3.org/2000/svg" viewBox="0 0 664.4 144.775" width="664.4" height="144.775" fill="currentColor" stroke="none">
<g transform="translate(332.2 72.3875)"><g><g><path d="M -324.7 -47.38749999999999 l -7.5 7.5 57.5 62.5 7.5 -7.5 -57.5 -62.5 z"></path></g><g><path d="M -247.2 -47.38749999999999 l -10 10 l 0 60 l 40 0 l 10 -10 l -40 0 l 0 -60 z"></path><g><path d="M -207.2 12.612500000000011 l -15 0 q 2.75 6.15 -5 10 l 10 0 l 0 12.6 l -7.5 7.5 l 1.2 1.2 l 16.3 -16.3 l 0 -15 z"></path></g><path d="M -222.2 63.91250000000002 l 10 -10 l -30 0 l -10 10 l 30 0 z"></path></g><g><path d="M -189.7 -47.38749999999999 l -7.5 7.5 l 31.25 31.25 l -31.25 31.25 l 40 0 l 10 -10 l -37.6 0 l 27.5 -27.6 l -32.4 -32.4 z"></path><path d="M -179.7 -64.88749999999999 l 7.5 7.5 l 7.5 -7.5 l -7.5 -7.5 l -7.5 7.5 z"></path><path d="M -164.6 42.61250000000001 l -8.8 8.8 l 1.2 1.2 l 20 -20 l -30 0 l -10 10 l 27.6 0 z"></path></g><g><path d="M -130.95 -37.38749999999999 q 24.3 9.1 15 21.3 l 1.25 1.15 q 15.85 -14.1 3.75 -22.45 l 20 0 l 17.5 -17.5 l -1.2 -1.2 l -8.7 8.7 l -37.6 0 l -10 10 z"></path><path d="M -127.19999999999999 -17.38749999999999 l -10 10 l 50 0 l 10 -10 l -50 0 z"></path></g><g><path d="M -53.44999999999999 -47.38749999999999 l -10 10 l 0 60 l 10 -10 l 0 -60 z"></path><g><path d="M -63.44999999999999 7.612500000000011 l 0 15 l 15 0 l 10 -10 l -15 0 l 0 -10 q -3.874 7.753 -10 5 z"></path></g></g><g><path d="M -18.44999999999999 -47.38749999999999 l -10 10 l 0 60 l 10 -10 l 0 -50 l 30 0 l 10 -10 l -40 0 z"></path><g><path d="M -18.44999999999999 30.212500000000013 l 0 -17.6 q -7.3 -5 -10 10 l 0 20 l 17.5 -17.5 l -1.2 -1.2 l -6.3 6.3 z"></path></g><path d="M 6.550000000000011 -57.38749999999999 l 10 -10 l -30 0 l -10 10 l 30 0 z"></path></g><g><path d="M 39.05000000000001 -47.38749999999999 l -7.5 7.5 57.5 62.5 7.5 -7.5 -57.5 -62.5 z"></path></g><g><path d="M 172.2 -37.312499999999986 l 10 -10 l -65.75 0 l -9.9 9.95 l 30.45 37.55 l 7.25 -7.3 l 24.15 29.65 l 7.45 -7.4 l -25.2 -31.05 l -7.5 7.45 l -23.1 -28.85 l 52.15 0 z"></path><g><path d="M 174.7 33.68750000000001 l -7.5 7.5 l 1.2 1.2 l 16.3 -16.3 l 0 -22.35 l -10 10.1 q -4.2 -0.65 -6.3 2.7 q -0.8 1 0 6 l 6.3 -6.3 l 0 17.45 z"></path></g><path d="M 138.02500000000003 62.3875 l 8.8 -8.8 l -1.2 -1.2 l -20 20 l 30 0 l 10 -10 l -27.6 0 z"></path></g><g><path d="M 202.2 -47.38749999999999 l -7.5 7.5 57.5 62.5 7.5 -7.5 -57.5 -62.5 z"></path><path d="M 229.7 42.61250000000001 l 10 -10 l -30 0 l -10 10 l 30 0 z"></path></g><g><path d="M 324.7 -47.36249999999999 l -10 10 l 0 20 l -35 0 l -10 10 l 29.95 29.95 l 7.5 -7.5 l -22.45 -22.45 l 30 0 l 10 -10 l 0 -30 z"></path><g><path d="M 324.7 -32.3625 l 0 -15 l -15 0 l -17.5 17.5 l 1.2 1.2 l 8.7 -8.7 l 12.6 0 l 0 10 q 3.85 -7.75 10 -5 z"></path></g><g><path d="M 307.15000000000003 15.087499999999991 l 15.05 0 l 10 -10 l -17.45 0 l -8.75 8.8 q -6.9 -0.2 -3.8 6.15 l 4.95 -4.95 z"></path></g></g></g></g>
</svg>
