<svg xmlns="http://www.w3.org/2000/svg" viewBox="0 0 89.65 172.294907" width="89.65" height="172.294907" fill="currentColor" stroke="none">
<g transform="translate(44.825 86.147453)"><g><g><path d="M 19.82500000000001 47.5 l 7.5 -7.5 -26.9 -26.9 7.45 -7.55 -28.05 -28.05 -7.5 7.5 26.9 26.9 -7.5 7.5 28.1 28.1 z"></path><path d="M -22.674999999999997 -20 l -5 5 l -10 -10 l -7.15 7.15 l 11.3 11.2 l 7 -7.1 l 1 -1 q 3.183 1.742 3.85 0 q 0.916 -1.293 0 -6.25 z"></path><path d="M 17.225 37.5 q -1.655 2.716 2.6 10 l 15 0 l 10 -10 l -20 0 q -7.015 -2.931 -7.6 0 z"></path><path d="M -10.174999999999997 47.5 l 10 -10 l -30 0 l -10 10 l 30 0 z"></path><path d="M -7.674999999999997 -40 l 7.5 7.5 l 7.5 -7.5 l -7.5 -7.5 l -7.5 7.5 z"></path></g></g></g>
</svg>
