<svg xmlns="http://www.w3.org/2000/svg" viewBox="0 0 85.05 172.294907" width="85.05" height="172.294907" fill="currentColor" stroke="none">
<g transform="translate(42.525 86.147453)"><g><g><path d="M -27.47500000000001 -28.200000000000003 l 34.95 0 l 10 -10 l -50 0 l -10 10 l 25 25 l 0 35 l 10 -10 l 0 -30.05 l -19.95 -19.95 z"></path><g><path d="M 17.474999999999994 -38.2 l 12.65 0 l -7.5 7.5 l 1.2 1.2 l 18.7 -18.7 l -17.45 0 l -9.95 10 l -7.6 0 q 4.95 4.2 -6.25 10 l 6.25 0 l 9.95 -10 z"></path></g><g><path d="M -13.82500000000001 48.199999999999996 l 16.3 -16.3 l 0 -22.45 l -10 10 l 0 -5.15 q -5 6.1 -10 2.5 l 0 15 l 10 -10 l 0 17.7 l -7.5 7.5 l 1.2 1.2 z"></path></g></g></g></g>
</svg>
