<svg xmlns="http://www.w3.org/2000/svg" viewBox="0 0 65.95 172.294907" width="65.95" height="172.294907" fill="currentColor" stroke="none">
<g transform="translate(32.975 86.147453)"><g><g><path d="M 22.97500000000001 13.275000000000006 l 10 -10 l 0 -36.3 l -10 10.05 l 0 -33.75 l -10 10 l 0 36.15 l 10 -10 l 0 23.85 l -30 0 l -10 10 l 40 0 z"></path><g><path d="M 22.97500000000001 -41.724999999999994 l 0 -15 l -12.6 0 l 7.5 -7.5 l -1.2 -1.2 l -18.7 18.7 l 15 0 l 0 10 q 3.85 -7.75 10 -5 z"></path></g><g><path d="M -2.4749999999999908 3.2750000000000057 l -4.55 0 l -8.8 8.8 l -10 -10 l -7.15 7.15 l 11.3 11.2 l 7.05 -7.15 l 6.3 0 q -3.7 -5 5.85 -10 z"></path></g><path d="M -9.999999999999993 40.425 l 0 25 l 20 -20 l -1.2 -1.2 l -8.8 8.8 l 0 -22.6 l -10 10 z"></path></g></g></g>
</svg>
