<svg xmlns="http://www.w3.org/2000/svg" viewBox="0 0 237.9 168.9" width="237.9" height="168.9" fill="currentColor" stroke="none">
<g transform="translate(118.95 84.45)"><g><g><path d="M -111.44999999999999 -46.95 l -7.5 7.5 57.5 62.5 7.5 -7.5 -57.5 -62.5 z"></path><path d="M -64.04999999999998 13.049999999999997 q -1.655 2.716 2.6 10 l 15 0 l 10 -10 l -20 0 q -7.015 -2.931 -7.6 0 z"></path><path d="M -108.94999999999999 5.549999999999997 l -10 10 l 0 25 l 10 -10 l 0 -25 z"></path><path d="M -100.19999999999999 -76.95 l 20 20 l 7.5 -7.5 l -20 -20 l -7.5 7.5 z"></path></g><g><path d="M -16.44999999999999 -46.875 l -10 10 l 0 40 l 9.55 -9.55 l 20.65 29.4 l 7.5 -7.5 l -21.6 -30.85 l -6.1 6.1 l 0 -37.6 z"></path></g><g><path d="M 48.94999999999999 22.974999999999994 l 10 -10 l 0 -40 l -9.55 9.55 l -20.65 -29.4 l -7.5 7.5 l 21.6 30.85 l 6.1 -6.1 l 0 37.6 z"></path><path d="M 32.599999999999994 -64.375 l 7.5 7.5 l 7.5 -7.5 l -7.5 -7.5 l -7.5 7.5 z"></path><path d="M 30.099999999999994 42.974999999999994 l 0 25 l 20 -20 l -1.2 -1.2 l -8.8 8.8 l 0 -22.6 l -10 10 z"></path></g><g><path d="M 108.94999999999999 23.049999999999997 l 10 -10 l 0 -60 l -40 0 l -10 10 l 40 0 l 0 60 z"></path><g><path d="M 118.94999999999999 13.049999999999997 l 0 -7.3 q -4.546 5.888 -10 3.05 l 0 11.95 l -15.05 0 l -17.5 17.5 l 1.2 1.2 l 8.7 -8.7 l 15 0 l 17.65 -17.7 z"></path></g><path d="M 103.94999999999999 -56.95 l 10 -10 l -30 0 l -10 10 l 30 0 z"></path><path d="M 83.94999999999999 59.45 l 0 25 l 20 -20 l -1.2 -1.2 l -8.8 8.8 l 0 -22.6 l -10 10 z"></path></g></g></g>
</svg>
