<svg xmlns="http://www.w3.org/2000/svg" viewBox="0 0 83.79898 172.294907" width="83.79898" height="172.294907" fill="currentColor" stroke="none">
<g transform="translate(41.897221 86.147453)"><g><g><path d="M -31.99722111097501 -46.95 l -9.9 9.95 l 47.35 58.35 l 0.05 0 l 1.4 1.75 l 7.5 -7.5 l -42.7 -52.55 l 52.05 0 l 10 -10 l -65.75 0 z"></path><g><path d="M 31.452778889024998 -26.950000000000003 q 16 -9.8 7.5 -27.5 l -7.55 7.5 l -11.1 0 q 3.05 5.25 -1.5 10 l 5 0 l 8.8 -8.85 q 6.15 7.15 -1.15 18.85 z"></path></g><g><path d="M -10.597221110975006 53.25000000000001 l 1.2 1.2 l 16.3 -16.3 l 0 -15.05 l 7.5 -7.5 q -11.45 -4.9 -8.7 6.3 l -8.8 8.9 l 0 14.95 l -7.5 7.5 z"></path></g></g></g></g>
</svg>
