<svg xmlns="http://www.w3.org/2000/svg" viewBox="0 0 496.944442 121.375" width="496.944442" height="121.375" fill="currentColor" stroke="none">
<g transform="translate(248.472221 60.6875)"><g><g><path d="M -240.972221110975 -40.6875 l -7.5 7.5 57.5 62.5 7.5 -7.5 -57.5 -62.5 z"></path></g><g><path d="M -163.572221110975 -40.7125 l -9.9 9.95 l 47.35 58.35 l 0.05 0 l 1.4 1.75 l 7.5 -7.5 l -42.7 -52.55 l 52.05 0 l 10 -10 l -65.75 0 z"></path><g><path d="M -100.12222111097498 -20.7125 q 16 -9.8 7.5 -27.5 l -7.55 7.5 l -11.1 0 q 3.05 5.25 -1.5 10 l 5 0 l 8.8 -8.85 q 6.15 7.15 -1.15 18.85 z"></path></g><g><path d="M -142.172221110975 59.48750000000001 l 1.2 1.2 l 16.3 -16.3 l 0 -15.05 l 7.5 -7.5 q -11.45 -4.9 -8.7 6.3 l -8.8 8.9 l 0 14.95 l -7.5 7.5 z"></path></g></g><g><path d="M -24.677778889024978 -40.6625 l -10 10 l 0 20 l -35 0 l -10 10 l 29.95 29.95 l 7.5 -7.5 l -22.45 -22.45 l 30 0 l 10 -10 l 0 -30 z"></path><path d="M -42.17777888902498 49.28749999999998 l 10 -10 l -30 0 l -10 10 l 30 0 z"></path></g><g><path d="M -4.677778889024978 -40.6875 l -10 10 l 0 60 l 10 -10 l 0 -60 z"></path><g><path d="M -14.677778889024978 14.3125 l 0 15 l 15 0 l 10 -10 l -15 0 l 0 -10 q -3.874 7.753 -10 5 z"></path></g></g><g><path d="M 30.322221110975022 -40.6875 l -10 10 l 0 60 l 10 -10 l 0 -50 l 30 0 l 10 -10 l -40 0 z"></path><g><path d="M 30.322221110975022 36.9125 l 0 -17.6 q -7.3 -5 -10 10 l 0 20 l 17.5 -17.5 l -1.2 -1.2 l -6.3 6.3 z"></path></g><path d="M 55.32222111097502 -50.6875 l 10 -10 l -30 0 l -10 10 l 30 0 z"></path></g><g><path d="M 87.82222111097502 -40.6875 l -7.5 7.5 57.5 62.5 7.5 -7.5 -57.5 -62.5 z"></path><path d="M 135.222221110975 19.3125 q -1.655 2.716 2.6 10 l 15 0 l 10 -10 l -20 0 q -7.015 -2.931 -7.6 0 z"></path><path d="M 90.32222111097502 11.8125 l -10 10 l 0 25 l 10 -10 l 0 -25 z"></path><path d="M 97.82222111097502 46.8125 l 7.5 7.5 l 7.5 -7.5 l -7.5 -7.5 l -7.5 7.5 z"></path></g><g><path d="M 238.472221110975 -30.6125 l 10 -10 l -65.75 0 l -9.9 9.95 l 30.45 37.55 l 7.25 -7.3 l 24.15 29.65 l 7.45 -7.4 l -25.2 -31.05 l -7.5 7.45 l -23.1 -28.85 l 52.15 0 z"></path></g></g></g>
</svg>
