<svg xmlns="http://www.w3.org/2000/svg" viewBox="0 0 46.20941 172.294907" width="46.20941" height="172.294907" fill="currentColor" stroke="none">
<g transform="translate(23.1 86.147453)"><g><g><path d="M 6.899999999999999 -10.549999999999999 l -10 10 l 0 -33.85 l -10 10 l 0 36.2 l 10 -9.95 l 0 33.75 l 10 -10 l 0 -36.15 z"></path><g><path d="M 9.299999999999997 -44.4 l -22.4 0 l -10 10.1 l 19.9 0 l 0.1 -0.1 l 0 0.1 l -0.05 0 l -9.95 9.9 l 0 5 q 5 -5.774 10 -5 l 0 -7.55 l 12.4 -12.4 z"></path></g><g><path d="M -3.1000000000000014 19.950000000000003 l 0 15.65 l 10 -10.05 q 10.8 2.6 16.2 18.85 q 0.35 -21.9 -9.85 -27.5 l -6.35 6.35 l 0 -8.1 q -4.8 9.5 -10 4.8 z"></path></g></g></g></g>
</svg>
