<svg xmlns="http://www.w3.org/2000/svg" viewBox="0 0 421.760003 151.4" width="421.760003" height="151.4" fill="currentColor" stroke="none">
<g transform="translate(210.880749 75.7)"><g><g><path d="M -203.38074877581 -55.7 l -7.5 7.5 57.5 62.5 7.5 -7.5 -57.5 -62.5 z"></path><path d="M -155.98074877580999 4.299999999999997 q -1.655 2.716 2.6 10 l 15 0 l 10 -10 l -20 0 q -7.015 -2.931 -7.6 0 z"></path></g><g><path d="M -52.730748775810014 -45.625 l 10 -10 l -65.75 0 l -9.9 9.95 l 30.45 37.55 l 7.25 -7.3 l 24.15 29.65 l 7.45 -7.4 l -25.2 -31.05 l -7.5 7.45 l -23.1 -28.85 l 52.15 0 z"></path></g><g><path d="M 7.269251224189986 14.299999999999997 l 10 -10 l 0 -60 l -40 0 l -10 10 l 40 0 l 0 60 z"></path><g><path d="M 17.269251224189986 4.299999999999997 l 0 -7.3 q -4.546 5.888 -10 3.05 l 0 11.95 l -15.05 0 l -17.5 17.5 l 1.2 1.2 l 8.7 -8.7 l 15 0 l 17.65 -17.7 z"></path></g><path d="M 2.2692512241899863 65.7 l 0 -25 l -20 20 l 1.2 1.2 l 8.8 -8.8 l 0 22.6 l 10 -10 z"></path></g><g><path d="M 82.11925122419001 4.299999999999997 l -34.95 0 l -10 10 l 50 0 l 10 -10 l -25 -25 l 0 -35 l -10 10 l 0 30.05 l 19.95 19.95 z"></path><g><path d="M 62.16925122418996 -34.5 q 5 -12.14 10 -11.2 l 0 -10 l -17.5 17.5 l 1.2 1.2 l 6.3 -6.3 l 0 8.8 z"></path></g><g><path d="M 47.16925122418996 4.299999999999997 l 0 -14.9 l -10 10.1 l 0 -14.9 l -9.9 9.9 l 0 17.4 l 9.9 -9.9 l 0 12.3 l 15 0 q -2.75 -6.15 5 -10 l -10 0 z"></path></g><path d="M 72.21925122418997 -65.7 l 10 -10 l -30 0 l -10 10 l 30 0 z"></path><path d="M 52.219251224189975 34.3 l 0 25 l 20 -20 l -1.2 -1.2 l -8.8 8.8 l 0 -22.6 l -10 10 z"></path></g><g><path d="M 147.16925122419002 -31.85 l -10 10 l 0 -33.85 l -10 10 l 0 36.2 l 10 -9.95 l 0 33.75 l 10 -10 l 0 -36.15 z"></path><g><path d="M 107.16925122419002 -55.7 l 15 0 l -10 10 l 15 0 l 0 10 q 3.85 -7.75 10 -5 l 0 -15 l -12.55 0 l 9.95 -10 l -17.4 0 l -10 10 z"></path></g><g><path d="M 147.16925122419002 -6.900000000000002 q -5 12.14 -10 11.2 l 0 10 l 17.5 -17.5 l -1.2 -1.2 l -6.3 6.3 l 0 -8.8 z"></path></g></g><g><path d="M 194.66925122419002 -31.85 l -10 10 l 0 -33.85 l -10 10 l 0 36.2 l 10 -9.95 l 0 33.75 l 10 -10 l 0 -36.15 z"></path><g><path d="M 197.06925122419 -65.7 l -22.4 0 l -10 10.1 l 19.9 0 l 0.1 -0.1 l 0 0.1 l -0.05 0 l -9.95 9.9 l 0 5 q 5 -5.774 10 -5 l 0 -7.55 l 12.4 -12.4 z"></path></g><g><path d="M 184.66925122419002 -1.3500000000000014 l 0 15.65 l 10 -10.05 q 10.8 2.6 16.2 18.85 q 0.35 -21.9 -9.85 -27.5 l -6.35 6.35 l 0 -8.1 q -4.8 9.5 -10 4.8 z"></path></g></g></g></g>
</svg>
