<svg xmlns="http://www.w3.org/2000/svg" viewBox="0 0 75.95 172.294907" width="75.95" height="172.294907" fill="currentColor" stroke="none">
<g transform="translate(37.975 86.147453)"><g><g><path d="M 17.97500000000001 21.42500000000001 l 10 -10 l 0 -50 l 10 -10 l -45 0 l -10 10 l 42.6 0 l -7.6 7.6 l 0 42.4 l -30 0 l -10 10 l 40 0 z"></path><g><path d="M -7.474999999999991 11.425000000000011 l -4.55 0 l -8.8 8.8 l -10 -10 l -7.15 7.15 l 11.3 11.2 l 7.05 -7.15 l 6.3 0 q -3.7 -5 5.85 -10 z"></path></g><path d="M -7.499999999999993 -66.07499999999999 l 7.5 7.5 l 7.5 -7.5 l -7.5 -7.5 l -7.5 7.5 z"></path><path d="M -9.999999999999993 48.575 l 0 25 l 20 -20 l -1.2 -1.2 l -8.8 8.8 l 0 -22.6 l -10 10 z"></path></g></g></g>
</svg>
