<svg xmlns="http://www.w3.org/2000/svg" viewBox="0 0 325.05 117.7" width="325.05" height="117.7" fill="currentColor" stroke="none">
<g transform="translate(162.525 58.85)"><g><g><path d="M -155.025 -38.849999999999994 l -7.5 7.5 57.5 62.5 7.5 -7.5 -57.5 -62.5 z"></path></g><g><path d="M -37.47500000000001 -28.849999999999994 l 10 -10 l -50 0 l -10 10 l 0 35 l 10 -10 l 15 0 l 0 35 l 10 -10 l 0 -35 l -17.35 0 l -7.65 7.6 l 0 -22.6 l 40 0 z"></path><g><path d="M -32.474999999999994 -28.849999999999994 l 12.5 12.5 l 7.5 -7.5 l -15 -15 q -8.65 2.75 -10 10 l 5 0 z"></path></g><g><path d="M -62.525000000000006 28.85000000000001 l -15 0 l -10 10 l 17.4 0 l 17.65 -17.7 l 0 -7.3 q -5.4 4.35 -10 2.75 l 0 12.25 z"></path></g><path d="M -40.000000000000014 58.85000000000001 l 10 -10 l -30 0 l -10 10 l 30 0 z"></path></g><g><path d="M 9.150000000000006 -37.64999999999999 l 7.35 -7.35 l 20.6 26.15 l 10 0 l 10 -10 l -14.55 0 l -19.6 -25 l -15 15 l 1.2 1.2 z"></path><path d="M 7.525000000000006 -8.849999999999994 l -10 10 l 50 0 l 10 -10 l -50 0 z"></path></g><g><path d="M 77.525 -38.849999999999994 l -10 10 l 0 60 l 10 -10 l 0 -60 z"></path><g><path d="M 67.525 16.150000000000006 l 0 15 l 15 0 l 10 -10 l -15 0 l 0 -10 q -3.874 7.753 -10 5 z"></path></g></g><g><path d="M 117.57500000000002 -28.849999999999994 l 34.95 0 l 10 -10 l -50 0 l -10 10 l 25 25 l 0 35 l 10 -10 l 0 -30.05 l -19.95 -19.95 z"></path><g><path d="M 137.525 38.75000000000001 l 0 -17.6 q -7.3 -5 -10 10 l 0 20 l 17.5 -17.5 l -1.2 -1.2 l -6.3 6.3 z"></path></g><path d="M 142.525 -48.849999999999994 l 10 -10 l -30 0 l -10 10 l 30 0 z"></path></g></g></g>
</svg>
