<svg xmlns="http://www.w3.org/2000/svg" viewBox="0 0 80.45 172.294907" width="80.45" height="172.294907" fill="currentColor" stroke="none">
<g transform="translate(40.225 86.147453)"><g><g><path d="M -19.92499999999999 -25.15 l -7.5 7.5 l 31.25 31.25 l -31.25 31.25 l 40 0 l 10 -10 l -37.6 0 l 27.5 -27.6 l -32.4 -32.4 z"></path><g><path d="M -19.02499999999999 -23.549999999999997 l 11.2 -11.3 l -22.4 0 l -10 10.1 l 19.9 0 l -7.1 7.1 q 10.446 1.157 8.4 -5.9 z"></path></g><g><path d="M 27.725 27.35 l -7.5 7.5 l -11.1 0 q 3.05 5.25 -1.5 10 l 5 0 l 8.8 -8.85 q 0.445 14.232 18.8 18.85 q -12.993 -10.704 -12.45 -27.5 z"></path></g><path d="M 10.000000000000014 -44.85 l 10 -10 l -30 0 l -10 10 l 30 0 z"></path></g></g></g>
</svg>
