<svg xmlns="http://www.w3.org/2000/svg" viewBox="0 0 224.95 118.5" width="224.95" height="118.5" fill="currentColor" stroke="none">
<g transform="translate(112.475 59.25)"><g><g><path d="M -102.475 -29.549999999999997 l -10 10 l 0 60 l 10 -10 l 0 -60 z"></path><g><path d="M -102.425 -27.25 l 15 0 l 10 -10 l -17.4 0 l -17.65 17.7 l 0 7.3 q 5.4 -4.35 10 -2.75 l 0 -12.25 z"></path></g></g><g><path d="M -47.125 -29.549999999999997 l -7.5 7.5 l 31.25 31.25 l -31.25 31.25 l 40 0 l 10 -10 l -37.6 0 l 27.5 -27.6 l -32.4 -32.4 z"></path><g><path d="M -46.224999999999994 -27.949999999999996 l 11.2 -11.3 l -22.4 0 l -10 10.1 l 19.9 0 l -7.1 7.1 q 10.446 1.157 8.4 -5.9 z"></path></g><g><path d="M 0.5250000000000057 22.950000000000003 l -7.5 7.5 l -11.1 0 q 3.05 5.25 -1.5 10 l 5 0 l 8.8 -8.85 q 0.445 14.232 18.8 18.85 q -12.993 -10.704 -12.45 -27.5 z"></path></g><path d="M -17.19999999999999 -49.25 l 10 -10 l -30 0 l -10 10 l 30 0 z"></path></g><g><path d="M 41.224999999999994 -29.549999999999997 l -10 10 l 0 60 l 10 -10 l 0 -60 z"></path><g><path d="M 43.025000000000006 52.25 l -11.8 -11.8 l 10 -10 l 0 -5 q -5.188 7.964 -10 5 l 0 7.7 l -8.2 8.2 l 13 12.9 l 7 -7 z"></path></g></g><g><path d="M 112.42500000000001 -29.549999999999997 l -50 0 l -9.4 9.4 l 23.2 33.05 l 6.2 -6.25 l 0 33.8 l 10 -10 l 0 -36.15 l -1.1 1.1 q -2.967 2.977 -5.95 5.95 l -1.95 2 l -0.65 0.65 l -16.5 -23.5 l 36.2 0 l 10 -10 z"></path><path d="M 92.75 -39.55 l 10 -10 l -30 0 l -10 10 l 30 0 z"></path></g></g></g>
</svg>
