<svg xmlns="http://www.w3.org/2000/svg" viewBox="0 0 157.6 145.825" width="157.6" height="145.825" fill="currentColor" stroke="none">
<g transform="translate(78.8 72.9125)"><g><g><path d="M -62.500000000000014 -42.08749999999999 l -7.5 7.5 57.5 62.5 7.5 -7.5 -57.5 -62.5 z"></path><path d="M -68.80000000000001 -33.38749999999999 q 4.2 0.65 6.3 -2.7 q 0.8 -1 0 -6 l -6.3 6.3 l 0 -19.95 l -10 10.1 l 0 22.35 l 10 -10.1 z"></path><path d="M -40.000000000000014 37.91250000000001 l -10 10 l 0 25 l 10 -10 l 0 -25 z"></path></g><g><path d="M 60 -42.06249999999999 l -10 10 l 0 20 l -35 0 l -10 10 l 29.95 29.95 l 7.5 -7.5 l -22.45 -22.45 l 30 0 l 10 -10 l 0 -30 z"></path><g><path d="M 50 -32.0625 l 0 5 q 6.25 -9 10 -5 l 0 -7.6 l 11.8 11.7 l 7 -7 l -12.95 -12.95 l -15.85 15.85 z"></path></g><g><path d="M 37.54999999999998 37.88749999999999 l 17.4 0 l 10 -10 l -15 0 l 10 -10 l -20 0 q -7 -2.95 -7.6 0 q -1.65 2.7 2.6 10 l 12.55 0 l -9.95 10 z"></path></g><path d="M 34.39999999999999 -65.4125 l 7.5 7.5 l 7.5 -7.5 l -7.5 -7.5 l -7.5 7.5 z"></path></g></g></g>
</svg>
