<svg xmlns="http://www.w3.org/2000/svg" viewBox="0 0 55.95 172.294907" width="55.95" height="172.294907" fill="currentColor" stroke="none">
<g transform="translate(27.975 86.147453)"><g><g><path d="M 12.025000000000002 -40.6 l -10 10 l 0 20 l -20 0 l -10 10 l 0 30 l 30 0 l 10 -10 l -30 0 l 0 -20 l 20 0 l 10 -10 l 0 -30 z"></path><g><path d="M 12.025000000000002 -60.6 l -10 10 l 0 20 q 7.3 5 10 -10 l 0 -20 z"></path></g><g><path d="M -2.5249999999999986 29.4 l 4.55 0 l 8.8 -8.8 l 10 10 l 7.15 -7.15 l -11.3 -11.2 l -7.05 7.15 l -6.3 0 q 3.7 5 -5.85 10 z"></path></g><path d="M -7.599999999999998 50.6 l 8.8 -8.8 l -1.2 -1.2 l -20 20 l 30 0 l 10 -10 l -27.6 0 z"></path></g></g></g>
</svg>
