<svg xmlns="http://www.w3.org/2000/svg" viewBox="0 0 86.35 172.294907" width="86.35" height="172.294907" fill="currentColor" stroke="none">
<g transform="translate(43.175 86.145185)"><g><g><path d="M -3.8249999999999957 12.749489795918363 l 7.45 -7.5 27.05 34.4 7.5 -7.5 -27.8 -36 -7.75 7.8 -26.95 -34.3 -7.5 7.5 28 35.6 z"></path><path d="M -23.174999999999997 -29.150510204081634 l 7.5 -7.55 q -17.7 -8.5 -27.5 7.5 q 11.7 -7.3 18.85 -1.15 l -3.7 3.65 q 1.81 1.308 4.55 2.1 q 1.8 0.5 0.3 -4.55 z"></path><path d="M -29.324999999999996 19.649489795918363 l 20 20 l 7.5 -7.5 l -20 -20 l -7.5 7.5 z"></path><path d="M 33.175 -20.350510204081637 l 10 -10 l -30 0 l -10 10 l 30 0 z"></path></g></g></g>
</svg>
