<svg xmlns="http://www.w3.org/2000/svg" viewBox="0 0 412 125.025" width="412" height="125.025" fill="currentColor" stroke="none">
<g transform="translate(206 62.5125)"><g><g><path d="M -178.00000000000003 5.612499999999995 l 7.45 -7.5 27.05 34.4 7.5 -7.5 -27.8 -36 -7.75 7.8 -26.95 -34.3 -7.5 7.5 28 35.6 z"></path></g><g><path d="M -76.00000000000003 -27.487500000000004 l 10 -10 l -50 0 l -10 10 l 0 35 l 10 -10 l 15 0 l 0 35 l 10 -10 l 0 -35 l -17.35 0 l -7.65 7.6 l 0 -22.6 l 40 0 z"></path><g><path d="M -101.00000000000003 17.512499999999996 l 0 15 l 15 0 l 10 -10 l -15 0 l 0 -10 q -3.874 7.753 -10 5 z"></path></g><path d="M -86.00000000000003 52.512499999999996 l 10 -10 l -30 0 l -10 10 l 30 0 z"></path></g><g><path d="M -46.10000000000005 -37.5125 l -9.9 9.95 l 47.35 58.35 l 0.05 0 l 1.4 1.75 l 7.5 -7.5 l -42.7 -52.55 l 52.05 0 l 10 -10 l -65.75 0 z"></path><path d="M -25.67500000000004 -55.0125 l 7.5 7.5 l 7.5 -7.5 l -7.5 -7.5 l -7.5 7.5 z"></path><path d="M -8.17500000000004 52.53750000000001 l 10 -10 l -30 0 l -10 10 l 30 0 z"></path></g><g><path d="M 47.150000000000006 -37.487500000000004 l -10 10 l 0 30 l 30 30 l 7.5 -7.5 l -27.5 -27.5 l 0 -35 z"></path><g><path d="M 37.150000000000006 -16.287500000000005 q 5 -12.14 10 -11.2 l 0 -10 l -17.5 17.5 l 1.2 1.2 l 6.3 -6.3 l 0 8.8 z"></path></g><g><path d="M 73.45000000000002 23.812499999999996 q -6.486 -1.216 -4.75 5 q 2.924 -3.894 5.95 -3.8 l 8.8 -8.8 l 0 -15 l -10 10 l 0 12.6 z"></path></g><path d="M 66.55000000000004 -47.487500000000004 l 10 -10 l -30 0 l -10 10 l 30 0 z"></path><path d="M 48.95000000000002 52.512499999999996 l 8.8 -8.8 l -1.2 -1.2 l -20 20 l 30 0 l 10 -10 l -27.6 0 z"></path></g><g><path d="M 136.00000000000003 -13.637500000000005 l -10 10 l 0 -33.85 l -10 10 l 0 36.2 l 10 -9.95 l 0 33.75 l 10 -10 l 0 -36.15 z"></path><g><path d="M 136.00000000000003 22.512499999999996 l 0 -7.3 q -4.546 5.888 -10 3.05 l 0 11.95 l -15.05 0 l -17.5 17.5 l 1.2 1.2 l 8.7 -8.7 l 15 0 l 17.65 -17.7 z"></path></g></g><g><path d="M 173.95000000000002 -52.487500000000004 l -7.5 7.5 l 21.65 27.5 l 7.45 -7.5 l -21.6 -27.5 z"></path><path d="M 156.00000000000003 -7.487500000000004 l -10 10 l 50 0 l 10 -10 l -50 0 z"></path></g></g></g>
</svg>
