<svg xmlns="http://www.w3.org/2000/svg" viewBox="0 0 59.95 172.294907" width="59.95" height="172.294907" fill="currentColor" stroke="none">
<g transform="translate(29.975 86.147453)"><g><g fill="currentColor"><path d="M 25.025 -28.07499999999999 l -10 10 l 0 20 l -35 0 l -10 10 l 29.95 29.95 l 7.5 -7.5 l -22.45 -22.45 l 30 0 l 10 -10 l 0 -30 z"></path><g><path d="M 25.025 -12.424999999999997 l 0 -15.65 l -10 10.05 q -10.8 -2.6 -16.2 -18.85 q -0.35 21.9 9.85 27.5 l 6.35 -6.35 l 0 8.1 q 4.8 -9.5 10 -4.8 z"></path></g><g><path d="M 7.475000000000001 34.37499999999999 q -6.8 0.5 -7.5 7.5 l 15 15 l 15 -15 l -1.2 -1.2 l -7.5 7.5 l -13.8 -13.8 z"></path></g><path d="M 10 -46.87499999999999 l 10 -10 l -30 0 l -10 10 l 30 0 z"></path></g></g></g>
</svg>
