<svg xmlns="http://www.w3.org/2000/svg" viewBox="0 0 62.35 172.294907" width="62.35" height="172.294907" fill="currentColor" stroke="none">
<g transform="translate(31.175 86.147453)"><g><g><path d="M -13.675 -26.17499999999999 l -10 10 l 0 40 l 9.55 -9.55 l 20.65 29.4 l 7.5 -7.5 l -21.6 -30.85 l -6.1 6.1 l 0 -37.6 z"></path><g><path d="M -23.675 -4.974999999999998 q 5 -12.14 10 -11.2 l 0 -10 l -17.5 17.5 l 1.2 1.2 l 6.3 -6.3 l 0 8.8 z"></path></g><g><path d="M 9.025000000000002 41.175 l 5 -5 l 10 10 l 7.15 -7.15 l -11.3 -11.2 l -7 7.1 l -1 1 q -3.183 -1.742 -3.85 0 q -0.916 1.293 0 6.25 z"></path></g><path d="M 9.999999999999996 -36.175 l 10 -10 l -30 0 l -10 10 l 30 0 z"></path></g></g></g>
</svg>
