<svg xmlns="http://www.w3.org/2000/svg" viewBox="0 0 556.8 118.675" width="556.8" height="118.675" fill="currentColor" stroke="none">
<g transform="translate(278.4 59.3375)"><g><g><path d="M -255.99999999999997 -39.33749999999999 l -10 10 l 0 60 l 10 -10 l 0 -60 z"></path><g><path d="M -278.4 40.66250000000001 l 22.4 0 l 10 -10.1 l -19.9 0 l -0.1 0.1 l 0 -0.1 l 0.05 0 l 9.95 -9.9 l 0 -5 q -5 5.774 -10 5 l 0 7.55 l -12.4 12.4 z"></path></g></g><g><path d="M -193.45 -39.33749999999999 l -10 10 l 0 60 l 10 -10 l 0 -50 l 30 0 l 10 -10 l -40 0 z"></path><g><path d="M -193.45 20.66250000000001 l 0 -7.3 q -4.546 5.888 -10 3.05 l 0 11.95 l -15.05 0 l -17.5 17.5 l 1.2 1.2 l 8.7 -8.7 l 15 0 l 17.65 -17.7 z"></path></g><path d="M -184.72499999999997 -49.33749999999999 l 10 -10 l -30 0 l -10 10 l 30 0 z"></path></g><g><path d="M -133.45 -39.33749999999999 l -10 10 l 0 60 l 10 -10 l 0 -60 z"></path><g><path d="M -143.45 15.662500000000009 l 0 15 l 15 0 l 10 -10 l -15 0 l 0 -10 q -3.874 7.753 -10 5 z"></path></g></g><g><path d="M -53.44999999999999 -39.31249999999999 l -10 10 l 0 20 l -35 0 l -10 10 l 29.95 29.95 l 7.5 -7.5 l -22.45 -22.45 l 30 0 l 10 -10 l 0 -30 z"></path><g><path d="M -81.1 20.63749999999999 q -1.655 2.716 2.6 10 l 15 0 l 10 -10 l -20 0 q -7.015 -2.931 -7.6 0 z"></path></g><path d="M -70.94999999999999 -49.3125 l 10 -10 l -30 0 l -10 10 l 30 0 z"></path></g><g><path d="M -21.05000000000001 -39.33749999999999 l -10 10 l 0 60 l 10 -10 l 0 -60 z"></path><g><path d="M -43.44999999999999 40.66250000000001 l 22.4 0 l 10 -10.1 l -19.9 0 l -0.1 0.1 l 0 -0.1 l 0.05 0 l 9.95 -9.9 l 0 -5 q -5 5.774 -10 5 l 0 7.55 l -12.4 12.4 z"></path></g></g><g><path d="M 58.349999999999966 -39.33749999999999 l -50 0 l -9.4 9.4 l 23.2 33.05 l 6.2 -6.25 l 0 33.8 l 10 -10 l 0 -36.15 l -1.1 1.1 q -2.967 2.977 -5.95 5.95 l -1.95 2 l -0.65 0.65 l -16.5 -23.5 l 36.2 0 l 10 -10 z"></path><g><path d="M 38.349999999999966 38.26250000000001 l 0 -17.6 q -7.3 -5 -10 10 l 0 20 l 17.5 -17.5 l -1.2 -1.2 l -6.3 6.3 z"></path></g><path d="M 38.674999999999955 -49.33749999999999 l 10 -10 l -30 0 l -10 10 l 30 0 z"></path></g><g><path d="M 96.39999999999998 3.762500000000008 l 7.45 -7.5 27.05 34.4 7.5 -7.5 -27.8 -36 -7.75 7.8 -26.95 -34.3 -7.5 7.5 28 35.6 z"></path><path d="M 80.89999999999998 13.162500000000009 l -10 10 l 0 25 l 10 -10 l 0 -25 z"></path></g><g><path d="M 203.39999999999998 -39.31249999999999 l -10 10 l 0 20 l -35 0 l -10 10 l 29.95 29.95 l 7.5 -7.5 l -22.45 -22.45 l 30 0 l 10 -10 l 0 -30 z"></path><g><path d="M 175.75 20.63749999999999 q -1.65 2.7 2.6 10 l 12.6 0 l -7.5 7.5 l 1.2 1.2 l 18.7 -18.7 l -20 0 q -7 -2.95 -7.6 0 z"></path></g><path d="M 185.89999999999998 59.33749999999999 l 10 -10 l -30 0 l -10 10 l 30 0 z"></path></g><g><path d="M 268.4 30.66250000000001 l 10 -10 l 0 -60 l -10 10 l 0 50 l -30 0 l -10 10 l 40 0 z"></path><g><path d="M 233.39999999999998 20.66250000000001 l -12.5 -12.5 l -7.5 7.5 l 15 15 q 8.65 -2.75 10 -10 l -5 0 z"></path></g><path d="M 238.39999999999998 48.16250000000001 l 7.5 7.5 l 7.5 -7.5 l -7.5 -7.5 l -7.5 7.5 z"></path></g></g></g>
</svg>
