<svg xmlns="http://www.w3.org/2000/svg" viewBox="0 0 57.6 172.294907" width="57.6" height="172.294907" fill="currentColor" stroke="none">
<g transform="translate(28.8 86.147453)"><g><g><path d="M -18.799999999999997 -44.4 l -10 10 l 0 36.3 l 10 -10.05 l 0 33.75 l 10 -10 l 0 -36.15 l -10 10 l 0 -23.85 l 30 0 l 10 -10 l -40 0 z"></path><g><path d="M 12.5 -48.3 l 6.3 -6.3 l 0 10.2 l -13.5 0 q 5.808 4.7 0.35 10 l 5.55 0 l 17.6 -17.6 l 0 -15 l -17.5 17.5 l 1.2 1.2 z"></path></g><g><path d="M -15.099999999999998 42 l 16.3 -16.3 l 0 -22.45 l -10 10 l 0 -5.15 q -5 6.1 -10 2.5 l 0 15 l 10 -10 l 0 17.7 l -7.5 7.5 l 1.2 1.2 z"></path></g><path d="M -7.4999999999999964 59.50000000000001 l 7.5 7.5 l 7.5 -7.5 l -7.5 -7.5 l -7.5 7.5 z"></path></g></g></g>
</svg>
