<svg xmlns="http://www.w3.org/2000/svg" viewBox="0 0 346.85 134" width="346.85" height="134" fill="currentColor" stroke="none">
<g transform="translate(173.425 67)"><g><g><path d="M -165.92499999999998 -44.4 l -7.5 7.5 57.5 62.5 7.5 -7.5 -57.5 -62.5 z"></path></g><g><path d="M -88.42499999999998 -44.4 l -10 10 l 0 36.3 l 10 -10.05 l 0 33.75 l 10 -10 l 0 -36.15 l -10 10 l 0 -23.85 l 30 0 l 10 -10 l -40 0 z"></path><g><path d="M -57.124999999999986 -48.3 l 6.3 -6.3 l 0 10.2 l -13.5 0 q 5.808 4.7 0.35 10 l 5.55 0 l 17.6 -17.6 l 0 -15 l -17.5 17.5 l 1.2 1.2 z"></path></g><g><path d="M -84.72499999999998 42 l 16.3 -16.3 l 0 -22.45 l -10 10 l 0 -5.15 q -5 6.1 -10 2.5 l 0 15 l 10 -10 l 0 17.7 l -7.5 7.5 l 1.2 1.2 z"></path></g><path d="M -77.12499999999999 59.50000000000001 l 7.5 7.5 l 7.5 -7.5 l -7.5 -7.5 l -7.5 7.5 z"></path></g><g><path d="M -2.875 -59.4 l -7.5 7.5 l 21.65 27.5 l 7.45 -7.5 l -21.6 -27.5 z"></path><path d="M -20.82499999999999 -14.399999999999999 l -10 10 l 50 0 l 10 -10 l -50 0 z"></path></g><g><path d="M 61.57500000000002 -44.4 l -10 10 l 0 60 l 10 -10 l 0 -60 z"></path><g><path d="M 39.17500000000001 35.6 l 22.4 0 l 10 -10.1 l -19.9 0 l -0.1 0.1 l 0 -0.1 l 0.05 0 l 9.95 -9.9 l 0 -5 q -5 5.774 -10 5 l 0 7.55 l -12.4 12.4 z"></path></g></g><g><path d="M 147.225 -34.325 l 10 -10 l -65.75 0 l -9.9 9.95 l 30.45 37.55 l 7.25 -7.3 l 24.15 29.65 l 7.45 -7.4 l -25.2 -31.05 l -7.5 7.45 l -23.1 -28.85 l 52.15 0 z"></path><g><path d="M 150.92499999999998 18.025 q -6.8 0.5 -7.5 7.5 l 15 15 l 15 -15 l -1.2 -1.2 l -7.5 7.5 l -13.8 -13.8 z"></path></g><path d="M 137.50000000000003 -54.324999999999996 l 10 -10 l -30 0 l -10 10 l 30 0 z"></path></g></g></g>
</svg>
