<svg xmlns="http://www.w3.org/2000/svg" viewBox="0 0 52.05 172.294907" width="52.05" height="172.294907" fill="currentColor" stroke="none">
<g transform="translate(26.025 86.147453)"><g><g><path d="M -8.524999999999999 -29.974999999999998 l 0 25 l -8.45 8.45 l 26.7 26.65 l 7.5 -7.5 l -25.5 -25.5 l 9.75 -9.7 l 0 -27.4 l -10 10 z"></path><g><path d="M 1.4750000000000014 -39.974999999999994 l 0 0.1 l -0.05 0 l -9.95 9.9 l 0 5 q 5 -5.75 10 -5 l 0 -7.55 l 12.4 -12.45 l -22.4 0 l -17.5 17.5 l 1.2 1.2 l 8.6 -8.6 l 17.6 0 l 0.1 -0.1 z"></path></g><g><path d="M 16.025 41.275 l -7.5 7.5 l 1.2 1.2 l 16.3 -16.3 l 0 -22.35 l -10 10.1 q -4.2 -0.65 -6.3 2.7 q -0.8 1 0 6 l 6.3 -6.3 l 0 17.45 z"></path></g></g></g></g>
</svg>
