<svg xmlns="http://www.w3.org/2000/svg" viewBox="0 0 237.4 123.65" width="237.4" height="123.65" fill="currentColor" stroke="none">
<g transform="translate(118.7 61.825)"><g><g><path d="M -111.2 -36.849999999999994 l -7.5 7.5 57.5 62.5 7.5 -7.5 -57.5 -62.5 z"></path></g><g><path d="M -43.7 33.12500000000001 l 10 -10 l 0 -20 l 35 0 l 10 -10 l -29.95 -29.95 l -7.5 7.5 l 22.45 22.45 l -30 0 l -10 10 l 0 30 z"></path><path d="M -23.700000000000003 -54.32499999999999 l 7.5 7.5 l 7.5 -7.5 l -7.5 -7.5 l -7.5 7.5 z"></path></g><g><path d="M 76.3 -36.824999999999996 l -10 10 l 0 20 l -35 0 l -10 10 l 29.95 29.95 l 7.5 -7.5 l -22.45 -22.45 l 30 0 l 10 -10 l 0 -30 z"></path><g><path d="M 48.64999999999999 23.124999999999986 q -1.65 2.7 2.6 10 l 12.6 0 l -7.5 7.5 l 1.2 1.2 l 18.7 -18.7 l -20 0 q -7 -2.95 -7.6 0 z"></path></g><path d="M 58.8 61.82499999999999 l 10 -10 l -30 0 l -10 10 l 30 0 z"></path></g><g><path d="M 108.7 -36.849999999999994 l -10 10 l 0 60 l 10 -10 l 0 -60 z"></path><g><path d="M 86.3 43.150000000000006 l 22.4 0 l 10 -10.1 l -19.9 0 l -0.1 0.1 l 0 -0.1 l 0.05 0 l 9.95 -9.9 l 0 -5 q -5 5.774 -10 5 l 0 7.55 l -12.4 12.4 z"></path></g></g></g></g>
</svg>
