<svg xmlns="http://www.w3.org/2000/svg" viewBox="0 0 62.35 172.294907" width="62.35" height="172.294907" fill="currentColor" stroke="none">
<g transform="translate(31.175 86.147453)"><g><g><path d="M 21.175 4.625 l 10 -10 l -29.85 -29.85 l -7.5 7.5 l 22.35 22.35 l -20 0 l -15 15 l 25.6 25.6 l 7.5 -7.5 l -23.1 -23.1 l 30 0 z"></path><g><path d="M 3.9250000000000007 -25.225 q 1.65 -2.7 -2.6 -10 l -15 0 l -17.5 17.5 l 1.2 1.2 l 8.7 -8.7 l 17.6 0 q 7 2.95 7.6 0 z"></path></g><g><path d="M 13.075 26.525000000000002 q -6.486 -1.216 -4.75 5 q 2.924 -3.894 5.95 -3.8 l 8.8 -8.8 l 0 -15 l -10 10 l 0 12.6 z"></path></g></g></g></g>
</svg>
