<svg xmlns="http://www.w3.org/2000/svg" viewBox="0 0 167.35 90.225" width="167.35" height="90.225" fill="currentColor" stroke="none">
<g transform="translate(83.675 45.1125)"><g><g><path d="M -36.175 25.112500000000004 l 7.5 -7.5 -26.9 -26.9 7.45 -7.55 -28.05 -28.05 -7.5 7.5 26.9 26.9 -7.5 7.5 28.1 28.1 z"></path><path d="M -53.675 45.112500000000004 l 10 -10 l -30 0 l -10 10 l 30 0 z"></path></g><g><path d="M 33.675 -5.262499999999996 l 10 -10 l -29.85 -29.85 l -7.5 7.5 l 22.35 22.35 l -20 0 l -15 15 l 25.6 25.6 l 7.5 -7.5 l -23.1 -23.1 l 30 0 z"></path><g><path d="M 16.424999999999997 -35.1125 q 1.65 -2.7 -2.6 -10 l -15 0 l -17.5 17.5 l 1.2 1.2 l 8.7 -8.7 l 17.6 0 q 7 2.95 7.6 0 z"></path></g><g><path d="M 25.575000000000003 16.637500000000006 q -6.486 -1.216 -4.75 5 q 2.924 -3.894 5.95 -3.8 l 8.8 -8.8 l 0 -15 l -10 10 l 0 12.6 z"></path></g></g><g><path d="M 73.675 -21.037499999999994 l -10 10 l 0 -33.85 l -10 10 l 0 36.2 l 10 -9.95 l 0 33.75 l 10 -10 l 0 -36.15 z"></path><g><path d="M 63.675 22.712500000000006 l -7.5 7.55 q 16.8 -0.55 27.5 12.45 q -4.6 -18.35 -18.85 -18.8 l 8.85 -8.8 l 0 -5 q -4.75 4.55 -10 1.5 l 0 11.1 z"></path></g></g></g></g>
</svg>
