<svg xmlns="http://www.w3.org/2000/svg" viewBox="0 0 540.65 135.025" width="540.65" height="135.025" fill="currentColor" stroke="none">
<g transform="translate(270.325 67.5125)"><g><g><path d="M -242.32500000000005 -4.412500000000003 l 7.45 -7.5 27.05 34.4 7.5 -7.5 -27.8 -36 -7.75 7.8 -26.95 -34.3 -7.5 7.5 28 35.6 z"></path><path d="M -232.82500000000005 42.4875 l 10 -10 l -30 0 l -10 10 l 30 0 z"></path></g><g><path d="M -180.32500000000005 -47.5125 l -10 10 l 0 36.3 l 10 -10.05 l 0 33.75 l 10 -10 l 0 -36.15 l -10 10 l 0 -23.85 l 30 0 l 10 -10 l -40 0 z"></path><g><path d="M -180.32500000000005 6.837499999999999 l 0 15.65 l 10 -10 q 9.4 17.75 21.2 6.85 q -12.25 2.15 -14.85 -15.5 l -6.35 6.3 l 0 -8.1 q -4.8 9.5 -10 4.8 z"></path></g></g><g><path d="M -86.57500000000005 -45.0125 l -1.2 -1.2 l -6.3 6.3 l 0 -27.6 l -10 10 l 0 30 l 17.5 -17.5 z"></path><path d="M -120.32500000000005 -17.512500000000003 l -10 10 l 50 0 l 10 -10 l -50 0 z"></path></g><g><path d="M -52.825000000000045 -47.5125 l -7.5 7.5 57.5 62.5 7.5 -7.5 -57.5 -62.5 z"></path></g><g><path d="M 69.67499999999995 -47.487500000000004 l -10 10 l 0 20 l -35 0 l -10 10 l 29.95 29.95 l 7.5 -7.5 l -22.45 -22.45 l 30 0 l 10 -10 l 0 -30 z"></path><g><path d="M 69.67499999999995 -32.48750000000001 l 0 -15 l -12.6 0 l 7.5 -7.5 l -1.2 -1.2 l -18.7 18.7 l 15 0 l 0 10 q 3.85 -7.75 10 -5 z"></path></g><g><path d="M 50.924999999999955 13.762499999999978 q -6.486 -1.216 -4.75 5 q 2.924 -3.894 5.95 -3.8 l 8.8 -8.8 l 0 -15 l -10 10 l 0 12.6 z"></path></g><path d="M 52.174999999999955 42.46249999999998 l 10 -10 l -30 0 l -10 10 l 30 0 z"></path></g><g><path d="M 99.67499999999995 -23.6625 l -10 10 l 0 -33.85 l -10 10 l 0 36.2 l 10 -9.95 l 0 33.75 l 10 -10 l 0 -36.15 z"></path><g><path d="M 89.67499999999995 7.487499999999997 l 0 15 l 12.6 0 l -7.5 7.5 l 1.2 1.2 l 18.7 -18.7 l -15 0 l 0 -10 q -3.85 7.75 -10 5 z"></path></g></g><g><path d="M 134.57499999999993 -47.5375 l -9.9 9.95 l 47.35 58.35 l 0.05 0 l 1.4 1.75 l 7.5 -7.5 l -42.7 -52.55 l 52.05 0 l 10 -10 l -65.75 0 z"></path><path d="M 152.49999999999994 42.51250000000001 l 0 25 l 20 -20 l -1.2 -1.2 l -8.8 8.8 l 0 -22.6 l -10 10 z"></path></g><g><path d="M 230.325 -37.5125 q -0.1 -10.25 13.15 -13.1 l -1.2 -1.1 q -22.3 -0.55 -21.95 24.2 l 37.6 0 l -7.5 7.5 l 1.2 1.2 l 18.7 -18.7 l -40 0 z"></path><path d="M 220.325 -17.512500000000003 l -10 10 l 50 0 l 10 -10 l -50 0 z"></path></g></g></g>
</svg>
