<svg xmlns="http://www.w3.org/2000/svg" viewBox="0 0 617.4 129.7" width="617.4" height="129.7" fill="currentColor" stroke="none">
<g transform="translate(308.7 64.85)"><g><g><path d="M -280.7000000000001 3.2500000000000053 l 7.45 -7.5 27.05 34.4 7.5 -7.5 -27.8 -36 -7.75 7.8 -26.95 -34.3 -7.5 7.5 28 35.6 z"></path><path d="M -248.8000000000001 20.150000000000006 q -1.655 2.716 2.6 10 l 15 0 l 10 -10 l -20 0 q -7.015 -2.931 -7.6 0 z"></path><path d="M -306.2000000000001 10.150000000000006 l 20 20 l 7.5 -7.5 l -20 -20 l -7.5 7.5 z"></path><path d="M -288.7000000000001 47.650000000000006 l 7.5 7.5 l 7.5 -7.5 l -7.5 -7.5 l -7.5 7.5 z"></path></g><g><path d="M -156.2000000000001 -39.824999999999996 l -10 10 l 0 20 l -35 0 l -10 10 l 29.95 29.95 l 7.5 -7.5 l -22.45 -22.45 l 30 0 l 10 -10 l 0 -30 z"></path><g><path d="M -174.9500000000001 21.424999999999986 q -6.486 -1.216 -4.75 5 q 2.924 -3.894 5.95 -3.8 l 8.8 -8.8 l 0 -15 l -10 10 l 0 12.6 z"></path></g></g><g><path d="M -128.0000000000001 -39.849999999999994 l -10 10 l 0 60 l 10 -10 l 0 -60 z"></path><g><path d="M -126.2000000000001 41.95 l -11.8 -11.8 l 10 -10 l 0 -5 q -5.188 7.964 -10 5 l 0 7.7 l -8.2 8.2 l 13 12.9 l 7 -7 z"></path></g></g><g><path d="M -66.2000000000001 -29.849999999999994 l 10 -10 l -50 0 l -10 10 l 0 35 l 10 -10 l 15 0 l 0 35 l 10 -10 l 0 -35 l -17.35 0 l -7.65 7.6 l 0 -22.6 l 40 0 z"></path><path d="M -76.2000000000001 -49.849999999999994 l 10 -10 l -30 0 l -10 10 l 30 0 z"></path></g><g><path d="M -9.400000000000091 3.2500000000000053 l 7.45 -7.5 27.05 34.4 7.5 -7.5 -27.8 -36 -7.75 7.8 -26.95 -34.3 -7.5 7.5 28 35.6 z"></path><path d="M -36.2000000000001 -31.149999999999995 q 6.486 1.216 4.75 -5 q -2.924 3.894 -5.95 3.8 l -8.8 8.8 l 0 15 l 10 -10 l 0 -12.6 z"></path><path d="M 29.549999999999898 23.750000000000007 q -1.825 3.28 -4.45 6.4 l -7.5 7.5 l -1.2 -1.2 l 7.5 -7.5 q -1.688 -4.106 -0.35 -4.55 q 1.45 -0.6 6 -0.65 z"></path></g><g><path d="M 101.99999999999994 -39.849999999999994 l -50 0 l -9.4 9.4 l 23.2 33.05 l 6.2 -6.25 l 0 33.8 l 10 -10 l 0 -36.15 l -1.1 1.1 q -2.967 2.977 -5.95 5.95 l -1.95 2 l -0.65 0.65 l -16.5 -23.5 l 36.2 0 l 10 -10 z"></path><g><path d="M 71.99999999999994 50.150000000000006 l 10 -10 l 0 -20 q -7.3 -5 -10 10 l 0 20 z"></path></g></g><g><path d="M 154.54999999999995 30.150000000000006 l 7.5 -7.5 l -31.25 -31.25 l 31.25 -31.25 l -40 0 l -10 10 l 37.6 0 l -27.5 27.6 l 32.4 32.4 z"></path><g><path d="M 153.64999999999998 28.550000000000004 l -11.2 11.3 l 22.4 0 l 10 -10.1 l -19.9 0 l 7.1 -7.1 q -10.446 -1.157 -8.4 5.9 z"></path></g><path d="M 135.94999999999993 -57.349999999999994 l 7.5 7.5 l 7.5 -7.5 l -7.5 -7.5 l -7.5 7.5 z"></path><path d="M 135.94999999999993 57.35000000000001 l 7.5 7.5 l 7.5 -7.5 l -7.5 -7.5 l -7.5 7.5 z"></path></g><g><path d="M 194.84999999999997 -39.849999999999994 l -10 10 l 0 60 l 10 -10 l 0 -60 z"></path><g><path d="M 194.89999999999998 -37.55 l 15 0 l 10 -10 l -17.4 0 l -17.65 17.7 l 0 7.3 q 5.4 -4.35 10 -2.75 l 0 -12.25 z"></path></g></g><g><path d="M 239.80000000000013 -39.87499999999999 l -9.9 9.95 l 47.35 58.35 l 0.05 0 l 1.4 1.75 l 7.5 -7.5 l -42.7 -52.55 l 52.05 0 l 10 -10 l -65.75 0 z"></path><g><path d="M 286.2000000000001 22.67500000000002 q -6.8 0.5 -7.5 7.5 l 15 15 l 15 -15 l -1.2 -1.2 l -7.5 7.5 l -13.8 -13.8 z"></path></g><path d="M 279.3000000000001 -49.87499999999999 l 10 -10 l -30 0 l -10 10 l 30 0 z"></path></g></g></g>
</svg>
