<svg xmlns="http://www.w3.org/2000/svg" viewBox="0 0 309.15 140.05" width="309.15" height="140.05" fill="currentColor" stroke="none">
<g transform="translate(154.575 70.025)"><g><g><path d="M -126.57499999999999 -1.9000000000000075 l 7.45 -7.5 27.05 34.4 7.5 -7.5 -27.8 -36 -7.75 7.8 -26.95 -34.3 -7.5 7.5 28 35.6 z"></path></g><g><path d="M -47.42499999999998 -45.00000000000001 l -10 10 l 0 35 l 19.95 0 l -24.95 25 l 40 0 l 10 -10 l -37.6 0 l 24.85 -25 l -22.25 0 l 0 -35 z"></path><g><path d="M -57.07499999999999 -32.900000000000006 q 0.375 -0.363 1.15 -1.15 q 6.261 -1.099 8.5 3.8 l 0 -14.75 l -10 10 l -10 -10 l -7.15 7.15 l 11.3 11.2 l 5.85 -5.9 q 0.04 -0.029 0.35 -0.35 z"></path></g><g><path d="M -21.125 43.74999999999999 l 16.3 -16.3 l 0 -22.45 l -10 10 l -12.6 0 q 3.5 4 0 10 l 5 0 l 7.6 -7.65 l 0 17.7 l -7.5 7.5 l 1.2 1.2 z"></path></g><path d="M -47.19999999999999 61.24999999999999 l 7.5 7.5 l 7.5 -7.5 l -7.5 -7.5 l -7.5 7.5 z"></path></g><g><path d="M 15.074999999999989 -45.025000000000006 l -9.9 9.95 l 47.35 58.35 l 0.05 0 l 1.4 1.75 l 7.5 -7.5 l -42.7 -52.55 l 52.05 0 l 10 -10 l -65.75 0 z"></path><g><path d="M 68.975 40.025000000000006 l 7.5 -7.5 l -15 -15 q -6.8 0.5 -7.5 7.5 l 15 15 z"></path></g><path d="M 35.5 -62.525000000000006 l 7.5 7.5 l 7.5 -7.5 l -7.5 -7.5 l -7.5 7.5 z"></path><path d="M 35.400000000000006 60.025 l 8.8 -8.8 l -1.2 -1.2 l -20 20 l 30 0 l 10 -10 l -27.6 0 z"></path></g><g><path d="M 97.07499999999999 -35.00000000000001 q 24.3 9.1 15 21.3 l 1.25 1.15 q 15.85 -14.1 3.75 -22.45 l 20 0 l 17.5 -17.5 l -1.2 -1.2 l -8.7 8.7 l -37.6 0 l -10 10 z"></path><path d="M 100.82499999999999 -15.000000000000007 l -10 10 l 50 0 l 10 -10 l -50 0 z"></path></g></g></g>
</svg>
