<svg xmlns="http://www.w3.org/2000/svg" viewBox="0 0 601.7 140.025" width="601.7" height="140.025" fill="currentColor" stroke="none">
<g transform="translate(300.85 70.0125)"><g><g><path d="M -293.35 -44.9875 l -7.5 7.5 57.5 62.5 7.5 -7.5 -57.5 -62.5 z"></path></g><g><path d="M -152.60000000000002 25.0375 l 9.9 -9.95 l -47.35 -58.35 l -0.05 0 l -1.4 -1.75 l -7.5 7.5 l 42.7 52.55 l -52.05 0 l -10 10 l 65.75 0 z"></path><g><path d="M -198.35000000000002 15.037500000000009 l -10 0 l -17.5 17.5 l 1.2 1.2 l 8.7 -8.7 l 7.6 0 q -0.83 -5.4 10 -10 z"></path></g><path d="M -191.77500000000003 -62.5125 l 7.5 7.5 l 7.5 -7.5 l -7.5 -7.5 l -7.5 7.5 z"></path></g><g><path d="M -77.70000000000002 -44.9625 l -10 10 l 0 20 l -35 0 l -10 10 l 29.95 29.95 l 7.5 -7.5 l -22.45 -22.45 l 30 0 l 10 -10 l 0 -30 z"></path><g><path d="M -77.70000000000002 -29.962500000000006 l 0 -15 l -15 0 l -10 10 l 15 0 l 0 10 q 3.874 -7.753 10 -5 z"></path></g><g><path d="M -96.45000000000002 16.287499999999984 q -6.486 -1.216 -4.75 5 q 2.924 -3.894 5.95 -3.8 l 8.8 -8.8 l 0 -15 l -10 10 l 0 12.6 z"></path></g><path d="M -95.20000000000002 44.98749999999998 l 10 -10 l -30 0 l -10 10 l 30 0 z"></path></g><g><path d="M -45.30000000000001 -44.9875 l -10 10 l 0 60 l 10 -10 l 0 -60 z"></path><g><path d="M -67.70000000000002 35.0125 l 22.4 0 l 10 -10.1 l -19.9 0 l -0.1 0.1 l 0 -0.1 l 0.05 0 l 9.95 -9.9 l 0 -5 q -5 5.774 -10 5 l 0 7.55 l -12.4 12.4 z"></path></g></g><g><path d="M -17.80000000000001 -44.9875 l -7.5 7.5 57.5 62.5 7.5 -7.5 -57.5 -62.5 z"></path><path d="M 9.699999999999989 45.0125 l 10 -10 l -30 0 l -10 10 l 30 0 z"></path></g><g><path d="M 59.69999999999999 -44.912499999999994 l -10 10 l 0 40 l 9.55 -9.55 l 20.65 29.4 l 7.5 -7.5 l -21.6 -30.85 l -6.1 6.1 l 0 -37.6 z"></path><g><path d="M 59.69999999999999 -44.9125 l -10 10 l 0 10 q 3.499 -7.753 10 -5 l 0 -5 l 10 0 l 10 -10 l -20 0 z"></path></g><g><path d="M 86.19999999999999 36.08749999999999 l -7.5 7.5 l 1.2 1.2 l 16.3 -16.3 l 0 -22.35 l -10 10.1 q -4.2 -0.65 -6.3 2.7 q -0.8 1 0 6 l 6.3 -6.3 l 0 17.45 z"></path></g></g><g><path d="M 130.84999999999997 -44.9875 l -7.5 7.5 57.5 62.5 7.5 -7.5 -57.5 -62.5 z"></path><path d="M 128.34999999999997 -42.4875 l -5 5 l -10 -10 l -7.15 7.15 l 11.3 11.2 l 7 -7.1 l 1 -1 q 3.183 1.742 3.85 0 q 0.916 -1.293 0 -6.25 z"></path><path d="M 123.34999999999997 5.012500000000003 l 20 20 l 7.5 -7.5 l -20 -20 l -7.5 7.5 z"></path></g><g><path d="M 253.35000000000002 -44.9625 l -10 10 l 0 20 l -35 0 l -10 10 l 29.95 29.95 l 7.5 -7.5 l -22.45 -22.45 l 30 0 l 10 -10 l 0 -30 z"></path><g><path d="M 225.69999999999993 14.987499999999983 q -1.655 2.716 2.6 10 l 15 0 l 10 -10 l -20 0 q -7.015 -2.931 -7.6 0 z"></path></g></g><g><path d="M 290.85 25.012500000000003 l 10 -10 l 0 -30 l -30 -30 l -7.5 7.5 l 27.5 27.5 l 0 35 z"></path><path d="M 274.6 -62.4875 l 7.5 7.5 l 7.5 -7.5 l -7.5 -7.5 l -7.5 7.5 z"></path><path d="M 272.1 45.0125 l 0 25 l 20 -20 l -1.2 -1.2 l -8.8 8.8 l 0 -22.6 l -10 10 z"></path></g></g></g>
</svg>
