<svg xmlns="http://www.w3.org/2000/svg" viewBox="0 0 62.7 172.294907" width="62.7" height="172.294907" fill="currentColor" stroke="none">
<g transform="translate(31.35 86.147453)"><g><g><path d="M -3.650000000000002 32.425 l 10 -10 l 0 -40 l -9.55 9.55 l -20.65 -29.4 l -7.5 7.5 l 21.6 30.85 l 6.1 -6.1 l 0 37.6 z"></path><g><path d="M 6.350000000000005 22.424999999999997 l 15 0 l 10 -10 l -17.45 0 l -7.6 7.6 l 0.05 -5.05 q -4.6 6.3 -10 4 l 0 13.45 l 9.95 -10 z"></path></g><path d="M 10.000000000000004 -47.425 l 10 -10 l -30 0 l -10 10 l 30 0 z"></path><path d="M -7.4999999999999964 49.925 l 7.5 7.5 l 7.5 -7.5 l -7.5 -7.5 l -7.5 7.5 z"></path></g></g></g>
</svg>
