<svg xmlns="http://www.w3.org/2000/svg" viewBox="0 0 202.8 136.05" width="202.8" height="136.05" fill="currentColor" stroke="none">
<g transform="translate(101.4 68.025)"><g><g><path d="M -93.9 -36.675 l -7.5 7.5 57.5 62.5 7.5 -7.5 -57.5 -62.5 z"></path><path d="M -76.4 -66.825 l -1.2 -1.2 l -16.3 16.3 l 0 15.05 l -7.5 7.5 q 11.45 4.9 8.7 -6.3 l 8.8 -8.9 l 0 -14.95 l 7.5 -7.5 z"></path><path d="M -36.400000000000006 -29.174999999999997 l 0 -25 l -20 20 l 1.2 1.2 l 8.8 -8.8 l 0 22.6 l 10 -10 z"></path><path d="M -58.900000000000006 -46.675 l 10 -10 l -30 0 l -10 10 l 30 0 z"></path></g><g><path d="M 28.599999999999994 -36.65 l -10 10 l 0 20 l -35 0 l -10 10 l 29.95 29.95 l 7.5 -7.5 l -22.45 -22.45 l 30 0 l 10 -10 l 0 -30 z"></path><g><path d="M 0.9499999999999886 23.299999999999983 q -1.65 2.7 2.6 10 l 12.6 0 l -7.5 7.5 l 1.2 1.2 l 18.7 -18.7 l -20 0 q -7 -2.95 -7.6 0 z"></path></g></g><g><path d="M 81.1 33.325 l 7.5 -7.5 l -31.25 -31.25 l 31.25 -31.25 l -40 0 l -10 10 l 37.6 0 l -27.5 27.6 l 32.4 32.4 z"></path><g><path d="M 80.19999999999999 31.725 l -11.2 11.3 l 22.4 0 l 10 -10.1 l -19.9 0 l 7.1 -7.1 q -10.446 -1.157 -8.4 5.9 z"></path></g><path d="M 62.5 60.525000000000006 l 7.5 7.5 l 7.5 -7.5 l -7.5 -7.5 l -7.5 7.5 z"></path></g></g></g>
</svg>
