<svg xmlns="http://www.w3.org/2000/svg" viewBox="0 0 80 100" width="80" height="100" fill="currentColor" stroke="none">
<g transform="translate(40 50)"><g><g><path d="M -30 -30 l -10 10 l 0 60 l 10 -10 l 0 -60 z"></path><g><path d="M -40 25 l 0 15 l 10 -10 l 0 20 l 10 -9.9 l 0 -22.4 l -10 9.95 l 0 -5.15 q -5 6.1 -10 2.5 z"></path></g></g><g><path d="M 5 -30 l -10 10 l 0 35 l 19.95 0 l -24.95 25 l 40 0 l 10 -10 l -37.6 0 l 24.85 -25 l -22.25 0 l 0 -35 z"></path><path d="M 25 -40 l 10 -10 l -30 0 l -10 10 l 30 0 z"></path></g></g></g>
</svg>
