<svg xmlns="http://www.w3.org/2000/svg" viewBox="0 0 62.65 172.294907" width="62.65" height="172.294907" fill="currentColor" stroke="none">
<g transform="translate(31.325 86.147453)"><g><g><path d="M 21.075 3.375 l 10 -10 l -29.85 -29.85 l -7.5 7.5 l 22.35 22.35 l -20 0 l -15 15 l 25.6 25.6 l 7.5 -7.5 l -23.1 -23.1 l 30 0 z"></path><g><path d="M -6.275000000000002 -28.975 l -15.05 0 l -10 10 l 17.45 0 l 8.75 -8.8 q 6.9 0.2 3.8 -6.15 l -4.95 4.95 z"></path></g><g><path d="M 9.175 31.475 l 5 -5 l 10 10 l 7.15 -7.15 l -11.3 -11.2 l -7 7.1 l -1 1 q -3.183 -1.742 -3.85 0 q -0.916 1.293 0 6.25 z"></path></g></g></g></g>
</svg>
