<svg xmlns="http://www.w3.org/2000/svg" viewBox="0 0 63.2 172.294907" width="63.2" height="172.294907" fill="currentColor" stroke="none">
<g transform="translate(31.6 86.147453)"><g><g><path d="M 23.4 -25.57499999999999 l -10 10 l 0 20 l -35 0 l -10 10 l 29.95 29.95 l 7.5 -7.5 l -22.45 -22.45 l 30 0 l 10 -10 l 0 -30 z"></path><g><path d="M 11.600000000000001 -37.37499999999999 l 11.8 11.8 l -10 10 l 0 5 q 5.188 -7.964 10 -5 l 0 -7.7 l 8.2 -8.2 l -13 -12.9 l -7 7 z"></path></g><g><path d="M -4.25 34.37499999999999 q -1.655 2.716 2.6 10 l 15 0 l 10 -10 l -20 0 q -7.015 -2.931 -7.6 0 z"></path></g></g></g></g>
</svg>
