<svg xmlns="http://www.w3.org/2000/svg" viewBox="0 0 57.5 172.294907" width="57.5" height="172.294907" fill="currentColor" stroke="none">
<g transform="translate(28.75 86.147453)"><g><g><path d="M -18.75 -20.65 l -10 10 l 0 60 l 10 -10 l 0 -50 l 30 0 l 10 -10 l -40 0 z"></path><g><path d="M 1.25 -10.649999999999999 l 10 0 l 17.5 -17.5 l -1.2 -1.2 l -8.7 8.7 l -7.6 0 q 0.83 5.4 -10 10 z"></path></g><g><path d="M -19.1 37.25 q -0.375 0.363 -1.15 1.15 q -6.261 1.099 -8.5 -3.8 l 0 14.75 l 10 -10 l 10 10 l 7.15 -7.15 l -11.3 -11.2 l -5.85 5.9 q -0.04 0.029 -0.35 0.35 z"></path></g><path d="M 10 -39.35 l 10 -10 l -30 0 l -10 10 l 30 0 z"></path></g></g></g>
</svg>
