<svg xmlns="http://www.w3.org/2000/svg" viewBox="0 0 200.65 148.65" width="200.65" height="148.65" fill="currentColor" stroke="none">
<g transform="translate(100.325 74.325)"><g><g fill="currentColor"><path d="M -92.82499999999999 -49.34999999999998 l -7.5 7.5 l 31.25 31.25 l -31.25 31.25 l 40 0 l 10 -10 l -37.6 0 l 27.5 -27.6 l -32.4 -32.4 z"></path><path d="M -65.32499999999999 -59.34999999999998 l 10 -10 l -30 0 l -10 10 l 30 0 z"></path><path d="M -85.32499999999999 40.65000000000002 l 0 25 l 20 -20 l -1.2 -1.2 l -8.8 8.8 l 0 -22.6 l -10 10 z"></path></g><g fill="currentColor"><path d="M 14.675000000000011 -49.32499999999998 l -10 10 l 0 20 l -35 0 l -10 10 l 29.95 29.95 l 7.5 -7.5 l -22.45 -22.45 l 30 0 l 10 -10 l 0 -30 z"></path><g><path d="M -12.974999999999994 10.625 q -1.65 2.7 2.6 10 l 12.6 0 l -7.5 7.5 l 1.2 1.2 l 18.7 -18.7 l -20 0 q -7 -2.95 -7.6 0 z"></path></g><path d="M -20.32499999999999 -66.82499999999999 l 7.5 7.5 l 7.5 -7.5 l -7.5 -7.5 l -7.5 7.5 z"></path><path d="M -22.82499999999999 49.325 l 0 25 l 20 -20 l -1.2 -1.2 l -8.8 8.8 l 0 -22.6 l -10 10 z"></path></g><g fill="currentColor"><path d="M 90.32499999999999 -39.27499999999998 l 10 -10 l -65.75 0 l -9.9 9.95 l 30.45 37.55 l 7.25 -7.3 l 24.15 29.65 l 7.45 -7.4 l -25.2 -31.05 l -7.5 7.45 l -23.1 -28.85 l 52.15 0 z"></path><path d="M 72.5 55.57500000000002 l 0 -25 l -20 20 l 1.2 1.2 l 8.8 -8.8 l 0 22.6 l 10 -10 z"></path></g></g></g>
</svg>
