<svg xmlns="http://www.w3.org/2000/svg" viewBox="0 0 280.65 120.05" width="280.65" height="120.05" fill="currentColor" stroke="none">
<g transform="translate(140.325 60.025)"><g><g><path d="M -132.825 -35.00000000000001 l -7.5 7.5 57.5 62.5 7.5 -7.5 -57.5 -62.5 z"></path></g><g><path d="M -55.32499999999999 -35.00000000000001 l -10 10 l 0 36.3 l 10 -10.05 l 0 33.75 l 10 -10 l 0 -36.15 l -10 10 l 0 -23.85 l 30 0 l 10 -10 l -40 0 z"></path><g><path d="M -55.32499999999999 19.999999999999993 l 0 15 l 12.6 0 l -7.5 7.5 l 1.2 1.2 l 18.7 -18.7 l -15 0 l 0 -10 q -3.85 7.75 -10 5 z"></path></g></g><g><path d="M 4.574999999999989 -35.025000000000006 l -9.9 9.95 l 47.35 58.35 l 0.05 0 l 1.4 1.75 l 7.5 -7.5 l -42.7 -52.55 l 52.05 0 l 10 -10 l -65.75 0 z"></path><path d="M 25 -52.525000000000006 l 7.5 7.5 l 7.5 -7.5 l -7.5 -7.5 l -7.5 7.5 z"></path><path d="M 25 52.525000000000006 l 7.5 7.5 l 7.5 -7.5 l -7.5 -7.5 l -7.5 7.5 z"></path></g><g><path d="M 124.07499999999999 -32.50000000000001 l -1.2 -1.2 l -6.3 6.3 l 0 -27.6 l -10 10 l 0 30 l 17.5 -17.5 z"></path><path d="M 90.32500000000002 -5.000000000000007 l -10 10 l 50 0 l 10 -10 l -50 0 z"></path></g></g></g>
</svg>
