<svg xmlns="http://www.w3.org/2000/svg" viewBox="0 0 69.9 172.294907" width="69.9" height="172.294907" fill="currentColor" stroke="none">
<g transform="translate(34.95 86.147453)"><g><g><path d="M 19.9 12.5 l -34.95 0 l -10 10 l 50 0 l 10 -10 l -25 -25 l 0 -35 l -10 10 l 0 30.05 l 19.95 19.95 z"></path><g><path d="M -0.04999999999999716 -26.3 q 5 -12.14 10 -11.2 l 0 -10 l -17.5 17.5 l 1.2 1.2 l 6.3 -6.3 l 0 8.8 z"></path></g><g><path d="M -15.049999999999997 12.5 l 0 -14.9 l -10 10.1 l 0 -14.9 l -9.9 9.9 l 0 17.4 l 9.9 -9.9 l 0 12.3 l 15 0 q -2.75 -6.15 5 -10 l -10 0 z"></path></g><path d="M 10 -57.5 l 10 -10 l -30 0 l -10 10 l 30 0 z"></path><path d="M -10 42.5 l 0 25 l 20 -20 l -1.2 -1.2 l -8.8 8.8 l 0 -22.6 l -10 10 z"></path></g></g></g>
</svg>
