<svg xmlns="http://www.w3.org/2000/svg" viewBox="0 0 47.5 172.294907" width="47.5" height="172.294907" fill="currentColor" stroke="none">
<g transform="translate(23.75 86.147453)"><g><g><path d="M 16.25 -6.15 l -10 10 l 0 -33.85 l -10 10 l 0 36.2 l 10 -9.95 l 0 33.75 l 10 -10 l 0 -36.15 z"></path><g><path d="M -23.75 -30 l 15 0 l -10 10 l 15 0 l 0 10 q 3.85 -7.75 10 -5 l 0 -15 l -12.55 0 l 9.95 -10 l -17.4 0 l -10 10 z"></path></g><g><path d="M 16.25 18.8 q -5 12.14 -10 11.2 l 0 10 l 17.5 -17.5 l -1.2 -1.2 l -6.3 6.3 l 0 -8.8 z"></path></g></g></g></g>
</svg>
