<svg xmlns="http://www.w3.org/2000/svg" viewBox="0 0 141.9 107.5" width="141.9" height="107.5" fill="currentColor" stroke="none">
<g transform="translate(70.95 53.75)"><g><g><path d="M -42.95 9.35 l 7.45 -7.5 27.05 34.4 7.5 -7.5 -27.8 -36 -7.75 7.8 -26.95 -34.3 -7.5 7.5 28 35.6 z"></path><path d="M -68.45 28.75 l 0 25 l 20 -20 l -1.2 -1.2 l -8.8 8.8 l 0 -22.6 l -10 10 z"></path><path d="M -25.950000000000003 -43.75 l 10 -10 l -30 0 l -10 10 l 30 0 z"></path></g><g><path d="M 20.849999999999994 -33.75 l -7.5 7.5 l 31.25 31.25 l -31.25 31.25 l 40 0 l 10 -10 l -37.6 0 l 27.5 -27.6 l -32.4 -32.4 z"></path><g><path d="M 9.049999999999997 -45.55 l 11.8 11.8 l -5 5 q 7.681 1.687 7.1 -0.5 l -0.95 -3.35 l 7.05 -7.05 l -13 -12.9 z"></path></g><g><path d="M 55.7 26.25 q 0.465 4.718 -7.9 10 l 5.55 0 l 17.6 -17.6 l 0 -15 l -10 10 l 0 12.6 l -5.25 0 z"></path></g></g></g></g>
</svg>
