<svg xmlns="http://www.w3.org/2000/svg" viewBox="0 0 498.6 107.525" width="498.6" height="107.525" fill="currentColor" stroke="none">
<g transform="translate(249.3 53.7625)"><g><g><path d="M -239.29999999999998 -33.737500000000004 l -10 10 l 0 60 l 10 -10 l 0 -60 z"></path><g><path d="M -239.24999999999997 -31.437500000000007 l 15 0 l 10 -10 l -17.4 0 l -17.65 17.7 l 0 7.3 q 5.4 -4.35 10 -2.75 l 0 -12.25 z"></path></g></g><g><path d="M -194.34999999999997 -33.7625 l -9.9 9.95 l 47.35 58.35 l 0.05 0 l 1.4 1.75 l 7.5 -7.5 l -42.7 -52.55 l 52.05 0 l 10 -10 l -65.75 0 z"></path><g><path d="M -147.95 28.78750000000001 q -6.8 0.5 -7.5 7.5 l 15 15 l 15 -15 l -1.2 -1.2 l -7.5 7.5 l -13.8 -13.8 z"></path></g><path d="M -154.84999999999997 -43.7625 l 10 -10 l -30 0 l -10 10 l 30 0 z"></path></g><g><path d="M -105.44999999999999 -33.737500000000004 l -10 10 l 0 60 l 10 -10 l 0 -60 z"></path><g><path d="M -105.39999999999998 -31.437500000000007 l 15 0 l 10 -10 l -17.4 0 l -17.65 17.7 l 0 7.3 q 5.4 -4.35 10 -2.75 l 0 -12.25 z"></path></g></g><g><path d="M -55.39999999999998 -33.737500000000004 l -7.5 7.5 57.5 62.5 7.5 -7.5 -57.5 -62.5 z"></path><path d="M -40.39999999999998 36.262499999999996 l 10 -10 l -30 0 l -10 10 l 30 0 z"></path><path d="M -2.799999999999983 -23.737500000000004 l -8.8 8.8 l 1.2 1.2 l 20 -20 l -30 0 l -10 10 l 27.6 0 z"></path><path d="M -20.399999999999977 -43.737500000000004 l 10 -10 l -30 0 l -10 10 l 30 0 z"></path></g><g><path d="M 34.650000000000006 -23.737500000000004 l 34.95 0 l 10 -10 l -50 0 l -10 10 l 25 25 l 0 35 l 10 -10 l 0 -30.05 l -19.95 -19.95 z"></path></g><g><path d="M 114.24999999999997 -33.737500000000004 l -7.5 7.5 57.5 62.5 7.5 -7.5 -57.5 -62.5 z"></path><path d="M 111.74999999999997 -31.237500000000004 l -5 5 l -10 -10 l -7.15 7.15 l 11.3 11.2 l 7 -7.1 l 1 -1 q 3.183 1.742 3.85 0 q 0.916 -1.293 0 -6.25 z"></path><path d="M 116.74999999999997 18.762499999999996 l -10 10 l 0 25 l 10 -10 l 0 -25 z"></path><path d="M 149.24999999999997 -43.737500000000004 l 10 -10 l -30 0 l -10 10 l 30 0 z"></path></g><g><path d="M 204.35 -23.737500000000004 l 34.95 0 l 10 -10 l -50 0 l -10 10 l 25 25 l 0 35 l 10 -10 l 0 -30.05 l -19.95 -19.95 z"></path><g><path d="M 224.29999999999998 26.262499999999996 l 0 -7.3 q -4.546 5.888 -10 3.05 l 0 11.95 l -15.05 0 l -17.5 17.5 l 1.2 1.2 l 8.7 -8.7 l 15 0 l 17.65 -17.7 z"></path></g><path d="M 225.525 -43.737500000000004 l 10 -10 l -30 0 l -10 10 l 30 0 z"></path></g></g></g>
</svg>
