<svg xmlns="http://www.w3.org/2000/svg" viewBox="0 0 83.85 172.294907" width="83.85" height="172.294907" fill="currentColor" stroke="none">
<g transform="translate(41.925 86.147453)"><g><g><path d="M -23.075000000000003 -33.75 l -7.5 7.5 57.5 62.5 7.5 -7.5 -57.5 -62.5 z"></path><path d="M -23.075000000000003 -33.75 l -7.05 7.05 q 4.298 1.674 7.9 -0.9 q 1.089 -2.895 0.3 -4.95 l 7.5 -7.55 q -16.8 0.55 -27.5 -12.45 q 4.6 18.35 18.85 18.8 z"></path><path d="M -20.575000000000003 18.75 l -10 10 l 0 25 l 10 -10 l 0 -25 z"></path><path d="M 29.52499999999999 -23.75 l -8.8 8.8 l 1.2 1.2 l 20 -20 l -30 0 l -10 10 l 27.6 0 z"></path><path d="M 11.924999999999997 -43.75 l 10 -10 l -30 0 l -10 10 l 30 0 z"></path></g></g></g>
</svg>
