<svg xmlns="http://www.w3.org/2000/svg" viewBox="0 0 447 116.275" width="447" height="116.275" fill="currentColor" stroke="none">
<g transform="translate(223.5 58.1375)"><g><g><path d="M -213.49999999999997 -38.1375 l -10 10 l 0 60 l 10 -10 l 0 -60 z"></path><g><path d="M -223.49999999999997 16.862499999999997 l 0 15 l 15 0 l 10 -10 l -15 0 l 0 -10 q -3.874 7.753 -10 5 z"></path></g></g><g><path d="M -133.49999999999997 -38.112500000000004 l -10 10 l 0 20 l -35 0 l -10 10 l 29.95 29.95 l 7.5 -7.5 l -22.45 -22.45 l 30 0 l 10 -10 l 0 -30 z"></path><g><path d="M -161.14999999999998 21.837499999999977 q -1.65 2.7 2.6 10 l 12.6 0 l -7.5 7.5 l 1.2 1.2 l 18.7 -18.7 l -20 0 q -7 -2.95 -7.6 0 z"></path></g><path d="M -150.99999999999997 -48.11250000000001 l 10 -10 l -30 0 l -10 10 l 30 0 z"></path></g><g><path d="M -104.64999999999998 -38.1375 l -7.5 7.5 57.5 62.5 7.5 -7.5 -57.5 -62.5 z"></path><path d="M -104.64999999999998 -38.1375 l -7.05 7.05 q 4.298 1.674 7.9 -0.9 q 1.089 -2.895 0.3 -4.95 l 7.5 -7.55 q -16.8 0.55 -27.5 -12.45 q 4.6 18.35 18.85 18.8 z"></path><path d="M -102.14999999999998 14.362499999999997 l -10 10 l 0 25 l 10 -10 l 0 -25 z"></path><path d="M -52.04999999999998 -28.137500000000003 l -8.8 8.8 l 1.2 1.2 l 20 -20 l -30 0 l -10 10 l 27.6 0 z"></path><path d="M -69.64999999999998 -48.1375 l 10 -10 l -30 0 l -10 10 l 30 0 z"></path></g><g><path d="M 35.99999999999997 -28.062500000000004 l 10 -10 l -65.75 0 l -9.9 9.95 l 30.45 37.55 l 7.25 -7.3 l 24.15 29.65 l 7.45 -7.4 l -25.2 -31.05 l -7.5 7.45 l -23.1 -28.85 l 52.15 0 z"></path></g><g><path d="M 63.49999999999997 31.8375 l 10 -10 l 0 -20 l 35 0 l 10 -10 l -29.95 -29.95 l -7.5 7.5 l 22.45 22.45 l -30 0 l -10 10 l 0 30 z"></path><g><path d="M 55.99999999999997 36.93750000000001 l 1.2 1.2 l 16.3 -16.3 l 0 -7.75 q -5 9.444 -10 6.55 l 0 8.8 l -7.5 7.5 z"></path></g><path d="M 97.24999999999997 58.1375 l 10 -10 l -30 0 l -10 10 l 30 0 z"></path></g><g><path d="M 138.49999999999997 -38.1375 l -10 10 l 0 60 l 10 -10 l 0 -60 z"></path><g><path d="M 128.49999999999997 16.862499999999997 l 0 15 l 15 0 l 10 -10 l -15 0 l 0 -10 q -3.874 7.753 -10 5 z"></path></g></g><g><path d="M 183.49999999999997 -38.1375 l -10 10 l 0 50 l -10 10 l 45 0 l 10 -10 l -42.6 0 l 7.6 -7.6 l 0 -42.4 l 30 0 l 10 -10 l -40 0 z"></path><g><path d="M 218.49999999999997 21.862499999999997 l -15 0 q 2.75 6.15 -5 10 l 10 0 l 0 12.6 l -7.5 7.5 l 1.2 1.2 l 16.3 -16.3 l 0 -15 z"></path></g><path d="M 203.49999999999997 -48.1375 l 10 -10 l -30 0 l -10 10 l 30 0 z"></path></g></g></g>
</svg>
