<svg xmlns="http://www.w3.org/2000/svg" viewBox="0 0 606 135.225" width="606" height="135.225" fill="currentColor" stroke="none">
<g transform="translate(303 67.6125)"><g><g><path d="M -293 -47.387499999999996 l -10 10 l 0 60 l 10 -10 l 0 -60 z"></path><g><path d="M -303 7.612500000000004 l 0 15 l 15 0 l 10 -10 l -15 0 l 0 -10 q -3.874 7.753 -10 5 z"></path></g></g><g><path d="M -228 -7.762499999999996 l 10 -10 l -29.85 -29.85 l -7.5 7.5 l 22.35 22.35 l -20 0 l -15 15 l 25.6 25.6 l 7.5 -7.5 l -23.1 -23.1 l 30 0 z"></path><path d="M -233 -57.6125 l 10 -10 l -30 0 l -10 10 l 30 0 z"></path></g><g><path d="M -193 -47.387499999999996 l -7.5 7.5 57.5 62.5 7.5 -7.5 -57.5 -62.5 z"></path><path d="M -194.1 -44.33749999999999 q -3.28 1.825 -6.4 4.45 l -7.5 7.5 l 1.2 1.2 l 7.5 -7.5 q 4.106 1.688 4.55 0.35 q 0.6 -1.45 0.65 -6 z"></path><path d="M -136.7 13.912500000000005 q -4.2 -0.65 -6.3 2.7 q -0.8 1 0 6 l 6.3 -6.3 l 0 19.95 l 10 -10.1 l 0 -22.35 l -10 10.1 z"></path><path d="M -140.4 -37.387499999999996 l -8.8 8.8 l 1.2 1.2 l 20 -20 l -30 0 l -10 10 l 27.6 0 z"></path><path d="M -170.5 32.612500000000004 l -10 10 l 0 25 l 10 -10 l 0 -25 z"></path></g><g><path d="M -61.69999999999999 -47.3625 l -10 10 l 0 20 l -35 0 l -10 10 l 29.95 29.95 l 7.5 -7.5 l -22.45 -22.45 l 30 0 l 10 -10 l 0 -30 z"></path><g><path d="M -80.44999999999999 13.887499999999985 q -6.486 -1.216 -4.75 5 q 2.924 -3.894 5.95 -3.8 l 8.8 -8.8 l 0 -15 l -10 10 l 0 12.6 z"></path></g></g><g><path d="M -33.5 -47.387499999999996 l -10 10 l 0 60 l 10 -10 l 0 -60 z"></path><g><path d="M -31.69999999999999 34.4125 l -11.8 -11.8 l 10 -10 l 0 -5 q -5.188 7.964 -10 5 l 0 7.7 l -8.2 8.2 l 13 12.9 l 7 -7 z"></path></g></g><g><path d="M -10.550000000000011 -47.31249999999999 l -10 10 l 0 40 l 9.55 -9.55 l 20.65 29.4 l 7.5 -7.5 l -21.6 -30.85 l -6.1 6.1 l 0 -37.6 z"></path><path d="M 8.300000000000011 -57.3125 l 10 -10 l -30 0 l -10 10 l 30 0 z"></path></g><g><path d="M 52.94999999999999 -47.387499999999996 l -7.5 7.5 57.5 62.5 7.5 -7.5 -57.5 -62.5 z"></path><path d="M 50.44999999999999 -44.887499999999996 l -5 5 l -10 -10 l -7.15 7.15 l 11.3 11.2 l 7 -7.1 l 1 -1 q 3.183 1.742 3.85 0 q 0.916 -1.293 0 -6.25 z"></path><path d="M 100.34999999999997 12.612500000000004 q -1.655 2.716 2.6 10 l 15 0 l 10 -10 l -20 0 q -7.015 -2.931 -7.6 0 z"></path><path d="M 45.44999999999999 2.6125000000000043 l 20 20 l 7.5 -7.5 l -20 -20 l -7.5 7.5 z"></path><path d="M 107.94999999999999 -37.387499999999996 l 10 -10 l -30 0 l -10 10 l 30 0 z"></path></g><g><path d="M 153 -37.387499999999996 l 34.95 0 l 10 -10 l -50 0 l -10 10 l 25 25 l 0 35 l 10 -10 l 0 -30.05 l -19.95 -19.95 z"></path><path d="M 177.95 42.612500000000004 l 10 -10 l -30 0 l -10 10 l 30 0 z"></path></g><g><path d="M 217.95000000000005 -47.387499999999996 l -10 10 l 0 60 l 10 -10 l 0 -60 z"></path><g><path d="M 218 -45.0875 l 15 0 l 10 -10 l -17.4 0 l -17.65 17.7 l 0 7.3 q 5.4 -4.35 10 -2.75 l 0 -12.25 z"></path></g><g><path d="M 207.95 7.612500000000004 l 0 15 l 10 -10 l 0 20 l 10 -9.9 l 0 -22.4 l -10 9.95 l 0 -5.15 q -5 6.1 -10 2.5 z"></path></g></g><g><path d="M 268 -47.387499999999996 l -10 10 l 0 35 l 19.95 0 l -24.95 25 l 40 0 l 10 -10 l -37.6 0 l 24.85 -25 l -22.25 0 l 0 -35 z"></path><path d="M 288 -57.387499999999996 l 10 -10 l -30 0 l -10 10 l 30 0 z"></path></g></g></g>
</svg>
