<svg xmlns="http://www.w3.org/2000/svg" viewBox="0 0 75.65 172.294907" width="75.65" height="172.294907" fill="currentColor" stroke="none">
<g transform="translate(37.825 86.147453)"><g><g><path d="M 27.924999999999997 37.525 l 9.9 -9.95 l -47.35 -58.35 l -0.05 0 l -1.4 -1.75 l -7.5 7.5 l 42.7 52.55 l -52.05 0 l -10 10 l 65.75 0 z"></path><g><path d="M -10.325000000000003 -2.674999999999997 l -1.2 -1.2 l -16.3 16.3 l 0 15.1 l -10 10 l 18.3 0 q -4.75 -2.3 1.7 -10 l -7.6 0 l -0.25 0.2 l 7.85 -7.85 l 0 -15.05 l 7.5 -7.5 z"></path></g><path d="M -7.5 -50.025000000000006 l 7.5 7.5 l 7.5 -7.5 l -7.5 -7.5 l -7.5 7.5 z"></path><path d="M 10 57.525000000000006 l 10 -10 l -30 0 l -10 10 l 30 0 z"></path></g></g></g>
</svg>
