<svg xmlns="http://www.w3.org/2000/svg" viewBox="0 0 56.2 172.294907" width="56.2" height="172.294907" fill="currentColor" stroke="none">
<g transform="translate(28.1 86.147453)"><g><g><path d="M 6.899999999999999 -11.616662166507504 l -10 10 l 0 -33.85 l -10 10 l 0 36.2 l 10 -9.95 l 0 33.75 l 10 -10 l 0 -36.15 z"></path><g><path d="M -3.1000000000000014 -20.466662166507504 l 0 -15 l -15 0 l -10 10 l 15 0 l 0 10 q 3.874 -7.753 10 -5 z"></path></g><g><path d="M -3.1000000000000014 18.883337833492497 l 0 15.65 l 10 -10 q 9.4 17.75 21.2 6.85 q -12.25 2.15 -14.85 -15.5 l -6.35 6.3 l 0 -8.1 q -4.8 9.5 -10 4.8 z"></path></g></g></g></g>
</svg>
