<svg xmlns="http://www.w3.org/2000/svg" viewBox="0 0 57.4 172.294907" width="57.4" height="172.294907" fill="currentColor" stroke="none">
<g transform="translate(28.7 86.116662)"><g><g><path d="M 18.7 2.1224534351675004 l 10 -10 l -29.85 -29.85 l -7.5 7.5 l 22.35 22.35 l -20 0 l -15 15 l 25.6 25.6 l 7.5 -7.5 l -23.1 -23.1 l 30 0 z"></path><g><path d="M -7.5 -29.077546564832502 l 0 0.05 q 8.1 2.8 6.35 -8.7 l -6.35 6.3 q -9.4 -17.75 -21.2 -6.85 q 12.25 -2.15 14.85 15.5 l 6.35 -6.3 z"></path></g><g><path d="M 3.400000000000002 31.1224534351675 l -11.2 11.3 l 22.4 0 l 10 -10.1 l -19.9 0 l 7.1 -7.1 q -10.446 -1.157 -8.4 5.9 z"></path></g></g></g></g>
</svg>
