<svg xmlns="http://www.w3.org/2000/svg" viewBox="0 0 405.1 130" width="405.1" height="130" fill="currentColor" stroke="none">
<g transform="translate(202.55 65)"><g><g><path d="M -155.05 25 l 7.5 -7.5 -26.9 -26.9 7.45 -7.55 -28.05 -28.05 -7.5 7.5 26.9 26.9 -7.5 7.5 28.1 28.1 z"></path><path d="M -172.55 45 l 10 -10 l -30 0 l -10 10 l 30 0 z"></path></g><g><path d="M -97.55000000000001 -45 l -10 10 l 0 20 l -20 0 l -10 10 l 0 30 l 30 0 l 10 -10 l -30 0 l 0 -20 l 20 0 l 10 -10 l 0 -30 z"></path><g><path d="M -97.55000000000001 -29.35 l 0 -15.65 l -10 10.05 q -10.8 -2.6 -16.2 -18.85 q -0.35 21.9 9.85 27.5 l 6.35 -6.35 l 0 8.1 q 4.8 -9.5 10 -4.8 z"></path></g><g><path d="M -105.20000000000002 15 q 0.465 4.718 -7.9 10 l 5.55 0 l 17.6 -17.6 l 0 -15 l -10 10 l 0 12.6 l -5.25 0 z"></path></g></g><g><path d="M -72.45000000000002 -45 l -7.5 7.5 57.5 62.5 7.5 -7.5 -57.5 -62.5 z"></path><path d="M -71.30000000000001 -37.5 q 1.328 -4.078 -0.8 -6.7 l 0.8 0.35 q 19.05 9.15 23.7 -6.2 q -7.65 9.4 -17.35 -2.45 l -15 15 q 4.648 1.323 8.65 0 z"></path><path d="M -79.95000000000002 5 l 20 20 l 7.5 -7.5 l -20 -20 l -7.5 7.5 z"></path><path d="M -17.450000000000017 -35 l 10 -10 l -30 0 l -10 10 l 30 0 z"></path><path d="M -37.45000000000002 -55 l 10 -10 l -30 0 l -10 10 l 30 0 z"></path></g><g><path d="M 17.599999999999994 -35 l 34.95 0 l 10 -10 l -50 0 l -10 10 l 25 25 l 0 35 l 10 -10 l 0 -30.05 l -19.95 -19.95 z"></path><g><path d="M 37.54999999999998 32.6 l 0 -17.6 q -7.3 -5 -10 10 l 0 20 l 17.5 -17.5 l -1.2 -1.2 l -6.3 6.3 z"></path></g><path d="M 42.54999999999998 -55 l 10 -10 l -30 0 l -10 10 l 30 0 z"></path><path d="M 42.54999999999998 65 l 10 -10 l -30 0 l -10 10 l 30 0 z"></path></g><g><path d="M 100.55000000000001 -1.9000000000000004 l 7.45 -7.5 27.05 34.4 7.5 -7.5 -27.8 -36 -7.75 7.8 -26.95 -34.3 -7.5 7.5 28 35.6 z"></path><path d="M 75.05000000000001 5 l 20 20 l 7.5 -7.5 l -20 -20 l -7.5 7.5 z"></path><path d="M 92.55000000000001 42.5 l 7.5 7.5 l 7.5 -7.5 l -7.5 -7.5 l -7.5 7.5 z"></path></g><g><path d="M 162.55 -45 l -10 10 l 0 60 l 10 -10 l 0 -50 l 30 0 l 10 -10 l -40 0 z"></path><g><path d="M 162.55 32.6 l 0 -17.6 q -7.3 -5 -10 10 l 0 20 l 17.5 -17.5 l -1.2 -1.2 l -6.3 6.3 z"></path></g></g></g></g>
</svg>
