<svg xmlns="http://www.w3.org/2000/svg" viewBox="0 0 91.6 172.294907" width="91.6" height="172.294907" fill="currentColor" stroke="none">
<g transform="translate(45.8 86.147453)"><g><g><path d="M 35.900000000000006 43.95 l 9.9 -9.95 l -47.35 -58.35 l -0.05 0 l -1.4 -1.75 l -7.5 7.5 l 42.7 52.55 l -52.05 0 l -10 10 l 65.75 0 z"></path><g><path d="M -10.5 -18.6 l -15.05 0 l -10 10 l 17.45 0 l 8.75 -8.8 q 6.9 0.2 3.8 -6.15 l -4.95 4.95 z"></path></g><g><path d="M -15.3 33.95000000000001 l -4.55 0 l -8.8 8.8 l -10 -10 l -7.15 7.15 l 11.3 11.2 l 7.05 -7.15 l 6.3 0 q -3.7 -5 5.85 -10 z"></path></g><path d="M -7.499999999999986 -43.6 l 7.5 7.5 l 7.5 -7.5 l -7.5 -7.5 l -7.5 7.5 z"></path></g></g></g>
</svg>
