<svg xmlns="http://www.w3.org/2000/svg" viewBox="0 0 520.65 145" width="520.65" height="145" fill="currentColor" stroke="none">
<g transform="translate(260.325 72.5)"><g><g><path d="M -252.825 -47.5 l -7.5 7.5 57.5 62.5 7.5 -7.5 -57.5 -62.5 z"></path><path d="M -205.42499999999998 12.5 q -1.65 2.7 2.6 10 l 12.6 0 l -7.5 7.5 l 1.2 1.2 l 18.7 -18.7 l -20 0 q -7 -2.95 -7.6 0 z"></path><path d="M -242.825 40 l 7.5 7.5 l 7.5 -7.5 l -7.5 -7.5 l -7.5 7.5 z"></path></g><g><path d="M -157.825 -47.5 l -10 10 l 0 60 l 40 0 l 10 -10 l -40 0 l 0 -60 z"></path><g><path d="M -145.325 52.7 l 1.2 1.2 l 16.3 -16.3 l 0 -15.1 l 10 -10 l -18.3 0 q 4.75 2.3 -1.7 10 l 7.6 0 l 0.25 -0.2 l -7.85 7.85 l 0 15.05 l -7.5 7.5 z"></path></g></g><g><path d="M -100.32499999999999 -47.5 l -7.5 7.5 57.5 62.5 7.5 -7.5 -57.5 -62.5 z"></path><path d="M -99.17499999999998 -46.35 l 15.05 0 l 10 -10 l -17.45 0 l -8.75 8.85 q -1.75 3.2 -4.85 7.2 q 5.7 0.35 6 -6.05 z"></path><path d="M -45.875 16.1 q -1.825 3.28 -4.45 6.4 l -7.5 7.5 l -1.2 -1.2 l 7.5 -7.5 q -1.688 -4.106 -0.35 -4.55 q 1.45 -0.6 6 -0.65 z"></path><path d="M -82.82499999999999 -65 l 7.5 7.5 l 7.5 -7.5 l -7.5 -7.5 l -7.5 7.5 z"></path></g><g><path d="M -22.82499999999999 -47.5 l -10 10 l 0 60 l 10 -10 l 0 -50 l 30 0 l 10 -10 l -40 0 z"></path><g><path d="M -22.82499999999999 30.1 l 0 -17.6 q -7.3 -5 -10 10 l 0 20 l 17.5 -17.5 l -1.2 -1.2 l -6.3 6.3 z"></path></g><path d="M -15.324999999999989 -65 l 7.5 7.5 l 7.5 -7.5 l -7.5 -7.5 l -7.5 7.5 z"></path><path d="M -0.2249999999999659 62.5 l -8.8 8.8 l 1.2 1.2 l 20 -20 l -30 0 l -10 10 l 27.6 0 z"></path></g><g><path d="M 34.67500000000001 -47.5 l -7.5 7.5 57.5 62.5 7.5 -7.5 -57.5 -62.5 z"></path><path d="M 35.82499999999999 -46.35 l 15.05 0 l 10 -10 l -17.45 0 l -8.75 8.85 q -1.75 3.2 -4.85 7.2 q 5.7 0.35 6 -6.05 z"></path><path d="M 87.27500000000003 -37.5 l -8.8 8.8 l 1.2 1.2 l 20 -20 l -30 0 l -10 10 l 27.6 0 z"></path></g><g><path d="M 119.67500000000001 -47.5 l -10 10 l 0 36.3 l 10 -10.05 l 0 33.75 l 10 -10 l 0 -36.15 l -10 10 l 0 -23.85 l 30 0 l 10 -10 l -40 0 z"></path></g><g><path d="M 250.425 22.525 l 9.9 -9.95 l -47.35 -58.35 l -0.05 0 l -1.4 -1.75 l -7.5 7.5 l 42.7 52.55 l -52.05 0 l -10 10 l 65.75 0 z"></path><g><path d="M 189.675 12.525000000000006 l -12.5 -12.5 l -7.5 7.5 l 15 15 q 8.65 -2.75 10 -10 l -5 0 z"></path></g><path d="M 205 42.525000000000006 l 0 25 l 20 -20 l -1.2 -1.2 l -8.8 8.8 l 0 -22.6 l -10 10 z"></path></g></g></g>
</svg>
