<svg xmlns="http://www.w3.org/2000/svg" viewBox="0 0 534.65 171.275" width="534.65" height="171.275" fill="currentColor" stroke="none">
<g transform="translate(267.325 85.6375)"><g><g><path d="M -251.02499999999998 -48.1375 l -7.5 7.5 57.5 62.5 7.5 -7.5 -57.5 -62.5 z"></path><path d="M -257.325 -39.4375 q 6.486 1.216 4.75 -5 q -2.924 3.894 -5.95 3.8 l -8.8 8.8 l 0 15 l 10 -10 l 0 -12.6 z"></path><path d="M -203.625 11.862499999999997 q -1.65 2.7 2.6 10 l 12.6 0 l -7.5 7.5 l 1.2 1.2 l 18.7 -18.7 l -20 0 q -7 -2.95 -7.6 0 z"></path><path d="M -239.77499999999998 -78.1375 l 20 20 l 7.5 -7.5 l -20 -20 l -7.5 7.5 z"></path></g><g><path d="M -116.02499999999998 -38.1375 l 10 -10 l -50 0 l -10 10 l 0 30 l 30 0 l 0 30 l 10 -10 l 0 -30 l -30 0 l 0 -20 l 40 0 z"></path></g><g><path d="M -87.82499999999999 21.8375 l 10 -10 l 0 -20 l 35 0 l 10 -10 l -29.95 -29.95 l -7.5 7.5 l 22.45 22.45 l -30 0 l -10 10 l 0 30 z"></path><g><path d="M -69.07499999999999 -39.412499999999994 q 6.486 1.216 4.75 -5 q -2.924 3.894 -5.95 3.8 l -8.8 8.8 l 0 15 l 10 -10 l 0 -12.6 z"></path></g><g><path d="M -76.02499999999998 33.6375 l -11.8 -11.8 l 10 -10 l 0 -5 q -5.188 7.964 -10 5 l 0 7.7 l -8.2 8.2 l 13 12.9 l 7 -7 z"></path></g><path d="M -54.42500000000001 75.6375 l 0 -25 l -20 20 l 1.2 1.2 l 8.8 -8.8 l 0 22.6 l 10 -10 z"></path></g><g><path d="M 21.92500000000001 -36.987500000000004 l -20.55 -26.15 l -7.5 7.5 l 21.65 27.5 l 14.95 -15 l -1.2 -1.2 l -7.35 7.35 z"></path><path d="M -12.824999999999989 -18.137500000000003 l -10 10 l 50 0 l 10 -10 l -50 0 z"></path></g><g><path d="M 65.375 -48.1375 l -10 10 l 0 60 l 10 -10 l 0 -60 z"></path><g><path d="M 67.17500000000001 33.662499999999994 l -11.8 -11.8 l 10 -10 l 0 -5 q -5.188 7.964 -10 5 l 0 7.7 l -8.2 8.2 l 13 12.9 l 7 -7 z"></path></g></g><g><path d="M 136.57500000000005 -48.1375 l -50 0 l -9.4 9.4 l 23.2 33.05 l 6.2 -6.25 l 0 33.8 l 10 -10 l 0 -36.15 l -1.1 1.1 q -2.967 2.977 -5.95 5.95 l -1.95 2 l -0.65 0.65 l -16.5 -23.5 l 36.2 0 l 10 -10 z"></path><path d="M 116.90000000000003 -58.1375 l 10 -10 l -30 0 l -10 10 l 30 0 z"></path></g><g><path d="M 156.62500000000006 -48.1375 l -10 10 l 0 60 l 10 -10 l 0 -60 z"></path><g><path d="M 156.67500000000007 -45.837500000000006 l 15 0 l 10 -10 l -17.4 0 l -17.65 17.7 l 0 7.3 q 5.4 -4.35 10 -2.75 l 0 -12.25 z"></path></g></g><g><path d="M 257.325 -38.0625 l 10 -10 l -65.75 0 l -9.9 9.95 l 30.45 37.55 l 7.25 -7.3 l 24.15 29.65 l 7.45 -7.4 l -25.2 -31.05 l -7.5 7.45 l -23.1 -28.85 l 52.15 0 z"></path><path d="M 239.50000000000006 -58.0625 l 10 -10 l -30 0 l -10 10 l 30 0 z"></path></g></g></g>
</svg>
