<svg xmlns="http://www.w3.org/2000/svg" viewBox="0 0 602.2 157.5" width="602.2" height="157.5" fill="currentColor" stroke="none">
<g transform="translate(301.1 78.75)"><g><g><path d="M -276.4500000000001 -41.25 l -7.5 7.5 57.5 62.5 7.5 -7.5 -57.5 -62.5 z"></path><path d="M -278.9500000000001 -38.75 l -5 5 l -10 -10 l -7.15 7.15 l 11.3 11.2 l 7 -7.1 l 1 -1 q 3.183 1.742 3.85 0 q 0.916 -1.293 0 -6.25 z"></path><path d="M -229.05000000000007 18.75 q -1.655 2.716 2.6 10 l 15 0 l 10 -10 l -20 0 q -7.015 -2.931 -7.6 0 z"></path><path d="M -283.9500000000001 8.75 l 20 20 l 7.5 -7.5 l -20 -20 l -7.5 7.5 z"></path><path d="M -265.2000000000001 -71.25 l 20 20 l 7.5 -7.5 l -20 -20 l -7.5 7.5 z"></path></g><g><path d="M -176.4000000000001 -31.25 l 34.95 0 l 10 -10 l -50 0 l -10 10 l 25 25 l 0 35 l 10 -10 l 0 -30.05 l -19.95 -19.95 z"></path><g><path d="M -156.45000000000007 36.35 l 0 -17.6 q -7.3 -5 -10 10 l 0 20 l 17.5 -17.5 l -1.2 -1.2 l -6.3 6.3 z"></path></g><path d="M -168.95000000000007 -58.75 l 7.5 7.5 l 7.5 -7.5 l -7.5 -7.5 l -7.5 7.5 z"></path><path d="M -153.85000000000008 68.75 l -8.8 8.8 l 1.2 1.2 l 20 -20 l -30 0 l -10 10 l 27.6 0 z"></path></g><g><path d="M -111.45000000000007 -41.25 l -10 10 l 0 60 l 10 -10 l 0 -60 z"></path><g><path d="M -121.45000000000007 13.75 l 0 15 l 10 -10 l 0 20 l 10 -9.9 l 0 -22.4 l -10 9.95 l 0 -5.15 q -5 6.1 -10 2.5 z"></path></g></g><g><path d="M -76.45000000000007 -41.25 l -10 10 l 0 35 l 19.95 0 l -24.95 25 l 40 0 l 10 -10 l -37.6 0 l 24.85 -25 l -22.25 0 l 0 -35 z"></path><path d="M -56.450000000000074 -51.25 l 10 -10 l -30 0 l -10 10 l 30 0 z"></path></g><g><path d="M -21.450000000000102 -41.25 l -10 10 l 0 60 l 10 -10 l 0 -60 z"></path><g><path d="M -31.450000000000102 13.75 l 0 15 l 15 0 l 10 -10 l -15 0 l 0 -10 q -3.874 7.753 -10 5 z"></path></g></g><g><path d="M 14.799999999999898 -41.25 l -10 10 l 0 30 l 30 30 l 7.5 -7.5 l -27.5 -27.5 l 0 -35 z"></path><path d="M 33.5499999999999 -51.25 l 10 -10 l -30 0 l -10 10 l 30 0 z"></path></g><g><path d="M 101.0499999999999 28.75 l 7.5 -7.5 -26.9 -26.9 7.45 -7.55 -28.05 -28.05 -7.5 7.5 26.9 26.9 -7.5 7.5 28.1 28.1 z"></path><path d="M 62.199999999999875 -40.1 l 15.05 0 l 10 -10 l -17.45 0 l -8.75 8.85 q -1.75 3.2 -4.85 7.2 q 5.7 0.35 6 -6.05 z"></path><path d="M 98.44999999999987 18.75 q -1.655 2.716 2.6 10 l 15 0 l 10 -10 l -20 0 q -7.015 -2.931 -7.6 0 z"></path><path d="M 73.5499999999999 -58.75 l 7.5 7.5 l 7.5 -7.5 l -7.5 -7.5 l -7.5 7.5 z"></path></g><g><path d="M 146.0499999999999 -41.25 l -10 10 l 0 60 l 10 -10 l 0 -50 l 30 0 l 10 -10 l -40 0 z"></path><g><path d="M 146.0499999999999 36.35 l 0 -17.6 q -7.3 -5 -10 10 l 0 20 l 17.5 -17.5 l -1.2 -1.2 l -6.3 6.3 z"></path></g><path d="M 171.0499999999999 68.75 l 10 -10 l -30 0 l -10 10 l 30 0 z"></path></g><g><path d="M 206.0499999999999 -41.25 l -10 10 l 0 60 l 10 -10 l 0 -60 z"></path><g><path d="M 206.0999999999999 -38.95 l 15 0 l 10 -10 l -17.4 0 l -17.65 17.7 l 0 7.3 q 5.4 -4.35 10 -2.75 l 0 -12.25 z"></path></g></g><g><path d="M 256.15000000000003 -31.25 l 34.95 0 l 10 -10 l -50 0 l -10 10 l 25 25 l 0 35 l 10 -10 l 0 -30.05 l -19.95 -19.95 z"></path><g><path d="M 266.09999999999997 48.75 l 10 -10 l 0 -20 q -7.3 -5 -10 10 l 0 20 z"></path></g><path d="M 281.09999999999997 -51.25 l 10 -10 l -30 0 l -10 10 l 30 0 z"></path></g></g></g>
</svg>
