<svg xmlns="http://www.w3.org/2000/svg" viewBox="0 0 50 115.45" width="50" height="115.45" fill="currentColor" stroke="none">
<g transform="translate(25 57.725)"><g><g fill="currentColor"><path d="M 15 -17.874999999999993 l 10 -10 l -29.85 -29.85 l -7.5 7.5 l 22.35 22.35 l -20 0 l -15 15 l 25.6 25.6 l 7.5 -7.5 l -23.1 -23.1 l 30 0 z"></path><g><path d="M 1.6999999999999993 9.675000000000011 q 3.28 -1.825 6.4 -4.45 l 7.5 -7.5 l -1.2 -1.2 l -7.5 7.5 q -4.106 -1.688 -4.55 -0.35 q -0.6 1.45 -0.65 6 z"></path></g><path d="M -10 32.72500000000001 l 0 25 l 20 -20 l -1.2 -1.2 l -8.8 8.8 l 0 -22.6 l -10 10 z"></path></g></g></g>
</svg>
