<svg xmlns="http://www.w3.org/2000/svg" viewBox="0 0 82.55 172.294907" width="82.55" height="172.294907" fill="currentColor" stroke="none">
<g transform="translate(41.275 86.147453)"><g><g><path d="M 1.2750000000000057 -43.2 l -10 10 l 0 60 l 10 -10 l 0 -50 l 30 0 l 10 -10 l -40 0 z"></path><g><path d="M 41.275000000000006 -43.2 l -15 0 q 2.75 6.15 -5 10 l 10 0 l 0 12.6 l -7.5 7.5 l 1.2 1.2 l 16.3 -16.3 l 0 -15 z"></path></g><g><path d="M 1.2750000000000057 16.799999999999997 l 0 -7.3 q -4.546 5.888 -10 3.05 l 0 11.95 l -15.05 0 l -17.5 17.5 l 1.2 1.2 l 8.7 -8.7 l 15 0 l 17.65 -17.7 z"></path></g></g></g></g>
</svg>
