<svg xmlns="http://www.w3.org/2000/svg" viewBox="0 0 54 172.294907" width="54" height="172.294907" fill="currentColor" stroke="none">
<g transform="translate(27 86.147453)"><g><g><path d="M -9.5 -24.92499999999999 l -10 10 l 0 40 l 9.55 -9.55 l 20.65 29.4 l 7.5 -7.5 l -21.6 -30.85 l -6.1 6.1 l 0 -37.6 z"></path><g><path d="M -19.5 -3.724999999999998 q 5 -12.14 10 -11.2 l 0 -10 l -17.5 17.5 l 1.2 1.2 l 6.3 -6.3 l 0 8.8 z"></path></g><g><path d="M 17 36.224999999999994 q -6.486 -1.216 -4.75 5 q 2.924 -3.894 5.95 -3.8 l 8.8 -8.8 l 0 -15 l -10 10 l 0 12.6 z"></path></g><path d="M 10 -34.925 l 10 -10 l -30 0 l -10 10 l 30 0 z"></path></g></g></g>
</svg>
