<svg xmlns="http://www.w3.org/2000/svg" viewBox="0 0 459.7 107.725" width="459.7" height="107.725" fill="currentColor" stroke="none">
<g transform="translate(229.85 53.8625)"><g><g><path d="M -180.19999999999996 6.362500000000004 l 7.5 -7.5 -32.5 -32.5 -7.5 7.5 32.5 32.5 m -17.5 -10 l -7.5 7.5 32.5 32.5 7.5 -7.5 -32.5 -32.5 z"></path><path d="M -207.69999999999996 -31.137499999999996 l -5 5 l -10 -10 l -7.15 7.15 l 11.3 11.2 l 7 -7.1 l 1 -1 q 3.183 1.742 3.85 0 q 0.916 -1.293 0 -6.25 z"></path><path d="M -175.29999999999995 26.362500000000004 q -1.655 2.716 2.6 10 l 15 0 l 10 -10 l -20 0 q -7.015 -2.931 -7.6 0 z"></path><path d="M -215.19999999999996 18.862500000000004 l -10 10 l 0 25 l 10 -10 l 0 -25 z"></path><path d="M -178.94999999999996 -43.637499999999996 l 10 -10 l -30 0 l -10 10 l 30 0 z"></path></g><g><path d="M -95.14999999999995 -33.637499999999996 l -10 10 l 0 60 l 10 -10 l 0 -50 l 30 0 l 10 -10 l -40 0 z"></path><g><path d="M -60.14999999999995 -23.637499999999996 l 12.5 12.5 l 7.5 -7.5 l -15 -15 q -8.65 2.75 -10 10 l 5 0 z"></path></g><g><path d="M -95.14999999999995 26.362500000000004 l 0 -7.3 q -4.546 5.888 -10 3.05 l 0 11.95 l -15.05 0 l -17.5 17.5 l 1.2 1.2 l 8.7 -8.7 l 15 0 l 17.65 -17.7 z"></path></g></g><g><path d="M -20.14999999999995 -33.637499999999996 l -10 10 l 0 60 l 10 -10 l 0 -60 z"></path><g><path d="M -30.14999999999995 21.362500000000004 l 0 15 l 15 0 l 10 -10 l -15 0 l 0 -10 q -3.874 7.753 -10 5 z"></path></g></g><g><path d="M 59.85000000000002 -33.6125 l -10 10 l 0 20 l -35 0 l -10 10 l 29.95 29.95 l 7.5 -7.5 l -22.45 -22.45 l 30 0 l 10 -10 l 0 -30 z"></path><g><path d="M 32.200000000000045 26.337499999999984 q -1.65 2.7 2.6 10 l 12.6 0 l -7.5 7.5 l 1.2 1.2 l 18.7 -18.7 l -20 0 q -7 -2.95 -7.6 0 z"></path></g><path d="M 42.35000000000002 -43.612500000000004 l 10 -10 l -30 0 l -10 10 l 30 0 z"></path></g><g><path d="M 79.84999999999997 -33.637499999999996 l -10 10 l 0 60 l 10 -10 l 0 -60 z"></path></g><g><path d="M 99.84999999999997 -33.637499999999996 l -10 10 l 0 60 l 10 -10 l 0 -50 l 30 0 l 10 -10 l -40 0 z"></path><path d="M 124.84999999999997 -43.637499999999996 l 10 -10 l -30 0 l -10 10 l 30 0 z"></path></g><g><path d="M 159.84999999999997 -33.637499999999996 l -10 10 l 0 60 l 10 -10 l 0 -60 z"></path><g><path d="M 149.84999999999997 21.362500000000004 l 0 15 l 10 -10 l 0 20 l 10 -9.9 l 0 -22.4 l -10 9.95 l 0 -5.15 q -5 6.1 -10 2.5 z"></path></g></g><g><path d="M 219.84999999999997 5.987500000000004 l 10 -10 l -29.85 -29.85 l -7.5 7.5 l 22.35 22.35 l -20 0 l -15 15 l 25.6 25.6 l 7.5 -7.5 l -23.1 -23.1 l 30 0 z"></path><path d="M 214.84999999999997 -43.8625 l 10 -10 l -30 0 l -10 10 l 30 0 z"></path></g></g></g>
</svg>
