<svg xmlns="http://www.w3.org/2000/svg" viewBox="0 0 35.05 172.294907" width="35.05" height="172.294907" fill="currentColor" stroke="none">
<g transform="translate(17.525 86.147453)"><g><g><path d="M 2.4750000000000014 -16.099999999999994 l -10 10 l 0 -33.85 l -10 10 l 0 36.2 l 10 -9.95 l 0 33.75 l 10 -10 l 0 -36.15 z"></path><g><path d="M -7.474999999999998 -37.65 l 15 0 l 10 -10 l -17.4 0 l -17.65 17.7 l 0 7.3 q 5.4 -4.35 10 -2.75 l 0 -12.25 z"></path></g><g><path d="M -7.524999999999999 27.650000000000006 l -7.5 7.55 q 16.8 -0.55 27.5 12.45 q -4.6 -18.35 -18.85 -18.8 l 8.85 -8.8 l 0 -5 q -4.75 4.55 -10 1.5 l 0 11.1 z"></path></g></g></g></g>
</svg>
