<svg xmlns="http://www.w3.org/2000/svg" viewBox="0 0 68.7 172.294907" width="68.7" height="172.294907" fill="currentColor" stroke="none">
<g transform="translate(34.35 86.147453)"><g><g><path d="M -18.049999999999997 -30 l -7.5 7.5 l 31.25 31.25 l -31.25 31.25 l 40 0 l 10 -10 l -37.6 0 l 27.5 -27.6 l -32.4 -32.4 z"></path><g><path d="M -24.349999999999998 -21.3 q 6.486 1.216 4.75 -5 q -2.924 3.894 -5.95 3.8 l -8.8 8.8 l 0 15 l 10 -10 l 0 -12.6 z"></path></g><g><path d="M 2.0500000000000043 50 l 22.4 0 l 9.9 -10 l -19.9 0 l 10 -10 l -12.65 0 q 5.504 3.447 -5.3 10 l 5.5 0 l -9.95 10 z"></path></g><path d="M 10 -40 l 10 -10 l -30 0 l -10 10 l 30 0 z"></path></g></g></g>
</svg>
