<svg xmlns="http://www.w3.org/2000/svg" viewBox="0 0 46.3 172.294907" width="46.3" height="172.294907" fill="currentColor" stroke="none">
<g transform="translate(23.15 86.147453)"><g><g><path d="M -13.149999999999999 -42 l -10 10 l 0 30 l 30 30 l 7.5 -7.5 l -27.5 -27.5 l 0 -35 z"></path><g><path d="M 13.149999999999999 -42.4 l -1.2 -1.2 l -7.5 7.5 l -11.75 -11.75 l -15.85 15.85 l 0 5 q 6.25 -9 10 -5 l 0 -7.6 l 11.8 11.7 l 14.5 -14.5 z"></path></g><g><path d="M 13.149999999999999 39.15 l -7.5 7.5 l 1.2 1.2 l 16.3 -16.3 l 0 -22.35 l -10 10.1 q -4.2 -0.65 -6.3 2.7 q -0.8 1 0 6 l 6.3 -6.3 l 0 17.45 z"></path></g></g></g></g>
</svg>
