<svg xmlns="http://www.w3.org/2000/svg" viewBox="0 0 181.3 95.85" width="181.3" height="95.85" fill="currentColor" stroke="none">
<g transform="translate(90.65 47.925)"><g><g><path d="M -43.150000000000006 27.924999999999997 l 7.5 -7.5 -26.9 -26.9 7.45 -7.55 -28.05 -28.05 -7.5 7.5 26.9 26.9 -7.5 7.5 28.1 28.1 z"></path><path d="M -60.650000000000006 47.925 l 10 -10 l -30 0 l -10 10 l 30 0 z"></path></g><g><path d="M -15.650000000000006 -42.075 l -10 10 l 0 30 l 30 30 l 7.5 -7.5 l -27.5 -27.5 l 0 -35 z"></path><g><path d="M 10.649999999999991 -42.475 l -1.2 -1.2 l -7.5 7.5 l -11.75 -11.75 l -15.85 15.85 l 0 5 q 6.25 -9 10 -5 l 0 -7.6 l 11.8 11.7 l 14.5 -14.5 z"></path></g><g><path d="M 10.649999999999991 39.074999999999996 l -7.5 7.5 l 1.2 1.2 l 16.3 -16.3 l 0 -22.35 l -10 10.1 q -4.2 -0.65 -6.3 2.7 q -0.8 1 0 6 l 6.3 -6.3 l 0 17.45 z"></path></g></g><g><path d="M 50.650000000000006 -32.075 q -0.1 -10.25 13.15 -13.1 l -1.2 -1.1 q -22.3 -0.55 -21.95 24.2 l 37.6 0 l -7.5 7.5 l 1.2 1.2 l 18.7 -18.7 l -40 0 z"></path><path d="M 40.650000000000006 -12.075000000000003 l -10 10 l 50 0 l 10 -10 l -50 0 z"></path></g></g></g>
</svg>
