<svg xmlns="http://www.w3.org/2000/svg" viewBox="0 0 93.3 172.294907" width="93.3" height="172.294907" fill="currentColor" stroke="none">
<g transform="translate(46.65 86.147453)"><g><g><path d="M -19.000000000000004 21.175 l -10 10 l 65.75 0 l 9.9 -9.95 l -30.45 -37.55 l -7.25 7.3 l -24.15 -29.65 l -7.45 7.4 l 25.2 31.05 l 7.5 -7.45 l 23.1 28.85 l -52.15 0 z"></path><g><path d="M -34.150000000000006 38.675 l 7.5 -7.5 l 11.1 0 q -3.05 -5.25 1.5 -10 l -5 0 l -8.8 8.85 q -0.445 -14.232 -18.8 -18.85 q 12.993 10.704 12.45 27.5 z"></path></g><path d="M -7.499999999999993 -56.175 l 7.5 7.5 l 7.5 -7.5 l -7.5 -7.5 l -7.5 7.5 z"></path><path d="M -7.499999999999993 56.175 l 7.5 7.5 l 7.5 -7.5 l -7.5 -7.5 l -7.5 7.5 z"></path></g></g></g>
</svg>
