<svg xmlns="http://www.w3.org/2000/svg" viewBox="0 0 39.5 172.294907" width="39.5" height="172.294907" fill="currentColor" stroke="none">
<g transform="translate(19.75 86.147453)"><g><g><path d="M 7.949999999999999 25.52499999999999 l 10 -10 l 0 -40 l -9.55 9.55 l -20.65 -29.4 l -7.5 7.5 l 21.6 30.85 l 6.1 -6.1 l 0 37.6 z"></path><g><path d="M 19.750000000000004 37.32499999999999 l -11.8 -11.8 l 10 -10 l 0 -5 q -5.188 7.964 -10 5 l 0 7.7 l -8.2 8.2 l 13 12.9 l 7 -7 z"></path></g><path d="M -7.4999999999999964 -61.825 l 7.5 7.5 l 7.5 -7.5 l -7.5 -7.5 l -7.5 7.5 z"></path><path d="M -7.4999999999999964 61.825 l 7.5 7.5 l 7.5 -7.5 l -7.5 -7.5 l -7.5 7.5 z"></path></g></g></g>
</svg>
