<svg xmlns="http://www.w3.org/2000/svg" viewBox="0 0 60.5 172.294907" width="60.5" height="172.294907" fill="currentColor" stroke="none">
<g transform="translate(30.25 86.145185)"><g><g><path d="M -10.25 -35.72551020408162 l -10 10 l 0 40 l 9.55 -9.55 l 20.65 29.4 l 7.5 -7.5 l -21.6 -30.85 l -6.1 6.1 l 0 -37.6 z"></path><g><path d="M -30.25 -33.37551020408163 q 9.8 -16 27.5 -7.5 l -7.5 7.55 l 0 11.1 q -5.25 -3.05 -10 1.5 l 0 -5 l 8.85 -8.8 q -7.15 -6.15 -18.85 1.15 z"></path></g><g><path d="M 9.049999999999997 32.52448979591836 l -11.2 11.3 l 22.4 0 l 10 -10.1 l -19.9 0 l 7.1 -7.1 q -10.446 -1.157 -8.4 5.9 z"></path></g></g></g></g>
</svg>
