<svg xmlns="http://www.w3.org/2000/svg" viewBox="0 0 83.85 172.294907" width="83.85" height="172.294907" fill="currentColor" stroke="none">
<g transform="translate(41.925 86.147453)"><g><g><path d="M -23.074999999999996 -25 l -7.5 7.5 57.5 62.5 7.5 -7.5 -57.5 -62.5 z"></path><path d="M -21.924999999999997 -23.799999999999997 l 7.5 -7.55 q -17.7 -8.5 -27.5 7.5 q 11.7 -7.3 18.85 -1.15 l -3.7 3.65 q 1.81 1.308 4.55 2.1 q 1.8 0.5 0.3 -4.55 z"></path><path d="M -30.574999999999996 25 l 20 20 l 7.5 -7.5 l -20 -20 l -7.5 7.5 z"></path><path d="M 31.924999999999997 -15 l 10 -10 l -30 0 l -10 10 l 30 0 z"></path><path d="M 11.925000000000004 -35 l 10 -10 l -30 0 l -10 10 l 30 0 z"></path></g></g></g>
</svg>
