<svg xmlns="http://www.w3.org/2000/svg" viewBox="0 0 67.6 172.294907" width="67.6" height="172.294907" fill="currentColor" stroke="none">
<g transform="translate(33.8 86.147453)"><g><g><path d="M -16.199999999999996 26.200000000000003 l -10 10 l 50 0 l 10 -10 l 0 -30 l -30 0 l 0 -30 l -10 10 l 0 30 l 30 0 l 0 20 l -40 0 z"></path><g><path d="M -5.849999999999994 -21.699999999999996 q 0.375 -0.363 1.15 -1.15 q 6.261 -1.099 8.5 3.8 l 0 -14.75 l -10 10 l -10 -10 l -7.15 7.15 l 11.3 11.2 l 5.85 -5.9 q 0.04 -0.029 0.35 -0.35 z"></path></g><g><path d="M -18.549999999999997 36.2 q -0.465 -4.718 7.9 -10 l -5.55 0 l -17.6 17.6 l 0 15 l 10 -10 l 0 -12.6 l 5.25 0 z"></path></g><path d="M -7.5 -51.3 l 7.5 7.5 l 7.5 -7.5 l -7.5 -7.5 l -7.5 7.5 z"></path></g></g></g>
</svg>
