<svg xmlns="http://www.w3.org/2000/svg" viewBox="0 0 378.3 117.6" width="378.3" height="117.6" fill="currentColor" stroke="none">
<g transform="translate(189.15 58.8)"><g><g><path d="M -156.60000000000002 -33.8 l -7.5 7.5 57.5 62.5 7.5 -7.5 -57.5 -62.5 z"></path><path d="M -164.10000000000002 -26.299999999999997 l -15.05 0 l -10 10 l 17.45 0 l 8.75 -8.8 q 6.9 0.2 3.8 -6.15 l -4.95 4.95 z"></path></g><g><path d="M -71.50000000000001 26.200000000000003 l -10 10 l 50 0 l 10 -10 l 0 -30 l -30 0 l 0 -30 l -10 10 l 0 30 l 30 0 l 0 20 l -40 0 z"></path><g><path d="M -61.15000000000002 -21.699999999999996 q 0.375 -0.363 1.15 -1.15 q 6.261 -1.099 8.5 3.8 l 0 -14.75 l -10 10 l -10 -10 l -7.15 7.15 l 11.3 11.2 l 5.85 -5.9 q 0.04 -0.029 0.35 -0.35 z"></path></g><g><path d="M -73.85000000000002 36.2 q -0.465 -4.718 7.9 -10 l -5.55 0 l -17.6 17.6 l 0 15 l 10 -10 l 0 -12.6 l 5.25 0 z"></path></g><path d="M -62.800000000000026 -51.3 l 7.5 7.5 l 7.5 -7.5 l -7.5 -7.5 l -7.5 7.5 z"></path></g><g><path d="M -2.700000000000017 12.350000000000003 l 10 -10 l 0 33.85 l 10 -10 l 0 -36.2 l -10 9.95 l 0 -33.75 l -10 10 l 0 36.15 z"></path><g><path d="M 7.349999999999994 -31.5 l 15 0 l 10 -10 l -17.4 0 l -17.65 17.7 l 0 7.3 q 5.4 -4.35 10 -2.75 l 0 -12.25 z"></path></g><g><path d="M 17.299999999999983 26.200000000000003 l 0 -5 q -6.25 9 -10 5 l 0 7.6 l -11.8 -11.7 l -7 7 l 12.95 12.95 l 15.85 -15.85 z"></path></g></g><g><path d="M 44.150000000000006 12.350000000000003 l 10 -10 l 0 33.85 l 10 -10 l 0 -36.2 l -10 9.95 l 0 -33.75 l -10 10 l 0 36.15 z"></path><g><path d="M 42.349999999999994 -45.599999999999994 l 11.8 11.8 l -10 10 l 0 5 q 5.188 -7.964 10 -5 l 0 -7.7 l 8.2 -8.2 l -13 -12.9 l -7 7 z"></path></g><g><path d="M 64.15 15.000000000000004 q -5 12.14 -10 11.2 l 0 10 l 17.5 -17.5 l -1.2 -1.2 l -6.3 6.3 l 0 -8.8 z"></path></g></g><g><path d="M 89.15 12.350000000000003 l 10 -10 l 0 33.85 l 10 -10 l 0 -36.2 l -10 9.95 l 0 -33.75 l -10 10 l 0 36.15 z"></path><g><path d="M 89.15 -41.4 l 0 17.6 q 7.3 5 10 -10 l 0 -20 l -17.5 17.5 l 1.2 1.2 l 6.3 -6.3 z"></path></g><g><path d="M 109.15 43.800000000000004 l 0 -17.6 q -7.3 -5 -10 10 l 0 20 l 17.5 -17.5 l -1.2 -1.2 l -6.3 6.3 z"></path></g></g><g><path d="M 126.65 12.350000000000003 l 10 -10 l 0 33.85 l 10 -10 l 0 -36.2 l -10 9.95 l 0 -33.75 l -10 10 l 0 36.15 z"></path><g><path d="M 146.65 43.800000000000004 l 0 -17.6 q -7.3 -5 -10 10 l 0 20 l 17.5 -17.5 l -1.2 -1.2 l -6.3 6.3 z"></path></g></g><g><path d="M 174.15 -33.8 l -10 10 l 0 60 l 10 -10 l 0 -60 z"></path><g><path d="M 164.15 21.200000000000003 l 0 15 l 15 0 l 10 -10 l -15 0 l 0 -10 q -3.874 7.753 -10 5 z"></path></g></g></g></g>
</svg>
