<svg xmlns="http://www.w3.org/2000/svg" viewBox="0 0 75.95 172.294907" width="75.95" height="172.294907" fill="currentColor" stroke="none">
<g transform="translate(37.975 86.147453)"><g><g><path d="M 12.024999999999999 -36.425000000000004 l 10 -10 l -50 0 l -10 10 l 0 30 l 30 0 l 0 30 l 10 -10 l 0 -30 l -30 0 l 0 -20 l 40 0 z"></path><g><path d="M 7.475000000000001 -36.425000000000004 l 4.55 0 l 8.8 -8.8 l 10 10 l 7.15 -7.15 l -11.3 -11.2 l -7.05 7.15 l -6.3 0 q 3.7 5 -5.85 10 z"></path></g><g><path d="M -20.375 33.574999999999996 l 22.4 0 l 10 -10.1 l -19.9 0 l -0.1 0.1 l 0 -0.1 l 0.05 0 l 9.95 -9.9 l 0 -5 q -5 5.774 -10 5 l 0 7.55 l -12.4 12.4 z"></path></g><path d="M 9.999999999999993 53.574999999999996 l 10 -10 l -30 0 l -10 10 l 30 0 z"></path></g></g></g>
</svg>
