<svg xmlns="http://www.w3.org/2000/svg" viewBox="0 0 35.05 172.294907" width="35.05" height="172.294907" fill="currentColor" stroke="none">
<g transform="translate(17.525 86.147453)"><g><g><path d="M 17.525 -10.65 l -10 10 l 0 -33.85 l -10 10 l 0 36.2 l 10 -9.95 l 0 33.75 l 10 -10 l 0 -36.15 z"></path><g><path d="M 7.525000000000002 -19.5 l 0 -15 l -12.6 0 l 7.5 -7.5 l -1.2 -1.2 l -18.7 18.7 l 15 0 l 0 10 q 3.85 -7.75 10 -5 z"></path></g><g><path d="M 7.475000000000001 33.2 l -15 0 l -10 10 l 17.4 0 l 17.65 -17.7 l 0 -7.3 q -5.4 4.35 -10 2.75 l 0 12.25 z"></path></g></g></g></g>
</svg>
