<svg xmlns="http://www.w3.org/2000/svg" viewBox="0 0 434.55 138.7" width="434.55" height="138.7" fill="currentColor" stroke="none">
<g transform="translate(217.275 69.35)"><g><g><path d="M -164.775 29.35000000000001 l 7.5 -7.5 -26.9 -26.9 7.45 -7.55 -28.05 -28.05 -7.5 7.5 26.9 26.9 -7.5 7.5 28.1 28.1 z"></path><path d="M -217.275 21.85000000000001 l 0 25 l 20 -20 l -1.2 -1.2 l -8.8 8.8 l 0 -22.6 l -10 10 z"></path><path d="M -154.775 -30.64999999999999 l 10 -10 l -30 0 l -10 10 l 30 0 z"></path></g><g><path d="M -75.37500000000003 -40.64999999999999 l -50 0 l -9.4 9.4 l 23.2 33.05 l 6.2 -6.25 l 0 33.8 l 10 -10 l 0 -36.15 l -1.1 1.1 q -2.967 2.977 -5.95 5.95 l -1.95 2 l -0.65 0.65 l -16.5 -23.5 l 36.2 0 l 10 -10 z"></path><g><path d="M -105.37500000000001 49.35000000000001 l 10 -10 l 0 -20 q -7.3 -5 -10 10 l 0 20 z"></path></g><path d="M -95.05000000000001 -50.64999999999999 l 10 -10 l -30 0 l -10 10 l 30 0 z"></path><path d="M -95.05000000000001 69.35000000000001 l 10 -10 l -30 0 l -10 10 l 30 0 z"></path></g><g><path d="M -47.12500000000003 -40.64999999999999 l -10 10 l 0 60 l 10 -10 l 0 -60 z"></path><g><path d="M -45.32500000000002 41.150000000000006 l -11.8 -11.8 l 10 -10 l 0 -5 q -5.188 7.964 -10 5 l 0 7.7 l -8.2 8.2 l 13 12.9 l 7 -7 z"></path></g></g><g><path d="M -25.325000000000017 -40.64999999999999 l -10 10 l 0 60 l 10 -10 l 0 -50 l 30 0 l 10 -10 l -40 0 z"></path><g><path d="M -25.325000000000017 36.95000000000001 l 0 -17.6 q -7.3 -5 -10 10 l 0 20 l 17.5 -17.5 l -1.2 -1.2 l -6.3 6.3 z"></path></g><path d="M -0.32500000000001705 -50.64999999999999 l 10 -10 l -30 0 l -10 10 l 30 0 z"></path></g><g><path d="M 34.67499999999998 -40.64999999999999 l -10 10 l 0 60 l 10 -10 l 0 -60 z"></path><g><path d="M 34.724999999999994 -38.349999999999994 l 15 0 l 10 -10 l -17.4 0 l -17.65 17.7 l 0 7.3 q 5.4 -4.35 10 -2.75 l 0 -12.25 z"></path></g></g><g><path d="M 79.725 -40.64999999999999 l -10 10 l 0 60 l 10 -10 l 0 -50 l 30 0 l 10 -10 l -40 0 z"></path><g><path d="M 99.725 -30.64999999999999 l 10 0 l 17.5 -17.5 l -1.2 -1.2 l -8.7 8.7 l -7.6 0 q 0.83 5.4 -10 10 z"></path></g><g><path d="M 79.725 8.15000000000001 q -5 12.14 -10 11.2 l 0 10 l 17.5 -17.5 l -1.2 -1.2 l -6.3 6.3 l 0 -8.8 z"></path></g><path d="M 108.475 -59.349999999999994 l 10 -10 l -30 0 l -10 10 l 30 0 z"></path></g><g><path d="M 172.275 -16.79999999999999 l -10 10 l 0 -33.85 l -10 10 l 0 36.2 l 10 -9.95 l 0 33.75 l 10 -10 l 0 -36.15 z"></path><g><path d="M 162.275 -25.64999999999999 l 0 -15 l -12.6 0 l 7.5 -7.5 l -1.2 -1.2 l -18.7 18.7 l 15 0 l 0 10 q 3.85 -7.75 10 -5 z"></path></g><g><path d="M 162.225 27.05000000000001 l -15 0 l -10 10 l 17.4 0 l 17.65 -17.7 l 0 -7.3 q -5.4 4.35 -10 2.75 l 0 12.25 z"></path></g></g><g><path d="M 209.775 -16.79999999999999 l -10 10 l 0 -33.85 l -10 10 l 0 36.2 l 10 -9.95 l 0 33.75 l 10 -10 l 0 -36.15 z"></path><g><path d="M 189.775 -48.24999999999999 l 0 17.6 q 7.3 5 10 -10 l 0 -20 l -17.5 17.5 l 1.2 1.2 l 6.3 -6.3 z"></path></g><g><path d="M 209.775 8.15000000000001 q -5 12.14 -10 11.2 l 0 10 l 17.5 -17.5 l -1.2 -1.2 l -6.3 6.3 l 0 -8.8 z"></path></g></g></g></g>
</svg>
