<svg xmlns="http://www.w3.org/2000/svg" viewBox="0 0 90.05 172.294907" width="90.05" height="172.294907" fill="currentColor" stroke="none">
<g transform="translate(45.025 86.147453)"><g><g><path d="M -12.474999999999994 -28.75 l -7.5 7.5 57.5 62.5 7.5 -7.5 -57.5 -62.5 z"></path><path d="M -19.974999999999994 -21.25 l -15.05 0 l -10 10 l 17.45 0 l 8.75 -8.8 q 6.9 0.2 3.8 -6.15 l -4.95 4.95 z"></path><path d="M 41.97500000000001 34.85 q -1.825 3.28 -4.45 6.4 l -7.5 7.5 l -1.2 -1.2 l 7.5 -7.5 q -1.688 -4.106 -0.35 -4.55 q 1.45 -0.6 6 -0.65 z"></path><path d="M 22.525000000000006 -38.75 l 10 -10 l -30 0 l -10 10 l 30 0 z"></path></g></g></g>
</svg>
