<svg xmlns="http://www.w3.org/2000/svg" viewBox="0 0 295.05 121.325" width="295.05" height="121.325" fill="currentColor" stroke="none">
<g transform="translate(147.525 60.6625)"><g><g><path d="M -119.525 2.4375000000000124 l 7.45 -7.5 27.05 34.4 7.5 -7.5 -27.8 -36 -7.75 7.8 -26.95 -34.3 -7.5 7.5 28 35.6 z"></path><path d="M -127.525 46.83750000000001 l 7.5 7.5 l 7.5 -7.5 l -7.5 -7.5 l -7.5 7.5 z"></path></g><g><path d="M -27.525000000000006 -1.0374999999999872 l 10 -10 l -29.85 -29.85 l -7.5 7.5 l 22.35 22.35 l -20 0 l -15 15 l 25.6 25.6 l 7.5 -7.5 l -23.1 -23.1 l 30 0 z"></path></g><g><path d="M 25.025000000000006 -40.66249999999999 l -7.5 7.5 57.5 62.5 7.5 -7.5 -57.5 -62.5 z"></path><path d="M 17.525000000000006 -33.16249999999999 l -15.05 0 l -10 10 l 17.45 0 l 8.75 -8.8 q 6.9 0.2 3.8 -6.15 l -4.95 4.95 z"></path><path d="M 79.475 22.937500000000014 q -1.825 3.28 -4.45 6.4 l -7.5 7.5 l -1.2 -1.2 l 7.5 -7.5 q -1.688 -4.106 -0.35 -4.55 q 1.45 -0.6 6 -0.65 z"></path><path d="M 60.025000000000006 -50.66249999999999 l 10 -10 l -30 0 l -10 10 l 30 0 z"></path></g><g><path d="M 147.525 -40.63749999999999 l -10 10 l 0 20 l -35 0 l -10 10 l 29.95 29.95 l 7.5 -7.5 l -22.45 -22.45 l 30 0 l 10 -10 l 0 -30 z"></path><g><path d="M 104.975 59.462499999999984 l 1.2 1.2 l 16.3 -16.3 l 0 -15.05 l 7.5 -7.5 q -11.45 -4.9 -8.7 6.3 l -8.8 8.9 l 0 14.95 l -7.5 7.5 z"></path></g></g></g></g>
</svg>
