<svg xmlns="http://www.w3.org/2000/svg" viewBox="0 0 642.25 152.5" width="642.25" height="152.5" fill="currentColor" stroke="none">
<g transform="translate(321.125 76.25)"><g><g><path d="M -293.125 4.35 l 7.45 -7.5 27.05 34.4 7.5 -7.5 -27.8 -36 -7.75 7.8 -26.95 -34.3 -7.5 7.5 28 35.6 z"></path><path d="M -308.625 13.75 l -10 10 l 0 25 l 10 -10 l 0 -25 z"></path><path d="M -276.125 -48.75 l 10 -10 l -30 0 l -10 10 l 30 0 z"></path></g><g><path d="M -226.075 -28.75 l 34.95 0 l 10 -10 l -50 0 l -10 10 l 25 25 l 0 35 l 10 -10 l 0 -30.05 l -19.95 -19.95 z"></path><g><path d="M -201.125 -28.75 l 10 0 l 17.5 -17.5 l -1.2 -1.2 l -8.7 8.7 l -7.6 0 q 0.83 5.4 -10 10 z"></path></g><g><path d="M -206.125 10.05 q -5 12.14 -10 11.2 l 0 10 l 17.5 -17.5 l -1.2 -1.2 l -6.3 6.3 l 0 -8.8 z"></path></g></g><g><path d="M -134.825 -14.9 l -10 10 l 0 -33.85 l -10 10 l 0 36.2 l 10 -9.95 l 0 33.75 l 10 -10 l 0 -36.15 z"></path><g><path d="M -134.825 21.25 l 0 -5 q -6.25 9 -10 5 l 0 7.6 l -11.8 -11.7 l -7 7 l 12.95 12.95 l 15.85 -15.85 z"></path></g></g><g><path d="M -88.02499999999998 4.35 l 7.45 -7.5 27.05 34.4 7.5 -7.5 -27.8 -36 -7.75 7.8 -26.95 -34.3 -7.5 7.5 28 35.6 z"></path><path d="M -114.82499999999999 -30.05 q 4.2 0.65 6.3 -2.7 q 0.8 -1 0 -6 l -6.3 6.3 l 0 -19.95 l -10 10.1 l 0 22.35 l 10 -10.1 z"></path><path d="M -94.77499999999998 -68.75 l 20 20 l 7.5 -7.5 l -20 -20 l -7.5 7.5 z"></path></g><g><path d="M -24.774999999999977 -38.75 l -10 10 l 0 30 l 30 30 l 7.5 -7.5 l -27.5 -27.5 l 0 -35 z"></path><path d="M -23.625 51.25 l 8.8 -8.8 l -1.2 -1.2 l -20 20 l 30 0 l 10 -10 l -27.6 0 z"></path></g><g><path d="M 21.475000000000023 -38.75 l -7.5 7.5 57.5 62.5 7.5 -7.5 -57.5 -62.5 z"></path><path d="M 73.97500000000002 28.75 l 5 -5 l 10 10 l 7.15 -7.15 l -11.3 -11.2 l -7 7.1 l -1 1 q -3.183 -1.742 -3.85 0 q -0.916 1.293 0 6.25 z"></path><path d="M 74.07500000000005 -28.75 l -8.8 8.8 l 1.2 1.2 l 20 -20 l -30 0 l -10 10 l 27.6 0 z"></path><path d="M 43.97500000000002 41.25 l -10 10 l 0 25 l 10 -10 l 0 -25 z"></path></g><g><path d="M 116.125 -38.75 l -10 10 l 0 60 l 10 -10 l 0 -50 l 30 0 l 10 -10 l -40 0 z"></path><g><path d="M 106.125 16.25 l 0 15 l 12.6 0 l -7.5 7.5 l 1.2 1.2 l 18.7 -18.7 l -15 0 l 0 -10 q -3.85 7.75 -10 5 z"></path></g><path d="M 141.125 -48.75 l 10 -10 l -30 0 l -10 10 l 30 0 z"></path><path d="M 141.125 59.95 l 10 -10 l -30 0 l -10 10 l 30 0 z"></path></g><g><path d="M 173.625 -38.75 l -7.5 7.5 57.5 62.5 7.5 -7.5 -57.5 -62.5 z"></path><path d="M 196.125 41.25 l -10 10 l 0 25 l 10 -10 l 0 -25 z"></path></g><g><path d="M 251.125 21.25 l -10 10 l 50 0 l 10 -10 l 0 -30 l -30 0 l 0 -30 l -10 10 l 0 30 l 30 0 l 0 20 l -40 0 z"></path><path d="M 263.625 -56.25 l 7.5 7.5 l 7.5 -7.5 l -7.5 -7.5 l -7.5 7.5 z"></path></g><g><path d="M 321.125 -38.75 l -10 10 l 0 60 l 10 -10 l 0 -60 z"></path></g></g></g>
</svg>
