<svg xmlns="http://www.w3.org/2000/svg" viewBox="0 0 239.9 119.634368" width="239.9" height="119.634368" fill="currentColor" stroke="none">
<g transform="translate(119.95 59.817184)"><g><g><path d="M -112.45 -34.817184041507495 l -7.5 7.5 57.5 62.5 7.5 -7.5 -57.5 -62.5 z"></path></g><g><path d="M 10.049999999999997 -34.7921840415075 l -10 10 l 0 20 l -35 0 l -10 10 l 29.95 29.95 l 7.5 -7.5 l -22.45 -22.45 l 30 0 l 10 -10 l 0 -30 z"></path><g><path d="M 22.450000000000003 -44.792184041507504 l -22.4 0 l -10 10.1 l 19.9 0 l 0.1 -0.1 l 0 0.1 l -0.05 0 l -9.95 9.9 l 0 5 q 5 -5.774 10 -5 l 0 -7.55 l 12.4 -12.4 z"></path></g><g><path d="M -8.650000000000006 26.507815958492486 l 0 -0.05 q -8.1 -2.8 -6.35 8.7 l 6.35 -6.3 q 9.4 17.75 21.2 6.85 q -12.25 2.15 -14.85 -15.5 l -6.35 6.3 z"></path></g><path d="M -1.25 59.817184041507495 l 10 -10 l -30 0 l -10 10 l 30 0 z"></path></g><g><path d="M 52.45 -10.967184041507496 l -10 10 l 0 -33.85 l -10 10 l 0 36.2 l 10 -9.95 l 0 33.75 l 10 -10 l 0 -36.15 z"></path><g><path d="M 52.45 42.782815958492506 l 0 -17.6 q -7.3 -5 -10 10 l 0 20 l 17.5 -17.5 l -1.2 -1.2 l -6.3 6.3 z"></path></g></g><g><path d="M 77.45 -34.817184041507495 l -7.5 7.5 l 31.25 31.25 l -31.25 31.25 l 40 0 l 10 -10 l -37.6 0 l 27.5 -27.6 l -32.4 -32.4 z"></path><path d="M 87.45 -52.317184041507495 l 7.5 7.5 l 7.5 -7.5 l -7.5 -7.5 l -7.5 7.5 z"></path><path d="M 104.95 55.182815958492505 l 10 -10 l -30 0 l -10 10 l 30 0 z"></path></g></g></g>
</svg>
