<svg xmlns="http://www.w3.org/2000/svg" viewBox="0 0 82.4 100" width="82.4" height="100" fill="currentColor" stroke="none">
<g transform="translate(41.2 50)"><g><g><path d="M -18.800000000000004 -30 l -10 10 l 0 60 l 10 -10 l 0 -60 z"></path><g><path d="M -41.2 50 l 22.4 0 l 10 -10.1 l -19.9 0 l -0.1 0.1 l 0 -0.1 l 0.05 0 l 9.95 -9.9 l 0 -5 q -5 5.774 -10 5 l 0 7.55 l -12.4 12.4 z"></path></g></g><g><path d="M 12.449999999999996 -30 l -10 10 l 0 30 l 30 30 l 7.5 -7.5 l -27.5 -27.5 l 0 -35 z"></path><path d="M 31.200000000000003 -40 l 10 -10 l -30 0 l -10 10 l 30 0 z"></path></g></g></g>
</svg>
