<svg xmlns="http://www.w3.org/2000/svg" viewBox="0 0 75 89.975" width="75" height="89.975" fill="currentColor" stroke="none">
<g transform="translate(37.5 44.9875)"><g><g><path d="M -27.5 -25.012499999999996 l -10 10 l 0 60 l 10 -10 l 0 -60 z"></path></g><g><path d="M 37.5 -24.987499999999997 l -10 10 l 0 20 l -35 0 l -10 10 l 29.95 29.95 l 7.5 -7.5 l -22.45 -22.45 l 30 0 l 10 -10 l 0 -30 z"></path><g><path d="M 18.75 36.26249999999999 q -6.486 -1.216 -4.75 5 q 2.924 -3.894 5.95 -3.8 l 8.8 -8.8 l 0 -15 l -10 10 l 0 12.6 z"></path></g><path d="M 20 -34.987500000000004 l 10 -10 l -30 0 l -10 10 l 30 0 z"></path></g></g></g>
</svg>
