<svg xmlns="http://www.w3.org/2000/svg" viewBox="0 0 52.7 172.294907" width="52.7" height="172.294907" fill="currentColor" stroke="none">
<g transform="translate(26.35 86.147453)"><g><g><path d="M -8.849999999999998 -24.92499999999999 l -10 10 l 0 40 l 9.55 -9.55 l 20.65 29.4 l 7.5 -7.5 l -21.6 -30.85 l -6.1 6.1 l 0 -37.6 z"></path><g><path d="M -18.849999999999998 -3.724999999999998 q 5 -12.14 10 -11.2 l 0 -10 l -17.5 17.5 l 1.2 1.2 l 6.3 -6.3 l 0 8.8 z"></path></g><g><path d="M 12.45 41.875 q 3.28 -1.825 6.4 -4.45 l 7.5 -7.5 l -1.2 -1.2 l -7.5 7.5 q -4.106 -1.688 -4.55 -0.35 q -0.6 1.45 -0.65 6 z"></path></g><path d="M 10.000000000000004 -34.925 l 10 -10 l -30 0 l -10 10 l 30 0 z"></path></g></g></g>
</svg>
