<svg xmlns="http://www.w3.org/2000/svg" viewBox="0 0 62.4 172.294907" width="62.4" height="172.294907" fill="currentColor" stroke="none">
<g transform="translate(31.2 86.147453)"><g><g><path d="M 21.2 -15.374999999999993 l 10 -10 l -29.85 -29.85 l -7.5 7.5 l 22.35 22.35 l -20 0 l -15 15 l 25.6 25.6 l 7.5 -7.5 l -23.1 -23.1 l 30 0 z"></path><g><path d="M -6.150000000000002 -47.724999999999994 l -15.05 0 l -10 10 l 17.45 0 l 8.75 -8.8 q 6.9 0.2 3.8 -6.15 l -4.95 4.95 z"></path></g><g><path d="M 26.8 5.2250000000000085 l -15 0 q -7 -2.95 -7.6 0 q -1.65 2.7 2.6 10 l 10 0 l 0 15 l 10 -10 l 0 -15 z"></path></g><path d="M -7.5 47.725 l 7.5 7.5 l 7.5 -7.5 l -7.5 -7.5 l -7.5 7.5 z"></path></g></g></g>
</svg>
