<svg xmlns="http://www.w3.org/2000/svg" viewBox="0 0 68.65 124.7" width="68.65" height="124.7" fill="currentColor" stroke="none">
<g transform="translate(34.325 62.35)"><g><g fill="currentColor"><path d="M -14.024999999999999 -52.65 l -7.5 7.5 l 31.25 31.25 l -31.25 31.25 l 40 0 l 10 -10 l -37.6 0 l 27.5 -27.6 l -32.4 -32.4 z"></path><g><path d="M -13.125 -51.05 l 11.2 -11.3 l -22.4 0 l -10 10.1 l 19.9 0 l -7.1 7.1 q 10.446 1.157 8.4 -5.9 z"></path></g><g><path d="M 18.475 7.350000000000001 q 2.55 4.45 -5 10 l 5 0 l 15.85 -15.9 l -13 -12.9 l -7 7 l 11.8 11.8 l -7.65 0 z"></path></g><path d="M 10.000000000000007 52.35 l 0 -25 l -20 20 l 1.2 1.2 l 8.8 -8.8 l 0 22.6 l 10 -10 z"></path></g></g></g>
</svg>
