<svg xmlns="http://www.w3.org/2000/svg" viewBox="0 0 70.944442 172.294907" width="70.944442" height="172.294907" fill="currentColor" stroke="none">
<g transform="translate(35.47449 86.147453)"><g><g><path d="M -15.174489795918369 -35.15 l -7.5 7.5 l 31.25 31.25 l -31.25 31.25 l 40 0 l 10 -10 l -37.6 0 l 27.5 -27.6 l -32.4 -32.4 z"></path><g><path d="M -14.27448979591837 -33.55 l 11.2 -11.3 l -22.4 0 l -10 10.1 l 19.9 0 l -7.1 7.1 q 10.446 1.157 8.4 -5.9 z"></path></g><g><path d="M 25.025510204081634 44.85 q 16 -9.8 7.5 -27.5 l -7.55 7.5 l -11.1 0 q 3.05 5.25 -1.5 10 l 5 0 l 8.8 -8.85 q 6.15 7.15 -1.15 18.85 z"></path></g></g></g></g>
</svg>
