<svg xmlns="http://www.w3.org/2000/svg" viewBox="0 0 142.5 95" width="142.5" height="95" fill="currentColor" stroke="none">
<g transform="translate(71.25 47.5)"><g><g><path d="M -63.75 -47.5 l -7.5 7.5 57.5 62.5 7.5 -7.5 -57.5 -62.5 z"></path><path d="M -16.35 12.5 q -1.65 2.7 2.6 10 l 12.6 0 l -7.5 7.5 l 1.2 1.2 l 18.7 -18.7 l -20 0 q -7 -2.95 -7.6 0 z"></path><path d="M -53.75 40 l 7.5 7.5 l 7.5 -7.5 l -7.5 -7.5 l -7.5 7.5 z"></path></g><g><path d="M 36.25 -47.5 l -10 10 l 0 35 l 19.95 0 l -24.95 25 l 40 0 l 10 -10 l -37.6 0 l 24.85 -25 l -22.25 0 l 0 -35 z"></path></g></g></g>
</svg>
