<svg xmlns="http://www.w3.org/2000/svg" viewBox="0 0 236.9 117.5" width="236.9" height="117.5" fill="currentColor" stroke="none">
<g transform="translate(118.45 58.75)"><g><g><path d="M -100.25 -30.050000000000004 l -10 10 l 0 60 l 10 -10 l 0 -60 z"></path><g><path d="M -98.45 51.74999999999999 l -11.8 -11.8 l 10 -10 l 0 -5 q -5.188 7.964 -10 5 l 0 7.7 l -8.2 8.2 l 13 12.9 l 7 -7 z"></path></g></g><g><path d="M -80.95 -30.050000000000004 l -7.5 7.5 l 31.25 31.25 l -31.25 31.25 l 40 0 l 10 -10 l -37.6 0 l 27.5 -27.6 l -32.4 -32.4 z"></path><path d="M -53.45 -40.050000000000004 l 10 -10 l -30 0 l -10 10 l 30 0 z"></path></g><g><path d="M -10.25 -30.050000000000004 l -10 10 l 0 60 l 10 -10 l 0 -60 z"></path><g><path d="M -20.25 -20.050000000000004 l 0 5 q 6.25 -9 10 -5 l 0 -7.6 l 11.8 11.7 l 7 -7 l -12.95 -12.95 l -15.85 15.85 z"></path></g><g><path d="M -8.450000000000003 51.74999999999999 l -11.8 -11.8 l 10 -10 l 0 -5 q -5.188 7.964 -10 5 l 0 7.7 l -8.2 8.2 l 13 12.9 l 7 -7 z"></path></g></g><g><path d="M 28.549999999999997 -30.050000000000004 l -10 10 l 0 60 l 10 -10 l 0 -50 l 30 0 l 10 -10 l -40 0 z"></path><g><path d="M 48.55 -20.050000000000004 l 10 0 l 17.5 -17.5 l -1.2 -1.2 l -8.7 8.7 l -7.6 0 q 0.83 5.4 -10 10 z"></path></g><g><path d="M 28.549999999999997 18.749999999999996 q -5 12.14 -10 11.2 l 0 10 l 17.5 -17.5 l -1.2 -1.2 l -6.3 6.3 l 0 -8.8 z"></path></g><path d="M 57.3 -48.75000000000001 l 10 -10 l -30 0 l -10 10 l 30 0 z"></path></g><g><path d="M 108.45 -6.200000000000005 l -10 10 l 0 -33.85 l -10 10 l 0 36.2 l 10 -9.95 l 0 33.75 l 10 -10 l 0 -36.15 z"></path><g><path d="M 86.05 49.949999999999996 l 22.4 0 l 10 -10.1 l -19.9 0 l -0.1 0.1 l 0 -0.1 l 0.05 0 l 9.95 -9.9 l 0 -5 q -5 5.774 -10 5 l 0 7.55 l -12.4 12.4 z"></path></g></g></g></g>
</svg>
