<svg xmlns="http://www.w3.org/2000/svg" viewBox="0 0 445.85 134.95" width="445.85" height="134.95" fill="currentColor" stroke="none">
<g transform="translate(222.925 67.475)"><g><g><path d="M -194.925 0.6500000000000039 l 7.45 -7.5 27.05 34.4 7.5 -7.5 -27.8 -36 -7.75 7.8 -26.95 -34.3 -7.5 7.5 28 35.6 z"></path></g><g><path d="M -132.925 -42.37499999999999 l -10 10 l 0 40 l 9.55 -9.55 l 20.65 29.4 l 7.5 -7.5 l -21.6 -30.85 l -6.1 6.1 l 0 -37.6 z"></path><g><path d="M -110.12500000000001 37.474999999999994 l 17.4 0 l 10 -10 l -15 0 l 10 -10 l -20 0 q -7 -2.95 -7.6 0 q -1.65 2.7 2.6 10 l 12.55 0 l -9.95 10 z"></path></g><path d="M -120.42500000000001 57.47499999999999 l 8.8 -8.8 l -1.2 -1.2 l -20 20 l 30 0 l 10 -10 l -27.6 0 z"></path></g><g><path d="M -62.825000000000045 -42.474999999999994 l -9.9 9.95 l 47.35 58.35 l 0.05 0 l 1.4 1.75 l 7.5 -7.5 l -42.7 -52.55 l 52.05 0 l 10 -10 l -65.75 0 z"></path><g><path d="M -8.92500000000004 42.57500000000002 l 7.5 -7.5 l -15 -15 q -6.8 0.5 -7.5 7.5 l 15 15 z"></path></g><path d="M -42.400000000000034 -59.974999999999994 l 7.5 7.5 l 7.5 -7.5 l -7.5 -7.5 l -7.5 7.5 z"></path><path d="M -24.900000000000034 62.57500000000001 l 10 -10 l -30 0 l -10 10 l 30 0 z"></path></g><g><path d="M 40.875 -57.449999999999996 l -7.5 7.5 l 21.65 27.5 l 7.45 -7.5 l -21.6 -27.5 z"></path><path d="M 22.92500000000001 -12.449999999999996 l -10 10 l 50 0 l 10 -10 l -50 0 z"></path></g><g><path d="M 110.92500000000001 0.6500000000000039 l 7.45 -7.5 27.05 34.4 7.5 -7.5 -27.8 -36 -7.75 7.8 -26.95 -34.3 -7.5 7.5 28 35.6 z"></path><path d="M 95.42500000000001 10.050000000000004 l -10 10 l 0 25 l 10 -10 l 0 -25 z"></path><path d="M 145.52500000000003 -32.449999999999996 l -8.8 8.8 l 1.2 1.2 l 20 -20 l -30 0 l -10 10 l 27.6 0 z"></path></g><g><path d="M 222.925 -42.425 l -10 10 l 0 20 l -35 0 l -10 10 l 29.95 29.95 l 7.5 -7.5 l -22.45 -22.45 l 30 0 l 10 -10 l 0 -30 z"></path><g><path d="M 180.375 57.674999999999976 l 1.2 1.2 l 16.3 -16.3 l 0 -15.05 l 7.5 -7.5 q -11.45 -4.9 -8.7 6.3 l -8.8 8.9 l 0 14.95 l -7.5 7.5 z"></path></g></g></g></g>
</svg>
