<svg xmlns="http://www.w3.org/2000/svg" viewBox="0 0 581.2 136.25" width="581.2" height="136.25" fill="currentColor" stroke="none">
<g transform="translate(290.6 68.125)"><g><g><path d="M -245.45000000000002 9.900000000000025 l 7.45 -7.5 27.05 34.4 7.5 -7.5 -27.8 -36 -7.75 7.8 -26.95 -34.3 -7.5 7.5 28 35.6 z"></path><path d="M -268.45000000000005 -30.699999999999974 l -5 5 l -10 -10 l -7.15 7.15 l 11.3 11.2 l 7 -7.1 l 1 -1 q 3.183 1.742 3.85 0 q 0.916 -1.293 0 -6.25 z"></path><path d="M -260.95000000000005 19.300000000000026 l -10 10 l 0 25 l 10 -10 l 0 -25 z"></path><path d="M -208.45000000000002 -23.199999999999974 l 10 -10 l -30 0 l -10 10 l 30 0 z"></path><path d="M -228.45000000000002 -43.199999999999974 l 10 -10 l -30 0 l -10 10 l 30 0 z"></path></g><g><path d="M -133.45000000000002 -33.174999999999976 l -10 10 l 0 20 l -35 0 l -10 10 l 29.95 29.95 l 7.5 -7.5 l -22.45 -22.45 l 30 0 l 10 -10 l 0 -30 z"></path><g><path d="M -176.00000000000003 66.925 l 1.2 1.2 l 16.3 -16.3 l 0 -15.05 l 7.5 -7.5 q -11.45 -4.9 -8.7 6.3 l -8.8 8.9 l 0 14.95 l -7.5 7.5 z"></path></g></g><g><path d="M -113.45000000000002 -33.199999999999974 l -10 10 l 0 60 l 10 -10 l 0 -60 z"></path><g><path d="M -113.40000000000003 -30.899999999999977 l 15 0 l 10 -10 l -17.4 0 l -17.65 17.7 l 0 7.3 q 5.4 -4.35 10 -2.75 l 0 -12.25 z"></path></g><g><path d="M -123.45000000000002 21.800000000000026 l 0 15 l 10 -10 l 0 20 l 10 -9.9 l 0 -22.4 l -10 9.95 l 0 -5.15 q -5 6.1 -10 2.5 z"></path></g></g><g><path d="M -53.400000000000006 -33.12499999999997 l -10 10 l 0 40 l 9.55 -9.55 l 20.65 29.4 l 7.5 -7.5 l -21.6 -30.85 l -6.1 6.1 l 0 -37.6 z"></path><g><path d="M -53.400000000000006 -33.12499999999998 l -15 0 l 0 -15 l -10 10 l 0 15 l 15 0 l 0 10 q 3.85 -7.75 10 -5 l 0 -15 z"></path></g><g><path d="M -32.10000000000002 33.67500000000001 q 3.28 -1.825 6.4 -4.45 l 7.5 -7.5 l -1.2 -1.2 l -7.5 7.5 q -4.106 -1.688 -4.55 -0.35 q -0.6 1.45 -0.65 6 z"></path></g><path d="M -38.30000000000001 -58.12499999999998 l 10 -10 l -30 0 l -10 10 l 30 0 z"></path></g><g><path d="M 9.999999999999943 -33.199999999999974 l -10 10 l 0 60 l 10 -10 l 0 -60 z"></path><g><path d="M 11.799999999999955 48.60000000000002 l -11.8 -11.8 l 10 -10 l 0 -5 q -5.188 7.964 -10 5 l 0 7.7 l -8.2 8.2 l 13 12.9 l 7 -7 z"></path></g></g><g><path d="M 76.79999999999995 -33.174999999999976 l -10 10 l 0 20 l -35 0 l -10 10 l 29.95 29.95 l 7.5 -7.5 l -22.45 -22.45 l 30 0 l 10 -10 l 0 -30 z"></path><g><path d="M 66.79999999999995 -23.174999999999983 l 0 5 q 6.25 -9 10 -5 l 0 -7.6 l 11.8 11.7 l 7 -7 l -12.95 -12.95 l -15.85 15.85 z"></path></g><g><path d="M 59.24999999999994 29.275000000000006 l 15.05 0 l 10 -10 l -17.45 0 l -8.75 8.8 q -6.9 -0.2 -3.8 6.15 l 4.95 -4.95 z"></path></g><path d="M 68.69999999999993 -49.024999999999984 l 10 -10 l -30 0 l -10 10 l 30 0 z"></path></g><g><path d="M 125.59999999999997 -9.349999999999975 l -10 10 l 0 -33.85 l -10 10 l 0 36.2 l 10 -9.95 l 0 33.75 l 10 -10 l 0 -36.15 z"></path><g><path d="M 125.59999999999997 44.40000000000003 l 0 -17.6 q -7.3 -5 -10 10 l 0 20 l 17.5 -17.5 l -1.2 -1.2 l -6.3 6.3 z"></path></g></g><g><path d="M 171.09999999999997 9.900000000000025 l 7.45 -7.5 27.05 34.4 7.5 -7.5 -27.8 -36 -7.75 7.8 -26.95 -34.3 -7.5 7.5 28 35.6 z"></path><path d="M 202.99999999999994 26.800000000000026 q -1.655 2.716 2.6 10 l 15 0 l 10 -10 l -20 0 q -7.015 -2.931 -7.6 0 z"></path><path d="M 155.59999999999997 19.300000000000026 l -10 10 l 0 25 l 10 -10 l 0 -25 z"></path><path d="M 163.09999999999997 54.300000000000026 l 7.5 7.5 l 7.5 -7.5 l -7.5 -7.5 l -7.5 7.5 z"></path></g><g><path d="M 255.60000000000002 -33.199999999999974 l -10 10 l 0 35 l 19.95 0 l -24.95 25 l 40 0 l 10 -10 l -37.6 0 l 24.85 -25 l -22.25 0 l 0 -35 z"></path></g></g></g>
</svg>
