<svg xmlns="http://www.w3.org/2000/svg" viewBox="0 0 352.55 129.975" width="352.55" height="129.975" fill="currentColor" stroke="none">
<g transform="translate(176.275 64.9875)"><g><g><path d="M -168.77499999999998 -34.9875 l -7.5 7.5 57.5 62.5 7.5 -7.5 -57.5 -62.5 z"></path></g><g><path d="M -46.27499999999998 -34.9625 l -10 10 l 0 20 l -35 0 l -10 10 l 29.95 29.95 l 7.5 -7.5 l -22.45 -22.45 l 30 0 l 10 -10 l 0 -30 z"></path><g><path d="M -73.92499999999998 24.987499999999983 q -1.655 2.716 2.6 10 l 15 0 l 10 -10 l -20 0 q -7.015 -2.931 -7.6 0 z"></path></g><path d="M -81.37499999999997 54.98749999999998 l 8.8 -8.8 l -1.2 -1.2 l -20 20 l 30 0 l 10 -10 l -27.6 0 z"></path></g><g><path d="M -16.274999999999977 -24.987499999999997 q -0.1 -10.25 13.15 -13.1 l -1.2 -1.1 q -22.3 -0.55 -21.95 24.2 l 37.6 0 l -7.5 7.5 l 1.2 1.2 l 18.7 -18.7 l -40 0 z"></path><path d="M -26.274999999999977 -4.987499999999997 l -10 10 l 50 0 l 10 -10 l -50 0 z"></path></g><g><path d="M 53.72500000000002 -34.9875 l -10 10 l 0 60 l 10 -10 l 0 -60 z"></path><g><path d="M 53.72500000000002 -19.987499999999997 l 0 -15 l -10 10 l 0 -20 l -10 9.9 l 0 22.4 l 10 -9.95 l 0 5.15 q 5 -6.1 10 -2.5 z"></path></g></g><g><path d="M 73.72500000000002 -34.9875 l -10 10 l 0 60 l 10 -10 l 0 -50 l 30 0 l 10 -10 l -40 0 z"></path><g><path d="M 113.72500000000002 -34.9875 l 12.65 0 l -7.5 7.5 l 1.2 1.2 l 18.7 -18.7 l -17.45 0 l -9.95 10 l -7.6 0 q 4.95 4.2 -6.25 10 l 6.25 0 l 9.95 -10 z"></path></g><g><path d="M 73.72500000000002 42.612500000000004 l 0 -17.6 q -7.3 -5 -10 10 l 0 20 l 17.5 -17.5 l -1.2 -1.2 l -6.3 6.3 z"></path></g><path d="M 111.25 -54.9875 l 10 -10 l -30 0 l -10 10 l 30 0 z"></path></g><g><path d="M 168.77499999999998 -11.137499999999998 l -10 10 l 0 -33.85 l -10 10 l 0 36.2 l 10 -9.95 l 0 33.75 l 10 -10 l 0 -36.15 z"></path><g><path d="M 168.77499999999998 42.612500000000004 l 0 -17.6 q -7.3 -5 -10 10 l 0 20 l 17.5 -17.5 l -1.2 -1.2 l -6.3 6.3 z"></path></g></g></g></g>
</svg>
