<svg xmlns="http://www.w3.org/2000/svg" viewBox="0 0 529.55 134.975" width="529.55" height="134.975" fill="currentColor" stroke="none">
<g transform="translate(264.775 67.4875)"><g><g><path d="M -254.77499999999998 -47.48750000000001 l -10 10 l 0 60 l 10 -10 l 0 -60 z"></path></g><g><path d="M -185.37499999999997 -47.48750000000001 l -50 0 l -9.4 9.4 l 23.2 33.05 l 6.2 -6.25 l 0 33.8 l 10 -10 l 0 -36.15 l -1.1 1.1 q -2.967 2.977 -5.95 5.95 l -1.95 2 l -0.65 0.65 l -16.5 -23.5 l 36.2 0 l 10 -10 z"></path><g><path d="M -215.37499999999997 42.51249999999999 l 10 -10 l 0 -20 q -7.3 -5 -10 10 l 0 20 z"></path></g><path d="M -205.04999999999998 -57.48750000000001 l 10 -10 l -30 0 l -10 10 l 30 0 z"></path></g><g><path d="M -147.325 -4.387500000000012 l 7.45 -7.5 27.05 34.4 7.5 -7.5 -27.8 -36 -7.75 7.8 -26.95 -34.3 -7.5 7.5 28 35.6 z"></path><path d="M -162.825 5.012499999999989 l -10 10 l 0 25 l 10 -10 l 0 -25 z"></path><path d="M -112.72499999999997 -37.48750000000001 l -8.8 8.8 l 1.2 1.2 l 20 -20 l -30 0 l -10 10 l 27.6 0 z"></path></g><g><path d="M -30.924999999999983 -47.48750000000001 l -50 0 l -9.4 9.4 l 23.2 33.05 l 6.2 -6.25 l 0 33.8 l 10 -10 l 0 -36.15 l -1.1 1.1 q -2.967 2.977 -5.95 5.95 l -1.95 2 l -0.65 0.65 l -16.5 -23.5 l 36.2 0 l 10 -10 z"></path><g><path d="M -60.92499999999998 42.51249999999999 l 10 -10 l 0 -20 q -7.3 -5 -10 10 l 0 20 z"></path></g></g><g><path d="M -10.875 12.43749999999999 l -10 10 l 65.75 0 l 9.9 -9.95 l -30.45 -37.55 l -7.25 7.3 l -24.15 -29.65 l -7.45 7.4 l 25.2 31.05 l 7.5 -7.45 l 23.1 28.85 l -52.15 0 z"></path><path d="M 26.94999999999999 42.437499999999986 l 10 -10 l -30 0 l -10 10 l 30 0 z"></path></g><g><path d="M 64.77499999999998 22.48749999999999 l 10 -10 l 0 -20 l 35 0 l 10 -10 l -29.95 -29.95 l -7.5 7.5 l 22.45 22.45 l -30 0 l -10 10 l 0 30 z"></path><g><path d="M 74.42499999999995 10.387499999999996 q -0.375 0.363 -1.15 1.15 q -6.261 1.099 -8.5 -3.8 l 0 14.75 l 10 -10 l 10 10 l 7.15 -7.15 l -11.3 -11.2 l -5.85 5.9 q -0.04 0.029 -0.35 0.35 z"></path></g><path d="M 82.27499999999998 42.4875 l 0 25 l 20 -20 l -1.2 -1.2 l -8.8 8.8 l 0 -22.6 l -10 10 z"></path></g><g><path d="M 158.625 22.437499999999986 l 10 -10 l 0 -40 l -9.55 9.55 l -20.65 -29.4 l -7.5 7.5 l 21.6 30.85 l 6.1 -6.1 l 0 37.6 z"></path><path d="M 159.77499999999998 42.437499999999986 l 10 -10 l -30 0 l -10 10 l 30 0 z"></path></g><g><path d="M 189.77499999999998 -47.48750000000001 l -10 10 l 0 60 l 10 -10 l 0 -60 z"></path><g><path d="M 179.77499999999998 7.512499999999989 l 0 15 l 10 -10 l 0 20 l 10 -9.9 l 0 -22.4 l -10 9.95 l 0 -5.15 q -5 6.1 -10 2.5 z"></path></g></g><g><path d="M 264.775 -47.46250000000001 l -10 10 l 0 20 l -35 0 l -10 10 l 29.95 29.95 l 7.5 -7.5 l -22.45 -22.45 l 30 0 l 10 -10 l 0 -30 z"></path><g><path d="M 237.125 12.487499999999969 q -1.655 2.716 2.6 10 l 15 0 l 10 -10 l -20 0 q -7.015 -2.931 -7.6 0 z"></path></g><path d="M 247.27499999999998 -57.46250000000002 l 10 -10 l -30 0 l -10 10 l 30 0 z"></path></g></g></g>
</svg>
