<svg xmlns="http://www.w3.org/2000/svg" viewBox="0 0 180.05 90" width="180.05" height="90" fill="currentColor" stroke="none">
<g transform="translate(90.025 45)"><g><g><path d="M -80.025 -25 l -10 10 l 0 60 l 10 -10 l 0 -60 z"></path><g><path d="M -90.025 30 l 0 15 l 15 0 l 10 -10 l -15 0 l 0 -10 q -3.874 7.753 -10 5 z"></path></g></g><g><path d="M -43.775000000000006 -25 l -10 10 l 0 30 l 30 30 l 7.5 -7.5 l -27.5 -27.5 l 0 -35 z"></path><path d="M -25.025000000000006 -35 l 10 -10 l -30 0 l -10 10 l 30 0 z"></path></g><g><path d="M 4.974999999999994 -25 l -10 10 l 0 60 l 10 -10 l 0 -60 z"></path><g><path d="M 5.0249999999999915 -22.700000000000003 l 15 0 l 10 -10 l -17.4 0 l -17.65 17.7 l 0 7.3 q 5.4 -4.35 10 -2.75 l 0 -12.25 z"></path></g></g><g><path d="M 50.025000000000006 -25 l -10 10 l 0 60 l 10 -10 l 0 -50 l 30 0 l 10 -10 l -40 0 z"></path><path d="M 75.025 -35 l 10 -10 l -30 0 l -10 10 l 30 0 z"></path></g></g></g>
</svg>
