<svg xmlns="http://www.w3.org/2000/svg" viewBox="0 0 85.05 172.294907" width="85.05" height="172.294907" fill="currentColor" stroke="none">
<g transform="translate(42.525 86.147453)"><g><g><path d="M 22.525000000000006 20 l 10 -10 l 0 -50 l 10 -10 l -45 0 l -10 10 l 42.6 0 l -7.6 7.6 l 0 42.4 l -30 0 l -10 10 l 40 0 z"></path><g><path d="M -17.474999999999994 20 l -15.05 0 l -10 10 l 17.45 0 l 9.95 -10 l 7.6 0 q -4.95 -4.2 6.25 -10 l -6.25 0 l -9.95 10 z"></path></g><path d="M -7.499999999999993 -67.5 l 7.5 7.5 l 7.5 -7.5 l -7.5 -7.5 l -7.5 7.5 z"></path><path d="M -9.999999999999993 50 l 0 25 l 20 -20 l -1.2 -1.2 l -8.8 8.8 l 0 -22.6 l -10 10 z"></path></g></g></g>
</svg>
