<svg xmlns="http://www.w3.org/2000/svg" viewBox="0 0 65.95 172.294907" width="65.95" height="172.294907" fill="currentColor" stroke="none">
<g transform="translate(32.975 86.147453)"><g><g><path d="M -22.975 -38.925000000000004 l -10 10 l 0 60 l 10 -10 l 0 -50 l 30 0 l 10 -10 l -40 0 z"></path><g><path d="M 2.4750000000000014 -28.925000000000004 l 4.55 0 l 8.8 -8.8 l 10 10 l 7.15 -7.15 l -11.3 -11.2 l -7.05 7.15 l -6.3 0 q 3.7 5 -5.85 10 z"></path></g><g><path d="M -32.975 31.074999999999996 l 15 0 l 0 15 l 10 -10 l 0 -15 l -15 0 l 0 -10 q -3.85 7.75 -10 5 l 0 15 z"></path></g></g></g></g>
</svg>
