<svg xmlns="http://www.w3.org/2000/svg" viewBox="0 0 102.55 172.294907" width="102.55" height="172.294907" fill="currentColor" stroke="none">
<g transform="translate(51.275 86.147453)"><g><g><path d="M -23.724999999999994 -16.25 l -7.5 7.5 57.5 62.5 7.5 -7.5 -57.5 -62.5 z"></path><path d="M -30.074999999999996 -7.600000000000001 l 0 0.05 q 8.1 2.8 6.35 -8.7 l -6.35 6.3 q -9.4 -17.75 -21.2 -6.85 q 12.25 -2.15 14.85 15.5 l 6.35 -6.3 z"></path><path d="M 23.674999999999997 43.75 q -1.655 2.716 2.6 10 l 15 0 l 10 -10 l -20 0 q -7.015 -2.931 -7.6 0 z"></path><path d="M -31.224999999999994 33.75 l 20 20 l 7.5 -7.5 l -20 -20 l -7.5 7.5 z"></path><path d="M 31.275000000000006 -6.25 l 10 -10 l -30 0 l -10 10 l 30 0 z"></path><path d="M -12.474999999999994 -46.25 l 20 20 l 7.5 -7.5 l -20 -20 l -7.5 7.5 z"></path></g></g></g>
</svg>
