<svg xmlns="http://www.w3.org/2000/svg" viewBox="0 0 272.6 136.175" width="272.6" height="136.175" fill="currentColor" stroke="none">
<g transform="translate(136.3 68.0875)"><g><g><path d="M -108.75000000000001 -30.58749999999999 l -7.5 7.5 57.5 62.5 7.5 -7.5 -57.5 -62.5 z"></path><path d="M -115.10000000000002 -21.937499999999993 l 0 0.05 q 8.1 2.8 6.35 -8.7 l -6.35 6.3 q -9.4 -17.75 -21.2 -6.85 q 12.25 -2.15 14.85 15.5 l 6.35 -6.3 z"></path><path d="M -61.35000000000002 29.41250000000001 q -1.655 2.716 2.6 10 l 15 0 l 10 -10 l -20 0 q -7.015 -2.931 -7.6 0 z"></path><path d="M -116.25000000000001 19.41250000000001 l 20 20 l 7.5 -7.5 l -20 -20 l -7.5 7.5 z"></path><path d="M -53.750000000000014 -20.58749999999999 l 10 -10 l -30 0 l -10 10 l 30 0 z"></path><path d="M -97.50000000000001 -60.58749999999999 l 20 20 l 7.5 -7.5 l -20 -20 l -7.5 7.5 z"></path></g><g><path d="M 31.25 -30.562499999999993 l -10 10 l 0 20 l -35 0 l -10 10 l 29.95 29.95 l 7.5 -7.5 l -22.45 -22.45 l 30 0 l 10 -10 l 0 -30 z"></path><g><path d="M 3.599999999999966 29.38749999999999 q -1.65 2.7 2.6 10 l 12.6 0 l -7.5 7.5 l 1.2 1.2 l 18.7 -18.7 l -20 0 q -7 -2.95 -7.6 0 z"></path></g><path d="M 13.75 68.08749999999999 l 10 -10 l -30 0 l -10 10 l 30 0 z"></path></g><g><path d="M 51.25 -30.58749999999999 l -10 10 l 0 60 l 10 -10 l 0 -60 z"></path><g><path d="M 51.30000000000001 -28.287499999999994 l 15 0 l 10 -10 l -17.4 0 l -17.65 17.7 l 0 7.3 q 5.4 -4.35 10 -2.75 l 0 -12.25 z"></path></g></g><g><path d="M 126.30000000000001 9.037500000000009 l 10 -10 l -29.85 -29.85 l -7.5 7.5 l 22.35 22.35 l -20 0 l -15 15 l 25.6 25.6 l 7.5 -7.5 l -23.1 -23.1 l 30 0 z"></path><path d="M 121.30000000000001 -40.81249999999999 l 10 -10 l -30 0 l -10 10 l 30 0 z"></path></g></g></g>
</svg>
