<svg xmlns="http://www.w3.org/2000/svg" viewBox="0 0 65.7 172.294907" width="65.7" height="172.294907" fill="currentColor" stroke="none">
<g transform="translate(32.85 86.147453)"><g><g fill="currentColor"><path d="M -14.650000000000006 -62.55 l -10 10 l 0 60 l 10 -10 l 0 -50 l 30 0 l 10 -10 l -40 0 z"></path><g><path d="M 5.349999999999994 -52.55 l 10 0 l 17.5 -17.5 l -1.2 -1.2 l -8.7 8.7 l -7.6 0 q 0.83 5.4 -10 10 z"></path></g><g><path d="M -12.850000000000005 19.25 l -11.8 -11.8 l 10 -10 l 0 -5 q -5.188 7.964 -10 5 l 0 7.7 l -8.2 8.2 l 13 12.9 l 7 -7 z"></path></g><path d="M -10.000000000000007 46.25 l 0 25 l 20 -20 l -1.2 -1.2 l -8.8 8.8 l 0 -22.6 l -10 10 z"></path></g></g></g>
</svg>
