<svg xmlns="http://www.w3.org/2000/svg" viewBox="0 0 148.85 110" width="148.85" height="110" fill="currentColor" stroke="none">
<g transform="translate(74.425 55)"><g><g><path d="M -64.425 -35 l -10 10 l 0 60 l 10 -10 l 0 -60 z"></path><g><path d="M -74.425 20 l 0 15 l 15 0 l 10 -10 l -15 0 l 0 -10 q -3.874 7.753 -10 5 z"></path></g></g><g><path d="M -29.424999999999997 -35 l -10 10 l 0 36.3 l 10 -10.05 l 0 33.75 l 10 -10 l 0 -36.15 l -10 10 l 0 -23.85 l 30 0 l 10 -10 l -40 0 z"></path><g><path d="M -19.424999999999997 42.6 l 0 -17.6 q -7.3 -5 -10 10 l 0 20 l 17.5 -17.5 l -1.2 -1.2 l -6.3 6.3 z"></path></g><path d="M -4.424999999999997 -45 l 10 -10 l -30 0 l -10 10 l 30 0 z"></path></g><g><path d="M 49.375 -35 l -10 10 l 0 60 l 10 -10 l 0 -60 z"></path><g><path d="M 49.425 -32.7 l 15 0 l 10 -10 l -17.4 0 l -17.65 17.7 l 0 7.3 q 5.4 -4.35 10 -2.75 l 0 -12.25 z"></path></g><g><path d="M 49.375 25 l 0 -5 q -6.25 9 -10 5 l 0 7.6 l -11.8 -11.7 l -7 7 l 12.95 12.95 l 15.85 -15.85 z"></path></g></g></g></g>
</svg>
