<svg xmlns="http://www.w3.org/2000/svg" viewBox="0 0 254.9 105.05" width="254.9" height="105.05" fill="currentColor" stroke="none">
<g transform="translate(127.45 52.525)"><g><g><path d="M -105.05000000000001 -32.50000000000001 l -10 10 l 0 60 l 10 -10 l 0 -60 z"></path><g><path d="M -127.45 47.49999999999999 l 22.4 0 l 10 -10.1 l -19.9 0 l -0.1 0.1 l 0 -0.1 l 0.05 0 l 9.95 -9.9 l 0 -5 q -5 5.774 -10 5 l 0 7.55 l -12.4 12.4 z"></path></g></g><g><path d="M -75.15 -32.525000000000006 l -9.9 9.95 l 47.35 58.35 l 0.05 0 l 1.4 1.75 l 7.5 -7.5 l -42.7 -52.55 l 52.05 0 l 10 -10 l -65.75 0 z"></path><g><path d="M -21.249999999999986 52.525000000000006 l 7.5 -7.5 l -15 -15 q -6.8 0.5 -7.5 7.5 l 15 15 z"></path></g><path d="M -37.22500000000001 -42.525000000000006 l 10 -10 l -30 0 l -10 10 l 30 0 z"></path></g><g><path d="M 10.600000000000009 -32.50000000000001 l -10 10 l 0 60 l 10 -10 l 0 -60 z"></path><g><path d="M 0.6000000000000085 22.499999999999993 l 0 15 l 15 0 l 10 -10 l -15 0 l 0 -10 q -3.874 7.753 -10 5 z"></path></g></g><g><path d="M 101.24999999999999 -22.425000000000008 l 10 -10 l -65.75 0 l -9.9 9.95 l 30.45 37.55 l 7.25 -7.3 l 24.15 29.65 l 7.45 -7.4 l -25.2 -31.05 l -7.5 7.45 l -23.1 -28.85 l 52.15 0 z"></path><g><path d="M 104.95 29.92499999999999 q -6.8 0.5 -7.5 7.5 l 15 15 l 15 -15 l -1.2 -1.2 l -7.5 7.5 l -13.8 -13.8 z"></path></g><path d="M 91.52499999999999 -42.425000000000004 l 10 -10 l -30 0 l -10 10 l 30 0 z"></path></g></g></g>
</svg>
