<svg xmlns="http://www.w3.org/2000/svg" viewBox="0 0 293.15 124.925" width="293.15" height="124.925" fill="currentColor" stroke="none">
<g transform="translate(146.575 62.4625)"><g><g><path d="M -128.375 -37.46249999999999 l -10 10 l 0 60 l 10 -10 l 0 -60 z"></path><g><path d="M -126.57499999999999 44.337500000000006 l -11.8 -11.8 l 10 -10 l 0 -5 q -5.188 7.964 -10 5 l 0 7.7 l -8.2 8.2 l 13 12.9 l 7 -7 z"></path></g></g><g><path d="M -106.67499999999998 -37.48749999999999 l -9.9 9.95 l 47.35 58.35 l 0.05 0 l 1.4 1.75 l 7.5 -7.5 l -42.7 -52.55 l 52.05 0 l 10 -10 l -65.75 0 z"></path><g><path d="M -52.77499999999999 47.56250000000002 l 7.5 -7.5 l -15 -15 q -6.8 0.5 -7.5 7.5 l 15 15 z"></path></g><path d="M -68.74999999999999 -47.48749999999999 l 10 -10 l -30 0 l -10 10 l 30 0 z"></path></g><g><path d="M 1.5749999999999886 2.5375000000000085 l 7.5 -7.5 -32.5 -32.5 -7.5 7.5 32.5 32.5 m -17.5 -10 l -7.5 7.5 32.5 32.5 7.5 -7.5 -32.5 -32.5 z"></path></g><g><path d="M 86.57499999999999 -37.38749999999999 l -50 0 l -10 10 l 0 40 l 9.55 -9.55 l 20.65 29.4 l 7.65 -7.65 l -21.65 -30.8 l -6.2 6.2 l 0 -27.6 l 40 0 l 10 -10 z"></path><path d="M 48.974999999999994 52.4625 l 8.8 -8.8 l -1.2 -1.2 l -20 20 l 30 0 l 10 -10 l -27.6 0 z"></path></g><g><path d="M 106.57500000000002 -37.46249999999999 l -10 10 l 0 60 l 10 -10 l 0 -50 l 30 0 l 10 -10 l -40 0 z"></path><path d="M 114.07500000000005 -54.96249999999999 l 7.5 7.5 l 7.5 -7.5 l -7.5 -7.5 l -7.5 7.5 z"></path><path d="M 131.57500000000005 52.53750000000001 l 10 -10 l -30 0 l -10 10 l 30 0 z"></path></g></g></g>
</svg>
