<svg xmlns="http://www.w3.org/2000/svg" viewBox="0 0 93.3 172.294907" width="93.3" height="172.294907" fill="currentColor" stroke="none">
<g transform="translate(46.65 86.147453)"><g><g><path d="M 29.000000000000007 -38.775 l -65.75 0 l -9.9 9.95 l 25.7 25.7 l -7.5 7.5 l 26.9 26.9 l 7.5 -7.5 l -25.7 -25.7 l 7.45 -7.55 l -19.3 -19.3 l 50.6 0 l 10 -10 z"></path><g><path d="M 34.15 -46.275000000000006 l -7.5 7.5 l -11.1 0 q 3.05 5.25 -1.5 10 l 5 0 l 8.8 -8.85 q 0.445 14.232 18.8 18.85 q -12.993 -10.704 -12.45 -27.5 z"></path></g><g><path d="M 13.449999999999996 46.275000000000006 l 7.5 -7.5 l -15 -15 q -6.8 0.5 -7.5 7.5 l 15 15 z"></path></g></g></g></g>
</svg>
