<svg xmlns="http://www.w3.org/2000/svg" viewBox="0 0 472.95 110" width="472.95" height="110" fill="currentColor" stroke="none">
<g transform="translate(236.475 55)"><g><g><path d="M -211.825 -45 l -7.5 7.5 57.5 62.5 7.5 -7.5 -57.5 -62.5 z"></path><path d="M -214.325 -42.5 l -5 5 l -10 -10 l -7.15 7.15 l 11.3 11.2 l 7 -7.1 l 1 -1 q 3.183 1.742 3.85 0 q 0.916 -1.293 0 -6.25 z"></path><path d="M -164.425 15 q -1.655 2.716 2.6 10 l 15 0 l 10 -10 l -20 0 q -7.015 -2.931 -7.6 0 z"></path><path d="M -201.825 42.5 l 7.5 7.5 l 7.5 -7.5 l -7.5 -7.5 l -7.5 7.5 z"></path></g><g><path d="M -71.82499999999999 -44.975 l -10 10 l 0 20 l -35 0 l -10 10 l 29.95 29.95 l 7.5 -7.5 l -22.45 -22.45 l 30 0 l 10 -10 l 0 -30 z"></path><g><path d="M -97.775 23.37499999999998 l -11.2 11.3 l 22.4 0 l 10 -10.1 l -19.9 0 l 7.1 -7.1 q -10.446 -1.157 -8.4 5.9 z"></path></g></g><g><path d="M -54.32499999999999 -45 l -7.5 7.5 57.5 62.5 7.5 -7.5 -57.5 -62.5 z"></path></g><g><path d="M 88.82499999999996 -45.025 l -65.75 0 l -9.9 9.95 l 25.7 25.7 l -7.5 7.5 l 26.9 26.9 l 7.5 -7.5 l -25.7 -25.7 l 7.45 -7.55 l -19.3 -19.3 l 50.6 0 l 10 -10 z"></path><g><path d="M 93.975 -52.525000000000006 l -7.5 7.5 l -11.1 0 q 3.05 5.25 -1.5 10 l 5 0 l 8.8 -8.85 q 0.445 14.232 18.8 18.85 q -12.993 -10.704 -12.45 -27.5 z"></path></g><g><path d="M 73.27499999999995 40.025000000000006 l 7.5 -7.5 l -15 -15 q -6.8 0.5 -7.5 7.5 l 15 15 z"></path></g></g><g><path d="M 126.475 -45 l -10 10 l 0 60 l 10 -10 l 0 -50 l 30 0 l 10 -10 l -40 0 z"></path><path d="M 133.87499999999997 45 l 8.8 -8.8 l -1.2 -1.2 l -20 20 l 30 0 l 10 -10 l -27.6 0 z"></path></g><g><path d="M 208.975 -47.5 l 12.5 12.5 l -25 0 l -10 10 l 40 0 l 10 -10 l -20 -20 l -7.5 7.5 z"></path><path d="M 186.475 -15 l -10 10 l 50 0 l 10 -10 l -50 0 z"></path></g></g></g>
</svg>
