<svg xmlns="http://www.w3.org/2000/svg" viewBox="0 0 102.55 172.294907" width="102.55" height="172.294907" fill="currentColor" stroke="none">
<g transform="translate(51.275 86.146434)"><g><g><path d="M -23.724999999999994 -41.401527050610824 l -7.5 7.5 57.5 62.5 7.5 -7.5 -57.5 -62.5 z"></path><path d="M -30.074999999999996 -32.751527050610825 l 0 0.05 q 8.1 2.8 6.35 -8.7 l -6.35 6.3 q -9.4 -17.75 -21.2 -6.85 q 12.25 -2.15 14.85 15.5 l 6.35 -6.3 z"></path><path d="M 23.674999999999997 18.598472949389176 q -1.655 2.716 2.6 10 l 15 0 l 10 -10 l -20 0 q -7.015 -2.931 -7.6 0 z"></path><path d="M -21.224999999999994 11.098472949389176 l -10 10 l 0 25 l 10 -10 l 0 -25 z"></path></g></g></g>
</svg>
