<svg xmlns="http://www.w3.org/2000/svg" viewBox="0 0 454.55 155.05" width="454.55" height="155.05" fill="currentColor" stroke="none">
<g transform="translate(227.275 77.525)"><g><g><path d="M -194.72500000000002 -52.5 l -7.5 7.5 57.5 62.5 7.5 -7.5 -57.5 -62.5 z"></path><path d="M -202.22500000000002 -45 l -15.05 0 l -10 10 l 17.45 0 l 8.75 -8.8 q 6.9 0.2 3.8 -6.15 l -4.95 4.95 z"></path><path d="M -147.32500000000002 7.5 q -1.655 2.716 2.6 10 l 15 0 l 10 -10 l -20 0 q -7.015 -2.931 -7.6 0 z"></path><path d="M -142.125 -42.5 l -8.8 8.8 l 1.2 1.2 l 20 -20 l -30 0 l -10 10 l 27.6 0 z"></path><path d="M -184.72500000000002 35 l 7.5 7.5 l 7.5 -7.5 l -7.5 -7.5 l -7.5 7.5 z"></path></g><g><path d="M -99.72500000000001 -52.5 l -10 10 l 0 60 l 10 -10 l 0 -50 l 30 0 l 10 -10 l -40 0 z"></path><g><path d="M -99.72500000000001 25.1 l 0 -17.6 q -7.3 -5 -10 10 l 0 20 l 17.5 -17.5 l -1.2 -1.2 l -6.3 6.3 z"></path></g></g><g><path d="M -22.174999999999983 -52.5 l -7.5 7.5 57.5 62.5 7.5 -7.5 -57.5 -62.5 z"></path><path d="M -28.525000000000006 -43.85 l 0 0.05 q 8.1 2.8 6.35 -8.7 l -6.35 6.3 q -9.4 -17.75 -21.2 -6.85 q 12.25 -2.15 14.85 15.5 l 6.35 -6.3 z"></path><path d="M 25.224999999999994 7.5 q -1.655 2.716 2.6 10 l 15 0 l 10 -10 l -20 0 q -7.015 -2.931 -7.6 0 z"></path><path d="M -19.674999999999983 0 l -10 10 l 0 25 l 10 -10 l 0 -25 z"></path></g><g><path d="M 72.725 -52.525 l -9.9 9.95 l 47.35 58.35 l 0.05 0 l 1.4 1.75 l 7.5 -7.5 l -42.7 -52.55 l 52.05 0 l 10 -10 l -65.75 0 z"></path><g><path d="M 119.12500000000003 10.025000000000013 q -6.8 0.5 -7.5 7.5 l 15 15 l 15 -15 l -1.2 -1.2 l -7.5 7.5 l -13.8 -13.8 z"></path></g><path d="M 94.725 -70.025 l 7.5 7.5 l 7.5 -7.5 l -7.5 -7.5 l -7.5 7.5 z"></path><path d="M 112.225 52.525000000000006 l 10 -10 l -30 0 l -10 10 l 30 0 z"></path></g><g><path d="M 217.37500000000003 17.525 l 9.9 -9.95 l -47.35 -58.35 l -0.05 0 l -1.4 -1.75 l -7.5 7.5 l 42.7 52.55 l -52.05 0 l -10 10 l 65.75 0 z"></path><g><path d="M 171.62500000000003 17.525000000000006 q -6.368 -3.408 0 -10 l -10 0 l -10 10 l 0 15 l 10 -10 l 0 -5 l 10 0 z"></path></g><path d="M 181.95000000000002 -70.025 l 7.5 7.5 l 7.5 -7.5 l -7.5 -7.5 l -7.5 7.5 z"></path><path d="M 179.45000000000002 52.525000000000006 l 0 25 l 20 -20 l -1.2 -1.2 l -8.8 8.8 l 0 -22.6 l -10 10 z"></path></g></g></g>
</svg>
