<svg xmlns="http://www.w3.org/2000/svg" viewBox="0 0 52.5 172.294907" width="52.5" height="172.294907" fill="currentColor" stroke="none">
<g transform="translate(26.25 86.147453)"><g><g><path d="M -1.25 -36.275000000000006 l -10 10 l 0 30 l 30 30 l 7.5 -7.5 l -27.5 -27.5 l 0 -35 z"></path><g><path d="M -1.25 -36.275000000000006 l -15 0 l 0 -15 l -10 10 l 0 15 l 15 0 l 0 10 q 3.85 -7.75 10 -5 l 0 -15 z"></path></g><g><path d="M -14.950000000000003 50.074999999999996 l 1.2 1.2 l 8.7 -8.7 l 15.05 0 l 8.75 -8.85 q 1.75 -3.2 4.85 -7.2 q -5.7 -0.35 -6 6.05 l -15.05 0 l -17.5 17.5 z"></path></g></g></g></g>
</svg>
