<svg xmlns="http://www.w3.org/2000/svg" viewBox="0 0 538.15 114.975" width="538.15" height="114.975" fill="currentColor" stroke="none">
<g transform="translate(269.075 57.4875)"><g><g><path d="M -259.07500000000005 -32.512499999999996 l -10 10 l 0 60 l 10 -10 l 0 -60 z"></path><g><path d="M -269.07500000000005 22.487500000000004 l 0 15 l 10 -10 l 0 20 l 10 -9.9 l 0 -22.4 l -10 9.95 l 0 -5.15 q -5 6.1 -10 2.5 z"></path></g></g><g><path d="M -229.07500000000005 -32.512499999999996 l -10 10 l 0 60 l 10 -10 l 0 -50 l 30 0 l 10 -10 l -40 0 z"></path><path d="M -204.07500000000005 -42.512499999999996 l 10 -10 l -30 0 l -10 10 l 30 0 z"></path></g><g><path d="M -167.27500000000003 -32.512499999999996 l -10 10 l 0 60 l 10 -10 l 0 -60 z"></path><g><path d="M -179.07500000000005 -44.31249999999999 l 11.8 11.8 l -10 10 l 0 5 q 5.188 -7.964 10 -5 l 0 -7.7 l 8.2 -8.2 l -13 -12.9 l -7 7 z"></path></g><g><path d="M -177.27500000000003 22.487500000000004 l 0 15 l 15 0 l 10 -10 l -15 0 l 0 -10 q -3.874 7.753 -10 5 z"></path></g></g><g><path d="M -99.72500000000005 -32.512499999999996 l -10 10 l 0 60 l 10 -10 l 0 -50 l 30 0 l 10 -10 l -40 0 z"></path><g><path d="M -99.72500000000005 27.487500000000004 l 0 -7.3 q -4.546 5.888 -10 3.05 l 0 11.95 l -15.05 0 l -17.5 17.5 l 1.2 1.2 l 8.7 -8.7 l 15 0 l 17.65 -17.7 z"></path></g><path d="M -91.00000000000006 -42.512499999999996 l 10 -10 l -30 0 l -10 10 l 30 0 z"></path></g><g><path d="M -42.22500000000005 -32.512499999999996 l -7.5 7.5 57.5 62.5 7.5 -7.5 -57.5 -62.5 z"></path><path d="M -14.725000000000051 57.487500000000004 l 10 -10 l -30 0 l -10 10 l 30 0 z"></path></g><g><path d="M 50.27499999999998 -32.512499999999996 l -10 10 l 0 30 l 30 30 l 7.5 -7.5 l -27.5 -27.5 l 0 -35 z"></path><g><path d="M 50.27499999999998 -32.512499999999996 l -15 0 l 0 -15 l -10 10 l 0 15 l 15 0 l 0 10 q 3.85 -7.75 10 -5 l 0 -15 z"></path></g><g><path d="M 36.57499999999999 53.837500000000006 l 1.2 1.2 l 8.7 -8.7 l 15.05 0 l 8.75 -8.85 q 1.75 -3.2 4.85 -7.2 q -5.7 -0.35 -6 6.05 l -15.05 0 l -17.5 17.5 z"></path></g></g><g><path d="M 130.325 -8.662499999999996 l -10 10 l 0 -33.85 l -10 10 l 0 36.2 l 10 -9.95 l 0 33.75 l 10 -10 l 0 -36.15 z"></path><g><path d="M 110.67500000000001 -20.412499999999994 q 0.375 -0.363 1.15 -1.15 q 6.261 -1.099 8.5 3.8 l 0 -14.75 l -10 10 l -10 -10 l -7.15 7.15 l 11.3 11.2 l 5.85 -5.9 q 0.04 -0.029 0.35 -0.35 z"></path></g><g><path d="M 130.325 27.487500000000004 l 0 -7.3 q -4.546 5.888 -10 3.05 l 0 11.95 l -15.05 0 l -17.5 17.5 l 1.2 1.2 l 8.7 -8.7 l 15 0 l 17.65 -17.7 z"></path></g></g><g><path d="M 195.325 -32.4875 l -10 10 l 0 20 l -35 0 l -10 10 l 29.95 29.95 l 7.5 -7.5 l -22.45 -22.45 l 30 0 l 10 -10 l 0 -30 z"></path><path d="M 160.325 -49.987500000000004 l 7.5 7.5 l 7.5 -7.5 l -7.5 -7.5 l -7.5 7.5 z"></path><path d="M 177.825 57.462499999999984 l 10 -10 l -30 0 l -10 10 l 30 0 z"></path></g><g><path d="M 211.575 -22.512499999999996 q 24.3 9.1 15 21.3 l 1.25 1.15 q 15.85 -14.1 3.75 -22.45 l 20 0 l 17.5 -17.5 l -1.2 -1.2 l -8.7 8.7 l -37.6 0 l -10 10 z"></path><path d="M 215.325 -2.5124999999999957 l -10 10 l 50 0 l 10 -10 l -50 0 z"></path></g></g></g>
</svg>
