<svg xmlns="http://www.w3.org/2000/svg" viewBox="0 0 367.7 127.5" width="367.7" height="127.5" fill="currentColor" stroke="none">
<g transform="translate(183.85 63.75)"><g><g><path d="M -173.85 -26.25 l -10 10 l 0 60 l 10 -10 l 0 -60 z"></path></g><g><path d="M -108.85 -26.225 l -10 10 l 0 20 l -35 0 l -10 10 l 29.95 29.95 l 7.5 -7.5 l -22.45 -22.45 l 30 0 l 10 -10 l 0 -30 z"></path><path d="M -126.35 -36.22500000000001 l 10 -10 l -30 0 l -10 10 l 30 0 z"></path></g><g><path d="M -75.04999999999998 -26.25 l -7.5 7.5 57.5 62.5 7.5 -7.5 -57.5 -62.5 z"></path><path d="M -75.04999999999998 -20.25 q 0.8 -1 0 -6 l -6.3 6.3 l 0 -19.95 l -17.5 17.5 l 1.2 1.2 l 6.3 -6.3 l 0 20.05 l 10 -10.1 q 4.2 0.65 6.3 -2.7 z"></path><path d="M -27.649999999999977 33.75 q -1.655 2.716 2.6 10 l 15 0 l 10 -10 l -20 0 q -7.015 -2.931 -7.6 0 z"></path><path d="M -63.79999999999998 -56.25 l 20 20 l 7.5 -7.5 l -20 -20 l -7.5 7.5 z"></path></g><g><path d="M 25.00000000000003 -16.25 l 34.95 0 l 10 -10 l -50 0 l -10 10 l 25 25 l 0 35 l 10 -10 l 0 -30.05 l -19.95 -19.95 z"></path><g><path d="M 56.30000000000001 -26.25 q 2.585 3.848 -6.35 10 l 7.65 0 l -6.3 6.35 q 5.6 10.2 27.5 9.85 q -16.25 -5.4 -18.85 -16.2 l 10 -10 l -13.65 0 z"></path></g><g><path d="M 34.95000000000002 63.75 l 10 -10 l 0 -20 q -7.3 -5 -10 10 l 0 20 z"></path></g></g><g><path d="M 98.79999999999998 -26.25 l -10 10 l 0 60 l 10 -10 l 0 -60 z"></path><g><path d="M 98.85 -23.950000000000003 l 15 0 l 10 -10 l -17.4 0 l -17.65 17.7 l 0 7.3 q 5.4 -4.35 10 -2.75 l 0 -12.25 z"></path></g><g><path d="M 98.79999999999998 33.75 l 15 0 l 10 -10 l -17.45 0 l -7.6 7.6 l 0.05 -5.05 q -4.6 6.3 -10 4 l 0 13.45 l 9.95 -10 z"></path></g></g><g><path d="M 143.85 -26.25 l -10 10 l 0 60 l 40 0 l 10 -10 l -40 0 l 0 -60 z"></path><path d="M 168.85 -36.25 l 10 -10 l -30 0 l -10 10 l 30 0 z"></path></g></g></g>
</svg>
