<svg xmlns="http://www.w3.org/2000/svg" viewBox="0 0 118.05 100.025" width="118.05" height="100.025" fill="currentColor" stroke="none">
<g transform="translate(59.025 50.0125)"><g><g><path d="M -36.625 -29.987500000000004 l -10 10 l 0 60 l 10 -10 l 0 -60 z"></path><g><path d="M -59.025 50.012499999999996 l 22.4 0 l 10 -10.1 l -19.9 0 l -0.1 0.1 l 0 -0.1 l 0.05 0 l 9.95 -9.9 l 0 -5 q -5 5.774 -10 5 l 0 7.55 l -12.4 12.4 z"></path></g></g><g><path d="M -6.724999999999994 -30.012500000000003 l -9.9 9.95 l 47.35 58.35 l 0.05 0 l 1.4 1.75 l 7.5 -7.5 l -42.7 -52.55 l 52.05 0 l 10 -10 l -65.75 0 z"></path><path d="M 31.199999999999996 -40.0125 l 10 -10 l -30 0 l -10 10 l 30 0 z"></path></g></g></g>
</svg>
