<svg xmlns="http://www.w3.org/2000/svg" viewBox="0 0 210.65 140" width="210.65" height="140" fill="currentColor" stroke="none">
<g transform="translate(105.325 70)"><g><g><path d="M -97.825 -45 l -7.5 7.5 57.5 62.5 7.5 -7.5 -57.5 -62.5 z"></path></g><g><path d="M -20.424999999999997 -45.025 l -9.9 9.95 l 47.35 58.35 l 0.05 0 l 1.4 1.75 l 7.5 -7.5 l -42.7 -52.55 l 52.05 0 l 10 -10 l -65.75 0 z"></path><g><path d="M 24.77499999999999 16.325000000000014 q -6.486 -1.216 -4.75 5 q 2.924 -3.894 5.95 -3.8 l 8.8 -8.8 l 0 -15 l -10 10 l 0 12.6 z"></path></g><path d="M 17.5 45.02500000000001 l 10 -10 l -30 0 l -10 10 l 30 0 z"></path></g><g><path d="M 65.325 -45 l -10 10 l 0 60 l 40 0 l 10 -10 l -40 0 l 0 -60 z"></path><path d="M 72.825 -62.5 l 7.5 7.5 l 7.5 -7.5 l -7.5 -7.5 l -7.5 7.5 z"></path><path d="M 90.325 60 l 0 -25 l -20 20 l 1.2 1.2 l 8.8 -8.8 l 0 22.6 l 10 -10 z"></path></g></g></g>
</svg>
