<svg xmlns="http://www.w3.org/2000/svg" viewBox="0 0 57.6 172.294907" width="57.6" height="172.294907" fill="currentColor" stroke="none">
<g transform="translate(28.8 86.147453)"><g><g><path d="M -18.8 -33.699999999999996 l -10 10 l 0 36.3 l 10 -10.05 l 0 33.75 l 10 -10 l 0 -36.15 l -10 10 l 0 -23.85 l 30 0 l 10 -10 l -40 0 z"></path><g><path d="M 13.55 -33.699999999999996 q 0.465 4.718 -7.9 10 l 5.55 0 l 17.6 -17.6 l 0 -15 l -10 10 l 0 12.6 l -5.25 0 z"></path></g><g><path d="M -8.8 43.900000000000006 l 0 -17.6 q -7.3 -5 -10 10 l 0 20 l 17.5 -17.5 l -1.2 -1.2 l -6.3 6.3 z"></path></g></g></g></g>
</svg>
