<svg xmlns="http://www.w3.org/2000/svg" viewBox="0 0 150 100" width="150" height="100" fill="currentColor" stroke="none">
<g transform="translate(75 50)"><g><g><path d="M -65 -30 l -10 10 l 0 60 l 10 -10 l 0 -60 z"></path><g><path d="M -75 25 l 0 15 l 10 -10 l 0 20 l 10 -9.9 l 0 -22.4 l -10 9.95 l 0 -5.15 q -5 6.1 -10 2.5 z"></path></g></g><g><path d="M -33.85 -29.924999999999997 l -10 10 l 0 40 l 9.55 -9.55 l 20.65 29.4 l 7.5 -7.5 l -21.6 -30.85 l -6.1 6.1 l 0 -37.6 z"></path><path d="M -15 -39.925000000000004 l 10 -10 l -30 0 l -10 10 l 30 0 z"></path></g><g><path d="M 15 -30 l -10 10 l 0 60 l 10 -10 l 0 -60 z"></path></g><g><path d="M 35 -30 l -10 10 l 0 36.3 l 10 -10.05 l 0 33.75 l 10 -10 l 0 -36.15 l -10 10 l 0 -23.85 l 30 0 l 10 -10 l -40 0 z"></path><path d="M 60 -40 l 10 -10 l -30 0 l -10 10 l 30 0 z"></path></g></g></g>
</svg>
