<svg xmlns="http://www.w3.org/2000/svg" viewBox="0 0 61.8 172.294907" width="61.8" height="172.294907" fill="currentColor" stroke="none">
<g transform="translate(30.9 86.147453)"><g><g><path d="M 19.099999999999998 -28.150000000000006 l 10 -10 l -50 0 l -10 10 l 0 35 l 10 -10 l 15 0 l 0 35 l 10 -10 l 0 -35 l -17.35 0 l -7.65 7.6 l 0 -22.6 l 40 0 z"></path><g><path d="M 30.899999999999995 -16.350000000000005 l -11.8 -11.8 l 10 -10 l -11.15 0 q 3.75 5.2 -5.8 10 l 4.65 0 l -5.9 5.9 l 13 12.9 l 7 -7 z"></path></g><g><path d="M -13.400000000000002 36.949999999999996 l 1.2 1.2 l 16.3 -16.3 l 0 -7.75 q -5 9.444 -10 6.55 l 0 8.8 l -7.5 7.5 z"></path></g></g></g></g>
</svg>
