<svg xmlns="http://www.w3.org/2000/svg" viewBox="0 0 49.9 172.294907" width="49.9" height="172.294907" fill="currentColor" stroke="none">
<g transform="translate(24.95 86.147453)"><g><g><path d="M 15.05 -40 l -10 10 l 0 20 l -20 0 l -10 10 l 0 30 l 30 0 l 10 -10 l -30 0 l 0 -20 l 20 0 l 10 -10 l 0 -30 z"></path><g><path d="M 5.400000000000002 -27.9 q 0.375 -0.363 1.15 -1.15 q 6.261 -1.099 8.5 3.8 l 0 -14.75 l -10 10 l -10 -10 l -7.15 7.15 l 11.3 11.2 l 5.85 -5.9 q 0.04 -0.029 0.35 -0.35 z"></path></g><g><path d="M -7.349999999999998 40 l 22.4 0 l 9.9 -10 l -19.9 0 l 10 -10 l -12.65 0 q 5.504 3.447 -5.3 10 l 5.5 0 l -9.95 10 z"></path></g></g></g></g>
</svg>
