<svg xmlns="http://www.w3.org/2000/svg" viewBox="0 0 80 109.025" width="80" height="109.025" fill="currentColor" stroke="none">
<g transform="translate(40 54.5125)"><g><g><path d="M -21.8 -34.2875 l -10 10 l 0 60 l 10 -10 l 0 -60 z"></path><g><path d="M -20 47.512499999999996 l -11.8 -11.8 l 10 -10 l 0 -5 q -5.188 7.964 -10 5 l 0 7.7 l -8.2 8.2 l 13 12.9 l 7 -7 z"></path></g></g><g><path d="M 30 5.337499999999999 l 10 -10 l -29.85 -29.85 l -7.5 7.5 l 22.35 22.35 l -20 0 l -15 15 l 25.6 25.6 l 7.5 -7.5 l -23.1 -23.1 l 30 0 z"></path><path d="M 25 -44.5125 l 10 -10 l -30 0 l -10 10 l 30 0 z"></path></g></g></g>
</svg>
