<svg xmlns="http://www.w3.org/2000/svg" viewBox="0 0 321.5 128.8" width="321.5" height="128.8" fill="currentColor" stroke="none">
<g transform="translate(160.75 64.4)"><g><g><path d="M -153.25 -49.400000000000006 l -7.5 7.5 57.5 62.5 7.5 -7.5 -57.5 -62.5 z"></path></g><g><path d="M -35.75 -39.400000000000006 l 10 -10 l -50 0 l -10 10 l 0 30 l 30 0 l 0 30 l 10 -10 l 0 -30 l -30 0 l 0 -20 l 40 0 z"></path><g><path d="M -45.75 -49.400000000000006 q 6.368 3.408 0 10 l 10 0 l 10 -10 l 0 -15 l -10 10 l 0 5 l -10 0 z"></path></g><g><path d="M -43.95 32.39999999999999 l -11.8 -11.8 l 10 -10 l 0 -5 q -5.188 7.964 -10 5 l 0 7.7 l -8.2 8.2 l 13 12.9 l 7 -7 z"></path></g><path d="M -63.25 56.900000000000006 l 7.5 7.5 l 7.5 -7.5 l -7.5 -7.5 l -7.5 7.5 z"></path></g><g><path d="M 4.25 -25.550000000000004 l -10 10 l 0 -33.85 l -10 10 l 0 36.2 l 10 -9.95 l 0 33.75 l 10 -10 l 0 -36.15 z"></path><g><path d="M 24.25 20.599999999999994 l -15 0 l 10 -10 l -15 0 l 0 -10 q -3.85 7.75 -10 5 l 0 15 l 12.55 0 l -9.95 10 l 17.4 0 l 10 -10 z"></path></g></g><g><path d="M 62.25 -6.300000000000006 l 7.45 -7.5 27.05 34.4 7.5 -7.5 -27.8 -36 -7.75 7.8 -26.95 -34.3 -7.5 7.5 28 35.6 z"></path><path d="M 71.75 40.599999999999994 l 10 -10 l -30 0 l -10 10 l 30 0 z"></path></g><g><path d="M 124.25 -49.325 l -10 10 l 0 40 l 9.55 -9.55 l 20.65 29.4 l 7.5 -7.5 l -21.6 -30.85 l -6.1 6.1 l 0 -37.6 z"></path><g><path d="M 145.25 -48.57500000000001 q -10.61 0.709 -14.65 -7.1 l -16.35 16.35 l 0 10.45 q 4.8 -9.5 10 -4.8 l 0 -13.35 q 12.787 6.105 21 -1.55 z"></path></g><g><path d="M 150.75 31.674999999999983 l -7.5 7.5 l 1.2 1.2 l 16.3 -16.3 l 0 -22.35 l -10 10.1 q -4.2 -0.65 -6.3 2.7 q -0.8 1 0 6 l 6.3 -6.3 l 0 17.45 z"></path></g></g></g></g>
</svg>
