<svg xmlns="http://www.w3.org/2000/svg" viewBox="0 0 570.35 106.625" width="570.35" height="106.625" fill="currentColor" stroke="none">
<g transform="translate(285.175 53.3125)"><g><g><path d="M -265.175 -33.0875 l -10 10 l 0 60 l 10 -10 l 0 -60 z"></path><g><path d="M -265.175 -18.0875 l 0 -15 l -10 10 l 0 -20 l -10 9.9 l 0 22.4 l 10 -9.95 l 0 5.15 q 5 -6.1 10 -2.5 z"></path></g><g><path d="M -265.175 26.9125 l 15 0 l 10 -10 l -17.45 0 l -7.6 7.6 l 0.05 -5.05 q -4.6 6.3 -10 4 l 0 13.45 l 9.95 -10 z"></path></g></g><g><path d="M -207.57500000000002 -23.0875 l 34.95 0 l 10 -10 l -50 0 l -10 10 l 25 25 l 0 35 l 10 -10 l 0 -30.05 l -19.95 -19.95 z"></path><g><path d="M -187.625 26.9125 l 0 -7.3 q -4.546 5.888 -10 3.05 l 0 11.95 l -15.05 0 l -17.5 17.5 l 1.2 1.2 l 8.7 -8.7 l 15 0 l 17.65 -17.7 z"></path></g><path d="M -186.4 -43.0875 l 10 -10 l -30 0 l -10 10 l 30 0 z"></path></g><g><path d="M -142.625 -33.0875 l -10 10 l 0 60 l 10 -10 l 0 -60 z"></path><g><path d="M -152.625 21.9125 l 0 15 l 10 -10 l 0 20 l 10 -9.9 l 0 -22.4 l -10 9.95 l 0 -5.15 q -5 6.1 -10 2.5 z"></path></g></g><g><path d="M -82.625 6.537500000000001 l 10 -10 l -29.85 -29.85 l -7.5 7.5 l 22.35 22.35 l -20 0 l -15 15 l 25.6 25.6 l 7.5 -7.5 l -23.1 -23.1 l 30 0 z"></path><path d="M -87.625 -43.3125 l 10 -10 l -30 0 l -10 10 l 30 0 z"></path></g><g><path d="M -9.574999999999989 10.012500000000001 l 7.45 -7.5 27.05 34.4 7.5 -7.5 -27.8 -36 -7.75 7.8 -26.95 -34.3 -7.5 7.5 28 35.6 z"></path><path d="M -37.57499999999999 -25.5875 l -15.05 0 l -10 10 l 17.45 0 l 8.75 -8.8 q 6.9 0.2 3.8 -6.15 l -4.95 4.95 z"></path><path d="M 25.025000000000034 -23.0875 l -8.8 8.8 l 1.2 1.2 l 20 -20 l -30 0 l -10 10 l 27.6 0 z"></path></g><g><path d="M 57.42500000000001 -33.012499999999996 l -10 10 l 0 40 l 9.55 -9.55 l 20.65 29.4 l 7.5 -7.5 l -21.6 -30.85 l -6.1 6.1 l 0 -37.6 z"></path></g><g><path d="M 105.125 -33.0875 l -10 10 l 0 60 l 10 -10 l 0 -60 z"></path><g><path d="M 105.17500000000001 -30.7875 l 15 0 l 10 -10 l -17.4 0 l -17.65 17.7 l 0 7.3 q 5.4 -4.35 10 -2.75 l 0 -12.25 z"></path></g><g><path d="M 95.125 21.9125 l 0 15 l 10 -10 l 0 20 l 10 -9.9 l 0 -22.4 l -10 9.95 l 0 -5.15 q -5 6.1 -10 2.5 z"></path></g></g><g><path d="M 150.175 -33.0875 l -10 10 l 0 36.3 l 10 -10.05 l 0 33.75 l 10 -10 l 0 -36.15 l -10 10 l 0 -23.85 l 30 0 l 10 -10 l -40 0 z"></path><path d="M 175.175 -43.0875 l 10 -10 l -30 0 l -10 10 l 30 0 z"></path></g><g><path d="M 210.175 -33.0875 l -10 10 l 0 60 l 10 -10 l 0 -60 z"></path><g><path d="M 200.175 21.9125 l 0 15 l 10 -10 l 0 20 l 10 -9.9 l 0 -22.4 l -10 9.95 l 0 -5.15 q -5 6.1 -10 2.5 z"></path></g></g><g><path d="M 285.175 -33.0625 l -10 10 l 0 20 l -35 0 l -10 10 l 29.95 29.95 l 7.5 -7.5 l -22.45 -22.45 l 30 0 l 10 -10 l 0 -30 z"></path><g><path d="M 266.425 28.187499999999982 q -6.486 -1.216 -4.75 5 q 2.924 -3.894 5.95 -3.8 l 8.8 -8.8 l 0 -15 l -10 10 l 0 12.6 z"></path></g><path d="M 267.675 -43.06250000000001 l 10 -10 l -30 0 l -10 10 l 30 0 z"></path></g></g></g>
</svg>
