<svg xmlns="http://www.w3.org/2000/svg" viewBox="0 0 67.5 172.294907" width="67.5" height="172.294907" fill="currentColor" stroke="none">
<g transform="translate(33.75 86.147453)"><g><g><path d="M 23.75 19.299999999999997 l 10 -10 l 0 -60 l -40 0 l -10 10 l 40 0 l 0 60 z"></path><g><path d="M 6.149999999999999 -60.7 l -22.4 0 l -17.5 17.5 l 1.2 1.2 l 8.7 -8.7 l 17.6 0 l -10 10 l 12.65 0 q -5.5 -3.45 5.3 -10 l -5.5 0 l 9.95 -10 z"></path></g><g><path d="M 33.75 9.299999999999997 l 0 -7.3 q -4.546 5.888 -10 3.05 l 0 11.95 l -15.05 0 l -17.5 17.5 l 1.2 1.2 l 8.7 -8.7 l 15 0 l 17.65 -17.7 z"></path></g><path d="M 10 -70.7 l 10 -10 l -30 0 l -10 10 l 30 0 z"></path><path d="M -10 55.7 l 0 25 l 20 -20 l -1.2 -1.2 l -8.8 8.8 l 0 -22.6 l -10 10 z"></path></g></g></g>
</svg>
