<svg xmlns="http://www.w3.org/2000/svg" viewBox="0 0 420.85 161.4" width="420.85" height="161.4" fill="currentColor" stroke="none">
<g transform="translate(210.425 80.7)"><g><g><path d="M -202.92499999999998 -50.7 l -7.5 7.5 57.5 62.5 7.5 -7.5 -57.5 -62.5 z"></path><path d="M -155.52499999999998 9.299999999999997 q -1.655 2.716 2.6 10 l 15 0 l 10 -10 l -20 0 q -7.015 -2.931 -7.6 0 z"></path></g><g><path d="M -107.92499999999998 -50.7 l -10 10 l 0 60 l 10 -10 l 0 -50 l 30 0 l 10 -10 l -40 0 z"></path><g><path d="M -107.92499999999998 26.9 l 0 -17.6 q -7.3 -5 -10 10 l 0 20 l 17.5 -17.5 l -1.2 -1.2 l -6.3 6.3 z"></path></g></g><g><path d="M -0.42499999999998295 19.299999999999997 l 10 -10 l 0 -60 l -40 0 l -10 10 l 40 0 l 0 60 z"></path><g><path d="M -18.024999999999977 -60.7 l -22.4 0 l -17.5 17.5 l 1.2 1.2 l 8.7 -8.7 l 17.6 0 l -10 10 l 12.65 0 q -5.5 -3.45 5.3 -10 l -5.5 0 l 9.95 -10 z"></path></g><g><path d="M 9.575000000000017 9.299999999999997 l 0 -7.3 q -4.546 5.888 -10 3.05 l 0 11.95 l -15.05 0 l -17.5 17.5 l 1.2 1.2 l 8.7 -8.7 l 15 0 l 17.65 -17.7 z"></path></g><path d="M -14.174999999999983 -70.7 l 10 -10 l -30 0 l -10 10 l 30 0 z"></path><path d="M -34.17499999999998 55.7 l 0 25 l 20 -20 l -1.2 -1.2 l -8.8 8.8 l 0 -22.6 l -10 10 z"></path></g><g><path d="M 62.07500000000002 19.299999999999997 l 7.5 -7.5 l -31.25 -31.25 l 31.25 -31.25 l -40 0 l -10 10 l 37.6 0 l -27.5 27.6 l 32.4 32.4 z"></path><g><path d="M 61.17500000000004 17.699999999999996 l -11.2 11.3 l 22.4 0 l 10 -10.1 l -19.9 0 l 7.1 -7.1 q -10.446 -1.157 -8.4 5.9 z"></path></g><path d="M 40.97500000000002 49 l 0 25 l 20 -20 l -1.2 -1.2 l -8.8 8.8 l 0 -22.6 l -10 10 z"></path></g><g><path d="M 114.775 -50.7 l -10 10 l 0 60 l 10 -10 l 0 -60 z"></path><g><path d="M 92.37500000000003 29.299999999999997 l 22.4 0 l 10 -10.1 l -19.9 0 l -0.1 0.1 l 0 -0.1 l 0.05 0 l 9.95 -9.9 l 0 -5 q -5 5.774 -10 5 l 0 7.55 l -12.4 12.4 z"></path></g></g><g><path d="M 200.42499999999998 -40.625 l 10 -10 l -65.75 0 l -9.9 9.95 l 30.45 37.55 l 7.25 -7.3 l 24.15 29.65 l 7.45 -7.4 l -25.2 -31.05 l -7.5 7.45 l -23.1 -28.85 l 52.15 0 z"></path><path d="M 182.6 -60.625 l 10 -10 l -30 0 l -10 10 l 30 0 z"></path></g></g></g>
</svg>
