<svg xmlns="http://www.w3.org/2000/svg" viewBox="0 0 290.55 144.725" width="290.55" height="144.725" fill="currentColor" stroke="none">
<g transform="translate(145.275 72.3625)"><g><g><path d="M -137.77500000000003 -47.3375 l -7.5 7.5 57.5 62.5 7.5 -7.5 -57.5 -62.5 z"></path></g><g><path d="M -60.275000000000034 -47.3375 l -10 10 l 0 60 l 40 0 l 10 -10 l -40 0 l 0 -60 z"></path><g><path d="M -30.275000000000034 22.6625 l 0 14.9 l 10 -10.1 l 0 14.9 l 9.9 -9.9 l 0 -17.4 l -9.9 9.9 l 0 -12.3 l -15 0 q 2.75 6.15 -5 10 l 10 0 z"></path></g><path d="M -47.92500000000004 62.36249999999999 l 8.8 -8.8 l -1.2 -1.2 l -20 20 l 30 0 l 10 -10 l -27.6 0 z"></path></g><g><path d="M 9.524999999999977 -47.3625 l -9.9 9.95 l 47.35 58.35 l 0.05 0 l 1.4 1.75 l 7.5 -7.5 l -42.7 -52.55 l 52.05 0 l 10 -10 l -65.75 0 z"></path><path d="M 29.94999999999999 -64.8625 l 7.5 7.5 l 7.5 -7.5 l -7.5 -7.5 l -7.5 7.5 z"></path><path d="M 27.44999999999999 42.687500000000014 l 0 25 l 20 -20 l -1.2 -1.2 l -8.8 8.8 l 0 -22.6 l -10 10 z"></path></g><g><path d="M 129.02500000000003 -44.8375 l -1.2 -1.2 l -6.3 6.3 l 0 -27.6 l -10 10 l 0 30 l 17.5 -17.5 z"></path><path d="M 95.275 -17.3375 l -10 10 l 50 0 l 10 -10 l -50 0 z"></path></g></g></g>
</svg>
