<svg xmlns="http://www.w3.org/2000/svg" viewBox="0 0 509.45 114.925" width="509.45" height="114.925" fill="currentColor" stroke="none">
<g transform="translate(254.725 57.4625)"><g><g><path d="M -244.72500000000002 -32.4625 l -10 10 l 0 60 l 10 -10 l 0 -60 z"></path></g><g><path d="M -184.72500000000002 -22.4625 l 10 -10 l -50 0 l -10 10 l 0 35 l 10 -10 l 15 0 l 0 35 l 10 -10 l 0 -35 l -17.35 0 l -7.65 7.6 l 0 -22.6 l 40 0 z"></path><path d="M -194.72500000000002 -42.4625 l 10 -10 l -30 0 l -10 10 l 30 0 z"></path></g><g><path d="M -132.175 -32.4625 l -7.5 7.5 57.5 62.5 7.5 -7.5 -57.5 -62.5 z"></path><path d="M -139.675 -24.9625 l -15.05 0 l -10 10 l 17.45 0 l 8.75 -8.8 q 6.9 0.2 3.8 -6.15 l -4.95 4.95 z"></path></g><g><path d="M -54.67500000000001 27.5375 l -10 10 l 50 0 l 10 -10 l 0 -30 l -30 0 l 0 -30 l -10 10 l 0 30 l 30 0 l 0 20 l -40 0 z"></path><g><path d="M -44.67500000000001 37.5375 q -6.368 -3.408 0 -10 l -10 0 l -10 10 l 0 15 l 10 -10 l 0 -5 l 10 0 z"></path></g><path d="M -42.17500000000001 -49.9625 l 7.5 7.5 l 7.5 -7.5 l -7.5 -7.5 l -7.5 7.5 z"></path></g><g><path d="M 25.32499999999999 -32.4625 l -10 10 l 0 60 l 10 -10 l 0 -60 z"></path><g><path d="M 25.32499999999999 -17.4625 l 0 -15 l -10 10 l 0 -20 l -10 9.9 l 0 22.4 l 10 -9.95 l 0 5.15 q 5 -6.1 10 -2.5 z"></path></g></g><g><path d="M 87.125 37.5375 l 7.5 -7.5 -26.9 -26.9 7.45 -7.55 -28.05 -28.05 -7.5 7.5 26.9 26.9 -7.5 7.5 28.1 28.1 z"></path><path d="M 35.32499999999999 -44.262499999999996 l 11.8 11.8 l -5 5 q 7.681 1.687 7.1 -0.5 l -0.95 -3.35 l 7.05 -7.05 l -13 -12.9 z"></path><path d="M 72.125 -24.9625 l 20 20 l 7.5 -7.5 l -20 -20 l -7.5 7.5 z"></path></g><g><path d="M 169.02500000000003 -32.4625 l -50 0 l -9.4 9.4 l 23.2 33.05 l 6.2 -6.25 l 0 33.8 l 10 -10 l 0 -36.15 l -1.1 1.1 q -2.967 2.977 -5.95 5.95 l -1.95 2 l -0.65 0.65 l -16.5 -23.5 l 36.2 0 l 10 -10 z"></path></g><g><path d="M 189.07500000000005 27.462500000000002 l -10 10 l 65.75 0 l 9.9 -9.95 l -30.45 -37.55 l -7.25 7.3 l -24.15 -29.65 l -7.45 7.4 l 25.2 31.05 l 7.5 -7.45 l 23.1 28.85 l -52.15 0 z"></path><path d="M 226.90000000000003 57.4625 l 10 -10 l -30 0 l -10 10 l 30 0 z"></path></g></g></g>
</svg>
