<svg xmlns="http://www.w3.org/2000/svg" viewBox="0 0 62.15 172.294907" width="62.15" height="172.294907" fill="currentColor" stroke="none">
<g transform="translate(31.075 86.147453)"><g><g><path d="M -3.9250000000000043 -45 l -10 10 l 0 35 l 26.3 0 l 8.7 -8.75 l 0 33.75 l 10 -10 l 0 -36.15 l -11.15 11.15 l -23.85 0 l 0 -35 z"></path><g><path d="M -13.575000000000003 -32.9 q 0.375 -0.363 1.15 -1.15 q 6.261 -1.099 8.5 3.8 l 0 -14.75 l -10 10 l -10 -10 l -7.15 7.15 l 11.3 11.2 l 5.85 -5.9 q 0.04 -0.029 0.35 -0.35 z"></path></g><g><path d="M 21.074999999999996 45 l 10 -10 l 0 -20 q -7.3 -5 -10 10 l 0 20 z"></path></g></g></g></g>
</svg>
