<svg xmlns="http://www.w3.org/2000/svg" viewBox="0 0 66.559368 172.294907" width="66.559368" height="172.294907" fill="currentColor" stroke="none">
<g transform="translate(33.266662 86.147453)"><g><g><path d="M -0.7166621665075041 -45.625 l -7.5 7.5 l 22.55 22.55 l -14.4 0 l -17.6 17.65 l 0 22.35 l 40 0 l 10 -10 l -40 0 l 0 -20 l 30 0 l 8.5 -8.5 l -31.55 -31.55 z"></path><g><path d="M -8.2166621665075 -38.125 l -15.05 0 l -10 10 l 17.45 0 l 8.75 -8.8 q 6.9 0.2 3.8 -6.15 l -4.95 4.95 z"></path></g><g><path d="M 16.6833378334925 14.425000000000011 l 15.65 0 l -10 10 q 17.75 9.4 6.85 21.2 q 2.15 -12.25 -15.5 -14.85 l 6.3 -6.35 l -8.1 0 q 9.5 -4.8 4.8 -10 z"></path></g></g></g></g>
</svg>
