<svg xmlns="http://www.w3.org/2000/svg" viewBox="0 0 300.65 139.95" width="300.65" height="139.95" fill="currentColor" stroke="none">
<g transform="translate(150.325 69.975)"><g><g><path d="M -140.325 -44.999999999999986 l -10 10 l 0 60 l 10 -10 l 0 -60 z"></path><g><path d="M -150.325 10.000000000000014 l 0 15 l 15 0 l 10 -10 l -15 0 l 0 -10 q -3.874 7.753 -10 5 z"></path></g></g><g><path d="M -75.32499999999999 -5.374999999999986 l 10 -10 l -29.85 -29.85 l -7.5 7.5 l 22.35 22.35 l -20 0 l -15 15 l 25.6 25.6 l 7.5 -7.5 l -23.1 -23.1 l 30 0 z"></path><path d="M -80.32499999999999 -55.22499999999999 l 10 -10 l -30 0 l -10 10 l 30 0 z"></path></g><g><path d="M -7.824999999999989 25.000000000000014 l 7.5 -7.5 -26.9 -26.9 7.45 -7.55 -28.05 -28.05 -7.5 7.5 26.9 26.9 -7.5 7.5 28.1 28.1 z"></path><path d="M -3.375 18.600000000000016 q -1.825 3.28 -4.45 6.4 l -7.5 7.5 l -1.2 -1.2 l 7.5 -7.5 q -1.688 -4.106 -0.35 -4.55 q 1.45 -0.6 6 -0.65 z"></path><path d="M -42.82499999999999 42.500000000000014 l 7.5 7.5 l 7.5 -7.5 l -7.5 -7.5 l -7.5 7.5 z"></path></g><g><path d="M 19.57499999999999 -45.024999999999984 l -9.9 9.95 l 47.35 58.35 l 0.05 0 l 1.4 1.75 l 7.5 -7.5 l -42.7 -52.55 l 52.05 0 l 10 -10 l -65.75 0 z"></path><g><path d="M 73.475 40.02500000000003 l 7.5 -7.5 l -15 -15 q -6.8 0.5 -7.5 7.5 l 15 15 z"></path></g></g><g fill="currentColor"><path d="M 150.325 -44.97499999999999 l -10 10 l 0 20 l -35 0 l -10 10 l 29.95 29.95 l 7.5 -7.5 l -22.45 -22.45 l 30 0 l 10 -10 l 0 -30 z"></path><path d="M 115.32499999999999 -62.474999999999994 l 7.5 7.5 l 7.5 -7.5 l -7.5 -7.5 l -7.5 7.5 z"></path><path d="M 132.825 59.974999999999994 l 0 -25 l -20 20 l 1.2 1.2 l 8.8 -8.8 l 0 22.6 l 10 -10 z"></path></g></g></g>
</svg>
