<svg xmlns="http://www.w3.org/2000/svg" viewBox="0 0 62.7 172.294907" width="62.7" height="172.294907" fill="currentColor" stroke="none">
<g transform="translate(31.35 86.147453)"><g><g><path d="M -5.150000000000002 -20.52499999999999 l -10 10 l 0 40 l 9.55 -9.55 l 20.65 29.4 l 7.5 -7.5 l -21.6 -30.85 l -6.1 6.1 l 0 -37.6 z"></path><g><path d="M -5.150000000000002 -4.875 l 0 -15.65 l -10 10.05 q -10.8 -2.6 -16.2 -18.85 q -0.35 21.9 9.85 27.5 l 6.35 -6.35 l 0 8.1 q 4.8 -9.5 10 -4.8 z"></path></g><g><path d="M 21.349999999999998 40.625 q -6.486 -1.216 -4.75 5 q 2.924 -3.894 5.95 -3.8 l 8.8 -8.8 l 0 -15 l -10 10 l 0 12.6 z"></path></g><path d="M 9.999999999999996 -39.325 l 10 -10 l -30 0 l -10 10 l 30 0 z"></path></g></g></g>
</svg>
