<svg xmlns="http://www.w3.org/2000/svg" viewBox="0 0 65.95 172.294907" width="65.95" height="172.294907" fill="currentColor" stroke="none">
<g transform="translate(32.975 86.147453)"><g><g><path d="M -22.975 -31.425000000000004 l -10 10 l 0 36.3 l 10 -10.05 l 0 33.75 l 10 -10 l 0 -36.15 l -10 10 l 0 -23.85 l 30 0 l 10 -10 l -40 0 z"></path><g><path d="M 2.4750000000000014 -21.425000000000004 l 4.55 0 l 8.8 -8.8 l 10 10 l 7.15 -7.15 l -11.3 -11.2 l -7.05 7.15 l -6.3 0 q 3.7 5 -5.85 10 z"></path></g><g><path d="M -12.975000000000001 46.175 l 0 -17.6 q -7.3 -5 -10 10 l 0 20 l 17.5 -17.5 l -1.2 -1.2 l -6.3 6.3 z"></path></g><path d="M 9.999999999999993 -48.574999999999996 l 10 -10 l -30 0 l -10 10 l 30 0 z"></path></g></g></g>
</svg>
