<svg xmlns="http://www.w3.org/2000/svg" viewBox="0 0 326.65 117.15" width="326.65" height="117.15" fill="currentColor" stroke="none">
<g transform="translate(163.325 58.575)"><g><g><path d="M -153.325 -31.425000000000004 l -10 10 l 0 60 l 10 -10 l 0 -60 z"></path><g><path d="M -153.27499999999998 -29.125000000000007 l 15 0 l 10 -10 l -17.4 0 l -17.65 17.7 l 0 7.3 q 5.4 -4.35 10 -2.75 l 0 -12.25 z"></path></g><g><path d="M -163.325 23.574999999999996 l 0 15 l 15 0 l 10 -10 l -15 0 l 0 -10 q -3.874 7.753 -10 5 z"></path></g></g><g><path d="M -103.225 -21.425000000000004 l 34.95 0 l 10 -10 l -50 0 l -10 10 l 25 25 l 0 35 l 10 -10 l 0 -30.05 l -19.95 -19.95 z"></path><g><path d="M -93.27499999999999 58.574999999999996 l 10 -10 l 0 -20 q -7.3 -5 -10 10 l 0 20 z"></path></g><path d="M -78.27499999999999 -41.425000000000004 l 10 -10 l -30 0 l -10 10 l 30 0 z"></path></g><g><path d="M -38.27499999999999 -31.425000000000004 l -10 10 l 0 60 l 10 -10 l 0 -60 z"></path><g><path d="M -48.27499999999999 23.574999999999996 l 0 15 l 10 -10 l 0 20 l 10 -9.9 l 0 -22.4 l -10 9.95 l 0 -5.15 q -5 6.1 -10 2.5 z"></path></g></g><g><path d="M 47.375 -21.350000000000005 l 10 -10 l -65.75 0 l -9.9 9.95 l 30.45 37.55 l 7.25 -7.3 l 24.15 29.65 l 7.45 -7.4 l -25.2 -31.05 l -7.5 7.45 l -23.1 -28.85 l 52.15 0 z"></path><path d="M 29.55000000000001 -41.35 l 10 -10 l -30 0 l -10 10 l 30 0 z"></path></g><g><path d="M 77.375 -31.425000000000004 l -10 10 l 0 60 l 10 -10 l 0 -60 z"></path><g><path d="M 67.375 23.574999999999996 l 0 15 l 10 -10 l 0 20 l 10 -9.9 l 0 -22.4 l -10 9.95 l 0 -5.15 q -5 6.1 -10 2.5 z"></path></g></g><g><path d="M 107.375 -31.425000000000004 l -10 10 l 0 36.3 l 10 -10.05 l 0 33.75 l 10 -10 l 0 -36.15 l -10 10 l 0 -23.85 l 30 0 l 10 -10 l -40 0 z"></path><g><path d="M 132.825 -21.425000000000004 l 4.55 0 l 8.8 -8.8 l 10 10 l 7.15 -7.15 l -11.3 -11.2 l -7.05 7.15 l -6.3 0 q 3.7 5 -5.85 10 z"></path></g><g><path d="M 117.375 46.175 l 0 -17.6 q -7.3 -5 -10 10 l 0 20 l 17.5 -17.5 l -1.2 -1.2 l -6.3 6.3 z"></path></g><path d="M 140.34999999999997 -48.574999999999996 l 10 -10 l -30 0 l -10 10 l 30 0 z"></path></g></g></g>
</svg>
