<svg xmlns="http://www.w3.org/2000/svg" viewBox="0 0 91.3 172.294907" width="91.3" height="172.294907" fill="currentColor" stroke="none">
<g transform="translate(45.65 86.147453)"><g><g><path d="M -29.349999999999994 -39.35 l -7.5 7.5 57.5 62.5 7.5 -7.5 -57.5 -62.5 z"></path><path d="M -35.64999999999999 -30.650000000000002 q 6.486 1.216 4.75 -5 q -2.924 3.894 -5.95 3.8 l -8.8 8.8 l 0 15 l 10 -10 l 0 -12.6 z"></path><path d="M 18.050000000000004 20.65 q -1.65 2.7 2.6 10 l 12.6 0 l -7.5 7.5 l 1.2 1.2 l 18.7 -18.7 l -20 0 q -7 -2.95 -7.6 0 z"></path><path d="M -14.349999999999994 30.65 l 10 -10 l -30 0 l -10 10 l 30 0 z"></path></g></g></g>
</svg>
