<svg xmlns="http://www.w3.org/2000/svg" viewBox="0 0 443.65 130.25" width="443.65" height="130.25" fill="currentColor" stroke="none">
<g transform="translate(221.825 65.125)"><g><g><path d="M -214.32500000000002 -40.1 l -7.5 7.5 57.5 62.5 7.5 -7.5 -57.5 -62.5 z"></path></g><g><path d="M -101.97500000000002 -0.4750000000000014 l 10 -10 l -29.85 -29.85 l -7.5 7.5 l 22.35 22.35 l -20 0 l -15 15 l 25.6 25.6 l 7.5 -7.5 l -23.1 -23.1 l 30 0 z"></path><g><path d="M -119.22500000000002 -30.325000000000003 q 1.65 -2.7 -2.6 -10 l -12.6 0 l 7.5 -7.5 l -1.2 -1.2 l -18.7 18.7 l 20 0 q 7 2.95 7.6 0 z"></path></g><g><path d="M -96.37500000000003 20.125 l -15 0 q -7 -2.95 -7.6 0 q -1.65 2.7 2.6 10 l 10 0 l 0 15 l 10 -10 l 0 -15 z"></path></g><path d="M -109.40000000000002 65.125 l 10 -10 l -30 0 l -10 10 l 30 0 z"></path></g><g><path d="M -40.775000000000034 -16.25 l -10 10 l 0 -33.85 l -10 10 l 0 36.2 l 10 -9.95 l 0 33.75 l 10 -10 l 0 -36.15 z"></path><g><path d="M -50.775000000000034 -24.450000000000003 l 0 -15.65 l -10 10 q -9.4 -17.75 -21.2 -6.85 q 12.25 -2.15 14.85 15.5 l 6.35 -6.3 l 0 8.1 q 4.8 -9.5 10 -4.8 z"></path></g><g><path d="M -40.775000000000034 37.5 l 0 -17.6 q -7.3 -5 -10 10 l 0 20 l 17.5 -17.5 l -1.2 -1.2 l -6.3 6.3 z"></path></g></g><g><path d="M -13.375000000000028 -40.125 l -9.9 9.95 l 47.35 58.35 l 0.05 0 l 1.4 1.75 l 7.5 -7.5 l -42.7 -52.55 l 52.05 0 l 10 -10 l -65.75 0 z"></path><g><path d="M 40.525000000000006 44.92500000000001 l 7.5 -7.5 l -15 -15 q -6.8 0.5 -7.5 7.5 l 15 15 z"></path></g><path d="M 7.049999999999983 -57.625 l 7.5 7.5 l 7.5 -7.5 l -7.5 -7.5 l -7.5 7.5 z"></path><path d="M 24.549999999999983 64.92500000000001 l 10 -10 l -30 0 l -10 10 l 30 0 z"></path></g><g><path d="M 106.12499999999997 -37.6 l -1.2 -1.2 l -6.3 6.3 l 0 -27.6 l -10 10 l 0 30 l 17.5 -17.5 z"></path><path d="M 72.37499999999997 -10.100000000000001 l -10 10 l 50 0 l 10 -10 l -50 0 z"></path></g><g><path d="M 150.57499999999996 -40.1 l -10 10 l 0 60 l 10 -10 l 0 -60 z"></path><g><path d="M 152.37499999999997 41.699999999999996 l -11.8 -11.8 l 10 -10 l 0 -5 q -5.188 7.964 -10 5 l 0 7.7 l -8.2 8.2 l 13 12.9 l 7 -7 z"></path></g></g><g><path d="M 221.775 -40.1 l -50 0 l -9.4 9.4 l 23.2 33.05 l 6.2 -6.25 l 0 33.8 l 10 -10 l 0 -36.15 l -1.1 1.1 q -2.967 2.977 -5.95 5.95 l -1.95 2 l -0.65 0.65 l -16.5 -23.5 l 36.2 0 l 10 -10 z"></path><path d="M 202.1 -50.1 l 10 -10 l -30 0 l -10 10 l 30 0 z"></path></g></g></g>
</svg>
