<svg xmlns="http://www.w3.org/2000/svg" viewBox="0 0 75.05 172.294907" width="75.05" height="172.294907" fill="currentColor" stroke="none">
<g transform="translate(37.525 86.147453)"><g><g><path d="M -14.924999999999994 -28.85 l 34.95 0 l 10 -10 l -50 0 l -10 10 l 25 25 l 0 35 l 10 -10 l 0 -30.05 l -19.95 -19.95 z"></path><g><path d="M 10.025000000000006 -28.85 l 10 0 l 17.5 -17.5 l -1.2 -1.2 l -8.7 8.7 l -7.6 0 q 0.83 5.4 -10 10 z"></path></g><g><path d="M 5.025000000000006 21.15 l 0 -7.3 q -4.546 5.888 -10 3.05 l 0 11.95 l -15.05 0 l -17.5 17.5 l 1.2 1.2 l 8.7 -8.7 l 15 0 l 17.65 -17.7 z"></path></g></g></g></g>
</svg>
