<svg xmlns="http://www.w3.org/2000/svg" viewBox="0 0 449.75 120" width="449.75" height="120" fill="currentColor" stroke="none">
<g transform="translate(224.875 60)"><g><g><path d="M -214.875 -35 l -10 10 l 0 60 l 10 -10 l 0 -60 z"></path><g><path d="M -224.875 -25 l 0 5 q 6.25 -9 10 -5 l 0 -7.6 l 11.8 11.7 l 7 -7 l -12.95 -12.95 l -15.85 15.85 z"></path></g><g><path d="M -224.875 20 l 0 15 l 10 -10 l 0 20 l 10 -9.9 l 0 -22.4 l -10 9.95 l 0 -5.15 q -5 6.1 -10 2.5 z"></path></g></g><g><path d="M -176.075 -35 l -10 10 l 0 60 l 10 -10 l 0 -50 l 30 0 l 10 -10 l -40 0 z"></path><g><path d="M -155.975 -17.5 l 1.2 1.2 l 18.7 -18.7 l -10 0 q 0.85 5.4 -10 10 l 7.6 0 l -7.5 7.5 z"></path></g><g><path d="M -176.075 13.8 q -5 12.14 -10 11.2 l 0 10 l 17.5 -17.5 l -1.2 -1.2 l -6.3 6.3 l 0 -8.8 z"></path></g><path d="M -151.075 -45 l 10 -10 l -30 0 l -10 10 l 30 0 z"></path></g><g><path d="M -118.575 -35 l -7.5 7.5 57.5 62.5 7.5 -7.5 -57.5 -62.5 z"></path><path d="M -91.07499999999999 55 l 10 -10 l -30 0 l -10 10 l 30 0 z"></path></g><g><path d="M 8.925000000000011 -35.05 l -50 0 l -10 10 l 0 27 l 33.1 33.1 l 7.5 -7.5 l -30.6 -30.6 l 0 -22 l 40 0 l 10 -10 z"></path><g><path d="M -5.625 -25.049999999999997 l 4.55 0 l 8.8 -8.8 l 10 10 l 7.15 -7.15 l -11.3 -11.2 l -7.05 7.15 l -6.3 0 q 3.7 5 -5.85 10 z"></path></g><g><path d="M -16.875 31.999999999999996 q 3.28 -1.825 6.4 -4.45 l 7.5 -7.5 l -1.2 -1.2 l -7.5 7.5 q -4.106 -1.688 -4.55 -0.35 q -0.6 1.45 -0.65 6 z"></path></g></g><g><path d="M 54.875 -11.15 l -10 10 l 0 -33.85 l -10 10 l 0 36.2 l 10 -9.95 l 0 33.75 l 10 -10 l 0 -36.15 z"></path><g><path d="M 44.875 20 l 0 15 l 15 0 l 10 -10 l -15 0 l 0 -10 q -3.874 7.753 -10 5 z"></path></g></g><g><path d="M 89.875 -35 l -10 10 l 0 60 l 40 0 l 10 -10 l -40 0 l 0 -60 z"></path><path d="M 97.375 -52.5 l 7.5 7.5 l 7.5 -7.5 l -7.5 -7.5 l -7.5 7.5 z"></path><path d="M 97.375 52.5 l 7.5 7.5 l 7.5 -7.5 l -7.5 -7.5 l -7.5 7.5 z"></path></g><g><path d="M 158.075 -35 l -10 10 l 0 60 l 10 -10 l 0 -60 z"></path><g><path d="M 159.875 46.8 l -11.8 -11.8 l 10 -10 l 0 -5 q -5.188 7.964 -10 5 l 0 7.7 l -8.2 8.2 l 13 12.9 l 7 -7 z"></path></g></g><g><path d="M 224.875 -34.975 l -10 10 l 0 20 l -35 0 l -10 10 l 29.95 29.95 l 7.5 -7.5 l -22.45 -22.45 l 30 0 l 10 -10 l 0 -30 z"></path><g><path d="M 206.125 26.27499999999998 q -6.486 -1.216 -4.75 5 q 2.924 -3.894 5.95 -3.8 l 8.8 -8.8 l 0 -15 l -10 10 l 0 12.6 z"></path></g><path d="M 207.375 -44.97500000000001 l 10 -10 l -30 0 l -10 10 l 30 0 z"></path></g></g></g>
</svg>
