<svg xmlns="http://www.w3.org/2000/svg" viewBox="0 0 50 172.294907" width="50" height="172.294907" fill="currentColor" stroke="none">
<g transform="translate(25 86.147453)"><g><g><path d="M 15 26.85000000000001 l 10 -10 l 0 -60 l -10 10 l 0 50 l -30 0 l -10 10 l 40 0 z"></path><g><path d="M 25 -28.14999999999999 l 0 -15 l -12.6 0 l 7.5 -7.5 l -1.2 -1.2 l -18.7 18.7 l 15 0 l 0 10 q 3.85 -7.75 10 -5 z"></path></g><g><path d="M 2.5 -13.349999999999994 l -1.2 -1.2 l -16.3 16.3 l 0 15.1 l -10 10 l 18.3 0 q -4.75 -2.3 1.7 -10 l -7.6 0 l -0.25 0.2 l 7.85 -7.85 l 0 -15.05 l 7.5 -7.5 z"></path></g><path d="M 10 -61.849999999999994 l 10 -10 l -30 0 l -10 10 l 30 0 z"></path><path d="M -10 46.85000000000001 l 0 25 l 20 -20 l -1.2 -1.2 l -8.8 8.8 l 0 -22.6 l -10 10 z"></path></g></g></g>
</svg>
