<svg xmlns="http://www.w3.org/2000/svg" viewBox="0 0 60 172.294907" width="60" height="172.294907" fill="currentColor" stroke="none">
<g transform="translate(30 86.147453)"><g><g><path d="M 0 -48.75 l -10 10 l 0 23.85 l -10 10 l 0 26.15 l 10 -10 l 0 -23.75 l 10 -10 l 0 -26.25 z"></path><path d="M -30 -48.75 l 15 0 l -10 10 l 15 0 l 0 10 q 3.85 -7.75 10 -5 l 0 -15 l -12.55 0 l 9.95 -10 l -17.4 0 l -10 10 z"></path><path d="M -28.75 38.75 l 20 20 l 7.5 -7.5 l -20 -20 l -7.5 7.5 z"></path><path d="M 10 -21.25 l 0 25 l 20 -20 l -1.2 -1.2 l -8.8 8.8 l 0 -22.6 l -10 10 z"></path></g></g></g>
</svg>
