<svg xmlns="http://www.w3.org/2000/svg" viewBox="0 0 62.5 172.294907" width="62.5" height="172.294907" fill="currentColor" stroke="none">
<g transform="translate(31.25 86.147453)"><g><g fill="currentColor"><path d="M 23.75 -46.67499999999998 l -10 10 l 0 20 l -35 0 l -10 10 l 29.95 29.95 l 7.5 -7.5 l -22.45 -22.45 l 30 0 l 10 -10 l 0 -30 z"></path><g><path d="M 31.25 -51.77499999999999 l -1.2 -1.2 l -16.3 16.3 l 0 7.75 q 5 -9.444 10 -6.55 l 0 -8.8 l 7.5 -7.5 z"></path></g><g><path d="M -2.1999999999999993 21.674999999999997 l -11.2 11.3 l 22.4 0 l 10 -10.1 l -19.9 0 l 7.1 -7.1 q -10.446 -1.157 -8.4 5.9 z"></path></g><path d="M 10 52.975 l 10 -10 l -30 0 l -10 10 l 30 0 z"></path></g></g></g>
</svg>
