<svg xmlns="http://www.w3.org/2000/svg"
 viewBox="0 0 1224 52" width="1224" height="52"
 fill="#fff" color="#fff" stroke="none">
<g><svg x="0" y="0" width="8" height="52" viewBox="0 0 25 172.294907" preserveAspectRatio="xMidYMid meet" color="#fff" fill="#fff" stroke="none"><g transform="translate(12.5 86.147453)"><g><g><path d="M -2.5 -35 l -10 10 l 0 60 l 10 -10 l 0 -60 z"></path><g><path d="M -12.5 20 l 0 15 l 15 0 l 10 -10 l -15 0 l 0 -10 q -3.874 7.753 -10 5 z"></path></g></g></g></g></svg><svg x="11" y="0" width="18" height="52" viewBox="0 0 60.05 172.294907" preserveAspectRatio="xMidYMid meet" color="#fff" fill="#fff" stroke="none"><g transform="translate(30.025 86.147453)"><g><g><path d="M -14.925 -18.85 l 34.95 0 l 10 -10 l -50 0 l -10 10 l 25 25 l 0 35 l 10 -10 l 0 -30.05 l -19.95 -19.95 z"></path><g><path d="M -5.025000000000002 38.85 l -15 0 l -10 10 l 17.4 0 l 17.65 -17.7 l 0 -7.3 q -5.4 4.35 -10 2.75 l 0 12.25 z"></path></g><path d="M 10.000000000000004 -38.85 l 10 -10 l -30 0 l -10 10 l 30 0 z"></path></g></g></g></svg><svg x="32" y="0" width="26" height="52" viewBox="0 0 87.5 172.294907" preserveAspectRatio="xMidYMid meet" color="#fff" fill="#fff" stroke="none"><g transform="translate(43.75 86.147453)"><g><g><path d="M -15.75 -0.6500000000000004 l 7.45 -7.5 27.05 34.4 7.5 -7.5 -27.8 -36 -7.75 7.8 -26.95 -34.3 -7.5 7.5 28 35.6 z"></path><path d="M 16.15 16.25 q -1.655 2.716 2.6 10 l 15 0 l 10 -10 l -20 0 q -7.015 -2.931 -7.6 0 z"></path><path d="M -31.25 8.75 l -10 10 l 0 25 l 10 -10 l 0 -25 z"></path><path d="M 18.85 -33.75 l -8.8 8.8 l 1.2 1.2 l 20 -20 l -30 0 l -10 10 l 27.6 0 z"></path></g></g></g></svg><svg x="61" y="0" width="15" height="52" viewBox="0 0 50 172.294907" preserveAspectRatio="xMidYMid meet" color="#fff" fill="#fff" stroke="none"><g transform="translate(25 86.147453)"><g><g><path d="M -15 -17.125 l -10 10 l 29.85 29.85 l 7.5 -7.5 l -22.35 -22.35 l 20 0 l 15 -15 l -25.6 -25.6 l -7.5 7.5 l 23.1 23.1 l -30 0 z"></path><path d="M -7.5 40.225 l 7.5 7.5 l 7.5 -7.5 l -7.5 -7.5 l -7.5 7.5 z"></path></g></g></g></svg><svg x="79" y="0" width="17" height="52" viewBox="0 0 55 172.294907" preserveAspectRatio="xMidYMid meet" color="#fff" fill="#fff" stroke="none"><g transform="translate(27.5 86.147453)"><g><g><path d="M 27.5 -24.974999999999987 l -10 10 l 0 20 l -35 0 l -10 10 l 29.95 29.95 l 7.5 -7.5 l -22.45 -22.45 l 30 0 l 10 -10 l 0 -30 z"></path><path d="M 10 -34.974999999999994 l 10 -10 l -30 0 l -10 10 l 30 0 z"></path></g></g></g></svg><svg x="99" y="0" width="14" height="52" viewBox="0 0 45 172.294907" preserveAspectRatio="xMidYMid meet" color="#fff" fill="#fff" stroke="none"><g transform="translate(22.5 86.147453)"><g><g><path d="M -2.5 -8.224999999999996 l -10 10 l 0 -33.85 l -10 10 l 0 36.2 l 10 -9.95 l 0 33.75 l 10 -10 l 0 -36.15 z"></path><g><path d="M -22.5 -22.074999999999996 l 0 5 q 6.25 -9 10 -5 l 0 -7.6 l 11.8 11.7 l 7 -7 l -12.95 -12.95 l -15.85 15.85 z"></path></g><g><path d="M -2.5500000000000007 25.525000000000006 l 0.05 -5.05 q -4.6 6.3 -10 4 l 0 13.45 l 9.95 -10 l 12.65 0 l -7.5 7.5 l 1.2 1.2 l 18.7 -18.7 l -17.45 0 l -7.6 7.6 z"></path></g></g></g></g></svg><svg x="116" y="0" width="8" height="52" viewBox="0 0 27.5 172.294907" preserveAspectRatio="xMidYMid meet" color="#fff" fill="#fff" stroke="none"><g transform="translate(13.75 86.147453)"><g><g><path d="M -13.75 1.1500000000000004 l 10 -10 l 0 33.85 l 10 -10 l 0 -36.2 l -10 9.95 l 0 -33.75 l -10 10 l 0 36.15 z"></path><g><path d="M 6.25 32.6 l 0 -17.6 q -7.3 -5 -10 10 l 0 20 l 17.5 -17.5 l -1.2 -1.2 l -6.3 6.3 z"></path></g></g></g></g></svg><svg x="127" y="0" width="25" height="52" viewBox="0 0 83.15 172.294907" preserveAspectRatio="xMidYMid meet" color="#fff" fill="#fff" stroke="none"><g transform="translate(41.575 86.147453)"><g><g><path d="M -31.675 -36.35000000000001 l -9.9 9.95 l 47.35 58.35 l 0.05 0 l 1.4 1.75 l 7.5 -7.5 l -42.7 -52.55 l 52.05 0 l 10 -10 l -65.75 0 z"></path><g><path d="M 14.075000000000003 -26.35000000000001 l 10 0 l 17.5 -17.5 l -1.2 -1.2 l -8.7 8.7 l -7.6 0 q 0.83 5.4 -10 10 z"></path></g><g><path d="M -10.274999999999999 63.85 l 1.2 1.2 l 16.3 -16.3 l 0 -15.05 l 7.5 -7.5 q -11.45 -4.9 -8.7 6.3 l -8.8 8.9 l 0 14.95 l -7.5 7.5 z"></path></g><path d="M 10 -55.05000000000001 l 10 -10 l -30 0 l -10 10 l 30 0 z"></path></g></g></g></svg><svg x="155" y="0" width="18" height="52" viewBox="0 0 59.9 172.294907" preserveAspectRatio="xMidYMid meet" color="#fff" fill="#fff" stroke="none"><g transform="translate(29.95 86.147453)"><g><g><path d="M 19.950000000000003 19.299999999999997 l 10 -10 l 0 -60 l -40 0 l -10 10 l 40 0 l 0 60 z"></path><g><path d="M 2.3500000000000014 -60.7 l -22.4 0 l -9.9 10 l 19.9 0 l -10 10 l 12.65 0 q -5.504 -3.447 5.3 -10 l -5.5 0 l 9.95 -10 z"></path></g><g><path d="M 29.950000000000003 9.299999999999997 l 0 -7.3 q -4.546 5.888 -10 3.05 l 0 11.95 l -15.05 0 l -17.5 17.5 l 1.2 1.2 l 8.7 -8.7 l 15 0 l 17.65 -17.7 z"></path></g><path d="M -7.4999999999999964 53.2 l 7.5 7.5 l 7.5 -7.5 l -7.5 -7.5 l -7.5 7.5 z"></path></g></g></g></svg><svg x="176" y="0" width="20" height="52" viewBox="0 0 65 172.294907" preserveAspectRatio="xMidYMid meet" color="#fff" fill="#fff" stroke="none"><g transform="translate(32.5 86.147453)"><g><g><path d="M -25 -43.75 l -7.5 7.5 57.5 62.5 7.5 -7.5 -57.5 -62.5 z"></path><path d="M -32.5 18.75 l 0 25 l 20 -20 l -1.2 -1.2 l -8.8 8.8 l 0 -22.6 l -10 10 z"></path></g></g></g></svg><svg x="199" y="0" width="30" height="52" viewBox="0 0 98.85 172.294907" preserveAspectRatio="xMidYMid meet" color="#fff" fill="#fff" stroke="none"><g transform="translate(49.425 86.147453)"><g><g><path d="M -16.875 -22.5 l -7.5 7.5 57.5 62.5 7.5 -7.5 -57.5 -62.5 z"></path><path d="M -24.375 -15 l -15.05 0 l -10 10 l 17.45 0 l 8.75 -8.8 q 6.9 0.2 3.8 -6.15 l -4.95 4.95 z"></path><path d="M 39.425 38.8 q -6.486 -1.216 -4.75 5 q 2.924 -3.894 5.95 -3.8 l 8.8 -8.8 l 0 -15 l -10 10 l 0 12.6 z"></path><path d="M 40.625 -15 l 0 -25 l -20 20 l 1.2 1.2 l 8.8 -8.8 l 0 22.6 l 10 -10 z"></path><path d="M 0.625 -40 l 7.5 7.5 l 7.5 -7.5 l -7.5 -7.5 l -7.5 7.5 z"></path></g></g></g></svg><svg x="232" y="0" width="15" height="52" viewBox="0 0 50 172.294907" preserveAspectRatio="xMidYMid meet" color="#fff" fill="#fff" stroke="none"><g transform="translate(25 86.147453)"><g><g><path d="M -15 -14.625 l -10 10 l 29.85 29.85 l 7.5 -7.5 l -22.35 -22.35 l 20 0 l 15 -15 l -25.6 -25.6 l -7.5 7.5 l 23.1 23.1 l -30 0 z"></path><path d="M 10 45.225 l 10 -10 l -30 0 l -10 10 l 30 0 z"></path></g></g></g></svg><svg x="250" y="0" width="18" height="52" viewBox="0 0 60 172.294907" preserveAspectRatio="xMidYMid meet" color="#fff" fill="#fff" stroke="none"><g transform="translate(30 86.147453)"><g><g><path d="M -14.950000000000003 -25 l 34.95 0 l 10 -10 l -50 0 l -10 10 l 25 25 l 0 35 l 10 -10 l 0 -30.05 l -19.95 -19.95 z"></path></g></g></g></svg><svg x="271" y="0" width="22" height="52" viewBox="0 0 72.65 172.294907" preserveAspectRatio="xMidYMid meet" color="#fff" fill="#fff" stroke="none"><g transform="translate(36.325 86.147453)"><g><g><path d="M -16.324999999999996 -40 l -10 10 l 0 50 l -10 10 l 45 0 l 10 -10 l -42.6 0 l 7.6 -7.6 l 0 -42.4 l 30 0 l 10 -10 l -40 0 z"></path><g><path d="M 23.825000000000003 12.5 l -7.5 7.5 l -11.1 0 q 3.05 5.25 -1.5 10 l 5 0 l 8.8 -8.85 q 0.445 14.232 18.8 18.85 q -12.993 -10.704 -12.45 -27.5 z"></path></g></g></g></g></svg><svg x="296" y="0" width="6" height="52" viewBox="0 0 20 172.294907" preserveAspectRatio="xMidYMid meet" color="#fff" fill="#fff" stroke="none"><g transform="translate(10 86.147453)"><g><g><path d="M 0 -40 l -10 10 l 0 60 l 10 -10 l 0 -60 z"></path><g><path d="M -10 15 l 0 15 l 10 -10 l 0 20 l 10 -9.9 l 0 -22.4 l -10 9.95 l 0 -5.15 q -5 6.1 -10 2.5 z"></path></g></g></g></g></svg><svg x="305" y="0" width="15" height="52" viewBox="0 0 50 172.294907" preserveAspectRatio="xMidYMid meet" color="#fff" fill="#fff" stroke="none"><g transform="translate(25 86.147453)"><g><g><path d="M 15 0.8749999999999929 l 10 -10 l -29.85 -29.85 l -7.5 7.5 l 22.35 22.35 l -20 0 l -15 15 l 25.6 25.6 l 7.5 -7.5 l -23.1 -23.1 l 30 0 z"></path><g><path d="M -0.5500000000000007 23.974999999999994 q -1.328 4.078 0.8 6.7 l -0.8 -0.35 q -19.05 -9.15 -23.7 6.2 q 7.65 -9.4 17.35 2.45 l 15 -15 q -4.648 -1.323 -8.65 0 z"></path></g></g></g></g></svg><svg x="323" y="0" width="6" height="52" viewBox="0 0 20 172.294907" preserveAspectRatio="xMidYMid meet" color="#fff" fill="#fff" stroke="none"><g transform="translate(10 86.147453)"><g><g><path d="M 0 -40 l -10 10 l 0 60 l 10 -10 l 0 -60 z"></path><g><path d="M -10 15 l 0 15 l 10 -10 l 0 20 l 10 -9.9 l 0 -22.4 l -10 9.95 l 0 -5.15 q -5 6.1 -10 2.5 z"></path></g></g></g></g></svg><svg x="332" y="0" width="12" height="52" viewBox="0 0 40 172.294907" preserveAspectRatio="xMidYMid meet" color="#fff" fill="#fff" stroke="none"><g transform="translate(20 86.147453)"><g><g><path d="M -8.75 -38.75 l -10 10 l 0 30 l 30 30 l 7.5 -7.5 l -27.5 -27.5 l 0 -35 z"></path><g><path d="M -8.75 -58.75 l -10 10 l 0 20 q 7.3 5 10 -10 l 0 -20 z"></path></g><g><path d="M 15.700000000000003 24.85 q -1.825 3.28 -4.45 6.4 l -7.5 7.5 l -1.2 -1.2 l 7.5 -7.5 q -1.688 -4.106 -0.35 -4.55 q 1.45 -0.6 6 -0.65 z"></path></g><path d="M 10 58.75 l 10 -10 l -30 0 l -10 10 l 30 0 z"></path></g></g></g></svg><svg x="347" y="0" width="18" height="52" viewBox="0 0 60.05 172.294907" preserveAspectRatio="xMidYMid meet" color="#fff" fill="#fff" stroke="none"><g transform="translate(30.025 86.147453)"><g><g><path d="M -14.925 -18.85 l 34.95 0 l 10 -10 l -50 0 l -10 10 l 25 25 l 0 35 l 10 -10 l 0 -30.05 l -19.95 -19.95 z"></path><g><path d="M -5.025000000000002 38.85 l -15 0 l -10 10 l 17.4 0 l 17.65 -17.7 l 0 -7.3 q -5.4 4.35 -10 2.75 l 0 12.25 z"></path></g><path d="M 10.000000000000004 -38.85 l 10 -10 l -30 0 l -10 10 l 30 0 z"></path></g></g></g></svg><svg x="368" y="0" width="8" height="52" viewBox="0 0 25 172.294907" preserveAspectRatio="xMidYMid meet" color="#fff" fill="#fff" stroke="none"><g transform="translate(12.5 86.147453)"><g><g><path d="M -2.5 -35 l -10 10 l 0 60 l 10 -10 l 0 -60 z"></path><g><path d="M -12.5 20 l 0 15 l 15 0 l 10 -10 l -15 0 l 0 -10 q -3.874 7.753 -10 5 z"></path></g></g></g></g></svg><svg x="379" y="0" width="12" height="52" viewBox="0 0 40 172.294907" preserveAspectRatio="xMidYMid meet" color="#fff" fill="#fff" stroke="none"><g transform="translate(20 86.147453)"><g><g><path d="M -8.75 -38.75 l -10 10 l 0 30 l 30 30 l 7.5 -7.5 l -27.5 -27.5 l 0 -35 z"></path><g><path d="M -8.75 -58.75 l -10 10 l 0 20 q 7.3 5 10 -10 l 0 -20 z"></path></g><g><path d="M 15.700000000000003 24.85 q -1.825 3.28 -4.45 6.4 l -7.5 7.5 l -1.2 -1.2 l 7.5 -7.5 q -1.688 -4.106 -0.35 -4.55 q 1.45 -0.6 6 -0.65 z"></path></g><path d="M 10 58.75 l 10 -10 l -30 0 l -10 10 l 30 0 z"></path></g></g></g></svg><svg x="394" y="0" width="6" height="52" viewBox="0 0 20 172.294907" preserveAspectRatio="xMidYMid meet" color="#fff" fill="#fff" stroke="none"><g transform="translate(10 86.147453)"><g><g><path d="M 0 -40 l -10 10 l 0 60 l 10 -10 l 0 -60 z"></path><g><path d="M -10 15 l 0 15 l 10 -10 l 0 20 l 10 -9.9 l 0 -22.4 l -10 9.95 l 0 -5.15 q -5 6.1 -10 2.5 z"></path></g></g></g></g></svg><svg x="403" y="0" width="15" height="52" viewBox="0 0 50 172.294907" preserveAspectRatio="xMidYMid meet" color="#fff" fill="#fff" stroke="none"><g transform="translate(25 86.147453)"><g><g><path d="M 15 0.8749999999999929 l 10 -10 l -29.85 -29.85 l -7.5 7.5 l 22.35 22.35 l -20 0 l -15 15 l 25.6 25.6 l 7.5 -7.5 l -23.1 -23.1 l 30 0 z"></path><g><path d="M -0.5500000000000007 23.974999999999994 q -1.328 4.078 0.8 6.7 l -0.8 -0.35 q -19.05 -9.15 -23.7 6.2 q 7.65 -9.4 17.35 2.45 l 15 -15 q -4.648 -1.323 -8.65 0 z"></path></g></g></g></g></svg><svg x="421" y="0" width="6" height="52" viewBox="0 0 20 172.294907" preserveAspectRatio="xMidYMid meet" color="#fff" fill="#fff" stroke="none"><g transform="translate(10 86.147453)"><g><g><path d="M 0 -40 l -10 10 l 0 60 l 10 -10 l 0 -60 z"></path><g><path d="M -10 15 l 0 15 l 10 -10 l 0 20 l 10 -9.9 l 0 -22.4 l -10 9.95 l 0 -5.15 q -5 6.1 -10 2.5 z"></path></g></g></g></g></svg><svg x="430" y="0" width="22" height="52" viewBox="0 0 72.65 172.294907" preserveAspectRatio="xMidYMid meet" color="#fff" fill="#fff" stroke="none"><g transform="translate(36.325 86.147453)"><g><g><path d="M -16.324999999999996 -40 l -10 10 l 0 50 l -10 10 l 45 0 l 10 -10 l -42.6 0 l 7.6 -7.6 l 0 -42.4 l 30 0 l 10 -10 l -40 0 z"></path><g><path d="M 23.825000000000003 12.5 l -7.5 7.5 l -11.1 0 q 3.05 5.25 -1.5 10 l 5 0 l 8.8 -8.85 q 0.445 14.232 18.8 18.85 q -12.993 -10.704 -12.45 -27.5 z"></path></g></g></g></g></svg><svg x="455" y="0" width="18" height="52" viewBox="0 0 60 172.294907" preserveAspectRatio="xMidYMid meet" color="#fff" fill="#fff" stroke="none"><g transform="translate(30 86.147453)"><g><g><path d="M -14.950000000000003 -25 l 34.95 0 l 10 -10 l -50 0 l -10 10 l 25 25 l 0 35 l 10 -10 l 0 -30.05 l -19.95 -19.95 z"></path></g></g></g></svg><svg x="476" y="0" width="15" height="52" viewBox="0 0 50 172.294907" preserveAspectRatio="xMidYMid meet" color="#fff" fill="#fff" stroke="none"><g transform="translate(25 86.147453)"><g><g><path d="M -15 -14.625 l -10 10 l 29.85 29.85 l 7.5 -7.5 l -22.35 -22.35 l 20 0 l 15 -15 l -25.6 -25.6 l -7.5 7.5 l 23.1 23.1 l -30 0 z"></path><path d="M 10 45.225 l 10 -10 l -30 0 l -10 10 l 30 0 z"></path></g></g></g></svg><svg x="494" y="0" width="30" height="52" viewBox="0 0 98.85 172.294907" preserveAspectRatio="xMidYMid meet" color="#fff" fill="#fff" stroke="none"><g transform="translate(49.425 86.147453)"><g><g><path d="M -16.875 -22.5 l -7.5 7.5 57.5 62.5 7.5 -7.5 -57.5 -62.5 z"></path><path d="M -24.375 -15 l -15.05 0 l -10 10 l 17.45 0 l 8.75 -8.8 q 6.9 0.2 3.8 -6.15 l -4.95 4.95 z"></path><path d="M 39.425 38.8 q -6.486 -1.216 -4.75 5 q 2.924 -3.894 5.95 -3.8 l 8.8 -8.8 l 0 -15 l -10 10 l 0 12.6 z"></path><path d="M 40.625 -15 l 0 -25 l -20 20 l 1.2 1.2 l 8.8 -8.8 l 0 22.6 l 10 -10 z"></path><path d="M 0.625 -40 l 7.5 7.5 l 7.5 -7.5 l -7.5 -7.5 l -7.5 7.5 z"></path></g></g></g></svg><svg x="527" y="0" width="20" height="52" viewBox="0 0 65 172.294907" preserveAspectRatio="xMidYMid meet" color="#fff" fill="#fff" stroke="none"><g transform="translate(32.5 86.147453)"><g><g><path d="M -25 -43.75 l -7.5 7.5 57.5 62.5 7.5 -7.5 -57.5 -62.5 z"></path><path d="M -32.5 18.75 l 0 25 l 20 -20 l -1.2 -1.2 l -8.8 8.8 l 0 -22.6 l -10 10 z"></path></g></g></g></svg><svg x="550" y="0" width="18" height="52" viewBox="0 0 59.9 172.294907" preserveAspectRatio="xMidYMid meet" color="#fff" fill="#fff" stroke="none"><g transform="translate(29.95 86.147453)"><g><g><path d="M 19.950000000000003 19.299999999999997 l 10 -10 l 0 -60 l -40 0 l -10 10 l 40 0 l 0 60 z"></path><g><path d="M 2.3500000000000014 -60.7 l -22.4 0 l -9.9 10 l 19.9 0 l -10 10 l 12.65 0 q -5.504 -3.447 5.3 -10 l -5.5 0 l 9.95 -10 z"></path></g><g><path d="M 29.950000000000003 9.299999999999997 l 0 -7.3 q -4.546 5.888 -10 3.05 l 0 11.95 l -15.05 0 l -17.5 17.5 l 1.2 1.2 l 8.7 -8.7 l 15 0 l 17.65 -17.7 z"></path></g><path d="M -7.4999999999999964 53.2 l 7.5 7.5 l 7.5 -7.5 l -7.5 -7.5 l -7.5 7.5 z"></path></g></g></g></svg><svg x="571" y="0" width="25" height="52" viewBox="0 0 83.15 172.294907" preserveAspectRatio="xMidYMid meet" color="#fff" fill="#fff" stroke="none"><g transform="translate(41.575 86.147453)"><g><g><path d="M -31.675 -36.35000000000001 l -9.9 9.95 l 47.35 58.35 l 0.05 0 l 1.4 1.75 l 7.5 -7.5 l -42.7 -52.55 l 52.05 0 l 10 -10 l -65.75 0 z"></path><g><path d="M 14.075000000000003 -26.35000000000001 l 10 0 l 17.5 -17.5 l -1.2 -1.2 l -8.7 8.7 l -7.6 0 q 0.83 5.4 -10 10 z"></path></g><g><path d="M -10.274999999999999 63.85 l 1.2 1.2 l 16.3 -16.3 l 0 -15.05 l 7.5 -7.5 q -11.45 -4.9 -8.7 6.3 l -8.8 8.9 l 0 14.95 l -7.5 7.5 z"></path></g><path d="M 10 -55.05000000000001 l 10 -10 l -30 0 l -10 10 l 30 0 z"></path></g></g></g></svg><svg x="599" y="0" width="8" height="52" viewBox="0 0 27.5 172.294907" preserveAspectRatio="xMidYMid meet" color="#fff" fill="#fff" stroke="none"><g transform="translate(13.75 86.147453)"><g><g><path d="M -13.75 1.1500000000000004 l 10 -10 l 0 33.85 l 10 -10 l 0 -36.2 l -10 9.95 l 0 -33.75 l -10 10 l 0 36.15 z"></path><g><path d="M 6.25 32.6 l 0 -17.6 q -7.3 -5 -10 10 l 0 20 l 17.5 -17.5 l -1.2 -1.2 l -6.3 6.3 z"></path></g></g></g></g></svg><svg x="610" y="0" width="14" height="52" viewBox="0 0 45 172.294907" preserveAspectRatio="xMidYMid meet" color="#fff" fill="#fff" stroke="none"><g transform="translate(22.5 86.147453)"><g><g><path d="M -2.5 -8.224999999999996 l -10 10 l 0 -33.85 l -10 10 l 0 36.2 l 10 -9.95 l 0 33.75 l 10 -10 l 0 -36.15 z"></path><g><path d="M -22.5 -22.074999999999996 l 0 5 q 6.25 -9 10 -5 l 0 -7.6 l 11.8 11.7 l 7 -7 l -12.95 -12.95 l -15.85 15.85 z"></path></g><g><path d="M -2.5500000000000007 25.525000000000006 l 0.05 -5.05 q -4.6 6.3 -10 4 l 0 13.45 l 9.95 -10 l 12.65 0 l -7.5 7.5 l 1.2 1.2 l 18.7 -18.7 l -17.45 0 l -7.6 7.6 z"></path></g></g></g></g></svg><svg x="627" y="0" width="17" height="52" viewBox="0 0 55 172.294907" preserveAspectRatio="xMidYMid meet" color="#fff" fill="#fff" stroke="none"><g transform="translate(27.5 86.147453)"><g><g><path d="M 27.5 -24.974999999999987 l -10 10 l 0 20 l -35 0 l -10 10 l 29.95 29.95 l 7.5 -7.5 l -22.45 -22.45 l 30 0 l 10 -10 l 0 -30 z"></path><path d="M 10 -34.974999999999994 l 10 -10 l -30 0 l -10 10 l 30 0 z"></path></g></g></g></svg><svg x="647" y="0" width="15" height="52" viewBox="0 0 50 172.294907" preserveAspectRatio="xMidYMid meet" color="#fff" fill="#fff" stroke="none"><g transform="translate(25 86.147453)"><g><g><path d="M -15 -17.125 l -10 10 l 29.85 29.85 l 7.5 -7.5 l -22.35 -22.35 l 20 0 l 15 -15 l -25.6 -25.6 l -7.5 7.5 l 23.1 23.1 l -30 0 z"></path><path d="M -7.5 40.225 l 7.5 7.5 l 7.5 -7.5 l -7.5 -7.5 l -7.5 7.5 z"></path></g></g></g></svg><svg x="665" y="0" width="26" height="52" viewBox="0 0 87.5 172.294907" preserveAspectRatio="xMidYMid meet" color="#fff" fill="#fff" stroke="none"><g transform="translate(43.75 86.147453)"><g><g><path d="M -15.75 -0.6500000000000004 l 7.45 -7.5 27.05 34.4 7.5 -7.5 -27.8 -36 -7.75 7.8 -26.95 -34.3 -7.5 7.5 28 35.6 z"></path><path d="M 16.15 16.25 q -1.655 2.716 2.6 10 l 15 0 l 10 -10 l -20 0 q -7.015 -2.931 -7.6 0 z"></path><path d="M -31.25 8.75 l -10 10 l 0 25 l 10 -10 l 0 -25 z"></path><path d="M 18.85 -33.75 l -8.8 8.8 l 1.2 1.2 l 20 -20 l -30 0 l -10 10 l 27.6 0 z"></path></g></g></g></svg><svg x="694" y="0" width="26" height="52" viewBox="0 0 87.5 172.294907" preserveAspectRatio="xMidYMid meet" color="#fff" fill="#fff" stroke="none"><g transform="translate(43.75 86.147453)"><g><g><path d="M -15.75 -0.6500000000000004 l 7.45 -7.5 27.05 34.4 7.5 -7.5 -27.8 -36 -7.75 7.8 -26.95 -34.3 -7.5 7.5 28 35.6 z"></path><path d="M 16.15 16.25 q -1.655 2.716 2.6 10 l 15 0 l 10 -10 l -20 0 q -7.015 -2.931 -7.6 0 z"></path><path d="M -31.25 8.75 l -10 10 l 0 25 l 10 -10 l 0 -25 z"></path><path d="M 18.85 -33.75 l -8.8 8.8 l 1.2 1.2 l 20 -20 l -30 0 l -10 10 l 27.6 0 z"></path></g></g></g></svg><svg x="723" y="0" width="15" height="52" viewBox="0 0 50 172.294907" preserveAspectRatio="xMidYMid meet" color="#fff" fill="#fff" stroke="none"><g transform="translate(25 86.147453)"><g><g><path d="M -15 -17.125 l -10 10 l 29.85 29.85 l 7.5 -7.5 l -22.35 -22.35 l 20 0 l 15 -15 l -25.6 -25.6 l -7.5 7.5 l 23.1 23.1 l -30 0 z"></path><path d="M -7.5 40.225 l 7.5 7.5 l 7.5 -7.5 l -7.5 -7.5 l -7.5 7.5 z"></path></g></g></g></svg><svg x="741" y="0" width="17" height="52" viewBox="0 0 55 172.294907" preserveAspectRatio="xMidYMid meet" color="#fff" fill="#fff" stroke="none"><g transform="translate(27.5 86.147453)"><g><g><path d="M 27.5 -24.974999999999987 l -10 10 l 0 20 l -35 0 l -10 10 l 29.95 29.95 l 7.5 -7.5 l -22.45 -22.45 l 30 0 l 10 -10 l 0 -30 z"></path><path d="M 10 -34.974999999999994 l 10 -10 l -30 0 l -10 10 l 30 0 z"></path></g></g></g></svg><svg x="761" y="0" width="14" height="52" viewBox="0 0 45 172.294907" preserveAspectRatio="xMidYMid meet" color="#fff" fill="#fff" stroke="none"><g transform="translate(22.5 86.147453)"><g><g><path d="M -2.5 -8.224999999999996 l -10 10 l 0 -33.85 l -10 10 l 0 36.2 l 10 -9.95 l 0 33.75 l 10 -10 l 0 -36.15 z"></path><g><path d="M -22.5 -22.074999999999996 l 0 5 q 6.25 -9 10 -5 l 0 -7.6 l 11.8 11.7 l 7 -7 l -12.95 -12.95 l -15.85 15.85 z"></path></g><g><path d="M -2.5500000000000007 25.525000000000006 l 0.05 -5.05 q -4.6 6.3 -10 4 l 0 13.45 l 9.95 -10 l 12.65 0 l -7.5 7.5 l 1.2 1.2 l 18.7 -18.7 l -17.45 0 l -7.6 7.6 z"></path></g></g></g></g></svg><svg x="778" y="0" width="8" height="52" viewBox="0 0 27.5 172.294907" preserveAspectRatio="xMidYMid meet" color="#fff" fill="#fff" stroke="none"><g transform="translate(13.75 86.147453)"><g><g><path d="M -13.75 1.1500000000000004 l 10 -10 l 0 33.85 l 10 -10 l 0 -36.2 l -10 9.95 l 0 -33.75 l -10 10 l 0 36.15 z"></path><g><path d="M 6.25 32.6 l 0 -17.6 q -7.3 -5 -10 10 l 0 20 l 17.5 -17.5 l -1.2 -1.2 l -6.3 6.3 z"></path></g></g></g></g></svg><svg x="789" y="0" width="25" height="52" viewBox="0 0 83.15 172.294907" preserveAspectRatio="xMidYMid meet" color="#fff" fill="#fff" stroke="none"><g transform="translate(41.575 86.147453)"><g><g><path d="M -31.675 -36.35000000000001 l -9.9 9.95 l 47.35 58.35 l 0.05 0 l 1.4 1.75 l 7.5 -7.5 l -42.7 -52.55 l 52.05 0 l 10 -10 l -65.75 0 z"></path><g><path d="M 14.075000000000003 -26.35000000000001 l 10 0 l 17.5 -17.5 l -1.2 -1.2 l -8.7 8.7 l -7.6 0 q 0.83 5.4 -10 10 z"></path></g><g><path d="M -10.274999999999999 63.85 l 1.2 1.2 l 16.3 -16.3 l 0 -15.05 l 7.5 -7.5 q -11.45 -4.9 -8.7 6.3 l -8.8 8.9 l 0 14.95 l -7.5 7.5 z"></path></g><path d="M 10 -55.05000000000001 l 10 -10 l -30 0 l -10 10 l 30 0 z"></path></g></g></g></svg><svg x="817" y="0" width="18" height="52" viewBox="0 0 59.9 172.294907" preserveAspectRatio="xMidYMid meet" color="#fff" fill="#fff" stroke="none"><g transform="translate(29.95 86.147453)"><g><g><path d="M 19.950000000000003 19.299999999999997 l 10 -10 l 0 -60 l -40 0 l -10 10 l 40 0 l 0 60 z"></path><g><path d="M 2.3500000000000014 -60.7 l -22.4 0 l -9.9 10 l 19.9 0 l -10 10 l 12.65 0 q -5.504 -3.447 5.3 -10 l -5.5 0 l 9.95 -10 z"></path></g><g><path d="M 29.950000000000003 9.299999999999997 l 0 -7.3 q -4.546 5.888 -10 3.05 l 0 11.95 l -15.05 0 l -17.5 17.5 l 1.2 1.2 l 8.7 -8.7 l 15 0 l 17.65 -17.7 z"></path></g><path d="M -7.4999999999999964 53.2 l 7.5 7.5 l 7.5 -7.5 l -7.5 -7.5 l -7.5 7.5 z"></path></g></g></g></svg><svg x="838" y="0" width="20" height="52" viewBox="0 0 65 172.294907" preserveAspectRatio="xMidYMid meet" color="#fff" fill="#fff" stroke="none"><g transform="translate(32.5 86.147453)"><g><g><path d="M -25 -43.75 l -7.5 7.5 57.5 62.5 7.5 -7.5 -57.5 -62.5 z"></path><path d="M -32.5 18.75 l 0 25 l 20 -20 l -1.2 -1.2 l -8.8 8.8 l 0 -22.6 l -10 10 z"></path></g></g></g></svg><svg x="861" y="0" width="30" height="52" viewBox="0 0 98.85 172.294907" preserveAspectRatio="xMidYMid meet" color="#fff" fill="#fff" stroke="none"><g transform="translate(49.425 86.147453)"><g><g><path d="M -16.875 -22.5 l -7.5 7.5 57.5 62.5 7.5 -7.5 -57.5 -62.5 z"></path><path d="M -24.375 -15 l -15.05 0 l -10 10 l 17.45 0 l 8.75 -8.8 q 6.9 0.2 3.8 -6.15 l -4.95 4.95 z"></path><path d="M 39.425 38.8 q -6.486 -1.216 -4.75 5 q 2.924 -3.894 5.95 -3.8 l 8.8 -8.8 l 0 -15 l -10 10 l 0 12.6 z"></path><path d="M 40.625 -15 l 0 -25 l -20 20 l 1.2 1.2 l 8.8 -8.8 l 0 22.6 l 10 -10 z"></path><path d="M 0.625 -40 l 7.5 7.5 l 7.5 -7.5 l -7.5 -7.5 l -7.5 7.5 z"></path></g></g></g></svg><svg x="894" y="0" width="15" height="52" viewBox="0 0 50 172.294907" preserveAspectRatio="xMidYMid meet" color="#fff" fill="#fff" stroke="none"><g transform="translate(25 86.147453)"><g><g><path d="M -15 -14.625 l -10 10 l 29.85 29.85 l 7.5 -7.5 l -22.35 -22.35 l 20 0 l 15 -15 l -25.6 -25.6 l -7.5 7.5 l 23.1 23.1 l -30 0 z"></path><path d="M 10 45.225 l 10 -10 l -30 0 l -10 10 l 30 0 z"></path></g></g></g></svg><svg x="912" y="0" width="18" height="52" viewBox="0 0 60 172.294907" preserveAspectRatio="xMidYMid meet" color="#fff" fill="#fff" stroke="none"><g transform="translate(30 86.147453)"><g><g><path d="M -14.950000000000003 -25 l 34.95 0 l 10 -10 l -50 0 l -10 10 l 25 25 l 0 35 l 10 -10 l 0 -30.05 l -19.95 -19.95 z"></path></g></g></g></svg><svg x="933" y="0" width="22" height="52" viewBox="0 0 72.65 172.294907" preserveAspectRatio="xMidYMid meet" color="#fff" fill="#fff" stroke="none"><g transform="translate(36.325 86.147453)"><g><g><path d="M -16.324999999999996 -40 l -10 10 l 0 50 l -10 10 l 45 0 l 10 -10 l -42.6 0 l 7.6 -7.6 l 0 -42.4 l 30 0 l 10 -10 l -40 0 z"></path><g><path d="M 23.825000000000003 12.5 l -7.5 7.5 l -11.1 0 q 3.05 5.25 -1.5 10 l 5 0 l 8.8 -8.85 q 0.445 14.232 18.8 18.85 q -12.993 -10.704 -12.45 -27.5 z"></path></g></g></g></g></svg><svg x="958" y="0" width="6" height="52" viewBox="0 0 20 172.294907" preserveAspectRatio="xMidYMid meet" color="#fff" fill="#fff" stroke="none"><g transform="translate(10 86.147453)"><g><g><path d="M 0 -40 l -10 10 l 0 60 l 10 -10 l 0 -60 z"></path><g><path d="M -10 15 l 0 15 l 10 -10 l 0 20 l 10 -9.9 l 0 -22.4 l -10 9.95 l 0 -5.15 q -5 6.1 -10 2.5 z"></path></g></g></g></g></svg><svg x="967" y="0" width="15" height="52" viewBox="0 0 50 172.294907" preserveAspectRatio="xMidYMid meet" color="#fff" fill="#fff" stroke="none"><g transform="translate(25 86.147453)"><g><g><path d="M 15 0.8749999999999929 l 10 -10 l -29.85 -29.85 l -7.5 7.5 l 22.35 22.35 l -20 0 l -15 15 l 25.6 25.6 l 7.5 -7.5 l -23.1 -23.1 l 30 0 z"></path><g><path d="M -0.5500000000000007 23.974999999999994 q -1.328 4.078 0.8 6.7 l -0.8 -0.35 q -19.05 -9.15 -23.7 6.2 q 7.65 -9.4 17.35 2.45 l 15 -15 q -4.648 -1.323 -8.65 0 z"></path></g></g></g></g></svg><svg x="985" y="0" width="6" height="52" viewBox="0 0 20 172.294907" preserveAspectRatio="xMidYMid meet" color="#fff" fill="#fff" stroke="none"><g transform="translate(10 86.147453)"><g><g><path d="M 0 -40 l -10 10 l 0 60 l 10 -10 l 0 -60 z"></path><g><path d="M -10 15 l 0 15 l 10 -10 l 0 20 l 10 -9.9 l 0 -22.4 l -10 9.95 l 0 -5.15 q -5 6.1 -10 2.5 z"></path></g></g></g></g></svg><svg x="994" y="0" width="12" height="52" viewBox="0 0 40 172.294907" preserveAspectRatio="xMidYMid meet" color="#fff" fill="#fff" stroke="none"><g transform="translate(20 86.147453)"><g><g><path d="M -8.75 -38.75 l -10 10 l 0 30 l 30 30 l 7.5 -7.5 l -27.5 -27.5 l 0 -35 z"></path><g><path d="M -8.75 -58.75 l -10 10 l 0 20 q 7.3 5 10 -10 l 0 -20 z"></path></g><g><path d="M 15.700000000000003 24.85 q -1.825 3.28 -4.45 6.4 l -7.5 7.5 l -1.2 -1.2 l 7.5 -7.5 q -1.688 -4.106 -0.35 -4.55 q 1.45 -0.6 6 -0.65 z"></path></g><path d="M 10 58.75 l 10 -10 l -30 0 l -10 10 l 30 0 z"></path></g></g></g></svg><svg x="1009" y="0" width="8" height="52" viewBox="0 0 25 172.294907" preserveAspectRatio="xMidYMid meet" color="#fff" fill="#fff" stroke="none"><g transform="translate(12.5 86.147453)"><g><g><path d="M -2.5 -35 l -10 10 l 0 60 l 10 -10 l 0 -60 z"></path><g><path d="M -12.5 20 l 0 15 l 15 0 l 10 -10 l -15 0 l 0 -10 q -3.874 7.753 -10 5 z"></path></g></g></g></g></svg><svg x="1020" y="0" width="18" height="52" viewBox="0 0 60.05 172.294907" preserveAspectRatio="xMidYMid meet" color="#fff" fill="#fff" stroke="none"><g transform="translate(30.025 86.147453)"><g><g><path d="M -14.925 -18.85 l 34.95 0 l 10 -10 l -50 0 l -10 10 l 25 25 l 0 35 l 10 -10 l 0 -30.05 l -19.95 -19.95 z"></path><g><path d="M -5.025000000000002 38.85 l -15 0 l -10 10 l 17.4 0 l 17.65 -17.7 l 0 -7.3 q -5.4 4.35 -10 2.75 l 0 12.25 z"></path></g><path d="M 10.000000000000004 -38.85 l 10 -10 l -30 0 l -10 10 l 30 0 z"></path></g></g></g></svg><svg x="1041" y="0" width="15" height="52" viewBox="0 0 50 172.294907" preserveAspectRatio="xMidYMid meet" color="#fff" fill="#fff" stroke="none"><g transform="translate(25 86.147453)"><g><g><path d="M -15 -17.125 l -10 10 l 29.85 29.85 l 7.5 -7.5 l -22.35 -22.35 l 20 0 l 15 -15 l -25.6 -25.6 l -7.5 7.5 l 23.1 23.1 l -30 0 z"></path><path d="M -7.5 40.225 l 7.5 7.5 l 7.5 -7.5 l -7.5 -7.5 l -7.5 7.5 z"></path></g></g></g></svg><svg x="1059" y="0" width="26" height="52" viewBox="0 0 87.5 172.294907" preserveAspectRatio="xMidYMid meet" color="#fff" fill="#fff" stroke="none"><g transform="translate(43.75 86.147453)"><g><g><path d="M -15.75 -0.6500000000000004 l 7.45 -7.5 27.05 34.4 7.5 -7.5 -27.8 -36 -7.75 7.8 -26.95 -34.3 -7.5 7.5 28 35.6 z"></path><path d="M 16.15 16.25 q -1.655 2.716 2.6 10 l 15 0 l 10 -10 l -20 0 q -7.015 -2.931 -7.6 0 z"></path><path d="M -31.25 8.75 l -10 10 l 0 25 l 10 -10 l 0 -25 z"></path><path d="M 18.85 -33.75 l -8.8 8.8 l 1.2 1.2 l 20 -20 l -30 0 l -10 10 l 27.6 0 z"></path></g></g></g></svg><svg x="1088" y="0" width="18" height="52" viewBox="0 0 60.05 172.294907" preserveAspectRatio="xMidYMid meet" color="#fff" fill="#fff" stroke="none"><g transform="translate(30.025 86.147453)"><g><g><path d="M -14.925 -18.85 l 34.95 0 l 10 -10 l -50 0 l -10 10 l 25 25 l 0 35 l 10 -10 l 0 -30.05 l -19.95 -19.95 z"></path><g><path d="M -5.025000000000002 38.85 l -15 0 l -10 10 l 17.4 0 l 17.65 -17.7 l 0 -7.3 q -5.4 4.35 -10 2.75 l 0 12.25 z"></path></g><path d="M 10.000000000000004 -38.85 l 10 -10 l -30 0 l -10 10 l 30 0 z"></path></g></g></g></svg><svg x="1109" y="0" width="8" height="52" viewBox="0 0 25 172.294907" preserveAspectRatio="xMidYMid meet" color="#fff" fill="#fff" stroke="none"><g transform="translate(12.5 86.147453)"><g><g><path d="M -2.5 -35 l -10 10 l 0 60 l 10 -10 l 0 -60 z"></path><g><path d="M -12.5 20 l 0 15 l 15 0 l 10 -10 l -15 0 l 0 -10 q -3.874 7.753 -10 5 z"></path></g></g></g></g></svg><svg x="1120" y="0" width="12" height="52" viewBox="0 0 40 172.294907" preserveAspectRatio="xMidYMid meet" color="#fff" fill="#fff" stroke="none"><g transform="translate(20 86.147453)"><g><g><path d="M -8.75 -38.75 l -10 10 l 0 30 l 30 30 l 7.5 -7.5 l -27.5 -27.5 l 0 -35 z"></path><g><path d="M -8.75 -58.75 l -10 10 l 0 20 q 7.3 5 10 -10 l 0 -20 z"></path></g><g><path d="M 15.700000000000003 24.85 q -1.825 3.28 -4.45 6.4 l -7.5 7.5 l -1.2 -1.2 l 7.5 -7.5 q -1.688 -4.106 -0.35 -4.55 q 1.45 -0.6 6 -0.65 z"></path></g><path d="M 10 58.75 l 10 -10 l -30 0 l -10 10 l 30 0 z"></path></g></g></g></svg><svg x="1135" y="0" width="6" height="52" viewBox="0 0 20 172.294907" preserveAspectRatio="xMidYMid meet" color="#fff" fill="#fff" stroke="none"><g transform="translate(10 86.147453)"><g><g><path d="M 0 -40 l -10 10 l 0 60 l 10 -10 l 0 -60 z"></path><g><path d="M -10 15 l 0 15 l 10 -10 l 0 20 l 10 -9.9 l 0 -22.4 l -10 9.95 l 0 -5.15 q -5 6.1 -10 2.5 z"></path></g></g></g></g></svg><svg x="1144" y="0" width="15" height="52" viewBox="0 0 50 172.294907" preserveAspectRatio="xMidYMid meet" color="#fff" fill="#fff" stroke="none"><g transform="translate(25 86.147453)"><g><g><path d="M 15 0.8749999999999929 l 10 -10 l -29.85 -29.85 l -7.5 7.5 l 22.35 22.35 l -20 0 l -15 15 l 25.6 25.6 l 7.5 -7.5 l -23.1 -23.1 l 30 0 z"></path><g><path d="M -0.5500000000000007 23.974999999999994 q -1.328 4.078 0.8 6.7 l -0.8 -0.35 q -19.05 -9.15 -23.7 6.2 q 7.65 -9.4 17.35 2.45 l 15 -15 q -4.648 -1.323 -8.65 0 z"></path></g></g></g></g></svg><svg x="1162" y="0" width="6" height="52" viewBox="0 0 20 172.294907" preserveAspectRatio="xMidYMid meet" color="#fff" fill="#fff" stroke="none"><g transform="translate(10 86.147453)"><g><g><path d="M 0 -40 l -10 10 l 0 60 l 10 -10 l 0 -60 z"></path><g><path d="M -10 15 l 0 15 l 10 -10 l 0 20 l 10 -9.9 l 0 -22.4 l -10 9.95 l 0 -5.15 q -5 6.1 -10 2.5 z"></path></g></g></g></g></svg><svg x="1171" y="0" width="22" height="52" viewBox="0 0 72.65 172.294907" preserveAspectRatio="xMidYMid meet" color="#fff" fill="#fff" stroke="none"><g transform="translate(36.325 86.147453)"><g><g><path d="M -16.324999999999996 -40 l -10 10 l 0 50 l -10 10 l 45 0 l 10 -10 l -42.6 0 l 7.6 -7.6 l 0 -42.4 l 30 0 l 10 -10 l -40 0 z"></path><g><path d="M 23.825000000000003 12.5 l -7.5 7.5 l -11.1 0 q 3.05 5.25 -1.5 10 l 5 0 l 8.8 -8.85 q 0.445 14.232 18.8 18.85 q -12.993 -10.704 -12.45 -27.5 z"></path></g></g></g></g></svg><svg x="1196" y="0" width="18" height="52" viewBox="0 0 60 172.294907" preserveAspectRatio="xMidYMid meet" color="#fff" fill="#fff" stroke="none"><g transform="translate(30 86.147453)"><g><g><path d="M -14.950000000000003 -25 l 34.95 0 l 10 -10 l -50 0 l -10 10 l 25 25 l 0 35 l 10 -10 l 0 -30.05 l -19.95 -19.95 z"></path></g></g></g></svg></g>
</svg>
