<svg xmlns="http://www.w3.org/2000/svg" viewBox="0 0 100.1 172.294907" width="100.1" height="172.294907" fill="currentColor" stroke="none">
<g transform="translate(50.05 86.147453)"><g><g><path d="M -15 -23.85 l -10 10 l 0 60 l 10 -10 l 0 -50 l 30 0 l 10 -10 l -40 0 z"></path><g><path d="M 25 -23.85 l 12.65 0 l -7.5 7.5 l 1.2 1.2 l 18.7 -18.7 l -17.45 0 l -9.95 10 l -7.6 0 q 4.95 4.2 -6.25 10 l 6.25 0 l 9.95 -10 z"></path></g><g><path d="M -25.05 43.85 l -15 0 l -10 10 l 17.4 0 l 17.65 -17.7 l 0 -7.3 q -5.4 4.35 -10 2.75 l 0 12.25 z"></path></g><path d="M 10 -43.85 l 10 -10 l -30 0 l -10 10 l 30 0 z"></path></g></g></g>
</svg>
