<svg xmlns="http://www.w3.org/2000/svg" viewBox="0 0 67.6 172.294907" width="67.6" height="172.294907" fill="currentColor" stroke="none">
<g transform="translate(33.8 86.147453)"><g><g><path d="M -8.799999999999997 -17.5 l -10 10 l 0 35 l 19.95 0 l -24.95 25 l 40 0 l 10 -10 l -37.6 0 l 24.85 -25 l -22.25 0 l 0 -35 z"></path><g><path d="M -8.799999999999997 -17.5 l -15 0 l 0 -15 l -10 10 l 0 15 l 15 0 l 0 10 q 3.85 -7.75 10 -5 l 0 -15 z"></path></g><g><path d="M 18.550000000000004 42.5 q 0.465 4.718 -7.9 10 l 5.55 0 l 17.6 -17.6 l 0 -15 l -10 10 l 0 12.6 l -5.25 0 z"></path></g><path d="M 10 -42.5 l 10 -10 l -30 0 l -10 10 l 30 0 z"></path></g></g></g>
</svg>
