<svg xmlns="http://www.w3.org/2000/svg" viewBox="0 0 147.5 125" width="147.5" height="125" fill="currentColor" stroke="none">
<g transform="translate(73.75 62.5)"><g><g><path d="M -51.35 -27.5 l -10 10 l 0 60 l 10 -10 l 0 -60 z"></path><g><path d="M -73.75 52.5 l 22.4 0 l 10 -10.1 l -19.9 0 l -0.1 0.1 l 0 -0.1 l 0.05 0 l 9.95 -9.9 l 0 -5 q -5 5.774 -10 5 l 0 7.55 l -12.4 12.4 z"></path></g></g><g><path d="M -6.349999999999994 -27.5 l -10 10 l 0 35 l 19.95 0 l -24.95 25 l 40 0 l 10 -10 l -37.6 0 l 24.85 -25 l -22.25 0 l 0 -35 z"></path><g><path d="M -6.349999999999994 -27.5 l -15 0 l 0 -15 l -10 10 l 0 15 l 15 0 l 0 10 q 3.85 -7.75 10 -5 l 0 -15 z"></path></g><g><path d="M 21 32.5 q 0.465 4.718 -7.9 10 l 5.55 0 l 17.6 -17.6 l 0 -15 l -10 10 l 0 12.6 l -5.25 0 z"></path></g><path d="M 12.449999999999989 -52.5 l 10 -10 l -30 0 l -10 10 l 30 0 z"></path></g><g><path d="M 66.25 -3.6500000000000004 l -10 10 l 0 -33.85 l -10 10 l 0 36.2 l 10 -9.95 l 0 33.75 l 10 -10 l 0 -36.15 z"></path><g><path d="M 66.25 50.1 l 0 -17.6 q -7.3 -5 -10 10 l 0 20 l 17.5 -17.5 l -1.2 -1.2 l -6.3 6.3 z"></path></g></g></g></g>
</svg>
