<svg xmlns="http://www.w3.org/2000/svg" viewBox="0 0 603.2 135.025" width="603.2" height="135.025" fill="currentColor" stroke="none">
<g transform="translate(301.6 67.5125)"><g><g><path d="M -291.6 -47.51249999999999 l -10 10 l 0 60 l 10 -10 l 0 -60 z"></path><g><path d="M -301.6 7.487500000000011 l 0 15 l 15 0 l 10 -10 l -15 0 l 0 -10 q -3.874 7.753 -10 5 z"></path></g></g><g><path d="M -200.95000000000005 -37.437499999999986 l 10 -10 l -65.75 0 l -9.9 9.95 l 30.45 37.55 l 7.25 -7.3 l 24.15 29.65 l 7.45 -7.4 l -25.2 -31.05 l -7.5 7.45 l -23.1 -28.85 l 52.15 0 z"></path><g><path d="M -197.25000000000003 14.912500000000009 q -6.8 0.5 -7.5 7.5 l 15 15 l 15 -15 l -1.2 -1.2 l -7.5 7.5 l -13.8 -13.8 z"></path></g><path d="M -210.67500000000004 -57.437499999999986 l 10 -10 l -30 0 l -10 10 l 30 0 z"></path></g><g><path d="M -157.25000000000003 -47.51249999999999 l -7.5 7.5 57.5 62.5 7.5 -7.5 -57.5 -62.5 z"></path></g><g><path d="M -69.75000000000003 -47.51249999999999 l -10 10 l 0 50 l -10 10 l 45 0 l 10 -10 l -42.6 0 l 7.6 -7.6 l 0 -42.4 l 30 0 l 10 -10 l -40 0 z"></path><g><path d="M -7.25 -40.01249999999999 l -1.2 -1.2 l -7.5 7.5 l -13.8 -13.8 q -8.65 2.75 -10 10 l 5 0 l 12.5 12.5 l 15 -15 z"></path></g><g><path d="M -32.950000000000045 34.28750000000001 l -11.8 -11.8 l 10 -10 l -11.15 0 q 3.75 5.2 -5.8 10 l 4.65 0 l -5.9 5.9 l 13 12.9 l 7 -7 z"></path></g><path d="M -38.5 61.28750000000001 l 10 -10 l -30 0 l -10 10 l 30 0 z"></path></g><g><path d="M 22.75 -23.662499999999987 l -10 10 l 0 -33.85 l -10 10 l 0 36.2 l 10 -9.95 l 0 33.75 l 10 -10 l 0 -36.15 z"></path><g><path d="M 22.75 30.087500000000013 l 0 -17.6 q -7.3 -5 -10 10 l 0 20 l 17.5 -17.5 l -1.2 -1.2 l -6.3 6.3 z"></path></g></g><g><path d="M 50.14999999999998 -47.53749999999999 l -9.9 9.95 l 47.35 58.35 l 0.05 0 l 1.4 1.75 l 7.5 -7.5 l -42.7 -52.55 l 52.05 0 l 10 -10 l -65.75 0 z"></path><g><path d="M 96.55000000000001 15.012500000000024 q -6.8 0.5 -7.5 7.5 l 15 15 l 15 -15 l -1.2 -1.2 l -7.5 7.5 l -13.8 -13.8 z"></path></g><path d="M 72.05000000000001 57.51250000000002 l 8.8 -8.8 l -1.2 -1.2 l -20 20 l 30 0 l 10 -10 l -27.6 0 z"></path></g><g><path d="M 172.8 -45.01249999999999 l -1.2 -1.2 l -6.3 6.3 l 0 -27.6 l -10 10 l 0 30 l 17.5 -17.5 z"></path><path d="M 139.05 -17.51249999999999 l -10 10 l 50 0 l 10 -10 l -50 0 z"></path></g><g><path d="M 209.05 -47.51249999999999 l -10 10 l 0 60 l 10 -10 l 0 -60 z"></path></g><g><path d="M 261.6 -47.51249999999999 l -10 10 l 0 60 l 10 -10 l 0 -50 l 30 0 l 10 -10 l -40 0 z"></path><g><path d="M 261.6 12.487500000000011 l 0 -7.3 q -4.546 5.888 -10 3.05 l 0 11.95 l -15.05 0 l -17.5 17.5 l 1.2 1.2 l 8.7 -8.7 l 15 0 l 17.65 -17.7 z"></path></g><path d="M 270.32500000000005 -57.51249999999999 l 10 -10 l -30 0 l -10 10 l 30 0 z"></path></g></g></g>
</svg>
