<svg xmlns="http://www.w3.org/2000/svg" viewBox="0 0 339.95 121.6" width="339.95" height="121.6" fill="currentColor" stroke="none">
<g transform="translate(169.975 60.8)"><g><g><path d="M -158.175 -40.57500000000001 l -10 10 l 0 60 l 10 -10 l 0 -60 z"></path><g><path d="M -169.97500000000002 -52.37500000000001 l 11.8 11.8 l -10 10 l 0 5 q 5.188 -7.964 10 -5 l 0 -7.7 l 8.2 -8.2 l -13 -12.9 l -7 7 z"></path></g><g><path d="M -168.175 14.42499999999999 l 0 15 l 15 0 l 10 -10 l -15 0 l 0 -10 q -3.874 7.753 -10 5 z"></path></g></g><g><path d="M -93.17500000000003 -0.95000000000001 l 10 -10 l -29.85 -29.85 l -7.5 7.5 l 22.35 22.35 l -20 0 l -15 15 l 25.6 25.6 l 7.5 -7.5 l -23.1 -23.1 l 30 0 z"></path><path d="M -98.17500000000003 -50.80000000000001 l 10 -10 l -30 0 l -10 10 l 30 0 z"></path></g><g><path d="M -63.175000000000026 -40.57500000000001 l -10 10 l 0 60 l 10 -10 l 0 -60 z"></path></g><g><path d="M -43.175000000000026 -40.57500000000001 l -10 10 l 0 36.3 l 10 -10.05 l 0 33.75 l 10 -10 l 0 -36.15 l -10 10 l 0 -23.85 l 30 0 l 10 -10 l -40 0 z"></path><path d="M -18.17500000000001 -50.57500000000001 l 10 -10 l -30 0 l -10 10 l 30 0 z"></path></g><g><path d="M 42.32499999999999 2.5249999999999897 l 7.45 -7.5 27.05 34.4 7.5 -7.5 -27.8 -36 -7.75 7.8 -26.95 -34.3 -7.5 7.5 28 35.6 z"></path><path d="M 20.724999999999994 -37.525000000000006 q -3.28 1.825 -6.4 4.45 l -7.5 7.5 l 1.2 1.2 l 7.5 -7.5 q 4.106 1.688 4.55 0.35 q 0.6 -1.45 0.65 -6 z"></path><path d="M 81.27499999999998 23.02499999999999 q -1.825 3.28 -4.45 6.4 l -7.5 7.5 l -1.2 -1.2 l 7.5 -7.5 q -1.688 -4.106 -0.35 -4.55 q 1.45 -0.6 6 -0.65 z"></path><path d="M 26.82499999999999 11.92499999999999 l -10 10 l 0 25 l 10 -10 l 0 -25 z"></path><path d="M 34.32499999999999 46.92499999999999 l 7.5 7.5 l 7.5 -7.5 l -7.5 -7.5 l -7.5 7.5 z"></path></g><g><path d="M 104.22499999999997 -40.60000000000001 l -9.9 9.95 l 47.35 58.35 l 0.05 0 l 1.4 1.75 l 7.5 -7.5 l -42.7 -52.55 l 52.05 0 l 10 -10 l -65.75 0 z"></path><g><path d="M 125.625 59.6 l 1.2 1.2 l 16.3 -16.3 l 0 -15.05 l 7.5 -7.5 q -11.45 -4.9 -8.7 6.3 l -8.8 8.9 l 0 14.95 l -7.5 7.5 z"></path></g></g></g></g>
</svg>
