<svg xmlns="http://www.w3.org/2000/svg" viewBox="0 0 60.2 172.294907" width="60.2" height="172.294907" fill="currentColor" stroke="none">
<g transform="translate(30.1 86.147453)"><g><g><path d="M -5.099999999999998 -24.92499999999999 l -10 10 l 0 40 l 9.55 -9.55 l 20.65 29.4 l 7.5 -7.5 l -21.6 -30.85 l -6.1 6.1 l 0 -37.6 z"></path><g><path d="M -5.099999999999998 -9.924999999999997 l 0 -15 l -15 0 l -10 10 l 15 0 l 0 10 q 3.874 -7.753 10 -5 z"></path></g><g><path d="M 16.2 41.875 q 3.28 -1.825 6.4 -4.45 l 7.5 -7.5 l -1.2 -1.2 l -7.5 7.5 q -4.106 -1.688 -4.55 -0.35 q -0.6 1.45 -0.65 6 z"></path></g><path d="M 10.000000000000004 -34.925 l 10 -10 l -30 0 l -10 10 l 30 0 z"></path></g></g></g>
</svg>
