<svg xmlns="http://www.w3.org/2000/svg" viewBox="0 0 670.6 145" width="670.6" height="145" fill="currentColor" stroke="none">
<g transform="translate(335.3 72.5)"><g><g><path d="M -327.8 -47.5 l -7.5 7.5 57.5 62.5 7.5 -7.5 -57.5 -62.5 z"></path></g><g><path d="M -245.25 -37.5 l 34.95 0 l 10 -10 l -50 0 l -10 10 l 25 25 l 0 35 l 10 -10 l 0 -30.05 l -19.95 -19.95 z"></path><g><path d="M -215.3 -47.5 l 15 0 l 0 15 l -10 10 l 0 -15 l -10 0 q 7.753 -3.874 5 -10 z"></path></g><g><path d="M -205.3 22.5 l -15 0 l 10 -10 l -15 0 l 0 -10 q -3.85 7.75 -10 5 l 0 15 l 12.55 0 l -9.95 10 l 17.4 0 l 10 -10 z"></path></g><path d="M -220.3 52.5 l 10 -10 l -30 0 l -10 10 l 30 0 z"></path></g><g><path d="M -146.55 -57.5 l -7.5 7.5 l 12.5 12.5 l -25 0 l -17.5 17.5 l 1.2 1.2 l 8.7 -8.7 l 37.6 0 l 10 -10 l -20 -20 z"></path><path d="M -180.3 -17.5 l -10 10 l 50 0 l 10 -10 l -50 0 z"></path></g><g><path d="M -88.55000000000001 -4.4 l 7.45 -7.5 27.05 34.4 7.5 -7.5 -27.8 -36 -7.75 7.8 -26.95 -34.3 -7.5 7.5 28 35.6 z"></path><path d="M -56.650000000000034 12.5 q -1.655 2.716 2.6 10 l 15 0 l 10 -10 l -20 0 q -7.015 -2.931 -7.6 0 z"></path><path d="M -104.05000000000001 5 l -10 10 l 0 25 l 10 -10 l 0 -25 z"></path><path d="M -84.05000000000001 32.5 l -10 10 l 0 25 l 10 -10 l 0 -25 z"></path></g><g><path d="M 23.44999999999999 22.5 l 7.5 -7.5 l -31.25 -31.25 l 31.25 -31.25 l -40 0 l -10 10 l 37.6 0 l -27.5 27.6 l 32.4 32.4 z"></path><path d="M -1.5500000000000114 -65 l 7.5 7.5 l 7.5 -7.5 l -7.5 -7.5 l -7.5 7.5 z"></path></g><g><path d="M 50.94999999999999 -47.5 l -10 10 l 0 60 l 10 -10 l 0 -60 z"></path></g><g><path d="M 85.59999999999997 -47.5 l -7.5 7.5 57.5 62.5 7.5 -7.5 -57.5 -62.5 z"></path><path d="M 83.09999999999997 -45 l -5 5 l -10 -10 l -7.15 7.15 l 11.3 11.2 l 7 -7.1 l 1 -1 q 3.183 1.742 3.85 0 q 0.916 -1.293 0 -6.25 z"></path><path d="M 78.09999999999997 2.5 l 20 20 l 7.5 -7.5 l -20 -20 l -7.5 7.5 z"></path><path d="M 140.59999999999997 -37.5 l 10 -10 l -30 0 l -10 10 l 30 0 z"></path></g><g><path d="M 219.99999999999994 -47.5 l -50 0 l -9.4 9.4 l 23.2 33.05 l 6.2 -6.25 l 0 33.8 l 10 -10 l 0 -36.15 l -1.1 1.1 q -2.967 2.977 -5.95 5.95 l -1.95 2 l -0.65 0.65 l -16.5 -23.5 l 36.2 0 l 10 -10 z"></path><g><path d="M 189.99999999999994 42.5 l 10 -10 l 0 -20 q -7.3 -5 -10 10 l 0 20 z"></path></g><path d="M 182.72499999999997 62.5 l 8.8 -8.8 l -1.2 -1.2 l -20 20 l 30 0 l 10 -10 l -27.6 0 z"></path></g><g><path d="M 240.05 -47.5 l -10 10 l 0 60 l 10 -10 l 0 -60 z"></path><g><path d="M 240.09999999999997 -45.2 l 15 0 l 10 -10 l -17.4 0 l -17.65 17.7 l 0 7.3 q 5.4 -4.35 10 -2.75 l 0 -12.25 z"></path></g></g><g><path d="M 300.09999999999997 -47.425 l -10 10 l 0 40 l 9.55 -9.55 l 20.65 29.4 l 7.5 -7.5 l -21.6 -30.85 l -6.1 6.1 l 0 -37.6 z"></path><g><path d="M 300.09999999999997 -32.425000000000004 l 0 -15 l -15 0 l -10 10 l 15 0 l 0 10 q 3.874 -7.753 10 -5 z"></path></g><g><path d="M 321.40000000000003 19.37499999999999 q 3.28 -1.825 6.4 -4.45 l 7.5 -7.5 l -1.2 -1.2 l -7.5 7.5 q -4.106 -1.688 -4.55 -0.35 q -0.6 1.45 -0.65 6 z"></path></g><path d="M 315.2 -57.425000000000004 l 10 -10 l -30 0 l -10 10 l 30 0 z"></path></g></g></g>
</svg>
