<svg xmlns="http://www.w3.org/2000/svg" viewBox="0 0 75.95 172.294907" width="75.95" height="172.294907" fill="currentColor" stroke="none">
<g transform="translate(37.975 86.147453)"><g><g><path d="M 12.024999999999999 -21.425000000000004 l 10 -10 l -50 0 l -10 10 l 0 30 l 30 0 l 0 30 l 10 -10 l 0 -30 l -30 0 l 0 -20 l 40 0 z"></path><g><path d="M 7.475000000000001 -21.425000000000004 l 4.55 0 l 8.8 -8.8 l 10 10 l 7.15 -7.15 l -11.3 -11.2 l -7.05 7.15 l -6.3 0 q 3.7 5 -5.85 10 z"></path></g><g><path d="M 1.6749999999999972 26.474999999999994 q -0.375 0.363 -1.15 1.15 q -6.261 1.099 -8.5 -3.8 l 0 14.75 l 10 -10 l 10 10 l 7.15 -7.15 l -11.3 -11.2 l -5.85 5.9 q -0.04 0.029 -0.35 0.35 z"></path></g></g></g></g>
</svg>
