<svg xmlns="http://www.w3.org/2000/svg" viewBox="0 0 320.461572 109.925" width="320.461572" height="109.925" fill="currentColor" stroke="none">
<g transform="translate(160.230786 54.9625)"><g><g><path d="M -150.23078613281248 -35.0375 l -10 10 l 0 60 l 10 -10 l 0 -60 z"></path><g><path d="M -160.23078613281248 19.9625 l 0 15 l 10 -10 l 0 20 l 10 -9.9 l 0 -22.4 l -10 9.95 l 0 -5.15 q -5 6.1 -10 2.5 z"></path></g></g><g><path d="M -64.58078613281249 -24.962500000000002 l 10 -10 l -65.75 0 l -9.9 9.95 l 30.45 37.55 l 7.25 -7.3 l 24.15 29.65 l 7.45 -7.4 l -25.2 -31.05 l -7.5 7.45 l -23.1 -28.85 l 52.15 0 z"></path><g><path d="M -60.88078613281249 27.387499999999996 q -6.8 0.5 -7.5 7.5 l 15 15 l 15 -15 l -1.2 -1.2 l -7.5 7.5 l -13.8 -13.8 z"></path></g><path d="M -74.30578613281249 -44.9625 l 10 -10 l -30 0 l -10 10 l 30 0 z"></path></g><g><path d="M 19.11921386718751 34.9625 l 7.5 -7.5 -26.9 -26.9 7.45 -7.55 -28.05 -28.05 -7.5 7.5 26.9 26.9 -7.5 7.5 28.1 28.1 z"></path><path d="M 1.6192138671875114 54.9625 l 10 -10 l -30 0 l -10 10 l 30 0 z"></path></g><g><path d="M 59.01921386718752 -35.0375 l -10 10 l 0 60 l 10 -10 l 0 -50 l 30 0 l 10 -10 l -40 0 z"></path><g><path d="M 94.01921386718752 -25.0375 l 12.5 12.5 l 7.5 -7.5 l -15 -15 q -8.65 2.75 -10 10 l 5 0 z"></path></g><g><path d="M 36.61921386718751 44.9625 l 22.4 0 l 10 -10.1 l -19.9 0 l -0.1 0.1 l 0 -0.1 l 0.05 0 l 9.95 -9.9 l 0 -5 q -5 5.774 -10 5 l 0 7.55 l -12.4 12.4 z"></path></g></g><g><path d="M 144.01921386718752 -11.187500000000002 l -10 10 l 0 -33.85 l -10 10 l 0 36.2 l 10 -9.95 l 0 33.75 l 10 -10 l 0 -36.15 z"></path><g><path d="M 134.01921386718752 19.3125 l 0 15.65 l 10 -10.05 q 10.8 2.6 16.2 18.85 q 0.35 -21.9 -9.85 -27.5 l -6.35 6.35 l 0 -8.1 q -4.8 9.5 -10 4.8 z"></path></g></g></g></g>
</svg>
