<svg xmlns="http://www.w3.org/2000/svg" viewBox="0 0 66.35 172.294907" width="66.35" height="172.294907" fill="currentColor" stroke="none">
<g transform="translate(33.175 86.147453)"><g><g><path d="M -18.125 -25.624999999999993 l 34.95 0 l 10 -10 l -50 0 l -10 10 l 25 25 l 0 35 l 10 -10 l 0 -30.05 l -19.95 -19.95 z"></path><g><path d="M 24.525 -35.62499999999999 l -13.35 0 q 4.7 5.2 -4.8 10 l 10.45 0 l 16.35 -16.35 q -3.25 -11.35 -12.55 -12.3 q -0.8 -0.1 -1.7 -0.1 q -0.6 0 -1.2 0.05 q 6.7 3.4 6.8 18.7 z"></path></g><g><path d="M -8.175 54.37500000000001 l 10 -10 l 0 -20 q -7.3 -5 -10 10 l 0 20 z"></path></g></g></g></g>
</svg>
