<svg xmlns="http://www.w3.org/2000/svg" viewBox="0 0 98.15 172.294907" width="98.15" height="172.294907" fill="currentColor" stroke="none">
<g transform="translate(49.075 86.147453)"><g><g><path d="M -39.175 -42.525000000000006 l -9.9 9.95 l 47.35 58.35 l 0.05 0 l 1.4 1.75 l 7.5 -7.5 l -42.7 -52.55 l 52.05 0 l 10 -10 l -65.75 0 z"></path><g><path d="M 49.075 -35.025000000000006 l -1.2 -1.2 l -7.5 7.5 l -13.8 -13.8 q -8.65 2.75 -10 10 l 5 0 l 12.5 12.5 l 15 -15 z"></path></g><g><path d="M 19.72500000000001 17.525000000000006 l -15 0 q -7 -2.95 -7.6 0 q -1.65 2.7 2.6 10 l 10 0 l 0 15 l 10 -10 l 0 -15 z"></path></g></g></g></g>
</svg>
