<svg xmlns="http://www.w3.org/2000/svg" viewBox="0 0 509.45 141.3" width="509.45" height="141.3" fill="currentColor" stroke="none">
<g transform="translate(254.725 70.65)"><g><g><path d="M -247.22500000000002 -50.650000000000006 l -7.5 7.5 57.5 62.5 7.5 -7.5 -57.5 -62.5 z"></path></g><g><path d="M -154.72500000000002 -50.650000000000006 l -10 10 l 0 35 l 19.95 0 l -24.95 25 l 40 0 l 10 -10 l -37.6 0 l 24.85 -25 l -22.25 0 l 0 -35 z"></path><g><path d="M -154.72500000000002 -50.650000000000006 l -15 0 l 0 -15 l -10 10 l 0 15 l 15 0 l 0 10 q 3.85 -7.75 10 -5 l 0 -15 z"></path></g><g><path d="M -119.72500000000002 9.349999999999994 l -15 0 q 2.75 6.15 -5 10 l 10 0 l 0 12.6 l -7.5 7.5 l 1.2 1.2 l 16.3 -16.3 l 0 -15 z"></path></g><path d="M -157.32500000000002 60.650000000000006 l 8.8 -8.8 l -1.2 -1.2 l -20 20 l 30 0 l 10 -10 l -27.6 0 z"></path></g><g><path d="M -99.72500000000002 -50.650000000000006 l -10 10 l 0 60 l 10 -10 l 0 -50 l 30 0 l 10 -10 l -40 0 z"></path><path d="M -74.72500000000002 39.349999999999994 l 10 -10 l -30 0 l -10 10 l 30 0 z"></path></g><g><path d="M -21.775000000000034 -65.65 l -7.5 7.5 l 21.65 27.5 l 7.45 -7.5 l -21.6 -27.5 z"></path><path d="M -39.72500000000002 -20.650000000000006 l -10 10 l 50 0 l 10 -10 l -50 0 z"></path></g><g><path d="M 30.274999999999977 -50.650000000000006 l -10 10 l 0 60 l 10 -10 l 0 -60 z"></path><g><path d="M 20.274999999999977 4.349999999999994 l 0 15 l 15 0 l 10 -10 l -15 0 l 0 -10 q -3.874 7.753 -10 5 z"></path></g></g><g><path d="M 105.27499999999998 -40.650000000000006 l 10 -10 l -50 0 l -10 10 l 0 30 l 30 0 l 0 30 l 10 -10 l 0 -30 l -30 0 l 0 -20 l 40 0 z"></path><path d="M 95.27499999999998 -60.650000000000006 l 10 -10 l -30 0 l -10 10 l 30 0 z"></path></g><g><path d="M 177.77499999999998 19.349999999999994 l 7.5 -7.5 -26.9 -26.9 7.45 -7.55 -28.05 -28.05 -7.5 7.5 26.9 26.9 -7.5 7.5 28.1 28.1 z"></path><path d="M 135.27499999999998 1.8499999999999943 l -10 10 l 0 25 l 10 -10 l 0 -25 z"></path><path d="M 142.77499999999998 36.849999999999994 l 7.5 7.5 l 7.5 -7.5 l -7.5 -7.5 l -7.5 7.5 z"></path></g><g><path d="M 254.675 -50.650000000000006 l -50 0 l -9.4 9.4 l 23.2 33.05 l 6.2 -6.25 l 0 33.8 l 10 -10 l 0 -36.15 l -1.1 1.1 q -2.967 2.977 -5.95 5.95 l -1.95 2 l -0.65 0.65 l -16.5 -23.5 l 36.2 0 l 10 -10 z"></path><g><path d="M 234.675 26.949999999999996 l 0 -17.6 q -7.3 -5 -10 10 l 0 20 l 17.5 -17.5 l -1.2 -1.2 l -6.3 6.3 z"></path></g></g></g></g>
</svg>
