<svg xmlns="http://www.w3.org/2000/svg" viewBox="0 0 657 160.1" width="657" height="160.1" fill="currentColor" stroke="none">
<g transform="translate(328.5 80.05)"><g><g><path d="M -263.85 36.250000000000014 l 7.5 -7.5 -26.9 -26.9 7.45 -7.55 -28.05 -28.05 -7.5 7.5 26.9 26.9 -7.5 7.5 28.1 28.1 z"></path><path d="M -306.35 -31.249999999999986 l -5 5 l -10 -10 l -7.15 7.15 l 11.3 11.2 l 7 -7.1 l 1 -1 q 3.183 1.742 3.85 0 q 0.916 -1.293 0 -6.25 z"></path><path d="M -316.35 16.250000000000014 l 20 20 l 7.5 -7.5 l -20 -20 l -7.5 7.5 z"></path></g><g><path d="M -238.85 -33.749999999999986 l -7.5 7.5 l 31.25 31.25 l -31.25 31.25 l 40 0 l 10 -10 l -37.6 0 l 27.5 -27.6 l -32.4 -32.4 z"></path><path d="M -228.85 -51.249999999999986 l 7.5 7.5 l 7.5 -7.5 l -7.5 -7.5 l -7.5 7.5 z"></path></g><g><path d="M -140.5 36.250000000000014 l 10 -10 l 0 -50 l 10 -10 l -45 0 l -10 10 l 42.6 0 l -7.6 7.6 l 0 42.4 l -30 0 l -10 10 l 40 0 z"></path><g><path d="M -175.5 -23.749999999999986 l 15 0 q -2.75 -6.15 5 -10 l -10 0 l 0 -12.6 l 7.5 -7.5 l -1.2 -1.2 l -16.3 16.3 l 0 15 z"></path></g><g><path d="M -170.5 36.250000000000014 q -2.55 -4.45 5 -10 l -5 0 l -15.85 15.9 l 13 12.9 l 7 -7 l -11.8 -11.8 l 7.65 0 z"></path></g><path d="M -160.925 -72.55 l 7.5 7.5 l 7.5 -7.5 l -7.5 -7.5 l -7.5 7.5 z"></path><path d="M -160.925 72.55 l 7.5 7.5 l 7.5 -7.5 l -7.5 -7.5 l -7.5 7.5 z"></path></g><g><path d="M -90.5 -9.899999999999986 l -10 10 l 0 -33.85 l -10 10 l 0 36.2 l 10 -9.95 l 0 33.75 l 10 -10 l 0 -36.15 z"></path><g><path d="M -90.5 43.850000000000016 l 0 -17.6 q -7.3 -5 -10 10 l 0 20 l 17.5 -17.5 l -1.2 -1.2 l -6.3 6.3 z"></path></g></g><g><path d="M -25.5 36.250000000000014 l 7.5 -7.5 -26.9 -26.9 7.45 -7.55 -28.05 -28.05 -7.5 7.5 26.9 26.9 -7.5 7.5 28.1 28.1 z"></path><path d="M -43 56.250000000000014 l 10 -10 l -30 0 l -10 10 l 30 0 z"></path></g><g><path d="M 51.400000000000034 -33.749999999999986 l -50 0 l -9.4 9.4 l 23.2 33.05 l 6.2 -6.25 l 0 33.8 l 10 -10 l 0 -36.15 l -1.1 1.1 q -2.967 2.977 -5.95 5.95 l -1.95 2 l -0.65 0.65 l -16.5 -23.5 l 36.2 0 l 10 -10 z"></path><g><path d="M 37.80000000000001 -33.749999999999986 q 2.585 3.848 -6.35 10 l 7.65 0 l -6.3 6.35 q 5.6 10.2 27.5 9.85 q -16.25 -5.4 -18.85 -16.2 l 10 -10 l -13.65 0 z"></path></g><g><path d="M 51.400000000000034 36.250000000000014 l -15 0 l 10 -10 l -15 0 l 0 -10 q -3.85 7.75 -10 5 l 0 15 l 12.55 0 l -9.95 10 l 17.4 0 l 10 -10 z"></path></g></g><g><path d="M 102.84999999999997 -33.749999999999986 l -7.5 7.5 57.5 62.5 7.5 -7.5 -57.5 -62.5 z"></path><path d="M 95.34999999999997 -26.249999999999986 l -15.05 0 l -10 10 l 17.45 0 l 8.75 -8.8 q 6.9 0.2 3.8 -6.15 l -4.95 4.95 z"></path><path d="M 150.24999999999994 26.250000000000014 q -1.655 2.716 2.6 10 l 15 0 l 10 -10 l -20 0 q -7.015 -2.931 -7.6 0 z"></path><path d="M 155.45 -23.749999999999986 l -8.8 8.8 l 1.2 1.2 l 20 -20 l -30 0 l -10 10 l 27.6 0 z"></path><path d="M 114.09999999999997 -63.749999999999986 l 20 20 l 7.5 -7.5 l -20 -20 l -7.5 7.5 z"></path></g><g><path d="M 242.85000000000002 -33.72499999999999 l -10 10 l 0 20 l -35 0 l -10 10 l 29.95 29.95 l 7.5 -7.5 l -22.45 -22.45 l 30 0 l 10 -10 l 0 -30 z"></path><g><path d="M 224.10000000000002 27.524999999999995 q -6.486 -1.216 -4.75 5 q 2.924 -3.894 5.95 -3.8 l 8.8 -8.8 l 0 -15 l -10 10 l 0 12.6 z"></path></g></g><g><path d="M 262.85 26.175000000000015 l -10 10 l 65.75 0 l 9.9 -9.95 l -30.45 -37.55 l -7.25 7.3 l -24.15 -29.65 l -7.45 7.4 l 25.2 31.05 l 7.5 -7.45 l 23.1 28.85 l -52.15 0 z"></path><path d="M 283.17500000000007 53.67500000000001 l 7.5 7.5 l 7.5 -7.5 l -7.5 -7.5 l -7.5 7.5 z"></path></g></g></g>
</svg>
