<svg xmlns="http://www.w3.org/2000/svg" viewBox="0 0 110.65 105.05" width="110.65" height="105.05" fill="currentColor" stroke="none">
<g transform="translate(55.325 52.525)"><g><g><path d="M -45.325 -32.50000000000001 l -10 10 l 0 60 l 10 -10 l 0 -60 z"></path><g><path d="M -55.325 22.499999999999993 l 0 15 l 15 0 l 10 -10 l -15 0 l 0 -10 q -3.874 7.753 -10 5 z"></path></g></g><g><path d="M -10.424999999999997 -32.525000000000006 l -9.9 9.95 l 47.35 58.35 l 0.05 0 l 1.4 1.75 l 7.5 -7.5 l -42.7 -52.55 l 52.05 0 l 10 -10 l -65.75 0 z"></path><g><path d="M 43.47500000000001 52.525000000000006 l 7.5 -7.5 l -15 -15 q -6.8 0.5 -7.5 7.5 l 15 15 z"></path></g><path d="M 27.5 -42.525000000000006 l 10 -10 l -30 0 l -10 10 l 30 0 z"></path></g></g></g>
</svg>
