<svg xmlns="http://www.w3.org/2000/svg" viewBox="0 0 133.711304 108.7" width="133.711304" height="108.7" fill="currentColor" stroke="none">
<g transform="translate(66.855002 54.35)"><g><g><path d="M -56.855001736052486 -25.65 l -10 10 l 0 60 l 10 -10 l 0 -60 z"></path><g><path d="M -66.85500173605249 29.35 l 0 15 l 10 -10 l 0 20 l 10 -9.9 l 0 -22.4 l -10 9.95 l 0 -5.15 q -5 6.1 -10 2.5 z"></path></g></g><g><path d="M -26.855001736052486 -25.65 l -10 10 l 0 60 l 10 -10 l 0 -50 l 30 0 l 10 -10 l -40 0 z"></path><g><path d="M -6.855001736052486 -15.649999999999999 l 10 0 l 17.5 -17.5 l -1.2 -1.2 l -8.7 8.7 l -7.6 0 q 0.83 5.4 -10 10 z"></path></g><g><path d="M -27.205001736052488 32.25 q -0.375 0.363 -1.15 1.15 q -6.261 1.099 -8.5 -3.8 l 0 14.75 l 10 -10 l 10 10 l 7.15 -7.15 l -11.3 -11.2 l -5.85 5.9 q -0.04 0.029 -0.35 0.35 z"></path></g><path d="M 1.8949982639475138 -44.35 l 10 -10 l -30 0 l -10 10 l 30 0 z"></path></g><g><path d="M 50.644998263947514 -1.799999999999999 l -10 10 l 0 -33.85 l -10 10 l 0 36.2 l 10 -9.95 l 0 33.75 l 10 -10 l 0 -36.15 z"></path><g><path d="M 40.644998263947514 -45.65 l -10 10 l 0 20 q 7.3 5 10 -10 l 0 -20 z"></path></g><g><path d="M 40.644998263947514 28.700000000000003 l 0 15.65 l 10 -10.05 q 10.8 2.6 16.2 18.85 q 0.35 -21.9 -9.85 -27.5 l -6.35 6.35 l 0 -8.1 q -4.8 9.5 -10 4.8 z"></path></g></g></g></g>
</svg>
