<svg xmlns="http://www.w3.org/2000/svg" viewBox="0 0 77.65 172.294907" width="77.65" height="172.294907" fill="currentColor" stroke="none">
<g transform="translate(38.825 86.147453)"><g><g><path d="M -23.775 -21.25 l 34.95 0 l 10 -10 l -50 0 l -10 10 l 25 25 l 0 35 l 10 -10 l 0 -30.05 l -19.95 -19.95 z"></path><g><path d="M 26.324999999999996 -38.75 l -7.5 7.5 l -11.1 0 q 3.05 5.25 -1.5 10 l 5 0 l 8.8 -8.85 q 0.445 14.232 18.8 18.85 q -12.993 -10.704 -12.45 -27.5 z"></path></g><g><path d="M -3.875 26.35 l 0.05 -5.05 q -4.6 6.3 -10 4 l 0 13.45 l 9.95 -10 l 12.65 0 l -7.5 7.5 l 1.2 1.2 l 18.7 -18.7 l -17.45 0 l -7.6 7.6 z"></path></g></g></g></g>
</svg>
