<svg xmlns="http://www.w3.org/2000/svg" viewBox="0 0 50.15 172.294907" width="50.15" height="172.294907" fill="currentColor" stroke="none">
<g transform="translate(25.075 86.147453)"><g><g><path d="M -15.075 -17.125 l -10 10 l 29.85 29.85 l 7.5 -7.5 l -22.35 -22.35 l 20 0 l 15 -15 l -25.6 -25.6 l -7.5 7.5 l 23.1 23.1 l -30 0 z"></path><g><path d="M 0.22500000000000142 -46.125 l 11.2 -11.3 l -22.4 0 l -10 10.1 l 19.9 0 l -7.1 7.1 q 10.446 1.157 8.4 -5.9 z"></path></g><g><path d="M 3.875 21.125 l -11.2 11.3 l 22.4 0 l 10 -10.1 l -19.9 0 l 7.1 -7.1 q -10.446 -1.157 -8.4 5.9 z"></path></g><path d="M -7.5 49.925 l 7.5 7.5 l 7.5 -7.5 l -7.5 -7.5 l -7.5 7.5 z"></path></g></g></g>
</svg>
