<svg xmlns="http://www.w3.org/2000/svg" viewBox="0 0 43.7 172.294907" width="43.7" height="172.294907" fill="currentColor" stroke="none">
<g transform="translate(21.85 86.147453)"><g><g><path d="M 14.350000000000001 -16.75 l -10 10 l 0 -33.85 l -10 10 l 0 36.2 l 10 -9.95 l 0 33.75 l 10 -10 l 0 -36.15 z"></path><g><path d="M 4.349999999999998 -24.950000000000003 l 0 -15.65 l -10 10.05 q -10.8 -2.6 -16.2 -18.85 q -0.35 21.9 9.85 27.5 l 6.35 -6.35 l 0 8.1 q 4.8 -9.5 10 -4.8 z"></path></g><g><path d="M 14.350000000000001 37 l 0 -17.6 q -7.3 -5 -10 10 l 0 20 l 17.5 -17.5 l -1.2 -1.2 l -6.3 6.3 z"></path></g></g></g></g>
</svg>
