<svg xmlns="http://www.w3.org/2000/svg" viewBox="0 0 254.7 107.6" width="254.7" height="107.6" fill="currentColor" stroke="none">
<g transform="translate(127.35 53.8)"><g><g><path d="M -119.84999999999998 -36.2 l -7.5 7.5 57.5 62.5 7.5 -7.5 -57.5 -62.5 z"></path><path d="M -92.34999999999998 53.8 l 10 -10 l -30 0 l -10 10 l 30 0 z"></path></g><g><path d="M -32.34999999999998 -36.2 l -10 10 l 0 60 l 40 0 l 10 -10 l -40 0 l 0 -60 z"></path><g><path d="M -32.34999999999998 -33.800000000000004 l 7.5 -7.55 q -16.8 0.55 -27.5 -12.45 q 4.6 18.35 18.85 18.8 l -8.85 8.8 l 0 5 q 4.75 -4.55 10 -1.5 l 0 -11.1 z"></path></g><g><path d="M -6.899999999999977 33.8 l 4.55 0 l 8.8 -8.8 l 10 10 l 7.15 -7.15 l -11.3 -11.2 l -7.05 7.15 l -6.3 0 q 3.7 5 -5.85 10 z"></path></g></g><g><path d="M 53.60000000000001 -12.350000000000003 l -10 10 l 0 -33.85 l -10 10 l 0 36.2 l 10 -9.95 l 0 33.75 l 10 -10 l 0 -36.15 z"></path><g><path d="M 43.60000000000001 53.8 l 10 -10 l 0 -20 q -7.3 -5 -10 10 l 0 20 z"></path></g></g><g><path d="M 107.35000000000001 -46.2 l -7.5 7.5 l 12.5 12.5 l -25 0 l -17.5 17.5 l 1.2 1.2 l 8.7 -8.7 l 37.6 0 l 10 -10 l -20 -20 z"></path><path d="M 73.60000000000001 -6.200000000000003 l -10 10 l 50 0 l 10 -10 l -50 0 z"></path></g></g></g>
</svg>
