<svg xmlns="http://www.w3.org/2000/svg" viewBox="0 0 122.4 100" width="122.4" height="100" fill="currentColor" stroke="none">
<g transform="translate(61.2 50)"><g><g><path d="M -38.800000000000004 -30 l -10 10 l 0 60 l 10 -10 l 0 -60 z"></path><g><path d="M -61.2 50 l 22.4 0 l 10 -10.1 l -19.9 0 l -0.1 0.1 l 0 -0.1 l 0.05 0 l 9.95 -9.9 l 0 -5 q -5 5.774 -10 5 l 0 7.55 l -12.4 12.4 z"></path></g></g><g><path d="M -3.8000000000000043 -30 l -10 10 l 0 35 l 19.95 0 l -24.95 25 l 40 0 l 10 -10 l -37.6 0 l 24.85 -25 l -22.25 0 l 0 -35 z"></path><path d="M 16.200000000000003 -40 l 10 -10 l -30 0 l -10 10 l 30 0 z"></path></g><g><path d="M 61.2 -30 l -10 10 l 0 60 l 10 -10 l 0 -60 z"></path><g><path d="M 61.2 -15 l 0 -15 l -10 10 l 0 -20 l -10 9.9 l 0 22.4 l 10 -9.95 l 0 5.15 q 5 -6.1 10 -2.5 z"></path></g></g></g></g>
</svg>
