<svg xmlns="http://www.w3.org/2000/svg" viewBox="0 0 567.95 151.375" width="567.95" height="151.375" fill="currentColor" stroke="none">
<g transform="translate(283.975 75.6875)"><g><g><path d="M -268.975 -55.6875 l -7.5 7.5 57.5 62.5 7.5 -7.5 -57.5 -62.5 z"></path><path d="M -270.07500000000005 -52.6375 q -3.28 1.825 -6.4 4.45 l -7.5 7.5 l 1.2 1.2 l 7.5 -7.5 q 4.106 1.688 4.55 0.35 q 0.6 -1.45 0.65 -6 z"></path><path d="M -221.57500000000002 4.3125 q -1.655 2.716 2.6 10 l 15 0 l 10 -10 l -20 0 q -7.015 -2.931 -7.6 0 z"></path></g><g><path d="M -124.57500000000005 -55.6875 l -50 0 l -9.4 9.4 l 23.2 33.05 l 6.2 -6.25 l 0 33.8 l 10 -10 l 0 -36.15 l -1.1 1.1 q -2.967 2.977 -5.95 5.95 l -1.95 2 l -0.65 0.65 l -16.5 -23.5 l 36.2 0 l 10 -10 z"></path><g><path d="M -144.57500000000005 21.9125 l 0 -17.6 q -7.3 -5 -10 10 l 0 20 l 17.5 -17.5 l -1.2 -1.2 l -6.3 6.3 z"></path></g></g><g><path d="M -81.97500000000002 14.287500000000001 l 10 -10 l 0 -20 l 35 0 l 10 -10 l -29.95 -29.95 l -7.5 7.5 l 22.45 22.45 l -30 0 l -10 10 l 0 30 z"></path><g><path d="M -71.97500000000002 4.2875000000000085 l 0 -7.3 q -4.546 5.888 -10 3.05 l 0 11.95 l -15.05 0 l -17.5 17.5 l 1.2 1.2 l 8.7 -8.7 l 15 0 l 17.65 -17.7 z"></path></g><path d="M -80.75000000000003 50.687500000000014 l 0 25 l 20 -20 l -1.2 -1.2 l -8.8 8.8 l 0 -22.6 l -10 10 z"></path></g><g><path d="M -6.975000000000023 -55.6875 l -10 10 l 0 60 l 10 -10 l 0 -60 z"></path><g><path d="M -16.975000000000023 -0.6875 l 0 15 l 15 0 l 10 -10 l -15 0 l 0 -10 q -3.874 7.753 -10 5 z"></path></g></g><g><path d="M 28.024999999999977 -55.6875 l -10 10 l 0 60 l 10 -10 l 0 -50 l 30 0 l 10 -10 l -40 0 z"></path><g><path d="M 28.024999999999977 21.9125 l 0 -17.6 q -7.3 -5 -10 10 l 0 20 l 17.5 -17.5 l -1.2 -1.2 l -6.3 6.3 z"></path></g><path d="M 53.02499999999998 -65.6875 l 10 -10 l -30 0 l -10 10 l 30 0 z"></path></g><g><path d="M 106.02499999999998 -12.5875 l 7.45 -7.5 27.05 34.4 7.5 -7.5 -27.8 -36 -7.75 7.8 -26.95 -34.3 -7.5 7.5 28 35.6 z"></path><path d="M 115.52499999999998 34.3125 l 10 -10 l -30 0 l -10 10 l 30 0 z"></path></g><g><path d="M 218.02499999999998 -55.7375 l -50 0 l -10 10 l 0 27 l 33.1 33.1 l 7.5 -7.5 l -30.6 -30.6 l 0 -22 l 40 0 l 10 -10 z"></path><g><path d="M 203.47499999999997 -45.7375 l 4.55 0 l 8.8 -8.8 l 10 10 l 7.15 -7.15 l -11.3 -11.2 l -7.05 7.15 l -6.3 0 q 3.7 5 -5.85 10 z"></path></g><g><path d="M 190.22499999999997 12.762499999999996 l -11.2 11.3 l 22.4 0 l 10 -10.1 l -19.9 0 l 7.1 -7.1 q -10.446 -1.157 -8.4 5.9 z"></path></g></g><g><path d="M 263.975 -31.8375 l -10 10 l 0 -33.85 l -10 10 l 0 36.2 l 10 -9.95 l 0 33.75 l 10 -10 l 0 -36.15 z"></path><g><path d="M 283.975 14.3125 l -15 0 l 10 -10 l -15 0 l 0 -10 q -3.85 7.75 -10 5 l 0 15 l 12.55 0 l -9.95 10 l 17.4 0 l 10 -10 z"></path></g></g></g></g>
</svg>
