<svg xmlns="http://www.w3.org/2000/svg" viewBox="0 0 56.35 172.294907" width="56.35" height="172.294907" fill="currentColor" stroke="none">
<g transform="translate(28.175 86.147453)"><g><g><path d="M -18.175 -50 l -10 10 l 0 60 l 40 0 l 10 -10 l -40 0 l 0 -60 z"></path><g><path d="M 19.525000000000002 10 l -13.35 0 q 4.7 5.2 -4.8 10 l 10.45 0 l 16.35 -16.35 q -3.25 -11.35 -12.55 -12.3 q -0.8 -0.1 -1.7 -0.1 q -0.6 0 -1.2 0.05 q 6.7 3.4 6.8 18.7 z"></path></g><path d="M -7.600000000000001 40 l 8.8 -8.8 l -1.2 -1.2 l -20 20 l 30 0 l 10 -10 l -27.6 0 z"></path></g></g></g>
</svg>
