<svg xmlns="http://www.w3.org/2000/svg" viewBox="0 0 290.15 137.5" width="290.15" height="137.5" fill="currentColor" stroke="none">
<g transform="translate(145.075 68.75)"><g><g><path d="M -108.27499999999999 11.85 l 7.45 -7.5 27.05 34.4 7.5 -7.5 -27.8 -36 -7.75 7.8 -26.95 -34.3 -7.5 7.5 28 35.6 z"></path><path d="M -135.075 -22.55 q 4.2 0.65 6.3 -2.7 q 0.8 -1 0 -6 l -6.3 6.3 l 0 -19.95 l -10 10.1 l 0 22.35 l 10 -10.1 z"></path><path d="M -133.77499999999998 18.75 l 20 20 l 7.5 -7.5 l -20 -20 l -7.5 7.5 z"></path><path d="M -73.67499999999998 -21.25 l -8.8 8.8 l 1.2 1.2 l 20 -20 l -30 0 l -10 10 l 27.6 0 z"></path><path d="M -115.02499999999999 -61.25 l 20 20 l 7.5 -7.5 l -20 -20 l -7.5 7.5 z"></path></g><g><path d="M -43.77499999999999 -31.25 l -7.5 7.5 l 31.25 31.25 l -31.25 31.25 l 40 0 l 10 -10 l -37.6 0 l 27.5 -27.6 l -32.4 -32.4 z"></path></g><g><path d="M 36.72500000000002 11.85 l 7.45 -7.5 27.05 34.4 7.5 -7.5 -27.8 -36 -7.75 7.8 -26.95 -34.3 -7.5 7.5 28 35.6 z"></path></g><g><path d="M 98.72500000000002 -31.25 l -10 10 l 0 60 l 40 0 l 10 -10 l -40 0 l 0 -60 z"></path><g><path d="M 136.425 28.75 l -13.35 0 q 4.7 5.2 -4.8 10 l 10.45 0 l 16.35 -16.35 q -3.25 -11.35 -12.55 -12.3 q -0.8 -0.1 -1.7 -0.1 q -0.6 0 -1.2 0.05 q 6.7 3.4 6.8 18.7 z"></path></g><path d="M 109.30000000000001 58.75 l 8.8 -8.8 l -1.2 -1.2 l -20 20 l 30 0 l 10 -10 l -27.6 0 z"></path></g></g></g>
</svg>
