<svg xmlns="http://www.w3.org/2000/svg" viewBox="0 0 54.3 172.294907" width="54.3" height="172.294907" fill="currentColor" stroke="none">
<g transform="translate(27.15 86.147453)"><g><g><path d="M -9.649999999999999 -44.400000000000006 l -10 10 l 0 35 l 26.3 0 l 8.7 -8.75 l 0 33.75 l 10 -10 l 0 -36.15 l -11.15 11.15 l -23.85 0 l 0 -35 z"></path><g><path d="M -19.65 -23.200000000000006 q 5 -12.14 10 -11.2 l 0 -10 l -17.5 17.5 l 1.2 1.2 l 6.3 -6.3 l 0 8.8 z"></path></g><g><path d="M 27.15 37.39999999999999 l -11.8 -11.8 l 10 -10 l 0 -5 q -5.188 7.964 -10 5 l 0 7.7 l -8.2 8.2 l 13 12.9 l 7 -7 z"></path></g></g></g></g>
</svg>
