<svg xmlns="http://www.w3.org/2000/svg" viewBox="0 0 648.15 152.5" width="648.15" height="152.5" fill="currentColor" stroke="none">
<g transform="translate(324.075 76.25)"><g><g><path d="M -296.075 4.35 l 7.45 -7.5 27.05 34.4 7.5 -7.5 -27.8 -36 -7.75 7.8 -26.95 -34.3 -7.5 7.5 28 35.6 z"></path><path d="M -257.125 24.85 q -1.825 3.28 -4.45 6.4 l -7.5 7.5 l -1.2 -1.2 l 7.5 -7.5 q -1.688 -4.106 -0.35 -4.55 q 1.45 -0.6 6 -0.65 z"></path><path d="M -279.075 -48.75 l 10 -10 l -30 0 l -10 10 l 30 0 z"></path></g><g><path d="M -229.075 -38.75 l -10 10 l 0 35 l 19.95 0 l -24.95 25 l 40 0 l 10 -10 l -37.6 0 l 24.85 -25 l -22.25 0 l 0 -35 z"></path><path d="M -226.575 -56.25 l 7.5 7.5 l 7.5 -7.5 l -7.5 -7.5 l -7.5 7.5 z"></path><path d="M -211.475 51.25 l -8.8 8.8 l 1.2 1.2 l 20 -20 l -30 0 l -10 10 l 27.6 0 z"></path></g><g><path d="M -176.575 -38.75 l -7.5 7.5 57.5 62.5 7.5 -7.5 -57.5 -62.5 z"></path></g><g><path d="M -99.17500000000001 -38.775 l -9.9 9.95 l 47.35 58.35 l 0.05 0 l 1.4 1.75 l 7.5 -7.5 l -42.7 -52.55 l 52.05 0 l 10 -10 l -65.75 0 z"></path><g><path d="M -55.82499999999999 -18.775 l 22.4 0 l 17.5 -17.5 l -1.2 -1.2 l -8.7 8.7 l -17.6 0 l 10 -10 l -12.65 0 q 5.5 3.45 -5.3 10 l 5.5 0 l -9.95 10 z"></path></g><g><path d="M -36.57499999999999 42.625000000000014 q 0.35 -21.9 -9.85 -27.5 l -6.3 6.35 l -2 2 q -8.054 -2.82 -4.35 6.65 l 6.3 -6.35 q 10.8 2.6 16.2 18.85 z"></path></g><path d="M -70.1 62.625000000000014 l 8.8 -8.8 l -1.2 -1.2 l -20 20 l 30 0 l 10 -10 l -27.6 0 z"></path></g><g><path d="M 5.699999999999989 -37.55 l 7.35 -7.35 l 20.6 26.15 l 10 0 l 10 -10 l -14.55 0 l -19.6 -25 l -15 15 l 1.2 1.2 z"></path><path d="M 4.074999999999989 -8.75 l -10 10 l 50 0 l 10 -10 l -50 0 z"></path></g><g><path d="M 79.07499999999999 -38.75 l -7.5 7.5 57.5 62.5 7.5 -7.5 -57.5 -62.5 z"></path><path d="M 80.22499999999997 -37.6 l 15.05 0 l 10 -10 l -17.45 0 l -8.75 8.85 q -1.75 3.2 -4.85 7.2 q 5.7 0.35 6 -6.05 z"></path><path d="M 126.47499999999997 21.25 q -1.655 2.716 2.6 10 l 15 0 l 10 -10 l -20 0 q -7.015 -2.931 -7.6 0 z"></path><path d="M 94.07499999999999 31.25 l 10 -10 l -30 0 l -10 10 l 30 0 z"></path><path d="M 90.32499999999999 -68.75 l 20 20 l 7.5 -7.5 l -20 -20 l -7.5 7.5 z"></path></g><g><path d="M 175.325 -38.75 l -10 10 l 0 30 l 30 30 l 7.5 -7.5 l -27.5 -27.5 l 0 -35 z"></path><path d="M 194.075 51.25 l 10 -10 l -30 0 l -10 10 l 30 0 z"></path></g><g><path d="M 249.075 31.25 l 10 -10 l 0 -35 l -19.95 0 l 24.95 -25 l -40 0 l -10 10 l 37.6 0 l -24.85 25 l 22.25 0 l 0 35 z"></path><path d="M 231.575 -56.25 l 7.5 7.5 l 7.5 -7.5 l -7.5 -7.5 l -7.5 7.5 z"></path><path d="M 229.075 51.25 l 0 25 l 20 -20 l -1.2 -1.2 l -8.8 8.8 l 0 -22.6 l -10 10 z"></path></g><g><path d="M 314.075 31.25 l 10 -10 l 0 -36.3 l -10 10.05 l 0 -33.75 l -10 10 l 0 36.15 l 10 -10 l 0 23.85 l -30 0 l -10 10 l 40 0 z"></path><path d="M 291.575 -56.25 l 7.5 7.5 l 7.5 -7.5 l -7.5 -7.5 l -7.5 7.5 z"></path><path d="M 291.575 48.75 l 7.5 7.5 l 7.5 -7.5 l -7.5 -7.5 l -7.5 7.5 z"></path></g></g></g>
</svg>
