<svg xmlns="http://www.w3.org/2000/svg" viewBox="0 0 191.85 110" width="191.85" height="110" fill="currentColor" stroke="none">
<g transform="translate(95.925 55)"><g><g><path d="M -85.92500000000001 -35 l -10 10 l 0 60 l 10 -10 l 0 -60 z"></path></g><g><path d="M -16.525000000000006 -35 l -50 0 l -9.4 9.4 l 23.2 33.05 l 6.2 -6.25 l 0 33.8 l 10 -10 l 0 -36.15 l -1.1 1.1 q -2.967 2.977 -5.95 5.95 l -1.95 2 l -0.65 0.65 l -16.5 -23.5 l 36.2 0 l 10 -10 z"></path><g><path d="M -36.525000000000006 42.6 l 0 -17.6 q -7.3 -5 -10 10 l 0 20 l 17.5 -17.5 l -1.2 -1.2 l -6.3 6.3 z"></path></g><path d="M -36.20000000000001 -45 l 10 -10 l -30 0 l -10 10 l 30 0 z"></path></g><g><path d="M 15.924999999999983 -35 l -10 10 l 0 60 l 10 -10 l 0 -60 z"></path><g><path d="M -6.475000000000023 45 l 22.4 0 l 10 -10.1 l -19.9 0 l -0.1 0.1 l 0 -0.1 l 0.05 0 l 9.95 -9.9 l 0 -5 q -5 5.774 -10 5 l 0 7.55 l -12.4 12.4 z"></path></g></g><g><path d="M 50.974999999999994 -25 l 34.95 0 l 10 -10 l -50 0 l -10 10 l 25 25 l 0 35 l 10 -10 l 0 -30.05 l -19.95 -19.95 z"></path><path d="M 75.92499999999998 -45 l 10 -10 l -30 0 l -10 10 l 30 0 z"></path></g></g></g>
</svg>
