<svg xmlns="http://www.w3.org/2000/svg" viewBox="0 0 493.65 139.975" width="493.65" height="139.975" fill="currentColor" stroke="none">
<g transform="translate(246.825 69.9875)"><g><g><path d="M -218.825 -1.8874999999999975 l 7.45 -7.5 27.05 34.4 7.5 -7.5 -27.8 -36 -7.75 7.8 -26.95 -34.3 -7.5 7.5 28 35.6 z"></path><path d="M -201.825 -54.9875 l 10 -10 l -30 0 l -10 10 l 30 0 z"></path></g><g><path d="M -151.825 -44.9875 l -10 10 l 0 35 l 19.95 0 l -24.95 25 l 40 0 l 10 -10 l -37.6 0 l 24.85 -25 l -22.25 0 l 0 -35 z"></path></g><g><path d="M -79.125 24.9375 l 10 -10 l 0 -40 l -9.55 9.55 l -20.65 -29.4 l -7.5 7.5 l 21.6 30.85 l 6.1 -6.1 l 0 37.6 z"></path><path d="M -95.475 42.4375 l 7.5 7.5 l 7.5 -7.5 l -7.5 -7.5 l -7.5 7.5 z"></path></g><g><path d="M -59.125 24.987500000000004 l 10 -10 l 0 -20 l 35 0 l 10 -10 l -29.95 -29.95 l -7.5 7.5 l 22.45 22.45 l -30 0 l -10 10 l 0 30 z"></path><path d="M -39.125 -62.46249999999999 l 7.5 7.5 l 7.5 -7.5 l -7.5 -7.5 l -7.5 7.5 z"></path><path d="M -41.625 44.98750000000001 l 0 25 l 20 -20 l -1.2 -1.2 l -8.8 8.8 l 0 -22.6 l -10 10 z"></path></g><g><path d="M 30.524999999999977 -44.9875 l -7.5 7.5 57.5 62.5 7.5 -7.5 -57.5 -62.5 z"></path><path d="M 28.024999999999977 -42.4875 l -5 5 l -10 -10 l -7.15 7.15 l 11.3 11.2 l 7 -7.1 l 1 -1 q 3.183 1.742 3.85 0 q 0.916 -1.293 0 -6.25 z"></path><path d="M 23.024999999999977 5.012500000000003 l 20 20 l 7.5 -7.5 l -20 -20 l -7.5 7.5 z"></path><path d="M 48.02499999999998 -62.4875 l 7.5 7.5 l 7.5 -7.5 l -7.5 -7.5 l -7.5 7.5 z"></path><path d="M 40.52499999999998 42.5125 l 7.5 7.5 l 7.5 -7.5 l -7.5 -7.5 l -7.5 7.5 z"></path></g><g><path d="M 107.92499999999995 -45.012499999999996 l -9.9 9.95 l 47.35 58.35 l 0.05 0 l 1.4 1.75 l 7.5 -7.5 l -42.7 -52.55 l 52.05 0 l 10 -10 l -65.75 0 z"></path><g><path d="M 153.77499999999998 -27.512499999999996 l 1.2 1.2 l 18.7 -18.7 l -10 0 q 0.85 5.4 -10 10 l 7.6 0 l -7.5 7.5 z"></path></g><g><path d="M 154.325 17.537500000000016 q -6.8 0.5 -7.5 7.5 l 15 15 l 15 -15 l -1.2 -1.2 l -7.5 7.5 l -13.8 -13.8 z"></path></g></g><g><path d="M 211.825 -13.687499999999996 l 1.25 1.15 q 15.871 -14.121 3.75 -22.45 l 20 0 l 10 -10 l -40 0 l -10 10 q 24.307 9.097 15 21.3 z"></path><path d="M 196.825 -14.987499999999997 l -10 10 l 50 0 l 10 -10 l -50 0 z"></path></g></g></g>
</svg>
