<svg xmlns="http://www.w3.org/2000/svg" viewBox="0 0 141.3 105.825" width="141.3" height="105.825" fill="currentColor" stroke="none">
<g transform="translate(70.65 52.9125)"><g><g><path d="M -60.650000000000006 -27.0875 l -10 10 l 0 60 l 10 -10 l 0 -60 z"></path><g><path d="M -70.65 27.9125 l 0 15 l 10 -10 l 0 20 l 10 -9.9 l 0 -22.4 l -10 9.95 l 0 -5.15 q -5 6.1 -10 2.5 z"></path></g></g><g><path d="M 14.349999999999994 -27.0625 l -10 10 l 0 20 l -35 0 l -10 10 l 29.95 29.95 l 7.5 -7.5 l -22.45 -22.45 l 30 0 l 10 -10 l 0 -30 z"></path><g><path d="M 4.349999999999994 -17.062500000000007 l 0 5 q 6.25 -9 10 -5 l 0 -7.6 l 11.8 11.7 l 7 -7 l -12.95 -12.95 l -15.85 15.85 z"></path></g><g><path d="M -4.400000000000006 34.187499999999986 q -6.486 -1.216 -4.75 5 q 2.924 -3.894 5.95 -3.8 l 8.8 -8.8 l 0 -15 l -10 10 l 0 12.6 z"></path></g><path d="M 6.25 -42.91250000000001 l 10 -10 l -30 0 l -10 10 l 30 0 z"></path></g><g><path d="M 63.150000000000006 -3.237499999999999 l -10 10 l 0 -33.85 l -10 10 l 0 36.2 l 10 -9.95 l 0 33.75 l 10 -10 l 0 -36.15 z"></path><g><path d="M 63.150000000000006 21.712500000000002 q -5 12.14 -10 11.2 l 0 10 l 17.5 -17.5 l -1.2 -1.2 l -6.3 6.3 l 0 -8.8 z"></path></g></g></g></g>
</svg>
