<svg xmlns="http://www.w3.org/2000/svg" viewBox="0 0 98.15 172.294907" width="98.15" height="172.294907" fill="currentColor" stroke="none">
<g transform="translate(49.075 86.147453)"><g><g><path d="M -39.175 -55.025000000000006 l -9.9 9.95 l 47.35 58.35 l 0.05 0 l 1.4 1.75 l 7.5 -7.5 l -42.7 -52.55 l 52.05 0 l 10 -10 l -65.75 0 z"></path><g><path d="M 49.075 -47.525000000000006 l -1.2 -1.2 l -7.5 7.5 l -13.8 -13.8 q -8.65 2.75 -10 10 l 5 0 l 12.5 12.5 l 15 -15 z"></path></g><g><path d="M 7.225000000000001 7.525000000000006 q -6.8 0.5 -7.5 7.5 l 15 15 l 15 -15 l -1.2 -1.2 l -7.5 7.5 l -13.8 -13.8 z"></path></g><path d="M 10 -65.025 l 10 -10 l -30 0 l -10 10 l 30 0 z"></path><path d="M 10 65.025 l 0 -25 l -20 20 l 1.2 1.2 l 8.8 -8.8 l 0 22.6 l 10 -10 z"></path></g></g></g>
</svg>
