<svg xmlns="http://www.w3.org/2000/svg" viewBox="0 0 482.85 150.05" width="482.85" height="150.05" fill="currentColor" stroke="none">
<g transform="translate(241.425 75.025)"><g><g><path d="M -231.42499999999995 -55.00000000000001 l -10 10 l 0 60 l 10 -10 l 0 -60 z"></path><g><path d="M -231.37499999999994 -52.70000000000001 l 15 0 l 10 -10 l -17.4 0 l -17.65 17.7 l 0 7.3 q 5.4 -4.35 10 -2.75 l 0 -12.25 z"></path></g></g><g><path d="M -169.22499999999997 -55.00000000000001 l -10 10 l 0 35 l 26.3 0 l 8.7 -8.75 l 0 33.75 l 10 -10 l 0 -36.15 l -11.15 11.15 l -23.85 0 l 0 -35 z"></path><g><path d="M -178.87499999999997 -42.900000000000006 q 0.375 -0.363 1.15 -1.15 q 6.261 -1.099 8.5 3.8 l 0 -14.75 l -10 10 l -10 -10 l -7.15 7.15 l 11.3 11.2 l 5.85 -5.9 q 0.04 -0.029 0.35 -0.35 z"></path></g><g><path d="M -134.22499999999997 -6.200000000000006 q -5 12.14 -10 11.2 l 0 10 l 17.5 -17.5 l -1.2 -1.2 l -6.3 6.3 l 0 -8.8 z"></path></g><path d="M -151.54999999999995 -65 l 10 -10 l -30 0 l -10 10 l 30 0 z"></path></g><g><path d="M -96.72499999999997 -31.150000000000006 l -10 10 l 0 -33.85 l -10 10 l 0 36.2 l 10 -9.95 l 0 33.75 l 10 -10 l 0 -36.15 z"></path><g><path d="M -106.72499999999997 -7.105427357601002e-15 l 0 15 l 12.6 0 l -7.5 7.5 l 1.2 1.2 l 18.7 -18.7 l -15 0 l 0 -10 q -3.85 7.75 -10 5 z"></path></g></g><g><path d="M -64.225 -55.00000000000001 l -7.5 7.5 57.5 62.5 7.5 -7.5 -57.5 -62.5 z"></path><path d="M -16.82499999999999 4.999999999999993 q -1.655 2.716 2.6 10 l 15 0 l 10 -10 l -20 0 q -7.015 -2.931 -7.6 0 z"></path><path d="M -71.725 -5.000000000000007 l 20 20 l 7.5 -7.5 l -20 -20 l -7.5 7.5 z"></path><path d="M -54.224999999999994 32.49999999999999 l 7.5 7.5 l 7.5 -7.5 l -7.5 -7.5 l -7.5 7.5 z"></path></g><g><path d="M 60.77499999999998 -15.375000000000007 l 10 -10 l -29.85 -29.85 l -7.5 7.5 l 22.35 22.35 l -20 0 l -15 15 l 25.6 25.6 l 7.5 -7.5 l -23.1 -23.1 l 30 0 z"></path></g><g><path d="M 90.67499999999995 -55.025000000000006 l -9.9 9.95 l 47.35 58.35 l 0.05 0 l 1.4 1.75 l 7.5 -7.5 l -42.7 -52.55 l 52.05 0 l 10 -10 l -65.75 0 z"></path><g><path d="M 178.92499999999995 -47.525000000000006 l -1.2 -1.2 l -7.5 7.5 l -13.8 -13.8 q -8.65 2.75 -10 10 l 5 0 l 12.5 12.5 l 15 -15 z"></path></g><g><path d="M 137.075 7.525000000000006 q -6.8 0.5 -7.5 7.5 l 15 15 l 15 -15 l -1.2 -1.2 l -7.5 7.5 l -13.8 -13.8 z"></path></g><path d="M 139.84999999999997 -65.025 l 10 -10 l -30 0 l -10 10 l 30 0 z"></path><path d="M 139.84999999999997 65.025 l 0 -25 l -20 20 l 1.2 1.2 l 8.8 -8.8 l 0 22.6 l 10 -10 z"></path></g><g><path d="M 233.92499999999995 -31.150000000000006 l -10 10 l 0 -33.85 l -10 10 l 0 36.2 l 10 -9.95 l 0 33.75 l 10 -10 l 0 -36.15 z"></path><g><path d="M 213.92499999999995 -45.00000000000001 l -15 0 l -10 10 l 17.45 0 l 7.6 -7.6 l -0.05 5.05 q 4.6 -6.3 10 -4 l 0 -13.45 l -9.95 10 z"></path></g><g><path d="M 233.92499999999995 22.599999999999994 l 0 -17.6 q -7.3 -5 -10 10 l 0 20 l 17.5 -17.5 l -1.2 -1.2 l -6.3 6.3 z"></path></g></g></g></g>
</svg>
