<svg xmlns="http://www.w3.org/2000/svg" viewBox="0 0 377.75 143.675" width="377.75" height="143.675" fill="currentColor" stroke="none">
<g transform="translate(188.875 71.8375)"><g><g><path d="M -135.825 -8.737500000000006 l 7.45 -7.5 27.05 34.4 7.5 -7.5 -27.8 -36 -7.75 7.8 -26.95 -34.3 -7.5 7.5 28 35.6 z"></path><path d="M -163.825 -44.337500000000006 l -15.05 0 l -10 10 l 17.45 0 l 8.75 -8.8 q 6.9 0.2 3.8 -6.15 l -4.95 4.95 z"></path><path d="M -101.225 -41.837500000000006 l -8.8 8.8 l 1.2 1.2 l 20 -20 l -30 0 l -10 10 l 27.6 0 z"></path><path d="M -118.825 -61.837500000000006 l 10 -10 l -30 0 l -10 10 l 30 0 z"></path></g><g><path d="M -68.82500000000002 -51.7625 l -10 10 l 0 40 l 9.55 -9.55 l 20.65 29.4 l 7.5 -7.5 l -21.6 -30.85 l -6.1 6.1 l 0 -37.6 z"></path></g><g><path d="M -31.125 18.137499999999996 l 10 -10 l 0 -20 l 35 0 l 10 -10 l -29.95 -29.95 l -7.5 7.5 l 22.45 22.45 l -30 0 l -10 10 l 0 30 z"></path><g><path d="M -31.125 3.137500000000003 l 0 15 l 12.6 0 l -7.5 7.5 l 1.2 1.2 l 18.7 -18.7 l -15 0 l 0 -10 q -3.85 7.75 -10 5 z"></path></g><path d="M -13.625 46.837500000000006 l 0 25 l 20 -20 l -1.2 -1.2 l -8.8 8.8 l 0 -22.6 l -10 10 z"></path></g><g><path d="M 43.875 -51.837500000000006 l -10 10 l 0 60 l 10 -10 l 0 -60 z"></path><g><path d="M 33.875 3.1624999999999943 l 0 15 l 15 0 l 10 -10 l -15 0 l 0 -10 q -3.874 7.753 -10 5 z"></path></g></g><g><path d="M 83.875 -51.837500000000006 l -10 10 l 0 35 l 19.95 0 l -24.95 25 l 40 0 l 10 -10 l -37.6 0 l 24.85 -25 l -22.25 0 l 0 -35 z"></path><path d="M 103.875 -61.837500000000006 l 10 -10 l -30 0 l -10 10 l 30 0 z"></path></g><g fill="currentColor"><path d="M 143.925 -41.837500000000006 l 34.95 0 l 10 -10 l -50 0 l -10 10 l 25 25 l 0 35 l 10 -10 l 0 -30.05 l -19.95 -19.95 z"></path><path d="M 168.875 -61.837500000000006 l 10 -10 l -30 0 l -10 10 l 30 0 z"></path><path d="M 151.375 35.662499999999994 l 7.5 7.5 l 7.5 -7.5 l -7.5 -7.5 l -7.5 7.5 z"></path></g></g></g>
</svg>
