<svg xmlns="http://www.w3.org/2000/svg" viewBox="0 0 425.05 158.95" width="425.05" height="158.95" fill="currentColor" stroke="none">
<g transform="translate(212.525 79.475)"><g><g><path d="M -179.97500000000002 -54.550000000000004 l -7.5 7.5 57.5 62.5 7.5 -7.5 -57.5 -62.5 z"></path><path d="M -187.47500000000002 -47.050000000000004 l -15.05 0 l -10 10 l 17.45 0 l 8.75 -8.8 q 6.9 0.2 3.8 -6.15 l -4.95 4.95 z"></path><path d="M -124.97500000000001 -44.550000000000004 l 10 -10 l -30 0 l -10 10 l 30 0 z"></path><path d="M -144.97500000000002 -64.55000000000001 l 10 -10 l -30 0 l -10 10 l 30 0 z"></path></g><g><path d="M -93.82500000000002 -54.475 l -10 10 l 0 40 l 9.55 -9.55 l 20.65 29.4 l 7.5 -7.5 l -21.6 -30.85 l -6.1 6.1 l 0 -37.6 z"></path><path d="M -92.47500000000001 -71.97500000000001 l 7.5 7.5 l 7.5 -7.5 l -7.5 -7.5 l -7.5 7.5 z"></path><path d="M -74.975 35.374999999999986 l 10 -10 l -30 0 l -10 10 l 30 0 z"></path></g><g><path d="M 7.525000000000006 15.449999999999996 l 10 -10 l 0 -60 l -10 10 l 0 50 l -30 0 l -10 10 l 40 0 z"></path><g><path d="M -54.974999999999994 7.949999999999996 l 1.2 1.2 l 7.5 -7.5 l 13.8 13.8 q 8.65 -2.75 10 -10 l -5 0 l -12.5 -12.5 l -15 15 z"></path></g><path d="M -8.724999999999994 50.449999999999996 l 0 -25 l -20 20 l 1.2 1.2 l 8.8 -8.8 l 0 22.6 l 10 -10 z"></path></g><g><path d="M 35.025000000000006 -54.550000000000004 l -7.5 7.5 57.5 62.5 7.5 -7.5 -57.5 -62.5 z"></path><path d="M 45.025000000000006 32.949999999999996 l 7.5 7.5 l 7.5 -7.5 l -7.5 -7.5 l -7.5 7.5 z"></path></g><g><path d="M 112.525 -54.550000000000004 l -10 10 l 0 36.3 l 10 -10.05 l 0 33.75 l 10 -10 l 0 -36.15 l -10 10 l 0 -23.85 l 30 0 l 10 -10 l -40 0 z"></path></g><g fill="currentColor"><path d="M 202.525 -14.925000000000004 l 10 -10 l -29.85 -29.85 l -7.5 7.5 l 22.35 22.35 l -20 0 l -15 15 l 25.6 25.6 l 7.5 -7.5 l -23.1 -23.1 l 30 0 z"></path><g><path d="M 199.92499999999998 27.475 l -11.8 -11.8 l 5 -5 q -7.681 -1.687 -7.1 0.5 l 0.95 3.35 l -7.05 7.05 l 13 12.9 z"></path></g><path d="M 177.525 54.475 l 0 25 l 20 -20 l -1.2 -1.2 l -8.8 8.8 l 0 -22.6 l -10 10 z"></path></g></g></g>
</svg>
