<svg xmlns="http://www.w3.org/2000/svg" viewBox="0 0 78.15 172.294907" width="78.15" height="172.294907" fill="currentColor" stroke="none">
<g transform="translate(39.075 86.147453)"><g><g><path d="M 26.574999999999996 -34.849999999999994 l 10 -10 l -65.75 0 l -9.9 9.95 l 30.45 37.55 l 7.25 -7.3 l 24.15 29.65 l 7.45 -7.4 l -25.2 -31.05 l -7.5 7.45 l -23.1 -28.85 l 52.15 0 z"></path><g><path d="M 16.675000000000004 -27.349999999999994 l 1.2 1.2 l 18.7 -18.7 l -10 0 q 0.85 5.4 -10 10 l 7.6 0 l -7.5 7.5 z"></path></g><g><path d="M 29.074999999999996 36.15 l -7.5 7.5 l 1.2 1.2 l 16.3 -16.3 l 0 -22.35 l -10 10.1 q -4.2 -0.65 -6.3 2.7 q -0.8 1 0 6 l 6.3 -6.3 l 0 17.45 z"></path></g></g></g></g>
</svg>
