<svg xmlns="http://www.w3.org/2000/svg" viewBox="0 0 588.2 123.65" width="588.2" height="123.65" fill="currentColor" stroke="none">
<g transform="translate(294.1 61.825)"><g><g><path d="M -266.1 6.250000000000012 l 7.45 -7.5 27.05 34.4 7.5 -7.5 -27.8 -36 -7.75 7.8 -26.95 -34.3 -7.5 7.5 28 35.6 z"></path><path d="M -249.10000000000002 -46.84999999999999 l 10 -10 l -30 0 l -10 10 l 30 0 z"></path></g><g><path d="M -179.10000000000002 -36.84999999999999 l -10 10 l 0 35 l 26.3 0 l 8.7 -8.75 l 0 33.75 l 10 -10 l 0 -36.15 l -11.15 11.15 l -23.85 0 l 0 -35 z"></path><g><path d="M -189.05 -24.44999999999999 l -0.05 5.05 q 4.6 -6.3 10 -4 l 0 -13.45 l -9.95 10 l -12.65 0 l 7.5 -7.5 l -1.2 -1.2 l -18.7 18.7 l 17.45 0 l 7.6 -7.6 z"></path></g><g><path d="M -144.15000000000003 20.750000000000014 l 0.05 -5.05 q -4.6 6.3 -10 4 l 0 13.45 l 9.95 -10 l 12.65 0 l -7.5 7.5 l 1.2 1.2 l 18.7 -18.7 l -17.45 0 l -7.6 7.6 z"></path></g></g><g><path d="M -66.55000000000001 -12.999999999999988 l -10 10 l 0 -33.85 l -10 10 l 0 36.2 l 10 -9.95 l 0 33.75 l 10 -10 l 0 -36.15 z"></path><g><path d="M -66.55000000000001 23.150000000000013 l 0 -7.3 q -4.546 5.888 -10 3.05 l 0 11.95 l -15.05 0 l -17.5 17.5 l 1.2 1.2 l 8.7 -8.7 l 15 0 l 17.65 -17.7 z"></path></g></g><g><path d="M 31.69999999999999 33.17500000000001 l 9.9 -9.95 l -47.35 -58.35 l -0.05 0 l -1.4 -1.75 l -7.5 7.5 l 42.7 52.55 l -52.05 0 l -10 10 l 65.75 0 z"></path><g><path d="M -11.650000000000034 -30.474999999999994 q 1.825 -3.28 4.45 -6.4 l 7.5 -7.5 l 1.2 1.2 l -7.5 7.5 q 1.688 4.106 0.35 4.55 q -1.45 0.6 -6 0.65 z"></path></g><g><path d="M -56.55000000000001 25.67500000000002 l 1.2 1.2 l 7.5 -7.5 l 13.8 13.8 q 8.65 -2.75 10 -10 l -5 0 l -12.5 -12.5 l -15 15 z"></path></g><path d="M -14.975000000000023 50.67500000000002 l 7.5 7.5 l 7.5 -7.5 l -7.5 -7.5 l -7.5 7.5 z"></path></g><g><path d="M 71.59999999999997 -12.999999999999988 l -10 10 l 0 -33.85 l -10 10 l 0 36.2 l 10 -9.95 l 0 33.75 l 10 -10 l 0 -36.15 z"></path><g><path d="M 71.59999999999997 11.950000000000014 q -5 12.14 -10 11.2 l 0 10 l 17.5 -17.5 l -1.2 -1.2 l -6.3 6.3 l 0 -8.8 z"></path></g></g><g><path d="M 117.09999999999997 6.250000000000012 l 7.45 -7.5 27.05 34.4 7.5 -7.5 -27.8 -36 -7.75 7.8 -26.95 -34.3 -7.5 7.5 28 35.6 z"></path><path d="M 156.04999999999995 26.750000000000014 q -1.825 3.28 -4.45 6.4 l -7.5 7.5 l -1.2 -1.2 l 7.5 -7.5 q -1.688 -4.106 -0.35 -4.55 q 1.45 -0.6 6 -0.65 z"></path><path d="M 134.09999999999997 -46.84999999999999 l 10 -10 l -30 0 l -10 10 l 30 0 z"></path></g><g><path d="M 224.10000000000002 -36.82499999999999 l -10 10 l 0 20 l -35 0 l -10 10 l 29.95 29.95 l 7.5 -7.5 l -22.45 -22.45 l 30 0 l 10 -10 l 0 -30 z"></path><g><path d="M 196.45 23.124999999999993 q -1.65 2.7 2.6 10 l 12.6 0 l -7.5 7.5 l 1.2 1.2 l 18.7 -18.7 l -20 0 q -7 -2.95 -7.6 0 z"></path></g><path d="M 189.09999999999997 -54.324999999999996 l 7.5 7.5 l 7.5 -7.5 l -7.5 -7.5 l -7.5 7.5 z"></path><path d="M 206.59999999999997 61.824999999999996 l 10 -10 l -30 0 l -10 10 l 30 0 z"></path></g><g><path d="M 279.1 -48.149999999999984 l -1.25 -1.15 q -15.871 14.121 -3.75 22.45 l -20 0 l -10 10 l 40 0 l 10 -10 q -24.307 -9.097 -15 -21.3 z"></path><path d="M 244.10000000000002 -6.849999999999987 l -10 10 l 50 0 l 10 -10 l -50 0 z"></path></g></g></g>
</svg>
