<svg xmlns="http://www.w3.org/2000/svg" viewBox="0 0 77.65 172.294907" width="77.65" height="172.294907" fill="currentColor" stroke="none">
<g transform="translate(38.825 86.147453)"><g><g><path d="M -23.775 -46.25 l 34.95 0 l 10 -10 l -50 0 l -10 10 l 25 25 l 0 35 l 10 -10 l 0 -30.05 l -19.95 -19.95 z"></path><g><path d="M 26.324999999999996 -63.75 l -7.5 7.5 l -11.1 0 q 3.05 5.25 -1.5 10 l 5 0 l 8.8 -8.85 q 0.445 14.232 18.8 18.85 q -12.993 -10.704 -12.45 -27.5 z"></path></g><g><path d="M -13.825 33.75 l 10 -10 l 0 -20 q -7.3 -5 -10 10 l 0 20 z"></path></g><path d="M -7.600000000000001 53.75 l 8.8 -8.8 l -1.2 -1.2 l -20 20 l 30 0 l 10 -10 l -27.6 0 z"></path></g></g></g>
</svg>
