<svg xmlns="http://www.w3.org/2000/svg" viewBox="0 0 103.8 172.294907" width="103.8" height="172.294907" fill="currentColor" stroke="none">
<g transform="translate(51.9 86.147453)"><g><g><path d="M -42 -65.025 l -9.9 9.95 l 47.35 58.35 l 0.05 0 l 1.4 1.75 l 7.5 -7.5 l -42.7 -52.55 l 52.05 0 l 10 -10 l -65.75 0 z"></path><path d="M 4.399999999999999 -2.4749999999999943 q -6.8 0.5 -7.5 7.5 l 15 15 l 15 -15 l -1.2 -1.2 l -7.5 7.5 l -13.8 -13.8 z"></path><path d="M -2.5 55.025 l 0 -25 l -20 20 l 1.2 1.2 l 8.8 -8.8 l 0 22.6 l 10 -10 z"></path><path d="M 36.900000000000006 -30.000000000000007 l 7.5 7.5 l 7.5 -7.5 l -7.5 -7.5 l -7.5 7.5 z"></path></g></g></g>
</svg>
