<svg xmlns="http://www.w3.org/2000/svg" viewBox="0 0 83.15 138.75" width="83.15" height="138.75" fill="currentColor" stroke="none">
<g transform="translate(41.575 69.375)"><g><g fill="currentColor"><path d="M -31.675 -35.675000000000004 l -9.9 9.95 l 47.35 58.35 l 0.05 0 l 1.4 1.75 l 7.5 -7.5 l -42.7 -52.55 l 52.05 0 l 10 -10 l -65.75 0 z"></path><g><path d="M 14.075000000000003 -25.675000000000004 l 10 0 l 17.5 -17.5 l -1.2 -1.2 l -8.7 8.7 l -7.6 0 q 0.83 5.4 -10 10 z"></path></g><g><path d="M 14.725000000000001 26.875000000000007 q -6.8 0.5 -7.5 7.5 l 15 15 l 15 -15 l -1.2 -1.2 l -7.5 7.5 l -13.8 -13.8 z"></path></g><path d="M -7.5 -61.87500000000001 l 7.5 7.5 l 7.5 -7.5 l -7.5 -7.5 l -7.5 7.5 z"></path><path d="M 10 69.375 l 10 -10 l -30 0 l -10 10 l 30 0 z"></path></g></g></g>
</svg>
