<svg xmlns="http://www.w3.org/2000/svg" viewBox="0 0 63.2 172.294907" width="63.2" height="172.294907" fill="currentColor" stroke="none">
<g transform="translate(31.6 86.147453)"><g><g><path d="M 23.4 -41.249999999999986 l -10 10 l 0 20 l -35 0 l -10 10 l 29.95 29.95 l 7.5 -7.5 l -22.45 -22.45 l 30 0 l 10 -10 l 0 -30 z"></path><g><path d="M 11.600000000000001 -53.04999999999999 l 11.8 11.8 l -10 10 l 0 5 q 5.188 -7.964 10 -5 l 0 -7.7 l 8.2 -8.2 l -13 -12.9 l -7 7 z"></path></g><g><path d="M -19.150000000000002 58.84999999999999 l 1.2 1.2 l 16.3 -16.3 l 0 -15.05 l 7.5 -7.5 q -11.45 -4.9 -8.7 6.3 l -8.8 8.9 l 0 14.95 l -7.5 7.5 z"></path></g></g></g></g>
</svg>
