<svg xmlns="http://www.w3.org/2000/svg" viewBox="0 0 155.7 138.825" width="155.7" height="138.825" fill="currentColor" stroke="none">
<g transform="translate(77.85 69.4125)"><g><g><path d="M -70.35 -31.912499999999994 l -7.5 7.5 57.5 62.5 7.5 -7.5 -57.5 -62.5 z"></path><path d="M -22.949999999999996 28.087500000000006 q -1.655 2.716 2.6 10 l 15 0 l 10 -10 l -20 0 q -7.015 -2.931 -7.6 0 z"></path><path d="M -67.85 20.587500000000006 l -10 10 l 0 25 l 10 -10 l 0 -25 z"></path><path d="M -59.099999999999994 -61.912499999999994 l 20 20 l 7.5 -7.5 l -20 -20 l -7.5 7.5 z"></path></g><g><path d="M 69.65 -31.887499999999996 l -10 10 l 0 20 l -35 0 l -10 10 l 29.95 29.95 l 7.5 -7.5 l -22.45 -22.45 l 30 0 l 10 -10 l 0 -30 z"></path><g><path d="M 57.849999999999994 -43.6875 l 11.8 11.8 l -10 10 l 0 5 q 5.188 -7.964 10 -5 l 0 -7.7 l 8.2 -8.2 l -13 -12.9 l -7 7 z"></path></g><g><path d="M 27.10000000000001 68.21249999999998 l 1.2 1.2 l 16.3 -16.3 l 0 -15.05 l 7.5 -7.5 q -11.45 -4.9 -8.7 6.3 l -8.8 8.9 l 0 14.95 l -7.5 7.5 z"></path></g></g></g></g>
</svg>
