<svg xmlns="http://www.w3.org/2000/svg" viewBox="0 0 53.361611 172.294907" width="53.361611" height="172.294907" fill="currentColor" stroke="none">
<g transform="translate(26.686611 86.147453)"><g><g><path d="M 9.525000000000002 -6.750000000000002 l -10 10 l 0 -33.85 l -10 10 l 0 36.2 l 10 -9.95 l 0 33.75 l 10 -10 l 0 -36.15 z"></path><g><path d="M -0.4750000000000014 -14.950000000000003 l 0 -15.65 l -10 10.05 q -10.8 -2.6 -16.2 -18.85 q -0.35 21.9 9.85 27.5 l 6.35 -6.35 l 0 8.1 q 4.8 -9.5 10 -4.8 z"></path></g><g><path d="M 9.175 27.299999999999997 q -0.375 0.363 -1.15 1.15 q -6.261 1.099 -8.5 -3.8 l 0 14.75 l 10 -10 l 10 10 l 7.15 -7.15 l -11.3 -11.2 l -5.85 5.9 q -0.04 0.029 -0.35 0.35 z"></path></g></g></g></g>
</svg>
