<svg xmlns="http://www.w3.org/2000/svg" viewBox="0 0 287.35 108.775" width="287.35" height="108.775" fill="currentColor" stroke="none">
<g transform="translate(143.675 54.3875)"><g><g><path d="M -125.47500000000001 -34.4125 l -10 10 l 0 60 l 10 -10 l 0 -60 z"></path><g><path d="M -123.67500000000001 47.387499999999996 l -11.8 -11.8 l 10 -10 l 0 -5 q -5.188 7.964 -10 5 l 0 7.7 l -8.2 8.2 l 13 12.9 l 7 -7 z"></path></g></g><g><path d="M -58.67500000000001 -34.3875 l -10 10 l 0 20 l -35 0 l -10 10 l 29.95 29.95 l 7.5 -7.5 l -22.45 -22.45 l 30 0 l 10 -10 l 0 -30 z"></path><path d="M -76.17500000000001 -44.38750000000001 l 10 -10 l -30 0 l -10 10 l 30 0 z"></path></g><g><path d="M -41.17500000000001 -34.4125 l -7.5 7.5 57.5 62.5 7.5 -7.5 -57.5 -62.5 z"></path></g><g><path d="M 51.32499999999999 -34.3375 l -10 10 l 0 40 l 9.55 -9.55 l 20.65 29.4 l 7.5 -7.5 l -21.6 -30.85 l -6.1 6.1 l 0 -37.6 z"></path><g><path d="M 51.32499999999999 -34.337500000000006 l -15 0 l 0 -15 l -10 10 l 0 15 l 15 0 l 0 10 q 3.85 -7.75 10 -5 l 0 -15 z"></path></g><g><path d="M 72.62499999999997 32.46249999999999 q 3.28 -1.825 6.4 -4.45 l 7.5 -7.5 l -1.2 -1.2 l -7.5 7.5 q -4.106 -1.688 -4.55 -0.35 q -0.6 1.45 -0.65 6 z"></path></g></g><g><path d="M 133.67499999999995 -10.562500000000002 l -10 10 l 0 -33.85 l -10 10 l 0 36.2 l 10 -9.95 l 0 33.75 l 10 -10 l 0 -36.15 z"></path><g><path d="M 114.02499999999998 -22.3125 q 0.375 -0.363 1.15 -1.15 q 6.261 -1.099 8.5 3.8 l 0 -14.75 l -10 10 l -10 -10 l -7.15 7.15 l 11.3 11.2 l 5.85 -5.9 q 0.04 -0.029 0.35 -0.35 z"></path></g><g><path d="M 127.375 51.9875 l 16.3 -16.3 l 0 -22.45 l -10 10 l 0 -5.15 q -5 6.1 -10 2.5 l 0 15 l 10 -10 l 0 17.7 l -7.5 7.5 l 1.2 1.2 z"></path></g></g></g></g>
</svg>
