<svg xmlns="http://www.w3.org/2000/svg" viewBox="0 0 218.25 143.725" width="218.25" height="143.725" fill="currentColor" stroke="none">
<g transform="translate(109.125 71.8625)"><g><g><path d="M -101.62499999999999 -46.8625 l -7.5 7.5 57.5 62.5 7.5 -7.5 -57.5 -62.5 z"></path></g><g><path d="M 31.52499999999999 -36.787499999999994 l 10 -10 l -65.75 0 l -9.9 9.95 l 30.45 37.55 l 7.25 -7.3 l 24.15 29.65 l 7.45 -7.4 l -25.2 -31.05 l -7.5 7.45 l -23.1 -28.85 l 52.15 0 z"></path><g><path d="M 32.825 -50.68749999999999 l 6.3 -6.3 l 0 10.2 l -13.5 0 q 5.808 4.7 0.35 10 l 5.55 0 l 17.6 -17.6 l 0 -15 l -17.5 17.5 l 1.2 1.2 z"></path></g><g><path d="M 27.72500000000001 23.0625 l 7.05 -7.05 q -4.298 -1.674 -7.9 0.9 q -1.089 2.895 -0.3 4.95 l -7.5 7.55 q 16.8 -0.55 27.5 12.45 q -4.6 -18.35 -18.85 -18.8 z"></path></g><path d="M -0.09999999999999432 61.8625 l 8.8 -8.8 l -1.2 -1.2 l -20 20 l 30 0 l 10 -10 l -27.6 0 z"></path></g><g><path d="M 69.12499999999999 -46.8625 l -10 10 l 0 60 l 10 -10 l 0 -50 l 30 0 l 10 -10 l -40 0 z"></path><path d="M 76.62499999999999 -64.3625 l 7.5 7.5 l 7.5 -7.5 l -7.5 -7.5 l -7.5 7.5 z"></path><path d="M 70.37499999999999 40.6375 l 20 20 l 7.5 -7.5 l -20 -20 l -7.5 7.5 z"></path></g></g></g>
</svg>
