<svg xmlns="http://www.w3.org/2000/svg" viewBox="0 0 75 172.294907" width="75" height="172.294907" fill="currentColor" stroke="none">
<g transform="translate(37.5 86.147453)"><g><g><path d="M -9.499999999999993 9.35 l 7.45 -7.5 27.05 34.4 7.5 -7.5 -27.8 -36 -7.75 7.8 -26.95 -34.3 -7.5 7.5 28 35.6 z"></path><path d="M -28.849999999999994 -26.25 q 1.328 -4.078 -0.8 -6.7 l 0.8 0.35 q 19.05 9.15 23.7 -6.2 q -7.65 9.4 -17.35 -2.45 l -15 15 q 4.648 1.323 8.65 0 z"></path><path d="M -24.999999999999993 18.75 l -10 10 l 0 25 l 10 -10 l 0 -25 z"></path><path d="M 27.500000000000007 -23.75 l 10 -10 l -30 0 l -10 10 l 30 0 z"></path><path d="M 7.500000000000007 -43.75 l 10 -10 l -30 0 l -10 10 l 30 0 z"></path></g></g></g>
</svg>
