<svg xmlns="http://www.w3.org/2000/svg" viewBox="0 0 55 172.294907" width="55" height="172.294907" fill="currentColor" stroke="none">
<g transform="translate(27.5 86.147453)"><g><g><path d="M 27.5 -54.399999999999984 l -10 10 l 0 20 l -35 0 l -10 10 l 29.95 29.95 l 7.5 -7.5 l -22.45 -22.45 l 30 0 l 10 -10 l 0 -30 z"></path><g><path d="M 27.5 -39.39999999999999 l 0 -15 l -15 0 l -17.5 17.5 l 1.2 1.2 l 8.7 -8.7 l 12.6 0 l 0 10 q 3.85 -7.75 10 -5 z"></path></g><g><path d="M 1.3000000000000007 14.399999999999999 l -15.05 0 l -10 10 l 17.45 0 l 8.75 -8.85 q 1.75 -3.2 4.85 -7.2 q -5.7 -0.35 -6 6.05 z"></path></g><path d="M -7.600000000000001 44.39999999999999 l 8.8 -8.8 l -1.2 -1.2 l -20 20 l 30 0 l 10 -10 l -27.6 0 z"></path></g></g></g>
</svg>
