<svg xmlns="http://www.w3.org/2000/svg" viewBox="0 0 399.85 151.4" width="399.85" height="151.4" fill="currentColor" stroke="none">
<g transform="translate(199.925 75.7)"><g><g><path d="M -189.925 -55.7 l -10 10 l 0 60 l 10 -10 l 0 -60 z"></path><g><path d="M -199.925 -0.7000000000000028 l 0 15 l 15 0 l 10 -10 l -15 0 l 0 -10 q -3.874 7.753 -10 5 z"></path></g></g><g><path d="M -153.675 -55.7 l -10 10 l 0 30 l 30 30 l 7.5 -7.5 l -27.5 -27.5 l 0 -35 z"></path><path d="M -134.925 -65.7 l 10 -10 l -30 0 l -10 10 l 30 0 z"></path></g><g><path d="M -90.275 -55.7 l -7.5 7.5 57.5 62.5 7.5 -7.5 -57.5 -62.5 z"></path><path d="M -92.775 -53.2 l -5 5 l -10 -10 l -7.15 7.15 l 11.3 11.2 l 7 -7.1 l 1 -1 q 3.183 1.742 3.85 0 q 0.916 -1.293 0 -6.25 z"></path></g><g><path d="M -12.775000000000006 -55.625 l -10 10 l 0 40 l 9.55 -9.55 l 20.65 29.4 l 7.5 -7.5 l -21.6 -30.85 l -6.1 6.1 l 0 -37.6 z"></path></g><g><path d="M 64.92500000000001 14.299999999999997 l 10 -10 l 0 -60 l -40 0 l -10 10 l 40 0 l 0 60 z"></path><g><path d="M 74.92500000000001 4.299999999999997 l 0 -7.3 q -4.546 5.888 -10 3.05 l 0 11.95 l -15.05 0 l -17.5 17.5 l 1.2 1.2 l 8.7 -8.7 l 15 0 l 17.65 -17.7 z"></path></g><path d="M 59.92500000000001 65.7 l 0 -25 l -20 20 l 1.2 1.2 l 8.8 -8.8 l 0 22.6 l 10 -10 z"></path></g><g><path d="M 132.425 14.299999999999997 l 7.5 -7.5 -26.9 -26.9 7.45 -7.55 -28.05 -28.05 -7.5 7.5 26.9 26.9 -7.5 7.5 28.1 28.1 z"></path><path d="M 97.42500000000001 31.799999999999997 l 7.5 7.5 l 7.5 -7.5 l -7.5 -7.5 l -7.5 7.5 z"></path></g><g><path d="M 159.925 -55.7 l -10 10 l 0 60 l 40 0 l 10 -10 l -40 0 l 0 -60 z"></path><g><path d="M 172.425 44.5 l 1.2 1.2 l 16.3 -16.3 l 0 -15.1 l 10 -10 l -18.3 0 q 4.75 2.3 -1.7 10 l 7.6 0 l 0.25 -0.2 l -7.85 7.85 l 0 15.05 l -7.5 7.5 z"></path></g></g></g></g>
</svg>
