<svg xmlns="http://www.w3.org/2000/svg" viewBox="0 0 242.15 108.825" width="242.15" height="108.825" fill="currentColor" stroke="none">
<g transform="translate(121.075 54.4125)"><g><g><path d="M -93.92500000000001 -34.38750000000001 l -10 10 l 0 60 l 10 -10 l 0 -60 z"></path><g><path d="M -103.57500000000002 -22.28750000000001 q 0.375 -0.363 1.15 -1.15 q 6.261 -1.099 8.5 3.8 l 0 -14.75 l -10 10 l -10 -10 l -7.15 7.15 l 11.3 11.2 l 5.85 -5.9 q 0.04 -0.029 0.35 -0.35 z"></path></g><g><path d="M -92.12500000000001 47.41249999999999 l -11.8 -11.8 l 10 -10 l 0 -5 q -5.188 7.964 -10 5 l 0 7.7 l -8.2 8.2 l 13 12.9 l 7 -7 z"></path></g></g><g><path d="M -39.57500000000002 -34.38750000000001 l -10 10 l 0 60 l 10 -10 l 0 -50 l 30 0 l 10 -10 l -40 0 z"></path><g><path d="M -39.57500000000002 25.61249999999999 l 0 -7.3 q -4.546 5.888 -10 3.05 l 0 11.95 l -15.05 0 l -17.5 17.5 l 1.2 1.2 l 8.7 -8.7 l 15 0 l 17.65 -17.7 z"></path></g><path d="M -30.850000000000023 -44.38750000000001 l 10 -10 l -30 0 l -10 10 l 30 0 z"></path></g><g><path d="M 20.424999999999983 -34.38750000000001 l -10 10 l 0 60 l 10 -10 l 0 -60 z"></path><g><path d="M 10.424999999999983 20.61249999999999 l 0 15 l 15 0 l 10 -10 l -15 0 l 0 -10 q -3.874 7.753 -10 5 z"></path></g></g><g><path d="M 55.32499999999999 -34.41250000000001 l -9.9 9.95 l 47.35 58.35 l 0.05 0 l 1.4 1.75 l 7.5 -7.5 l -42.7 -52.55 l 52.05 0 l 10 -10 l -65.75 0 z"></path><path d="M 93.25 -44.41250000000001 l 10 -10 l -30 0 l -10 10 l 30 0 z"></path></g></g></g>
</svg>
