<svg xmlns="http://www.w3.org/2000/svg" viewBox="0 0 191.96085 114.85" width="191.96085" height="114.85" fill="currentColor" stroke="none">
<g transform="translate(95.980002 57.425)"><g><g><path d="M -85.98000173605249 -27.5 l -10 10 l 0 60 l 10 -10 l 0 -60 z"></path><g><path d="M -85.93000173605249 -25.200000000000003 l 15 0 l 10 -10 l -17.4 0 l -17.65 17.7 l 0 7.3 q 5.4 -4.35 10 -2.75 l 0 -12.25 z"></path></g></g><g><path d="M 14.719998263947517 -17.425 l 10 -10 l -65.75 0 l -9.9 9.95 l 30.45 37.55 l 7.25 -7.3 l 24.15 29.65 l 7.45 -7.4 l -25.2 -31.05 l -7.5 7.45 l -23.1 -28.85 l 52.15 0 z"></path><g><path d="M 24.719998263947517 -27.424999999999997 l 15.05 0 l 10 -10 l -17.45 0 l -9.95 10 l -7.6 0 q 4.95 4.2 -6.25 10 l 6.25 0 l 9.95 -10 z"></path></g><g><path d="M 18.41999826394752 34.925 q -6.8 0.5 -7.5 7.5 l 15 15 l 15 -15 l -1.2 -1.2 l -7.5 7.5 l -13.8 -13.8 z"></path></g><path d="M 9.41999826394752 -47.425 l 10 -10 l -30 0 l -10 10 l 30 0 z"></path></g><g><path d="M 79.76999826394751 -3.6500000000000004 l -10 10 l 0 -33.85 l -10 10 l 0 36.2 l 10 -9.95 l 0 33.75 l 10 -10 l 0 -36.15 z"></path><g><path d="M 69.76999826394751 26.85 l 0 15.65 l 10 -10.05 q 10.8 2.6 16.2 18.85 q 0.35 -21.9 -9.85 -27.5 l -6.35 6.35 l 0 -8.1 q -4.8 9.5 -10 4.8 z"></path></g></g></g></g>
</svg>
