<svg xmlns="http://www.w3.org/2000/svg" viewBox="0 0 669.15 158.325" width="669.15" height="158.325" fill="currentColor" stroke="none">
<g transform="translate(334.575 79.1625)"><g><g><path d="M -309.925 -41.66250000000001 l -7.5 7.5 57.5 62.5 7.5 -7.5 -57.5 -62.5 z"></path><path d="M -312.425 -39.16250000000001 l -5 5 l -10 -10 l -7.15 7.15 l 11.3 11.2 l 7 -7.1 l 1 -1 q 3.183 1.742 3.85 0 q 0.916 -1.293 0 -6.25 z"></path><path d="M -274.925 -51.66250000000001 l 10 -10 l -30 0 l -10 10 l 30 0 z"></path></g><g><path d="M -202.42499999999998 -2.0375000000000085 l 10 -10 l -29.85 -29.85 l -7.5 7.5 l 22.35 22.35 l -20 0 l -15 15 l 25.6 25.6 l 7.5 -7.5 l -23.1 -23.1 l 30 0 z"></path></g><g><path d="M -163.62499999999997 28.312499999999993 l 10 -10 l 0 -20 l 35 0 l 10 -10 l -29.95 -29.95 l -7.5 7.5 l 22.45 22.45 l -30 0 l -10 10 l 0 30 z"></path><g><path d="M -153.62499999999997 18.3125 l 0 -5 q -6.25 9 -10 5 l 0 7.6 l -11.8 -11.7 l -7 7 l 12.95 12.95 l 15.85 -15.85 z"></path></g><path d="M -135.52499999999998 -51.6375 l 10 -10 l -30 0 l -10 10 l 30 0 z"></path><path d="M -155.52499999999998 54.16250000000001 l 0 25 l 20 -20 l -1.2 -1.2 l -8.8 8.8 l 0 -22.6 l -10 10 z"></path></g><g><path d="M -98.57499999999999 28.33749999999999 l 50 0 l 9.4 -9.4 l -23.2 -33.05 l -6.2 6.25 l 0 -33.8 l -10 10 l 0 36.15 l 1.1 -1.1 q 2.967 -2.977 5.95 -5.95 l 1.95 -2 l 0.65 -0.65 l 16.5 23.5 l -36.2 0 l -10 10 z"></path><path d="M -76.39999999999998 45.8375 l 7.5 7.5 l 7.5 -7.5 l -7.5 -7.5 l -7.5 7.5 z"></path></g><g><path d="M 13.324999999999989 28.33749999999999 l 7.5 -7.5 l -31.25 -31.25 l 31.25 -31.25 l -40 0 l -10 10 l 37.6 0 l -27.5 27.6 l 32.4 32.4 z"></path><path d="M 5.824999999999989 48.33749999999999 l 10 -10 l -30 0 l -10 10 l 30 0 z"></path></g><g><path d="M 63.82499999999999 1.4374999999999911 l 7.45 -7.5 27.05 34.4 7.5 -7.5 -27.8 -36 -7.75 7.8 -26.95 -34.3 -7.5 7.5 28 35.6 z"></path><path d="M 60.82499999999999 28.33749999999999 l 10 -10 l -30 0 l -10 10 l 30 0 z"></path><path d="M 57.07499999999999 -71.66250000000001 l 20 20 l 7.5 -7.5 l -20 -20 l -7.5 7.5 z"></path></g><g><path d="M 125.82499999999999 -41.66250000000001 l -10 10 l 0 36.3 l 10 -10.05 l 0 33.75 l 10 -10 l 0 -36.15 l -10 10 l 0 -23.85 l 30 0 l 10 -10 l -40 0 z"></path><path d="M 133.22499999999997 -61.66250000000001 l 8.8 -8.8 l -1.2 -1.2 l -20 20 l 30 0 l 10 -10 l -27.6 0 z"></path></g><g><path d="M 219.575 -51.66250000000001 l -7.5 7.5 l 12.5 12.5 l -25 0 l -17.5 17.5 l 1.2 1.2 l 8.7 -8.7 l 37.6 0 l 10 -10 l -20 -20 z"></path><path d="M 185.825 -11.662500000000009 l -10 10 l 50 0 l 10 -10 l -50 0 z"></path></g><g><path d="M 267.77500000000003 -41.66250000000001 l -10 10 l 0 60 l 10 -10 l 0 -60 z"></path><g><path d="M 269.575 40.13749999999999 l -11.8 -11.8 l 10 -10 l 0 -5 q -5.188 7.964 -10 5 l 0 7.7 l -8.2 8.2 l 13 12.9 l 7 -7 z"></path></g></g><g><path d="M 334.575 -41.63750000000001 l -10 10 l 0 20 l -35 0 l -10 10 l 29.95 29.95 l 7.5 -7.5 l -22.45 -22.45 l 30 0 l 10 -10 l 0 -30 z"></path><g><path d="M 315.825 19.612499999999972 q -6.486 -1.216 -4.75 5 q 2.924 -3.894 5.95 -3.8 l 8.8 -8.8 l 0 -15 l -10 10 l 0 12.6 z"></path></g><path d="M 317.075 -51.63750000000002 l 10 -10 l -30 0 l -10 10 l 30 0 z"></path></g></g></g>
</svg>
