<svg xmlns="http://www.w3.org/2000/svg" viewBox="0 0 127.8 121.4" width="127.8" height="121.4" fill="currentColor" stroke="none">
<g transform="translate(63.9 60.7)"><g><g><path d="M -36.75 -40.675000000000004 l -10 10 l 0 60 l 10 -10 l 0 -60 z"></path><g><path d="M -46.4 -28.575000000000003 q 0.375 -0.363 1.15 -1.15 q 6.261 -1.099 8.5 3.8 l 0 -14.75 l -10 10 l -10 -10 l -7.15 7.15 l 11.3 11.2 l 5.85 -5.9 q 0.04 -0.029 0.35 -0.35 z"></path></g><g><path d="M -46.75 14.324999999999996 l 0 15 l 15 0 l 10 -10 l -15 0 l 0 -10 q -3.874 7.753 -10 5 z"></path></g></g><g><path d="M -1.8499999999999943 -40.7 l -9.9 9.95 l 47.35 58.35 l 0.05 0 l 1.4 1.75 l 7.5 -7.5 l -42.7 -52.55 l 52.05 0 l 10 -10 l -65.75 0 z"></path><g><path d="M 19.550000000000004 59.50000000000001 l 1.2 1.2 l 16.3 -16.3 l 0 -15.05 l 7.5 -7.5 q -11.45 -4.9 -8.7 6.3 l -8.8 8.9 l 0 14.95 l -7.5 7.5 z"></path></g><path d="M 36.074999999999996 -50.7 l 10 -10 l -30 0 l -10 10 l 30 0 z"></path></g></g></g>
</svg>
