<svg xmlns="http://www.w3.org/2000/svg" viewBox="0 0 629.5 132.525" width="629.5" height="132.525" fill="currentColor" stroke="none">
<g transform="translate(314.75 66.2625)"><g><g><path d="M -269.75 11.237499999999997 l 7.5 -7.5 -32.5 -32.5 -7.5 7.5 32.5 32.5 m -17.5 -10 l -7.5 7.5 32.5 32.5 7.5 -7.5 -32.5 -32.5 z"></path><path d="M -264.85 31.237499999999997 q -1.655 2.716 2.6 10 l 15 0 l 10 -10 l -20 0 q -7.015 -2.931 -7.6 0 z"></path><path d="M -304.75 23.737499999999997 l -10 10 l 0 25 l 10 -10 l 0 -25 z"></path><path d="M -268.5 -38.7625 l 10 -10 l -30 0 l -10 10 l 30 0 z"></path></g><g><path d="M -217.25 -28.762500000000003 l -10 10 l 0 60 l 10 -10 l 0 -50 l 30 0 l 10 -10 l -40 0 z"></path><g><path d="M -197.25 -28.762500000000003 q 6.368 3.408 0 10 l 10 0 l 10 -10 l 0 -15 l -10 10 l 0 5 l -10 0 z"></path></g><g><path d="M -217.25 48.8375 l 0 -17.6 q -7.3 -5 -10 10 l 0 20 l 17.5 -17.5 l -1.2 -1.2 l -6.3 6.3 z"></path></g></g><g><path d="M -157.25 -28.762500000000003 l -10 10 l 0 60 l 10 -10 l 0 -60 z"></path><g><path d="M -157.2 -26.462500000000006 l 15 0 l 10 -10 l -17.4 0 l -17.65 17.7 l 0 7.3 q 5.4 -4.35 10 -2.75 l 0 -12.25 z"></path></g><g><path d="M -157.25 31.237499999999997 l 15 0 l 10 -10 l -17.45 0 l -7.6 7.6 l 0.05 -5.05 q -4.6 6.3 -10 4 l 0 13.45 l 9.95 -10 z"></path></g></g><g><path d="M -112.19999999999999 -28.762500000000003 l -10 10 l 0 36.3 l 10 -10.05 l 0 33.75 l 10 -10 l 0 -36.15 l -10 10 l 0 -23.85 l 30 0 l 10 -10 l -40 0 z"></path><path d="M -87.19999999999999 -38.7625 l 10 -10 l -30 0 l -10 10 l 30 0 z"></path></g><g><path d="M -54.69999999999999 -28.762500000000003 l -7.5 7.5 57.5 62.5 7.5 -7.5 -57.5 -62.5 z"></path><path d="M -7.300000000000011 31.237499999999997 q -1.655 2.716 2.6 10 l 15 0 l 10 -10 l -20 0 q -7.015 -2.931 -7.6 0 z"></path><path d="M -43.44999999999999 -58.7625 l 20 20 l 7.5 -7.5 l -20 -20 l -7.5 7.5 z"></path></g><g><path d="M 40.19999999999999 -28.7875 l -9.9 9.95 l 47.35 58.35 l 0.05 0 l 1.4 1.75 l 7.5 -7.5 l -42.7 -52.55 l 52.05 0 l 10 -10 l -65.75 0 z"></path><g><path d="M 86.60000000000002 33.76250000000001 q -6.8 0.5 -7.5 7.5 l 15 15 l 15 -15 l -1.2 -1.2 l -7.5 7.5 l -13.8 -13.8 z"></path></g></g><g><path d="M 199.85000000000002 41.262499999999996 l 9.9 -9.95 l -47.35 -58.35 l -0.05 0 l -1.4 -1.75 l -7.5 7.5 l 42.7 52.55 l -52.05 0 l -10 10 l 65.75 0 z"></path><g><path d="M 139.10000000000002 31.262500000000003 l -12.5 -12.5 l -7.5 7.5 l 15 15 q 8.65 -2.75 10 -10 l -5 0 z"></path></g><path d="M 156.925 58.7625 l 7.5 7.5 l 7.5 -7.5 l -7.5 -7.5 l -7.5 7.5 z"></path></g><g><path d="M 229.75 -28.762500000000003 l -10 10 l 0 60 l 10 -10 l 0 -60 z"></path><g><path d="M 219.75 26.237499999999997 l 0 15 l 15 0 l 10 -10 l -15 0 l 0 -10 q -3.874 7.753 -10 5 z"></path></g></g><g><path d="M 304.75 -18.762500000000003 l 10 -10 l -50 0 l -10 10 l 0 30 l 30 0 l 0 30 l 10 -10 l 0 -30 l -30 0 l 0 -20 l 40 0 z"></path><path d="M 294.75 -38.7625 l 10 -10 l -30 0 l -10 10 l 30 0 z"></path></g></g></g>
</svg>
