<svg xmlns="http://www.w3.org/2000/svg" viewBox="0 0 68.45 172.294907" width="68.45" height="172.294907" fill="currentColor" stroke="none">
<g transform="translate(34.225 86.147453)"><g><g><path d="M -7.075000000000003 -54.925 l -10 10 l 0 30 l 17.7 0 l -6.35 6.4 l 23.65 23.6 l 7.45 -7.5 l -22.5 -22.5 l 10.05 -10 l -20 0 l 0 -30 z"></path><g><path d="M -16.725 -42.824999999999996 q 0.375 -0.363 1.15 -1.15 q 6.261 -1.099 8.5 3.8 l 0 -14.75 l -10 10 l -10 -10 l -7.15 7.15 l 11.3 11.2 l 5.85 -5.9 q 0.04 -0.029 0.35 -0.35 z"></path></g><g><path d="M 24.225 26.225 l -7.5 7.5 l 1.2 1.2 l 16.3 -16.3 l 0 -22.35 l -10 10.1 q -4.2 -0.65 -6.3 2.7 q -0.8 1 0 6 l 6.3 -6.3 l 0 17.45 z"></path></g><path d="M 10 54.925 l 10 -10 l -30 0 l -10 10 l 30 0 z"></path></g></g></g>
</svg>
