<svg xmlns="http://www.w3.org/2000/svg" viewBox="0 0 110.65 89.925" width="110.65" height="89.925" fill="currentColor" stroke="none">
<g transform="translate(55.325 44.9625)"><g><g><path d="M -45.324999999999996 -25.0375 l -10 10 l 0 60 l 10 -10 l 0 -60 z"></path><g><path d="M -55.324999999999996 29.9625 l 0 15 l 15 0 l 10 -10 l -15 0 l 0 -10 q -3.874 7.753 -10 5 z"></path></g></g><g><path d="M 45.324999999999996 -14.962500000000002 l 10 -10 l -65.75 0 l -9.9 9.95 l 30.45 37.55 l 7.25 -7.3 l 24.15 29.65 l 7.45 -7.4 l -25.2 -31.05 l -7.5 7.45 l -23.1 -28.85 l 52.15 0 z"></path><path d="M 27.499999999999993 -34.9625 l 10 -10 l -30 0 l -10 10 l 30 0 z"></path></g></g></g>
</svg>
