<svg xmlns="http://www.w3.org/2000/svg" viewBox="0 0 53.15 172.294907" width="53.15" height="172.294907" fill="currentColor" stroke="none">
<g transform="translate(26.575 86.147453)"><g><g><path d="M 13.424999999999997 -10.222453435167502 l 10 -10 l -29.85 -29.85 l -7.5 7.5 l 22.35 22.35 l -20 0 l -15 15 l 25.6 25.6 l 7.5 -7.5 l -23.1 -23.1 l 30 0 z"></path><g><path d="M 5.3749999999999964 11.727546564832501 l 0 -0.05 q -8.1 -2.8 -6.35 8.7 l 6.35 -6.3 q 9.4 17.75 21.2 6.85 q -12.25 2.15 -14.85 -15.5 l -6.35 6.3 z"></path></g><path d="M 10 -60.0724534351675 l 10 -10 l -30 0 l -10 10 l 30 0 z"></path><path d="M -10.000000000000004 45.0724534351675 l 0 25 l 20 -20 l -1.2 -1.2 l -8.8 8.8 l 0 -22.6 l -10 10 z"></path></g></g></g>
</svg>
