<svg xmlns="http://www.w3.org/2000/svg" viewBox="0 0 63.755408 172.294907" width="63.755408" height="172.294907" fill="currentColor" stroke="none">
<g transform="translate(31.880408 86.147453)"><g><g><path d="M 7.175000000000001 -15.3 l -1.25 -1.15 q -5.45 4.65 -10.85 3.05 q -5.65 -1.7 -5.7 -9.35 l 25 0 l 17.5 -17.5 l -1.2 -1.2 l -8.7 8.7 l -37.6 0 l -10 10 q 14.9 23.2 32.8 7.45 z"></path><path d="M -21.875 -2.75 l -10 10 l 50 0 l 10 -10 l -50 0 z"></path><path d="M -8.725000000000001 18.35 l -1.2 -1.1 q -22.3 -0.55 -21.95 24.2 l 40 0 l 10 -10 l -40 0 q -0.1 -10.25 13.15 -13.1 z"></path></g></g></g>
</svg>
