<svg xmlns="http://www.w3.org/2000/svg" viewBox="0 0 200.055408 98.7" width="200.055408" height="98.7" fill="currentColor" stroke="none">
<g transform="translate(100.027704 49.35)"><g><g><path d="M -72.0277041942605 2.450000000000001 l 7.45 -7.5 27.05 34.4 7.5 -7.5 -27.8 -36 -7.75 7.8 -26.95 -34.3 -7.5 7.5 28 35.6 z"></path><path d="M -62.527704194260494 49.35 l 10 -10 l -30 0 l -10 10 l 30 0 z"></path></g><g><path d="M -10.027704194260494 -40.65 l -10 10 l 0 30 l 30 30 l 7.5 -7.5 l -27.5 -27.5 l 0 -35 z"></path><g><path d="M -2.527704194260494 -45.75 l -1.2 -1.2 l -16.3 16.3 l 0 7.75 q 5 -9.444 10 -6.55 l 0 -8.8 l 7.5 -7.5 z"></path></g><g><path d="M 16.272295805739503 40.5 l -7.5 7.5 l 1.2 1.2 l 16.3 -16.3 l 0 -22.35 l -10 10.1 q -4.2 -0.65 -6.3 2.7 q -0.8 1 0 6 l 6.3 -6.3 l 0 17.45 z"></path></g></g><g><path d="M 75.32770419426048 -23.2 l -1.25 -1.15 q -5.45 4.65 -10.85 3.05 q -5.65 -1.7 -5.7 -9.35 l 25 0 l 17.5 -17.5 l -1.2 -1.2 l -8.7 8.7 l -37.6 0 l -10 10 q 14.9 23.2 32.8 7.45 z"></path><path d="M 46.277704194260465 -10.649999999999999 l -10 10 l 50 0 l 10 -10 l -50 0 z"></path><path d="M 59.42770419426047 10.450000000000003 l -1.2 -1.1 q -22.3 -0.55 -21.95 24.2 l 40 0 l 10 -10 l -40 0 q -0.1 -10.25 13.15 -13.1 z"></path></g></g></g>
</svg>
