<svg xmlns="http://www.w3.org/2000/svg" viewBox="0 0 62.6 172.294907" width="62.6" height="172.294907" fill="currentColor" stroke="none">
<g transform="translate(31.3 86.147453)"><g><g><path d="M -11.3 -30 l -10 10 l 0 35 l 19.95 0 l -24.95 25 l 40 0 l 10 -10 l -37.6 0 l 24.85 -25 l -22.25 0 l 0 -35 z"></path><g><path d="M 1.0999999999999979 -40 l -22.4 0 l -10 10.1 l 19.9 0 l 0.1 -0.1 l 0 0.1 l -0.05 0 l -9.95 9.9 l 0 5 q 5 -5.774 10 -5 l 0 -7.55 l 12.4 -12.4 z"></path></g><g><path d="M 16.05 30 q 0.465 4.718 -7.9 10 l 5.55 0 l 17.6 -17.6 l 0 -15 l -10 10 l 0 12.6 l -5.25 0 z"></path></g></g></g></g>
</svg>
