<svg xmlns="http://www.w3.org/2000/svg" viewBox="0 0 485.1 119.975" width="485.1" height="119.975" fill="currentColor" stroke="none">
<g transform="translate(242.55 59.9875)"><g><g><path d="M -207.05 3.1125000000000096 l 7.45 -7.5 27.05 34.4 7.5 -7.5 -27.8 -36 -7.75 7.8 -26.95 -34.3 -7.5 7.5 28 35.6 z"></path><path d="M -228.65 -36.937499999999986 q -3.28 1.825 -6.4 4.45 l -7.5 7.5 l 1.2 1.2 l 7.5 -7.5 q 4.106 1.688 4.55 0.35 q 0.6 -1.45 0.65 -6 z"></path><path d="M -168.10000000000002 23.61250000000001 q -1.825 3.28 -4.45 6.4 l -7.5 7.5 l -1.2 -1.2 l 7.5 -7.5 q -1.688 -4.106 -0.35 -4.55 q 1.45 -0.6 6 -0.65 z"></path><path d="M -190.05 -49.98749999999999 l 10 -10 l -30 0 l -10 10 l 30 0 z"></path></g><g><path d="M -100.05000000000001 -39.96249999999999 l -10 10 l 0 20 l -35 0 l -10 10 l 29.95 29.95 l 7.5 -7.5 l -22.45 -22.45 l 30 0 l 10 -10 l 0 -30 z"></path><g><path d="M -122.60000000000001 27.48749999999999 l 5 -5 l 10 10 l 7.15 -7.15 l -11.3 -11.2 l -7 7.1 l -1 1 q -3.183 -1.742 -3.85 0 q -0.916 1.293 0 6.25 z"></path></g></g><g><path d="M -35.05000000000001 -39.96249999999999 l -10 10 l 0 20 l -35 0 l -10 10 l 29.95 29.95 l 7.5 -7.5 l -22.45 -22.45 l 30 0 l 10 -10 l 0 -30 z"></path><g><path d="M -53.80000000000001 21.28749999999999 q -6.486 -1.216 -4.75 5 q 2.924 -3.894 5.95 -3.8 l 8.8 -8.8 l 0 -15 l -10 10 l 0 12.6 z"></path></g><path d="M -52.55000000000001 -49.9625 l 10 -10 l -30 0 l -10 10 l 30 0 z"></path><path d="M -70.15 49.98749999999999 l 8.8 -8.8 l -1.2 -1.2 l -20 20 l 30 0 l 10 -10 l -27.6 0 z"></path></g><g><path d="M -15.050000000000011 -39.98749999999999 l -10 10 l 0 60 l 10 -10 l 0 -60 z"></path><g><path d="M -15 -37.68749999999999 l 15 0 l 10 -10 l -17.4 0 l -17.65 17.7 l 0 7.3 q 5.4 -4.35 10 -2.75 l 0 -12.25 z"></path></g></g><g><path d="M 35 -39.98749999999999 l -10 10 l 0 35 l 19.95 0 l -24.95 25 l 40 0 l 10 -10 l -37.6 0 l 24.85 -25 l -22.25 0 l 0 -35 z"></path><path d="M 55 -49.98749999999999 l 10 -10 l -30 0 l -10 10 l 30 0 z"></path></g><g><path d="M 152.55 30.01250000000001 l 7.5 -7.5 -26.9 -26.9 7.45 -7.55 -28.05 -28.05 -7.5 7.5 26.9 26.9 -7.5 7.5 28.1 28.1 z"></path><path d="M 105.05000000000001 -32.48749999999999 l -15.05 0 l -10 10 l 17.45 0 l 8.75 -8.8 q 6.9 0.2 3.8 -6.15 l -4.95 4.95 z"></path><path d="M 160.15000000000003 -29.98749999999999 l -8.8 8.8 l 1.2 1.2 l 20 -20 l -30 0 l -10 10 l 27.6 0 z"></path><path d="M 117.55000000000001 47.51250000000001 l 7.5 7.5 l 7.5 -7.5 l -7.5 -7.5 l -7.5 7.5 z"></path></g><g><path d="M 197.60000000000002 -29.98749999999999 l 34.95 0 l 10 -10 l -50 0 l -10 10 l 25 25 l 0 35 l 10 -10 l 0 -30.05 l -19.95 -19.95 z"></path><g><path d="M 207.55 50.01250000000001 l 10 -10 l 0 -20 q -7.3 -5 -10 10 l 0 20 z"></path></g></g></g></g>
</svg>
