<svg xmlns="http://www.w3.org/2000/svg" viewBox="0 0 52.4 172.294907" width="52.4" height="172.294907" fill="currentColor" stroke="none">
<g transform="translate(26.2 86.147453)"><g><g><path d="M 13.8 -40.650000000000006 l -10 10 l 0 20 l -20 0 l -10 10 l 0 30 l 30 0 l 10 -10 l -30 0 l 0 -20 l 20 0 l 10 -10 l 0 -30 z"></path><g><path d="M 26.2 -50.650000000000006 l -22.4 0 l -10 10.1 l 19.9 0 l 0.1 -0.1 l 0 0.1 l -0.05 0 l -9.95 9.9 l 0 5 q 5 -5.774 10 -5 l 0 -7.55 l 12.4 -12.4 z"></path></g><g><path d="M 13.8 19.349999999999994 l -15 0 q 2.75 6.15 -5 10 l 10 0 l 0 12.6 l -7.5 7.5 l 1.2 1.2 l 16.3 -16.3 l 0 -15 z"></path></g></g></g></g>
</svg>
