<svg xmlns="http://www.w3.org/2000/svg" viewBox="0 0 220.1 100" width="220.1" height="100" fill="currentColor" stroke="none">
<g transform="translate(110.05 50)"><g><g><path d="M -82.05 13.1 l 7.45 -7.5 27.05 34.4 7.5 -7.5 -27.8 -36 -7.75 7.8 -26.95 -34.3 -7.5 7.5 28 35.6 z"></path><path d="M -43.099999999999994 33.6 q -1.825 3.28 -4.45 6.4 l -7.5 7.5 l -1.2 -1.2 l 7.5 -7.5 q -1.688 -4.106 -0.35 -4.55 q 1.45 -0.6 6 -0.65 z"></path><path d="M -65.05 -40 l 10 -10 l -30 0 l -10 10 l 30 0 z"></path></g><g><path d="M -20.049999999999997 -29.924999999999997 l -10 10 l 0 40 l 9.55 -9.55 l 20.65 29.4 l 7.5 -7.5 l -21.6 -30.85 l -6.1 6.1 l 0 -37.6 z"></path></g><g><path d="M 40.05 -30 l -10 10 l 0 60 l 10 -10 l 0 -60 z"></path><g><path d="M 17.64999999999999 50 l 22.4 0 l 10 -10.1 l -19.9 0 l -0.1 0.1 l 0 -0.1 l 0.05 0 l 9.95 -9.9 l 0 -5 q -5 5.774 -10 5 l 0 7.55 l -12.4 12.4 z"></path></g></g><g><path d="M 70.05 -30 l -10 10 l 0 60 l 10 -10 l 0 -50 l 30 0 l 10 -10 l -40 0 z"></path><path d="M 95.05 -40 l 10 -10 l -30 0 l -10 10 l 30 0 z"></path></g></g></g>
</svg>
