<svg xmlns="http://www.w3.org/2000/svg" viewBox="0 0 93.85 172.294907" width="93.85" height="172.294907" fill="currentColor" stroke="none">
<g transform="translate(46.925 86.145185)"><g><g><path d="M -28.074999999999996 -30.350510204081637 l -7.5 7.5 57.5 62.5 7.5 -7.5 -57.5 -62.5 z"></path><path d="M -26.924999999999997 -29.150510204081634 l 7.5 -7.55 q -17.7 -8.5 -27.5 7.5 q 11.7 -7.3 18.85 -1.15 l -3.7 3.65 q 1.81 1.308 4.55 2.1 q 1.8 0.5 0.3 -4.55 z"></path><path d="M 19.325000000000003 29.649489795918363 q -1.655 2.716 2.6 10 l 15 0 l 10 -10 l -20 0 q -7.015 -2.931 -7.6 0 z"></path><path d="M -13.074999999999996 39.64948979591836 l 10 -10 l -30 0 l -10 10 l 30 0 z"></path></g></g></g>
</svg>
