<svg xmlns="http://www.w3.org/2000/svg" viewBox="0 0 274.5 98.725" width="274.5" height="98.725" fill="currentColor" stroke="none">
<g transform="translate(137.25 49.3625)"><g><g><path d="M -118.4 -29.4375 l -7.5 7.5 57.5 62.5 7.5 -7.5 -57.5 -62.5 z"></path><path d="M -117.25 -28.237499999999997 l 7.5 -7.55 q -17.7 -8.5 -27.5 7.5 q 11.7 -7.3 18.85 -1.15 l -3.7 3.65 q 1.81 1.308 4.55 2.1 q 1.8 0.5 0.3 -4.55 z"></path><path d="M -71 30.5625 q -1.655 2.716 2.6 10 l 15 0 l 10 -10 l -20 0 q -7.015 -2.931 -7.6 0 z"></path><path d="M -103.4 40.5625 l 10 -10 l -30 0 l -10 10 l 30 0 z"></path></g><g><path d="M -23.400000000000006 -29.4375 l -10 10 l 0 36.3 l 10 -10.05 l 0 33.75 l 10 -10 l 0 -36.15 l -10 10 l 0 -23.85 l 30 0 l 10 -10 l -40 0 z"></path><g><path d="M -23.400000000000006 24.9125 l 0 15.65 l 10 -10.05 q 10.8 2.6 16.2 18.85 q 0.35 -21.9 -9.85 -27.5 l -6.35 6.35 l 0 -8.1 q -4.8 9.5 -10 4.8 z"></path></g></g><g><path d="M 36.599999999999994 -29.4375 l -10 10 l 0 60 l 10 -10 l 0 -60 z"></path><g><path d="M 26.599999999999994 25.5625 l 0 15 l 15 0 l 10 -10 l -15 0 l 0 -10 q -3.874 7.753 -10 5 z"></path></g></g><g><path d="M 127.25 -19.3625 l 10 -10 l -65.75 0 l -9.9 9.95 l 30.45 37.55 l 7.25 -7.3 l 24.15 29.65 l 7.45 -7.4 l -25.2 -31.05 l -7.5 7.45 l -23.1 -28.85 l 52.15 0 z"></path><path d="M 109.42499999999998 -39.3625 l 10 -10 l -30 0 l -10 10 l 30 0 z"></path></g></g></g>
</svg>
