<svg xmlns="http://www.w3.org/2000/svg" viewBox="0 0 68.8 172.294907" width="68.8" height="172.294907" fill="currentColor" stroke="none">
<g transform="translate(34.4 86.147453)"><g><g><path d="M 21.900000000000006 31.25 l 7.5 -7.5 -26.9 -26.9 7.45 -7.55 -28.05 -28.05 -7.5 7.5 26.9 26.9 -7.5 7.5 28.1 28.1 z"></path><path d="M -24.399999999999995 -30.05 q 4.2 0.65 6.3 -2.7 q 0.8 -1 0 -6 l -6.3 6.3 l 0 -19.95 l -10 10.1 l 0 22.35 l 10 -10.1 z"></path><path d="M -30.599999999999994 11.25 l 20 20 l 7.5 -7.5 l -20 -20 l -7.5 7.5 z"></path><path d="M 34.400000000000006 -31.25 l 0 -25 l -20 20 l 1.2 1.2 l 8.8 -8.8 l 0 22.6 l 10 -10 z"></path><path d="M -13.099999999999994 48.75 l 7.5 7.5 l 7.5 -7.5 l -7.5 -7.5 l -7.5 7.5 z"></path></g></g></g>
</svg>
