<svg xmlns="http://www.w3.org/2000/svg" viewBox="0 0 80.05 172.294907" width="80.05" height="172.294907" fill="currentColor" stroke="none">
<g transform="translate(40.025 86.147453)"><g><g><path d="M 14.975000000000001 -25.474999999999987 l -10 10 l 0 20 l -35 0 l -10 10 l 29.95 29.95 l 7.5 -7.5 l -22.45 -22.45 l 30 0 l 10 -10 l 0 -30 z"></path><g><path d="M 15.024999999999999 -23.174999999999997 l 15 0 l 10 -10 l -17.4 0 l -17.65 17.7 l 0 7.3 q 5.4 -4.35 10 -2.75 l 0 -12.25 z"></path></g><g><path d="M -12.674999999999997 34.474999999999994 q -1.65 2.7 2.6 10 l 12.6 0 l -7.5 7.5 l 1.2 1.2 l 18.7 -18.7 l -20 0 q -7 -2.95 -7.6 0 z"></path></g><path d="M 10 -43.175 l 10 -10 l -30 0 l -10 10 l 30 0 z"></path></g></g></g>
</svg>
