<svg xmlns="http://www.w3.org/2000/svg" viewBox="0 0 643.85 152.425" width="643.85" height="152.425" fill="currentColor" stroke="none">
<g transform="translate(321.925 76.2125)"><g><g><path d="M -305.6249999999999 -38.712500000000006 l -7.5 7.5 57.5 62.5 7.5 -7.5 -57.5 -62.5 z"></path><path d="M -311.9249999999999 -30.012500000000006 q 4.2 0.65 6.3 -2.7 q 0.8 -1 0 -6 l -6.3 6.3 l 0 -19.95 l -10 10.1 l 0 22.35 l 10 -10.1 z"></path><path d="M -258.2249999999999 21.287499999999994 q -1.655 2.716 2.6 10 l 15 0 l 10 -10 l -20 0 q -7.015 -2.931 -7.6 0 z"></path><path d="M -294.3749999999999 -68.7125 l 20 20 l 7.5 -7.5 l -20 -20 l -7.5 7.5 z"></path></g><g><path d="M -161.2249999999999 -38.712500000000006 l -50 0 l -9.4 9.4 l 23.2 33.05 l 6.2 -6.25 l 0 33.8 l 10 -10 l 0 -36.15 l -1.1 1.1 q -2.967 2.977 -5.95 5.95 l -1.95 2 l -0.65 0.65 l -16.5 -23.5 l 36.2 0 l 10 -10 z"></path><g><path d="M -191.2249999999999 51.287499999999994 l 10 -10 l 0 -20 q -7.3 -5 -10 10 l 0 20 z"></path></g></g><g><path d="M -123.47499999999991 31.21249999999999 l 10 -10 l 0 -40 l -9.55 9.55 l -20.65 -29.4 l -7.5 7.5 l 21.6 30.85 l 6.1 -6.1 l 0 37.6 z"></path><path d="M -142.32499999999993 51.21249999999999 l 0 25 l 20 -20 l -1.2 -1.2 l -8.8 8.8 l 0 -22.6 l -10 10 z"></path></g><g><path d="M -81.07499999999993 -38.712500000000006 l -10 10 l 0 60 l 10 -10 l 0 -60 z"></path><g><path d="M -103.47499999999991 41.287499999999994 l 22.4 0 l 10 -10.1 l -19.9 0 l -0.1 0.1 l 0 -0.1 l 0.05 0 l 9.95 -9.9 l 0 -5 q -5 5.774 -10 5 l 0 7.55 l -12.4 12.4 z"></path></g></g><g><path d="M -51.07499999999993 -38.712500000000006 l -10 10 l 0 35 l 26.3 0 l 8.7 -8.75 l 0 33.75 l 10 -10 l 0 -36.15 l -11.15 11.15 l -23.85 0 l 0 -35 z"></path><g><path d="M -61.07499999999993 -28.712500000000006 l 0 5 q 6.25 -9 10 -5 l 0 -7.6 l 11.8 11.7 l 7 -7 l -12.95 -12.95 l -15.85 15.85 z"></path></g><g><path d="M -16.424999999999955 19.187499999999993 q -0.375 0.363 -1.15 1.15 q -6.261 1.099 -8.5 -3.8 l 0 14.75 l 10 -10 l 10 10 l 7.15 -7.15 l -11.3 -11.2 l -5.85 5.9 q -0.04 0.029 -0.35 0.35 z"></path></g><path d="M -19.999999999999943 -54.56250000000001 l 10 -10 l -30 0 l -10 10 l 30 0 z"></path></g><g><path d="M 31.075000000000045 -14.862500000000006 l -10 10 l 0 -33.85 l -10 10 l 0 36.2 l 10 -9.95 l 0 33.75 l 10 -10 l 0 -36.15 z"></path><g><path d="M 21.075000000000045 -58.712500000000006 l -10 10 l 0 20 q 7.3 5 10 -10 l 0 -20 z"></path></g><g><path d="M 31.075000000000045 38.887499999999996 l 0 -17.6 q -7.3 -5 -10 10 l 0 20 l 17.5 -17.5 l -1.2 -1.2 l -6.3 6.3 z"></path></g></g><g><path d="M 56.075000000000045 -38.712500000000006 l -7.5 7.5 57.5 62.5 7.5 -7.5 -57.5 -62.5 z"></path></g><g><path d="M 141.07500000000005 -38.6375 l -10 10 l 0 40 l 9.55 -9.55 l 20.65 29.4 l 7.5 -7.5 l -21.6 -30.85 l -6.1 6.1 l 0 -37.6 z"></path><g><path d="M 131.07500000000005 -46.23750000000001 l 0 17.6 q 7.3 5 10 -10 l 0 -20 l -17.5 17.5 l 1.2 1.2 l 6.3 -6.3 z"></path></g><g><path d="M 162.37500000000006 28.162499999999984 q 3.28 -1.825 6.4 -4.45 l 7.5 -7.5 l -1.2 -1.2 l -7.5 7.5 q -4.106 -1.688 -4.55 -0.35 q -0.6 1.45 -0.65 6 z"></path></g></g><g><path d="M 216.27500000000003 -14.862500000000006 l -10 10 l 0 -33.85 l -10 10 l 0 36.2 l 10 -9.95 l 0 33.75 l 10 -10 l 0 -36.15 z"></path><g><path d="M 218.675 -48.712500000000006 l -22.4 0 l -10 10.1 l 19.9 0 l 0.1 -0.1 l 0 0.1 l -0.05 0 l -9.95 9.9 l 0 5 q 5 -5.774 10 -5 l 0 -7.55 l 12.4 -12.4 z"></path></g><g><path d="M 236.27499999999992 31.287499999999994 l -15 0 l 10 -10 l -15 0 l 0 -10 q -3.85 7.75 -10 5 l 0 15 l 12.55 0 l -9.95 10 l 17.4 0 l 10 -10 z"></path></g></g><g><path d="M 256.175 -38.737500000000004 l -9.9 9.95 l 47.35 58.35 l 0.05 0 l 1.4 1.75 l 7.5 -7.5 l -42.7 -52.55 l 52.05 0 l 10 -10 l -65.75 0 z"></path><g><path d="M 310.075 46.31250000000001 l 7.5 -7.5 l -15 -15 q -6.8 0.5 -7.5 7.5 l 15 15 z"></path></g><path d="M 276.59999999999997 -56.237500000000004 l 7.5 7.5 l 7.5 -7.5 l -7.5 -7.5 l -7.5 7.5 z"></path><path d="M 276.59999999999997 63.8125 l 7.5 7.5 l 7.5 -7.5 l -7.5 -7.5 l -7.5 7.5 z"></path></g></g></g>
</svg>
