<svg xmlns="http://www.w3.org/2000/svg" viewBox="0 0 80 172.294907" width="80" height="172.294907" fill="currentColor" stroke="none">
<g transform="translate(40 86.147453)"><g><g><path d="M 15 -62.32499999999999 l -10 10 l 0 20 l -35 0 l -10 10 l 29.95 29.95 l 7.5 -7.5 l -22.45 -22.45 l 30 0 l 10 -10 l 0 -30 z"></path><path d="M -10.95 6.0249999999999915 l -11.2 11.3 l 22.4 0 l 10 -10.1 l -19.9 0 l 7.1 -7.1 q -10.446 -1.157 -8.4 5.9 z"></path><path d="M -2.5 52.324999999999996 l 0 -25 l -20 20 l 1.2 1.2 l 8.8 -8.8 l 0 22.6 l 10 -10 z"></path><path d="M 25 -27.349999999999987 l 7.5 7.5 l 7.5 -7.5 l -7.5 -7.5 l -7.5 7.5 z"></path></g></g></g>
</svg>
