<svg xmlns="http://www.w3.org/2000/svg" viewBox="0 0 52.5 172.294907" width="52.5" height="172.294907" fill="currentColor" stroke="none">
<g transform="translate(26.25 86.147453)"><g><g><path d="M -8.75 -37.925 l -10 10 l 0 35 l 26.3 0 l 8.7 -8.75 l 0 33.75 l 10 -10 l 0 -36.15 l -11.15 11.15 l -23.85 0 l 0 -35 z"></path><g><path d="M -18.75 -16.724999999999998 q 5 -12.14 10 -11.2 l 0 -10 l -17.5 17.5 l 1.2 1.2 l 6.3 -6.3 l 0 8.8 z"></path></g><g><path d="M 26.25 22.075000000000003 l 0 -5 q -6.25 9 -10 5 l 0 7.6 l -11.8 -11.7 l -7 7 l 12.95 12.95 l 15.85 -15.85 z"></path></g></g></g></g>
</svg>
