<svg xmlns="http://www.w3.org/2000/svg" viewBox="0 0 395.05 100.225" width="395.05" height="100.225" fill="currentColor" stroke="none">
<g transform="translate(197.525 50.1125)"><g><g><path d="M -164.525 13.212500000000004 l 7.45 -7.5 27.05 34.4 7.5 -7.5 -27.8 -36 -7.75 7.8 -26.95 -34.3 -7.5 7.5 28 35.6 z"></path><path d="M -132.625 30.112500000000004 q -1.655 2.716 2.6 10 l 15 0 l 10 -10 l -20 0 q -7.015 -2.931 -7.6 0 z"></path><path d="M -167.525 40.112500000000004 l 10 -10 l -30 0 l -10 10 l 30 0 z"></path><path d="M -129.925 -19.887499999999996 l -8.8 8.8 l 1.2 1.2 l 20 -20 l -30 0 l -10 10 l 27.6 0 z"></path></g><g><path d="M -77.525 -29.887499999999996 l -10 10 l 0 35 l 26.3 0 l 8.7 -8.75 l 0 33.75 l 10 -10 l 0 -36.15 l -11.15 11.15 l -23.85 0 l 0 -35 z"></path><g><path d="M -87.525 -8.687499999999996 q 5 -12.14 10 -11.2 l 0 -10 l -17.5 17.5 l 1.2 1.2 l 6.3 -6.3 l 0 8.8 z"></path></g><g><path d="M -42.525000000000006 30.112500000000004 l 0 -5 q -6.25 9 -10 5 l 0 7.6 l -11.8 -11.7 l -7 7 l 12.95 12.95 l 15.85 -15.85 z"></path></g></g><g><path d="M -22.525000000000006 -29.887499999999996 l -10 10 l 0 60 l 10 -10 l 0 -60 z"></path><g><path d="M -32.525000000000006 25.112500000000004 l 0 15 l 15 0 l 10 -10 l -15 0 l 0 -10 q -3.874 7.753 -10 5 z"></path></g></g><g><path d="M 57.474999999999994 -29.862499999999997 l -10 10 l 0 20 l -35 0 l -10 10 l 29.95 29.95 l 7.5 -7.5 l -22.45 -22.45 l 30 0 l 10 -10 l 0 -30 z"></path><g><path d="M 38.724999999999994 31.387499999999985 q -6.486 -1.216 -4.75 5 q 2.924 -3.894 5.95 -3.8 l 8.8 -8.8 l 0 -15 l -10 10 l 0 12.6 z"></path></g><path d="M 39.974999999999994 -39.862500000000004 l 10 -10 l -30 0 l -10 10 l 30 0 z"></path></g><g><path d="M 77.475 -29.887499999999996 l -10 10 l 0 60 l 10 -10 l 0 -60 z"></path><g><path d="M 77.525 -27.5875 l 15 0 l 10 -10 l -17.4 0 l -17.65 17.7 l 0 7.3 q 5.4 -4.35 10 -2.75 l 0 -12.25 z"></path></g><g><path d="M 67.475 25.112500000000004 l 0 15 l 10 -10 l 0 20 l 10 -9.9 l 0 -22.4 l -10 9.95 l 0 -5.15 q -5 6.1 -10 2.5 z"></path></g></g><g><path d="M 152.525 9.737500000000004 l 10 -10 l -29.85 -29.85 l -7.5 7.5 l 22.35 22.35 l -20 0 l -15 15 l 25.6 25.6 l 7.5 -7.5 l -23.1 -23.1 l 30 0 z"></path><path d="M 147.525 -40.1125 l 10 -10 l -30 0 l -10 10 l 30 0 z"></path></g><g><path d="M 182.525 -29.887499999999996 l -10 10 l 0 60 l 10 -10 l 0 -60 z"></path><g><path d="M 172.525 25.112500000000004 l 0 15 l 15 0 l 10 -10 l -15 0 l 0 -10 q -3.874 7.753 -10 5 z"></path></g></g></g></g>
</svg>
