<svg xmlns="http://www.w3.org/2000/svg" viewBox="0 0 450.65 143.7" width="450.65" height="143.7" fill="currentColor" stroke="none">
<g transform="translate(225.325 71.85)"><g><g><path d="M -217.825 -43.12500000000001 l -7.5 7.5 57.5 62.5 7.5 -7.5 -57.5 -62.5 z"></path><path d="M -163.375 20.474999999999994 q -1.825 3.28 -4.45 6.4 l -7.5 7.5 l -1.2 -1.2 l 7.5 -7.5 q -1.688 -4.106 -0.35 -4.55 q 1.45 -0.6 6 -0.65 z"></path><path d="M -162.825 -33.12500000000001 l 10 -10 l -30 0 l -10 10 l 30 0 z"></path></g><g><path d="M -87.82499999999999 -43.10000000000001 l -10 10 l 0 20 l -35 0 l -10 10 l 29.95 29.95 l 7.5 -7.5 l -22.45 -22.45 l 30 0 l 10 -10 l 0 -30 z"></path><g><path d="M -115.475 16.849999999999973 q -1.65 2.7 2.6 10 l 12.6 0 l -7.5 7.5 l 1.2 1.2 l 18.7 -18.7 l -20 0 q -7 -2.95 -7.6 0 z"></path></g></g><g><path d="M -77.82499999999999 26.849999999999994 l 10 -10 l 0 -20 l 35 0 l 10 -10 l -29.95 -29.95 l -7.5 7.5 l 22.45 22.45 l -30 0 l -10 10 l 0 30 z"></path><path d="M -60.32499999999999 46.85 l 0 25 l 20 -20 l -1.2 -1.2 l -8.8 8.8 l 0 -22.6 l -10 10 z"></path></g><g><path d="M 7.175000000000011 -43.12500000000001 l -10 10 l 0 60 l 10 -10 l 0 -60 z"></path><g><path d="M 7.175000000000011 -28.125000000000007 l 0 -15 l -10 10 l 0 -20 l -10 9.9 l 0 22.4 l 10 -9.95 l 0 5.15 q 5 -6.1 10 -2.5 z"></path></g><g><path d="M 7.175000000000011 16.874999999999993 l 15 0 l 10 -10 l -17.45 0 l -7.6 7.6 l 0.05 -5.05 q -4.6 6.3 -10 4 l 0 13.45 l 9.95 -10 z"></path></g></g><g><path d="M 52.07499999999999 -43.150000000000006 l -9.9 9.95 l 47.35 58.35 l 0.05 0 l 1.4 1.75 l 7.5 -7.5 l -42.7 -52.55 l 52.05 0 l 10 -10 l -65.75 0 z"></path><g><path d="M 97.82499999999999 -33.150000000000006 l 10 0 l 17.5 -17.5 l -1.2 -1.2 l -8.7 8.7 l -7.6 0 q 0.83 5.4 -10 10 z"></path></g><g><path d="M 98.47500000000002 19.400000000000006 q -6.8 0.5 -7.5 7.5 l 15 15 l 15 -15 l -1.2 -1.2 l -7.5 7.5 l -13.8 -13.8 z"></path></g><path d="M 93.75 -61.85000000000001 l 10 -10 l -30 0 l -10 10 l 30 0 z"></path></g><g><path d="M 145.325 -43.12500000000001 l -10 10 l 0 60 l 10 -10 l 0 -60 z"></path><g><path d="M 135.325 11.874999999999993 l 0 15 l 15 0 l 10 -10 l -15 0 l 0 -10 q -3.874 7.753 -10 5 z"></path></g></g><g><path d="M 225.325 -43.10000000000001 l -10 10 l 0 20 l -35 0 l -10 10 l 29.95 29.95 l 7.5 -7.5 l -22.45 -22.45 l 30 0 l 10 -10 l 0 -30 z"></path><path d="M 207.825 -53.100000000000016 l 10 -10 l -30 0 l -10 10 l 30 0 z"></path></g></g></g>
</svg>
