<svg xmlns="http://www.w3.org/2000/svg" viewBox="0 0 239.5 100" width="239.5" height="100" fill="currentColor" stroke="none">
<g transform="translate(119.75 50)"><g><g><path d="M -87.25 10 l 7.5 -7.5 -32.5 -32.5 -7.5 7.5 32.5 32.5 m -17.5 -10 l -7.5 7.5 32.5 32.5 7.5 -7.5 -32.5 -32.5 z"></path><path d="M -82.35 30 q -1.65 2.7 2.6 10 l 12.6 0 l -7.5 7.5 l 1.2 1.2 l 18.7 -18.7 l -20 0 q -7 -2.95 -7.6 0 z"></path><path d="M -86 -40 l 10 -10 l -30 0 l -10 10 l 30 0 z"></path></g><g><path d="M 14.649999999999977 -30 l -50 0 l -9.4 9.4 l 23.2 33.05 l 6.2 -6.25 l 0 33.8 l 10 -10 l 0 -36.15 l -1.1 1.1 q -2.967 2.977 -5.95 5.95 l -1.95 2 l -0.65 0.65 l -16.5 -23.5 l 36.2 0 l 10 -10 z"></path></g><g><path d="M 34.69999999999999 -30 l -10 10 l 0 60 l 10 -10 l 0 -60 z"></path><g><path d="M 34.75 -27.700000000000003 l 15 0 l 10 -10 l -17.4 0 l -17.65 17.7 l 0 7.3 q 5.4 -4.35 10 -2.75 l 0 -12.25 z"></path></g><g><path d="M 24.69999999999999 25 l 0 15 l 10 -10 l 0 20 l 10 -9.9 l 0 -22.4 l -10 9.95 l 0 -5.15 q -5 6.1 -10 2.5 z"></path></g></g><g><path d="M 84.75 -30 l -10 10 l 0 35 l 19.95 0 l -24.95 25 l 40 0 l 10 -10 l -37.6 0 l 24.85 -25 l -22.25 0 l 0 -35 z"></path><path d="M 104.75 -40 l 10 -10 l -30 0 l -10 10 l 30 0 z"></path></g></g></g>
</svg>
