<svg xmlns="http://www.w3.org/2000/svg" viewBox="0 0 591.2 161.3" width="591.2" height="161.3" fill="currentColor" stroke="none">
<g transform="translate(295.6 80.65)"><g><g><path d="M -243.10000000000002 35.650000000000006 l 7.5 -7.5 -26.9 -26.9 7.45 -7.55 -28.05 -28.05 -7.5 7.5 26.9 26.9 -7.5 7.5 28.1 28.1 z"></path><path d="M -295.6 15.650000000000006 l 20 20 l 7.5 -7.5 l -20 -20 l -7.5 7.5 z"></path><path d="M -278.1 53.150000000000006 l 7.5 7.5 l 7.5 -7.5 l -7.5 -7.5 l -7.5 7.5 z"></path></g><g><path d="M -175.60000000000002 -24.349999999999994 l 10 -10 l -50 0 l -10 10 l 0 30 l 30 0 l 0 30 l 10 -10 l 0 -30 l -30 0 l 0 -20 l 40 0 z"></path></g><g><path d="M -108.10000000000002 35.650000000000006 l 7.5 -7.5 -26.9 -26.9 7.45 -7.55 -28.05 -28.05 -7.5 7.5 26.9 26.9 -7.5 7.5 28.1 28.1 z"></path><path d="M -146.95000000000002 -33.199999999999996 l 15.05 0 l 10 -10 l -17.45 0 l -8.75 8.85 q -1.75 3.2 -4.85 7.2 q 5.7 0.35 6 -6.05 z"></path><path d="M -110.70000000000002 25.650000000000006 q -1.655 2.716 2.6 10 l 15 0 l 10 -10 l -20 0 q -7.015 -2.931 -7.6 0 z"></path><path d="M -100.50000000000003 -24.349999999999994 l -8.8 8.8 l 1.2 1.2 l 20 -20 l -30 0 l -10 10 l 27.6 0 z"></path><path d="M -135.60000000000002 -51.849999999999994 l 7.5 7.5 l 7.5 -7.5 l -7.5 -7.5 l -7.5 7.5 z"></path></g><g><path d="M -63.200000000000045 -34.37499999999999 l -9.9 9.95 l 47.35 58.35 l 0.05 0 l 1.4 1.75 l 7.5 -7.5 l -42.7 -52.55 l 52.05 0 l 10 -10 l -65.75 0 z"></path><g><path d="M -9.300000000000068 50.67500000000002 l 7.5 -7.5 l -15 -15 q -6.8 0.5 -7.5 7.5 l 15 15 z"></path></g><path d="M -25.275000000000034 70.67500000000001 l 10 -10 l -30 0 l -10 10 l 30 0 z"></path></g><g><path d="M 67.54999999999995 35.650000000000006 l 10 -10 l 0 -50 l 10 -10 l -45 0 l -10 10 l 42.6 0 l -7.6 7.6 l 0 42.4 l -30 0 l -10 10 l 40 0 z"></path><g><path d="M 32.549999999999955 -24.349999999999994 l 15 0 q -2.75 -6.15 5 -10 l -10 0 l 0 -12.6 l 7.5 -7.5 l -1.2 -1.2 l -16.3 16.3 l 0 15 z"></path></g><g><path d="M 32.549999999999955 25.650000000000006 l -12.5 -12.5 l -7.5 7.5 l 15 15 q 8.65 -2.75 10 -10 l -5 0 z"></path></g><path d="M 42.549999999999955 -73.15 l 7.5 7.5 l 7.5 -7.5 l -7.5 -7.5 l -7.5 7.5 z"></path><path d="M 40.049999999999955 55.650000000000006 l 0 25 l 20 -20 l -1.2 -1.2 l -8.8 8.8 l 0 -22.6 l -10 10 z"></path></g><g><path d="M 107.54999999999995 -34.349999999999994 l -10 10 l 0 60 l 10 -10 l 0 -60 z"></path><g><path d="M 97.54999999999995 20.650000000000006 l 0 15 l 15 0 l 10 -10 l -15 0 l 0 -10 q -3.874 7.753 -10 5 z"></path></g></g><g><path d="M 147.54999999999995 -34.349999999999994 l -10 10 l 0 35 l 19.95 0 l -24.95 25 l 40 0 l 10 -10 l -37.6 0 l 24.85 -25 l -22.25 0 l 0 -35 z"></path><path d="M 167.54999999999995 -44.349999999999994 l 10 -10 l -30 0 l -10 10 l 30 0 z"></path></g><g><path d="M 202.54999999999995 -34.349999999999994 l -10 10 l 0 60 l 10 -10 l 0 -60 z"></path><g><path d="M 202.59999999999997 -32.05 l 15 0 l 10 -10 l -17.4 0 l -17.65 17.7 l 0 7.3 q 5.4 -4.35 10 -2.75 l 0 -12.25 z"></path></g></g><g><path d="M 247.60000000000002 -34.27499999999999 l -10 10 l 0 40 l 9.55 -9.55 l 20.65 29.4 l 7.5 -7.5 l -21.6 -30.85 l -6.1 6.1 l 0 -37.6 z"></path><g><path d="M 285.80000000000007 35.175 l -17.6 0 l 7.1 -7.1 q -10.45 -1.15 -8.4 5.9 l -11.2 11.3 l 22.4 0 l 17.5 -17.5 l -1.2 -1.2 l -8.6 8.6 z"></path></g><path d="M 276.6 -44.275 l 10 -10 l -30 0 l -10 10 l 30 0 z"></path></g></g></g>
</svg>
