<svg xmlns="http://www.w3.org/2000/svg" viewBox="0 0 67.6 172.294907" width="67.6" height="172.294907" fill="currentColor" stroke="none">
<g transform="translate(33.8 86.147453)"><g><g><path d="M -16.199999999999996 -2.5 l -10 10 l 50 0 l 10 -10 l 0 -30 l -30 0 l 0 -30 l -10 10 l 0 30 l 30 0 l 0 20 l -40 0 z"></path><g><path d="M -17.499999999999996 -21.25 l -16.3 16.3 l 0 22.45 l 10 -10 l 12.6 0 q -3.5 -4 0 -10 l -5 0 l -7.6 7.65 l 0 -17.7 l 7.5 -7.5 l -1.2 -1.2 z"></path></g><path d="M 10 52.5 l 0 -25 l -20 20 l 1.2 1.2 l 8.8 -8.8 l 0 22.6 l 10 -10 z"></path></g></g></g>
</svg>
