<svg xmlns="http://www.w3.org/2000/svg" viewBox="0 0 50 172.294907" width="50" height="172.294907" fill="currentColor" stroke="none">
<g transform="translate(25 86.147453)"><g><g><path d="M -15 -53.2 l -10 10 l 0 36.3 l 10 -10.05 l 0 33.75 l 10 -10 l 0 -36.15 l -10 10 l 0 -23.85 l 30 0 l 10 -10 l -40 0 z"></path><g><path d="M 5.100000000000001 -35.7 l 1.2 1.2 l 18.7 -18.7 l -10 0 q 0.85 5.4 -10 10 l 7.6 0 l -7.5 7.5 z"></path></g><g><path d="M -11.3 33.199999999999996 l 16.3 -16.3 l 0 -22.45 l -10 10 l 0 -5.15 q -5 6.1 -10 2.5 l 0 15 l 10 -10 l 0 17.7 l -7.5 7.5 l 1.2 1.2 z"></path></g><path d="M 10 53.2 l 10 -10 l -30 0 l -10 10 l 30 0 z"></path></g></g></g>
</svg>
