<svg xmlns="http://www.w3.org/2000/svg" viewBox="0 0 50.15 172.294907" width="50.15" height="172.294907" fill="currentColor" stroke="none">
<g transform="translate(25.075 86.147453)"><g><g><path d="M 15.075 19.474999999999994 l 10 -10 l -29.85 -29.85 l -7.5 7.5 l 22.35 22.35 l -20 0 l -15 15 l 25.6 25.6 l 7.5 -7.5 l -23.1 -23.1 l 30 0 z"></path><g><path d="M -3.875 -18.775000000000006 l 11.2 -11.3 l -22.4 0 l -10 10.1 l 19.9 0 l -7.1 7.1 q 10.446 1.157 8.4 -5.9 z"></path></g><g><path d="M 6.974999999999998 41.375 q -6.486 -1.216 -4.75 5 q 2.924 -3.894 5.95 -3.8 l 8.8 -8.8 l 0 -15 l -10 10 l 0 12.6 z"></path></g><path d="M 10.000000000000004 -40.075 l 10 -10 l -30 0 l -10 10 l 30 0 z"></path></g></g></g>
</svg>
