<svg xmlns="http://www.w3.org/2000/svg" viewBox="0 0 187.4 108.8" width="187.4" height="108.8" fill="currentColor" stroke="none">
<g transform="translate(93.7 54.4)"><g><g><path d="M -75.49999999999999 -34.400000000000006 l -10 10 l 0 60 l 10 -10 l 0 -60 z"></path><g><path d="M -73.69999999999999 47.39999999999999 l -11.8 -11.8 l 10 -10 l 0 -5 q -5.188 7.964 -10 5 l 0 7.7 l -8.2 8.2 l 13 12.9 l 7 -7 z"></path></g></g><g><path d="M -8.699999999999989 -34.37500000000001 l -10 10 l 0 20 l -35 0 l -10 10 l 29.95 29.95 l 7.5 -7.5 l -22.45 -22.45 l 30 0 l 10 -10 l 0 -30 z"></path><g><path d="M -36.349999999999994 25.574999999999974 q -1.65 2.7 2.6 10 l 12.6 0 l -7.5 7.5 l 1.2 1.2 l 18.7 -18.7 l -20 0 q -7 -2.95 -7.6 0 z"></path></g><path d="M -26.19999999999999 -44.375000000000014 l 10 -10 l -30 0 l -10 10 l 30 0 z"></path></g><g><path d="M 23.700000000000003 -34.400000000000006 l -10 10 l 0 60 l 10 -10 l 0 -60 z"></path><g><path d="M 1.2999999999999972 45.599999999999994 l 22.4 0 l 10 -10.1 l -19.9 0 l -0.1 0.1 l 0 -0.1 l 0.05 0 l 9.95 -9.9 l 0 -5 q -5 5.774 -10 5 l 0 7.55 l -12.4 12.4 z"></path></g></g><g><path d="M 58.69999999999999 -34.400000000000006 l -10 10 l 0 35 l 19.95 0 l -24.95 25 l 40 0 l 10 -10 l -37.6 0 l 24.85 -25 l -22.25 0 l 0 -35 z"></path><path d="M 78.69999999999999 -44.400000000000006 l 10 -10 l -30 0 l -10 10 l 30 0 z"></path></g></g></g>
</svg>
