<svg xmlns="http://www.w3.org/2000/svg" viewBox="0 0 488.25 140" width="488.25" height="140" fill="currentColor" stroke="none">
<g transform="translate(244.125 70)"><g><g><path d="M -234.12499999999997 -45 l -10 10 l 0 60 l 10 -10 l 0 -60 z"></path></g><g><path d="M -209.075 -35 l 34.95 0 l 10 -10 l -50 0 l -10 10 l 25 25 l 0 35 l 10 -10 l 0 -30.05 l -19.95 -19.95 z"></path><path d="M -184.12499999999997 -55 l 10 -10 l -30 0 l -10 10 l 30 0 z"></path></g><g><path d="M -144.12499999999997 -45 l -10 10 l 0 60 l 10 -10 l 0 -60 z"></path><g><path d="M -144.075 -42.7 l 15 0 l 10 -10 l -17.4 0 l -17.65 17.7 l 0 7.3 q 5.4 -4.35 10 -2.75 l 0 -12.25 z"></path></g><g><path d="M -154.12499999999997 10 l 0 15 l 15 0 l 10 -10 l -15 0 l 0 -10 q -3.874 7.753 -10 5 z"></path></g></g><g><path d="M -54.07499999999996 -44.975 l -10 10 l 0 20 l -35 0 l -10 10 l 29.95 29.95 l 7.5 -7.5 l -22.45 -22.45 l 30 0 l 10 -10 l 0 -30 z"></path><g><path d="M -76.62499999999997 22.47499999999998 l 5 -5 l 10 10 l 7.15 -7.15 l -11.3 -11.2 l -7 7.1 l -1 1 q -3.183 -1.742 -3.85 0 q -0.916 1.293 0 6.25 z"></path></g><path d="M -71.57499999999996 -54.97500000000001 l 10 -10 l -30 0 l -10 10 l 30 0 z"></path></g><g><path d="M -11.57499999999996 -5 l 7.5 -7.5 -32.5 -32.5 -7.5 7.5 32.5 32.5 m -17.5 -10 l -7.5 7.5 32.5 32.5 7.5 -7.5 -32.5 -32.5 z"></path></g><g><path d="M 23.325000000000017 -45.025 l -9.9 9.95 l 47.35 58.35 l 0.05 0 l 1.4 1.75 l 7.5 -7.5 l -42.7 -52.55 l 52.05 0 l 10 -10 l -65.75 0 z"></path><g><path d="M 89.07500000000002 -45.025 l 12.65 0 l -7.5 7.5 l 1.2 1.2 l 18.7 -18.7 l -17.45 0 l -9.95 10 l -7.6 0 q 4.95 4.2 -6.25 10 l 6.25 0 l 9.95 -10 z"></path></g><g><path d="M 68.525 36.17500000000001 l -7.5 7.5 l 1.2 1.2 l 16.3 -16.3 l 0 -22.35 l -10 10.1 q -4.2 -0.65 -6.3 2.7 q -0.8 1 0 6 l 6.3 -6.3 l 0 17.45 z"></path></g></g><g><path d="M 134.12499999999997 -45 l -10 10 l 0 60 l 40 0 l 10 -10 l -40 0 l 0 -60 z"></path><path d="M 141.62499999999997 -62.5 l 7.5 7.5 l 7.5 -7.5 l -7.5 -7.5 l -7.5 7.5 z"></path><path d="M 139.12499999999997 45 l 0 25 l 20 -20 l -1.2 -1.2 l -8.8 8.8 l 0 -22.6 l -10 10 z"></path></g><g><path d="M 212.07499999999996 -60 l -7.5 7.5 l 21.65 27.5 l 7.45 -7.5 l -21.6 -27.5 z"></path><path d="M 194.12499999999997 -15 l -10 10 l 50 0 l 10 -10 l -50 0 z"></path></g></g></g>
</svg>
