<svg xmlns="http://www.w3.org/2000/svg" viewBox="0 0 376 115" width="376" height="115" fill="currentColor" stroke="none">
<g transform="translate(188 57.5)"><g><g><path d="M -151.75 7.5 l 7.5 -7.5 -32.5 -32.5 -7.5 7.5 32.5 32.5 m -17.5 -10 l -7.5 7.5 32.5 32.5 7.5 -7.5 -32.5 -32.5 z"></path><path d="M -158 57.5 l 10 -10 l -30 0 l -10 10 l 30 0 z"></path></g><g><path d="M -86.75 -32.5 l -10 10 l 0 20 l -20 0 l -10 10 l 0 30 l 30 0 l 10 -10 l -30 0 l 0 -20 l 20 0 l 10 -10 l 0 -30 z"></path><g><path d="M -96.4 -20.4 q 0.375 -0.363 1.15 -1.15 q 6.261 -1.099 8.5 3.8 l 0 -14.75 l -10 10 l -10 -10 l -7.15 7.15 l 11.3 11.2 l 5.85 -5.9 q 0.04 -0.029 0.35 -0.35 z"></path></g><g><path d="M -101.3 37.5 l 4.55 0 l 8.8 -8.8 l 10 10 l 7.15 -7.15 l -11.3 -11.2 l -7.05 7.15 l -6.3 0 q 3.7 5 -5.85 10 z"></path></g></g><g><path d="M -40.80000000000001 -8.65 l -10 10 l 0 -33.85 l -10 10 l 0 36.2 l 10 -9.95 l 0 33.75 l 10 -10 l 0 -36.15 z"></path><g><path d="M -50.80000000000001 35.1 l -7.5 7.55 q 16.8 -0.55 27.5 12.45 q -4.6 -18.35 -18.85 -18.8 l 8.85 -8.8 l 0 -5 q -4.75 4.55 -10 1.5 l 0 11.1 z"></path></g></g><g><path d="M 11.699999999999989 -35 l 12.5 12.5 l -25 0 l -10 10 l 40 0 l 10 -10 l -20 -20 l -7.5 7.5 z"></path><path d="M -10.800000000000011 -2.5 l -10 10 l 50 0 l 10 -10 l -50 0 z"></path></g><g><path d="M 86 10.6 l 7.45 -7.5 27.05 34.4 7.5 -7.5 -27.8 -36 -7.75 7.8 -26.95 -34.3 -7.5 7.5 28 35.6 z"></path><path d="M 59.19999999999999 -23.8 q 6.486 1.216 4.75 -5 q -2.924 3.894 -5.95 3.8 l -8.8 8.8 l 0 15 l 10 -10 l 0 -12.6 z"></path><path d="M 124.94999999999999 31.1 q -1.825 3.28 -4.45 6.4 l -7.5 7.5 l -1.2 -1.2 l 7.5 -7.5 q -1.688 -4.106 -0.35 -4.55 q 1.45 -0.6 6 -0.65 z"></path><path d="M 85.5 -50 l 7.5 7.5 l 7.5 -7.5 l -7.5 -7.5 l -7.5 7.5 z"></path></g><g><path d="M 148 -32.5 l -10 10 l 0 36.3 l 10 -10.05 l 0 33.75 l 10 -10 l 0 -36.15 l -10 10 l 0 -23.85 l 30 0 l 10 -10 l -40 0 z"></path><path d="M 155.5 -50 l 7.5 7.5 l 7.5 -7.5 l -7.5 -7.5 l -7.5 7.5 z"></path><path d="M 173 57.5 l 10 -10 l -30 0 l -10 10 l 30 0 z"></path></g></g></g>
</svg>
