<svg xmlns="http://www.w3.org/2000/svg" viewBox="0 0 87.55 172.294907" width="87.55" height="172.294907" fill="currentColor" stroke="none">
<g transform="translate(43.775 86.147453)"><g><g><path d="M -11.224999999999994 26.774999999999984 l 10 -10 l 0 -20 l 35 0 l 10 -10 l -29.95 -29.95 l -7.5 7.5 l 22.45 22.45 l -30 0 l -10 10 l 0 30 z"></path><g><path d="M -1.2249999999999943 16.77499999999999 l 0 -7.3 q -4.546 5.888 -10 3.05 l 0 11.95 l -15.05 0 l -17.5 17.5 l 1.2 1.2 l 8.7 -8.7 l 15 0 l 17.65 -17.7 z"></path></g><path d="M -7.499999999999993 -60.67500000000001 l 7.5 7.5 l 7.5 -7.5 l -7.5 -7.5 l -7.5 7.5 z"></path><path d="M -7.499999999999993 60.675 l 7.5 7.5 l 7.5 -7.5 l -7.5 -7.5 l -7.5 7.5 z"></path></g></g></g>
</svg>
