<svg xmlns="http://www.w3.org/2000/svg" viewBox="0 0 308.2 145.85" width="308.2" height="145.85" fill="currentColor" stroke="none">
<g transform="translate(154.1 72.925)"><g><g><path d="M -126.1 1.0249999999999968 l 7.45 -7.5 27.05 34.4 7.5 -7.5 -27.8 -36 -7.75 7.8 -26.95 -34.3 -7.5 7.5 28 35.6 z"></path><path d="M -109.1 -52.075 l 10 -10 l -30 0 l -10 10 l 30 0 z"></path></g><g><path d="M -64.19999999999999 -42.1 l -9.9 9.95 l 47.35 58.35 l 0.05 0 l 1.4 1.75 l 7.5 -7.5 l -42.7 -52.55 l 52.05 0 l 10 -10 l -65.75 0 z"></path></g><g><path d="M 46.55000000000001 27.924999999999997 l 10 -10 l 0 -35 l -26.3 0 l -8.7 8.75 l 0 -33.75 l -10 10 l 0 36.15 l 11.15 -11.15 l 23.85 0 l 0 35 z"></path><g><path d="M 11.550000000000011 -32.075 l 0 5 q 6.25 -9 10 -5 l 0 -7.6 l 11.8 11.7 l 7 -7 l -12.95 -12.95 l -15.85 15.85 z"></path></g><g><path d="M 56.55000000000001 6.724999999999998 q -5 12.14 -10 11.2 l 0 10 l 17.5 -17.5 l -1.2 -1.2 l -6.3 6.3 l 0 -8.8 z"></path></g><path d="M 30.30000000000001 -65.42500000000001 l 7.5 7.5 l 7.5 -7.5 l -7.5 -7.5 l -7.5 7.5 z"></path><path d="M 27.80000000000001 47.925 l 0 25 l 20 -20 l -1.2 -1.2 l -8.8 8.8 l 0 -22.6 l -10 10 z"></path></g><g><path d="M 116.6 -18.225 l -10 10 l 0 -33.85 l -10 10 l 0 36.2 l 10 -9.95 l 0 33.75 l 10 -10 l 0 -36.15 z"></path><g><path d="M 116.6 17.924999999999997 l 0 -7.3 q -4.546 5.888 -10 3.05 l 0 11.95 l -15.05 0 l -17.5 17.5 l 1.2 1.2 l 8.7 -8.7 l 15 0 l 17.65 -17.7 z"></path></g></g><g><path d="M 145.35 -42.075 l -10 10 l 0 60 l 10 -10 l 0 -60 z"></path><path d="M 126.6 45.425 l 20 20 l 7.5 -7.5 l -20 -20 l -7.5 7.5 z"></path></g></g></g>
</svg>
