<svg xmlns="http://www.w3.org/2000/svg" viewBox="0 0 82.55 172.294907" width="82.55" height="172.294907" fill="currentColor" stroke="none">
<g transform="translate(41.275 86.147453)"><g><g><path d="M 26.175000000000004 16.35 l -34.95 0 l -10 10 l 50 0 l 10 -10 l -25 -25 l 0 -35 l -10 10 l 0 30.05 l 19.95 19.95 z"></path><g><path d="M 16.275 -41.35 l 15 0 l 10 -10 l -17.4 0 l -17.65 17.7 l 0 7.3 q 5.4 -4.35 10 -2.75 l 0 -12.25 z"></path></g><g><path d="M -41.275 18.85 l 1.2 1.2 l 7.5 -7.5 l 13.8 13.8 q 8.65 -2.75 10 -10 l -5 0 l -12.5 -12.5 l -15 15 z"></path></g><path d="M -7.5 43.85 l 7.5 7.5 l 7.5 -7.5 l -7.5 -7.5 l -7.5 7.5 z"></path></g></g></g>
</svg>
