<svg xmlns="http://www.w3.org/2000/svg" viewBox="0 0 480.55 125" width="480.55" height="125" fill="currentColor" stroke="none">
<g transform="translate(240.275 62.5)"><g><g><path d="M -217.875 -27.5 l -10 10 l 0 60 l 10 -10 l 0 -60 z"></path><g><path d="M -240.275 52.5 l 22.4 0 l 10 -10.1 l -19.9 0 l -0.1 0.1 l 0 -0.1 l 0.05 0 l 9.95 -9.9 l 0 -5 q -5 5.774 -10 5 l 0 7.55 l -12.4 12.4 z"></path></g></g><g><path d="M -147.875 -17.5 l 10 -10 l -50 0 l -10 10 l 0 30 l 30 0 l 0 30 l 10 -10 l 0 -30 l -30 0 l 0 -20 l 40 0 z"></path><path d="M -157.875 -37.5 l 10 -10 l -30 0 l -10 10 l 30 0 z"></path></g><g><path d="M -117.875 -27.5 l -10 10 l 0 60 l 10 -10 l 0 -60 z"></path></g><g><path d="M -42.22500000000002 -17.425 l 10 -10 l -65.75 0 l -9.9 9.95 l 30.45 37.55 l 7.25 -7.3 l 24.15 29.65 l 7.45 -7.4 l -25.2 -31.05 l -7.5 7.45 l -23.1 -28.85 l 52.15 0 z"></path><g><path d="M -38.525000000000006 34.925 q -6.8 0.5 -7.5 7.5 l 15 15 l 15 -15 l -1.2 -1.2 l -7.5 7.5 l -13.8 -13.8 z"></path></g><path d="M -51.95000000000002 -37.425 l 10 -10 l -30 0 l -10 10 l 30 0 z"></path></g><g><path d="M 1.4749999999999943 -27.5 l -7.5 7.5 57.5 62.5 7.5 -7.5 -57.5 -62.5 z"></path></g><g><path d="M 136.42499999999998 32.5 l -34.95 0 l -10 10 l 50 0 l 10 -10 l -25 -25 l 0 -35 l -10 10 l 0 30.05 l 19.95 19.95 z"></path><g><path d="M 138.87499999999997 -37.5 l -22.4 0 l -10 10.1 l 19.9 0 l 0.1 -0.1 l 0 0.1 l -0.05 0 l -9.95 9.9 l 0 5 q 5 -5.774 10 -5 l 0 -7.55 l 12.4 -12.4 z"></path></g><g><path d="M 68.975 35 l 1.2 1.2 l 7.5 -7.5 l 13.8 13.8 q 8.65 -2.75 10 -10 l -5 0 l -12.5 -12.5 l -15 15 z"></path></g><path d="M 102.725 -55 l 7.5 7.5 l 7.5 -7.5 l -7.5 -7.5 l -7.5 7.5 z"></path></g><g><path d="M 170.275 18.65 l 10 -10 l 0 33.85 l 10 -10 l 0 -36.2 l -10 9.95 l 0 -33.75 l -10 10 l 0 36.15 z"></path><g><path d="M 170.275 -35.1 l 0 17.6 q 7.3 5 10 -10 l 0 -20 l -17.5 17.5 l 1.2 1.2 l 6.3 -6.3 z"></path></g><g><path d="M 190.275 32.5 l 0 -5 q -6.25 9 -10 5 l 0 7.6 l -11.8 -11.7 l -7 7 l 12.95 12.95 l 15.85 -15.85 z"></path></g></g><g><path d="M 200.275 18.65 l 10 -10 l 0 33.85 l 10 -10 l 0 -36.2 l -10 9.95 l 0 -33.75 l -10 10 l 0 36.15 z"></path><g><path d="M 210.275 62.5 l 10 -10 l 0 -20 q -7.3 -5 -10 10 l 0 20 z"></path></g></g><g><path d="M 240.275 -27.5 l -10 10 l 0 60 l 10 -10 l 0 -60 z"></path></g></g></g>
</svg>
