<svg xmlns="http://www.w3.org/2000/svg" viewBox="0 0 69.9 172.294907" width="69.9" height="172.294907" fill="currentColor" stroke="none">
<g transform="translate(34.95 86.147453)"><g><g><path d="M 15.049999999999997 -40 l 10 -10 l -50 0 l -10 10 l 0 30 l 30 0 l 0 30 l 10 -10 l 0 -30 l -30 0 l 0 -20 l 40 0 z"></path><g><path d="M 2.6499999999999986 -30 l 22.4 0 l 9.9 -10 l -19.9 0 l 10 -10 l -12.65 0 q 5.504 3.447 -5.3 10 l 5.5 0 l -9.95 10 z"></path></g><g><path d="M -17.35 30 l 22.4 0 l 10 -10.1 l -19.9 0 l -0.1 0.1 l 0 -0.1 l 0.05 0 l 9.95 -9.9 l 0 -5 q -5 5.774 -10 5 l 0 7.55 l -12.4 12.4 z"></path></g><path d="M 10 50 l 10 -10 l -30 0 l -10 10 l 30 0 z"></path></g></g></g>
</svg>
