<svg xmlns="http://www.w3.org/2000/svg" viewBox="0 0 323.15 121.4" width="323.15" height="121.4" fill="currentColor" stroke="none">
<g transform="translate(161.575 60.7)"><g><g><path d="M -154.075 -40.67500000000002 l -7.5 7.5 57.5 62.5 7.5 -7.5 -57.5 -62.5 z"></path><path d="M -152.92499999999998 -39.52500000000002 l 15.05 0 l 10 -10 l -17.45 0 l -8.75 8.85 q -1.75 3.2 -4.85 7.2 q 5.7 0.35 6 -6.05 z"></path><path d="M -106.67499999999998 19.32499999999998 q -1.655 2.716 2.6 10 l 15 0 l 10 -10 l -20 0 q -7.015 -2.931 -7.6 0 z"></path><path d="M -151.575 11.824999999999982 l -10 10 l 0 25 l 10 -10 l 0 -25 z"></path><path d="M -99.07499999999999 -30.67500000000002 l 10 -10 l -30 0 l -10 10 l 30 0 z"></path></g><g><path d="M -59.07499999999999 -40.67500000000002 l -10 10 l 0 60 l 10 -10 l 0 -50 l 30 0 l 10 -10 l -40 0 z"></path></g><g><path d="M 33.42500000000001 29.32499999999998 l 7.5 -7.5 l -31.25 -31.25 l 31.25 -31.25 l -40 0 l -10 10 l 37.6 0 l -27.5 27.6 l 32.4 32.4 z"></path><path d="M 25.92500000000001 49.32499999999998 l 10 -10 l -30 0 l -10 10 l 30 0 z"></path></g><g><path d="M 60.92500000000001 -40.67500000000002 l -10 10 l 0 60 l 10 -10 l 0 -60 z"></path><g><path d="M 50.92500000000001 14.324999999999982 l 0 15 l 15 0 l 10 -10 l -15 0 l 0 -10 q -3.874 7.753 -10 5 z"></path></g></g><g><path d="M 95.82499999999999 -40.70000000000002 l -9.9 9.95 l 47.35 58.35 l 0.05 0 l 1.4 1.75 l 7.5 -7.5 l -42.7 -52.55 l 52.05 0 l 10 -10 l -65.75 0 z"></path><g><path d="M 117.22499999999997 59.49999999999999 l 1.2 1.2 l 16.3 -16.3 l 0 -15.05 l 7.5 -7.5 q -11.45 -4.9 -8.7 6.3 l -8.8 8.9 l 0 14.95 l -7.5 7.5 z"></path></g><path d="M 133.75 -50.70000000000002 l 10 -10 l -30 0 l -10 10 l 30 0 z"></path></g></g></g>
</svg>
