<svg xmlns="http://www.w3.org/2000/svg" viewBox="0 0 200.65 108.8" width="200.65" height="108.8" fill="currentColor" stroke="none">
<g transform="translate(100.325 54.4)"><g><g><path d="M -90.32500000000002 -34.4 l -10 10 l 0 60 l 10 -10 l 0 -60 z"></path><g><path d="M -100.32500000000002 20.6 l 0 15 l 15 0 l 10 -10 l -15 0 l 0 -10 q -3.874 7.753 -10 5 z"></path></g></g><g><path d="M 0.3249999999999744 -24.325 l 10 -10 l -65.75 0 l -9.9 9.95 l 30.45 37.55 l 7.25 -7.3 l 24.15 29.65 l 7.45 -7.4 l -25.2 -31.05 l -7.5 7.45 l -23.1 -28.85 l 52.15 0 z"></path><path d="M -17.50000000000003 -44.324999999999996 l 10 -10 l -30 0 l -10 10 l 30 0 z"></path></g><g><path d="M 38.52499999999998 -34.4 l -10 10 l 0 60 l 10 -10 l 0 -60 z"></path><g><path d="M 40.32499999999999 47.4 l -11.8 -11.8 l 10 -10 l 0 -5 q -5.188 7.964 -10 5 l 0 7.7 l -8.2 8.2 l 13 12.9 l 7 -7 z"></path></g></g><g><path d="M 60.32500000000002 -34.4 l -10 10 l 0 36.3 l 10 -10.05 l 0 33.75 l 10 -10 l 0 -36.15 l -10 10 l 0 -23.85 l 30 0 l 10 -10 l -40 0 z"></path><path d="M 85.32500000000002 -44.4 l 10 -10 l -30 0 l -10 10 l 30 0 z"></path></g></g></g>
</svg>
