<svg xmlns="http://www.w3.org/2000/svg" viewBox="0 0 61.25 172.294907" width="61.25" height="172.294907" fill="currentColor" stroke="none">
<g transform="translate(30.625 86.147453)"><g><g><path d="M 28.775 -55 l -50 0 l -9.4 9.4 l 23.2 33.05 l 6.2 -6.25 l 0 33.8 l 10 -10 l 0 -36.15 l -1.1 1.1 q -2.967 2.977 -5.95 5.95 l -1.95 2 l -0.65 0.65 l -16.5 -23.5 l 36.2 0 l 10 -10 z"></path><g><path d="M 30.624999999999993 -33.2 l -11.8 -11.8 l 10 -10 l -11.15 0 q 3.75 5.2 -5.8 10 l 4.65 0 l -5.9 5.9 l 13 12.9 l 7 -7 z"></path></g><g><path d="M 8.774999999999999 22.6 l 0 -17.6 q -7.3 -5 -10 10 l 0 20 l 17.5 -17.5 l -1.2 -1.2 l -6.3 6.3 z"></path></g><path d="M 9.999999999999993 55 l 10 -10 l -30 0 l -10 10 l 30 0 z"></path></g></g></g>
</svg>
