<svg xmlns="http://www.w3.org/2000/svg" viewBox="0 0 72.5 172.294907" width="72.5" height="172.294907" fill="currentColor" stroke="none">
<g transform="translate(36.25 86.147453)"><g><g><path d="M 26.25 22.5 l 10 -10 l 0 -60 l -10 10 l 0 50 l -30 0 l -10 10 l 40 0 z"></path><g><path d="M 26.25 -55.1 l 0 17.6 q 7.3 5 10 -10 l 0 -20 l -17.5 17.5 l 1.2 1.2 l 6.3 -6.3 z"></path></g><g><path d="M -36.25 15 l 1.2 1.2 l 7.5 -7.5 l 13.8 13.8 q 8.65 -2.75 10 -10 l -5 0 l -12.5 -12.5 l -15 15 z"></path></g><path d="M 10 57.5 l 0 -25 l -20 20 l 1.2 1.2 l 8.8 -8.8 l 0 22.6 l 10 -10 z"></path></g></g></g>
</svg>
